  0
SECTION
  2
HEADER
  9
$ACADVER
  1
AC1014
  9
$HANDSEED
  5
FFFF
  9
$MEASUREMENT
 70
     1
  0
ENDSEC
  0
SECTION
  2
TABLES
  0
TABLE
  2
VPORT
  5
8
330
0
100
AcDbSymbolTable
 70
     4
  0
VPORT
  5
2E
330
8
100
AcDbSymbolTableRecord
100
AcDbViewportTableRecord
  2
*ACTIVE
 70
     0
 10
0.0
 20
0.0
 11
1.0
 21
1.0
 12
210.0
 22
148.5
 13
0.0
 23
0.0
 14
10.0
 24
10.0
 15
10.0
 25
10.0
 16
0.0
 26
0.0
 36
1.0
 17
0.0
 27
0.0
 37
0.0
 40
341.0
 41
1.24
 42
50.0
 43
0.0
 44
0.0
 50
0.0
 51
0.0
 71
     0
 72
   100
 73
     1
 74
     3
 75
     0
 76
     0
 77
     0
 78
     0
  0
ENDTAB
  0
TABLE
  2
LTYPE
  5
5
330
0
100
AcDbSymbolTable
 70
     1
  0
LTYPE
  5
14
330
5
100
AcDbSymbolTableRecord
100
AcDbLinetypeTableRecord
  2
BYBLOCK
 70
     0
  3

 72
    65
 73
     0
 40
0.0
  0
LTYPE
  5
15
330
5
100
AcDbSymbolTableRecord
100
AcDbLinetypeTableRecord
  2
BYLAYER
 70
     0
  3

 72
    65
 73
     0
 40
0.0
  0
LTYPE
  5
16
330
5
100
AcDbSymbolTableRecord
100
AcDbLinetypeTableRecord
  2
CONTINUOUS
 70
     0
  3
Solid line
 72
    65
 73
     0
 40
0.0
  0
ENDTAB
  0
TABLE
  2
LAYER
  5
2
100
AcDbSymbolTable
 70
2
  0
LAYER
  5
50
100
AcDbSymbolTableRecord
100
AcDbLayerTableRecord
  2
0
 70
0
  6
CONTINUOUS
  0
LAYER
  5
51
100
AcDbSymbolTableRecord
100
AcDbLayerTableRecord
  2
Capa_1
 70
0
  6
CONTINUOUS
  0
ENDTAB
  0
TABLE
  2
STYLE
  5
3
330
0
100
AcDbSymbolTable
 70
     1
  0
STYLE
  5
11
330
3
100
AcDbSymbolTableRecord
100
AcDbTextStyleTableRecord
  2
STANDARD
 70
     0
 40
0.0
 41
1.0
 50
0.0
 71
     0
 42
2.5
  3
txt
  4

  0
ENDTAB
  0
TABLE
  2
VIEW
  5
6
330
0
100
AcDbSymbolTable
 70
     0
  0
ENDTAB
  0
TABLE
  2
UCS
  5
7
330
0
100
AcDbSymbolTable
 70
     0
  0
ENDTAB
  0
TABLE
  2
APPID
  5
9
330
0
100
AcDbSymbolTable
 70
     2
  0
APPID
  5
12
330
9
100
AcDbSymbolTableRecord
100
AcDbRegAppTableRecord
  2
ACAD
 70
     0
  0
ENDTAB
  0
TABLE
  2
DIMSTYLE
  5
A
330
0
100
AcDbSymbolTable
 70
     1
  0
DIMSTYLE
105
27
330
A
100
AcDbSymbolTableRecord
100
AcDbDimStyleTableRecord
  2
ISO-25
 70
     0
  3

  4

  5

  6

  7

 40
1.0
 41
2.5
 42
0.625
 43
3.75
 44
1.25
 45
0.0
 46
0.0
 47
0.0
 48
0.0
140
2.5
141
2.5
142
0.0
143
0.03937007874016
144
1.0
145
0.0
146
1.0
147
0.625
 71
     0
 72
     0
 73
     0
 74
     0
 75
     0
 76
     0
 77
     1
 78
     8
170
     0
171
     3
172
     1
173
     0
174
     0
175
     0
176
     0
177
     0
178
     0
270
     2
271
     2
272
     2
273
     2
274
     3
340
11
275
     0
280
     0
281
     0
282
     0
283
     0
284
     8
285
     0
286
     0
287
     3
288
     0
  0
ENDTAB
  0
TABLE
  2
BLOCK_RECORD
  5
1
330
0
100
AcDbSymbolTable
 70
     1
  0
BLOCK_RECORD
  5
1F
330
1
100
AcDbSymbolTableRecord
100
AcDbBlockTableRecord
  2
*MODEL_SPACE
  0
BLOCK_RECORD
  5
1B
330
1
100
AcDbSymbolTableRecord
100
AcDbBlockTableRecord
  2
*PAPER_SPACE
  0
ENDTAB
  0
ENDSEC
  0
SECTION
  2
BLOCKS
  0
BLOCK
  5
20
330
1F
100
AcDbEntity
  8
0
100
AcDbBlockBegin
  2
*MODEL_SPACE
 70
     0
 10
0.0
 20
0.0
 30
0.0
  3
*MODEL_SPACE
  1

  0
ENDBLK
  5
21
330
1F
100
AcDbEntity
  8
0
100
AcDbBlockEnd
  0
BLOCK
  5
1C
330
1B
100
AcDbEntity
 67
     1
  8
0
100
AcDbBlockBegin
  2
*PAPER_SPACE
  1

  0
ENDBLK
  5
1D
330
1B
100
AcDbEntity
 67
     1
  8
0
100
AcDbBlockEnd
  0
ENDSEC
  0
SECTION
  2
ENTITIES
  0
LINE
  5
100
100
AcDbEntity
  8
Capa_1
 62
7
100
AcDbLine
 10
55.037746
 20
141.453859
 30
0.0
 11
52.001864
 21
141.453859
 31
0.0
  0
LINE
  5
101
100
AcDbEntity
  8
Capa_1
 62
7
100
AcDbLine
 10
52.001864
 20
141.453859
 30
0.0
 11
50.483867
 21
144.188569
 31
0.0
  0
LINE
  5
102
100
AcDbEntity
  8
Capa_1
 62
7
100
AcDbLine
 10
50.483867
 20
144.188569
 30
0.0
 11
52.001864
 21
146.923285
 31
0.0
  0
LINE
  5
103
100
AcDbEntity
  8
Capa_1
 62
7
100
AcDbLine
 10
52.001864
 20
146.923285
 30
0.0
 11
55.037746
 21
146.923285
 31
0.0
  0
LINE
  5
104
100
AcDbEntity
  8
Capa_1
 62
7
100
AcDbLine
 10
55.037746
 20
146.923285
 30
0.0
 11
56.555743
 21
144.188569
 31
0.0
  0
LINE
  5
105
100
AcDbEntity
  8
Capa_1
 62
7
100
AcDbLine
 10
56.555743
 20
144.188569
 30
0.0
 11
55.037746
 21
141.453859
 31
0.0
  0
LINE
  5
106
100
AcDbEntity
  8
Capa_1
 62
7
100
AcDbLine
 10
147.217593
 20
141.634591
 30
0.0
 11
144.181712
 21
141.634591
 31
0.0
  0
LINE
  5
107
100
AcDbEntity
  8
Capa_1
 62
7
100
AcDbLine
 10
144.181712
 20
141.634591
 30
0.0
 11
142.663714
 21
144.369302
 31
0.0
  0
LINE
  5
108
100
AcDbEntity
  8
Capa_1
 62
7
100
AcDbLine
 10
142.663714
 20
144.369302
 30
0.0
 11
144.181712
 21
147.104018
 31
0.0
  0
LINE
  5
109
100
AcDbEntity
  8
Capa_1
 62
7
100
AcDbLine
 10
144.181712
 20
147.104018
 30
0.0
 11
147.217593
 21
147.104018
 31
0.0
  0
LINE
  5
10a
100
AcDbEntity
  8
Capa_1
 62
7
100
AcDbLine
 10
147.217593
 20
147.104018
 30
0.0
 11
148.735590
 21
144.369302
 31
0.0
  0
LINE
  5
10b
100
AcDbEntity
  8
Capa_1
 62
7
100
AcDbLine
 10
148.735590
 20
144.369302
 30
0.0
 11
147.217593
 21
141.634591
 31
0.0
  0
LINE
  5
10c
100
AcDbEntity
  8
Capa_1
 62
7
100
AcDbLine
 10
81.449283
 20
115.042262
 30
0.0
 11
78.413401
 21
115.042262
 31
0.0
  0
LINE
  5
10d
100
AcDbEntity
  8
Capa_1
 62
7
100
AcDbLine
 10
78.413401
 20
115.042262
 30
0.0
 11
76.895404
 21
117.776972
 31
0.0
  0
LINE
  5
10e
100
AcDbEntity
  8
Capa_1
 62
7
100
AcDbLine
 10
76.895404
 20
117.776972
 30
0.0
 11
78.413401
 21
120.511688
 31
0.0
  0
LINE
  5
10f
100
AcDbEntity
  8
Capa_1
 62
7
100
AcDbLine
 10
78.413401
 20
120.511688
 30
0.0
 11
81.449283
 21
120.511688
 31
0.0
  0
LINE
  5
110
100
AcDbEntity
  8
Capa_1
 62
7
100
AcDbLine
 10
81.449283
 20
120.511688
 30
0.0
 11
82.967280
 21
117.776972
 31
0.0
  0
LINE
  5
111
100
AcDbEntity
  8
Capa_1
 62
7
100
AcDbLine
 10
82.967280
 20
117.776972
 30
0.0
 11
81.449283
 21
115.042262
 31
0.0
  0
LINE
  5
112
100
AcDbEntity
  8
Capa_1
 62
7
100
AcDbLine
 10
120.806016
 20
115.223000
 30
0.0
 11
117.770135
 21
115.223000
 31
0.0
  0
LINE
  5
113
100
AcDbEntity
  8
Capa_1
 62
7
100
AcDbLine
 10
117.770135
 20
115.223000
 30
0.0
 11
116.252138
 21
117.957710
 31
0.0
  0
LINE
  5
114
100
AcDbEntity
  8
Capa_1
 62
7
100
AcDbLine
 10
116.252138
 20
117.957710
 30
0.0
 11
117.770135
 21
120.692426
 31
0.0
  0
LINE
  5
115
100
AcDbEntity
  8
Capa_1
 62
7
100
AcDbLine
 10
117.770135
 20
120.692426
 30
0.0
 11
120.806016
 21
120.692426
 31
0.0
  0
LINE
  5
116
100
AcDbEntity
  8
Capa_1
 62
7
100
AcDbLine
 10
120.806016
 20
120.692426
 30
0.0
 11
122.324013
 21
117.957710
 31
0.0
  0
LINE
  5
117
100
AcDbEntity
  8
Capa_1
 62
7
100
AcDbLine
 10
122.324013
 20
117.957710
 30
0.0
 11
120.806016
 21
115.223000
 31
0.0
  0
LINE
  5
118
100
AcDbEntity
  8
Capa_1
 62
7
100
AcDbLine
 10
120.734720
 20
75.865257
 30
0.0
 11
117.698838
 21
75.865257
 31
0.0
  0
LINE
  5
119
100
AcDbEntity
  8
Capa_1
 62
7
100
AcDbLine
 10
117.698838
 20
75.865257
 30
0.0
 11
116.180841
 21
78.599967
 31
0.0
  0
LINE
  5
11a
100
AcDbEntity
  8
Capa_1
 62
7
100
AcDbLine
 10
116.180841
 20
78.599967
 30
0.0
 11
117.698838
 21
81.334683
 31
0.0
  0
LINE
  5
11b
100
AcDbEntity
  8
Capa_1
 62
7
100
AcDbLine
 10
117.698838
 20
81.334683
 30
0.0
 11
120.734720
 21
81.334683
 31
0.0
  0
LINE
  5
11c
100
AcDbEntity
  8
Capa_1
 62
7
100
AcDbLine
 10
120.734720
 20
81.334683
 30
0.0
 11
122.252717
 21
78.599967
 31
0.0
  0
LINE
  5
11d
100
AcDbEntity
  8
Capa_1
 62
7
100
AcDbLine
 10
122.252717
 20
78.599967
 30
0.0
 11
120.734720
 21
75.865257
 31
0.0
  0
LINE
  5
11e
100
AcDbEntity
  8
Capa_1
 62
7
100
AcDbLine
 10
147.146296
 20
49.453663
 30
0.0
 11
144.110415
 21
49.453663
 31
0.0
  0
LINE
  5
11f
100
AcDbEntity
  8
Capa_1
 62
7
100
AcDbLine
 10
144.110415
 20
49.453663
 30
0.0
 11
142.592418
 21
52.188373
 31
0.0
  0
LINE
  5
120
100
AcDbEntity
  8
Capa_1
 62
7
100
AcDbLine
 10
142.592418
 20
52.188373
 30
0.0
 11
144.110415
 21
54.923089
 31
0.0
  0
LINE
  5
121
100
AcDbEntity
  8
Capa_1
 62
7
100
AcDbLine
 10
144.110415
 20
54.923089
 30
0.0
 11
147.146296
 21
54.923089
 31
0.0
  0
LINE
  5
122
100
AcDbEntity
  8
Capa_1
 62
7
100
AcDbLine
 10
147.146296
 20
54.923089
 30
0.0
 11
148.664293
 21
52.188373
 31
0.0
  0
LINE
  5
123
100
AcDbEntity
  8
Capa_1
 62
7
100
AcDbLine
 10
148.664293
 20
52.188373
 30
0.0
 11
147.146296
 21
49.453663
 31
0.0
  0
LINE
  5
124
100
AcDbEntity
  8
Capa_1
 62
7
100
AcDbLine
 10
55.037760
 20
49.347245
 30
0.0
 11
52.001879
 21
49.347245
 31
0.0
  0
LINE
  5
125
100
AcDbEntity
  8
Capa_1
 62
7
100
AcDbLine
 10
52.001879
 20
49.347245
 30
0.0
 11
50.483881
 21
52.081955
 31
0.0
  0
LINE
  5
126
100
AcDbEntity
  8
Capa_1
 62
7
100
AcDbLine
 10
50.483881
 20
52.081955
 30
0.0
 11
52.001879
 21
54.816671
 31
0.0
  0
LINE
  5
127
100
AcDbEntity
  8
Capa_1
 62
7
100
AcDbLine
 10
52.001879
 20
54.816671
 30
0.0
 11
55.037760
 21
54.816671
 31
0.0
  0
LINE
  5
128
100
AcDbEntity
  8
Capa_1
 62
7
100
AcDbLine
 10
55.037760
 20
54.816671
 30
0.0
 11
56.555757
 21
52.081955
 31
0.0
  0
LINE
  5
129
100
AcDbEntity
  8
Capa_1
 62
7
100
AcDbLine
 10
56.555757
 20
52.081955
 30
0.0
 11
55.037760
 21
49.347245
 31
0.0
  0
LINE
  5
12a
100
AcDbEntity
  8
Capa_1
 62
7
100
AcDbLine
 10
81.449339
 20
75.758839
 30
0.0
 11
78.413458
 21
75.758839
 31
0.0
  0
LINE
  5
12b
100
AcDbEntity
  8
Capa_1
 62
7
100
AcDbLine
 10
78.413458
 20
75.758839
 30
0.0
 11
76.895461
 21
78.493549
 31
0.0
  0
LINE
  5
12c
100
AcDbEntity
  8
Capa_1
 62
7
100
AcDbLine
 10
76.895461
 20
78.493549
 30
0.0
 11
78.413458
 21
81.228266
 31
0.0
  0
LINE
  5
12d
100
AcDbEntity
  8
Capa_1
 62
7
100
AcDbLine
 10
78.413458
 20
81.228266
 30
0.0
 11
81.449339
 21
81.228266
 31
0.0
  0
LINE
  5
12e
100
AcDbEntity
  8
Capa_1
 62
7
100
AcDbLine
 10
81.449339
 20
81.228266
 30
0.0
 11
82.967337
 21
78.493549
 31
0.0
  0
LINE
  5
12f
100
AcDbEntity
  8
Capa_1
 62
7
100
AcDbLine
 10
82.967337
 20
78.493549
 30
0.0
 11
81.449339
 21
75.758839
 31
0.0
  0
LINE
  5
130
100
AcDbEntity
  8
Capa_1
 62
7
100
AcDbLine
 10
88.191164
 20
172.556610
 30
0.0
 11
88.191164
 21
113.794974
 31
0.0
  0
LINE
  5
131
100
AcDbEntity
  8
Capa_1
 62
7
100
AcDbLine
 10
83.708128
 20
107.479973
 30
0.0
 11
83.708128
 21
101.275106
 31
0.0
  0
LINE
  5
132
100
AcDbEntity
  8
Capa_1
 62
7
100
AcDbLine
 10
83.708128
 20
101.275106
 30
0.0
 11
0.176388
 21
101.275106
 31
0.0
  0
LINE
  5
133
100
AcDbEntity
  8
Capa_1
 62
7
100
AcDbLine
 10
0.176388
 20
101.275106
 30
0.0
 11
0.176388
 21
87.501646
 31
0.0
  0
LINE
  5
134
100
AcDbEntity
  8
Capa_1
 62
7
100
AcDbLine
 10
0.176388
 20
87.501646
 30
0.0
 11
83.894644
 21
87.501646
 31
0.0
  0
SPLINE
  5
135
100
AcDbEntity
  8
Capa_1
 62
7
100
AcDbSpline
 70
0
 71
3
 72
10
 73
6
 74
4
 40
0.000000
 40
0.000000
 40
0.000000
 40
0.000000
 40
2.707679
 40
5.404859
 40
8.204278
 40
8.204278
 40
8.204278
 40
8.204278
 10
88.191164
 20
113.794974
 30
0.0
 10
87.372765
 20
113.394000
 30
0.0
 10
85.739140
 20
112.593606
 30
0.0
 10
84.050500
 20
110.254555
 30
0.0
 10
83.823659
 20
108.416231
 30
0.0
 10
83.708128
 20
107.479973
 30
0.0
 11
88.191164
 21
113.794974
 31
0.0
 11
85.866767
 21
112.406196
 31
0.0
 11
84.289332
 21
110.218394
 31
0.0
 11
83.708128
 21
107.479973
 31
0.0
  0
LINE
  5
136
100
AcDbEntity
  8
Capa_1
 62
7
100
AcDbLine
 10
87.629973
 20
82.981520
 30
0.0
 11
87.629973
 21
0.176381
 31
0.0
  0
LINE
  5
137
100
AcDbEntity
  8
Capa_1
 62
7
100
AcDbLine
 10
87.629973
 20
0.176381
 30
0.0
 11
101.403966
 21
0.176381
 31
0.0
  0
LINE
  5
138
100
AcDbEntity
  8
Capa_1
 62
7
100
AcDbLine
 10
101.403966
 20
0.176381
 30
0.0
 11
101.403966
 21
82.388762
 31
0.0
  0
LINE
  5
139
100
AcDbEntity
  8
Capa_1
 62
7
100
AcDbLine
 10
101.403966
 20
82.388762
 30
0.0
 11
108.799870
 21
82.388762
 31
0.0
  0
SPLINE
  5
13a
100
AcDbEntity
  8
Capa_1
 62
7
100
AcDbSpline
 70
0
 71
3
 72
10
 73
6
 74
4
 40
0.000000
 40
0.000000
 40
0.000000
 40
0.000000
 40
2.036020
 40
4.038275
 40
6.047884
 40
6.047884
 40
6.047884
 40
6.047884
 10
83.894644
 20
87.501646
 30
0.0
 10
84.113546
 20
86.855355
 30
0.0
 10
84.547719
 20
85.573491
 30
0.0
 10
85.874730
 20
83.976082
 30
0.0
 10
87.044178
 20
83.313446
 30
0.0
 10
87.629973
 20
82.981520
 30
0.0
 11
83.894644
 21
87.501646
 31
0.0
 11
84.666220
 21
85.617488
 31
0.0
 11
85.945145
 21
84.076912
 31
0.0
 11
87.629973
 21
82.981520
 31
0.0
  0
LINE
  5
13b
100
AcDbEntity
  8
Capa_1
 62
7
100
AcDbLine
 10
114.881862
 20
86.291225
 30
0.0
 11
198.584071
 21
86.291225
 31
0.0
  0
LINE
  5
13c
100
AcDbEntity
  8
Capa_1
 62
7
100
AcDbLine
 10
198.584071
 20
86.291225
 30
0.0
 11
198.584071
 21
100.065238
 31
0.0
  0
LINE
  5
13d
100
AcDbEntity
  8
Capa_1
 62
7
100
AcDbLine
 10
198.584071
 20
100.065238
 30
0.0
 11
115.484567
 21
100.065238
 31
0.0
  0
LINE
  5
13e
100
AcDbEntity
  8
Capa_1
 62
7
100
AcDbLine
 10
115.484567
 20
100.065238
 30
0.0
 11
115.484567
 21
107.479973
 31
0.0
  0
SPLINE
  5
13f
100
AcDbEntity
  8
Capa_1
 62
7
100
AcDbSpline
 70
0
 71
3
 72
10
 73
6
 74
4
 40
0.000000
 40
0.000000
 40
0.000000
 40
0.000000
 40
2.595475
 40
5.094726
 40
7.590468
 40
7.590468
 40
7.590468
 40
7.590468
 10
108.799870
 20
82.388762
 30
0.0
 10
109.667454
 20
82.487796
 30
0.0
 10
111.370456
 20
82.682192
 30
0.0
 10
113.587688
 20
84.132323
 30
0.0
 10
114.450673
 20
85.571928
 30
0.0
 10
114.881862
 20
86.291225
 30
0.0
 11
108.799870
 21
82.388762
 31
0.0
 11
111.346874
 21
82.888022
 31
0.0
 11
113.439481
 21
84.254496
 31
0.0
 11
114.881862
 21
86.291225
 31
0.0
  0
LINE
  5
140
100
AcDbEntity
  8
Capa_1
 62
7
100
AcDbLine
 10
108.799870
 20
114.164688
 30
0.0
 11
101.965156
 21
114.164688
 31
0.0
  0
LINE
  5
141
100
AcDbEntity
  8
Capa_1
 62
7
100
AcDbLine
 10
101.965156
 20
114.164688
 30
0.0
 11
101.965156
 21
172.556610
 31
0.0
  0
LINE
  5
142
100
AcDbEntity
  8
Capa_1
 62
7
100
AcDbLine
 10
101.965156
 20
172.556610
 30
0.0
 11
88.191164
 21
172.556610
 31
0.0
  0
LINE
  5
143
100
AcDbEntity
  8
Capa_1
 62
7
100
AcDbLine
 10
88.191164
 20
172.556610
 30
0.0
 11
88.191164
 21
172.556610
 31
0.0
  0
LINE
  5
144
100
AcDbEntity
  8
Capa_1
 62
7
100
AcDbLine
 10
120.806016
 20
115.223000
 30
0.0
 11
117.770135
 21
115.223000
 31
0.0
  0
LINE
  5
145
100
AcDbEntity
  8
Capa_1
 62
7
100
AcDbLine
 10
117.770135
 20
115.223000
 30
0.0
 11
116.252138
 21
117.957710
 31
0.0
  0
LINE
  5
146
100
AcDbEntity
  8
Capa_1
 62
7
100
AcDbLine
 10
116.252138
 20
117.957710
 30
0.0
 11
117.770135
 21
120.692426
 31
0.0
  0
LINE
  5
147
100
AcDbEntity
  8
Capa_1
 62
7
100
AcDbLine
 10
117.770135
 20
120.692426
 30
0.0
 11
120.806016
 21
120.692426
 31
0.0
  0
LINE
  5
148
100
AcDbEntity
  8
Capa_1
 62
7
100
AcDbLine
 10
120.806016
 20
120.692426
 30
0.0
 11
122.324013
 21
117.957710
 31
0.0
  0
LINE
  5
149
100
AcDbEntity
  8
Capa_1
 62
7
100
AcDbLine
 10
122.324013
 20
117.957710
 30
0.0
 11
120.806016
 21
115.223000
 31
0.0
  0
SPLINE
  5
14a
100
AcDbEntity
  8
Capa_1
 62
7
100
AcDbSpline
 70
0
 71
3
 72
10
 73
6
 74
4
 40
0.000000
 40
0.000000
 40
0.000000
 40
0.000000
 40
3.499413
 40
6.887309
 40
10.386715
 40
10.386715
 40
10.386715
 40
10.386715
 10
115.484567
 20
107.479973
 30
0.0
 10
115.302146
 20
108.653153
 30
0.0
 10
114.943117
 20
110.962128
 30
0.0
 10
112.282022
 20
113.623234
 30
0.0
 10
109.973049
 20
113.982266
 30
0.0
 10
108.799870
 20
114.164688
 30
0.0
 11
115.484567
 21
107.479973
 31
0.0
 11
114.574455
 21
110.858965
 31
0.0
 11
112.178854
 21
113.254572
 31
0.0
 11
108.799870
 21
114.164688
 31
0.0
  0
ENDSEC
  0
SECTION
  2
OBJECTS
  0
DICTIONARY
  5
C
330
0
100
AcDbDictionary
  3
ACAD_GROUP
350
D
  3
ACAD_MLINESTYLE
350
17
  0
DICTIONARY
  5
D
330
C
100
AcDbDictionary
  0
DICTIONARY
  5
1A
330
C
100
AcDbDictionary
  0
DICTIONARY
  5
17
330
C
100
AcDbDictionary
  3
STANDARD
350
18
  0
DICTIONARY
  5
19
330
C
100
AcDbDictionary
  0
ENDSEC
  0
EOF
