  0
SECTION
  2
HEADER
  9
$ACADVER
  1
AC1014
  9
$HANDSEED
  5
FFFF
  9
$MEASUREMENT
 70
     1
  0
ENDSEC
  0
SECTION
  2
TABLES
  0
TABLE
  2
VPORT
  5
8
330
0
100
AcDbSymbolTable
 70
     4
  0
VPORT
  5
2E
330
8
100
AcDbSymbolTableRecord
100
AcDbViewportTableRecord
  2
*ACTIVE
 70
     0
 10
0.0
 20
0.0
 11
1.0
 21
1.0
 12
210.0
 22
148.5
 13
0.0
 23
0.0
 14
10.0
 24
10.0
 15
10.0
 25
10.0
 16
0.0
 26
0.0
 36
1.0
 17
0.0
 27
0.0
 37
0.0
 40
341.0
 41
1.24
 42
50.0
 43
0.0
 44
0.0
 50
0.0
 51
0.0
 71
     0
 72
   100
 73
     1
 74
     3
 75
     0
 76
     0
 77
     0
 78
     0
  0
ENDTAB
  0
TABLE
  2
LTYPE
  5
5
330
0
100
AcDbSymbolTable
 70
     1
  0
LTYPE
  5
14
330
5
100
AcDbSymbolTableRecord
100
AcDbLinetypeTableRecord
  2
BYBLOCK
 70
     0
  3

 72
    65
 73
     0
 40
0.0
  0
LTYPE
  5
15
330
5
100
AcDbSymbolTableRecord
100
AcDbLinetypeTableRecord
  2
BYLAYER
 70
     0
  3

 72
    65
 73
     0
 40
0.0
  0
LTYPE
  5
16
330
5
100
AcDbSymbolTableRecord
100
AcDbLinetypeTableRecord
  2
CONTINUOUS
 70
     0
  3
Solid line
 72
    65
 73
     0
 40
0.0
  0
ENDTAB
  0
TABLE
  2
LAYER
  5
2
100
AcDbSymbolTable
 70
2
  0
LAYER
  5
50
100
AcDbSymbolTableRecord
100
AcDbLayerTableRecord
  2
0
 70
0
  6
CONTINUOUS
  0
LAYER
  5
51
100
AcDbSymbolTableRecord
100
AcDbLayerTableRecord
  2
Capa_1
 70
0
  6
CONTINUOUS
  0
ENDTAB
  0
TABLE
  2
STYLE
  5
3
330
0
100
AcDbSymbolTable
 70
     1
  0
STYLE
  5
11
330
3
100
AcDbSymbolTableRecord
100
AcDbTextStyleTableRecord
  2
STANDARD
 70
     0
 40
0.0
 41
1.0
 50
0.0
 71
     0
 42
2.5
  3
txt
  4

  0
ENDTAB
  0
TABLE
  2
VIEW
  5
6
330
0
100
AcDbSymbolTable
 70
     0
  0
ENDTAB
  0
TABLE
  2
UCS
  5
7
330
0
100
AcDbSymbolTable
 70
     0
  0
ENDTAB
  0
TABLE
  2
APPID
  5
9
330
0
100
AcDbSymbolTable
 70
     2
  0
APPID
  5
12
330
9
100
AcDbSymbolTableRecord
100
AcDbRegAppTableRecord
  2
ACAD
 70
     0
  0
ENDTAB
  0
TABLE
  2
DIMSTYLE
  5
A
330
0
100
AcDbSymbolTable
 70
     1
  0
DIMSTYLE
105
27
330
A
100
AcDbSymbolTableRecord
100
AcDbDimStyleTableRecord
  2
ISO-25
 70
     0
  3

  4

  5

  6

  7

 40
1.0
 41
2.5
 42
0.625
 43
3.75
 44
1.25
 45
0.0
 46
0.0
 47
0.0
 48
0.0
140
2.5
141
2.5
142
0.0
143
0.03937007874016
144
1.0
145
0.0
146
1.0
147
0.625
 71
     0
 72
     0
 73
     0
 74
     0
 75
     0
 76
     0
 77
     1
 78
     8
170
     0
171
     3
172
     1
173
     0
174
     0
175
     0
176
     0
177
     0
178
     0
270
     2
271
     2
272
     2
273
     2
274
     3
340
11
275
     0
280
     0
281
     0
282
     0
283
     0
284
     8
285
     0
286
     0
287
     3
288
     0
  0
ENDTAB
  0
TABLE
  2
BLOCK_RECORD
  5
1
330
0
100
AcDbSymbolTable
 70
     1
  0
BLOCK_RECORD
  5
1F
330
1
100
AcDbSymbolTableRecord
100
AcDbBlockTableRecord
  2
*MODEL_SPACE
  0
BLOCK_RECORD
  5
1B
330
1
100
AcDbSymbolTableRecord
100
AcDbBlockTableRecord
  2
*PAPER_SPACE
  0
ENDTAB
  0
ENDSEC
  0
SECTION
  2
BLOCKS
  0
BLOCK
  5
20
330
1F
100
AcDbEntity
  8
0
100
AcDbBlockBegin
  2
*MODEL_SPACE
 70
     0
 10
0.0
 20
0.0
 30
0.0
  3
*MODEL_SPACE
  1

  0
ENDBLK
  5
21
330
1F
100
AcDbEntity
  8
0
100
AcDbBlockEnd
  0
BLOCK
  5
1C
330
1B
100
AcDbEntity
 67
     1
  8
0
100
AcDbBlockBegin
  2
*PAPER_SPACE
  1

  0
ENDBLK
  5
1D
330
1B
100
AcDbEntity
 67
     1
  8
0
100
AcDbBlockEnd
  0
ENDSEC
  0
SECTION
  2
ENTITIES
  0
LINE
  5
100
100
AcDbEntity
  8
Capa_1
 62
7
100
AcDbLine
 10
181.250496
 20
53.496876
 30
0.0
 11
181.250496
 21
53.496876
 31
0.0
  0
SPLINE
  5
101
100
AcDbEntity
  8
Capa_1
 62
7
100
AcDbSpline
 70
0
 71
3
 72
19
 73
15
 74
13
 40
0.000000
 40
0.000000
 40
0.000000
 40
0.000000
 40
0.692062
 40
1.363598
 40
2.055660
 40
2.747722
 40
3.419258
 40
4.111320
 40
4.803382
 40
5.474917
 40
6.166979
 40
6.859041
 40
7.530577
 40
8.222639
 40
8.222639
 40
8.222639
 40
8.222639
 10
181.250496
 20
53.496876
 30
0.0
 10
181.286875
 20
53.730207
 30
0.0
 10
181.358555
 20
54.189948
 30
0.0
 10
181.885506
 20
54.696085
 30
0.0
 10
182.572892
 20
54.883624
 30
0.0
 10
183.267495
 20
54.696085
 30
0.0
 10
183.773224
 20
54.189948
 30
0.0
 10
183.960902
 20
53.496876
 30
0.0
 10
183.773224
 20
52.803804
 30
0.0
 10
183.267495
 20
52.297667
 30
0.0
 10
182.572892
 20
52.110128
 30
0.0
 10
181.885506
 20
52.297667
 30
0.0
 10
181.358555
 20
52.803804
 30
0.0
 10
181.286875
 20
53.263545
 30
0.0
 10
181.250496
 20
53.496876
 30
0.0
 11
181.250496
 21
53.496876
 31
0.0
 11
181.431208
 21
54.164928
 31
0.0
 11
181.906055
 21
54.639775
 31
0.0
 11
182.574107
 21
54.820487
 31
0.0
 11
183.242159
 21
54.639775
 31
0.0
 11
183.717006
 21
54.164928
 31
0.0
 11
183.897718
 21
53.496876
 31
0.0
 11
183.717006
 21
52.828824
 31
0.0
 11
183.242159
 21
52.353977
 31
0.0
 11
182.574107
 21
52.173265
 31
0.0
 11
181.906055
 21
52.353977
 31
0.0
 11
181.431208
 21
52.828824
 31
0.0
 11
181.250496
 21
53.496876
 31
0.0
  0
LINE
  5
102
100
AcDbEntity
  8
Capa_1
 62
7
100
AcDbLine
 10
181.250496
 20
146.630201
 30
0.0
 11
181.250496
 21
146.630201
 31
0.0
  0
SPLINE
  5
103
100
AcDbEntity
  8
Capa_1
 62
7
100
AcDbSpline
 70
0
 71
3
 72
19
 73
15
 74
13
 40
0.000000
 40
0.000000
 40
0.000000
 40
0.000000
 40
0.692062
 40
1.363598
 40
2.055660
 40
2.747722
 40
3.419258
 40
4.111320
 40
4.803382
 40
5.474917
 40
6.166979
 40
6.859041
 40
7.530577
 40
8.222639
 40
8.222639
 40
8.222639
 40
8.222639
 10
181.250496
 20
146.630201
 30
0.0
 10
181.286875
 20
146.863532
 30
0.0
 10
181.358555
 20
147.323273
 30
0.0
 10
181.885506
 20
147.829410
 30
0.0
 10
182.572892
 20
148.016949
 30
0.0
 10
183.267495
 20
147.829410
 30
0.0
 10
183.773224
 20
147.323273
 30
0.0
 10
183.960902
 20
146.630201
 30
0.0
 10
183.773224
 20
145.937129
 30
0.0
 10
183.267495
 20
145.430992
 30
0.0
 10
182.572892
 20
145.243453
 30
0.0
 10
181.885506
 20
145.430992
 30
0.0
 10
181.358555
 20
145.937129
 30
0.0
 10
181.286875
 20
146.396870
 30
0.0
 10
181.250496
 20
146.630201
 30
0.0
 11
181.250496
 21
146.630201
 31
0.0
 11
181.431208
 21
147.298253
 31
0.0
 11
181.906055
 21
147.773100
 31
0.0
 11
182.574107
 21
147.953812
 31
0.0
 11
183.242159
 21
147.773100
 31
0.0
 11
183.717006
 21
147.298253
 31
0.0
 11
183.897718
 21
146.630201
 31
0.0
 11
183.717006
 21
145.962149
 31
0.0
 11
183.242159
 21
145.487302
 31
0.0
 11
182.574107
 21
145.306590
 31
0.0
 11
181.906055
 21
145.487302
 31
0.0
 11
181.431208
 21
145.962149
 31
0.0
 11
181.250496
 21
146.630201
 31
0.0
  0
LINE
  5
104
100
AcDbEntity
  8
Capa_1
 62
7
100
AcDbLine
 10
16.024134
 20
53.496876
 30
0.0
 11
16.024134
 21
53.496876
 31
0.0
  0
SPLINE
  5
105
100
AcDbEntity
  8
Capa_1
 62
7
100
AcDbSpline
 70
0
 71
3
 72
25
 73
21
 74
19
 40
0.000000
 40
0.000000
 40
0.000000
 40
0.000000
 40
0.346488
 40
0.690109
 40
1.036597
 40
1.383086
 40
1.726706
 40
2.073195
 40
2.765256
 40
3.436792
 40
4.128854
 40
4.820915
 40
5.492451
 40
6.184513
 40
6.531001
 40
6.874622
 40
7.221110
 40
7.567598
 40
7.911219
 40
8.257707
 40
8.257707
 40
8.257707
 40
8.257707
 10
16.024134
 20
53.496876
 30
0.0
 10
16.032958
 20
53.612703
 30
0.0
 10
16.050532
 20
53.843398
 30
0.0
 10
16.189409
 20
54.166249
 30
0.0
 10
16.400715
 20
54.443616
 30
0.0
 10
16.678412
 20
54.656329
 30
0.0
 10
17.001355
 20
54.789937
 30
0.0
 10
17.462462
 20
54.851536
 30
0.0
 10
18.041409
 20
54.696268
 30
0.0
 10
18.546781
 20
54.189901
 30
0.0
 10
18.734581
 20
53.496876
 30
0.0
 10
18.546781
 20
52.803852
 30
0.0
 10
18.041409
 20
52.297484
 30
0.0
 10
17.462462
 20
52.142217
 30
0.0
 10
17.001355
 20
52.203816
 30
0.0
 10
16.678412
 20
52.337423
 30
0.0
 10
16.400715
 20
52.550136
 30
0.0
 10
16.189409
 20
52.827504
 30
0.0
 10
16.050532
 20
53.150354
 30
0.0
 10
16.032958
 20
53.381049
 30
0.0
 10
16.024134
 20
53.496876
 30
0.0
 11
16.024134
 21
53.496876
 31
0.0
 11
16.069482
 21
53.840384
 31
0.0
 11
16.200980
 21
54.157848
 31
0.0
 11
16.411811
 21
54.432811
 31
0.0
 11
16.686773
 21
54.643642
 31
0.0
 11
17.004238
 21
54.775140
 31
0.0
 11
17.347746
 21
54.820487
 31
0.0
 11
18.015797
 21
54.639775
 31
0.0
 11
18.490644
 21
54.164928
 31
0.0
 11
18.671356
 21
53.496876
 31
0.0
 11
18.490644
 21
52.828825
 31
0.0
 11
18.015797
 21
52.353977
 31
0.0
 11
17.347746
 21
52.173265
 31
0.0
 11
17.004238
 21
52.218613
 31
0.0
 11
16.686773
 21
52.350111
 31
0.0
 11
16.411811
 21
52.560942
 31
0.0
 11
16.200980
 21
52.835904
 31
0.0
 11
16.069482
 21
53.153368
 31
0.0
 11
16.024134
 21
53.496876
 31
0.0
  0
LINE
  5
106
100
AcDbEntity
  8
Capa_1
 62
7
100
AcDbLine
 10
16.024134
 20
146.630201
 30
0.0
 11
16.024134
 21
146.630201
 31
0.0
  0
SPLINE
  5
107
100
AcDbEntity
  8
Capa_1
 62
7
100
AcDbSpline
 70
0
 71
3
 72
25
 73
21
 74
19
 40
0.000000
 40
0.000000
 40
0.000000
 40
0.000000
 40
0.346488
 40
0.690109
 40
1.036597
 40
1.383086
 40
1.726706
 40
2.073195
 40
2.765256
 40
3.436792
 40
4.128854
 40
4.820915
 40
5.492451
 40
6.184513
 40
6.531001
 40
6.874622
 40
7.221110
 40
7.567598
 40
7.911219
 40
8.257707
 40
8.257707
 40
8.257707
 40
8.257707
 10
16.024134
 20
146.630201
 30
0.0
 10
16.032958
 20
146.746028
 30
0.0
 10
16.050532
 20
146.976723
 30
0.0
 10
16.189409
 20
147.299573
 30
0.0
 10
16.400715
 20
147.576941
 30
0.0
 10
16.678412
 20
147.789654
 30
0.0
 10
17.001355
 20
147.923262
 30
0.0
 10
17.462462
 20
147.984861
 30
0.0
 10
18.041409
 20
147.829593
 30
0.0
 10
18.546781
 20
147.323226
 30
0.0
 10
18.734581
 20
146.630201
 30
0.0
 10
18.546781
 20
145.937176
 30
0.0
 10
18.041409
 20
145.430809
 30
0.0
 10
17.462462
 20
145.275541
 30
0.0
 10
17.001355
 20
145.337140
 30
0.0
 10
16.678412
 20
145.470748
 30
0.0
 10
16.400715
 20
145.683461
 30
0.0
 10
16.189409
 20
145.960829
 30
0.0
 10
16.050532
 20
146.283679
 30
0.0
 10
16.032958
 20
146.514374
 30
0.0
 10
16.024134
 20
146.630201
 30
0.0
 11
16.024134
 21
146.630201
 31
0.0
 11
16.069482
 21
146.973709
 31
0.0
 11
16.200980
 21
147.291173
 31
0.0
 11
16.411811
 21
147.566136
 31
0.0
 11
16.686773
 21
147.776967
 31
0.0
 11
17.004238
 21
147.908464
 31
0.0
 11
17.347746
 21
147.953812
 31
0.0
 11
18.015797
 21
147.773100
 31
0.0
 11
18.490644
 21
147.298253
 31
0.0
 11
18.671356
 21
146.630201
 31
0.0
 11
18.490644
 21
145.962150
 31
0.0
 11
18.015797
 21
145.487302
 31
0.0
 11
17.347746
 21
145.306590
 31
0.0
 11
17.004238
 21
145.351938
 31
0.0
 11
16.686773
 21
145.483435
 31
0.0
 11
16.411811
 21
145.694266
 31
0.0
 11
16.200980
 21
145.969229
 31
0.0
 11
16.069482
 21
146.286693
 31
0.0
 11
16.024134
 21
146.630201
 31
0.0
  0
SPLINE
  5
108
100
AcDbEntity
  8
Capa_1
 62
7
100
AcDbSpline
 70
0
 71
3
 72
10
 73
6
 74
4
 40
0.000000
 40
0.000000
 40
0.000000
 40
0.000000
 40
40.715063
 40
75.140881
 40
111.950401
 40
111.950401
 40
111.950401
 40
111.950401
 10
99.999823
 20
160.000001
 30
0.0
 10
86.454473
 20
159.313065
 30
0.0
 10
61.456120
 20
158.045305
 30
0.0
 10
25.884706
 20
137.413429
 30
0.0
 10
22.097713
 20
112.746400
 30
0.0
 10
20.140855
 20
100.000177
 30
0.0
 11
99.999823
 21
160.000001
 31
0.0
 11
59.693455
 21
154.245600
 31
0.0
 11
31.043922
 21
135.157878
 31
0.0
 11
20.140855
 21
100.000177
 31
0.0
  0
LINE
  5
109
100
AcDbEntity
  8
Capa_1
 62
7
100
AcDbLine
 10
80.141188
 20
22.752868
 30
0.0
 11
80.141188
 21
85.276116
 31
0.0
  0
LINE
  5
10a
100
AcDbEntity
  8
Capa_1
 62
7
100
AcDbLine
 10
80.141188
 20
85.276116
 30
0.0
 11
119.859007
 21
85.276116
 31
0.0
  0
LINE
  5
10b
100
AcDbEntity
  8
Capa_1
 62
7
100
AcDbLine
 10
119.859007
 20
85.276116
 30
0.0
 11
119.859007
 21
22.713732
 31
0.0
  0
SPLINE
  5
10c
100
AcDbEntity
  8
Capa_1
 62
7
100
AcDbSpline
 70
0
 71
3
 72
10
 73
6
 74
4
 40
0.000000
 40
0.000000
 40
0.000000
 40
0.000000
 40
35.064804
 40
69.363906
 40
104.428710
 40
104.428710
 40
104.428710
 40
104.428710
 10
20.140855
 20
100.000177
 30
0.0
 10
21.699781
 20
88.276374
 30
0.0
 10
24.783591
 20
65.084777
 30
0.0
 10
47.460063
 20
35.889999
 30
0.0
 10
69.167604
 20
27.164020
 30
0.0
 10
80.141188
 20
22.752868
 30
0.0
 11
20.140855
 21
100.000177
 31
0.0
 11
27.878716
 21
65.799797
 31
0.0
 11
48.918646
 21
38.711982
 31
0.0
 11
80.141188
 21
22.752868
 31
0.0
  0
SPLINE
  5
10d
100
AcDbEntity
  8
Capa_1
 62
7
100
AcDbSpline
 70
0
 71
3
 72
10
 73
6
 74
4
 40
0.000000
 40
0.000000
 40
0.000000
 40
0.000000
 40
35.077651
 40
69.388815
 40
104.466466
 40
104.466466
 40
104.466466
 40
104.466466
 10
119.859007
 20
22.713732
 30
0.0
 10
130.836474
 20
27.127149
 30
0.0
 10
152.551539
 20
35.857546
 30
0.0
 10
175.229850
 20
65.069756
 30
0.0
 10
178.304488
 20
88.271273
 30
0.0
 10
179.858789
 20
100.000177
 30
0.0
 11
119.859007
 21
22.713732
 31
0.0
 11
151.091554
 21
38.681499
 31
0.0
 11
172.132113
 21
65.784098
 31
0.0
 11
179.858789
 21
100.000177
 31
0.0
  0
LINE
  5
10e
100
AcDbEntity
  8
Capa_1
 62
7
100
AcDbLine
 10
99.999823
 20
160.000001
 30
0.0
 11
99.999823
 21
160.000001
 31
0.0
  0
SPLINE
  5
10f
100
AcDbEntity
  8
Capa_1
 62
7
100
AcDbSpline
 70
0
 71
3
 72
10
 73
6
 74
4
 40
0.000000
 40
0.000000
 40
0.000000
 40
0.000000
 40
36.809520
 40
71.235337
 40
111.950399
 40
111.950399
 40
111.950399
 40
111.950399
 10
179.858789
 20
100.000177
 30
0.0
 10
177.901931
 20
112.746400
 30
0.0
 10
174.114938
 20
137.413429
 30
0.0
 10
138.543525
 20
158.045305
 30
0.0
 10
113.545172
 20
159.313065
 30
0.0
 10
99.999823
 20
160.000001
 30
0.0
 11
179.858789
 21
100.000177
 31
0.0
 11
168.955721
 21
135.157878
 31
0.0
 11
140.306189
 21
154.245600
 31
0.0
 11
99.999823
 21
160.000001
 31
0.0
  0
LINE
  5
110
100
AcDbEntity
  8
Capa_1
 62
7
100
AcDbLine
 10
199.858717
 20
101.286440
 30
0.0
 11
199.858717
 21
101.286440
 31
0.0
  0
SPLINE
  5
111
100
AcDbEntity
  8
Capa_1
 62
7
100
AcDbSpline
 70
0
 71
3
 72
64
 73
60
 74
58
 40
0.000000
 40
0.000000
 40
0.000000
 40
0.000000
 40
8.997777
 40
17.841875
 40
26.563427
 40
31.817813
 40
37.042102
 40
42.241025
 40
51.330662
 40
60.374936
 40
69.390753
 40
79.855155
 40
90.322477
 40
100.814510
 40
106.974730
 40
113.157278
 40
119.368450
 40
131.622515
 40
144.078696
 40
156.818457
 40
169.463038
 40
181.827661
 40
193.992147
 40
203.999461
 40
213.941629
 40
223.842564
 40
233.161030
 40
242.476192
 40
251.803105
 40
261.930786
 40
272.114522
 40
282.382655
 40
292.623392
 40
303.020937
 40
313.624529
 40
325.904877
 40
337.280141
 40
347.994307
 40
360.365605
 40
372.527967
 40
384.812633
 40
395.652591
 40
406.868223
 40
418.520961
 40
430.963190
 40
443.893115
 40
457.287163
 40
478.013755
 40
497.571464
 40
515.945552
 40
525.800527
 40
535.399775
 40
544.838808
 40
554.426395
 40
564.147103
 40
574.193402
 40
582.626112
 40
591.509730
 40
600.950634
 40
600.950634
 40
600.950634
 40
600.950634
 10
199.858717
 20
101.286440
 30
0.0
 10
199.782335
 20
98.286146
 30
0.0
 10
199.630878
 20
92.336803
 30
0.0
 10
198.410489
 20
83.549283
 30
0.0
 10
196.748159
 20
76.118092
 30
0.0
 10
194.903371
 20
69.986404
 30
0.0
 10
193.136086
 20
65.065827
 30
0.0
 10
190.617441
 20
59.066167
 30
0.0
 10
187.094081
 20
52.119324
 30
0.0
 10
182.277525
 20
44.443201
 30
0.0
 10
176.511317
 20
36.867331
 30
0.0
 10
169.711440
 20
29.533565
 30
0.0
 10
161.815657
 20
22.622649
 30
0.0
 10
154.414705
 20
17.400717
 30
0.0
 10
147.848067
 20
13.543371
 30
0.0
 10
142.327895
 20
10.745022
 30
0.0
 10
134.778540
 20
7.492219
 30
0.0
 10
124.947065
 20
4.303040
 30
0.0
 10
112.653988
 20
1.953949
 30
0.0
 10
100.031508
 20
1.163391
 30
0.0
 10
87.439959
 20
1.946076
 30
0.0
 10
75.234272
 20
4.260599
 30
0.0
 10
64.247069
 20
7.796032
 30
0.0
 10
54.470853
 20
12.199431
 30
0.0
 10
45.838658
 20
17.181539
 30
0.0
 10
37.929871
 20
22.860481
 30
0.0
 10
30.759765
 20
29.130701
 30
0.0
 10
24.332909
 20
35.899173
 30
0.0
 10
18.394273
 20
43.446380
 30
0.0
 10
13.057623
 20
51.780828
 30
0.0
 10
8.454606
 20
60.895389
 30
0.0
 10
4.799874
 20
70.470932
 30
0.0
 10
2.136573
 20
80.441713
 30
0.0
 10
0.505565
 20
90.746857
 30
0.0
 10
-0.072077
 20
101.844238
 30
0.0
 10
0.615650
 20
113.276689
 30
0.0
 10
2.903941
 20
124.544798
 30
0.0
 10
6.884491
 20
135.367867
 30
0.0
 10
12.835144
 20
145.585469
 30
0.0
 10
20.962587
 20
154.875126
 30
0.0
 10
30.205292
 20
162.242716
 30
0.0
 10
40.139663
 20
167.990560
 30
0.0
 10
50.501461
 20
172.400276
 30
0.0
 10
61.783953
 20
175.822578
 30
0.0
 10
73.901118
 20
178.254879
 30
0.0
 10
86.757382
 20
179.697341
 30
0.0
 10
102.442797
 20
180.237995
 30
0.0
 10
120.353100
 20
179.285282
 30
0.0
 10
139.646145
 20
175.761075
 30
0.0
 10
154.771268
 20
170.492871
 30
0.0
 10
165.949507
 20
164.604413
 30
0.0
 10
173.900376
 20
159.124547
 30
0.0
 10
181.007083
 20
152.713659
 30
0.0
 10
187.164816
 20
145.326019
 30
0.0
 10
192.253633
 20
136.925682
 30
0.0
 10
195.873904
 20
128.210319
 30
0.0
 10
198.228735
 20
119.382284
 30
0.0
 10
199.612637
 20
110.546196
 30
0.0
 10
199.775044
 20
104.434977
 30
0.0
 10
199.858717
 20
101.286440
 30
0.0
 11
199.858717
 21
101.286440
 31
0.0
 11
199.459622
 21
92.297518
 31
0.0
 11
198.285064
 21
83.531762
 31
0.0
 11
196.369126
 21
75.023258
 31
0.0
 11
194.856624
 21
69.991269
 31
0.0
 11
193.090416
 21
65.074593
 31
0.0
 11
191.078160
 21
60.280886
 31
0.0
 11
186.966935
 21
52.174139
 31
0.0
 11
182.160412
 21
44.512793
 31
0.0
 11
176.700205
 21
37.338457
 31
0.0
 11
169.585458
 21
29.664861
 31
0.0
 11
161.708781
 21
22.771183
 31
0.0
 11
153.135566
 21
16.722815
 31
0.0
 11
147.823900
 21
13.602797
 31
0.0
 11
142.309366
 21
10.807478
 31
0.0
 11
136.605051
 21
8.349948
 31
0.0
 11
124.948720
 21
4.569467
 31
0.0
 11
112.714330
 21
2.229352
 31
0.0
 11
99.999825
 21
1.427548
 31
0.0
 11
87.379936
 21
2.217375
 31
0.0
 11
75.232184
 21
4.523030
 31
0.0
 11
63.652309
 21
8.248777
 31
0.0
 11
54.527530
 21
12.357882
 31
0.0
 11
45.916279
 21
17.327095
 31
0.0
 11
37.873544
 21
23.101427
 31
0.0
 11
30.858769
 21
29.235491
 31
0.0
 11
24.444692
 21
35.990627
 31
0.0
 11
18.677438
 21
43.320708
 31
0.0
 11
13.216854
 21
51.850184
 31
0.0
 11
8.626792
 21
60.940827
 31
0.0
 11
4.965760
 21
70.534127
 31
0.0
 11
2.322689
 21
80.427907
 31
0.0
 11
0.695719
 21
90.697372
 31
0.0
 11
0.140933
 21
101.286440
 31
0.0
 11
0.930289
 21
113.541392
 31
0.0
 11
3.234587
 21
124.680820
 31
0.0
 11
6.958180
 21
134.727123
 31
0.0
 11
13.194319
 21
145.411672
 31
0.0
 11
21.184790
 21
154.580937
 31
0.0
 11
30.762275
 21
162.274103
 31
0.0
 11
40.127433
 21
167.732904
 31
0.0
 11
50.433795
 21
172.156623
 31
0.0
 11
61.575365
 21
175.570086
 31
0.0
 11
73.768143
 21
178.049042
 31
0.0
 11
86.614498
 21
179.516735
 31
0.0
 11
99.999825
 21
180.000001
 31
0.0
 11
120.692406
 21
178.813112
 31
0.0
 11
139.910480
 21
175.184112
 31
0.0
 11
157.216364
 21
169.010502
 31
0.0
 11
165.923639
 21
164.394888
 31
0.0
 11
173.814176
 21
158.928170
 31
0.0
 11
180.810712
 21
152.592256
 31
0.0
 11
186.941848
 21
145.221299
 31
0.0
 11
191.982186
 21
136.909431
 31
0.0
 11
195.849916
 21
127.637495
 31
0.0
 11
198.048912
 21
119.496549
 31
0.0
 11
199.399237
 21
110.716156
 31
0.0
 11
199.858717
 21
101.286440
 31
0.0
  0
ENDSEC
  0
SECTION
  2
OBJECTS
  0
DICTIONARY
  5
C
330
0
100
AcDbDictionary
  3
ACAD_GROUP
350
D
  3
ACAD_MLINESTYLE
350
17
  0
DICTIONARY
  5
D
330
C
100
AcDbDictionary
  0
DICTIONARY
  5
1A
330
C
100
AcDbDictionary
  0
DICTIONARY
  5
17
330
C
100
AcDbDictionary
  3
STANDARD
350
18
  0
DICTIONARY
  5
19
330
C
100
AcDbDictionary
  0
ENDSEC
  0
EOF
