<?xml version="1.0" encoding="UTF-8" standalone="no"?>
<!-- Created with Inkscape (http://www.inkscape.org/) -->

<svg
   xmlns:dc="http://purl.org/dc/elements/1.1/"
   xmlns:cc="http://creativecommons.org/ns#"
   xmlns:rdf="http://www.w3.org/1999/02/22-rdf-syntax-ns#"
   xmlns:svg="http://www.w3.org/2000/svg"
   xmlns="http://www.w3.org/2000/svg"
   xmlns:sodipodi="http://sodipodi.sourceforge.net/DTD/sodipodi-0.dtd"
   xmlns:inkscape="http://www.inkscape.org/namespaces/inkscape"
   width="200mm"
   height="200mm"
   viewBox="0 0 708.66142 708.66141"
   id="svg2"
   version="1.1"
   inkscape:version="0.91 r13725"
   sodipodi:docname="Alien_ball_01.svg">
  <defs
     id="defs4" />
  <sodipodi:namedview
     id="base"
     pagecolor="#ffffff"
     bordercolor="#666666"
     borderopacity="1.0"
     inkscape:pageopacity="0.0"
     inkscape:pageshadow="2"
     inkscape:zoom="0.78"
     inkscape:cx="185.83309"
     inkscape:cy="519.03991"
     inkscape:document-units="px"
     inkscape:current-layer="layer1"
     showgrid="false"
     inkscape:window-width="1920"
     inkscape:window-height="1017"
     inkscape:window-x="-8"
     inkscape:window-y="-8"
     inkscape:window-maximized="1"
     fit-margin-top="0"
     fit-margin-left="0"
     fit-margin-right="0"
     fit-margin-bottom="0" />
  <metadata
     id="metadata7">
    <rdf:RDF>
      <cc:Work
         rdf:about="">
        <dc:format>image/svg+xml</dc:format>
        <dc:type
           rdf:resource="http://purl.org/dc/dcmitype/StillImage" />
        <dc:title />
      </cc:Work>
    </rdf:RDF>
  </metadata>
  <g
     inkscape:label="Capa 1"
     inkscape:groupmode="layer"
     id="layer1"
     transform="translate(-33.952473,-83.547793)">
    <path
       style="opacity:1;fill:none;fill-opacity:1;fill-rule:nonzero;stroke:#000000;stroke-width:1.25;stroke-linecap:butt;stroke-linejoin:round;stroke-miterlimit:4;stroke-dasharray:none;stroke-dashoffset:0;stroke-opacity:1"
       d="m 34.57747,437.87851 c 0,-36.62423 5.56635,-71.94838 15.89921,-105.17257 14.38525,-46.25425 38.00883,-88.43843 68.71251,-124.39427 29.87059,-34.98026 66.44227,-64.06559 107.72774,-85.26869 48.38142,-24.84739 103.23624,-38.87019 161.36626,-38.87019 33.03925,0 65.02047,4.52996 95.35645,13.00266 49.76606,13.89943 95.1044,38.40969 133.4225,70.93826 38.15621,32.39112 69.35134,72.73294 91.02574,118.46566 21.7397,45.8706 33.901,97.16465 33.901,151.29914 0,34.82608 -5.0332,68.4766 -14.4118,100.26383 -10.653,36.10622 -26.9124,69.8084 -47.7705,100.09868 -24.42918,35.47615 -55.1664,66.2721 -90.59247,90.76863 -29.9767,20.72838 -63.31067,36.94628 -99.02089,47.67267 -32.2708,9.69327 -66.48214,14.90191 -101.91003,14.90191 -57.57083,0 -111.92917,-13.75431 -159.96823,-38.15612 C 188.91252,733.41333 153.76142,706.23537 124.576,673.6086 94.70202,640.21207 71.07854,601.10658 55.54412,558.13071 41.97481,520.5913 34.57747,480.09877 34.57747,437.87851 Z"
       id="path4136"
       inkscape:connector-curvature="0"
       sodipodi:nodetypes="ssssssssssssssssss" />
    <path
       style="opacity:1;fill:none;fill-opacity:1;fill-rule:nonzero;stroke:#000000;stroke-width:1.25;stroke-linecap:butt;stroke-linejoin:round;stroke-miterlimit:4;stroke-dasharray:none;stroke-dashoffset:0;stroke-opacity:1"
       d="m 676.17864,602.65335 a 4.6899605,4.6899605 0 0 1 4.68996,-4.68996 4.6899605,4.6899605 0 0 1 4.68996,4.68996 4.6899605,4.6899605 0 0 1 -4.68996,4.68996 4.6899605,4.6899605 0 0 1 -4.68996,-4.68996 z"
       id="path4258"
       inkscape:connector-curvature="0" />
    <path
       style="opacity:1;fill:none;fill-opacity:1;fill-rule:nonzero;stroke:#000000;stroke-width:1.25;stroke-linecap:butt;stroke-linejoin:round;stroke-miterlimit:4;stroke-dasharray:none;stroke-dashoffset:0;stroke-opacity:1"
       d="m 676.17864,272.65338 a 4.6899605,4.6899605 0 0 1 4.68996,-4.68996 4.6899605,4.6899605 0 0 1 4.68996,4.68996 4.6899605,4.6899605 0 0 1 -4.68996,4.68996 4.6899605,4.6899605 0 0 1 -4.68996,-4.68996 z"
       id="circle4260"
       inkscape:connector-curvature="0" />
    <path
       style="opacity:1;fill:none;fill-opacity:1;fill-rule:nonzero;stroke:#000000;stroke-width:1.25;stroke-linecap:butt;stroke-linejoin:round;stroke-miterlimit:4;stroke-dasharray:none;stroke-dashoffset:0;stroke-opacity:1"
       d="m 90.7309,602.65335 a 4.6899605,4.6899605 0 0 1 4.689963,-4.68996 4.6899605,4.6899605 0 0 1 4.689957,4.68996 4.6899605,4.6899605 0 0 1 -4.689957,4.68996 4.6899605,4.6899605 0 0 1 -4.689963,-4.68996 z"
       id="circle4268"
       inkscape:connector-curvature="0" />
    <path
       style="opacity:1;fill:none;fill-opacity:1;fill-rule:nonzero;stroke:#000000;stroke-width:1.25;stroke-linecap:butt;stroke-linejoin:round;stroke-miterlimit:4;stroke-dasharray:none;stroke-dashoffset:0;stroke-opacity:1"
       d="m 90.7309,272.65338 a 4.6899605,4.6899605 0 0 1 4.689963,-4.68996 4.6899605,4.6899605 0 0 1 4.689957,4.68996 4.6899605,4.6899605 0 0 1 -4.689957,4.68996 4.6899605,4.6899605 0 0 1 -4.689963,-4.68996 z"
       id="circle4270"
       inkscape:connector-curvature="0" />
    <path
       style="opacity:1;fill:none;fill-opacity:1;fill-rule:nonzero;stroke:#000000;stroke-width:1;stroke-linecap:butt;stroke-linejoin:round;stroke-miterlimit:4;stroke-dasharray:none;stroke-dashoffset:0;stroke-opacity:1"
       d="M 354.33008 71.365234 A 282.96457 282.96457 0 0 0 71.365234 354.33008 A 282.96457 282.96457 0 0 0 283.96484 628.04102 L 283.96484 406.50195 L 424.69727 406.50195 L 424.69727 628.17969 A 282.96457 282.96457 0 0 0 637.29492 354.33008 A 282.96457 282.96457 0 0 0 354.33008 71.365234 z "
       transform="translate(33.952473,83.547793)"
       id="path4158" />
  </g>
</svg>
