<?xml version="1.0" encoding="UTF-8" standalone="no"?>
<!-- Created with Inkscape (http://www.inkscape.org/) -->

<svg
   xmlns:dc="http://purl.org/dc/elements/1.1/"
   xmlns:cc="http://creativecommons.org/ns#"
   xmlns:rdf="http://www.w3.org/1999/02/22-rdf-syntax-ns#"
   xmlns:svg="http://www.w3.org/2000/svg"
   xmlns="http://www.w3.org/2000/svg"
   xmlns:sodipodi="http://sodipodi.sourceforge.net/DTD/sodipodi-0.dtd"
   xmlns:inkscape="http://www.inkscape.org/namespaces/inkscape"
   width="246.39407mm"
   height="210mm"
   viewBox="0 0 873.04987 744.09448"
   id="svg2"
   version="1.1"
   inkscape:version="0.91 r13725"
   sodipodi:docname="Alien_Master_Base_01.svg">
  <defs
     id="defs4">
    <inkscape:perspective
       sodipodi:type="inkscape:persp3d"
       inkscape:vp_x="0 : 372.04724 : 1"
       inkscape:vp_y="0 : 1000 : 0"
       inkscape:vp_z="744.09449 : 372.04724 : 1"
       inkscape:persp3d-origin="372.04724 : 248.03149 : 1"
       id="perspective4294" />
  </defs>
  <sodipodi:namedview
     id="base"
     pagecolor="#ffffff"
     bordercolor="#666666"
     borderopacity="1.0"
     inkscape:pageopacity="0.0"
     inkscape:pageshadow="2"
     inkscape:zoom="0.50909239"
     inkscape:cx="597.16845"
     inkscape:cy="290.78089"
     inkscape:document-units="px"
     inkscape:current-layer="layer1"
     showgrid="false"
     fit-margin-top="0"
     fit-margin-left="0"
     fit-margin-right="0"
     fit-margin-bottom="0"
     inkscape:window-width="1920"
     inkscape:window-height="1017"
     inkscape:window-x="-8"
     inkscape:window-y="-8"
     inkscape:window-maximized="1"
     showguides="true"
     inkscape:guide-bbox="true">
    <sodipodi:guide
       position="-84.302326,461.6279"
       orientation="0,1"
       id="guide3389"
       inkscape:locked="false" />
    <sodipodi:guide
       position="129.3684,249.09442"
       orientation="0,1"
       id="guide3437"
       inkscape:locked="false" />
    <sodipodi:guide
       position="787.89834,353.39556"
       orientation="1,0"
       id="guide4339" />
  </sodipodi:namedview>
  <metadata
     id="metadata7">
    <rdf:RDF>
      <cc:Work
         rdf:about="">
        <dc:format>image/svg+xml</dc:format>
        <dc:type
           rdf:resource="http://purl.org/dc/dcmitype/StillImage" />
        <dc:title></dc:title>
      </cc:Work>
    </rdf:RDF>
  </metadata>
  <g
     inkscape:label="Capa 1"
     inkscape:groupmode="layer"
     id="layer1"
     transform="translate(3.3571472,-160.19629)">
    <path
       style="opacity:1;fill:none;fill-opacity:1;stroke:#000000;stroke-width:1;stroke-linecap:round;stroke-linejoin:round;stroke-miterlimit:10;stroke-dasharray:none;stroke-dashoffset:0;stroke-opacity:1"
       d="m 740.23734,532.24353 c 0,32.34847 -4.13398,63.7314 -11.90248,93.6493 -6.54908,25.22169 -15.68119,49.40218 -27.09708,72.24221 -4.37901,8.76118 -9.09406,17.32513 -14.12825,25.67495 -13.28713,22.03832 -28.79751,42.58497 -46.2206,61.32938 -9.49301,10.21293 -19.55382,19.89085 -30.13222,28.98351 -14.05054,12.07714 -29.01419,23.12179 -44.77323,33.01622 -10.22457,6.41957 -20.78396,12.35496 -31.64602,17.77403 -12.88936,6.43048 -26.20492,12.13391 -39.89296,17.05658 -14.27527,5.13385 -28.95567,9.41851 -43.98027,12.79305 -26.31154,5.90959 -53.67867,9.02801 -81.77414,9.02801 -19.25501,0 -38.16793,-1.4647 -56.6334,-4.28877 -18.59321,-2.8436 -36.73277,-7.06543 -54.31113,-12.55796 -15.31455,-4.78518 -30.20315,-10.53483 -44.59468,-17.17786 -13.84809,-6.39217 -27.23594,-13.61152 -40.1002,-21.59467 C 153.01271,835.73657 134.24513,821.44845 116.98737,805.54655 98.334073,788.35875 81.444654,769.28565 66.621475,748.6296 58.40203,737.17583 50.81789,725.23535 43.920604,712.85972 36.737666,699.97154 30.299653,686.61142 24.664789,672.83757 17.946178,656.41461 12.369363,639.40348 8.0330336,621.90287 4.2986932,606.83178 1.4843261,591.39767 -0.34703598,575.66359 -2.0048577,561.42047 -2.8571472,546.93153 -2.8571472,532.24353 c 0,-44.02717 7.6577885,-86.26578 21.7140812,-125.45652 9.781857,-27.27307 22.662414,-53.07011 38.21727,-76.96672 8.789507,-13.50314 18.432914,-26.39947 28.853649,-38.61243 19.274117,-22.589 41.207477,-42.84018 65.315557,-60.26901 15.45174,-11.17077 31.79686,-21.18213 48.90779,-29.90651 26.37089,-13.44576 54.56074,-23.83468 84.10256,-30.69975 27.12605,-6.30369 55.39201,-9.6363 84.43633,-9.6363 42.62188,0 83.56754,7.17673 121.69448,20.3877 18.81892,6.52074 36.95112,14.51158 54.25921,23.83514 13.12086,7.06797 25.76812,14.90182 37.88193,23.4417 11.86592,8.36512 23.21999,17.40768 34.00598,27.07141 14.73722,13.20385 28.41389,27.56735 40.88653,42.94701 12.39525,15.28424 23.60135,31.57207 33.47747,48.72265 9.59106,16.65555 17.92781,34.12476 24.88127,52.27866 15.80228,41.25617 24.46038,86.04847 24.46038,132.86297 z"
       id="path4136"
       inkscape:connector-curvature="0"
       sodipodi:nodetypes="sssssssssssssssssssssssssssssssssssss" />
    <path
       transform="matrix(0,1,-1,0,0,0)"
       style="opacity:1;fill:none;fill-opacity:1;stroke:#000000;stroke-width:0.99999988;stroke-linecap:round;stroke-linejoin:round;stroke-miterlimit:10;stroke-dasharray:none;stroke-dashoffset:0;stroke-opacity:1"
       d="m 390.77651,-130.28726 a 4.814961,4.8149595 0 0 1 -4.81496,4.81496 4.814961,4.8149595 0 0 1 -4.81496,-4.81496 4.814961,4.8149595 0 0 1 4.81496,-4.81496 4.814961,4.8149595 0 0 1 4.81496,4.81496 z"
       id="path4138"
       inkscape:connector-curvature="0" />
    <path
       transform="matrix(0,1,-1,0,0,0)"
       style="opacity:1;fill:none;fill-opacity:1;stroke:#000000;stroke-width:0.99999988;stroke-linecap:round;stroke-linejoin:round;stroke-miterlimit:10;stroke-dasharray:none;stroke-dashoffset:0;stroke-opacity:1"
       d="m 683.27651,-130.28726 a 4.814961,4.8149595 0 0 1 -4.81496,4.81496 4.814961,4.8149595 0 0 1 -4.81496,-4.81496 4.814961,4.8149595 0 0 1 4.81496,-4.81496 4.814961,4.8149595 0 0 1 4.81496,4.81496 z"
       id="ellipse4140"
       inkscape:connector-curvature="0" />
    <path
       transform="matrix(0,1,-1,0,0,0)"
       style="opacity:1;fill:none;fill-opacity:1;stroke:#000000;stroke-width:0.99999988;stroke-linecap:round;stroke-linejoin:round;stroke-miterlimit:10;stroke-dasharray:none;stroke-dashoffset:0;stroke-opacity:1"
       d="m 395.27651,-301.28726 a 4.814961,4.8149595 0 0 1 -4.81496,4.81496 4.814961,4.8149595 0 0 1 -4.81496,-4.81496 4.814961,4.8149595 0 0 1 4.81496,-4.81496 4.814961,4.8149595 0 0 1 4.81496,4.81496 z"
       id="ellipse4142"
       inkscape:connector-curvature="0" />
    <path
       transform="matrix(0,1,-1,0,0,0)"
       style="opacity:1;fill:none;fill-opacity:1;stroke:#000000;stroke-width:0.99999988;stroke-linecap:round;stroke-linejoin:round;stroke-miterlimit:10;stroke-dasharray:none;stroke-dashoffset:0;stroke-opacity:1"
       d="m 660.77651,-301.28726 a 4.814961,4.8149595 0 0 1 -4.81496,4.81496 4.814961,4.8149595 0 0 1 -4.81496,-4.81496 4.814961,4.8149595 0 0 1 4.81496,-4.81496 4.814961,4.8149595 0 0 1 4.81496,4.81496 z"
       id="ellipse4144"
       inkscape:connector-curvature="0" />
    <path
       style="opacity:1;fill:none;fill-opacity:1;stroke:#ff0000;stroke-width:1;stroke-linecap:round;stroke-linejoin:round;stroke-miterlimit:10;stroke-dasharray:none;stroke-dashoffset:0;stroke-opacity:1"
       d="m 331.64658,-313.89743 363.96063,0 0,197.4252 -363.96063,0 z"
       id="rect4146"
       transform="matrix(0,1,-1,0,0,0)"
       inkscape:connector-curvature="0" />
    <path
       transform="matrix(0,1,-1,0,0,0)"
       style="opacity:1;fill:none;fill-opacity:1;stroke:#ff0000;stroke-width:1;stroke-linecap:round;stroke-linejoin:round;stroke-miterlimit:10;stroke-dasharray:none;stroke-dashoffset:0;stroke-opacity:1"
       d="m 290.23749,-288.69955 72.72727,0 0,54.54545 -72.72727,0 z"
       id="rect4148"
       inkscape:connector-curvature="0" />
    <path
       transform="matrix(0,1,-1,0,0,0)"
       style="opacity:1;fill:none;fill-opacity:1;stroke:#ff0000;stroke-width:1;stroke-linecap:round;stroke-linejoin:round;stroke-miterlimit:10;stroke-dasharray:none;stroke-dashoffset:0;stroke-opacity:1"
       d="m 314.10114,-178.47226 54.54545,0 0,39.77273 -54.54545,0 z"
       id="rect4150"
       inkscape:connector-curvature="0" />
    <path
       style="opacity:1;fill:none;fill-opacity:1;stroke:#ff0000;stroke-width:1;stroke-linecap:round;stroke-linejoin:round;stroke-miterlimit:10;stroke-dasharray:none;stroke-dashoffset:0;stroke-opacity:1"
       d="m 678.27141,371.88264 c 0,9.76762 -1.32364,19.22609 -3.80134,28.20582 -3.87243,14.03451 -10.56386,26.89961 -19.42685,37.94786 -6.59895,8.22598 -14.40171,15.44478 -23.14106,21.38918 -16.93977,11.52221 -37.39844,18.25635 -59.42996,18.25635 -19.21929,0 -37.24164,-5.12469 -52.77513,-14.08216 -9.47829,-5.4657 -18.02991,-12.35843 -25.36136,-20.3847 -8.35442,-9.14616 -15.1244,-19.76425 -19.87566,-31.41995 -5.02056,-12.31637 -7.78706,-25.79131 -7.78706,-39.9124 0,-14.77678 3.02937,-28.84601 8.50095,-41.62052 4.89522,-11.42889 11.74524,-21.82146 20.12958,-30.75723 10.15596,-10.82391 22.56314,-19.51033 36.47425,-25.31194 12.52715,-5.22444 26.27387,-8.10952 40.69443,-8.10952 17.17523,0 33.39457,4.09259 47.73605,11.35577 13.40973,6.7913 25.17766,16.3546 34.55007,27.93617 9.25631,11.4381 16.17608,24.84479 20.03326,39.494 2.27052,8.62324 3.47983,17.67703 3.47983,27.01327 z"
       id="path4170"
       inkscape:connector-curvature="0"
       sodipodi:nodetypes="sssssssssssssssss" />
    <path
       style="opacity:1;fill:none;fill-opacity:1;stroke:#000000;stroke-width:1;stroke-linecap:round;stroke-linejoin:round;stroke-miterlimit:10;stroke-dasharray:none;stroke-dashoffset:0;stroke-opacity:1"
       d="m 577.28716,371.88264 a 4.81496,4.81496 0 0 1 -4.81496,4.81496 4.81496,4.81496 0 0 1 -4.81496,-4.81496 4.81496,4.81496 0 0 1 4.81496,-4.81496 4.81496,4.81496 0 0 1 4.81496,4.81496 z"
       id="circle4172"
       inkscape:connector-curvature="0" />
    <path
       inkscape:connector-curvature="0"
       id="path4178"
       d="m 512.10415,589.34764 a 11.901574,11.901575 0 0 1 -11.90157,11.90157 11.901574,11.901575 0 0 1 -11.90158,-11.90157 11.901574,11.901575 0 0 1 11.90158,-11.90158 11.901574,11.901575 0 0 1 11.90157,11.90158 z"
       style="opacity:1;fill:none;fill-opacity:1;stroke:#000000;stroke-width:0.99999988;stroke-linecap:round;stroke-linejoin:round;stroke-miterlimit:10;stroke-dasharray:none;stroke-dashoffset:0;stroke-opacity:1" />
    <path
       inkscape:connector-curvature="0"
       id="rect4180"
       d="m 410.72595,502.96192 45.063,0 0,69.86615 -45.063,0 z"
       style="opacity:1;fill:none;fill-opacity:1;stroke:#000000;stroke-width:1;stroke-linecap:round;stroke-linejoin:round;stroke-miterlimit:10;stroke-dasharray:none;stroke-dashoffset:0;stroke-opacity:1" />
    <path
       style="opacity:1;fill:none;fill-opacity:1;stroke:#000000;stroke-width:1;stroke-linecap:round;stroke-linejoin:round;stroke-miterlimit:10;stroke-dasharray:none;stroke-dashoffset:0;stroke-opacity:1"
       d="m 471.28131,680.5386 a 10.129922,10.129921 0 0 1 -10.12993,10.12992 10.129922,10.129921 0 0 1 -10.12992,-10.12992 10.129922,10.129921 0 0 1 10.12992,-10.12992 10.129922,10.129921 0 0 1 10.12993,10.12992 z"
       id="ellipse4190"
       inkscape:connector-curvature="0" />
    <path
       style="opacity:1;fill:none;fill-opacity:1;stroke:#000000;stroke-width:1;stroke-linecap:round;stroke-linejoin:round;stroke-miterlimit:10;stroke-dasharray:none;stroke-dashoffset:0;stroke-opacity:1"
       d="m 401.48751,685.19633 a 10.129922,10.129921 0 0 1 -10.12992,10.12993 10.129922,10.129921 0 0 1 -10.12993,-10.12993 10.129922,10.129921 0 0 1 10.12993,-10.12992 10.129922,10.129921 0 0 1 10.12992,10.12992 z"
       id="path4186"
       inkscape:connector-curvature="0" />
    <path
       style="opacity:1;fill:none;fill-opacity:1;stroke:#000000;stroke-width:1;stroke-linecap:round;stroke-linejoin:round;stroke-miterlimit:10;stroke-dasharray:none;stroke-dashoffset:0;stroke-opacity:1"
       d="m 541.07508,685.19633 a 10.129922,10.129921 0 0 1 -10.12992,10.12993 10.129922,10.129921 0 0 1 -10.12992,-10.12993 10.129922,10.129921 0 0 1 10.12992,-10.12992 10.129922,10.129921 0 0 1 10.12992,10.12992 z"
       id="ellipse4188"
       inkscape:connector-curvature="0" />
    <g
       id="g4248"
       transform="translate(-5.225486,-0.00178973)">
      <path
         id="path4680"
         d="m 701.65379,665.75594 a 6.4616141,6.4616141 0 0 1 -6.46161,6.46162 6.4616141,6.4616141 0 0 1 -6.46162,-6.46162 6.4616141,6.4616141 0 0 1 6.46162,-6.46161 6.4616141,6.4616141 0 0 1 6.46161,6.46161 z"
         style="opacity:1;fill:none;fill-opacity:1;stroke:#000000;stroke-width:1.25;stroke-linecap:round;stroke-linejoin:round;stroke-miterlimit:10;stroke-dasharray:none;stroke-dashoffset:0;stroke-opacity:1"
         inkscape:connector-curvature="0" />
      <path
         id="circle4682"
         d="m 59.10059,388.0964 a 6.4616141,6.4616141 0 0 1 -6.46161,6.46161 6.4616141,6.4616141 0 0 1 -6.46161,-6.46161 6.4616141,6.4616141 0 0 1 6.46161,-6.46162 6.4616141,6.4616141 0 0 1 6.46161,6.46162 z"
         style="opacity:1;fill:none;fill-opacity:1;stroke:#000000;stroke-width:1.25;stroke-linecap:round;stroke-linejoin:round;stroke-miterlimit:10;stroke-dasharray:none;stroke-dashoffset:0;stroke-opacity:1"
         inkscape:connector-curvature="0" />
      <path
         id="circle4684"
         d="m 59.10059,676.39425 a 6.4616141,6.4616141 0 0 1 -6.46161,6.46161 6.4616141,6.4616141 0 0 1 -6.46161,-6.46161 6.4616141,6.4616141 0 0 1 6.46161,-6.46162 6.4616141,6.4616141 0 0 1 6.46161,6.46162 z"
         style="opacity:1;fill:none;fill-opacity:1;stroke:#000000;stroke-width:1.25;stroke-linecap:round;stroke-linejoin:round;stroke-miterlimit:10;stroke-dasharray:none;stroke-dashoffset:0;stroke-opacity:1"
         inkscape:connector-curvature="0" />
      <path
         id="circle4686"
         d="m 701.65379,388.0964 a 6.4616141,6.4616141 0 0 1 -6.46161,6.46161 6.4616141,6.4616141 0 0 1 -6.46162,-6.46161 6.4616141,6.4616141 0 0 1 6.46162,-6.46162 6.4616141,6.4616141 0 0 1 6.46161,6.46162 z"
         style="opacity:1;fill:none;fill-opacity:1;stroke:#000000;stroke-width:1.25;stroke-linecap:round;stroke-linejoin:round;stroke-miterlimit:10;stroke-dasharray:none;stroke-dashoffset:0;stroke-opacity:1"
         inkscape:connector-curvature="0" />
    </g>
    <g
       style="font-style:normal;font-weight:normal;font-size:27.5px;line-height:125%;font-family:sans-serif;letter-spacing:0px;word-spacing:0px;fill:none;fill-opacity:1;stroke:#0000ff;stroke-width:1.4228555px;stroke-linecap:butt;stroke-linejoin:miter;stroke-opacity:1"
       id="text4280"
       transform="matrix(0.70637676,0,0,0.69926538,110.17805,70.88456)">
      <path
         d="m 275.20865,201.74443 -6.68945,18.13965 13.40332,0 -6.71387,-18.13965 z m -2.7832,-4.8584 5.59082,0 13.8916,36.4502 -5.12696,0 -3.32031,-9.35059 -16.43066,0 -3.32031,9.35059 -5.2002,0 13.91602,-36.4502 z"
         style="font-size:50px;fill:none;stroke:#0000ff;stroke-width:1.4228555px"
         id="path4331"
         inkscape:connector-curvature="0" />
      <path
         d="m 297.20572,196.88603 4.93164,0 0,32.29981 17.74902,0 0,4.15039 -22.68066,0 0,-36.4502 z"
         style="font-size:50px;fill:none;stroke:#0000ff;stroke-width:1.4228555px"
         id="path4333"
         inkscape:connector-curvature="0" />
      <path
         d="m 325.03775,196.88603 4.93164,0 0,36.4502 -4.93164,0 0,-36.4502 z"
         style="font-size:50px;fill:none;stroke:#0000ff;stroke-width:1.4228555px"
         id="path4335"
         inkscape:connector-curvature="0" />
      <path
         d="m 339.78384,196.88603 23.04688,0 0,4.15039 -18.11524,0 0,10.79102 17.3584,0 0,4.15039 -17.3584,0 0,13.20801 18.55469,0 0,4.15039 -23.48633,0 0,-36.4502 z"
         style="font-size:50px;fill:none;stroke:#0000ff;stroke-width:1.4228555px"
         id="path4337"
         inkscape:connector-curvature="0" />
      <path
         d="m 371.42447,196.88603 6.64062,0 16.16211,30.49317 0,-30.49317 4.78516,0 0,36.4502 -6.64063,0 -16.1621,-30.49317 0,30.49317 -4.78516,0 0,-36.4502 z"
         style="font-size:50px;fill:none;stroke:#0000ff;stroke-width:1.4228555px"
         id="path4339"
         inkscape:connector-curvature="0" />
      <path
         d="m 435.73111,200.1331 q -3.80859,0 -5.73731,3.75977 -1.90429,3.73535 -1.90429,11.25488 0,7.49512 1.90429,11.25488 1.92872,3.73536 5.73731,3.73536 3.83301,0 5.7373,-3.73536 1.92872,-3.75976 1.92872,-11.25488 0,-7.51953 -1.92872,-11.25488 -1.90429,-3.75977 -5.7373,-3.75977 z m 0,-3.90625 q 6.12793,0 9.35059,4.8584 3.24707,4.83399 3.24707,14.0625 0,9.2041 -3.24707,14.0625 -3.22266,4.83399 -9.35059,4.83399 -6.12793,0 -9.375,-4.83399 -3.22266,-4.8584 -3.22266,-14.0625 0,-9.22851 3.22266,-14.0625 3.24707,-4.8584 9.375,-4.8584 z"
         style="font-size:50px;fill:none;stroke:#0000ff;stroke-width:1.4228555px"
         id="path4341"
         inkscape:connector-curvature="0" />
      <path
         d="m 457.87466,229.18584 8.05664,0 0,-27.80762 -8.76464,1.75781 0,-4.49219 8.71582,-1.75781 4.93164,0 0,32.29981 8.05664,0 0,4.15039 -20.9961,0 0,-4.15039 z"
         style="font-size:50px;fill:none;stroke:#0000ff;stroke-width:1.4228555px"
         id="path4343"
         inkscape:connector-curvature="0" />
    </g>
    <path
       style="opacity:1;fill:none;fill-opacity:1;stroke:#000000;stroke-width:1;stroke-linecap:round;stroke-linejoin:round;stroke-miterlimit:10;stroke-dasharray:none;stroke-dashoffset:0;stroke-opacity:1"
       d="m 516.72493,298.29652 c 6.29546,0 11.36364,5.06818 11.36364,11.36364 l 0,28.40909 c 0,6.29545 -5.06818,11.36364 -11.36364,11.36364 -6.29545,0 -11.36364,-5.06819 -11.36364,-11.36364 l 0,-28.40909 c 0,-6.29546 5.06819,-11.36364 11.36364,-11.36364 z"
       id="rect4290"
       inkscape:connector-curvature="0" />
    <path
       id="path3381"
       d="m 599.28716,371.88264 a 4.81496,4.81496 0 0 1 -4.81496,4.81496 4.81496,4.81496 0 0 1 -4.81496,-4.81496 4.81496,4.81496 0 0 1 4.81496,-4.81496 4.81496,4.81496 0 0 1 4.81496,4.81496 z"
       style="opacity:1;fill:none;fill-opacity:1;stroke:#000000;stroke-width:1;stroke-linecap:round;stroke-linejoin:round;stroke-miterlimit:10;stroke-dasharray:none;stroke-dashoffset:0;stroke-opacity:1"
       inkscape:connector-curvature="0" />
    <path
       inkscape:connector-curvature="0"
       style="opacity:1;fill:none;fill-opacity:1;stroke:#000000;stroke-width:1;stroke-linecap:round;stroke-linejoin:round;stroke-miterlimit:10;stroke-dasharray:none;stroke-dashoffset:0;stroke-opacity:1"
       d="m 555.28716,371.88264 a 4.81496,4.81496 0 0 1 -4.81496,4.81496 4.81496,4.81496 0 0 1 -4.81496,-4.81496 4.81496,4.81496 0 0 1 4.81496,-4.81496 4.81496,4.81496 0 0 1 4.81496,4.81496 z"
       id="path3383" />
    <path
       id="path3385"
       d="m 339.16914,495.01302 0.34838,0 c 7.60923,0 13.73507,2.5405 13.73507,5.69616 l 0,148.61801 c 0,3.15568 -6.12584,5.69617 -13.73507,5.69617 l -0.34838,0 c -7.60924,0 -13.73507,-2.54049 -13.73507,-5.69617 l 0,-148.61801 c 0,-3.15566 6.12583,-5.69616 13.73507,-5.69616 z"
       style="opacity:1;fill:none;fill-opacity:1;stroke:#000000;stroke-width:1.03167856;stroke-linecap:round;stroke-linejoin:round;stroke-miterlimit:10;stroke-dasharray:none;stroke-dashoffset:0;stroke-opacity:1"
       inkscape:connector-curvature="0" />
    <rect
       style="opacity:1;fill:none;fill-opacity:1;fill-rule:nonzero;stroke:#ff0000;stroke-width:1;stroke-linecap:round;stroke-linejoin:miter;stroke-miterlimit:4;stroke-dasharray:none;stroke-dashoffset:0;stroke-opacity:1"
       id="rect3387"
       width="140.73228"
       height="140.73228"
       x="316.83481"
       y="299.62009" />
    <g
       id="g3395"
       transform="translate(158.47147,-403.72656)">
      <path
         inkscape:connector-curvature="0"
         style="opacity:1;fill:none;fill-opacity:1;stroke:#000000;stroke-width:1;stroke-linecap:round;stroke-linejoin:round;stroke-miterlimit:10;stroke-dasharray:none;stroke-dashoffset:0;stroke-opacity:1"
         d="m 283.15072,721.81046 a 4.81496,4.81496 0 0 1 -4.81496,4.81496 4.81496,4.81496 0 0 1 -4.81495,-4.81496 4.81496,4.81496 0 0 1 4.81495,-4.81496 4.81496,4.81496 0 0 1 4.81496,4.81496 z"
         id="path3391" />
      <path
         id="path3393"
         d="m 183.93813,721.81046 a 4.81496,4.81496 0 0 1 -4.81496,4.81496 4.81496,4.81496 0 0 1 -4.81496,-4.81496 4.81496,4.81496 0 0 1 4.81496,-4.81496 4.81496,4.81496 0 0 1 4.81496,4.81496 z"
         style="opacity:1;fill:none;fill-opacity:1;stroke:#000000;stroke-width:1;stroke-linecap:round;stroke-linejoin:round;stroke-miterlimit:10;stroke-dasharray:none;stroke-dashoffset:0;stroke-opacity:1"
         inkscape:connector-curvature="0" />
    </g>
    <text
       xml:space="preserve"
       style="font-style:normal;font-weight:normal;font-size:27.5px;line-height:125%;font-family:sans-serif;letter-spacing:0px;word-spacing:0px;fill:none;fill-opacity:1;stroke:#0000ff;stroke-width:1px;stroke-linecap:butt;stroke-linejoin:miter;stroke-opacity:1"
       x="378.85513"
       y="655.19373"
       id="text3399"
       sodipodi:linespacing="125%"><tspan
         sodipodi:role="line"
         id="tspan3401"
         x="378.85513"
         y="655.19373"
         style="font-size:15px;fill:none;stroke:#0000ff">Del</tspan></text>
    <text
       id="text3403"
       y="655.28308"
       x="450.73636"
       style="font-style:normal;font-weight:normal;font-size:27.5px;line-height:125%;font-family:sans-serif;letter-spacing:0px;word-spacing:0px;fill:none;fill-opacity:1;stroke:#0000ff;stroke-width:1px;stroke-linecap:butt;stroke-linejoin:miter;stroke-opacity:1"
       xml:space="preserve"
       sodipodi:linespacing="125%"><tspan
         style="font-size:15px;fill:none;stroke:#0000ff"
         y="655.28308"
         x="450.73636"
         id="tspan3405"
         sodipodi:role="line">Go</tspan></text>
    <text
       xml:space="preserve"
       style="font-style:normal;font-weight:normal;font-size:27.5px;line-height:125%;font-family:sans-serif;letter-spacing:0px;word-spacing:0px;fill:none;fill-opacity:1;stroke:#0000ff;stroke-width:1px;stroke-linecap:butt;stroke-linejoin:miter;stroke-opacity:1"
       x="422.81677"
       y="491.34375"
       id="text3407"
       sodipodi:linespacing="125%"><tspan
         sodipodi:role="line"
         id="tspan3409"
         x="422.81677"
         y="491.34375"
         style="font-size:15px;fill:none;stroke:#0000ff">On</tspan></text>
    <text
       id="text3411"
       y="548.42114"
       x="476.78339"
       style="font-style:normal;font-weight:normal;font-size:27.5px;line-height:125%;font-family:sans-serif;letter-spacing:0px;word-spacing:0px;fill:none;fill-opacity:1;stroke:#0000ff;stroke-width:1px;stroke-linecap:butt;stroke-linejoin:miter;stroke-opacity:1"
       xml:space="preserve"
       sodipodi:linespacing="125%"><tspan
         style="font-size:15px;fill:none;stroke:#0000ff"
         y="548.42114"
         x="476.78339"
         id="tspan3413"
         sodipodi:role="line">Power</tspan></text>
    <text
       id="text3415"
       y="725.19373"
       x="378.69034"
       style="font-style:normal;font-weight:normal;font-size:27.5px;line-height:125%;font-family:sans-serif;letter-spacing:0px;word-spacing:0px;fill:none;fill-opacity:1;stroke:#0000ff;stroke-width:1px;stroke-linecap:butt;stroke-linejoin:miter;stroke-opacity:1"
       xml:space="preserve"
       sodipodi:linespacing="125%"><tspan
         style="font-size:15px;fill:none;stroke:#0000ff"
         y="725.19373"
         x="378.69034"
         id="tspan3417"
         sodipodi:role="line">Por</tspan></text>
    <text
       id="text3419"
       y="653.50909"
       x="511.91684"
       style="font-style:normal;font-weight:normal;font-size:27.5px;line-height:125%;font-family:sans-serif;letter-spacing:0px;word-spacing:0px;fill:none;fill-opacity:1;stroke:#0000ff;stroke-width:1px;stroke-linecap:butt;stroke-linejoin:miter;stroke-opacity:1"
       xml:space="preserve"
       sodipodi:linespacing="125%"><tspan
         style="font-size:15px;fill:none;stroke:#0000ff"
         y="653.50909"
         x="511.91684"
         id="tspan3421"
         sodipodi:role="line">Jugar</tspan></text>
    <text
       xml:space="preserve"
       style="font-style:normal;font-weight:normal;font-size:27.5px;line-height:125%;font-family:sans-serif;letter-spacing:0px;word-spacing:0px;fill:none;fill-opacity:1;stroke:#0000ff;stroke-width:1px;stroke-linecap:butt;stroke-linejoin:miter;stroke-opacity:1"
       x="516.37"
       y="725.19366"
       id="text3423"
       sodipodi:linespacing="125%"><tspan
         sodipodi:role="line"
         id="tspan3425"
         x="516.37"
         y="725.19366"
         style="font-size:15px;fill:none;stroke:#0000ff">Test</tspan></text>
    <text
       id="text3439"
       y="492.05743"
       x="550.51678"
       style="font-style:normal;font-weight:normal;font-size:27.5px;line-height:125%;font-family:sans-serif;letter-spacing:0px;word-spacing:0px;fill:none;fill-opacity:1;stroke:#0000ff;stroke-width:1px;stroke-linecap:butt;stroke-linejoin:miter;stroke-opacity:1"
       xml:space="preserve"
       sodipodi:linespacing="125%"><tspan
         style="font-size:12.5px;fill:none;stroke:#0000ff"
         y="492.05743"
         x="550.51678"
         id="tspan3441"
         sodipodi:role="line">Mod. Test</tspan></text>
    <text
       xml:space="preserve"
       style="font-style:normal;font-weight:normal;font-size:27.5px;line-height:125%;font-family:sans-serif;letter-spacing:0px;word-spacing:0px;fill:none;fill-opacity:1;stroke:#0000ff;stroke-width:1px;stroke-linecap:butt;stroke-linejoin:miter;stroke-opacity:1"
       x="550.91962"
       y="510.05743"
       id="text3443"
       sodipodi:linespacing="125%"><tspan
         sodipodi:role="line"
         id="tspan3445"
         x="550.91962"
         y="510.05743"
         style="font-size:12.5px;fill:none;stroke:#0000ff">0 - Brújula</tspan><tspan
         sodipodi:role="line"
         x="550.91962"
         y="525.68243"
         style="font-size:12.5px;fill:none;stroke:#0000ff"
         id="tspan3449" /><tspan
         sodipodi:role="line"
         x="550.91962"
         y="541.30743"
         style="font-size:12.5px;fill:none;stroke:#0000ff"
         id="tspan107" /><tspan
         sodipodi:role="line"
         x="550.91962"
         y="556.93243"
         style="font-size:12.5px;fill:none;stroke:#0000ff"
         id="tspan3451" /><tspan
         sodipodi:role="line"
         x="550.91962"
         y="572.55743"
         style="font-size:12.5px;fill:none;stroke:#0000ff"
         id="tspan3453" /></text>
    <text
       id="text135"
       y="528.80743"
       x="550.3703"
       style="font-style:normal;font-weight:normal;font-size:27.5px;line-height:125%;font-family:sans-serif;letter-spacing:0px;word-spacing:0px;fill:none;fill-opacity:1;stroke:#0000ff;stroke-width:1px;stroke-linecap:butt;stroke-linejoin:miter;stroke-opacity:1"
       xml:space="preserve"
       sodipodi:linespacing="125%"><tspan
         style="font-size:12.5px;fill:none;stroke:#0000ff"
         y="528.80743"
         x="550.3703"
         id="tspan125"
         sodipodi:role="line">1 - Movi.</tspan><tspan
         id="tspan127"
         style="font-size:12.5px;fill:none;stroke:#0000ff"
         y="544.43243"
         x="550.3703"
         sodipodi:role="line" /><tspan
         id="tspan129"
         style="font-size:12.5px;fill:none;stroke:#0000ff"
         y="560.05743"
         x="550.3703"
         sodipodi:role="line" /><tspan
         id="tspan131"
         style="font-size:12.5px;fill:none;stroke:#0000ff"
         y="575.68243"
         x="550.3703"
         sodipodi:role="line" /><tspan
         id="tspan133"
         style="font-size:12.5px;fill:none;stroke:#0000ff"
         y="591.30743"
         x="550.3703"
         sodipodi:role="line" /></text>
    <text
       id="text135-1"
       y="545.78418"
       x="550.82806"
       style="font-style:normal;font-weight:normal;font-size:27.5px;line-height:125%;font-family:sans-serif;letter-spacing:0px;word-spacing:0px;fill:none;fill-opacity:1;stroke:#0000ff;stroke-width:1px;stroke-linecap:butt;stroke-linejoin:miter;stroke-opacity:1"
       xml:space="preserve"
       sodipodi:linespacing="125%"><tspan
         style="font-size:12.5px;fill:none;stroke:#0000ff;stroke-width:1px"
         y="545.78418"
         x="550.82806"
         id="tspan125-8"
         sodipodi:role="line">2 - US</tspan><tspan
         id="tspan127-8"
         style="font-size:12.5px;fill:none;stroke:#0000ff;stroke-width:1px"
         y="561.40918"
         x="550.82806"
         sodipodi:role="line" /><tspan
         id="tspan129-8"
         style="font-size:12.5px;fill:none;stroke:#0000ff;stroke-width:1px"
         y="577.03418"
         x="550.82806"
         sodipodi:role="line" /><tspan
         id="tspan131-2"
         style="font-size:12.5px;fill:none;stroke:#0000ff;stroke-width:1px"
         y="592.65918"
         x="550.82806"
         sodipodi:role="line" /><tspan
         id="tspan133-8"
         style="font-size:12.5px;fill:none;stroke:#0000ff;stroke-width:1px"
         y="608.28418"
         x="550.82806"
         sodipodi:role="line" /></text>
    <text
       id="text135-1-6"
       y="561.86218"
       x="550.79144"
       style="font-style:normal;font-weight:normal;font-size:27.5px;line-height:125%;font-family:sans-serif;letter-spacing:0px;word-spacing:0px;fill:none;fill-opacity:1;stroke:#0000ff;stroke-width:1px;stroke-linecap:butt;stroke-linejoin:miter;stroke-opacity:1"
       xml:space="preserve"
       sodipodi:linespacing="125%"><tspan
         style="font-size:12.5px;fill:none;stroke:#0000ff;stroke-width:1px"
         y="561.86218"
         x="550.79144"
         id="tspan125-8-2"
         sodipodi:role="line">3 - Bola</tspan><tspan
         id="tspan127-8-9"
         style="font-size:12.5px;fill:none;stroke:#0000ff;stroke-width:1px"
         y="577.48718"
         x="550.79144"
         sodipodi:role="line" /><tspan
         id="tspan129-8-3"
         style="font-size:12.5px;fill:none;stroke:#0000ff;stroke-width:1px"
         y="593.11218"
         x="550.79144"
         sodipodi:role="line" /><tspan
         id="tspan131-2-9"
         style="font-size:12.5px;fill:none;stroke:#0000ff;stroke-width:1px"
         y="608.73718"
         x="550.79144"
         sodipodi:role="line" /><tspan
         id="tspan133-8-3"
         style="font-size:12.5px;fill:none;stroke:#0000ff;stroke-width:1px"
         y="624.36218"
         x="550.79144"
         sodipodi:role="line" /></text>
    <text
       id="text135-1-6-2"
       y="578.52838"
       x="551.13324"
       style="font-style:normal;font-weight:normal;font-size:27.5px;line-height:125%;font-family:sans-serif;letter-spacing:0px;word-spacing:0px;fill:none;fill-opacity:1;stroke:#0000ff;stroke-width:1px;stroke-linecap:butt;stroke-linejoin:miter;stroke-opacity:1"
       xml:space="preserve"
       sodipodi:linespacing="125%"><tspan
         style="font-size:12.5px;fill:none;stroke:#0000ff;stroke-width:1px"
         y="578.52838"
         x="551.13324"
         sodipodi:role="line"
         id="tspan3913">4 - Chuta</tspan><tspan
         id="tspan127-8-9-3"
         style="font-size:12.5px;fill:none;stroke:#0000ff;stroke-width:1px"
         y="594.15338"
         x="551.13324"
         sodipodi:role="line" /><tspan
         id="tspan129-8-3-6"
         style="font-size:12.5px;fill:none;stroke:#0000ff;stroke-width:1px"
         y="609.77838"
         x="551.13324"
         sodipodi:role="line" /><tspan
         id="tspan131-2-9-5"
         style="font-size:12.5px;fill:none;stroke:#0000ff;stroke-width:1px"
         y="625.40338"
         x="551.13324"
         sodipodi:role="line" /><tspan
         id="tspan133-8-3-1"
         style="font-size:12.5px;fill:none;stroke:#0000ff;stroke-width:1px"
         y="641.02838"
         x="551.13324"
         sodipodi:role="line" /></text>
    <path
       style="opacity:1;fill:none;fill-opacity:1;stroke:#ff0000;stroke-width:0.93749994;stroke-linecap:round;stroke-linejoin:round;stroke-miterlimit:10;stroke-dasharray:none;stroke-dashoffset:0;stroke-opacity:1"
       d="m 532.50685,589.34765 a 32.304272,32.304266 0 0 1 -32.30426,32.30426 32.304272,32.304266 0 0 1 -32.30429,-32.30426 32.304272,32.304266 0 0 1 32.30429,-32.30429 32.304272,32.304266 0 0 1 32.30426,32.30429 z"
       id="path3917"
       inkscape:connector-curvature="0" />
    <path
       style="opacity:1;fill:none;fill-opacity:1;stroke:#000000;stroke-width:1;stroke-linecap:round;stroke-linejoin:round;stroke-miterlimit:10;stroke-dasharray:none;stroke-dashoffset:0;stroke-opacity:1"
       d="m 410.72595,502.96192 45.063,0 0,69.86615 -45.063,0 z"
       id="path3919"
       inkscape:connector-curvature="0" />
    <rect
       style="fill:none;stroke:#000000;stroke-width:0.77930802"
       id="rect3921"
       width="53.131367"
       height="65.891029"
       x="131.09311"
       y="295.27087"
       ry="12.354567"
       rx="12.354567" />
    <g
       id="g4756"
       transform="translate(-79.32987,-7.250001)">
      <ellipse
         ry="70.392609"
         rx="70.392601"
         cy="782.66833"
         cx="290.01996"
         id="path4738"
         style="fill:#0000ff;stroke:#0000ff;stroke-width:0.94707191;stroke-opacity:1" />
      <rect
         y="736.23877"
         x="238.43286"
         height="93.496628"
         width="101.7417"
         id="rect4742"
         style="fill:#ffffff;stroke:#0000ff;stroke-width:0.80654794;stroke-opacity:1" />
      <text
         id="text4750"
         y="804.0509"
         x="271.33182"
         style="font-style:normal;font-weight:normal;font-size:37.5px;line-height:23.4375px;font-family:sans-serif;letter-spacing:0px;word-spacing:0px;fill:#000000;fill-opacity:1;stroke:none;stroke-width:0.93749994px;stroke-linecap:butt;stroke-linejoin:miter;stroke-opacity:1"
         xml:space="preserve"><tspan
           style="font-size:60px;fill:#0000ff;stroke-width:0.93749994px"
           y="804.0509"
           x="271.33182"
           id="tspan4748"
           sodipodi:role="line">1</tspan></text>
    </g>
    <circle
       style="opacity:1;fill:none;fill-opacity:1;fill-rule:nonzero;stroke:#000000;stroke-width:0.99999994;stroke-linecap:butt;stroke-linejoin:round;stroke-miterlimit:4;stroke-dasharray:none;stroke-dashoffset:0;stroke-opacity:1"
       id="path4231"
       cx="-195.23607"
       cy="370.9845"
       r="4.8149605"
       transform="matrix(0,-1,1,0,0,0)" />
    <g
       id="g4241"
       transform="matrix(0,-1,1,0,316.3634,1203.2719)">
      <circle
         style="opacity:1;fill:none;fill-opacity:1;fill-rule:nonzero;stroke:#000000;stroke-width:0.99999994;stroke-linecap:butt;stroke-linejoin:round;stroke-miterlimit:4;stroke-dasharray:none;stroke-dashoffset:0;stroke-opacity:1"
         id="circle4233"
         cx="951.19812"
         cy="115.33538"
         r="4.8149605" />
      <circle
         r="4.8149605"
         cy="-10.855096"
         cx="951.19055"
         id="circle4235"
         style="opacity:1;fill:none;fill-opacity:1;fill-rule:nonzero;stroke:#000000;stroke-width:0.99999994;stroke-linecap:butt;stroke-linejoin:round;stroke-miterlimit:4;stroke-dasharray:none;stroke-dashoffset:0;stroke-opacity:1" />
    </g>
    <g
       transform="translate(50.227142,265.42561)"
       id="g4259">
      <path
         style="opacity:1;fill:#ffffff;fill-opacity:1;fill-rule:nonzero;stroke:#000000;stroke-width:1;stroke-linecap:butt;stroke-linejoin:round;stroke-miterlimit:4;stroke-dasharray:none;stroke-dashoffset:0;stroke-opacity:1"
         d="m 699.38041,-71.556174 0,176.164064 108.42381,0 a 371.54724,371.54724 0 0 0 11.0488,-88.082037 371.54724,371.54724 0 0 0 -11.0019,-88.082027 l -108.47071,0 z"
         id="path4261"
         inkscape:connector-curvature="0" />
      <g
         id="g4263"
         transform="translate(-0.4285714,46.428571)">
        <circle
           r="4.8149605"
           cy="-27.521765"
           cx="784.22632"
           id="circle4265"
           style="opacity:1;fill:none;fill-opacity:1;fill-rule:nonzero;stroke:#000000;stroke-width:0.99999994;stroke-linecap:butt;stroke-linejoin:round;stroke-miterlimit:4;stroke-dasharray:none;stroke-dashoffset:0;stroke-opacity:1" />
        <g
           transform="translate(-223.80952,-82.142857)"
           id="g4267">
          <circle
             r="4.8149605"
             cy="115.33538"
             cx="951.19812"
             id="circle4269"
             style="opacity:1;fill:none;fill-opacity:1;fill-rule:nonzero;stroke:#000000;stroke-width:0.99999994;stroke-linecap:butt;stroke-linejoin:round;stroke-miterlimit:4;stroke-dasharray:none;stroke-dashoffset:0;stroke-opacity:1" />
          <circle
             style="opacity:1;fill:none;fill-opacity:1;fill-rule:nonzero;stroke:#000000;stroke-width:0.99999994;stroke-linecap:butt;stroke-linejoin:round;stroke-miterlimit:4;stroke-dasharray:none;stroke-dashoffset:0;stroke-opacity:1"
             id="circle4271"
             cx="951.19055"
             cy="-10.855096"
             r="4.8149605" />
        </g>
      </g>
    </g>
    <g
       id="g4287"
       transform="matrix(-1,0,0,-1,816.69229,501.60198)">
      <circle
         r="4.8149605"
         cy="-27.521765"
         cx="784.22632"
         id="circle4289"
         style="opacity:1;fill:none;fill-opacity:1;fill-rule:nonzero;stroke:#000000;stroke-width:0.99999994;stroke-linecap:butt;stroke-linejoin:round;stroke-miterlimit:4;stroke-dasharray:none;stroke-dashoffset:0;stroke-opacity:1" />
      <g
         transform="translate(-223.80952,-82.142857)"
         id="g4291">
        <circle
           r="4.8149605"
           cy="115.33538"
           cx="951.19812"
           id="circle4293"
           style="opacity:1;fill:none;fill-opacity:1;fill-rule:nonzero;stroke:#000000;stroke-width:0.99999994;stroke-linecap:butt;stroke-linejoin:round;stroke-miterlimit:4;stroke-dasharray:none;stroke-dashoffset:0;stroke-opacity:1" />
        <circle
           style="opacity:1;fill:none;fill-opacity:1;fill-rule:nonzero;stroke:#000000;stroke-width:0.99999994;stroke-linecap:butt;stroke-linejoin:round;stroke-miterlimit:4;stroke-dasharray:none;stroke-dashoffset:0;stroke-opacity:1"
           id="circle4295"
           cx="951.19055"
           cy="-10.855096"
           r="4.8149605" />
      </g>
    </g>
    <g
       id="g4297"
       transform="translate(50.227147,442.19137)">
      <path
         inkscape:connector-curvature="0"
         id="path4299"
         d="m 699.38041,-71.556174 0,176.164064 108.42381,0 a 371.54724,371.54724 0 0 0 11.0488,-88.082037 371.54724,371.54724 0 0 0 -11.0019,-88.082027 l -108.47071,0 z"
         style="opacity:1;fill:#ffffff;fill-opacity:1;fill-rule:nonzero;stroke:#000000;stroke-width:1;stroke-linecap:butt;stroke-linejoin:round;stroke-miterlimit:4;stroke-dasharray:none;stroke-dashoffset:0;stroke-opacity:1" />
      <g
         transform="translate(-0.4285714,46.428571)"
         id="g4301">
        <circle
           style="opacity:1;fill:none;fill-opacity:1;fill-rule:nonzero;stroke:#000000;stroke-width:0.99999994;stroke-linecap:butt;stroke-linejoin:round;stroke-miterlimit:4;stroke-dasharray:none;stroke-dashoffset:0;stroke-opacity:1"
           id="circle4303"
           cx="784.22632"
           cy="-27.521765"
           r="4.8149605" />
        <g
           id="g4305"
           transform="translate(-223.80952,-82.142857)">
          <circle
             style="opacity:1;fill:none;fill-opacity:1;fill-rule:nonzero;stroke:#000000;stroke-width:0.99999994;stroke-linecap:butt;stroke-linejoin:round;stroke-miterlimit:4;stroke-dasharray:none;stroke-dashoffset:0;stroke-opacity:1"
             id="circle4307"
             cx="951.19812"
             cy="115.33538"
             r="4.8149605" />
          <circle
             r="4.8149605"
             cy="-10.855096"
             cx="951.19055"
             id="circle4309"
             style="opacity:1;fill:none;fill-opacity:1;fill-rule:nonzero;stroke:#000000;stroke-width:0.99999994;stroke-linecap:butt;stroke-linejoin:round;stroke-miterlimit:4;stroke-dasharray:none;stroke-dashoffset:0;stroke-opacity:1" />
        </g>
      </g>
    </g>
    <g
       transform="translate(50.25469,619.15633)"
       id="g4311">
      <path
         style="opacity:1;fill:#ffffff;fill-opacity:1;fill-rule:nonzero;stroke:#000000;stroke-width:1;stroke-linecap:butt;stroke-linejoin:round;stroke-miterlimit:4;stroke-dasharray:none;stroke-dashoffset:0;stroke-opacity:1"
         d="m 699.38041,-71.556174 0,176.164064 108.42381,0 a 371.54724,371.54724 0 0 0 11.0488,-88.082037 371.54724,371.54724 0 0 0 -11.0019,-88.082027 l -108.47071,0 z"
         id="path4313"
         inkscape:connector-curvature="0" />
      <g
         id="g4315"
         transform="translate(-0.4285714,46.428571)">
        <circle
           r="4.8149605"
           cy="-27.521765"
           cx="784.22632"
           id="circle4317"
           style="opacity:1;fill:none;fill-opacity:1;fill-rule:nonzero;stroke:#000000;stroke-width:0.99999994;stroke-linecap:butt;stroke-linejoin:round;stroke-miterlimit:4;stroke-dasharray:none;stroke-dashoffset:0;stroke-opacity:1" />
        <g
           transform="translate(-223.80952,-82.142857)"
           id="g4319">
          <circle
             r="4.8149605"
             cy="115.33538"
             cx="951.19812"
             id="circle4321"
             style="opacity:1;fill:none;fill-opacity:1;fill-rule:nonzero;stroke:#000000;stroke-width:0.99999994;stroke-linecap:butt;stroke-linejoin:round;stroke-miterlimit:4;stroke-dasharray:none;stroke-dashoffset:0;stroke-opacity:1" />
          <circle
             style="opacity:1;fill:none;fill-opacity:1;fill-rule:nonzero;stroke:#000000;stroke-width:0.99999994;stroke-linecap:butt;stroke-linejoin:round;stroke-miterlimit:4;stroke-dasharray:none;stroke-dashoffset:0;stroke-opacity:1"
             id="circle4323"
             cx="951.19055"
             cy="-10.855096"
             r="4.8149605" />
        </g>
      </g>
    </g>
    <g
       id="g4325"
       transform="translate(50.339714,796.12128)">
      <path
         inkscape:connector-curvature="0"
         id="path4327"
         d="m 699.38041,-71.556174 0,176.164064 108.42381,0 a 371.54724,371.54724 0 0 0 11.0488,-88.082037 371.54724,371.54724 0 0 0 -11.0019,-88.082027 l -108.47071,0 z"
         style="opacity:1;fill:#ffffff;fill-opacity:1;fill-rule:nonzero;stroke:#000000;stroke-width:1;stroke-linecap:butt;stroke-linejoin:round;stroke-miterlimit:4;stroke-dasharray:none;stroke-dashoffset:0;stroke-opacity:1" />
      <g
         transform="translate(-0.4285714,46.428571)"
         id="g4329">
        <circle
           style="opacity:1;fill:none;fill-opacity:1;fill-rule:nonzero;stroke:#000000;stroke-width:0.99999994;stroke-linecap:butt;stroke-linejoin:round;stroke-miterlimit:4;stroke-dasharray:none;stroke-dashoffset:0;stroke-opacity:1"
           id="circle4331"
           cx="784.22632"
           cy="-27.521765"
           r="4.8149605" />
        <g
           id="g4333"
           transform="translate(-223.80952,-82.142857)">
          <circle
             style="opacity:1;fill:none;fill-opacity:1;fill-rule:nonzero;stroke:#000000;stroke-width:0.99999994;stroke-linecap:butt;stroke-linejoin:round;stroke-miterlimit:4;stroke-dasharray:none;stroke-dashoffset:0;stroke-opacity:1"
             id="circle4335"
             cx="951.19812"
             cy="115.33538"
             r="4.8149605" />
          <circle
             r="4.8149605"
             cy="-10.855096"
             cx="951.19055"
             id="circle4337"
             style="opacity:1;fill:none;fill-opacity:1;fill-rule:nonzero;stroke:#000000;stroke-width:0.99999994;stroke-linecap:butt;stroke-linejoin:round;stroke-miterlimit:4;stroke-dasharray:none;stroke-dashoffset:0;stroke-opacity:1" />
        </g>
      </g>
    </g>
    <g
       style="fill:none"
       transform="translate(-77.735801,561.50913)"
       id="g4284">
      <circle
         style="opacity:1;fill:none;fill-opacity:1;fill-rule:nonzero;stroke:#000000;stroke-width:0.99999994;stroke-linecap:butt;stroke-linejoin:round;stroke-miterlimit:4;stroke-dasharray:none;stroke-dashoffset:0;stroke-opacity:1"
         id="circle4286"
         cx="784.22632"
         cy="-27.521765"
         r="4.8149605" />
      <g
         style="fill:none"
         id="g4288"
         transform="translate(-223.80952,-82.142857)">
        <circle
           style="opacity:1;fill:none;fill-opacity:1;fill-rule:nonzero;stroke:#000000;stroke-width:0.99999994;stroke-linecap:butt;stroke-linejoin:round;stroke-miterlimit:4;stroke-dasharray:none;stroke-dashoffset:0;stroke-opacity:1"
           id="circle4290"
           cx="951.19812"
           cy="115.33538"
           r="4.8149605" />
        <circle
           r="4.8149605"
           cy="-10.855096"
           cx="951.19055"
           id="circle4292"
           style="opacity:1;fill:none;fill-opacity:1;fill-rule:nonzero;stroke:#000000;stroke-width:0.99999994;stroke-linecap:butt;stroke-linejoin:round;stroke-miterlimit:4;stroke-dasharray:none;stroke-dashoffset:0;stroke-opacity:1" />
      </g>
    </g>
    <g
       id="g4308"
       transform="matrix(0.00302883,0.99999541,-0.99999541,0.00302883,500.11864,-745.51348)">
      <g
         style="fill:none"
         transform="translate(829.96966,166.18739)"
         id="g4312">
        <circle
           style="opacity:1;fill:none;fill-opacity:1;fill-rule:nonzero;stroke:#000000;stroke-width:0.99999994;stroke-linecap:butt;stroke-linejoin:round;stroke-miterlimit:4;stroke-dasharray:none;stroke-dashoffset:0;stroke-opacity:1"
           id="circle4314"
           cx="784.22632"
           cy="-27.521765"
           r="4.8149605" />
        <g
           style="fill:none"
           id="g4316"
           transform="translate(-223.80952,-82.142857)">
          <circle
             style="opacity:1;fill:none;fill-opacity:1;fill-rule:nonzero;stroke:#000000;stroke-width:0.99999994;stroke-linecap:butt;stroke-linejoin:round;stroke-miterlimit:4;stroke-dasharray:none;stroke-dashoffset:0;stroke-opacity:1"
             id="circle4318"
             cx="951.19812"
             cy="115.33538"
             r="4.8149605" />
          <circle
             r="4.8149605"
             cy="-10.855096"
             cx="951.19055"
             id="circle4320"
             style="opacity:1;fill:none;fill-opacity:1;fill-rule:nonzero;stroke:#000000;stroke-width:0.99999994;stroke-linecap:butt;stroke-linejoin:round;stroke-miterlimit:4;stroke-dasharray:none;stroke-dashoffset:0;stroke-opacity:1" />
        </g>
      </g>
    </g>
  </g>
</svg>
