<?xml version="1.0" encoding="UTF-8" standalone="no"?>
<!-- Created with Inkscape (http://www.inkscape.org/) -->

<svg
   xmlns:dc="http://purl.org/dc/elements/1.1/"
   xmlns:cc="http://creativecommons.org/ns#"
   xmlns:rdf="http://www.w3.org/1999/02/22-rdf-syntax-ns#"
   xmlns:svg="http://www.w3.org/2000/svg"
   xmlns="http://www.w3.org/2000/svg"
   xmlns:sodipodi="http://sodipodi.sourceforge.net/DTD/sodipodi-0.dtd"
   xmlns:inkscape="http://www.inkscape.org/namespaces/inkscape"
   width="210mm"
   height="210mm"
   viewBox="0 0 744.09449 744.09448"
   id="svg2"
   version="1.1"
   inkscape:version="0.91 r13725"
   sodipodi:docname="Alien_Intermedio_Base_03.svg">
  <defs
     id="defs4">
    <marker
       orient="auto"
       id="DistanceX"
       style="overflow:visible"
       refX="0"
       refY="0">
      <path
         inkscape:connector-curvature="0"
         id="path3343"
         d="M 3,-3 -3,3 M 0,-5 0,5"
         style="stroke:#000000;stroke-width:0.5" />
    </marker>
    <pattern
       id="Hatch"
       x="0"
       y="0"
       patternUnits="userSpaceOnUse"
       width="8"
       height="8">
      <path
         id="path3346"
         d="M8 4 l-4,4"
         stroke-width="0.25"
         stroke="#000000"
         linecap="square" />
      <path
         id="path3348"
         d="M6 2 l-4,4"
         stroke-width="0.25"
         stroke="#000000"
         linecap="square" />
      <path
         id="path3350"
         d="M4 0 l-4,4"
         stroke-width="0.25"
         stroke="#000000"
         linecap="square" />
    </pattern>
    <symbol
       id="*MODEL_SPACE" />
    <symbol
       id="*PAPER_SPACE" />
    <marker
       orient="auto"
       id="DistanceX-3"
       style="overflow:visible"
       refX="0"
       refY="0">
      <path
         inkscape:connector-curvature="0"
         id="path3343-3"
         d="M 3,-3 -3,3 M 0,-5 0,5"
         style="stroke:#000000;stroke-width:0.5" />
    </marker>
    <pattern
       id="Hatch-6"
       x="0"
       y="0"
       patternUnits="userSpaceOnUse"
       width="8"
       height="8">
      <path
         id="path3346-0"
         d="M8 4 l-4,4"
         stroke-width="0.25"
         stroke="#000000"
         linecap="square" />
      <path
         id="path3348-4"
         d="M6 2 l-4,4"
         stroke-width="0.25"
         stroke="#000000"
         linecap="square" />
      <path
         id="path3350-6"
         d="M4 0 l-4,4"
         stroke-width="0.25"
         stroke="#000000"
         linecap="square" />
    </pattern>
    <symbol
       id="*MODEL_SPACE-9" />
    <symbol
       id="*PAPER_SPACE-7" />
    <inkscape:perspective
       id="perspective4294"
       inkscape:persp3d-origin="372.04724 : 248.03149 : 1"
       inkscape:vp_z="744.09449 : 372.04724 : 1"
       inkscape:vp_y="0 : 1000 : 0"
       inkscape:vp_x="0 : 372.04724 : 1"
       sodipodi:type="inkscape:persp3d" />
    <inkscape:perspective
       sodipodi:type="inkscape:persp3d"
       inkscape:vp_x="0 : 372.04724 : 1"
       inkscape:vp_y="0 : 1000 : 0"
       inkscape:vp_z="744.09449 : 372.04724 : 1"
       inkscape:persp3d-origin="372.04724 : 248.03149 : 1"
       id="perspective4294-6" />
    <marker
       orient="auto"
       id="DistanceX-5"
       style="overflow:visible"
       refX="0"
       refY="0">
      <path
         inkscape:connector-curvature="0"
         id="path3343-1"
         d="M 3,-3 -3,3 M 0,-5 0,5"
         style="stroke:#000000;stroke-width:0.5" />
    </marker>
    <pattern
       id="Hatch-1"
       x="0"
       y="0"
       patternUnits="userSpaceOnUse"
       width="8"
       height="8">
      <path
         id="path3346-1"
         d="M8 4 l-4,4"
         stroke-width="0.25"
         stroke="#000000"
         linecap="square" />
      <path
         id="path3348-7"
         d="M6 2 l-4,4"
         stroke-width="0.25"
         stroke="#000000"
         linecap="square" />
      <path
         id="path3350-0"
         d="M4 0 l-4,4"
         stroke-width="0.25"
         stroke="#000000"
         linecap="square" />
    </pattern>
    <symbol
       id="*MODEL_SPACE-1" />
    <symbol
       id="*PAPER_SPACE-9" />
  </defs>
  <sodipodi:namedview
     id="base"
     pagecolor="#ffffff"
     bordercolor="#666666"
     borderopacity="1.0"
     inkscape:pageopacity="0.0"
     inkscape:pageshadow="2"
     inkscape:zoom="0.86772068"
     inkscape:cx="430.6993"
     inkscape:cy="367.89428"
     inkscape:document-units="px"
     inkscape:current-layer="layer1"
     showgrid="false"
     fit-margin-top="0"
     fit-margin-left="0"
     fit-margin-right="0"
     fit-margin-bottom="0"
     inkscape:window-width="1920"
     inkscape:window-height="1017"
     inkscape:window-x="-8"
     inkscape:window-y="-8"
     inkscape:window-maximized="1"
     showguides="true"
     inkscape:guide-bbox="true" />
  <metadata
     id="metadata7">
    <rdf:RDF>
      <cc:Work
         rdf:about="">
        <dc:format>image/svg+xml</dc:format>
        <dc:type
           rdf:resource="http://purl.org/dc/dcmitype/StillImage" />
        <dc:title></dc:title>
      </cc:Work>
    </rdf:RDF>
  </metadata>
  <g
     inkscape:label="Capa 1"
     inkscape:groupmode="layer"
     id="layer1"
     transform="translate(3.3571472,-160.19629)">
    <g
       id="g12636"
       transform="translate(781.28841,0)">
      <path
         inkscape:connector-curvature="0"
         style="fill:none;stroke:#000000"
         d="m -623.40134,423.72514 c -0.1776,1.13908 -0.3552,2.27816 -0.8822,3.2613 -0.51138,0.95398 -1.35174,1.76113 -2.31812,2.31811 -0.99592,0.57401 -2.12568,0.88233 -3.2613,0.8822 -1.13562,-1.2e-4 -2.2771,-0.30868 -3.2613,-0.8822 -0.955,-0.5565 -1.7619,-1.36247 -2.31811,-2.31811 -0.57321,-0.98485 -0.88015,-2.12867 -0.8822,-3.2613 -10e-4,-0.56706 0.0744,-1.13132 0.22137,-1.67694 0.14579,-0.5411 0.362,-1.06387 0.64195,-1.5498 0.28229,-0.48998 0.62939,-0.94251 1.02924,-1.34231 0.39985,-0.3998 0.85245,-0.74687 1.34231,-1.02924 0.48581,-0.28003 1.00828,-0.49643 1.5498,-0.64195 0.54605,-0.14673 1.11148,-0.22138 1.67694,-0.22138 0.56546,0 1.13095,0.0746 1.67694,0.22138 0.54147,0.14552 1.06377,0.36192 1.5498,0.64195 0.49009,0.28236 0.94331,0.62941 1.34231,1.02924 0.39901,0.39983 0.74379,0.85244 1.02924,1.34231 0.28309,0.48582 0.50784,1.00827 0.64195,1.5498 0.13523,0.54605 0.1783,1.1115 0.22138,1.67694"
         id="path10956" />
      <path
         inkscape:connector-curvature="0"
         style="fill:none;stroke:#000000"
         d="m -186.80053,639.74426 c -0.1776,1.13908 -0.3552,2.27816 -0.8822,3.2613 -0.51138,0.95398 -1.35174,1.76113 -2.31812,2.31811 -0.99592,0.57401 -2.12568,0.88233 -3.2613,0.8822 -1.13562,-1.2e-4 -2.2771,-0.30868 -3.2613,-0.8822 -0.955,-0.5565 -1.7619,-1.36247 -2.31811,-2.31811 -0.57321,-0.98485 -0.88015,-2.12867 -0.8822,-3.2613 -0.001,-0.56706 0.0744,-1.13132 0.22137,-1.67694 0.14579,-0.5411 0.362,-1.06387 0.64195,-1.5498 0.28229,-0.48998 0.62939,-0.94251 1.02924,-1.34231 0.39985,-0.3998 0.85245,-0.74687 1.34231,-1.02924 0.48581,-0.28003 1.00828,-0.49643 1.5498,-0.64195 0.54605,-0.14673 1.11148,-0.22138 1.67694,-0.22138 0.56546,0 1.13095,0.0746 1.67694,0.22138 0.54147,0.14552 1.06377,0.36192 1.5498,0.64195 0.49009,0.28236 0.94331,0.62941 1.34231,1.02924 0.39901,0.39983 0.74379,0.85244 1.02924,1.34231 0.28309,0.48582 0.50784,1.00827 0.64195,1.5498 0.13523,0.54605 0.1783,1.1115 0.22138,1.67694"
         id="path10958" />
      <path
         id="path10960"
         d="m -186.80053,423.72514 c -0.1776,1.13908 -0.3552,2.27816 -0.8822,3.2613 -0.51138,0.95398 -1.35174,1.76113 -2.31812,2.31811 -0.99592,0.57401 -2.12568,0.88233 -3.2613,0.8822 -1.13562,-1.2e-4 -2.2771,-0.30868 -3.2613,-0.8822 -0.955,-0.5565 -1.7619,-1.36247 -2.31811,-2.31811 -0.57321,-0.98485 -0.88015,-2.12867 -0.8822,-3.2613 -0.001,-0.56706 0.0744,-1.13132 0.22137,-1.67694 0.14579,-0.5411 0.362,-1.06387 0.64195,-1.5498 0.28229,-0.48998 0.62939,-0.94251 1.02924,-1.34231 0.39985,-0.3998 0.85245,-0.74687 1.34231,-1.02924 0.48581,-0.28003 1.00828,-0.49643 1.5498,-0.64195 0.54605,-0.14673 1.11148,-0.22138 1.67694,-0.22138 0.56546,0 1.13095,0.0746 1.67694,0.22138 0.54147,0.14552 1.06377,0.36192 1.5498,0.64195 0.49009,0.28236 0.94331,0.62941 1.34231,1.02924 0.39901,0.39983 0.74379,0.85244 1.02924,1.34231 0.28309,0.48582 0.50784,1.00827 0.64195,1.5498 0.13523,0.54605 0.1783,1.1115 0.22138,1.67694"
         style="fill:none;stroke:#000000"
         inkscape:connector-curvature="0" />
      <path
         id="path10962"
         d="m -624.65324,639.74426 c -0.1776,1.13908 -0.3552,2.27816 -0.8822,3.2613 -0.51138,0.95398 -1.35174,1.76113 -2.31812,2.31811 -0.99592,0.57401 -2.12568,0.88233 -3.2613,0.8822 -1.13562,-1.2e-4 -2.2771,-0.30868 -3.2613,-0.8822 -0.955,-0.5565 -1.7619,-1.36247 -2.31811,-2.31811 -0.57321,-0.98485 -0.88015,-2.12867 -0.8822,-3.2613 -10e-4,-0.56706 0.0744,-1.13132 0.22137,-1.67694 0.14579,-0.5411 0.362,-1.06387 0.64195,-1.5498 0.28229,-0.48998 0.62939,-0.94251 1.02924,-1.34231 0.39985,-0.3998 0.85245,-0.74687 1.34231,-1.02924 0.48581,-0.28003 1.00828,-0.49643 1.5498,-0.64195 0.54605,-0.14673 1.11148,-0.22138 1.67694,-0.22138 0.56546,0 1.13095,0.0746 1.67694,0.22138 0.54147,0.14552 1.06377,0.36192 1.5498,0.64195 0.49009,0.28236 0.94331,0.62941 1.34231,1.02924 0.39901,0.39983 0.74379,0.85244 1.02924,1.34231 0.28309,0.48582 0.50784,1.00827 0.64195,1.5498 0.13523,0.54605 0.1783,1.1115 0.22138,1.67694"
         style="fill:none;stroke:#000000"
         inkscape:connector-curvature="0" />
      <path
         id="path10964"
         d="m -505.68124,730.89589 c -0.1776,1.13908 -0.3552,2.27816 -0.8822,3.2613 -0.51138,0.95398 -1.35174,1.76113 -2.31812,2.31811 -0.99592,0.57401 -2.12568,0.88233 -3.2613,0.8822 -1.13562,-1.2e-4 -2.2771,-0.30868 -3.2613,-0.8822 -0.955,-0.5565 -1.7619,-1.36247 -2.31811,-2.31811 -0.57321,-0.98485 -0.88015,-2.12867 -0.8822,-3.2613 -10e-4,-0.56706 0.0744,-1.13132 0.22137,-1.67694 0.14579,-0.5411 0.362,-1.06387 0.64195,-1.5498 0.28229,-0.48998 0.62939,-0.94251 1.02924,-1.34231 0.39985,-0.3998 0.85245,-0.74687 1.34231,-1.02924 0.48581,-0.28003 1.00828,-0.49643 1.5498,-0.64195 0.54605,-0.14673 1.11148,-0.22138 1.67694,-0.22138 0.56546,0 1.13095,0.0746 1.67694,0.22138 0.54147,0.14552 1.06377,0.36192 1.5498,0.64195 0.49009,0.28236 0.94331,0.62941 1.34231,1.02924 0.39901,0.39983 0.74379,0.85244 1.02924,1.34231 0.28309,0.48582 0.50784,1.00827 0.64195,1.5498 0.13523,0.54605 0.1783,1.1115 0.22138,1.67694"
         style="fill:none;stroke:#000000"
         inkscape:connector-curvature="0" />
      <path
         inkscape:connector-curvature="0"
         style="fill:none;stroke:#000000"
         d="m -306.66342,730.89589 c -0.1776,1.13908 -0.3552,2.27816 -0.8822,3.2613 -0.51138,0.95398 -1.35174,1.76113 -2.31812,2.31811 -0.99592,0.57401 -2.12568,0.88233 -3.2613,0.8822 -1.13562,-1.2e-4 -2.2771,-0.30868 -3.2613,-0.8822 -0.955,-0.5565 -1.7619,-1.36247 -2.31811,-2.31811 -0.57321,-0.98485 -0.88015,-2.12867 -0.8822,-3.2613 -10e-4,-0.56706 0.0744,-1.13132 0.22137,-1.67694 0.14579,-0.5411 0.362,-1.06387 0.64195,-1.5498 0.28229,-0.48998 0.62939,-0.94251 1.02924,-1.34231 0.39985,-0.3998 0.85245,-0.74687 1.34231,-1.02924 0.48581,-0.28003 1.00828,-0.49643 1.5498,-0.64195 0.54605,-0.14673 1.11148,-0.22138 1.67694,-0.22138 0.56546,0 1.13095,0.0746 1.67694,0.22138 0.54147,0.14552 1.06377,0.36192 1.5498,0.64195 0.49009,0.28236 0.94331,0.62941 1.34231,1.02924 0.39901,0.39983 0.74379,0.85244 1.02924,1.34231 0.28309,0.48582 0.50784,1.00827 0.64195,1.5498 0.13523,0.54605 0.1783,1.1115 0.22138,1.67694"
         id="path10966" />
      <path
         inkscape:connector-curvature="0"
         style="fill:none;stroke:#000000"
         d="m -505.68124,314.89589 c -0.1776,1.13908 -0.3552,2.27816 -0.8822,3.2613 -0.51138,0.95398 -1.35174,1.76113 -2.31812,2.31811 -0.99592,0.57401 -2.12568,0.88233 -3.2613,0.8822 -1.13562,-1.2e-4 -2.2771,-0.30868 -3.2613,-0.8822 -0.955,-0.5565 -1.7619,-1.36247 -2.31811,-2.31811 -0.57321,-0.98485 -0.88015,-2.12867 -0.8822,-3.2613 -10e-4,-0.56706 0.0744,-1.13132 0.22137,-1.67694 0.14579,-0.5411 0.362,-1.06387 0.64195,-1.5498 0.28229,-0.48998 0.62939,-0.94251 1.02924,-1.34231 0.39985,-0.3998 0.85245,-0.74687 1.34231,-1.02924 0.48581,-0.28003 1.00828,-0.49643 1.5498,-0.64195 0.54605,-0.14673 1.11148,-0.22138 1.67694,-0.22138 0.56546,0 1.13095,0.0746 1.67694,0.22138 0.54147,0.14552 1.06377,0.36192 1.5498,0.64195 0.49009,0.28236 0.94331,0.62941 1.34231,1.02924 0.39901,0.39983 0.74379,0.85244 1.02924,1.34231 0.28309,0.48582 0.50784,1.00827 0.64195,1.5498 0.13523,0.54605 0.1783,1.1115 0.22138,1.67694"
         id="path10968" />
      <path
         id="path10970"
         d="m -306.66342,314.89589 c -0.1776,1.13908 -0.3552,2.27816 -0.8822,3.2613 -0.51138,0.95398 -1.35174,1.76113 -2.31812,2.31811 -0.99592,0.57401 -2.12568,0.88233 -3.2613,0.8822 -1.13562,-1.2e-4 -2.2771,-0.30868 -3.2613,-0.8822 -0.955,-0.5565 -1.7619,-1.36247 -2.31811,-2.31811 -0.57321,-0.98485 -0.88015,-2.12867 -0.8822,-3.2613 -10e-4,-0.56706 0.0744,-1.13132 0.22137,-1.67694 0.14579,-0.5411 0.362,-1.06387 0.64195,-1.5498 0.28229,-0.48998 0.62939,-0.94251 1.02924,-1.34231 0.39985,-0.3998 0.85245,-0.74687 1.34231,-1.02924 0.48581,-0.28003 1.00828,-0.49643 1.5498,-0.64195 0.54605,-0.14673 1.11148,-0.22138 1.67694,-0.22138 0.56546,0 1.13095,0.0746 1.67694,0.22138 0.54147,0.14552 1.06377,0.36192 1.5498,0.64195 0.49009,0.28236 0.94331,0.62941 1.34231,1.02924 0.39901,0.39983 0.74379,0.85244 1.02924,1.34231 0.28309,0.48582 0.50784,1.00827 0.64195,1.5498 0.13523,0.54605 0.1783,1.1115 0.22138,1.67694"
         style="fill:none;stroke:#000000"
         inkscape:connector-curvature="0" />
    </g>
    <g
       id="g4190"
       transform="translate(1.2766,2.7343754e-7)">
      <g
         id="g4180">
        <path
           inkscape:connector-curvature="0"
           style="opacity:1;fill:none;fill-opacity:1;stroke:#000000;stroke-width:1.25;stroke-linecap:round;stroke-linejoin:round;stroke-miterlimit:10;stroke-dasharray:none;stroke-dashoffset:0;stroke-opacity:1"
           d="m 53.875104,388.09461 a 6.4616141,6.4616141 0 0 1 -6.46161,6.46161 6.4616141,6.4616141 0 0 1 -6.46161,-6.46161 6.4616141,6.4616141 0 0 1 6.46161,-6.46162 6.4616141,6.4616141 0 0 1 6.46161,6.46162 z"
           id="circle4682" />
        <path
           inkscape:connector-curvature="0"
           style="opacity:1;fill:none;fill-opacity:1;stroke:#000000;stroke-width:1.25;stroke-linecap:round;stroke-linejoin:round;stroke-miterlimit:10;stroke-dasharray:none;stroke-dashoffset:0;stroke-opacity:1"
           d="m 53.875104,676.39246 a 6.4616141,6.4616141 0 0 1 -6.46161,6.46161 6.4616141,6.4616141 0 0 1 -6.46161,-6.46161 6.4616141,6.4616141 0 0 1 6.46161,-6.46162 6.4616141,6.4616141 0 0 1 6.46161,6.46162 z"
           id="circle4684" />
      </g>
      <g
         transform="translate(640,0)"
         id="g4184">
        <path
           id="path4186"
           d="m 53.875104,388.09461 a 6.4616141,6.4616141 0 0 1 -6.46161,6.46161 6.4616141,6.4616141 0 0 1 -6.46161,-6.46161 6.4616141,6.4616141 0 0 1 6.46161,-6.46162 6.4616141,6.4616141 0 0 1 6.46161,6.46162 z"
           style="opacity:1;fill:none;fill-opacity:1;stroke:#000000;stroke-width:1.25;stroke-linecap:round;stroke-linejoin:round;stroke-miterlimit:10;stroke-dasharray:none;stroke-dashoffset:0;stroke-opacity:1"
           inkscape:connector-curvature="0" />
        <path
           id="path4188"
           d="m 53.875104,676.39246 a 6.4616141,6.4616141 0 0 1 -6.46161,6.46161 6.4616141,6.4616141 0 0 1 -6.46161,-6.46161 6.4616141,6.4616141 0 0 1 6.46161,-6.46162 6.4616141,6.4616141 0 0 1 6.46161,6.46162 z"
           style="opacity:1;fill:none;fill-opacity:1;stroke:#000000;stroke-width:1.25;stroke-linecap:round;stroke-linejoin:round;stroke-miterlimit:10;stroke-dasharray:none;stroke-dashoffset:0;stroke-opacity:1"
           inkscape:connector-curvature="0" />
      </g>
    </g>
    <path
       style="opacity:1;fill:none;fill-opacity:1;fill-rule:nonzero;stroke:#000000;stroke-width:1.25;stroke-linecap:butt;stroke-linejoin:round;stroke-miterlimit:4;stroke-dasharray:none;stroke-dashoffset:0;stroke-opacity:1"
       d="m 740.11234,532.24353 c 0,49.66127 -9.74638,97.04615 -27.4307,140.34619 -20.91649,51.214 -52.93771,96.71353 -93.07135,133.50627 -31.77951,29.13404 -68.64563,52.8088 -109.11267,69.5386 -43.6944,18.06404 -91.58699,28.03118 -141.80753,28.03118 -53.27251,0 -103.92553,-11.21539 -149.7267,-31.41381 C 169.7421,850.54527 126.12433,818.46387 90.880774,778.77848 62.632214,746.96968 39.7636,710.27577 23.701666,670.12348 6.6483132,627.4928 -2.7321472,580.96363 -2.7321472,532.24353 c 0,-29.10495 3.34766188,-57.42801 9.6789414,-84.60514 C 21.596325,384.75502 52.219631,328.00678 94.306981,281.9034 125.76733,247.44106 163.63331,218.92663 206.02132,198.24369 c 49.12632,-23.97085 104.32665,-37.4224 162.66877,-37.4224 64.7762,0 125.67944,16.58207 178.69646,45.73293 44.50894,24.47278 83.45968,57.804 114.47761,97.61903 26.03725,33.42178 46.48475,71.41229 59.93792,112.56696 11.8841,36.35472 18.31026,75.17857 18.31026,115.50332 z"
       id="path4150"
       inkscape:connector-curvature="0"
       sodipodi:nodetypes="sssssssssssssssss" />
    <path
       id="path8424"
       d="m 240.07305,855.08909 a 6.4616141,6.4616141 0 0 1 -6.46161,6.46161 6.4616141,6.4616141 0 0 1 -6.46161,-6.46161 6.4616141,6.4616141 0 0 1 6.46161,-6.46162 6.4616141,6.4616141 0 0 1 6.46161,6.46162 z"
       style="opacity:1;fill:none;fill-opacity:1;stroke:#000000;stroke-width:1.25;stroke-linecap:round;stroke-linejoin:round;stroke-miterlimit:10;stroke-dasharray:none;stroke-dashoffset:0;stroke-opacity:1"
       inkscape:connector-curvature="0" />
    <path
       inkscape:connector-curvature="0"
       style="opacity:1;fill:none;fill-opacity:1;stroke:#000000;stroke-width:1.25;stroke-linecap:round;stroke-linejoin:round;stroke-miterlimit:10;stroke-dasharray:none;stroke-dashoffset:0;stroke-opacity:1"
       d="m 508.07305,855.08909 a 6.4616141,6.4616141 0 0 1 -6.46161,6.46161 6.4616141,6.4616141 0 0 1 -6.46161,-6.46161 6.4616141,6.4616141 0 0 1 6.46161,-6.46162 6.4616141,6.4616141 0 0 1 6.46161,6.46162 z"
       id="path8428" />
    <path
       id="path8430"
       d="m 508.07305,209.08909 a 6.4616141,6.4616141 0 0 1 -6.46161,6.46161 6.4616141,6.4616141 0 0 1 -6.46161,-6.46161 6.4616141,6.4616141 0 0 1 6.46161,-6.46162 6.4616141,6.4616141 0 0 1 6.46161,6.46162 z"
       style="opacity:1;fill:none;fill-opacity:1;stroke:#000000;stroke-width:1.25;stroke-linecap:round;stroke-linejoin:round;stroke-miterlimit:10;stroke-dasharray:none;stroke-dashoffset:0;stroke-opacity:1"
       inkscape:connector-curvature="0" />
    <path
       inkscape:connector-curvature="0"
       style="opacity:1;fill:none;fill-opacity:1;stroke:#000000;stroke-width:1.25;stroke-linecap:round;stroke-linejoin:round;stroke-miterlimit:10;stroke-dasharray:none;stroke-dashoffset:0;stroke-opacity:1"
       d="m 240.07305,209.08909 a 6.4616141,6.4616141 0 0 1 -6.46161,6.46161 6.4616141,6.4616141 0 0 1 -6.46161,-6.46161 6.4616141,6.4616141 0 0 1 6.46161,-6.46162 6.4616141,6.4616141 0 0 1 6.46161,6.46162 z"
       id="path8432" />
    <g
       id="g4152"
       transform="translate(3.6399414e-4,-102.01605)">
      <path
         inkscape:connector-curvature="0"
         id="rect4190"
         d="m 211.18875,438.71466 0,368.15039 315,0 0,-368.15039 -315,0 z m -70.86523,368.35742 0,6.73242 456.73242,0 0,-6.73242 -456.73242,0 z"
         style="opacity:1;fill:none;fill-opacity:1;stroke:#ff0000;stroke-width:1.25;stroke-linecap:round;stroke-linejoin:round;stroke-miterlimit:10;stroke-dasharray:none;stroke-dashoffset:0;stroke-opacity:1" />
      <g
         transform="translate(246.25948,-112.47706)"
         id="g4212"
         style="stroke:#000000">
        <g
           id="g4208"
           transform="translate(0,-311.81104)"
           style="stroke:#000000">
          <path
             id="path4196"
             d="m 6.6477737,898.97583 a 4.6899605,4.689961 0 0 1 -4.6899604,4.68996 4.6899605,4.689961 0 0 1 -4.6899605,-4.68996 4.6899605,4.689961 0 0 1 4.6899605,-4.68996 4.6899605,4.689961 0 0 1 4.6899604,4.68996 z"
             style="opacity:1;fill:none;fill-opacity:1;stroke:#000000;stroke-width:1.24999988;stroke-linecap:round;stroke-linejoin:round;stroke-miterlimit:10;stroke-dasharray:none;stroke-dashoffset:0;stroke-opacity:1"
             inkscape:connector-curvature="0" />
          <path
             id="ellipse4198"
             d="m 247.59266,898.97583 a 4.6899605,4.689961 0 0 1 -4.68997,4.68996 4.6899605,4.689961 0 0 1 -4.68996,-4.68996 4.6899605,4.689961 0 0 1 4.68996,-4.68996 4.6899605,4.689961 0 0 1 4.68997,4.68996 z"
             style="opacity:1;fill:none;fill-opacity:1;stroke:#000000;stroke-width:1.24999988;stroke-linecap:round;stroke-linejoin:round;stroke-miterlimit:10;stroke-dasharray:none;stroke-dashoffset:0;stroke-opacity:1"
             inkscape:connector-curvature="0" />
        </g>
        <g
           id="g4204"
           transform="translate(35.433067,-1.2786117e-5)"
           style="stroke:#000000">
          <path
             id="ellipse4200"
             d="m 6.6477737,898.97583 a 4.6899605,4.689961 0 0 1 -4.6899604,4.68996 4.6899605,4.689961 0 0 1 -4.6899605,-4.68996 4.6899605,4.689961 0 0 1 4.6899605,-4.68996 4.6899605,4.689961 0 0 1 4.6899604,4.68996 z"
             style="opacity:1;fill:none;fill-opacity:1;stroke:#000000;stroke-width:1.24999988;stroke-linecap:round;stroke-linejoin:round;stroke-miterlimit:10;stroke-dasharray:none;stroke-dashoffset:0;stroke-opacity:1"
             inkscape:connector-curvature="0" />
          <path
             id="ellipse4202"
             d="m 176.72652,898.97583 a 4.6899605,4.689961 0 0 1 -4.68996,4.68996 4.6899605,4.689961 0 0 1 -4.68996,-4.68996 4.6899605,4.689961 0 0 1 4.68996,-4.68996 4.6899605,4.689961 0 0 1 4.68996,4.68996 z"
             style="opacity:1;fill:none;fill-opacity:1;stroke:#000000;stroke-width:1.24999988;stroke-linecap:round;stroke-linejoin:round;stroke-miterlimit:10;stroke-dasharray:none;stroke-dashoffset:0;stroke-opacity:1"
             inkscape:connector-curvature="0" />
        </g>
      </g>
    </g>
    <path
       style="opacity:1;fill:none;fill-opacity:1;fill-rule:nonzero;stroke:#000000;stroke-width:1.25;stroke-linecap:butt;stroke-linejoin:round;stroke-miterlimit:4;stroke-dasharray:none;stroke-dashoffset:0;stroke-opacity:1"
       d="m 301.07068,269.18442 135.23884,0 c 7.4575,0 13.46119,5.84411 13.46119,13.1034 l 0,41.8783 c 0,7.25929 -6.00369,13.1034 -13.46119,13.1034 l -135.23884,0 c -7.4575,0 -13.4612,-5.84411 -13.4612,-13.1034 l 0,-41.8783 c 0,-7.25929 6.0037,-13.1034 13.4612,-13.1034 z"
       id="rect4162"
       inkscape:connector-curvature="0" />
    <g
       inkscape:label="0"
       id="g3354"
       transform="translate(-3.357194,-148.0714)" />
    <path
       id="path3640"
       d="m 243.98461,182.64826 0,0"
       style="fill:none;stroke:#00ff00"
       inkscape:connector-curvature="0" />
    <path
       id="path3652"
       d="m 209.49369,373.50727 0,0"
       style="fill:none;stroke:#00ff00"
       inkscape:connector-curvature="0" />
    <path
       id="path3668"
       d="m 527.98002,372.86947 0,0"
       style="fill:none;stroke:#00ff00"
       inkscape:connector-curvature="0" />
    <path
       id="path3684"
       d="m 527.72849,691.35939 0,0"
       style="fill:none;stroke:#00ff00"
       inkscape:connector-curvature="0" />
    <path
       id="path3700"
       d="m 209.49369,691.73495 0,0"
       style="fill:none;stroke:#00ff00"
       inkscape:connector-curvature="0" />
    <path
       id="path3896"
       d="m 351.23398,375.32416 0,0"
       style="fill:none;stroke:#00ff00"
       inkscape:connector-curvature="0" />
    <path
       id="path3900"
       d="m 395.52532,323.94627 0,0"
       style="fill:none;stroke:#00ff00"
       inkscape:connector-curvature="0" />
    <path
       id="path3904"
       d="m 695.73626,668.04285 0,0"
       style="fill:none;stroke:#00ff00"
       inkscape:connector-curvature="0" />
    <path
       id="path3908"
       d="m 53.183052,390.38331 0,0"
       style="fill:none;stroke:#00ff00"
       inkscape:connector-curvature="0" />
    <path
       id="path3912"
       d="m 53.183052,678.68116 0,0"
       style="fill:none;stroke:#00ff00"
       inkscape:connector-curvature="0" />
    <path
       id="path3916"
       d="m 695.73626,390.38331 0,0"
       style="fill:none;stroke:#00ff00"
       inkscape:connector-curvature="0" />
    <path
       id="path3960"
       d="m 343.7586,284.75272 0,0"
       style="fill:none;stroke:#00ff00"
       inkscape:connector-curvature="0" />
    <g
       transform="translate(-1.8084518,-19.307435)"
       id="g9831">
      <g
         id="g9819">
        <g
           style="font-style:normal;font-weight:normal;font-size:27.5px;line-height:125%;font-family:sans-serif;letter-spacing:0px;word-spacing:0px;fill:none;fill-opacity:1;stroke:#0000ff;stroke-width:1.4228555px;stroke-linecap:butt;stroke-linejoin:miter;stroke-opacity:1"
           id="text4280"
           transform="matrix(0.70637676,0,0,0.69926538,110.17805,90.88456)">
          <path
             d="m 275.20865,201.74443 -6.68945,18.13965 13.40332,0 -6.71387,-18.13965 z m -2.7832,-4.8584 5.59082,0 13.8916,36.4502 -5.12696,0 -3.32031,-9.35059 -16.43066,0 -3.32031,9.35059 -5.2002,0 13.91602,-36.4502 z"
             style="font-size:50px;fill:none;stroke:#0000ff;stroke-width:1.4228555px"
             id="path4331"
             inkscape:connector-curvature="0" />
          <path
             d="m 297.20572,196.88603 4.93164,0 0,32.29981 17.74902,0 0,4.15039 -22.68066,0 0,-36.4502 z"
             style="font-size:50px;fill:none;stroke:#0000ff;stroke-width:1.4228555px"
             id="path4333"
             inkscape:connector-curvature="0" />
          <path
             d="m 325.03775,196.88603 4.93164,0 0,36.4502 -4.93164,0 0,-36.4502 z"
             style="font-size:50px;fill:none;stroke:#0000ff;stroke-width:1.4228555px"
             id="path4335"
             inkscape:connector-curvature="0" />
          <path
             d="m 339.78384,196.88603 23.04688,0 0,4.15039 -18.11524,0 0,10.79102 17.3584,0 0,4.15039 -17.3584,0 0,13.20801 18.55469,0 0,4.15039 -23.48633,0 0,-36.4502 z"
             style="font-size:50px;fill:none;stroke:#0000ff;stroke-width:1.4228555px"
             id="path4337"
             inkscape:connector-curvature="0" />
          <path
             d="m 371.42447,196.88603 6.64062,0 16.16211,30.49317 0,-30.49317 4.78516,0 0,36.4502 -6.64063,0 -16.1621,-30.49317 0,30.49317 -4.78516,0 0,-36.4502 z"
             style="font-size:50px;fill:none;stroke:#0000ff;stroke-width:1.4228555px"
             id="path4339"
             inkscape:connector-curvature="0" />
          <path
             d="m 435.73111,200.1331 q -3.80859,0 -5.73731,3.75977 -1.90429,3.73535 -1.90429,11.25488 0,7.49512 1.90429,11.25488 1.92872,3.73536 5.73731,3.73536 3.83301,0 5.7373,-3.73536 1.92872,-3.75976 1.92872,-11.25488 0,-7.51953 -1.92872,-11.25488 -1.90429,-3.75977 -5.7373,-3.75977 z m 0,-3.90625 q 6.12793,0 9.35059,4.8584 3.24707,4.83399 3.24707,14.0625 0,9.2041 -3.24707,14.0625 -3.22266,4.83399 -9.35059,4.83399 -6.12793,0 -9.375,-4.83399 -3.22266,-4.8584 -3.22266,-14.0625 0,-9.22851 3.22266,-14.0625 3.24707,-4.8584 9.375,-4.8584 z"
             style="font-size:50px;fill:none;stroke:#0000ff;stroke-width:1.4228555px"
             id="path4341"
             inkscape:connector-curvature="0" />
          <path
             d="m 457.87466,229.18584 8.05664,0 0,-27.80762 -8.76464,1.75781 0,-4.49219 8.71582,-1.75781 4.93164,0 0,32.29981 8.05664,0 0,4.15039 -20.9961,0 0,-4.15039 z"
             style="font-size:50px;fill:none;stroke:#0000ff;stroke-width:1.4228555px"
             id="path4343"
             inkscape:connector-curvature="0" />
        </g>
        <g
           style="font-style:normal;font-weight:normal;font-size:27.5px;line-height:125%;font-family:sans-serif;letter-spacing:0px;word-spacing:0px;fill:none;fill-opacity:1;stroke:#0000ff;stroke-width:1px;stroke-linecap:butt;stroke-linejoin:miter;stroke-opacity:1"
           id="text9815">
          <path
             d="m 355.4296,266.3287 2.20459,0 2.79052,7.44141 2.80518,-7.44141 2.20459,0 0,10.93506 -1.44287,0 0,-9.60205 -2.81983,7.5 -1.48681,0 -2.81983,-7.5 0,9.60205 -1.43554,0 0,-10.93506 z"
             style="font-size:15px;fill:none;stroke:#0000ff"
             id="path9913" />
          <path
             d="m 375.33682,272.82529 0,0.65918 -6.19629,0 q 0.0879,1.3916 0.83496,2.12402 0.7544,0.7251 2.09473,0.7251 0.77637,0 1.50147,-0.19043 0.73242,-0.19043 1.45019,-0.57129 l 0,1.27441 q -0.7251,0.30762 -1.48682,0.46875 -0.76171,0.16114 -1.54541,0.16114 -1.96289,0 -3.11279,-1.14258 -1.14258,-1.14258 -1.14258,-3.09082 0,-2.01416 1.08399,-3.19336 1.09131,-1.18653 2.93701,-1.18653 1.65527,0 2.61475,1.06934 0.96679,1.06201 0.96679,2.89307 z m -1.34765,-0.39551 q -0.0147,-1.10596 -0.62256,-1.76514 -0.60059,-0.65918 -1.59668,-0.65918 -1.12793,0 -1.80908,0.63721 -0.67383,0.63721 -0.77637,1.79443 l 4.80469,-0.007 z"
             style="font-size:15px;fill:none;stroke:#0000ff"
             id="path9915" />
          <path
             d="m 382.94669,270.30576 0,-4.43848 1.34765,0 0,11.39648 -1.34765,0 0,-1.23047 q -0.42481,0.73243 -1.07666,1.09131 -0.64454,0.35157 -1.55274,0.35157 -1.48682,0 -2.42432,-1.18653 -0.93017,-1.18652 -0.93017,-3.12011 0,-1.9336 0.93017,-3.12012 0.9375,-1.18653 2.42432,-1.18653 0.9082,0 1.55274,0.35889 0.65185,0.35156 1.07666,1.08399 z m -4.59229,2.86377 q 0,1.48681 0.60791,2.33642 0.61524,0.84229 1.68457,0.84229 1.06934,0 1.68457,-0.84229 0.61524,-0.84961 0.61524,-2.33642 0,-1.48682 -0.61524,-2.32911 -0.61523,-0.84961 -1.68457,-0.84961 -1.06933,0 -1.68457,0.84961 -0.60791,0.84229 -0.60791,2.32911 z"
             style="font-size:15px;fill:none;stroke:#0000ff"
             id="path9917" />
        </g>
      </g>
    </g>
    <text
       xml:space="preserve"
       style="font-style:normal;font-variant:normal;font-weight:normal;font-stretch:normal;font-size:25px;line-height:586.99998856%;font-family:Calibri;-inkscape-font-specification:Calibri;text-align:start;letter-spacing:0px;word-spacing:0px;writing-mode:lr-tb;text-anchor:start;fill:#000000;fill-opacity:1;stroke:none;stroke-width:1px;stroke-linecap:butt;stroke-linejoin:miter;stroke-opacity:1"
       x="-724.59009"
       y="126.98343"
       id="text5053"
       sodipodi:linespacing="586.99999%"><tspan
         sodipodi:role="line"
         id="tspan5055"
         x="-724.59009"
         y="126.98343" /></text>
    <g
       style="display:inline"
       id="g4563"
       transform="translate(-3.3571472,160.19629)">
      <path
         inkscape:connector-curvature="0"
         id="path4258-2"
         d="m 660.58408,533.46804 a 4.6899605,4.6899605 0 0 1 4.68996,-4.68996 4.6899605,4.6899605 0 0 1 4.68996,4.68996 4.6899605,4.6899605 0 0 1 -4.68996,4.68996 4.6899605,4.6899605 0 0 1 -4.68996,-4.68996 z"
         style="opacity:1;fill:none;fill-opacity:1;fill-rule:nonzero;stroke:#000000;stroke-width:1.25;stroke-linecap:butt;stroke-linejoin:round;stroke-miterlimit:4;stroke-dasharray:none;stroke-dashoffset:0;stroke-opacity:1" />
      <path
         inkscape:connector-curvature="0"
         id="circle4260-5"
         d="m 653.49676,210.55615 a 4.6899605,4.6899605 0 0 1 4.68996,-4.68996 4.6899605,4.6899605 0 0 1 4.68996,4.68996 4.6899605,4.6899605 0 0 1 -4.68996,4.68996 4.6899605,4.6899605 0 0 1 -4.68996,-4.68996 z"
         style="opacity:1;fill:none;fill-opacity:1;fill-rule:nonzero;stroke:#000000;stroke-width:1.25;stroke-linecap:butt;stroke-linejoin:round;stroke-miterlimit:4;stroke-dasharray:none;stroke-dashoffset:0;stroke-opacity:1" />
      <path
         inkscape:connector-curvature="0"
         id="circle4268-9"
         d="m 75.13634,533.46804 a 4.6899605,4.6899605 0 0 1 4.68996,-4.68996 4.6899605,4.6899605 0 0 1 4.68996,4.68996 4.6899605,4.6899605 0 0 1 -4.68996,4.68996 4.6899605,4.6899605 0 0 1 -4.68996,-4.68996 z"
         style="opacity:1;fill:none;fill-opacity:1;fill-rule:nonzero;stroke:#000000;stroke-width:1.25;stroke-linecap:butt;stroke-linejoin:round;stroke-miterlimit:4;stroke-dasharray:none;stroke-dashoffset:0;stroke-opacity:1" />
      <path
         inkscape:connector-curvature="0"
         id="circle4270-5"
         d="m 82.22353,210.55615 a 4.6899605,4.6899605 0 0 1 4.68996,-4.68996 4.6899605,4.6899605 0 0 1 4.68996,4.68996 4.6899605,4.6899605 0 0 1 -4.68996,4.68996 4.6899605,4.6899605 0 0 1 -4.68996,-4.68996 z"
         style="opacity:1;fill:none;fill-opacity:1;fill-rule:nonzero;stroke:#000000;stroke-width:1.25;stroke-linecap:butt;stroke-linejoin:round;stroke-miterlimit:4;stroke-dasharray:none;stroke-dashoffset:0;stroke-opacity:1" />
    </g>
  </g>
</svg>
