  0
SECTION
  2
HEADER
  9
$ACADVER
  1
AC1014
  9
$HANDSEED
  5
FFFF
  9
$MEASUREMENT
 70
     1
  0
ENDSEC
  0
SECTION
  2
TABLES
  0
TABLE
  2
VPORT
  5
8
330
0
100
AcDbSymbolTable
 70
     4
  0
VPORT
  5
2E
330
8
100
AcDbSymbolTableRecord
100
AcDbViewportTableRecord
  2
*ACTIVE
 70
     0
 10
0.0
 20
0.0
 11
1.0
 21
1.0
 12
210.0
 22
148.5
 13
0.0
 23
0.0
 14
10.0
 24
10.0
 15
10.0
 25
10.0
 16
0.0
 26
0.0
 36
1.0
 17
0.0
 27
0.0
 37
0.0
 40
341.0
 41
1.24
 42
50.0
 43
0.0
 44
0.0
 50
0.0
 51
0.0
 71
     0
 72
   100
 73
     1
 74
     3
 75
     0
 76
     0
 77
     0
 78
     0
  0
ENDTAB
  0
TABLE
  2
LTYPE
  5
5
330
0
100
AcDbSymbolTable
 70
     1
  0
LTYPE
  5
14
330
5
100
AcDbSymbolTableRecord
100
AcDbLinetypeTableRecord
  2
BYBLOCK
 70
     0
  3

 72
    65
 73
     0
 40
0.0
  0
LTYPE
  5
15
330
5
100
AcDbSymbolTableRecord
100
AcDbLinetypeTableRecord
  2
BYLAYER
 70
     0
  3

 72
    65
 73
     0
 40
0.0
  0
LTYPE
  5
16
330
5
100
AcDbSymbolTableRecord
100
AcDbLinetypeTableRecord
  2
CONTINUOUS
 70
     0
  3
Solid line
 72
    65
 73
     0
 40
0.0
  0
ENDTAB
  0
TABLE
  2
LAYER
  5
2
100
AcDbSymbolTable
 70
2
  0
LAYER
  5
50
100
AcDbSymbolTableRecord
100
AcDbLayerTableRecord
  2
0
 70
0
  6
CONTINUOUS
  0
LAYER
  5
51
100
AcDbSymbolTableRecord
100
AcDbLayerTableRecord
  2
Capa_1
 70
0
  6
CONTINUOUS
  0
ENDTAB
  0
TABLE
  2
STYLE
  5
3
330
0
100
AcDbSymbolTable
 70
     1
  0
STYLE
  5
11
330
3
100
AcDbSymbolTableRecord
100
AcDbTextStyleTableRecord
  2
STANDARD
 70
     0
 40
0.0
 41
1.0
 50
0.0
 71
     0
 42
2.5
  3
txt
  4

  0
ENDTAB
  0
TABLE
  2
VIEW
  5
6
330
0
100
AcDbSymbolTable
 70
     0
  0
ENDTAB
  0
TABLE
  2
UCS
  5
7
330
0
100
AcDbSymbolTable
 70
     0
  0
ENDTAB
  0
TABLE
  2
APPID
  5
9
330
0
100
AcDbSymbolTable
 70
     2
  0
APPID
  5
12
330
9
100
AcDbSymbolTableRecord
100
AcDbRegAppTableRecord
  2
ACAD
 70
     0
  0
ENDTAB
  0
TABLE
  2
DIMSTYLE
  5
A
330
0
100
AcDbSymbolTable
 70
     1
  0
DIMSTYLE
105
27
330
A
100
AcDbSymbolTableRecord
100
AcDbDimStyleTableRecord
  2
ISO-25
 70
     0
  3

  4

  5

  6

  7

 40
1.0
 41
2.5
 42
0.625
 43
3.75
 44
1.25
 45
0.0
 46
0.0
 47
0.0
 48
0.0
140
2.5
141
2.5
142
0.0
143
0.03937007874016
144
1.0
145
0.0
146
1.0
147
0.625
 71
     0
 72
     0
 73
     0
 74
     0
 75
     0
 76
     0
 77
     1
 78
     8
170
     0
171
     3
172
     1
173
     0
174
     0
175
     0
176
     0
177
     0
178
     0
270
     2
271
     2
272
     2
273
     2
274
     3
340
11
275
     0
280
     0
281
     0
282
     0
283
     0
284
     8
285
     0
286
     0
287
     3
288
     0
  0
ENDTAB
  0
TABLE
  2
BLOCK_RECORD
  5
1
330
0
100
AcDbSymbolTable
 70
     1
  0
BLOCK_RECORD
  5
1F
330
1
100
AcDbSymbolTableRecord
100
AcDbBlockTableRecord
  2
*MODEL_SPACE
  0
BLOCK_RECORD
  5
1B
330
1
100
AcDbSymbolTableRecord
100
AcDbBlockTableRecord
  2
*PAPER_SPACE
  0
ENDTAB
  0
ENDSEC
  0
SECTION
  2
BLOCKS
  0
BLOCK
  5
20
330
1F
100
AcDbEntity
  8
0
100
AcDbBlockBegin
  2
*MODEL_SPACE
 70
     0
 10
0.0
 20
0.0
 30
0.0
  3
*MODEL_SPACE
  1

  0
ENDBLK
  5
21
330
1F
100
AcDbEntity
  8
0
100
AcDbBlockEnd
  0
BLOCK
  5
1C
330
1B
100
AcDbEntity
 67
     1
  8
0
100
AcDbBlockBegin
  2
*PAPER_SPACE
  1

  0
ENDBLK
  5
1D
330
1B
100
AcDbEntity
 67
     1
  8
0
100
AcDbBlockEnd
  0
ENDSEC
  0
SECTION
  2
ENTITIES
  0
LINE
  5
100
100
AcDbEntity
  8
Capa_1
 62
7
100
AcDbLine
 10
0.099780
 20
30.100143
 30
0.0
 11
30.022662
 21
0.177238
 31
0.0
  0
LINE
  5
101
100
AcDbEntity
  8
Capa_1
 62
7
100
AcDbLine
 10
30.022662
 20
0.177238
 30
0.0
 11
69.538204
 21
0.169477
 31
0.0
  0
LINE
  5
102
100
AcDbEntity
  8
Capa_1
 62
7
100
AcDbLine
 10
69.597103
 20
0.099782
 30
0.0
 11
99.761720
 21
30.264405
 31
0.0
  0
SPLINE
  5
103
100
AcDbEntity
  8
Capa_1
 62
7
100
AcDbSpline
 70
0
 71
3
 72
25
 73
21
 74
19
 40
0.000000
 40
0.000000
 40
0.000000
 40
0.000000
 40
0.944401
 40
1.888744
 40
2.833029
 40
3.777036
 40
4.721087
 40
5.665157
 40
6.609077
 40
7.552965
 40
8.496834
 40
9.358732
 40
10.220631
 40
11.082551
 40
11.944621
 40
12.806675
 40
13.668698
 40
14.530994
 40
15.393324
 40
16.255686
 40
16.255686
 40
16.255686
 40
16.255686
 10
14.875682
 20
36.837648
 30
0.0
 10
14.580850
 20
36.727315
 30
0.0
 10
13.991204
 20
36.506657
 30
0.0
 10
13.108028
 20
36.172303
 30
0.0
 10
12.227542
 20
35.831262
 30
0.0
 10
11.351092
 20
35.480226
 30
0.0
 10
10.478408
 20
35.120132
 30
0.0
 10
9.609159
 20
34.751905
 30
0.0
 10
8.743046
 20
34.376501
 30
0.0
 10
7.880279
 20
33.993633
 30
0.0
 10
7.045882
 20
33.614327
 30
0.0
 10
6.239686
 20
33.239117
 30
0.0
 10
5.461277
 20
32.869012
 30
0.0
 10
4.685763
 20
32.492753
 30
0.0
 10
3.913086
 20
32.110580
 30
0.0
 10
3.143664
 20
31.721815
 30
0.0
 10
2.377893
 20
31.325734
 30
0.0
 10
1.616218
 20
30.921644
 30
0.0
 10
0.857280
 20
30.512216
 30
0.0
 10
0.352266
 20
30.237502
 30
0.0
 10
0.099754
 20
30.100143
 30
0.0
 11
14.875682
 21
36.837648
 31
0.0
 11
13.991397
 21
36.506087
 31
0.0
 11
13.108438
 21
36.171174
 31
0.0
 11
12.228113
 21
35.829556
 31
0.0
 11
11.351722
 21
35.478718
 31
0.0
 11
10.478981
 21
35.118777
 31
0.0
 11
9.609627
 21
34.750685
 31
0.0
 11
8.743584
 21
34.375248
 31
0.0
 11
7.880853
 21
33.992338
 31
0.0
 11
7.021621
 21
33.601685
 31
0.0
 11
6.240190
 21
33.238047
 31
0.0
 11
5.461775
 21
32.867994
 31
0.0
 11
4.686289
 21
32.491793
 31
0.0
 11
3.913629
 21
32.109481
 31
0.0
 11
3.144275
 21
31.720597
 31
0.0
 11
2.378670
 21
31.324448
 31
0.0
 11
1.616701
 21
30.920768
 31
0.0
 11
0.857528
 21
30.511782
 31
0.0
 11
0.099754
 21
30.100143
 31
0.0
  0
LINE
  5
104
100
AcDbEntity
  8
Capa_1
 62
7
100
AcDbLine
 10
14.875682
 20
36.837648
 30
0.0
 11
14.875682
 21
36.837648
 31
0.0
  0
SPLINE
  5
105
100
AcDbEntity
  8
Capa_1
 62
7
100
AcDbSpline
 70
0
 71
3
 72
25
 73
21
 74
19
 40
0.000000
 40
0.000000
 40
0.000000
 40
0.000000
 40
0.822775
 40
1.645524
 40
2.468251
 40
3.290736
 40
4.113246
 40
4.935771
 40
5.758153
 40
6.580510
 40
7.402850
 40
8.349927
 40
9.297026
 40
10.244134
 40
11.191380
 40
12.138616
 40
13.085816
 40
14.033304
 40
14.980833
 40
15.928404
 40
15.928404
 40
15.928404
 40
15.928404
 10
99.761692
 20
30.264405
 30
0.0
 10
99.520158
 20
30.394324
 30
0.0
 10
99.037098
 20
30.654159
 30
0.0
 10
98.311226
 20
31.041499
 30
0.0
 10
97.582874
 20
31.423965
 30
0.0
 10
96.850822
 20
31.799131
 30
0.0
 10
96.115467
 20
32.167624
 30
0.0
 10
95.377170
 20
32.530103
 30
0.0
 10
94.636309
 20
32.887194
 30
0.0
 10
93.892835
 20
33.238670
 30
0.0
 10
93.108915
 20
33.601784
 30
0.0
 10
92.283950
 20
33.975141
 30
0.0
 10
91.417605
 20
34.357840
 30
0.0
 10
90.547921
 20
34.733025
 30
0.0
 10
89.675100
 20
35.100978
 30
0.0
 10
88.798831
 20
35.460729
 30
0.0
 10
87.918778
 20
35.811354
 30
0.0
 10
87.034677
 20
36.151903
 30
0.0
 10
86.147892
 20
36.485719
 30
0.0
 10
85.555846
 20
36.706006
 30
0.0
 10
85.259816
 20
36.816151
 30
0.0
 11
99.761692
 21
30.264405
 31
0.0
 11
99.036875
 21
30.653762
 31
0.0
 11
98.310792
 21
31.040697
 31
0.0
 11
97.582174
 21
31.422792
 31
0.0
 11
96.850269
 21
31.798020
 31
0.0
 11
96.114976
 21
32.166622
 31
0.0
 11
95.376692
 21
32.529230
 31
0.0
 11
94.635857
 21
32.886266
 31
0.0
 11
93.892375
 21
33.237700
 31
0.0
 11
93.146177
 21
33.583290
 31
0.0
 11
92.283375
 21
33.973837
 31
0.0
 11
91.417060
 21
34.356583
 31
0.0
 11
90.547447
 21
34.731799
 31
0.0
 11
89.674527
 21
35.099610
 31
0.0
 11
88.798202
 21
35.459208
 31
0.0
 11
87.918208
 21
35.809634
 31
0.0
 11
87.034262
 21
36.150769
 31
0.0
 11
86.147694
 21
36.485149
 31
0.0
 11
85.259816
 21
36.816151
 31
0.0
  0
SPLINE
  5
106
100
AcDbEntity
  8
Capa_1
 62
7
100
AcDbSpline
 70
0
 71
3
 72
43
 73
39
 74
37
 40
0.000000
 40
0.000000
 40
0.000000
 40
0.000000
 40
1.256684
 40
2.512727
 40
3.768159
 40
5.010349
 40
6.253234
 40
7.496435
 40
8.729350
 40
9.961915
 40
11.194354
 40
12.369009
 40
13.543789
 40
14.718622
 40
15.889361
 40
17.060057
 40
18.230724
 40
19.399447
 40
20.568207
 40
21.737038
 40
23.179091
 40
24.621223
 40
26.063356
 40
27.509378
 40
28.955430
 40
30.401574
 40
31.855919
 40
33.310198
 40
34.764209
 40
35.688810
 40
36.613404
 40
37.538129
 40
38.469528
 40
39.400807
 40
40.331791
 40
41.270753
 40
42.209963
 40
43.149436
 40
43.149436
 40
43.149436
 40
43.149436
 10
85.259816
 20
36.816151
 30
0.0
 10
85.053588
 20
36.451536
 30
0.0
 10
84.641238
 20
35.722492
 30
0.0
 10
84.008338
 20
34.637467
 30
0.0
 10
83.349156
 20
33.573664
 30
0.0
 10
82.650623
 20
32.540485
 30
0.0
 10
81.917811
 20
31.536482
 30
0.0
 10
81.154758
 20
30.559240
 30
0.0
 10
80.365915
 20
29.607187
 30
0.0
 10
79.551536
 20
28.681634
 30
0.0
 10
78.722405
 20
27.795674
 30
0.0
 10
77.880001
 20
26.949318
 30
0.0
 10
77.026661
 20
26.141686
 30
0.0
 10
76.150793
 20
25.360508
 30
0.0
 10
75.253469
 20
24.606191
 30
0.0
 10
74.335542
 20
23.879319
 30
0.0
 10
73.397237
 20
23.180072
 30
0.0
 10
72.439339
 20
22.509044
 30
0.0
 10
71.462696
 20
21.866713
 30
0.0
 10
70.390103
 20
21.205441
 30
0.0
 10
69.217256
 20
20.534274
 30
0.0
 10
67.940284
 20
19.863521
 30
0.0
 10
66.638709
 20
19.238781
 30
0.0
 10
65.314142
 20
18.661112
 30
0.0
 10
63.968261
 20
18.131353
 30
0.0
 10
62.601466
 20
17.649747
 30
0.0
 10
61.215470
 20
17.217236
 30
0.0
 10
59.812053
 20
16.835027
 30
0.0
 10
58.567493
 20
16.544843
 30
0.0
 10
57.488002
 20
16.327474
 30
0.0
 10
56.577527
 20
16.165779
 30
0.0
 10
55.661448
 20
16.024056
 30
0.0
 10
54.740293
 20
15.901927
 30
0.0
 10
53.814348
 20
15.802021
 30
0.0
 10
52.883496
 20
15.726904
 30
0.0
 10
51.948211
 20
15.679374
 30
0.0
 10
51.009414
 20
15.650390
 30
0.0
 10
50.383322
 20
15.637292
 30
0.0
 10
50.070233
 20
15.630742
 30
0.0
 11
85.259816
 21
36.816151
 31
0.0
 11
84.638710
 21
35.723686
 31
0.0
 11
84.003429
 21
34.640144
 31
0.0
 11
83.339802
 21
33.574448
 31
0.0
 11
82.644663
 21
32.544973
 31
0.0
 11
81.912516
 21
31.540621
 31
0.0
 11
81.147951
 21
30.560320
 31
0.0
 11
80.361201
 21
29.611054
 31
0.0
 11
79.546837
 21
28.685837
 31
0.0
 11
78.704584
 21
27.786107
 31
0.0
 11
77.875950
 21
26.953533
 31
0.0
 11
77.022757
 21
26.145962
 31
0.0
 11
76.146014
 21
25.363943
 31
0.0
 11
75.249846
 21
24.610607
 31
0.0
 11
74.332048
 21
23.883851
 31
0.0
 11
73.393359
 21
23.184333
 31
0.0
 11
72.436142
 21
22.513775
 31
0.0
 11
71.459652
 21
21.871539
 31
0.0
 11
70.464711
 21
21.258141
 31
0.0
 11
69.213106
 21
20.541898
 31
0.0
 11
67.936383
 21
19.871285
 31
0.0
 11
66.636254
 21
19.247256
 31
0.0
 11
65.310803
 21
18.669190
 31
0.0
 11
63.965240
 21
18.139543
 31
0.0
 11
62.601294
 21
17.658935
 31
0.0
 11
61.212963
 21
17.225744
 31
0.0
 11
59.809774
 21
16.843658
 31
0.0
 11
58.393728
 21
16.513564
 31
0.0
 11
57.487341
 21
16.330948
 31
0.0
 11
56.577009
 21
16.169173
 31
0.0
 11
55.663171
 21
16.027691
 31
0.0
 11
54.739800
 21
15.905672
 31
0.0
 11
53.813851
 21
15.806176
 31
0.0
 11
52.885851
 21
15.731704
 31
0.0
 11
51.948179
 21
15.682492
 31
0.0
 11
51.009466
 21
15.651949
 31
0.0
 11
50.070233
 21
15.630742
 31
0.0
  0
LINE
  5
107
100
AcDbEntity
  8
Capa_1
 62
7
100
AcDbLine
 10
38.711324
 20
12.186745
 30
0.0
 11
38.711324
 21
12.186745
 31
0.0
  0
LINE
  5
108
100
AcDbEntity
  8
Capa_1
 62
5
100
AcDbLine
 10
45.708742
 20
15.927778
 30
0.0
 11
54.426530
 21
15.927778
 31
0.0
  0
LINE
  5
109
100
AcDbEntity
  8
Capa_1
 62
5
100
AcDbLine
 10
54.426530
 20
15.927778
 30
0.0
 11
54.426530
 21
0.188462
 31
0.0
  0
LINE
  5
10a
100
AcDbEntity
  8
Capa_1
 62
5
100
AcDbLine
 10
54.426530
 20
0.188462
 30
0.0
 11
45.708742
 21
0.188462
 31
0.0
  0
LINE
  5
10b
100
AcDbEntity
  8
Capa_1
 62
5
100
AcDbLine
 10
45.708742
 20
0.188462
 30
0.0
 11
45.708742
 21
15.927778
 31
0.0
  0
SPLINE
  5
10c
100
AcDbEntity
  8
Capa_1
 62
7
100
AcDbSpline
 70
0
 71
3
 72
43
 73
39
 74
37
 40
0.000000
 40
0.000000
 40
0.000000
 40
0.000000
 40
1.150097
 40
2.299720
 40
3.448868
 40
4.586638
 40
5.724923
 40
6.863444
 40
7.992892
 40
9.122074
 40
10.251208
 40
11.550999
 40
12.850959
 40
14.150985
 40
15.445520
 40
16.740012
 40
18.034512
 40
19.326512
 40
20.618516
 40
21.910500
 40
23.116105
 40
24.321667
 40
25.527208
 40
26.735177
 40
27.943167
 40
29.151197
 40
30.364086
 40
31.576918
 40
32.789618
 40
33.932596
 40
35.075669
 40
36.219005
 40
37.371601
 40
38.523942
 40
39.675721
 40
40.839128
 40
42.003020
 40
43.167421
 40
43.167421
 40
43.167421
 40
43.167421
 10
50.070233
 20
15.630742
 30
0.0
 10
49.686992
 20
15.640576
 30
0.0
 10
48.920669
 20
15.660239
 30
0.0
 10
47.771815
 20
15.703718
 30
0.0
 10
46.628322
 20
15.774958
 30
0.0
 10
45.491888
 20
15.887403
 30
0.0
 10
44.363355
 20
16.036756
 30
0.0
 10
43.242533
 20
16.219149
 30
0.0
 10
42.129931
 20
16.430584
 30
0.0
 10
41.026540
 20
16.671570
 30
0.0
 10
39.875220
 20
16.957076
 30
0.0
 10
38.678456
 20
17.293665
 30
0.0
 10
37.439139
 20
17.686732
 30
0.0
 10
36.214987
 20
18.119522
 30
0.0
 10
35.007222
 20
18.591129
 30
0.0
 10
33.817048
 20
19.100862
 30
0.0
 10
32.644784
 20
19.648540
 30
0.0
 10
31.491674
 20
20.233643
 30
0.0
 10
30.358850
 20
20.855369
 30
0.0
 10
29.271527
 20
21.498767
 30
0.0
 10
28.229207
 20
22.160378
 30
0.0
 10
27.231204
 20
22.837011
 30
0.0
 10
26.253467
 20
23.543957
 30
0.0
 10
25.296952
 20
24.280690
 30
0.0
 10
24.362525
 20
25.046554
 30
0.0
 10
23.450437
 20
25.841387
 30
0.0
 10
22.561600
 20
26.664521
 30
0.0
 10
21.697205
 20
27.515508
 30
0.0
 10
20.875489
 20
28.375834
 30
0.0
 10
20.095663
 20
29.243236
 30
0.0
 10
19.355754
 20
30.114799
 30
0.0
 10
18.638141
 20
31.008905
 30
0.0
 10
17.942878
 20
31.924404
 30
0.0
 10
17.273834
 20
32.862736
 30
0.0
 10
16.634451
 20
33.825938
 30
0.0
 10
16.028999
 20
34.815275
 30
0.0
 10
15.446148
 20
35.822785
 30
0.0
 10
15.065827
 20
36.499311
 30
0.0
 10
14.875626
 20
36.837648
 30
0.0
 11
50.070233
 21
15.630742
 31
0.0
 11
48.920576
 21
15.662576
 31
0.0
 11
47.771867
 21
15.708394
 31
0.0
 11
46.625089
 21
15.782180
 31
0.0
 11
45.492788
 21
15.893592
 31
0.0
 11
44.364262
 21
16.042327
 31
0.0
 11
43.240427
 21
16.224603
 31
0.0
 11
42.130867
 21
16.435624
 31
0.0
 11
41.027723
 21
16.676715
 31
0.0
 11
39.931823
 21
16.948644
 31
0.0
 11
38.680559
 21
17.300491
 31
0.0
 11
37.441412
 21
17.693443
 31
0.0
 11
36.215718
 21
18.126735
 31
0.0
 11
35.009855
 21
18.597600
 31
0.0
 11
33.819908
 21
19.107244
 31
0.0
 11
32.647103
 21
19.655203
 31
0.0
 11
31.494931
 21
20.239810
 31
0.0
 11
30.362296
 21
20.861429
 31
0.0
 11
29.250389
 21
21.519368
 31
0.0
 11
28.232526
 21
22.165463
 31
0.0
 11
27.234682
 21
22.841990
 31
0.0
 11
26.257761
 21
23.548357
 31
0.0
 11
25.300748
 21
24.285456
 31
0.0
 11
24.366464
 21
25.051194
 31
0.0
 11
23.455717
 21
25.844841
 31
0.0
 11
22.565851
 21
26.669000
 31
0.0
 11
21.701604
 21
27.519905
 31
0.0
 11
20.864043
 21
28.396906
 31
0.0
 11
20.099760
 21
29.246772
 31
0.0
 11
19.359861
 21
30.118072
 31
0.0
 11
18.644083
 21
31.009632
 31
0.0
 11
17.947482
 21
31.927905
 31
0.0
 11
17.279003
 21
32.866534
 31
0.0
 11
16.642534
 21
33.826484
 31
0.0
 11
16.033213
 21
34.817566
 31
0.0
 11
15.448314
 21
35.823815
 31
0.0
 11
14.875626
 21
36.837648
 31
0.0
  0
ENDSEC
  0
SECTION
  2
OBJECTS
  0
DICTIONARY
  5
C
330
0
100
AcDbDictionary
  3
ACAD_GROUP
350
D
  3
ACAD_MLINESTYLE
350
17
  0
DICTIONARY
  5
D
330
C
100
AcDbDictionary
  0
DICTIONARY
  5
1A
330
C
100
AcDbDictionary
  0
DICTIONARY
  5
17
330
C
100
AcDbDictionary
  3
STANDARD
350
18
  0
DICTIONARY
  5
19
330
C
100
AcDbDictionary
  0
ENDSEC
  0
EOF
