<?xml version="1.0" encoding="UTF-8" standalone="no"?>
<!-- Created with Inkscape (http://www.inkscape.org/) -->

<svg
   xmlns:dc="http://purl.org/dc/elements/1.1/"
   xmlns:cc="http://creativecommons.org/ns#"
   xmlns:rdf="http://www.w3.org/1999/02/22-rdf-syntax-ns#"
   xmlns:svg="http://www.w3.org/2000/svg"
   xmlns="http://www.w3.org/2000/svg"
   xmlns:xlink="http://www.w3.org/1999/xlink"
   xmlns:sodipodi="http://sodipodi.sourceforge.net/DTD/sodipodi-0.dtd"
   xmlns:inkscape="http://www.inkscape.org/namespaces/inkscape"
   width="191.09268mm"
   height="97.91581mm"
   viewBox="0 0 677.10006 346.94578"
   id="svg2"
   version="1.1"
   inkscape:version="0.91 r13725"
   sodipodi:docname="Asa_01.svg">
  <defs
     id="defs4">
    <inkscape:perspective
       sodipodi:type="inkscape:persp3d"
       inkscape:vp_x="0 : 372.04725 : 1"
       inkscape:vp_y="0 : 1000 : 0"
       inkscape:vp_z="744.09451 : 372.04725 : 1"
       inkscape:persp3d-origin="372.04725 : 248.0315 : 1"
       id="perspective4294" />
    <filter
       inkscape:label="Drop Shadow"
       id="filter3087"
       style="color-interpolation-filters:sRGB">
      <feFlood
         result="flood"
         flood-color="rgb(0,0,0)"
         flood-opacity="0.5"
         id="feFlood3089" />
      <feComposite
         result="composite1"
         operator="in"
         in="flood"
         in2="SourceGraphic"
         id="feComposite3091" />
      <feGaussianBlur
         result="blur"
         stdDeviation="2"
         id="feGaussianBlur3093" />
      <feOffset
         result="offset"
         dy="8"
         dx="8"
         id="feOffset3095" />
      <feComposite
         result="fbSourceGraphic"
         operator="over"
         in="SourceGraphic"
         in2="offset"
         id="feComposite3097" />
      <feColorMatrix
         id="feColorMatrix3035"
         values="0 0 0 -1 0 0 0 0 -1 0 0 0 0 -1 0 0 0 0 1 0"
         in="fbSourceGraphic"
         result="fbSourceGraphicAlpha" />
      <feFlood
         in="fbSourceGraphic"
         result="flood"
         flood-color="rgb(255,255,255)"
         flood-opacity="0.5"
         id="feFlood3037" />
      <feComposite
         result="composite1"
         operator="in"
         in="flood"
         in2="fbSourceGraphic"
         id="feComposite3039" />
      <feGaussianBlur
         result="blur"
         stdDeviation="2"
         id="feGaussianBlur3041" />
      <feOffset
         result="offset"
         dy="4"
         dx="4"
         id="feOffset3043" />
      <feComposite
         result="fbSourceGraphic"
         operator="over"
         in="fbSourceGraphic"
         in2="offset"
         id="feComposite3045" />
      <feColorMatrix
         id="feColorMatrix3047"
         values="0 0 0 -1 0 0 0 0 -1 0 0 0 0 -1 0 0 0 0 1 0"
         in="fbSourceGraphic"
         result="fbSourceGraphicAlpha" />
      <feFlood
         in="fbSourceGraphic"
         result="flood"
         flood-color="rgb(255,255,255)"
         flood-opacity="0.5"
         id="feFlood3049" />
      <feComposite
         result="composite1"
         operator="in"
         in="flood"
         in2="fbSourceGraphic"
         id="feComposite3051" />
      <feGaussianBlur
         result="blur"
         stdDeviation="2"
         id="feGaussianBlur3053" />
      <feOffset
         result="offset"
         dy="4"
         dx="4"
         id="feOffset3055" />
      <feComposite
         result="composite2"
         operator="over"
         in="fbSourceGraphic"
         in2="offset"
         id="feComposite3057" />
    </filter>
    <filter
       inkscape:label="Drop Shadow"
       id="filter3075"
       style="color-interpolation-filters:sRGB">
      <feFlood
         result="flood"
         flood-color="rgb(0,0,0)"
         flood-opacity="0.5"
         id="feFlood3077" />
      <feComposite
         result="composite1"
         operator="in"
         in="flood"
         in2="SourceGraphic"
         id="feComposite3079" />
      <feGaussianBlur
         result="blur"
         stdDeviation="2"
         id="feGaussianBlur3081" />
      <feOffset
         result="offset"
         dy="8"
         dx="8"
         id="feOffset3083" />
      <feComposite
         result="composite2"
         operator="over"
         in="SourceGraphic"
         in2="offset"
         id="feComposite3085" />
    </filter>
    <clipPath
       id="clipPath3821"
       clipPathUnits="userSpaceOnUse">
      <rect
         ry="0"
         y="302.71548"
         x="19.369934"
         height="738.6275"
         width="880.35986"
         id="rect3823"
         style="fill:none;stroke:#000000;stroke-width:1.92365563;stroke-opacity:1" />
    </clipPath>
    <radialGradient
       gradientUnits="userSpaceOnUse"
       gradientTransform="matrix(2.956815,0,0,2.6312331,-802.38755,-273.62951)"
       r="224.75894"
       fy="359.39755"
       fx="426.78943"
       cy="359.39755"
       cx="426.78943"
       id="radialGradient3809"
       xlink:href="#linearGradient3803"
       inkscape:collect="always" />
    <linearGradient
       id="linearGradient3803">
      <stop
         id="stop3815"
         offset="0"
         style="stop-color:#000000;stop-opacity:0;" />
      <stop
         id="stop3813"
         offset="1"
         style="stop-color:#000000;stop-opacity:1;" />
      <stop
         id="stop3807"
         offset="1"
         style="stop-color:#000000;stop-opacity:0;" />
    </linearGradient>
  </defs>
  <sodipodi:namedview
     id="base"
     pagecolor="#ffffff"
     bordercolor="#666666"
     borderopacity="1.0"
     inkscape:pageopacity="0.0"
     inkscape:pageshadow="2"
     inkscape:zoom="0.74"
     inkscape:cx="363.26717"
     inkscape:cy="5.6634642"
     inkscape:document-units="px"
     inkscape:current-layer="layer1"
     showgrid="false"
     fit-margin-top="0"
     fit-margin-left="0"
     fit-margin-right="0"
     fit-margin-bottom="0"
     inkscape:window-width="1920"
     inkscape:window-height="1017"
     inkscape:window-x="-8"
     inkscape:window-y="-8"
     inkscape:window-maximized="1"
     showguides="true"
     inkscape:guide-bbox="true">
    <sodipodi:guide
       position="121.90857,350.07491"
       orientation="0,1"
       id="guide3389"
       inkscape:locked="false" />
    <sodipodi:guide
       position="330.01669,0.074903175"
       orientation="0,1"
       id="guide3437"
       inkscape:locked="false" />
    <sodipodi:guide
       position="754.40152,154.82181"
       orientation="1,0"
       id="guide4339" />
  </sodipodi:namedview>
  <metadata
     id="metadata7">
    <rdf:RDF>
      <cc:Work
         rdf:about="">
        <dc:format>image/svg+xml</dc:format>
        <dc:type
           rdf:resource="http://purl.org/dc/dcmitype/StillImage" />
        <dc:title></dc:title>
      </cc:Work>
    </rdf:RDF>
  </metadata>
  <g
     inkscape:label="Capa 1"
     inkscape:groupmode="layer"
     id="layer1"
     transform="translate(-30.139692,-358.77125)">
    <g
       id="g4248"
       transform="translate(-5.225486,-0.00178973)">
      <path
         id="path4680"
         d="m 701.65379,665.75594 a 6.4616141,6.4616141 0 0 1 -6.46161,6.46162 6.4616141,6.4616141 0 0 1 -6.46162,-6.46162 6.4616141,6.4616141 0 0 1 6.46162,-6.46161 6.4616141,6.4616141 0 0 1 6.46161,6.46161 z"
         style="opacity:1;fill:none;fill-opacity:1;stroke:#000000;stroke-width:1.25;stroke-linecap:round;stroke-linejoin:round;stroke-miterlimit:10;stroke-dasharray:none;stroke-dashoffset:0;stroke-opacity:1"
         inkscape:connector-curvature="0" />
      <path
         id="circle4682"
         d="m 59.10059,388.0964 a 6.4616141,6.4616141 0 0 1 -6.46161,6.46161 6.4616141,6.4616141 0 0 1 -6.46161,-6.46161 6.4616141,6.4616141 0 0 1 6.46161,-6.46162 6.4616141,6.4616141 0 0 1 6.46161,6.46162 z"
         style="opacity:1;fill:none;fill-opacity:1;stroke:#000000;stroke-width:1.25;stroke-linecap:round;stroke-linejoin:round;stroke-miterlimit:10;stroke-dasharray:none;stroke-dashoffset:0;stroke-opacity:1"
         inkscape:connector-curvature="0" />
      <path
         id="circle4684"
         d="m 59.10059,676.39425 a 6.4616141,6.4616141 0 0 1 -6.46161,6.46161 6.4616141,6.4616141 0 0 1 -6.46161,-6.46161 6.4616141,6.4616141 0 0 1 6.46161,-6.46162 6.4616141,6.4616141 0 0 1 6.46161,6.46162 z"
         style="opacity:1;fill:none;fill-opacity:1;stroke:#000000;stroke-width:1.25;stroke-linecap:round;stroke-linejoin:round;stroke-miterlimit:10;stroke-dasharray:none;stroke-dashoffset:0;stroke-opacity:1"
         inkscape:connector-curvature="0" />
      <path
         id="circle4686"
         d="m 701.65379,388.0964 a 6.4616141,6.4616141 0 0 1 -6.46161,6.46161 6.4616141,6.4616141 0 0 1 -6.46162,-6.46161 6.4616141,6.4616141 0 0 1 6.46162,-6.46162 6.4616141,6.4616141 0 0 1 6.46161,6.46162 z"
         style="opacity:1;fill:none;fill-opacity:1;stroke:#000000;stroke-width:1.25;stroke-linecap:round;stroke-linejoin:round;stroke-miterlimit:10;stroke-dasharray:none;stroke-dashoffset:0;stroke-opacity:1"
         inkscape:connector-curvature="0" />
    </g>
    <path
       style="opacity:1;fill:none;fill-opacity:1;fill-rule:nonzero;stroke:#000000;stroke-width:0.50632143;stroke-linecap:butt;stroke-linejoin:round;stroke-miterlimit:4;stroke-dasharray:none;stroke-dashoffset:0;stroke-opacity:1"
       d="m 62.21875,198.82812 c -15.771196,0 -28.46875,12.69561 -28.46875,28.4668 l 0,289.50391 c 0,15.77119 12.697554,28.46875 28.46875,28.46875 l 15.658203,0 c 15.771196,0 28.466797,-12.69756 28.466797,-28.46875 l 0,-81.25586 531.40625,0 0,81.25586 c 0,15.77119 12.69755,28.46875 28.46875,28.46875 l 15.6582,0 c 15.7712,0 28.4668,-12.69756 28.4668,-28.46875 l 0,-289.50391 c 0,-15.77119 -12.6956,-28.4668 -28.4668,-28.4668 l -15.6582,0 c -15.7712,0 -28.46875,12.69561 -28.46875,28.4668 l 0,81.25586 -531.40625,0 0,-81.25586 c 0,-15.77119 -12.695601,-28.4668 -28.466797,-28.4668 l -15.658203,0 z"
       transform="translate(-3.3571472,160.19629)"
       id="rect3512"
       inkscape:connector-curvature="0" />
    <g
       id="g3998"
       transform="translate(4.0605981,0)">
      <path
         inkscape:connector-curvature="0"
         id="path3537"
         d="m 162.46624,581.07964 c -2.84244,-0.91841 -7.04386,-3.92604 -10.01192,-7.16713 -5.43012,-5.92965 -15.8079,-22.08399 -18.05091,-28.09857 -1.44278,-3.8688 -2.84902,-12.50797 -2.84902,-17.50285 0,-5.4817 1.39074,-14.6525 3.13463,-20.67031 3.11898,-10.76294 8.19342,-17.31145 16.45324,-21.23269 5.99573,-2.8464 9.07809,-3.57061 15.19717,-3.57061 8.03201,0 15.92825,3.05375 21.82013,8.43859 9.04876,8.27007 14.15128,29.51391 11.295,47.02566 -1.13332,6.94837 -4.93369,14.75629 -12.55127,25.78678 -9.96477,14.42931 -17.07187,19.37089 -24.43705,16.99113 z m 0.39336,-20.63988 c 0,-0.78792 -2.93951,-8.53429 -4.17373,-10.99884 -4.59511,-9.17582 -10.44947,-13.46357 -20.91605,-15.31897 l -1.89038,-0.33511 0.28285,4.05364 c 0.69039,9.89428 7.10093,18.23425 16.63492,21.64168 2.54988,0.91132 10.06239,1.62626 10.06239,0.9576 z m 18.55857,-1.9711 c 8.07623,-3.86069 13.32851,-11.02257 14.39172,-19.62415 0.28332,-2.29222 0.41436,-4.33074 0.29117,-4.53006 -0.12319,-0.19932 -1.67837,-0.13571 -3.45596,0.14136 -3.54493,0.55255 -8.19154,2.48005 -11.52899,4.78245 -3.97238,2.7404 -8.97758,11.01727 -11.19916,18.51953 l -0.8902,3.00618 4.32346,-0.25266 c 3.36638,-0.19672 5.15238,-0.6489 8.06796,-2.04265 z"
         style="fill:#0000ff" />
      <text
         sodipodi:linespacing="125%"
         id="text3539"
         y="506.97314"
         x="222.79669"
         style="font-style:normal;font-weight:normal;font-size:27.5px;line-height:125%;font-family:sans-serif;letter-spacing:0px;word-spacing:0px;fill:#000000;fill-opacity:1;stroke:none;stroke-width:1px;stroke-linecap:butt;stroke-linejoin:miter;stroke-opacity:1"
         xml:space="preserve"><tspan
           style="font-style:normal;font-variant:normal;font-weight:bold;font-stretch:normal;font-family:Harabara;-inkscape-font-specification:'Harabara Bold';letter-spacing:7.20000219px"
           y="506.97314"
           x="222.79669"
           id="tspan3541"
           sodipodi:role="line">Alien</tspan><tspan
           style="font-style:normal;font-variant:normal;font-weight:bold;font-stretch:normal;font-family:Harabara;-inkscape-font-specification:'Harabara Bold';letter-spacing:7.20000219px"
           id="tspan3543"
           y="541.34814"
           x="222.79669"
           sodipodi:role="line">Soccer</tspan><tspan
           style="font-style:normal;font-variant:normal;font-weight:bold;font-stretch:normal;font-family:Harabara;-inkscape-font-specification:'Harabara Bold';letter-spacing:7.20000219px"
           id="tspan3545"
           y="575.72314"
           x="222.79669"
           sodipodi:role="line">Robot</tspan></text>
      <g
         transform="matrix(1.4685022,0,0,1.4685022,-270.98863,-267.12121)"
         id="g3942">
        <g
           style="fill:none;stroke:#ff0000;stroke-width:2.90270257"
           transform="matrix(0.34580017,0,0,0.34321775,388.73717,397.97425)"
           id="layer1-2"
           inkscape:label="Layer 1">
          <g
             style="fill:none;stroke:#ff0000;stroke-width:2.90270257"
             id="g9"
             transform="translate(59.713686,1955.2555)">
            <g
               style="fill:none;stroke:#ff0000;stroke-width:2.90270257"
               id="g11">
              <path
                 style="fill:none;stroke:#ff0000;stroke-width:2.90270257"
                 inkscape:connector-curvature="0"
                 id="path13"
                 d="m 255.688,-1502.962 6.496,0.082 c -1,3.625 -2.854,6.374 -5.561,8.244 -2.71,1.96 -6.099,2.911 -10.168,2.859 -4.938,-0.062 -8.771,-1.71 -11.5,-4.949 -2.732,-3.151 -4.062,-7.629 -3.988,-13.432 0.068,-5.54 1.464,-9.855 4.188,-12.938 2.812,-3.167 6.686,-4.724 11.621,-4.66 5.195,0.064 9.202,1.676 12.021,4.828 1.534,1.925 2.632,4.147 3.296,6.665 l -9.094,-0.114 c -0.423,-0.869 -0.848,-1.523 -1.273,-1.964 -1.111,-1.225 -2.705,-1.853 -4.783,-1.878 -1.906,-0.024 -3.472,0.563 -4.699,1.759 -1.58,1.715 -2.396,4.562 -2.446,8.544 -0.049,3.983 0.694,6.809 2.233,8.472 1.106,1.401 2.786,2.112 5.039,2.141 1.471,0.019 2.732,-0.267 3.778,-0.86 0.261,-0.082 0.499,-0.23 0.719,-0.445 0.22,-0.212 0.461,-0.449 0.725,-0.706 0.175,-0.257 0.527,-0.598 1.053,-1.026 0.522,-0.426 1.304,-0.635 2.343,-0.622 z" />
            </g>
            <g
               style="fill:none;stroke:#ff0000;stroke-width:2.90270257"
               id="g15">
              <path
                 style="fill:none;stroke:#ff0000;stroke-width:2.90270257"
                 inkscape:connector-curvature="0"
                 id="path17"
                 d="m 269.464,-1495.254 c -1.797,-1.582 -3.069,-3.696 -3.817,-6.349 -0.743,-2.65 -1.101,-5.404 -1.064,-8.263 0.03,-2.338 0.385,-4.672 1.062,-7.001 0.679,-2.331 1.721,-4.266 3.128,-5.808 2.281,-2.57 5.2,-4.068 8.759,-4.502 3.554,-0.43 6.758,-0.11 9.602,0.966 3.272,1.339 5.669,3.622 7.188,6.844 1.437,2.878 2.132,6.222 2.084,10.029 -0.035,2.773 -0.369,5.151 -0.999,7.133 -0.632,1.986 -1.433,3.665 -2.402,5.037 -2.112,2.831 -4.778,4.575 -7.99,5.226 -2.867,0.744 -5.747,0.772 -8.639,0.087 -2.896,-0.685 -5.198,-1.819 -6.912,-3.399 z m 6.525,-22.783 c -1.844,1.972 -2.705,4.925 -2.58,8.868 0.122,3.942 0.825,6.699 2.105,8.274 0.51,0.702 1.413,1.298 2.705,1.788 1.292,0.493 2.611,0.553 3.96,0.179 1.345,-0.371 2.549,-1.331 3.609,-2.877 1.057,-1.545 1.65,-4.049 1.782,-7.512 0.039,-3.118 -0.431,-5.462 -1.406,-7.033 -0.977,-1.571 -2.11,-2.581 -3.404,-3.031 -1.294,-0.448 -2.594,-0.486 -3.895,-0.112 -1.306,0.372 -2.266,0.859 -2.876,1.456 z" />
            </g>
            <g
               style="fill:none;stroke:#ff0000;stroke-width:2.90270257"
               id="g19">
              <path
                 style="fill:none;stroke:#ff0000;stroke-width:2.90270257"
                 inkscape:connector-curvature="0"
                 id="path21"
                 d="m 329.41,-1491.385 -8.962,-0.112 0.255,-20.264 0.022,-1.817 c 0.026,-2.078 -0.584,-3.6 -1.827,-4.569 -1.243,-0.968 -2.644,-1.462 -4.202,-1.481 -1.56,-0.02 -2.952,0.439 -4.176,1.377 -1.225,0.938 -1.85,2.443 -1.875,4.521 l -0.277,22.082 -9.093,-0.114 0.255,-20.263 c 0.073,-5.888 1.66,-9.807 4.759,-11.761 3.098,-1.954 6.512,-2.992 10.237,-3.12 1.991,0.024 3.937,0.267 5.837,0.723 1.897,0.457 3.621,1.344 5.165,2.664 1.311,-1.108 2.858,-1.892 4.639,-2.346 1.78,-0.453 3.625,-0.713 5.53,-0.776 3.812,0.048 7.306,1.09 10.485,3.121 3.178,2.032 4.73,6.079 4.654,12.138 l -0.254,20.265 -4.546,-0.058 c -1.299,-0.017 -2.356,-0.439 -3.167,-1.273 -0.814,-0.832 -1.211,-1.9 -1.193,-3.199 l 0.222,-17.665 c 0.025,-2.077 -0.584,-3.599 -1.828,-4.568 -1.243,-0.968 -2.646,-1.462 -4.204,-1.482 -1.558,-0.019 -2.974,0.44 -4.238,1.376 -1.27,0.939 -1.915,2.445 -1.941,4.521 l -0.022,1.818 -0.255,20.262 z" />
            </g>
            <g
               style="fill:none;stroke:#ff0000;stroke-width:2.90270257"
               id="g23">
              <path
                 style="fill:none;stroke:#ff0000;stroke-width:2.90270257"
                 inkscape:connector-curvature="0"
                 id="path25"
                 d="m 363.44,-1482.644 c -0.016,1.213 -0.463,2.247 -1.337,3.102 -0.876,0.854 -1.924,1.274 -3.133,1.26 l -4.417,-0.056 0.406,-32.342 c 0.075,-6.06 1.9,-10.175 5.479,-12.338 3.578,-2.164 7.444,-3.22 11.603,-3.168 2.162,0.027 4.346,0.468 6.544,1.317 2.197,0.851 3.936,2.063 5.214,3.638 2.558,3.41 3.802,7.757 3.735,13.038 -0.068,5.456 -1.422,9.855 -4.063,13.2 -2.64,3.259 -5.993,4.859 -10.062,4.809 -2.167,-0.027 -4.066,-0.439 -5.702,-1.239 -1.723,-0.887 -3.088,-2.247 -4.105,-4.079 l -0.162,12.858 z m 15.126,-25.272 c 0.042,-3.376 -0.574,-5.982 -1.85,-7.816 -1.276,-1.836 -3.128,-2.769 -5.552,-2.799 -2.335,-0.03 -4.167,0.856 -5.489,2.66 -1.232,1.631 -1.872,4.221 -1.917,7.771 -0.042,3.292 0.578,5.768 1.855,7.427 1.277,1.836 3.129,2.768 5.552,2.798 2.25,0.029 4.038,-0.857 5.36,-2.661 1.323,-1.803 2.002,-4.263 2.041,-7.38 z" />
            </g>
            <g
               style="fill:none;stroke:#ff0000;stroke-width:2.90270257"
               id="g27">
              <path
                 style="fill:none;stroke:#ff0000;stroke-width:2.90270257"
                 inkscape:connector-curvature="0"
                 id="path29"
                 d="m 391.528,-1538.682 4.677,0.058 c 1.212,0.016 2.244,0.439 3.101,1.272 0.855,0.836 1.276,1.857 1.262,3.068 l -0.55,43.784 -9.093,-0.114 0.603,-48.068 z" />
            </g>
            <g
               style="fill:none;stroke:#ff0000;stroke-width:2.90270257"
               id="g31">
              <path
                 style="fill:none;stroke:#ff0000;stroke-width:2.90270257"
                 inkscape:connector-curvature="0"
                 id="path33"
                 d="m 435.285,-1524.612 -0.255,20.263 c -0.076,6.151 -1.731,10.157 -4.957,12.02 -3.23,1.866 -6.748,2.773 -10.558,2.725 -3.723,-0.219 -7.108,-1.299 -10.156,-3.244 -3.052,-1.942 -4.538,-5.902 -4.463,-11.878 l 0.255,-20.263 9.091,0.114 -0.277,22.081 c -0.025,2.078 0.56,3.603 1.763,4.569 1.198,0.969 2.58,1.461 4.139,1.48 1.558,0.02 2.97,-0.438 4.239,-1.376 1.266,-0.935 1.914,-2.444 1.94,-4.522 l 0.222,-17.664 c 0.015,-1.212 0.438,-2.247 1.272,-3.103 0.832,-0.854 1.9,-1.275 3.199,-1.259 l 4.546,0.057 z" />
            </g>
            <g
               style="fill:none;stroke:#ff0000;stroke-width:2.90270257"
               id="g35">
              <g
                 style="fill:none;stroke:#ff0000;stroke-width:2.90270257"
                 id="g37">
                <path
                   style="fill:none;stroke:#ff0000;stroke-width:2.90270257"
                   inkscape:connector-curvature="0"
                   id="path39"
                   d="m 448.897,-1534.372 -0.034,13.782 c 0.955,-1.643 2.345,-2.982 4.167,-4.017 1.561,-0.861 3.465,-1.291 5.717,-1.287 4.07,0.011 7.402,1.707 9.992,5.091 2.59,3.384 3.88,7.761 3.864,13.13 -0.011,5.369 -1.321,9.739 -3.927,13.109 -1.304,1.645 -3.06,2.83 -5.269,3.56 -2.212,0.729 -4.4,1.094 -6.564,1.088 -4.157,-0.01 -8.009,-1.098 -11.554,-3.274 -3.546,-2.171 -5.309,-6.333 -5.294,-12.483 l 0.08,-33.136 4.416,0.011 c 1.21,0 2.249,0.44 3.112,1.307 0.865,0.867 1.296,1.907 1.294,3.119 z m 14.743,26.287 c 0.008,-3.117 -0.635,-5.542 -1.929,-7.279 -1.295,-1.82 -3.069,-2.735 -5.32,-2.74 -2.426,-0.01 -4.286,0.857 -5.592,2.585 -1.303,1.815 -1.958,4.281 -1.967,7.398 -0.008,3.638 0.592,6.281 1.8,7.929 1.296,1.821 3.111,2.735 5.451,2.741 2.423,0.01 4.288,-0.899 5.591,-2.715 1.305,-1.815 1.959,-4.453 1.966,-7.919 z" />
              </g>
              <g
                 style="fill:none;stroke:#ff0000;stroke-width:2.90270257"
                 id="g41">
                <path
                   style="fill:none;stroke:#ff0000;stroke-width:2.90270257"
                   inkscape:connector-curvature="0"
                   id="path43"
                   d="m 480.077,-1493.627 c -1.813,-1.563 -3.107,-3.665 -3.879,-6.309 -0.773,-2.643 -1.159,-5.395 -1.15,-8.251 0.005,-2.339 0.336,-4.677 0.993,-7.012 0.653,-2.338 1.674,-4.284 3.065,-5.84 2.256,-2.594 5.162,-4.121 8.715,-4.591 3.55,-0.465 6.755,-0.18 9.609,0.868 3.286,1.307 5.708,3.566 7.258,6.771 1.464,2.863 2.193,6.199 2.185,10.008 -0.007,2.772 -0.316,5.153 -0.926,7.143 -0.613,1.992 -1.396,3.68 -2.35,5.062 -2.088,2.851 -4.734,4.623 -7.938,5.306 -2.86,0.771 -5.74,0.831 -8.638,0.174 -2.901,-0.656 -5.215,-1.766 -6.944,-3.329 z m 6.292,-22.847 c -1.823,1.989 -2.654,4.951 -2.49,8.893 0.163,3.942 0.895,6.691 2.19,8.254 0.518,0.695 1.426,1.282 2.722,1.76 1.3,0.479 2.617,0.526 3.963,0.139 1.341,-0.385 2.535,-1.357 3.579,-2.914 1.043,-1.556 1.61,-4.064 1.706,-7.529 0.007,-3.118 -0.486,-5.457 -1.477,-7.019 -0.994,-1.562 -2.137,-2.559 -3.435,-2.996 -1.297,-0.435 -2.598,-0.461 -3.898,-0.073 -1.298,0.384 -2.254,0.882 -2.86,1.485 z" />
              </g>
            </g>
            <g
               style="fill:none;stroke:#ff0000;stroke-width:2.90270257"
               id="g45">
              <path
                 style="fill:none;stroke:#ff0000;stroke-width:2.90270257"
                 inkscape:connector-curvature="0"
                 id="path47"
                 d="m 525.25,-1490.399 c -2.857,0.166 -5.954,0.115 -9.285,-0.152 -3.337,-0.268 -4.997,-2.394 -4.987,-6.379 l 0.099,-41.578 4.677,0.013 c 1.125,0 2.121,0.438 2.984,1.306 0.863,0.868 1.295,1.908 1.293,3.121 l -0.023,9.233 5.326,0.013 -0.005,1.818 c -0.004,1.299 -0.439,2.358 -1.306,3.179 -0.87,0.822 -1.911,1.23 -3.121,1.229 l -0.91,0 -0.046,19.225 c -0.004,1.474 0.86,2.211 2.594,2.215 l 2.728,0.01 -0.018,6.754 z" />
            </g>
            <path
               id="path49"
               transform="matrix(1.0444448,0,0,1.0444448,86.667181,-1607.505)"
               d="M 32.451172,0.73632812 C 14.348731,0.91920041 -0.1818766,15.746249 0.00195313,33.851562 0.08429352,42.03773 3.1685654,49.485753 8.1875,55.179688 c 3.177765,12.852761 10.023374,25.223806 19.851562,35.40625 14.542656,15.067332 33.366602,23.365232 53,23.365232 14.232443,0 28.080708,-4.01089 40.046878,-11.59961 l -4.89258,-7.716794 c -10.50127,6.659994 -22.656748,10.179684 -35.154298,10.179684 -27.518927,0 -49.93333,-18.572436 -59.996093,-40.68945 3.746488,1.439042 7.816416,2.217909 12.072265,2.175781 C 51.220548,66.117909 65.749279,51.291856 65.566406,33.1875 65.382577,15.082186 50.557443,0.55345584 32.451172,0.73632812 Z M 32.785156,12.064453 A 21.453504,21.453504 0 0 1 54.238281,33.517578 21.453504,21.453504 0 0 1 32.785156,54.972656 21.453504,21.453504 0 0 1 11.332031,33.517578 21.453504,21.453504 0 0 1 32.785156,12.064453 Z"
               style="fill:none;stroke:#ff0000;stroke-width:2.7791822"
               inkscape:connector-curvature="0" />
            <path
               inkscape:connector-curvature="0"
               style="fill:none;stroke:#ff0000;stroke-width:2.90270257"
               d="m 134.363,-1586.413 a 6.7979999,6.7979999 0 0 1 -6.798,6.798 6.7979999,6.7979999 0 0 1 -6.798,-6.798 6.7979999,6.7979999 0 0 1 6.798,-6.798 6.7979999,6.7979999 0 0 1 6.798,6.798 z"
               id="circle53" />
            <g
               style="fill:none;stroke:#ff0000;stroke-width:2.90270257"
               id="g55">
              <path
                 id="circle57"
                 transform="matrix(1.0444448,0,0,1.0444448,86.667181,-1607.505)"
                 d="M 105.24805,0 A 32.783927,32.783927 0 0 0 72.464844,32.783203 32.783927,32.783927 0 0 0 105.24805,65.568359 32.783927,32.783927 0 0 0 138.03125,32.783203 32.783927,32.783927 0 0 0 105.24805,0 Z m 0.002,11.328125 A 21.454462,21.454462 0 0 1 126.70312,32.783203 21.454462,21.454462 0 0 1 105.25,54.238281 21.454462,21.454462 0 0 1 83.794922,32.783203 21.454462,21.454462 0 0 1 105.25,11.328125 Z"
                 style="fill:none;stroke:#ff0000;stroke-width:2.7791822"
                 inkscape:connector-curvature="0" />
            </g>
            <g
               style="fill:none;stroke:#ff0000;stroke-width:2.90270257"
               id="g59" />
            <g
               style="fill:none;stroke:#ff0000;stroke-width:2.90270257"
               id="g63">
              <path
                 inkscape:connector-curvature="0"
                 style="fill:none;stroke:#ff0000;stroke-width:2.90270257"
                 d="m 210.047,-1587.1801 a 6.7969999,6.7969999 0 0 1 -6.797,6.797 6.7969999,6.7969999 0 0 1 -6.797,-6.797 6.7969999,6.7969999 0 0 1 6.797,-6.797 6.7969999,6.7969999 0 0 1 6.797,6.797 z"
                 id="circle65" />
            </g>
          </g>
        </g>
        <g
           style="font-style:normal;font-weight:normal;font-size:10.30084801px;line-height:125%;font-family:sans-serif;letter-spacing:0px;word-spacing:0px;fill:#ff0000;fill-opacity:1;stroke:none;stroke-width:1px;stroke-linecap:butt;stroke-linejoin:miter;stroke-opacity:1"
           id="text4397"
           transform="translate(528.64421,-535.44519)">
          <path
             inkscape:connector-curvature="0"
             d="m -83.267629,1100.2188 0,1.0714 q -0.51303,-0.4779 -1.096477,-0.7143 -0.578416,-0.2363 -1.232279,-0.2363 -1.287606,0 -1.971646,0.7896 -0.684041,0.7847 -0.684041,2.2734 0,1.4838 0.684041,2.2735 0.68404,0.7846 1.971646,0.7846 0.653863,0 1.232279,-0.2364 0.583447,-0.2364 1.096477,-0.7142 l 0,1.0613 q -0.533149,0.3621 -1.131685,0.5432 -0.593505,0.181 -1.257427,0.181 -1.705072,0 -2.685866,-1.0411 -0.980794,-1.0462 -0.980794,-2.8519 0,-1.8107 0.980794,-2.8518 0.980794,-1.0462 2.685866,-1.0462 0.673981,0 1.267487,0.1811 0.598535,0.176 1.121625,0.5331 z"
             id="path4516" />
          <path
             inkscape:connector-curvature="0"
             d="m -76.910074,1104.1018 0,0.4526 -4.255135,0 q 0.06036,0.9557 0.573387,1.4587 0.51806,0.4979 1.438497,0.4979 0.533149,0 1.031091,-0.1308 0.502971,-0.1307 0.995883,-0.3923 l 0,0.8752 q -0.497942,0.2112 -1.021032,0.3219 -0.52309,0.1106 -1.061269,0.1106 -1.347962,0 -2.137627,-0.7846 -0.784635,-0.7846 -0.784635,-2.1225 0,-1.3832 0.744397,-2.193 0.749427,-0.8148 2.016914,-0.8148 1.136715,0 1.795607,0.7343 0.663922,0.7293 0.663922,1.9868 z m -0.925467,-0.2716 q -0.01006,-0.7595 -0.427525,-1.2122 -0.412436,-0.4527 -1.096477,-0.4527 -0.774576,0 -1.242339,0.4376 -0.462733,0.4376 -0.533149,1.2323 l 3.29949,0 z"
             id="path4518" />
          <path
             inkscape:connector-curvature="0"
             d="m -70.70844,1103.7497 0,3.4001 -0.925467,0 0,-3.3699 q 0,-0.7998 -0.311842,-1.1971 -0.311842,-0.3973 -0.935527,-0.3973 -0.749426,0 -1.181982,0.4778 -0.432555,0.4778 -0.432555,1.3027 l 0,3.1838 -0.930496,0 0,-5.6333 0.930496,0 0,0.8752 q 0.331961,-0.508 0.779605,-0.7595 0.452674,-0.2515 1.041151,-0.2515 0.970734,0 1.468675,0.6036 0.497942,0.5985 0.497942,1.7654 z"
             id="path4520" />
          <path
             inkscape:connector-curvature="0"
             d="m -67.93707,1099.9171 0,1.5994 1.90626,0 0,0.7193 -1.90626,0 0,3.058 q 0,0.6891 0.186099,0.8852 0.191129,0.1962 0.769546,0.1962 l 0.950615,0 0,0.7746 -0.950615,0 q -1.071328,0 -1.478735,-0.3974 -0.407407,-0.4023 -0.407407,-1.4586 l 0,-3.058 -0.679011,0 0,-0.7193 0.679011,0 0,-1.5994 0.930497,0 z"
             id="path4522" />
          <path
             inkscape:connector-curvature="0"
             d="m -61.544307,1102.3816 q -0.155921,-0.091 -0.34202,-0.1308 -0.18107,-0.045 -0.402377,-0.045 -0.784635,0 -1.207131,0.513 -0.417466,0.508 -0.417466,1.4637 l 0,2.9675 -0.930496,0 0,-5.6333 0.930496,0 0,0.8752 q 0.291723,-0.5131 0.759487,-0.7595 0.467763,-0.2515 1.136714,-0.2515 0.09557,0 0.211248,0.015 0.115683,0.01 0.256515,0.035 l 0.005,0.9506 z"
             id="path4524" />
          <path
             inkscape:connector-curvature="0"
             d="m -58.601925,1102.1653 q -0.744398,0 -1.176953,0.5835 -0.432555,0.5784 -0.432555,1.5894 0,1.0109 0.427525,1.5944 0.432556,0.5784 1.181983,0.5784 0.739367,0 1.171922,-0.5834 0.432555,-0.5835 0.432555,-1.5894 0,-1.0009 -0.432555,-1.5844 -0.432555,-0.5885 -1.171922,-0.5885 z m 0,-0.7846 q 1.20713,0 1.896201,0.7846 0.68907,0.7847 0.68907,2.1729 0,1.3831 -0.68907,2.1728 -0.689071,0.7846 -1.896201,0.7846 -1.212161,0 -1.901231,-0.7846 -0.684041,-0.7897 -0.684041,-2.1728 0,-1.3882 0.684041,-2.1729 0.68907,-0.7846 1.901231,-0.7846 z"
             id="path4526" />
          <path
             inkscape:connector-curvature="0"
             d="m -47.501354,1102.3716 0,-3.048 0.925466,0 0,7.8262 -0.925466,0 0,-0.845 q -0.291724,0.503 -0.739368,0.7494 -0.442614,0.2414 -1.066299,0.2414 -1.021031,0 -1.664834,-0.8148 -0.638773,-0.8148 -0.638773,-2.1426 0,-1.3279 0.638773,-2.1427 0.643803,-0.8148 1.664834,-0.8148 0.623685,0 1.066299,0.2465 0.447644,0.2414 0.739368,0.7444 z m -3.153629,1.9666 q 0,1.021 0.417466,1.6044 0.422496,0.5785 1.156833,0.5785 0.734338,0 1.156834,-0.5785 0.422496,-0.5834 0.422496,-1.6044 0,-1.0211 -0.422496,-1.5995 -0.422496,-0.5834 -1.156834,-0.5834 -0.734337,0 -1.156833,0.5834 -0.417466,0.5784 -0.417466,1.5995 z"
             id="path4528" />
          <path
             inkscape:connector-curvature="0"
             d="m -39.851164,1104.1018 0,0.4526 -4.255136,0 q 0.06036,0.9557 0.573387,1.4587 0.51806,0.4979 1.438497,0.4979 0.53315,0 1.031091,-0.1308 0.502971,-0.1307 0.995883,-0.3923 l 0,0.8752 q -0.497941,0.2112 -1.021031,0.3219 -0.52309,0.1106 -1.061269,0.1106 -1.347963,0 -2.137628,-0.7846 -0.784634,-0.7846 -0.784634,-2.1225 0,-1.3832 0.744397,-2.193 0.749427,-0.8148 2.016914,-0.8148 1.136715,0 1.795607,0.7343 0.663922,0.7293 0.663922,1.9868 z m -0.925467,-0.2716 q -0.01006,-0.7595 -0.427526,-1.2122 -0.412436,-0.4527 -1.096477,-0.4527 -0.774575,0 -1.242338,0.4376 -0.462734,0.4376 -0.53315,1.2323 l 3.299491,0 z"
             id="path4530" />
          <path
             inkscape:connector-curvature="0"
             d="m -31.451545,1103.629 q 0.326932,0.1106 0.633744,0.4728 0.311842,0.3621 0.623684,0.9959 l 1.031091,2.0521 -1.091447,0 -0.960675,-1.9264 q -0.372199,-0.7545 -0.724279,-1.0009 -0.34705,-0.2465 -0.950615,-0.2465 l -1.106536,0 0,3.1738 -1.016002,0 0,-7.5094 2.293548,0 q 1.287606,0 1.92135,0.5382 0.633743,0.5382 0.633743,1.6246 0,0.7092 -0.331961,1.1769 -0.326931,0.4678 -0.955645,0.6489 z m -2.545033,-3.1536 0,2.6657 1.277546,0 q 0.734338,0 1.106537,-0.337 0.377228,-0.342 0.377228,-1.0009 0,-0.6589 -0.377228,-0.9909 -0.372199,-0.3369 -1.106537,-0.3369 l -1.277546,0 z"
             id="path4532" />
          <path
             inkscape:connector-curvature="0"
             d="m -26.17035,1102.1653 q -0.744397,0 -1.176952,0.5835 -0.432555,0.5784 -0.432555,1.5894 0,1.0109 0.427525,1.5944 0.432555,0.5784 1.181982,0.5784 0.739368,0 1.171923,-0.5834 0.432555,-0.5835 0.432555,-1.5894 0,-1.0009 -0.432555,-1.5844 -0.432555,-0.5885 -1.171923,-0.5885 z m 0,-0.7846 q 1.207131,0 1.896201,0.7846 0.689071,0.7847 0.689071,2.1729 0,1.3831 -0.689071,2.1728 -0.68907,0.7846 -1.896201,0.7846 -1.21216,0 -1.90123,-0.7846 -0.684041,-0.7897 -0.684041,-2.1728 0,-1.3882 0.684041,-2.1729 0.68907,-0.7846 1.90123,-0.7846 z"
             id="path4534" />
          <path
             inkscape:connector-curvature="0"
             d="m -18.012157,1104.3382 q 0,-1.0211 -0.422496,-1.5995 -0.417466,-0.5834 -1.151804,-0.5834 -0.734338,0 -1.156833,0.5834 -0.417466,0.5784 -0.417466,1.5995 0,1.021 0.417466,1.6044 0.422495,0.5785 1.156833,0.5785 0.734338,0 1.151804,-0.5785 0.422496,-0.5834 0.422496,-1.6044 z m -3.148599,-1.9666 q 0.291723,-0.503 0.734337,-0.7444 0.447645,-0.2465 1.066299,-0.2465 1.026061,0 1.664834,0.8148 0.643803,0.8148 0.643803,2.1427 0,1.3278 -0.643803,2.1426 -0.638773,0.8148 -1.664834,0.8148 -0.618654,0 -1.066299,-0.2414 -0.442614,-0.2464 -0.734337,-0.7494 l 0,0.845 -0.930497,0 0,-7.8262 0.930497,0 0,3.048 z"
             id="path4536" />
          <path
             inkscape:connector-curvature="0"
             d="m -13.33453,1102.1653 q -0.744398,0 -1.176953,0.5835 -0.432555,0.5784 -0.432555,1.5894 0,1.0109 0.427526,1.5944 0.432555,0.5784 1.181982,0.5784 0.739367,0 1.171922,-0.5834 0.432555,-0.5835 0.432555,-1.5894 0,-1.0009 -0.432555,-1.5844 -0.432555,-0.5885 -1.171922,-0.5885 z m 0,-0.7846 q 1.20713,0 1.896201,0.7846 0.68907,0.7847 0.68907,2.1729 0,1.3831 -0.68907,2.1728 -0.689071,0.7846 -1.896201,0.7846 -1.212161,0 -1.901231,-0.7846 -0.684041,-0.7897 -0.684041,-2.1728 0,-1.3882 0.684041,-2.1729 0.68907,-0.7846 1.901231,-0.7846 z m 0.699129,-2.4696 1.000913,0 -1.639686,1.8912 -0.769546,0 1.408319,-1.8912 z"
             id="path4538" />
          <path
             inkscape:connector-curvature="0"
             d="m -8.3048145,1099.9171 0,1.5994 1.9062604,0 0,0.7193 -1.9062604,0 0,3.058 q 0,0.6891 0.1860993,0.8852 0.191129,0.1962 0.7695458,0.1962 l 0.9506153,0 0,0.7746 -0.9506153,0 q -1.0713285,0 -1.4787351,-0.3974 -0.4074065,-0.4023 -0.4074065,-1.4586 l 0,-3.058 -0.679011,0 0,-0.7193 0.679011,0 0,-1.5994 0.9304965,0 z"
             id="path4540" />
          <path
             inkscape:connector-curvature="0"
             d="m -5.1763376,1101.5165 0.9254668,0 0,5.6333 -0.9254668,0 0,-5.6333 z m 0,-2.1929 0.9254668,0 0,1.1719 -0.9254668,0 0,-1.1719 z"
             id="path4542" />
          <path
             inkscape:connector-curvature="0"
             d="m 1.7344896,1101.7328 0,0.8651 q -0.3923175,-0.2163 -0.78966464,-0.3219 -0.39231745,-0.1107 -0.79469433,-0.1107 -0.90031826,0 -1.39825963,0.5734 -0.4979414,0.5684 -0.4979414,1.5995 0,1.0311 0.4979414,1.6044 0.49794137,0.5684 1.39825963,0.5684 0.40237688,0 0.79469433,-0.1056 0.39734714,-0.1107 0.78966464,-0.3269 l 0,0.855 q -0.3872878,0.1811 -0.80475377,0.2716 -0.4124363,0.091 -0.88019942,0.091 -1.27251691,0 -2.02194381,-0.7997 -0.7494269,-0.7997 -0.7494269,-2.1577 0,-1.3782 0.7544566,-2.1678 0.7594864,-0.7897 2.07727065,-0.7897 0.42752543,0 0.83493201,0.091 0.40740654,0.086 0.78966464,0.2616 z"
             id="path4544" />
          <path
             inkscape:connector-curvature="0"
             d="m 5.9141808,1104.3181 q -1.1216256,0 -1.5541807,0.2565 -0.4325552,0.2565 -0.4325552,0.8751 0,0.4929 0.3219015,0.7847 0.3269312,0.2867 0.8852292,0.2867 0.7695457,0 1.2322791,-0.5432 0.4677632,-0.5483 0.4677632,-1.4536 l 0,-0.2062 -0.9204371,0 z m 1.8459039,-0.3823 0,3.214 -0.9254668,0 0,-0.8551 q -0.3168718,0.5131 -0.7896647,0.7595 -0.4727928,0.2414 -1.1568335,0.2414 -0.8651103,0 -1.3781408,-0.4828 -0.5080008,-0.4879 -0.5080008,-1.3027 0,-0.9506 0.6337436,-1.4335 0.6387733,-0.4828 1.9012307,-0.4828 l 1.2976655,0 0,-0.091 q 0,-0.6387 -0.4224958,-0.9858 -0.417466,-0.3521 -1.1769523,-0.3521 -0.4828523,0 -0.940556,0.1157 -0.4577037,0.1157 -0.8801994,0.3471 l 0,-0.8551 q 0.5080008,-0.1961 0.9858234,-0.2917 0.4778225,-0.1006 0.9304965,-0.1006 1.2222197,0 1.8257851,0.6337 0.6035653,0.6338 0.6035653,1.9214 z"
             id="path4546" />
          <path
             inkscape:connector-curvature="0"
             d="m 12.990983,1099.6404 4.748047,0 0,0.8551 -3.732046,0 0,2.2231 3.576125,0 0,0.8551 -3.576125,0 0,2.721 3.822581,0 0,0.8551 -4.838582,0 0,-7.5094 z"
             id="path4548" />
          <path
             inkscape:connector-curvature="0"
             d="m 23.176143,1102.3716 0,-3.048 0.925467,0 0,7.8262 -0.925467,0 0,-0.845 q -0.291723,0.503 -0.739367,0.7494 -0.442615,0.2414 -1.066299,0.2414 -1.021031,0 -1.664834,-0.8148 -0.638773,-0.8148 -0.638773,-2.1426 0,-1.3279 0.638773,-2.1427 0.643803,-0.8148 1.664834,-0.8148 0.623684,0 1.066299,0.2465 0.447644,0.2414 0.739367,0.7444 z m -3.153628,1.9666 q 0,1.021 0.417466,1.6044 0.422495,0.5785 1.156833,0.5785 0.734338,0 1.156834,-0.5785 0.422495,-0.5834 0.422495,-1.6044 0,-1.0211 -0.422495,-1.5995 -0.422496,-0.5834 -1.156834,-0.5834 -0.734338,0 -1.156833,0.5834 -0.417466,0.5784 -0.417466,1.5995 z"
             id="path4550" />
          <path
             inkscape:connector-curvature="0"
             d="m 25.91231,1104.9266 0,-3.4101 0.925466,0 0,3.3749 q 0,0.7998 0.311842,1.2021 0.311843,0.3974 0.935527,0.3974 0.749427,0 1.181982,-0.4778 0.437585,-0.4779 0.437585,-1.3027 l 0,-3.1939 0.925466,0 0,5.6333 -0.925466,0 0,-0.8651 q -0.336991,0.513 -0.784635,0.7645 -0.442615,0.2464 -1.031091,0.2464 -0.970734,0 -1.473705,-0.6035 -0.502971,-0.6036 -0.502971,-1.7655 z m 2.328756,-3.5459 0,0 z"
             id="path4552" />
          <path
             inkscape:connector-curvature="0"
             d="m 36.600441,1101.7328 0,0.8651 q -0.392317,-0.2163 -0.789664,-0.3219 -0.392318,-0.1107 -0.794695,-0.1107 -0.900318,0 -1.398259,0.5734 -0.497942,0.5684 -0.497942,1.5995 0,1.0311 0.497942,1.6044 0.497941,0.5684 1.398259,0.5684 0.402377,0 0.794695,-0.1056 0.397347,-0.1107 0.789664,-0.3269 l 0,0.855 q -0.387288,0.1811 -0.804754,0.2716 -0.412436,0.091 -0.880199,0.091 -1.272517,0 -2.021944,-0.7997 -0.749427,-0.7997 -0.749427,-2.1577 0,-1.3782 0.754457,-2.1678 0.759486,-0.7897 2.07727,-0.7897 0.427526,0 0.834933,0.091 0.407406,0.086 0.789664,0.2616 z"
             id="path4554" />
          <path
             inkscape:connector-curvature="0"
             d="m 40.780132,1104.3181 q -1.121625,0 -1.55418,0.2565 -0.432556,0.2565 -0.432556,0.8751 0,0.4929 0.321902,0.7847 0.326931,0.2867 0.885229,0.2867 0.769546,0 1.232279,-0.5432 0.467763,-0.5483 0.467763,-1.4536 l 0,-0.2062 -0.920437,0 z m 1.845904,-0.3823 0,3.214 -0.925467,0 0,-0.8551 q -0.316871,0.5131 -0.789664,0.7595 -0.472793,0.2414 -1.156834,0.2414 -0.86511,0 -1.378141,-0.4828 -0.508,-0.4879 -0.508,-1.3027 0,-0.9506 0.633743,-1.4335 0.638774,-0.4828 1.901231,-0.4828 l 1.297665,0 0,-0.091 q 0,-0.6387 -0.422495,-0.9858 -0.417466,-0.3521 -1.176953,-0.3521 -0.482852,0 -0.940556,0.1157 -0.457703,0.1157 -0.880199,0.3471 l 0,-0.8551 q 0.508001,-0.1961 0.985823,-0.2917 0.477823,-0.1006 0.930497,-0.1006 1.22222,0 1.825785,0.6337 0.603565,0.6338 0.603565,1.9214 z"
             id="path4556" />
          <path
             inkscape:connector-curvature="0"
             d="m 45.452739,1099.9171 0,1.5994 1.90626,0 0,0.7193 -1.90626,0 0,3.058 q 0,0.6891 0.186099,0.8852 0.191129,0.1962 0.769546,0.1962 l 0.950615,0 0,0.7746 -0.950615,0 q -1.071329,0 -1.478735,-0.3974 -0.407407,-0.4023 -0.407407,-1.4586 l 0,-3.058 -0.679011,0 0,-0.7193 0.679011,0 0,-1.5994 0.930497,0 z"
             id="path4558" />
          <path
             inkscape:connector-curvature="0"
             d="m 48.581215,1101.5165 0.925467,0 0,5.6333 -0.925467,0 0,-5.6333 z m 0,-2.1929 0.925467,0 0,1.1719 -0.925467,0 0,-1.1719 z"
             id="path4560" />
          <path
             inkscape:connector-curvature="0"
             d="m 50.774166,1101.5165 0.980794,0 1.760399,4.7279 1.760398,-4.7279 0.980794,0 -2.112478,5.6333 -1.257428,0 -2.112479,-5.6333 z"
             id="path4562" />
          <path
             inkscape:connector-curvature="0"
             d="m 60.094219,1104.3181 q -1.121625,0 -1.55418,0.2565 -0.432556,0.2565 -0.432556,0.8751 0,0.4929 0.321902,0.7847 0.326931,0.2867 0.885229,0.2867 0.769546,0 1.232279,-0.5432 0.467763,-0.5483 0.467763,-1.4536 l 0,-0.2062 -0.920437,0 z m 1.845904,-0.3823 0,3.214 -0.925467,0 0,-0.8551 q -0.316871,0.5131 -0.789664,0.7595 -0.472793,0.2414 -1.156834,0.2414 -0.86511,0 -1.378141,-0.4828 -0.508,-0.4879 -0.508,-1.3027 0,-0.9506 0.633743,-1.4335 0.638773,-0.4828 1.901231,-0.4828 l 1.297665,0 0,-0.091 q 0,-0.6387 -0.422495,-0.9858 -0.417466,-0.3521 -1.176953,-0.3521 -0.482852,0 -0.940556,0.1157 -0.457703,0.1157 -0.880199,0.3471 l 0,-0.8551 q 0.508001,-0.1961 0.985823,-0.2917 0.477823,-0.1006 0.930497,-0.1006 1.222219,0 1.825785,0.6337 0.603565,0.6338 0.603565,1.9214 z"
             id="path4564" />
        </g>
      </g>
    </g>
  </g>
</svg>
