  0
SECTION
  2
HEADER
  9
$ACADVER
  1
AC1014
  9
$HANDSEED
  5
FFFF
  9
$MEASUREMENT
 70
     1
  0
ENDSEC
  0
SECTION
  2
TABLES
  0
TABLE
  2
VPORT
  5
8
330
0
100
AcDbSymbolTable
 70
     4
  0
VPORT
  5
2E
330
8
100
AcDbSymbolTableRecord
100
AcDbViewportTableRecord
  2
*ACTIVE
 70
     0
 10
0.0
 20
0.0
 11
1.0
 21
1.0
 12
210.0
 22
148.5
 13
0.0
 23
0.0
 14
10.0
 24
10.0
 15
10.0
 25
10.0
 16
0.0
 26
0.0
 36
1.0
 17
0.0
 27
0.0
 37
0.0
 40
341.0
 41
1.24
 42
50.0
 43
0.0
 44
0.0
 50
0.0
 51
0.0
 71
     0
 72
   100
 73
     1
 74
     3
 75
     0
 76
     0
 77
     0
 78
     0
  0
ENDTAB
  0
TABLE
  2
LTYPE
  5
5
330
0
100
AcDbSymbolTable
 70
     1
  0
LTYPE
  5
14
330
5
100
AcDbSymbolTableRecord
100
AcDbLinetypeTableRecord
  2
BYBLOCK
 70
     0
  3

 72
    65
 73
     0
 40
0.0
  0
LTYPE
  5
15
330
5
100
AcDbSymbolTableRecord
100
AcDbLinetypeTableRecord
  2
BYLAYER
 70
     0
  3

 72
    65
 73
     0
 40
0.0
  0
LTYPE
  5
16
330
5
100
AcDbSymbolTableRecord
100
AcDbLinetypeTableRecord
  2
CONTINUOUS
 70
     0
  3
Solid line
 72
    65
 73
     0
 40
0.0
  0
ENDTAB
  0
TABLE
  2
LAYER
  5
2
100
AcDbSymbolTable
 70
2
  0
LAYER
  5
50
100
AcDbSymbolTableRecord
100
AcDbLayerTableRecord
  2
0
 70
0
  6
CONTINUOUS
  0
LAYER
  5
51
100
AcDbSymbolTableRecord
100
AcDbLayerTableRecord
  2
Capa_1
 70
0
  6
CONTINUOUS
  0
ENDTAB
  0
TABLE
  2
STYLE
  5
3
330
0
100
AcDbSymbolTable
 70
     1
  0
STYLE
  5
11
330
3
100
AcDbSymbolTableRecord
100
AcDbTextStyleTableRecord
  2
STANDARD
 70
     0
 40
0.0
 41
1.0
 50
0.0
 71
     0
 42
2.5
  3
txt
  4

  0
ENDTAB
  0
TABLE
  2
VIEW
  5
6
330
0
100
AcDbSymbolTable
 70
     0
  0
ENDTAB
  0
TABLE
  2
UCS
  5
7
330
0
100
AcDbSymbolTable
 70
     0
  0
ENDTAB
  0
TABLE
  2
APPID
  5
9
330
0
100
AcDbSymbolTable
 70
     2
  0
APPID
  5
12
330
9
100
AcDbSymbolTableRecord
100
AcDbRegAppTableRecord
  2
ACAD
 70
     0
  0
ENDTAB
  0
TABLE
  2
DIMSTYLE
  5
A
330
0
100
AcDbSymbolTable
 70
     1
  0
DIMSTYLE
105
27
330
A
100
AcDbSymbolTableRecord
100
AcDbDimStyleTableRecord
  2
ISO-25
 70
     0
  3

  4

  5

  6

  7

 40
1.0
 41
2.5
 42
0.625
 43
3.75
 44
1.25
 45
0.0
 46
0.0
 47
0.0
 48
0.0
140
2.5
141
2.5
142
0.0
143
0.03937007874016
144
1.0
145
0.0
146
1.0
147
0.625
 71
     0
 72
     0
 73
     0
 74
     0
 75
     0
 76
     0
 77
     1
 78
     8
170
     0
171
     3
172
     1
173
     0
174
     0
175
     0
176
     0
177
     0
178
     0
270
     2
271
     2
272
     2
273
     2
274
     3
340
11
275
     0
280
     0
281
     0
282
     0
283
     0
284
     8
285
     0
286
     0
287
     3
288
     0
  0
ENDTAB
  0
TABLE
  2
BLOCK_RECORD
  5
1
330
0
100
AcDbSymbolTable
 70
     1
  0
BLOCK_RECORD
  5
1F
330
1
100
AcDbSymbolTableRecord
100
AcDbBlockTableRecord
  2
*MODEL_SPACE
  0
BLOCK_RECORD
  5
1B
330
1
100
AcDbSymbolTableRecord
100
AcDbBlockTableRecord
  2
*PAPER_SPACE
  0
ENDTAB
  0
ENDSEC
  0
SECTION
  2
BLOCKS
  0
BLOCK
  5
20
330
1F
100
AcDbEntity
  8
0
100
AcDbBlockBegin
  2
*MODEL_SPACE
 70
     0
 10
0.0
 20
0.0
 30
0.0
  3
*MODEL_SPACE
  1

  0
ENDBLK
  5
21
330
1F
100
AcDbEntity
  8
0
100
AcDbBlockEnd
  0
BLOCK
  5
1C
330
1B
100
AcDbEntity
 67
     1
  8
0
100
AcDbBlockBegin
  2
*PAPER_SPACE
  1

  0
ENDBLK
  5
1D
330
1B
100
AcDbEntity
 67
     1
  8
0
100
AcDbBlockEnd
  0
ENDSEC
  0
SECTION
  2
ENTITIES
  0
LINE
  5
100
100
AcDbEntity
  8
Capa_1
 62
7
100
AcDbLine
 10
0.141111
 20
25.858889
 30
0.0
 11
49.858891
 21
25.858889
 31
0.0
  0
LINE
  5
101
100
AcDbEntity
  8
Capa_1
 62
7
100
AcDbLine
 10
49.858891
 20
25.858889
 30
0.0
 11
49.858891
 21
0.141104
 31
0.0
  0
LINE
  5
102
100
AcDbEntity
  8
Capa_1
 62
7
100
AcDbLine
 10
49.858891
 20
0.141104
 30
0.0
 11
0.141111
 21
0.141104
 31
0.0
  0
LINE
  5
103
100
AcDbEntity
  8
Capa_1
 62
7
100
AcDbLine
 10
0.141111
 20
0.141104
 30
0.0
 11
0.141111
 21
25.858889
 31
0.0
  0
LINE
  5
104
100
AcDbEntity
  8
Capa_1
 62
7
100
AcDbLine
 10
19.233796
 20
13.000018
 30
0.0
 11
19.233796
 21
13.000018
 31
0.0
  0
SPLINE
  5
105
100
AcDbEntity
  8
Capa_1
 62
7
100
AcDbSpline
 70
0
 71
3
 72
25
 73
21
 74
19
 40
0.000000
 40
0.000000
 40
0.000000
 40
0.000000
 40
2.057262
 40
4.097499
 40
6.154761
 40
8.212022
 40
10.252259
 40
12.309521
 40
14.366783
 40
16.407020
 40
18.464281
 40
20.521543
 40
22.561780
 40
24.619042
 40
28.728130
 40
32.715343
 40
36.824430
 40
40.933518
 40
44.920731
 40
49.029818
 40
49.029818
 40
49.029818
 40
49.029818
 10
19.233796
 20
13.000018
 30
0.0
 10
19.181408
 20
12.312299
 30
0.0
 10
19.077065
 20
10.942552
 30
0.0
 10
18.252470
 20
9.025652
 30
0.0
 10
16.997931
 20
7.378737
 30
0.0
 10
15.348808
 20
6.115954
 30
0.0
 10
13.432498
 20
5.321948
 30
0.0
 10
11.374873
 20
5.050324
 30
0.0
 10
9.317454
 20
5.321952
 30
0.0
 10
7.400530
 20
6.115937
 30
0.0
 10
5.753673
 20
7.378802
 30
0.0
 10
4.490696
 20
9.025408
 30
0.0
 10
3.697420
 20
10.943457
 30
0.0
 10
3.331604
 20
13.681070
 30
0.0
 10
4.254083
 20
17.118621
 30
0.0
 10
7.258255
 20
20.119300
 30
0.0
 10
11.382037
 20
21.234029
 30
0.0
 10
15.463464
 20
20.120196
 30
0.0
 10
18.592191
 20
17.115116
 30
0.0
 10
19.017792
 20
14.385414
 30
0.0
 10
19.233796
 20
13.000018
 30
0.0
 11
19.233796
 21
13.000018
 31
0.0
 11
18.964549
 21
10.960451
 31
0.0
 11
18.183786
 21
9.075517
 31
0.0
 11
16.931985
 21
7.442936
 31
0.0
 11
15.299406
 21
6.191132
 31
0.0
 11
13.414474
 21
5.410367
 31
0.0
 11
11.374907
 21
5.141116
 31
0.0
 11
9.335341
 21
5.410367
 31
0.0
 11
7.450408
 21
6.191132
 31
0.0
 11
5.817830
 21
7.442936
 31
0.0
 11
4.566028
 21
9.075517
 31
0.0
 11
3.785266
 21
10.960451
 31
0.0
 11
3.516018
 21
13.000018
 31
0.0
 11
4.588992
 21
16.966544
 31
0.0
 11
7.408380
 21
19.785927
 31
0.0
 11
11.374907
 21
20.858893
 31
0.0
 11
15.341435
 21
19.785927
 31
0.0
 11
18.160823
 21
16.966543
 31
0.0
 11
19.233796
 21
13.000018
 31
0.0
  0
LINE
  5
106
100
AcDbEntity
  8
Capa_1
 62
7
100
AcDbLine
 10
45.233797
 20
13.000018
 30
0.0
 11
45.233797
 21
13.000018
 31
0.0
  0
LINE
  5
107
100
AcDbEntity
  8
Capa_1
 62
7
100
AcDbLine
 10
20.268476
 20
22.171052
 30
0.0
 11
28.285351
 21
22.171052
 31
0.0
  0
SPLINE
  5
108
100
AcDbEntity
  8
Capa_1
 62
7
100
AcDbSpline
 70
0
 71
3
 72
25
 73
21
 74
19
 40
0.000000
 40
0.000000
 40
0.000000
 40
0.000000
 40
2.057262
 40
4.097499
 40
6.154761
 40
8.212023
 40
10.252260
 40
12.309522
 40
14.366784
 40
16.407021
 40
18.464282
 40
20.521544
 40
22.561781
 40
24.619042
 40
28.728130
 40
32.715343
 40
36.824430
 40
40.933518
 40
44.920731
 40
49.029819
 40
49.029819
 40
49.029819
 40
49.029819
 10
45.233797
 20
13.000018
 30
0.0
 10
45.181409
 20
12.312299
 30
0.0
 10
45.077065
 20
10.942552
 30
0.0
 10
44.252471
 20
9.025651
 30
0.0
 10
42.997931
 20
7.378737
 30
0.0
 10
41.348808
 20
6.115954
 30
0.0
 10
39.432497
 20
5.321948
 30
0.0
 10
37.374873
 20
5.050324
 30
0.0
 10
35.317454
 20
5.321953
 30
0.0
 10
33.400530
 20
6.115937
 30
0.0
 10
31.753673
 20
7.378803
 30
0.0
 10
30.490696
 20
9.025408
 30
0.0
 10
29.697421
 20
10.943457
 30
0.0
 10
29.331604
 20
13.681070
 30
0.0
 10
30.254083
 20
17.118621
 30
0.0
 10
33.258255
 20
20.119300
 30
0.0
 10
37.382037
 20
21.234029
 30
0.0
 10
41.463464
 20
20.120197
 30
0.0
 10
44.592192
 20
17.115117
 30
0.0
 10
45.017793
 20
14.385414
 30
0.0
 10
45.233797
 20
13.000018
 30
0.0
 11
45.233797
 21
13.000018
 31
0.0
 11
44.964550
 21
10.960451
 31
0.0
 11
44.183787
 21
9.075516
 31
0.0
 11
42.931986
 21
7.442936
 31
0.0
 11
41.299407
 21
6.191132
 31
0.0
 11
39.414473
 21
5.410366
 31
0.0
 11
37.374907
 21
5.141116
 31
0.0
 11
35.335341
 21
5.410367
 31
0.0
 11
33.450408
 21
6.191133
 31
0.0
 11
31.817830
 21
7.442936
 31
0.0
 11
30.566029
 21
9.075517
 31
0.0
 11
29.785266
 21
10.960451
 31
0.0
 11
29.516019
 21
13.000018
 31
0.0
 11
30.588992
 21
16.966543
 31
0.0
 11
33.408380
 21
19.785927
 31
0.0
 11
37.374907
 21
20.858893
 31
0.0
 11
41.341435
 21
19.785927
 31
0.0
 11
44.160824
 21
16.966544
 31
0.0
 11
45.233797
 21
13.000018
 31
0.0
  0
LINE
  5
109
100
AcDbEntity
  8
Capa_1
 62
7
100
AcDbLine
 10
29.635802
 20
20.820599
 30
0.0
 11
29.635802
 21
19.803724
 31
0.0
  0
SPLINE
  5
10a
100
AcDbEntity
  8
Capa_1
 62
7
100
AcDbSpline
 70
0
 71
3
 72
10
 73
6
 74
4
 40
0.000000
 40
0.000000
 40
0.000000
 40
0.000000
 40
0.706956
 40
1.391381
 40
2.098338
 40
2.098338
 40
2.098338
 40
2.098338
 10
28.285351
 20
22.171052
 30
0.0
 10
28.522358
 20
22.134199
 30
0.0
 10
28.988820
 20
22.061668
 30
0.0
 10
29.526419
 20
21.524068
 30
0.0
 10
29.598949
 20
21.057606
 30
0.0
 10
29.635802
 20
20.820599
 30
0.0
 11
28.285351
 21
22.171052
 31
0.0
 11
28.967979
 21
21.987190
 31
0.0
 11
29.451941
 21
21.503228
 31
0.0
 11
29.635802
 21
20.820599
 31
0.0
  0
LINE
  5
10b
100
AcDbEntity
  8
Capa_1
 62
7
100
AcDbLine
 10
28.285351
 20
18.453273
 30
0.0
 11
20.268476
 21
18.453273
 31
0.0
  0
SPLINE
  5
10c
100
AcDbEntity
  8
Capa_1
 62
7
100
AcDbSpline
 70
0
 71
3
 72
10
 73
6
 74
4
 40
0.000000
 40
0.000000
 40
0.000000
 40
0.000000
 40
0.706955
 40
1.391380
 40
2.098335
 40
2.098335
 40
2.098335
 40
2.098335
 10
29.635802
 20
19.803724
 30
0.0
 10
29.598949
 20
19.566716
 30
0.0
 10
29.526418
 20
19.100255
 30
0.0
 10
28.988820
 20
18.562657
 30
0.0
 10
28.522358
 20
18.490126
 30
0.0
 10
28.285351
 20
18.453273
 30
0.0
 11
29.635802
 21
19.803724
 31
0.0
 11
29.451941
 21
19.121096
 31
0.0
 11
28.967979
 21
18.637135
 31
0.0
 11
28.285351
 21
18.453273
 31
0.0
  0
LINE
  5
10d
100
AcDbEntity
  8
Capa_1
 62
7
100
AcDbLine
 10
18.918025
 20
19.803724
 30
0.0
 11
18.918025
 21
20.820599
 31
0.0
  0
SPLINE
  5
10e
100
AcDbEntity
  8
Capa_1
 62
7
100
AcDbSpline
 70
0
 71
3
 72
10
 73
6
 74
4
 40
0.000000
 40
0.000000
 40
0.000000
 40
0.000000
 40
0.706956
 40
1.391381
 40
2.098335
 40
2.098335
 40
2.098335
 40
2.098335
 10
20.268476
 20
18.453273
 30
0.0
 10
20.031469
 20
18.490126
 30
0.0
 10
19.565007
 20
18.562657
 30
0.0
 10
19.027408
 20
19.100255
 30
0.0
 10
18.954878
 20
19.566716
 30
0.0
 10
18.918025
 20
19.803724
 30
0.0
 11
20.268476
 21
18.453273
 31
0.0
 11
19.585848
 21
18.637135
 31
0.0
 11
19.101886
 21
19.121096
 31
0.0
 11
18.918025
 21
19.803724
 31
0.0
  0
LINE
  5
10f
100
AcDbEntity
  8
Capa_1
 62
7
100
AcDbLine
 10
20.268476
 20
22.171052
 30
0.0
 11
20.268476
 21
22.171052
 31
0.0
  0
SPLINE
  5
110
100
AcDbEntity
  8
Capa_1
 62
7
100
AcDbSpline
 70
0
 71
3
 72
10
 73
6
 74
4
 40
0.000000
 40
0.000000
 40
0.000000
 40
0.000000
 40
0.706957
 40
1.391382
 40
2.098338
 40
2.098338
 40
2.098338
 40
2.098338
 10
18.918025
 20
20.820599
 30
0.0
 10
18.954878
 20
21.057606
 30
0.0
 10
19.027408
 20
21.524068
 30
0.0
 10
19.565007
 20
22.061668
 30
0.0
 10
20.031469
 20
22.134199
 30
0.0
 10
20.268476
 20
22.171052
 30
0.0
 11
18.918025
 21
20.820599
 31
0.0
 11
19.101886
 21
21.503228
 31
0.0
 11
19.585848
 21
21.987190
 31
0.0
 11
20.268476
 21
22.171052
 31
0.0
  0
ENDSEC
  0
SECTION
  2
OBJECTS
  0
DICTIONARY
  5
C
330
0
100
AcDbDictionary
  3
ACAD_GROUP
350
D
  3
ACAD_MLINESTYLE
350
17
  0
DICTIONARY
  5
D
330
C
100
AcDbDictionary
  0
DICTIONARY
  5
1A
330
C
100
AcDbDictionary
  0
DICTIONARY
  5
17
330
C
100
AcDbDictionary
  3
STANDARD
350
18
  0
DICTIONARY
  5
19
330
C
100
AcDbDictionary
  0
ENDSEC
  0
EOF
