<?xml version="1.0" encoding="UTF-8" standalone="no"?>
<svg
   xmlns:dc="http://purl.org/dc/elements/1.1/"
   xmlns:cc="http://creativecommons.org/ns#"
   xmlns:rdf="http://www.w3.org/1999/02/22-rdf-syntax-ns#"
   xmlns:svg="http://www.w3.org/2000/svg"
   xmlns="http://www.w3.org/2000/svg"
   xmlns:sodipodi="http://sodipodi.sourceforge.net/DTD/sodipodi-0.dtd"
   xmlns:inkscape="http://www.inkscape.org/namespaces/inkscape"
   width="569.24725"
   height="579.07574"
   id="svg3336"
   version="1.1"
   inkscape:version="0.92.0 r15299"
   sodipodi:docname="Refuerzos_inferiores.svg">
  <metadata
     id="metadata4078">
    <rdf:RDF>
      <cc:Work
         rdf:about="">
        <dc:format>image/svg+xml</dc:format>
        <dc:type
           rdf:resource="http://purl.org/dc/dcmitype/StillImage" />
        <dc:title></dc:title>
      </cc:Work>
    </rdf:RDF>
  </metadata>
  <sodipodi:namedview
     pagecolor="#ffffff"
     bordercolor="#666666"
     borderopacity="1"
     objecttolerance="10"
     gridtolerance="10"
     guidetolerance="10"
     inkscape:pageopacity="0"
     inkscape:pageshadow="2"
     inkscape:window-width="1920"
     inkscape:window-height="1001"
     id="namedview4076"
     showgrid="false"
     inkscape:zoom="0.7502797"
     inkscape:cx="6.8537661"
     inkscape:cy="213.21467"
     inkscape:window-x="-9"
     inkscape:window-y="-9"
     inkscape:window-maximized="1"
     inkscape:current-layer="g3356"
     showguides="true"
     inkscape:guide-bbox="true"
     fit-margin-top="0"
     fit-margin-left="0"
     fit-margin-right="0"
     fit-margin-bottom="0">
    <sodipodi:guide
       position="-808.63759,285.60713"
       orientation="0,1"
       id="guide5495"
       inkscape:locked="false" />
    <sodipodi:guide
       position="-868.88943,232.44374"
       orientation="1,0"
       id="guide5497"
       inkscape:locked="false" />
    <sodipodi:guide
       position="-197.38849,517.19884"
       orientation="0,1"
       id="guide5499"
       inkscape:locked="false" />
    <sodipodi:guide
       position="-401.76042,285.60713"
       orientation="1,0"
       id="guide5501"
       inkscape:locked="false" />
    <sodipodi:guide
       position="-382.26376,52.62572"
       orientation="0,1"
       id="guide7343"
       inkscape:locked="false" />
    <sodipodi:guide
       position="-741.03505,634.65044"
       orientation="0,1"
       id="guide7345"
       inkscape:locked="false" />
    <sodipodi:guide
       position="-739.14156,323.48673"
       orientation="1,0"
       id="guide7347"
       inkscape:locked="false" />
    <sodipodi:guide
       position="-304.48853,241.51988"
       orientation="0,1"
       id="guide7395"
       inkscape:locked="false" />
    <sodipodi:guide
       position="-310.2517,558.39695"
       orientation="0,1"
       id="guide7397"
       inkscape:locked="false" />
    <sodipodi:guide
       position="-292.52635,559.94671"
       orientation="1,0"
       id="guide7399"
       inkscape:locked="false" />
    <sodipodi:guide
       position="-699.48888,210.24819"
       orientation="0,1"
       id="guide10884"
       inkscape:locked="false" />
    <sodipodi:guide
       position="-731.33722,163.23397"
       orientation="1,0"
       id="guide10886"
       inkscape:locked="false" />
  </sodipodi:namedview>
  <desc
     id="desc3338">\\192.168.1.102\Aula\Rosetta\Alien_Soccer_2017\Alien_Corte_Laser\Alien_motor_base_03.dxf - scale = 1.000000, origin = (0.000000, 0.000000), auto = False</desc>
  <defs
     id="defs3340">
    <marker
       refY="0"
       refX="0"
       style="overflow:visible"
       id="DistanceX"
       orient="auto">
      <path
         style="stroke:#000000;stroke-width:0.53333336"
         d="M 3.2,-3.2 -3.2,3.2 M 0,-5.3333333 V 5.3333333"
         id="path3343"
         inkscape:connector-curvature="0" />
    </marker>
    <pattern
       height="8"
       width="8"
       patternUnits="userSpaceOnUse"
       y="0"
       x="0"
       id="Hatch">
      <path
         linecap="square"
         stroke="#000000"
         stroke-width="0.25"
         d="M8 4 l-4,4"
         id="path3346" />
      <path
         linecap="square"
         stroke="#000000"
         stroke-width="0.25"
         d="M6 2 l-4,4"
         id="path3348" />
      <path
         linecap="square"
         stroke="#000000"
         stroke-width="0.25"
         d="M4 0 l-4,4"
         id="path3350" />
    </pattern>
    <symbol
       id="*MODEL_SPACE" />
    <symbol
       id="*PAPER_SPACE" />
  </defs>
  <g
     inkscape:label="0"
     inkscape:groupmode="layer"
     id="g3354"
     transform="translate(-1032.6327,-546.93063)" />
  <g
     inkscape:label="Capa_1"
     inkscape:groupmode="layer"
     id="g3356"
     transform="translate(-1032.6327,-546.93063)">
    <path
       inkscape:connector-curvature="0"
       style="fill:none;stroke:#000000;stroke-width:1.06666672"
       d="m 1060.3132,1074.2809 c -0.1894,1.215 -0.3789,2.43 -0.941,3.4787 -0.5455,1.0176 -1.4418,1.8785 -2.4726,2.4726 -1.0624,0.6123 -2.2674,0.9411 -3.4788,0.941 -1.2113,-10e-5 -2.4289,-0.3293 -3.4787,-0.941 -1.0187,-0.5936 -1.8793,-1.4533 -2.4726,-2.4726 -0.6115,-1.0506 -0.9389,-2.2706 -0.9411,-3.4787 -10e-4,-0.605 0.079,-1.2068 0.2362,-1.7887 0.1555,-0.5772 0.3861,-1.1349 0.6847,-1.6532 0.3011,-0.5226 0.6714,-1.0054 1.0979,-1.4319 0.4265,-0.4264 0.9093,-0.7965 1.4318,-1.0978 0.5182,-0.2986 1.0755,-0.5295 1.6531,-0.6847 0.5824,-0.1565 1.1856,-0.2361 1.7887,-0.2361 0.6032,0 1.2064,0.08 1.7888,0.2361 0.5775,0.1552 1.1347,0.3861 1.6531,0.6847 0.5228,0.3013 1.0062,0.6714 1.4318,1.0978 0.4256,0.4266 0.7934,0.9094 1.0978,1.4319 0.302,0.5182 0.5417,1.0755 0.6848,1.6532 0.1442,0.5824 0.1902,1.1856 0.2361,1.7887"
       id="path8750" />
    <path
       id="path8752"
       d="m 1358.9799,1074.2809 c -0.1894,1.215 -0.3788,2.43 -0.941,3.4787 -0.5455,1.0176 -1.4419,1.8785 -2.4727,2.4726 -1.0623,0.6123 -2.2673,0.9411 -3.4787,0.941 -1.2113,-10e-5 -2.4289,-0.3293 -3.4788,-0.941 -1.0186,-0.5936 -1.8793,-1.4533 -2.4726,-2.4726 -0.6114,-1.0506 -0.9388,-2.2706 -0.941,-3.4787 0,-0.605 0.079,-1.2068 0.2362,-1.7887 0.1555,-0.5772 0.3861,-1.1349 0.6846,-1.6532 0.3012,-0.5226 0.6714,-1.0054 1.098,-1.4319 0.4264,-0.4264 0.9092,-0.7965 1.4318,-1.0978 0.5181,-0.2986 1.0755,-0.5295 1.6531,-0.6847 0.5824,-0.1565 1.1856,-0.2361 1.7887,-0.2361 0.6032,0 1.2064,0.08 1.7888,0.2361 0.5775,0.1552 1.1346,0.3861 1.6531,0.6847 0.5228,0.3013 1.0062,0.6714 1.4318,1.0978 0.4256,0.4266 0.7934,0.9094 1.0978,1.4319 0.302,0.5182 0.5417,1.0755 0.6848,1.6532 0.1442,0.5824 0.1902,1.1856 0.236,1.7887"
       style="fill:none;stroke:#000000;stroke-width:1.06666672"
       inkscape:connector-curvature="0" />
    <g
       id="g1613">
      <path
         id="path3540"
         d="m 1552.0996,870.52187 v 0"
         style="fill:none;stroke:#000000;stroke-width:1.06666672"
         inkscape:connector-curvature="0" />
      <path
         id="path3552"
         d="m 1552.0996,574.35169 v 0"
         style="fill:none;stroke:#000000;stroke-width:1.06666672"
         inkscape:connector-curvature="0" />
      <path
         id="path4040"
         d="m 1552.0996,870.52187 v 0"
         style="fill:none;stroke:#000000;stroke-width:1.06666672"
         inkscape:connector-curvature="0" />
      <path
         id="path4052"
         d="m 1552.0996,574.35169 v 0"
         style="fill:none;stroke:#000000;stroke-width:1.06666672"
         inkscape:connector-curvature="0" />
      <path
         inkscape:connector-curvature="0"
         style="fill:none;stroke:#000000;stroke-width:1.06666672"
         d="m 1553.3574,567.71807 c -0.1896,1.21493 -0.3793,2.42987 -0.941,3.47872 -0.545,1.01775 -1.4404,1.87912 -2.4726,2.47265 -1.0639,0.61168 -2.2731,0.93888 -3.4787,0.94101 -0.6038,10e-4 -1.2065,-0.0794 -1.7888,-0.23612 -0.5775,-0.1555 -1.1349,-0.38614 -1.6532,-0.68475 -0.5225,-0.30111 -1.0053,-0.67135 -1.4317,-1.09786 -0.4265,-0.4265 -0.7967,-0.90928 -1.0979,-1.43179 -0.2987,-0.5182 -0.5296,-1.07549 -0.6848,-1.65312 -0.1564,-0.58246 -0.2361,-1.18559 -0.2361,-1.78874 0,-0.60314 0.08,-1.20628 0.2361,-1.78874 0.1552,-0.57763 0.3861,-1.13491 0.6848,-1.65312 0.3012,-0.52252 0.6714,-1.00532 1.0979,-1.43179 0.4264,-0.4265 0.9092,-0.79668 1.4317,-1.09786 0.5182,-0.2987 1.0756,-0.52953 1.6532,-0.68475 0.5825,-0.15651 1.1856,-0.23614 1.7888,-0.23614 0.6031,0 1.2063,0.0796 1.7887,0.23614 0.5776,0.15522 1.1347,0.38606 1.6531,0.68475 0.5228,0.30118 1.0062,0.67137 1.4318,1.09786 0.4256,0.42648 0.7934,0.90927 1.0978,1.43179 0.302,0.51821 0.5417,1.07549 0.6848,1.65312 0.1442,0.58246 0.1902,1.1856 0.2361,1.78874"
         id="path8754" />
      <path
         inkscape:connector-curvature="0"
         style="fill:none;stroke:#000000;stroke-width:1.06666672"
         d="m 1553.3588,884.56654 c -0.046,0.60315 -0.092,1.20628 -0.2361,1.78873 -0.1431,0.57764 -0.3828,1.13493 -0.6847,1.65312 -0.3045,0.52253 -0.6722,1.00533 -1.0978,1.43181 -0.4256,0.42649 -0.9091,0.79666 -1.4318,1.09785 -0.5185,0.2987 -1.0757,0.52953 -1.6531,0.68474 -0.5824,0.15652 -1.1856,0.23614 -1.7888,0.23614 -0.6031,0 -1.2063,-0.0797 -1.7887,-0.23612 -0.5776,-0.15523 -1.135,-0.38606 -1.6532,-0.68475 -0.5225,-0.30119 -1.0053,-0.67137 -1.4317,-1.09786 -0.4266,-0.42648 -0.7967,-0.90928 -1.098,-1.43179 -0.2986,-0.51821 -0.5295,-1.07549 -0.6847,-1.65312 -0.1564,-0.58247 -0.2361,-1.1856 -0.2361,-1.78875 0,-0.60314 0.08,-1.20628 0.2361,-1.78874 0.1552,-0.57763 0.3861,-1.13492 0.6847,-1.65312 0.3013,-0.52251 0.6714,-1.00529 1.098,-1.43179 0.4264,-0.42651 0.9092,-0.79674 1.4317,-1.09785 0.5182,-0.29862 1.0757,-0.52925 1.6532,-0.68475 0.5823,-0.1568 1.185,-0.2372 1.7887,-0.23614 1.2057,0.002 2.4149,0.32935 3.4787,0.94102 1.0323,0.59353 1.9277,1.45491 2.4726,2.47266 0.5617,1.04885 0.7514,2.26379 0.941,3.47871"
         id="path8756" />
      <path
         sodipodi:nodetypes="ccsccccccccsccc"
         id="path1592"
         d="m 1563.9558,894.78923 c -1.6029,2.9902 -4.2371,5.5203 -7.2664,7.2661 -3.1218,1.7993 -6.6632,2.7657 -10.223,2.7653 -3.5598,-4e-4 -7.1379,-0.9676 -10.223,-2.7653 -2.9936,-1.7443 -5.5229,-4.2707 -7.2665,-7.2661 -1.7967,-3.0871 -2.7589,-6.6724 -2.7653,-10.2226 0,-1.7775 0.2333,-3.5462 0.6939,-5.2565 0.457,-1.696 1.1347,-3.3347 2.0123,-4.8578 0.8848,-1.5359 1.9729,-2.9544 3.2263,-4.2075 1.2533,-1.2532 2.6721,-2.3411 4.2076,-3.2262 1.5229,-0.8778 3.1606,-1.5561 4.8581,-2.0122 1.7117,-0.4599 3.4841,-0.694 5.2566,-0.694 1.7725,0 3.5451,0.234 5.2566,0.694 1.6973,0.4561 3.3345,1.1344 4.8581,2.0122 0.6997,0.40316 1.9738,0.80848 2.6205,1.29223"
         style="fill:none;stroke:#000000;stroke-width:1.06666672"
         inkscape:connector-curvature="0" />
      <path
         sodipodi:nodetypes="ccsccccccccscccsc"
         inkscape:connector-curvature="0"
         style="fill:none;stroke:#000000;stroke-width:1.06666672"
         d="m 1559.1592,583.53676 c -0.7821,0.61503 -1.6107,1.1742 -2.4712,1.6701 -3.1218,1.7993 -6.6632,2.7657 -10.223,2.7653 -3.5598,-4e-4 -7.1379,-0.9676 -10.223,-2.7653 -2.9936,-1.7443 -5.5229,-4.2707 -7.2665,-7.2661 -1.7967,-3.0871 -2.7589,-6.6724 -2.7653,-10.2226 0,-1.7775 0.2333,-3.5462 0.6939,-5.2565 0.457,-1.696 1.1347,-3.3347 2.0123,-4.8578 0.8848,-1.5359 1.9729,-2.9544 3.2263,-4.2075 1.2533,-1.2532 2.6721,-2.3411 4.2076,-3.2262 1.5229,-0.8778 3.1606,-1.5561 4.8581,-2.0122 1.7117,-0.4599 3.4841,-0.694 5.2566,-0.694 1.7725,0 3.5451,0.234 5.2566,0.694 1.6973,0.4561 3.3345,1.1344 4.8581,2.0122 1.5362,0.8851 2.9569,1.9729 4.2076,3.2262 1.0432,1.04517 1.968,2.20545 2.7654,3.45265 0.1587,0.24825 0.3124,0.49994 0.4609,0.75485"
         id="path1594" />
    </g>
    <path
       id="path1590"
       d="m 1372.3423,1074.2809 c -0.5568,3.5704 -1.1135,7.1409 -2.7655,10.2226 -1.6029,2.9902 -4.4059,5.3727 -7.4352,7.1185 -0.8258,0.476 -1.681,0.8937 -2.5581,1.2506 m -23.8838,-6.6801 c -0.3953,-0.5438 -0.7634,-1.1075 -1.1018,-1.689 -1.7967,-3.0871 -2.7589,-6.6724 -2.7653,-10.2226 0,-1.7775 0.2333,-3.5462 0.6939,-5.2565 0.457,-1.696 1.1347,-3.3347 2.0123,-4.8578 0.8848,-1.5359 1.9729,-2.9544 3.2263,-4.2075 1.2533,-1.2532 2.6721,-2.3411 4.2076,-3.2262 1.5229,-0.8778 3.1606,-1.5561 4.8581,-2.0122 1.7117,-0.4599 3.4841,-0.694 5.2566,-0.694 1.7725,0 3.5451,0.234 5.2566,0.694 1.6973,0.4561 3.3345,1.1344 4.8581,2.0122 1.5362,0.8851 2.9569,1.9729 4.2076,3.2262 1.2508,1.2532 2.3315,2.6719 3.2263,4.2075 0.8874,1.5228 1.5919,3.1604 2.0123,4.8578 0.4239,1.7116 0.5589,3.4841 0.694,5.2565"
       style="fill:none;stroke:#000000;stroke-width:1.06666672"
       inkscape:connector-curvature="0"
       sodipodi:nodetypes="ccccccccccccscccccc" />
    <path
       id="circle1598"
       style="fill:none;stroke:#000000;stroke-width:0.99999982;stroke-miterlimit:4;stroke-dasharray:none;stroke-opacity:1"
       d="m 1335.9972,1085.8253 c -42.6184,15.8864 -88.3889,24.5635 -134.7472,24.5635 -45.4244,0 -90.0556,-8.203 -131.9282,-23.4719 m 489.4558,-503.23427 c 17.7332,44.73513 27.0945,92.82384 27.0945,141.87772 0,49.48003 -9.1349,97.79465 -27.1688,142.85945"
       inkscape:connector-curvature="0" />
    <path
       style="fill:none;stroke:#000000;stroke-width:0.99999988;stroke-miterlimit:4;stroke-dasharray:none;stroke-opacity:1"
       d="m 1563.7248,557.0976 c 24.4209,52.424 37.6551,109.33738 37.6551,168.27935 0,58.89881 -13.0378,117.0191 -37.4241,169.41228 m -204.1269,197.95227 c -0.01,0 -0.016,0.01 -0.024,0.01 -49.596,21.4047 -103.4901,32.7549 -158.5545,32.7549 -54.1199,0 -106.1957,-11.6211 -155.085,-32.3193"
       id="circle1596"
       inkscape:connector-curvature="0"
       sodipodi:nodetypes="csccssc" />
    <path
       inkscape:connector-curvature="0"
       style="fill:none;stroke:#000000;stroke-width:1.06666672"
       d="m 1073.6757,1074.2809 c -0.5568,3.5704 -1.1135,7.1409 -2.7655,10.2226 -0.4522,0.8435 -0.9864,1.6504 -1.5884,2.4134 m -23.1564,6.2702 c -1.0259,-0.3915 -2.02,-0.8653 -2.9676,-1.4175 -2.9936,-1.7443 -5.5229,-4.2707 -7.2665,-7.2661 -1.7967,-3.0871 -2.7589,-6.6724 -2.7653,-10.2226 0,-1.7775 0.2333,-3.5462 0.6939,-5.2565 0.457,-1.696 1.1347,-3.3347 2.0123,-4.8578 0.8848,-1.5359 1.9729,-2.9544 3.2263,-4.2075 1.2533,-1.2532 2.6721,-2.3411 4.2076,-3.2262 1.5229,-0.8778 3.1606,-1.5561 4.8581,-2.0122 1.7117,-0.4599 3.4841,-0.694 5.2566,-0.694 1.7725,0 3.5451,0.234 5.2566,0.694 1.6973,0.4561 3.3345,1.1344 4.8581,2.0122 1.5362,0.8851 2.9569,1.9729 4.2076,3.2262 1.2508,1.2532 2.3315,2.6719 3.2263,4.2075 0.8874,1.5228 1.5919,3.1604 2.0123,4.8578 0.4239,1.7116 0.5589,3.4841 0.694,5.2565"
       id="path1588"
       sodipodi:nodetypes="ccccccccccccscccccc" />
  </g>
</svg>
