<?xml version="1.0" encoding="UTF-8" standalone="no"?>
<!-- Created with Inkscape (http://www.inkscape.org/) -->

<svg
   xmlns:dc="http://purl.org/dc/elements/1.1/"
   xmlns:cc="http://creativecommons.org/ns#"
   xmlns:rdf="http://www.w3.org/1999/02/22-rdf-syntax-ns#"
   xmlns:svg="http://www.w3.org/2000/svg"
   xmlns="http://www.w3.org/2000/svg"
   xmlns:sodipodi="http://sodipodi.sourceforge.net/DTD/sodipodi-0.dtd"
   xmlns:inkscape="http://www.inkscape.org/namespaces/inkscape"
   width="210mm"
   height="297mm"
   viewBox="0 0 744.09448819 1052.3622047"
   id="svg2"
   version="1.1"
   inkscape:version="0.91 r13725"
   sodipodi:docname="serigrafia.svg">
  <defs
     id="defs4" />
  <sodipodi:namedview
     id="base"
     pagecolor="#ffffff"
     bordercolor="#666666"
     borderopacity="1.0"
     inkscape:pageopacity="0.0"
     inkscape:pageshadow="2"
     inkscape:zoom="0.49497475"
     inkscape:cx="-757.97111"
     inkscape:cy="881.3877"
     inkscape:document-units="px"
     inkscape:current-layer="layer1"
     showgrid="false"
     inkscape:window-width="1280"
     inkscape:window-height="751"
     inkscape:window-x="0"
     inkscape:window-y="1"
     inkscape:window-maximized="1" />
  <metadata
     id="metadata7">
    <rdf:RDF>
      <cc:Work
         rdf:about="">
        <dc:format>image/svg+xml</dc:format>
        <dc:type
           rdf:resource="http://purl.org/dc/dcmitype/StillImage" />
        <dc:title></dc:title>
      </cc:Work>
    </rdf:RDF>
  </metadata>
  <g
     inkscape:label="Capa 1"
     inkscape:groupmode="layer"
     id="layer1">
    <g
       id="g4244"
       transform="matrix(0.24390244,0,0,0.24390244,-255.52623,2.6982271)"
       inkscape:export-xdpi="300"
       inkscape:export-ydpi="300">
      <path
         inkscape:connector-curvature="0"
         id="rect4241"
         d="m -337.95405,-286.98256 262.204719,0 0,290.5511829 -262.204719,0 z"
         style="fill:#ffffff;fill-opacity:1;stroke:none;stroke-width:0.77244091;stroke-miterlimit:4;stroke-dasharray:none;stroke-opacity:1" />
      <g
         transform="matrix(1.0054721,0,0,1.0056214,-282.50587,-6.2131836)"
         id="text4200"
         style="font-style:normal;font-variant:normal;font-weight:bold;font-stretch:normal;font-size:90px;line-height:125%;font-family:Transformers;-inkscape-font-specification:'Transformers, Bold';text-align:center;letter-spacing:0px;word-spacing:0px;writing-mode:lr-tb;text-anchor:middle;fill:#000000;fill-opacity:1;stroke:none;stroke-width:1px;stroke-linecap:butt;stroke-linejoin:miter;stroke-opacity:1">
        <path
           inkscape:connector-curvature="0"
           id="path4209"
           d="m -33.868491,-219.15638 20.52,-56.52 16.3799998,0 19.3500002,56.52 -31.6800002,0 0,-11.97 12.33,0 -8.19,-25.38 -13.4099998,37.35 -15.3,0 0,0 z" />
        <path
           inkscape:connector-curvature="0"
           id="path4211"
           d="m 40.841353,-231.12638 24.84,0 4.41,12.06 -44.55,0 0,-56.16 15.21,0 0.09,44.1 z" />
        <path
           inkscape:connector-curvature="0"
           id="path4213"
           d="m 88.30229,-219.06638 -15.12,0 0,-56.16 15.21,0 -0.09,56.16 z" />
        <path
           inkscape:connector-curvature="0"
           id="path4215"
           d="m 91.905103,-275.22638 44.549997,0 -4.41,12.06 -24.84,0 0,10.26 24.84,0 0,11.79 -24.84,0 0,9.9 29.25,-0.09 -4.32,12.24 -40.229997,0 0,-56.16 z" />
        <path
           inkscape:connector-curvature="0"
           id="path4217"
           d="m 184.08338,-219.06638 -15.21,0 0,-0.27 -0.27,0 0,-44.1 -13.59,0 -0.18,44.37 -15.21,0 0,-56.16 44.55,0 -0.09,56.16 z" />
        <path
           inkscape:connector-curvature="0"
           id="path4219"
           d="m -51.622397,-106.47638 0,-56.25 36.72,-0.09 q 3.33,0 5.3099995,1.53 1.98,1.53 2.7,5.04 -0.09,10.71 -0.09,21.51 0,10.8 0.09,22.59 -1.35,5.67 -8.0099995,5.67 l -36.72,0 z m 28.62,-12.33 0,-31.86 -13.41,0 -0.09,31.86 13.5,0 z" />
        <path
           inkscape:connector-curvature="0"
           id="path4221"
           d="m 11.661665,-106.47638 -15.3,0 0,-27.09 -0.09,-0.09 0.09,-0.09 0,-28.98 36.72,-0.09 q 3.33,0 5.31,1.53 1.98,1.53 2.7,5.04 0,5.76 0,9.18 0,3.33 0,5.22 0,1.89 0,2.79 0,0.81 0,1.44 -0.63,2.97 -2.16,4.5 -1.44,1.53 -3.87,1.98 l 0,0.27 -5.76,0 11.7,24.57 -15.75,0 -11.43,-24.39 0,-9.63 11.16,0 0,-10.44 -13.86,0 0.54,44.28 z" />
        <path
           inkscape:connector-curvature="0"
           id="path4223"
           d="m 59.298384,-106.56638 -15.12,0 0,-56.16 15.21,0 -0.09,56.16 z" />
        <path
           inkscape:connector-curvature="0"
           id="path4225"
           d="m 91.791196,-162.63638 14.940004,0 -14.580004,56.25 -0.27,0 0.09,0.09 -14.94,0 0,-0.09 -0.18,0 -14.58,-56.25 14.94,0 7.29,27.9 7.29,-27.9 z m -14.76,56.25 0.09,0 -0.09,0 z" />
        <path
           inkscape:connector-curvature="0"
           id="path4227"
           d="m 109.65901,-162.72638 44.55,0 -4.41,12.06 -24.84,0 0,10.26 24.84,0 0,11.79 -24.84,0 0,9.9 29.25,-0.09 -4.32,12.24 -40.23,0 0,-56.16 z" />
        <path
           inkscape:connector-curvature="0"
           id="path4229"
           d="m 172.67729,-106.47638 -15.3,0 0,-27.09 -0.09,-0.09 0.09,-0.09 0,-28.98 36.72,-0.09 q 3.33,0 5.31,1.53 1.98,1.53 2.7,5.04 0,5.76 0,9.18 0,3.33 0,5.22 0,1.89 0,2.79 0,0.81 0,1.44 -0.63,2.97 -2.16,4.5 -1.44,1.53 -3.87,1.98 l 0,0.27 -5.76,0 11.7,24.57 -15.75,0 -11.43,-24.39 0,-9.63 11.16,0 0,-10.44 -13.86,0 0.54,44.28 z" />
        <path
           inkscape:connector-curvature="0"
           id="path4231"
           d="m 34.486509,-50.136376 14.94,0 -14.58,56.2500003 -0.27,0 0.09,0.09 -14.94,0 0,-0.09 -0.18,0 -14.5800002,-56.2500003 14.9400002,0 7.29,27.9 7.29,-27.9 z m -14.76,56.2500003 0.09,0 -0.09,0 z" />
        <path
           inkscape:connector-curvature="0"
           id="path4233"
           d="m 80.254321,5.9336243 -15.21,0 -0.09,-44.1000003 -13.23,-0.18 3.96,-12.06 24.57,0.18 0,56.1600003 z" />
        <path
           inkscape:connector-curvature="0"
           id="path4235"
           d="m 82.751821,5.9336243 0,-11.34 15.12,0 0,11.34 -15.12,0 z" />
        <path
           inkscape:connector-curvature="0"
           id="path4237"
           d="m 108.33995,6.0236243 q -6.66,0 -8.01,-5.67000003 0.09,-11.79000027 0.09,-22.59000027 0,-10.8 -0.09,-21.51 0.72,-3.51 2.7,-5.04 1.98,-1.53 5.31,-1.53 l 28.8,0 q 3.33,0 5.31,1.53 1.98,1.53 2.7,5.04 -0.09,10.71 -0.09,21.51 0,10.8 0.09,22.59000027 -1.35,5.67000003 -8.01,5.67000003 l -28.8,0 z m 8.1,-12.33 12.6,0 0,-31.8600003 -12.6,0 0,31.8600003 z" />
      </g>
    </g>
    <g
       id="g4337"
       inkscape:export-xdpi="300"
       inkscape:export-ydpi="300">
      <path
         inkscape:connector-curvature="0"
         id="rect4330"
         d="m -621.84734,-27.050309 92.12598,0 0,127.559049 -92.12598,0 z"
         style="fill:#ffffff;fill-opacity:1;stroke:none;stroke-width:0.77244091;stroke-miterlimit:4;stroke-dasharray:none;stroke-opacity:1" />
      <path
         inkscape:connector-curvature="0"
         id="path4328"
         d="m -576.10459,98.687477 c -8.34547,-0.643551 -16.65314,-6.711278 -25.71715,-18.783202 -3.02919,-4.034432 -7.48967,-10.69592 -10.15678,-15.168608 -5.70276,-9.563426 -8.70711,-17.676899 -9.44427,-25.504965 -0.33153,-3.520632 -0.16865,-9.383379 0.4128,-14.858517 1.59081,-14.9796658 6.06085,-27.5837281 12.51272,-35.281803 3.02432,-3.608473 6.65284,-6.559054 10.92207,-8.881436 7.58659,-4.126952 17.23834,-6.103531 25.9701,-5.318402 5.49615,0.494194 11.38605,1.995716 16.20225,4.130467 6.71067,2.974468 12.13775,7.667975 17.09168,14.781391 1.75984,2.5269937 3.31813,5.56086103 4.47819,8.7187354 2.7116,7.3813954 3.85269,16.2928856 3.85678,30.1201346 10e-4,3.618729 -0.18881,6.304642 -0.64671,9.147678 -1.67913,10.425573 -6.1697,20.562719 -14.78265,33.370848 -3.79758,5.647306 -7.43311,10.172367 -11.18326,13.919536 -2.55123,2.549206 -4.61595,4.276182 -6.95392,5.816403 -4.3944,2.894975 -8.42277,4.110922 -12.56185,3.79174 z m -4.28938,-27.962463 c -0.0457,-0.08843 -0.26557,-0.884979 -0.48853,-1.770101 -0.95297,-3.783175 -1.73225,-5.988773 -3.08309,-8.725955 -5.00885,-10.149379 -14.19288,-16.958239 -27.09855,-20.090342 -1.0593,-0.257081 -3.55024,-0.77871 -3.71859,-0.77871 -0.10112,0 -0.1042,-0.03471 0.13308,1.498772 1.10958,7.170746 3.74326,13.364339 7.70526,18.120361 4.04343,4.853779 9.59304,8.400085 16.16535,10.329977 3.20107,0.939957 6.86505,1.530096 9.73042,1.567224 l 0.7378,0.0096 -0.0831,-0.160787 z m 9.87419,-0.03974 c 0.1137,-0.02839 0.55558,-0.100836 0.98196,-0.160978 5.41874,-0.764338 9.05666,-1.828673 13.02108,-3.809543 8.4667,-4.230491 14.88504,-11.872016 18.78714,-22.367556 0.57715,-1.552334 1.55238,-4.554541 1.55238,-4.778901 0,-0.13058 -2.53648,0.02576 -4.63236,0.285521 -6.58254,0.815843 -12.2215,2.984789 -16.89719,6.49927 -2.67506,2.010711 -5.12722,4.608905 -7.08184,7.503561 -2.65042,3.925103 -4.62083,8.689177 -5.62173,13.592312 -0.19307,0.945793 -0.41845,2.349574 -0.47596,2.964566 -0.0334,0.357173 -0.0296,0.37873 0.0621,0.351927 0.0537,-0.0157 0.19071,-0.05178 0.30441,-0.08018 z"
         style="fill:#000000" />
    </g>
    <g
       id="g4489"
       inkscape:export-xdpi="300"
       inkscape:export-ydpi="300"
       transform="matrix(0.8695652,0,0,0.8695652,-118.18142,-26.125371)">
      <path
         inkscape:connector-curvature="0"
         id="rect4486"
         d="m -906.05737,-214.46771 162.99213,0 0,14.17323 -162.99213,0 z"
         style="fill:#ffffff;fill-opacity:1;stroke:none;stroke-width:0.77244091;stroke-miterlimit:4;stroke-dasharray:none;stroke-opacity:1" />
      <g
         transform="matrix(0.31909707,0,0,0.31909707,-618.92176,-149.83555)"
         id="text4429"
         style="font-style:normal;font-variant:normal;font-weight:bold;font-stretch:normal;font-size:40px;line-height:125%;font-family:Harabara;-inkscape-font-specification:'Harabara, Bold';text-align:start;letter-spacing:0px;word-spacing:0px;writing-mode:lr-tb;text-anchor:start;fill:#000000;fill-opacity:1;stroke:none;stroke-width:1px;stroke-linecap:butt;stroke-linejoin:miter;stroke-opacity:1">
        <path
           inkscape:connector-curvature="0"
           id="path4434"
           d="m -871.23883,-170.49493 -5.46875,0 -3.20313,-14.84375 -3.20312,14.84375 -5.46875,0 -5.70313,-20.78125 5.3125,0 3.28125,14.375 2.96875,-14.375 5.54688,0 2.8125,14.375 2.89062,-12.5 q 0.46875,-1.875 2.5,-1.875 l 0,0 3.4375,0 -5.70312,20.78125 z" />
        <path
           inkscape:connector-curvature="0"
           id="path4436"
           d="m -841.08258,-170.49493 -5.46875,0 -3.20313,-14.84375 -3.20312,14.84375 -5.46875,0 -5.70313,-20.78125 5.3125,0 3.28125,14.375 2.96875,-14.375 5.54688,0 2.8125,14.375 2.89062,-12.5 q 0.46875,-1.875 2.5,-1.875 l 0,0 3.4375,0 -5.70312,20.78125 z" />
        <path
           inkscape:connector-curvature="0"
           id="path4438"
           d="m -810.92633,-170.49493 -5.46875,0 -3.20313,-14.84375 -3.20312,14.84375 -5.46875,0 -5.70313,-20.78125 5.3125,0 3.28125,14.375 2.96875,-14.375 5.54688,0 2.8125,14.375 2.89062,-12.5 q 0.46875,-1.875 2.5,-1.875 l 0,0 3.4375,0 -5.70312,20.78125 z" />
        <path
           inkscape:connector-curvature="0"
           id="path4440"
           d="m -802.17633,-174.79181 2.65625,0 0,4.29688 -4.29688,0 0,-2.65625 q 0,-1.64063 1.64063,-1.64063 z" />
        <path
           inkscape:connector-curvature="0"
           id="path4442"
           d="m -784.91071,-176.90118 3.90625,0 q -0.85937,3.28125 -3.28125,5 -2.42187,1.79687 -6.09375,1.79687 -4.45312,0 -6.95312,-2.89062 -2.5,-2.8125 -2.5,-8.04688 0,-5 2.42187,-7.8125 2.5,-2.89062 6.95313,-2.89062 4.6875,0 7.26562,2.8125 1.40625,1.71875 2.03125,3.98437 l -5.46875,0 q -0.39062,-0.78125 -0.78125,-1.17187 -1.01562,-1.09375 -2.89062,-1.09375 -1.71875,0 -2.8125,1.09375 -1.40625,1.5625 -1.40625,5.15625 0,3.59375 1.40625,5.07812 1.01562,1.25 3.04687,1.25 1.32813,0 2.26563,-0.54687 0.23437,-0.0781 0.39062,-0.23438 0.23438,-0.23437 0.46875,-0.46875 0.15625,-0.23437 0.625,-0.625 0.46875,-0.39062 1.40625,-0.39062 z" />
        <path
           inkscape:connector-curvature="0"
           id="path4444"
           d="m -777.56696,-172.36993 q -1.64062,-1.40625 -2.34375,-3.75 -0.70312,-2.42188 -0.70312,-5 0,-2.10938 0.54687,-4.21875 0.625,-2.10938 1.875,-3.51563 2.03125,-2.34375 5.23438,-2.73437 3.20312,-0.46875 5.78125,0.46875 2.96875,1.17187 4.375,4.0625 1.32812,2.57812 1.32812,6.01562 0,2.5 -0.54687,4.29688 -0.54688,1.79687 -1.40625,3.04687 -1.875,2.57813 -4.76563,3.20313 -2.57812,0.70312 -5.23437,0.0781 -2.57813,-0.54687 -4.14063,-1.95312 z m 3.75,-13.75 q -1.64062,1.79687 -1.48437,5.39062 0.15625,3.51563 1.32812,4.92188 0.46875,0.625 1.64063,1.09375 1.17187,0.39062 2.34375,0.0781 1.25,-0.39062 2.1875,-1.79687 0.9375,-1.40625 1.01562,-4.53125 0,-2.8125 -0.9375,-4.21875 -0.85937,-1.40625 -2.03125,-1.79688 -1.17187,-0.39062 -2.34375,0 -1.17187,0.3125 -1.71875,0.85938 z" />
        <path
           inkscape:connector-curvature="0"
           id="path4446"
           d="m -742.48883,-170.49493 -5.39063,0 0,-12.1875 0,-1.09375 q 0,-1.875 -1.17187,-2.73438 -1.09375,-0.85937 -2.5,-0.85937 -1.40625,0 -2.5,0.85937 -1.09375,0.85938 -1.09375,2.73438 l 0,13.28125 -5.46875,0 0,-12.1875 q 0,-5.3125 2.73437,-7.10938 2.8125,-1.79687 6.17188,-1.95312 1.79687,0 3.51562,0.39062 1.71875,0.39063 3.125,1.5625 1.17188,-1.01562 2.73438,-1.40625 1.64062,-0.46875 3.35937,-0.54687 3.4375,0 6.32813,1.79687 2.89062,1.79688 2.89062,7.26563 l 0,12.1875 -2.73437,0 q -1.17188,0 -1.95313,-0.70313 -0.70312,-0.78125 -0.70312,-1.95312 l 0,0 0,-10.625 q 0,-1.875 -1.17188,-2.73438 -1.09375,-0.85937 -2.5,-0.85937 -1.40625,0 -2.57812,0.85937 -1.09375,0.85938 -1.09375,2.73438 l 0,1.09375 0,12.1875 z" />
        <path
           inkscape:connector-curvature="0"
           id="path4448"
           d="m -722.95758,-165.49493 q 0,1.09375 -0.78125,1.875 -0.78125,0.78125 -1.875,0.78125 l -2.65625,0 0,-19.45313 q 0,-5.46875 3.20312,-7.42187 3.20313,-2.03125 6.95313,-2.03125 1.95312,0 3.90625,0.78125 2.03125,0.70312 3.20312,2.10937 2.34375,3.04688 2.34375,7.8125 0,4.92188 -2.34375,7.96875 -2.34375,2.96875 -6.01562,2.96875 -1.95313,0 -3.4375,-0.70312 -1.5625,-0.78125 -2.5,-2.42188 l 0,7.73438 z m 8.90625,-15.3125 q 0,-3.04688 -1.17188,-4.6875 -1.17187,-1.64063 -3.35937,-1.64063 -2.10938,0 -3.28125,1.64063 -1.09375,1.48437 -1.09375,4.6875 0,2.96875 1.17187,4.45312 1.17188,1.64063 3.35938,1.64063 2.03125,0 3.20312,-1.64063 1.17188,-1.64062 1.17188,-4.45312 z" />
        <path
           inkscape:connector-curvature="0"
           id="path4450"
           d="m -707.48883,-197.36993 2.8125,0 q 1.09375,0 1.875,0.78125 0.78125,0.70312 0.78125,1.79687 l 0,24.29688 -5.46875,0 0,-26.875 z" />
        <path
           inkscape:connector-curvature="0"
           id="path4452"
           d="m -682.95758,-191.27618 0,12.1875 q 0,5.54687 -2.89063,7.26562 -2.89062,1.71875 -6.32812,1.71875 -3.35938,-0.15625 -6.17188,-1.875 -2.73437,-1.71875 -2.73437,-7.10937 l 0,-12.1875 5.46875,0 0,13.28125 q 0,1.875 1.09375,2.73437 1.09375,0.85938 2.5,0.85938 1.40625,0 2.5,-0.85938 1.17187,-0.85937 1.17187,-2.73437 l 0,-10.625 0,0 q 0,-1.09375 0.70313,-1.875 0.78125,-0.78125 1.95312,-0.78125 l 2.73438,0 z" />
        <path
           inkscape:connector-curvature="0"
           id="path4454"
           d="m -676.78571,-194.79181 0,6.25 q 0.85938,-1.48437 2.5,-2.42187 1.40625,-0.78125 3.4375,-0.78125 3.67188,0 6.01563,3.04687 2.34375,3.04688 2.34375,7.89063 0,4.84375 -2.34375,7.89062 -1.17188,1.48438 -3.20313,2.1875 -1.95312,0.625 -3.90625,0.625 -3.75,0 -6.95312,-1.95312 -3.20313,-1.95313 -3.20313,-7.5 l 0,-17.89063 2.65625,0 q 1.09375,0 1.875,0.78125 0.78125,0.78125 0.78125,1.875 z m 8.90625,13.75 q 0,-2.8125 -1.17187,-4.375 -1.17188,-1.64062 -3.20313,-1.64062 -2.1875,0 -3.35937,1.5625 -1.17188,1.64062 -1.17188,4.45312 0,3.28125 1.09375,4.76563 1.17188,1.64062 3.28125,1.64062 2.1875,0 3.35938,-1.64062 1.17187,-1.64063 1.17187,-4.76563 z" />
        <path
           inkscape:connector-curvature="0"
           id="path4456"
           d="m -658.97321,-172.36993 q -1.64062,-1.40625 -2.34375,-3.75 -0.70312,-2.42188 -0.70312,-5 0,-2.10938 0.54687,-4.21875 0.625,-2.10938 1.875,-3.51563 2.03125,-2.34375 5.23438,-2.73437 3.20312,-0.46875 5.78125,0.46875 2.96875,1.17187 4.375,4.0625 1.32812,2.57812 1.32812,6.01562 0,2.5 -0.54687,4.29688 -0.54688,1.79687 -1.40625,3.04687 -1.875,2.57813 -4.76563,3.20313 -2.57812,0.70312 -5.23437,0.0781 -2.57813,-0.54687 -4.14063,-1.95312 z m 3.75,-13.75 q -1.64062,1.79687 -1.48437,5.39062 0.15625,3.51563 1.32812,4.92188 0.46875,0.625 1.64063,1.09375 1.17187,0.39062 2.34375,0.0781 1.25,-0.39062 2.1875,-1.79687 0.9375,-1.40625 1.01562,-4.53125 0,-2.8125 -0.9375,-4.21875 -0.85937,-1.40625 -2.03125,-1.79688 -1.17187,-0.39062 -2.34375,0 -1.17187,0.3125 -1.71875,0.85938 z" />
        <path
           inkscape:connector-curvature="0"
           id="path4458"
           d="m -632.80133,-170.49493 q -2.57813,0.15625 -5.625,-0.0781 -2.96875,-0.23437 -2.96875,-3.82812 l 0,-22.96875 2.8125,0 q 1.01562,0 1.79687,0.78125 0.78125,0.78125 0.78125,1.875 l 0,3.51562 3.20313,0 0,1.09375 q 0,1.17188 -0.78125,1.95313 -0.78125,0.70312 -1.875,0.70312 l -0.54688,0 0,11.5625 q 0,1.32813 1.5625,1.32813 l 1.64063,0 0,4.0625 z" />
        <path
           inkscape:connector-curvature="0"
           id="path4460"
           d="m -630.69196,-174.79181 2.65625,0 0,4.29688 -4.29687,0 0,-2.65625 q 0,-1.64063 1.64062,-1.64063 z" />
        <path
           inkscape:connector-curvature="0"
           id="path4462"
           d="m -613.42633,-176.90118 3.90625,0 q -0.85938,3.28125 -3.28125,5 -2.42188,1.79687 -6.09375,1.79687 -4.45313,0 -6.95313,-2.89062 -2.5,-2.8125 -2.5,-8.04688 0,-5 2.42188,-7.8125 2.5,-2.89062 6.95312,-2.89062 4.6875,0 7.26563,2.8125 1.40625,1.71875 2.03125,3.98437 l -5.46875,0 q -0.39063,-0.78125 -0.78125,-1.17187 -1.01563,-1.09375 -2.89063,-1.09375 -1.71875,0 -2.8125,1.09375 -1.40625,1.5625 -1.40625,5.15625 0,3.59375 1.40625,5.07812 1.01563,1.25 3.04688,1.25 1.32812,0 2.26562,-0.54687 0.23438,-0.0781 0.39063,-0.23438 0.23437,-0.23437 0.46875,-0.46875 0.15625,-0.23437 0.625,-0.625 0.46875,-0.39062 1.40625,-0.39062 z" />
        <path
           inkscape:connector-curvature="0"
           id="path4464"
           d="m -606.08258,-172.36993 q -1.64063,-1.40625 -2.34375,-3.75 -0.70313,-2.42188 -0.70313,-5 0,-2.10938 0.54688,-4.21875 0.625,-2.10938 1.875,-3.51563 2.03125,-2.34375 5.23437,-2.73437 3.20313,-0.46875 5.78125,0.46875 2.96875,1.17187 4.375,4.0625 1.32813,2.57812 1.32813,6.01562 0,2.5 -0.54688,4.29688 -0.54687,1.79687 -1.40625,3.04687 -1.875,2.57813 -4.76562,3.20313 -2.57813,0.70312 -5.23438,0.0781 -2.57812,-0.54687 -4.14062,-1.95312 z m 3.75,-13.75 q -1.64063,1.79687 -1.48438,5.39062 0.15625,3.51563 1.32813,4.92188 0.46875,0.625 1.64062,1.09375 1.17188,0.39062 2.34375,0.0781 1.25,-0.39062 2.1875,-1.79687 0.9375,-1.40625 1.01563,-4.53125 0,-2.8125 -0.9375,-4.21875 -0.85938,-1.40625 -2.03125,-1.79688 -1.17188,-0.39062 -2.34375,0 -1.17188,0.3125 -1.71875,0.85938 z" />
        <path
           inkscape:connector-curvature="0"
           id="path4466"
           d="m -571.00446,-170.49493 -5.39062,0 0,-12.1875 0,-1.09375 q 0,-1.875 -1.17188,-2.73438 -1.09375,-0.85937 -2.5,-0.85937 -1.40625,0 -2.5,0.85937 -1.09375,0.85938 -1.09375,2.73438 l 0,13.28125 -5.46875,0 0,-12.1875 q 0,-5.3125 2.73438,-7.10938 2.8125,-1.79687 6.17187,-1.95312 1.79688,0 3.51563,0.39062 1.71875,0.39063 3.125,1.5625 1.17187,-1.01562 2.73437,-1.40625 1.64063,-0.46875 3.35938,-0.54687 3.4375,0 6.32812,1.79687 2.89063,1.79688 2.89063,7.26563 l 0,12.1875 -2.73438,0 q -1.17187,0 -1.95312,-0.70313 -0.70313,-0.78125 -0.70313,-1.95312 l 0,0 0,-10.625 q 0,-1.875 -1.17187,-2.73438 -1.09375,-0.85937 -2.5,-0.85937 -1.40625,0 -2.57813,0.85937 -1.09375,0.85938 -1.09375,2.73438 l 0,1.09375 0,12.1875 z" />
        <path
           inkscape:connector-curvature="0"
           id="path4468"
           d="m -536.23883,-197.36993 4.375,0 9.76562,26.875 -5.85937,0 -1.79688,-5.54688 -10.46875,0 -1.71875,5.54688 -5.85937,0 8.90625,-25.07813 q 0.70312,-1.79687 2.65625,-1.79687 z m 1.25,5.39062 -3.75,11.40625 7.5,0 -3.75,-11.40625 z" />
        <path
           inkscape:connector-curvature="0"
           id="path4470"
           d="m -515.53571,-194.79181 0,6.25 q 0.85938,-1.48437 2.5,-2.42187 1.40625,-0.78125 3.4375,-0.78125 3.67188,0 6.01563,3.04687 2.34375,3.04688 2.34375,7.89063 0,4.84375 -2.34375,7.89062 -1.17188,1.48438 -3.20313,2.1875 -1.95312,0.625 -3.90625,0.625 -3.75,0 -6.95312,-1.95312 -3.20313,-1.95313 -3.20313,-7.5 l 0,-17.89063 2.65625,0 q 1.09375,0 1.875,0.78125 0.78125,0.78125 0.78125,1.875 z m 8.90625,13.75 q 0,-2.8125 -1.17187,-4.375 -1.17188,-1.64062 -3.20313,-1.64062 -2.1875,0 -3.35937,1.5625 -1.17188,1.64062 -1.17188,4.45312 0,3.28125 1.09375,4.76563 1.17188,1.64062 3.28125,1.64062 2.1875,0 3.35938,-1.64062 1.17187,-1.64063 1.17187,-4.76563 z" />
        <path
           inkscape:connector-curvature="0"
           id="path4472"
           d="m -500.30133,-170.49493 0,-10.07813 q 0,-3.04687 0.85937,-5.07812 0.9375,-2.10938 2.5,-3.35938 1.48438,-1.17187 3.4375,-1.71875 2.03125,-0.54687 4.14063,-0.54687 0.15625,0 0.39062,0 0.23438,0 0.39063,0 l 0,5.54687 -1.79688,0 q -2.26562,0 -3.35937,1.09375 -1.09375,1.09375 -1.09375,3.4375 l 0,10.70313 -5.46875,0 z" />
        <path
           inkscape:connector-curvature="0"
           id="path4474"
           d="m -487.56696,-191.27618 2.8125,0 q 1.09375,0 1.875,0.78125 0.78125,0.78125 0.78125,1.875 l 0,18.125 -5.46875,0 0,-20.78125 z m 0,-6.09375 2.8125,0 q 1.09375,0 1.875,0.78125 0.78125,0.78125 0.78125,1.875 l 0,1.64062 -5.46875,0 0,-4.29687 z" />
        <path
           inkscape:connector-curvature="0"
           id="path4476"
           d="m -481.62946,-197.36993 2.8125,0 q 1.09375,0 1.875,0.78125 0.78125,0.70312 0.78125,1.79687 l 0,24.29688 -5.46875,0 0,-26.875 z" />
        <path
           inkscape:connector-curvature="0"
           id="path4478"
           d="m -466.70758,-170.49493 q 0,-3.75 1.79687,-6.64063 1.64063,-2.65625 4.92188,-4.92187 0.23437,-0.15625 0.70312,-0.39063 0.46875,-0.3125 1.09375,-0.70312 2.57813,-1.64063 3.98438,-3.04688 1.40625,-1.40625 1.40625,-2.96875 0,-1.875 -1.09375,-2.89062 -1.09375,-1.09375 -2.96875,-1.09375 -2.10938,0 -3.28125,1.32812 -1.09375,1.40625 -1.09375,3.67188 l 0,0.23437 -2.8125,0 q -1.64063,0 -1.95313,-0.85937 -0.23437,-0.9375 -0.0781,-2.03125 0.54687,-2.57813 2.26562,-4.45313 2.57813,-2.5 7.26563,-2.5 4.375,0 6.875,2.26563 2.5,2.42187 2.5,6.25 0,2.89062 -1.32813,4.76562 -1.40625,2.10938 -5.15625,4.60938 -1.32812,0.9375 -3.35937,2.1875 -1.95313,1.25 -2.1875,2.42187 l 11.79687,0 0,4.76563 -19.29687,0 z" />
        <path
           inkscape:connector-curvature="0"
           id="path4480"
           d="m -436.78571,-197.83868 q 4.375,0 7.03125,2.89062 2.96875,3.35938 2.96875,11.01563 0,7.8125 -3.04687,11.09375 -2.42188,2.73437 -6.95313,2.73437 -4.53125,0 -7.26562,-2.96875 -2.65625,-2.96875 -2.65625,-10.85937 0,-7.73438 2.96875,-11.09375 2.42187,-2.8125 6.95312,-2.8125 z m 0,4.375 q -1.17187,0 -1.95312,0.625 -1.17188,0.9375 -1.79688,3.51562 -0.625,2.5 -0.625,5.39063 0,2.96875 0.54688,5.54687 0.625,2.57813 1.95312,3.4375 0.85938,0.625 1.875,0.625 0.9375,0 1.95313,-0.625 1.17187,-0.85937 1.79687,-3.4375 0.625,-2.57812 0.625,-5.46875 0,-2.89062 -0.70312,-5.46875 -0.625,-2.57812 -1.79688,-3.51562 -0.78125,-0.625 -1.875,-0.625 z" />
        <path
           inkscape:connector-curvature="0"
           id="path4482"
           d="m -420.77008,-170.49493 0,-18.125 -5.07813,0 0,-3.90625 q 1.71875,0 3.51563,-1.09375 1.875,-1.17188 2.57812,-3.75 l 1.5625,0 0,0 q 1.17188,0 1.95313,0.78125 0.85937,0.78125 0.85937,1.95312 l 0,24.14063 -5.39062,0 z" />
        <path
           inkscape:connector-curvature="0"
           id="path4484"
           d="m -405.14508,-170.49493 -5.78125,0 q 0.15625,-5.46875 2.73437,-11.25 2.26563,-5.39063 6.875,-10.9375 l -13.59375,0 0,-4.6875 17.8125,0 q 2.10938,0 2.42188,1.5625 0.3125,1.48437 -0.625,2.57812 -2.26563,2.57813 -4.0625,5.23438 -1.71875,2.57812 -2.89063,5.39062 -2.57812,5.85938 -2.89062,12.10938 z" />
      </g>
    </g>
  </g>
</svg>
