G04 #@! TF.FileFunction,Soldermask,Top*
%FSLAX46Y46*%
G04 Gerber Fmt 4.6, Leading zero omitted, Abs format (unit mm)*
G04 Created by KiCad (PCBNEW 4.0.6) date Tuesday, 11 '11e' April '11e' 2017, 13:18:08*
%MOMM*%
%LPD*%
G01*
G04 APERTURE LIST*
%ADD10C,0.100000*%
%ADD11R,1.900000X1.650000*%
%ADD12R,1.650000X1.900000*%
%ADD13R,2.400000X3.000000*%
%ADD14O,2.400000X3.000000*%
%ADD15R,3.000000X2.400000*%
%ADD16O,3.000000X2.400000*%
%ADD17R,1.900000X1.700000*%
%ADD18R,2.200000X2.200000*%
%ADD19C,2.200000*%
%ADD20R,2.000000X0.950000*%
%ADD21R,0.950000X2.000000*%
%ADD22R,1.300000X1.200000*%
%ADD23R,3.000000X2.000000*%
%ADD24R,1.600000X1.600000*%
%ADD25R,3.400000X3.400000*%
%ADD26C,3.400000*%
%ADD27R,1.700000X1.900000*%
%ADD28R,2.000000X2.000000*%
%ADD29O,2.000000X2.000000*%
%ADD30R,2.400000X4.200000*%
%ADD31R,2.400000X1.900000*%
%ADD32C,2.100000*%
%ADD33C,2.550000*%
G04 APERTURE END LIST*
D10*
D11*
X137688000Y-70866000D03*
X140188000Y-70866000D03*
X137688000Y-73406000D03*
X140188000Y-73406000D03*
D12*
X153162000Y-85070000D03*
X153162000Y-82570000D03*
D13*
X132842000Y-60452000D03*
D14*
X135382000Y-60452000D03*
X137922000Y-60452000D03*
X140462000Y-60452000D03*
X143002000Y-60452000D03*
X145542000Y-60452000D03*
D13*
X153162000Y-90932000D03*
D14*
X150622000Y-90932000D03*
X148082000Y-90932000D03*
X145542000Y-90932000D03*
X143002000Y-90932000D03*
X140462000Y-90932000D03*
D15*
X155448000Y-63246000D03*
D16*
X155448000Y-65786000D03*
X155448000Y-68326000D03*
X155448000Y-70866000D03*
X155448000Y-73406000D03*
X155448000Y-75946000D03*
X155448000Y-78486000D03*
D17*
X147240000Y-72390000D03*
X149940000Y-72390000D03*
X147240000Y-75438000D03*
X149940000Y-75438000D03*
D18*
X135128000Y-69088000D03*
D19*
X135128000Y-71628000D03*
X135128000Y-74168000D03*
X135128000Y-76708000D03*
X135128000Y-79248000D03*
X135128000Y-81788000D03*
X135128000Y-84328000D03*
X142748000Y-84328000D03*
X142748000Y-81788000D03*
X142748000Y-79248000D03*
X142748000Y-76708000D03*
X142748000Y-74168000D03*
X142748000Y-71628000D03*
D18*
X142748000Y-69088000D03*
D20*
X123004000Y-70606000D03*
X123004000Y-71406000D03*
X123004000Y-72206000D03*
X123004000Y-73006000D03*
X123004000Y-73806000D03*
X123004000Y-74606000D03*
X123004000Y-75406000D03*
X123004000Y-76206000D03*
D21*
X124454000Y-77656000D03*
X125254000Y-77656000D03*
X126054000Y-77656000D03*
X126854000Y-77656000D03*
X127654000Y-77656000D03*
X128454000Y-77656000D03*
X129254000Y-77656000D03*
X130054000Y-77656000D03*
D20*
X131504000Y-76206000D03*
X131504000Y-75406000D03*
X131504000Y-74606000D03*
X131504000Y-73806000D03*
X131504000Y-73006000D03*
X131504000Y-72206000D03*
X131504000Y-71406000D03*
X131504000Y-70606000D03*
D21*
X130054000Y-69156000D03*
X129254000Y-69156000D03*
X128454000Y-69156000D03*
X127654000Y-69156000D03*
X126854000Y-69156000D03*
X126054000Y-69156000D03*
X125254000Y-69156000D03*
X124454000Y-69156000D03*
D17*
X147240000Y-66294000D03*
X149940000Y-66294000D03*
X147240000Y-69342000D03*
X149940000Y-69342000D03*
D22*
X146558000Y-84294000D03*
X146558000Y-86394000D03*
D23*
X127276000Y-61214000D03*
X123676000Y-61214000D03*
D12*
X136144000Y-93452000D03*
X136144000Y-90952000D03*
D22*
X120396000Y-69630000D03*
X120396000Y-67530000D03*
D24*
X129794000Y-93556000D03*
X129794000Y-91356000D03*
X132588000Y-93556000D03*
X132588000Y-91356000D03*
D22*
X112776000Y-83092000D03*
X112776000Y-80992000D03*
X112776000Y-87410000D03*
X112776000Y-85310000D03*
D25*
X115316000Y-69088000D03*
D26*
X115316000Y-64008000D03*
D27*
X117602000Y-80692000D03*
X117602000Y-83392000D03*
X120142000Y-80692000D03*
X120142000Y-83392000D03*
X122682000Y-80692000D03*
X122682000Y-83392000D03*
X125222000Y-80692000D03*
X125222000Y-83392000D03*
X129794000Y-86026000D03*
X129794000Y-88726000D03*
X132588000Y-86026000D03*
X132588000Y-88726000D03*
D28*
X125222000Y-86106000D03*
D29*
X117602000Y-93726000D03*
X122682000Y-86106000D03*
X120142000Y-93726000D03*
X120142000Y-86106000D03*
X122682000Y-93726000D03*
X117602000Y-86106000D03*
X125222000Y-93726000D03*
D30*
X119482000Y-75692000D03*
D31*
X113182000Y-75692000D03*
X113182000Y-77992000D03*
X113182000Y-73392000D03*
D32*
X138938000Y-83820000D03*
X138938000Y-78820000D03*
D33*
X112431100Y-92018600D03*
X158031100Y-92018600D03*
X112431100Y-58018600D03*
X158031100Y-58018600D03*
D11*
X129560000Y-80518000D03*
X132060000Y-80518000D03*
M02*
