G04 #@! TF.FileFunction,Copper,L1,Top,Signal*
%FSLAX46Y46*%
G04 Gerber Fmt 4.6, Leading zero omitted, Abs format (unit mm)*
G04 Created by KiCad (PCBNEW 4.0.6) date Tuesday, 11 '11e' April '11e' 2017, 13:18:08*
%MOMM*%
%LPD*%
G01*
G04 APERTURE LIST*
%ADD10C,0.100000*%
%ADD11R,1.500000X1.250000*%
%ADD12R,1.250000X1.500000*%
%ADD13R,2.000000X2.600000*%
%ADD14O,2.000000X2.600000*%
%ADD15R,2.600000X2.000000*%
%ADD16O,2.600000X2.000000*%
%ADD17R,1.500000X1.300000*%
%ADD18R,1.800000X1.800000*%
%ADD19C,1.800000*%
%ADD20R,1.600000X0.550000*%
%ADD21R,0.550000X1.600000*%
%ADD22R,0.900000X0.800000*%
%ADD23R,2.600000X1.600000*%
%ADD24R,1.200000X1.200000*%
%ADD25R,3.000000X3.000000*%
%ADD26C,3.000000*%
%ADD27R,1.300000X1.500000*%
%ADD28R,1.600000X1.600000*%
%ADD29O,1.600000X1.600000*%
%ADD30R,2.000000X3.800000*%
%ADD31R,2.000000X1.500000*%
%ADD32C,1.700000*%
%ADD33C,2.150000*%
%ADD34C,0.600000*%
%ADD35C,0.250000*%
%ADD36C,0.500000*%
G04 APERTURE END LIST*
D10*
D11*
X137688000Y-70866000D03*
X140188000Y-70866000D03*
X137688000Y-73406000D03*
X140188000Y-73406000D03*
D12*
X153162000Y-85070000D03*
X153162000Y-82570000D03*
D13*
X132842000Y-60452000D03*
D14*
X135382000Y-60452000D03*
X137922000Y-60452000D03*
X140462000Y-60452000D03*
X143002000Y-60452000D03*
X145542000Y-60452000D03*
D13*
X153162000Y-90932000D03*
D14*
X150622000Y-90932000D03*
X148082000Y-90932000D03*
X145542000Y-90932000D03*
X143002000Y-90932000D03*
X140462000Y-90932000D03*
D15*
X155448000Y-63246000D03*
D16*
X155448000Y-65786000D03*
X155448000Y-68326000D03*
X155448000Y-70866000D03*
X155448000Y-73406000D03*
X155448000Y-75946000D03*
X155448000Y-78486000D03*
D17*
X147240000Y-72390000D03*
X149940000Y-72390000D03*
X147240000Y-75438000D03*
X149940000Y-75438000D03*
D18*
X135128000Y-69088000D03*
D19*
X135128000Y-71628000D03*
X135128000Y-74168000D03*
X135128000Y-76708000D03*
X135128000Y-79248000D03*
X135128000Y-81788000D03*
X135128000Y-84328000D03*
X142748000Y-84328000D03*
X142748000Y-81788000D03*
X142748000Y-79248000D03*
X142748000Y-76708000D03*
X142748000Y-74168000D03*
X142748000Y-71628000D03*
D18*
X142748000Y-69088000D03*
D20*
X123004000Y-70606000D03*
X123004000Y-71406000D03*
X123004000Y-72206000D03*
X123004000Y-73006000D03*
X123004000Y-73806000D03*
X123004000Y-74606000D03*
X123004000Y-75406000D03*
X123004000Y-76206000D03*
D21*
X124454000Y-77656000D03*
X125254000Y-77656000D03*
X126054000Y-77656000D03*
X126854000Y-77656000D03*
X127654000Y-77656000D03*
X128454000Y-77656000D03*
X129254000Y-77656000D03*
X130054000Y-77656000D03*
D20*
X131504000Y-76206000D03*
X131504000Y-75406000D03*
X131504000Y-74606000D03*
X131504000Y-73806000D03*
X131504000Y-73006000D03*
X131504000Y-72206000D03*
X131504000Y-71406000D03*
X131504000Y-70606000D03*
D21*
X130054000Y-69156000D03*
X129254000Y-69156000D03*
X128454000Y-69156000D03*
X127654000Y-69156000D03*
X126854000Y-69156000D03*
X126054000Y-69156000D03*
X125254000Y-69156000D03*
X124454000Y-69156000D03*
D17*
X147240000Y-66294000D03*
X149940000Y-66294000D03*
X147240000Y-69342000D03*
X149940000Y-69342000D03*
D22*
X146558000Y-84294000D03*
X146558000Y-86394000D03*
D23*
X127276000Y-61214000D03*
X123676000Y-61214000D03*
D12*
X136144000Y-93452000D03*
X136144000Y-90952000D03*
D22*
X120396000Y-69630000D03*
X120396000Y-67530000D03*
D24*
X129794000Y-93556000D03*
X129794000Y-91356000D03*
X132588000Y-93556000D03*
X132588000Y-91356000D03*
D22*
X112776000Y-83092000D03*
X112776000Y-80992000D03*
X112776000Y-87410000D03*
X112776000Y-85310000D03*
D25*
X115316000Y-69088000D03*
D26*
X115316000Y-64008000D03*
D27*
X117602000Y-80692000D03*
X117602000Y-83392000D03*
X120142000Y-80692000D03*
X120142000Y-83392000D03*
X122682000Y-80692000D03*
X122682000Y-83392000D03*
X125222000Y-80692000D03*
X125222000Y-83392000D03*
X129794000Y-86026000D03*
X129794000Y-88726000D03*
X132588000Y-86026000D03*
X132588000Y-88726000D03*
D28*
X125222000Y-86106000D03*
D29*
X117602000Y-93726000D03*
X122682000Y-86106000D03*
X120142000Y-93726000D03*
X120142000Y-86106000D03*
X122682000Y-93726000D03*
X117602000Y-86106000D03*
X125222000Y-93726000D03*
D30*
X119482000Y-75692000D03*
D31*
X113182000Y-75692000D03*
X113182000Y-77992000D03*
X113182000Y-73392000D03*
D32*
X138938000Y-83820000D03*
X138938000Y-78820000D03*
D33*
X112431100Y-92018600D03*
X158031100Y-92018600D03*
X112431100Y-58018600D03*
X158031100Y-58018600D03*
D11*
X129560000Y-80518000D03*
X132060000Y-80518000D03*
D34*
X119380000Y-72898000D03*
X118872000Y-65786000D03*
X129470000Y-74606000D03*
X137922000Y-92964000D03*
X129032000Y-82804000D03*
X126746000Y-89916000D03*
X142748000Y-65786000D03*
X114554000Y-84074000D03*
X120904000Y-72390000D03*
X121158000Y-62738000D03*
X121412000Y-76200000D03*
X138684000Y-68834000D03*
X121412000Y-75184000D03*
X155448000Y-82296000D03*
X132842000Y-63500000D03*
X139954000Y-64516000D03*
X126238000Y-64516000D03*
X128016000Y-86106000D03*
X128016000Y-75946000D03*
X132588000Y-67310000D03*
X128524000Y-66040000D03*
X138938000Y-74930000D03*
X124714000Y-64262000D03*
X139446000Y-66040000D03*
X124206000Y-67056000D03*
X121158000Y-71120000D03*
X145288000Y-94996000D03*
X134366000Y-93726000D03*
X125984000Y-70866000D03*
X139192000Y-88138000D03*
X135128000Y-88138000D03*
X127508000Y-70866000D03*
X142748000Y-63246000D03*
X134874000Y-63500000D03*
X128524000Y-67310000D03*
X133096000Y-82550000D03*
X131572000Y-84074000D03*
X138176000Y-94234000D03*
X131572000Y-77978000D03*
X151765000Y-66167000D03*
X145288000Y-67183000D03*
X124714000Y-75946000D03*
X125984000Y-75946000D03*
X124968000Y-71374000D03*
X133858000Y-80518000D03*
X129540000Y-73406000D03*
D35*
X120616000Y-69088000D02*
X120650000Y-69054000D01*
D36*
X135128000Y-84328000D02*
X135128000Y-85090000D01*
X135128000Y-85090000D02*
X136652000Y-86614000D01*
X145322000Y-84294000D02*
X146558000Y-84294000D01*
X144780000Y-84836000D02*
X145322000Y-84294000D01*
X144780000Y-85852000D02*
X144780000Y-84836000D01*
X144018000Y-86614000D02*
X144780000Y-85852000D01*
X136652000Y-86614000D02*
X144018000Y-86614000D01*
D35*
X119380000Y-72898000D02*
X117602000Y-72898000D01*
X116840000Y-79930000D02*
X117602000Y-80692000D01*
X116840000Y-73660000D02*
X116840000Y-79930000D01*
X117602000Y-72898000D02*
X116840000Y-73660000D01*
X132588000Y-93556000D02*
X132588000Y-93218000D01*
X132588000Y-93218000D02*
X133096000Y-92710000D01*
X133096000Y-92710000D02*
X135402000Y-92710000D01*
X135402000Y-92710000D02*
X136144000Y-93452000D01*
X127276000Y-61214000D02*
X126492000Y-61214000D01*
X126492000Y-61214000D02*
X121920000Y-65786000D01*
X119634000Y-73152000D02*
X121666000Y-73152000D01*
X119380000Y-72898000D02*
X119634000Y-73152000D01*
X121920000Y-65786000D02*
X118872000Y-65786000D01*
X135128000Y-71628000D02*
X135128000Y-72136000D01*
X135128000Y-72136000D02*
X133096000Y-74168000D01*
X133096000Y-74168000D02*
X133096000Y-75184000D01*
X133096000Y-75184000D02*
X132874000Y-75406000D01*
X132874000Y-75406000D02*
X131504000Y-75406000D01*
X131504000Y-75406000D02*
X130270000Y-75406000D01*
X130270000Y-75406000D02*
X129470000Y-74606000D01*
X137434000Y-93452000D02*
X136144000Y-93452000D01*
X137922000Y-92964000D02*
X137434000Y-93452000D01*
X127276000Y-61214000D02*
X127276000Y-58652000D01*
X140462000Y-58674000D02*
X140462000Y-60452000D01*
X138938000Y-57150000D02*
X140462000Y-58674000D01*
X128778000Y-57150000D02*
X138938000Y-57150000D01*
X127276000Y-58652000D02*
X128778000Y-57150000D01*
X140462000Y-60452000D02*
X140462000Y-61976000D01*
X144780000Y-66294000D02*
X147240000Y-66294000D01*
X140462000Y-61976000D02*
X144780000Y-66294000D01*
X147240000Y-69342000D02*
X147240000Y-66294000D01*
X136040000Y-93556000D02*
X136144000Y-93452000D01*
D36*
X122682000Y-80692000D02*
X125222000Y-80692000D01*
X120142000Y-80692000D02*
X122682000Y-80692000D01*
X117602000Y-80692000D02*
X120142000Y-80692000D01*
X112776000Y-83092000D02*
X114520000Y-83092000D01*
X114520000Y-83092000D02*
X115316000Y-82296000D01*
X115316000Y-82296000D02*
X115316000Y-81280000D01*
X115316000Y-81280000D02*
X115904000Y-80692000D01*
X115904000Y-80692000D02*
X117602000Y-80692000D01*
D35*
X123004000Y-73006000D02*
X121812000Y-73006000D01*
X121812000Y-73006000D02*
X121666000Y-73152000D01*
X121666000Y-73152000D02*
X121666000Y-74422000D01*
X121666000Y-74422000D02*
X121850000Y-74606000D01*
X121850000Y-74606000D02*
X123004000Y-74606000D01*
X123004000Y-74606000D02*
X129470000Y-74606000D01*
X129470000Y-74606000D02*
X130270000Y-75406000D01*
X125222000Y-91440000D02*
X125222000Y-93726000D01*
D36*
X117602000Y-90424000D02*
X117602000Y-93726000D01*
X122682000Y-93726000D02*
X125222000Y-93726000D01*
X120142000Y-93726000D02*
X122682000Y-93726000D01*
X117602000Y-93726000D02*
X120142000Y-93726000D01*
D35*
X129560000Y-82276000D02*
X129032000Y-82804000D01*
X129560000Y-80518000D02*
X129560000Y-82276000D01*
X126746000Y-89916000D02*
X125222000Y-91440000D01*
X127508000Y-73806000D02*
X127616000Y-73806000D01*
X130048000Y-72644000D02*
X130410000Y-73006000D01*
X128778000Y-72644000D02*
X130048000Y-72644000D01*
X127616000Y-73806000D02*
X128778000Y-72644000D01*
D36*
X137922000Y-60452000D02*
X137922000Y-60960000D01*
X137922000Y-60960000D02*
X142748000Y-65786000D01*
X112776000Y-87410000D02*
X114012000Y-87410000D01*
X114554000Y-86868000D02*
X114554000Y-84074000D01*
X114012000Y-87410000D02*
X114554000Y-86868000D01*
D35*
X132588000Y-86026000D02*
X133270000Y-86026000D01*
X134112000Y-88920000D02*
X136144000Y-90952000D01*
X134112000Y-86868000D02*
X134112000Y-88920000D01*
X133270000Y-86026000D02*
X134112000Y-86868000D01*
X131504000Y-73006000D02*
X132988000Y-73006000D01*
X133858000Y-69088000D02*
X135128000Y-69088000D01*
X133350000Y-69596000D02*
X133858000Y-69088000D01*
X133350000Y-72644000D02*
X133350000Y-69596000D01*
X132988000Y-73006000D02*
X133350000Y-72644000D01*
X123004000Y-72206000D02*
X121088000Y-72206000D01*
X121088000Y-72206000D02*
X120904000Y-72390000D01*
X121158000Y-62738000D02*
X122682000Y-61214000D01*
X122682000Y-61214000D02*
X123676000Y-61214000D01*
D36*
X112776000Y-87410000D02*
X114588000Y-87410000D01*
X114588000Y-87410000D02*
X117602000Y-90424000D01*
X115316000Y-64008000D02*
X115316000Y-62230000D01*
X116332000Y-61214000D02*
X123676000Y-61214000D01*
X115316000Y-62230000D02*
X116332000Y-61214000D01*
D35*
X135128000Y-69088000D02*
X135128000Y-68072000D01*
D36*
X135128000Y-68072000D02*
X136144000Y-67056000D01*
X136144000Y-67056000D02*
X140716000Y-67056000D01*
X140716000Y-67056000D02*
X142748000Y-69088000D01*
D35*
X140188000Y-70866000D02*
X140188000Y-70124000D01*
X141224000Y-69088000D02*
X142748000Y-69088000D01*
X140188000Y-70124000D02*
X141224000Y-69088000D01*
X140188000Y-73406000D02*
X140188000Y-70866000D01*
X136144000Y-90952000D02*
X140442000Y-90952000D01*
X140442000Y-90952000D02*
X140462000Y-90932000D01*
X129794000Y-86026000D02*
X132588000Y-86026000D01*
X123004000Y-73806000D02*
X127508000Y-73806000D01*
X130410000Y-73006000D02*
X131504000Y-73006000D01*
X123004000Y-72206000D02*
X124276000Y-72206000D01*
X124314000Y-73806000D02*
X123004000Y-73806000D01*
X124460000Y-73660000D02*
X124314000Y-73806000D01*
X124460000Y-72390000D02*
X124460000Y-73660000D01*
X124276000Y-72206000D02*
X124460000Y-72390000D01*
X121412000Y-76200000D02*
X121418000Y-76206000D01*
X121418000Y-76206000D02*
X123004000Y-76206000D01*
X137688000Y-70866000D02*
X137688000Y-69830000D01*
X137688000Y-69830000D02*
X138684000Y-68834000D01*
X121634000Y-75406000D02*
X121412000Y-75184000D01*
X123004000Y-75406000D02*
X121634000Y-75406000D01*
X137688000Y-75792000D02*
X137688000Y-77570000D01*
X137688000Y-73406000D02*
X137688000Y-75792000D01*
X137688000Y-77570000D02*
X138938000Y-78820000D01*
X153162000Y-85070000D02*
X153162000Y-90932000D01*
X126854000Y-69156000D02*
X126854000Y-65170000D01*
X155174000Y-82570000D02*
X153162000Y-82570000D01*
X155448000Y-82296000D02*
X155174000Y-82570000D01*
X132334000Y-64008000D02*
X132842000Y-63500000D01*
X128016000Y-64008000D02*
X132334000Y-64008000D01*
X126854000Y-65170000D02*
X128016000Y-64008000D01*
D36*
X144526000Y-68326000D02*
X143256000Y-67056000D01*
X139954000Y-64770000D02*
X139954000Y-64516000D01*
X142240000Y-67056000D02*
X139954000Y-64770000D01*
X143256000Y-67056000D02*
X142240000Y-67056000D01*
X121700000Y-67530000D02*
X123444000Y-65786000D01*
X121700000Y-67530000D02*
X120396000Y-67530000D01*
X124968000Y-65786000D02*
X126238000Y-64516000D01*
X123444000Y-65786000D02*
X124968000Y-65786000D01*
X144018000Y-71628000D02*
X142748000Y-71628000D01*
X144526000Y-71120000D02*
X144018000Y-71628000D01*
X144526000Y-68326000D02*
X144526000Y-71120000D01*
X143510000Y-67310000D02*
X144526000Y-68326000D01*
X143510000Y-67310000D02*
X143510000Y-67310000D01*
D35*
X115316000Y-69088000D02*
X115824000Y-69088000D01*
X115824000Y-69088000D02*
X117382000Y-67530000D01*
X117382000Y-67530000D02*
X120396000Y-67530000D01*
X128016000Y-87376000D02*
X128016000Y-86106000D01*
D36*
X129794000Y-93556000D02*
X128862000Y-93556000D01*
D35*
X129254000Y-76168000D02*
X129254000Y-77656000D01*
X128778000Y-75692000D02*
X129254000Y-76168000D01*
X128270000Y-75692000D02*
X128778000Y-75692000D01*
X128016000Y-75946000D02*
X128270000Y-75692000D01*
D36*
X128016000Y-92710000D02*
X128016000Y-87376000D01*
X128862000Y-93556000D02*
X128016000Y-92710000D01*
D35*
X129624000Y-93556000D02*
X129794000Y-93556000D01*
D36*
X128524000Y-66040000D02*
X128778000Y-66294000D01*
X128778000Y-66294000D02*
X131572000Y-66294000D01*
X131572000Y-66294000D02*
X132588000Y-67310000D01*
X141732000Y-75184000D02*
X142748000Y-74168000D01*
X139192000Y-75184000D02*
X141732000Y-75184000D01*
X138938000Y-74930000D02*
X139192000Y-75184000D01*
X132842000Y-60452000D02*
X131572000Y-60452000D01*
X124968000Y-64262000D02*
X124714000Y-64262000D01*
X126238000Y-62992000D02*
X124968000Y-64262000D01*
X129032000Y-62992000D02*
X126238000Y-62992000D01*
X131572000Y-60452000D02*
X129032000Y-62992000D01*
D35*
X142748000Y-79248000D02*
X144272000Y-79248000D01*
X145288000Y-75946000D02*
X143510000Y-74168000D01*
X145288000Y-78232000D02*
X145288000Y-75946000D01*
X144272000Y-79248000D02*
X145288000Y-78232000D01*
X143510000Y-74168000D02*
X142748000Y-74168000D01*
D36*
X135382000Y-61976000D02*
X135382000Y-60452000D01*
X139446000Y-66040000D02*
X135382000Y-61976000D01*
D35*
X142748000Y-81788000D02*
X141986000Y-81788000D01*
X141986000Y-81788000D02*
X140970000Y-80772000D01*
X140970000Y-80772000D02*
X140970000Y-77470000D01*
X140970000Y-77470000D02*
X141732000Y-76708000D01*
X141732000Y-76708000D02*
X142748000Y-76708000D01*
X124454000Y-69156000D02*
X124454000Y-67304000D01*
X124454000Y-67304000D02*
X124206000Y-67056000D01*
X123004000Y-70606000D02*
X121672000Y-70606000D01*
X121672000Y-70606000D02*
X121158000Y-71120000D01*
X125254000Y-69156000D02*
X125254000Y-70136000D01*
X145288000Y-94996000D02*
X145288000Y-94996000D01*
D36*
X135128000Y-94996000D02*
X145288000Y-94996000D01*
X134366000Y-94234000D02*
X135128000Y-94996000D01*
X134366000Y-93726000D02*
X134366000Y-94234000D01*
D35*
X125254000Y-70136000D02*
X125984000Y-70866000D01*
X139192000Y-88138000D02*
X135128000Y-88138000D01*
X126746000Y-70612000D02*
X126054000Y-69920000D01*
X127254000Y-70612000D02*
X126746000Y-70612000D01*
X127508000Y-70866000D02*
X127254000Y-70612000D01*
X126054000Y-69920000D02*
X126054000Y-69156000D01*
X142748000Y-63246000D02*
X142748000Y-63246000D01*
X157734000Y-65786000D02*
X158750000Y-64770000D01*
X158750000Y-64770000D02*
X158750000Y-61976000D01*
X158750000Y-61976000D02*
X157480000Y-60706000D01*
X157480000Y-60706000D02*
X151638000Y-60706000D01*
X151638000Y-60706000D02*
X149860000Y-62484000D01*
X149860000Y-62484000D02*
X144018000Y-62484000D01*
X134874000Y-63500000D02*
X133477000Y-64897000D01*
X133477000Y-64897000D02*
X128397000Y-64897000D01*
X128397000Y-64897000D02*
X127654000Y-65640000D01*
X127654000Y-69156000D02*
X127654000Y-65640000D01*
X157734000Y-65786000D02*
X155448000Y-65786000D01*
X143510000Y-62484000D02*
X144018000Y-62484000D01*
X142748000Y-63246000D02*
X143510000Y-62484000D01*
X155448000Y-73406000D02*
X154432000Y-73406000D01*
X154432000Y-73406000D02*
X152908000Y-71882000D01*
X153924000Y-65786000D02*
X155448000Y-65786000D01*
X152908000Y-66802000D02*
X153924000Y-65786000D01*
X152908000Y-71882000D02*
X152908000Y-66802000D01*
X149940000Y-72390000D02*
X151638000Y-72390000D01*
X152654000Y-73406000D02*
X155448000Y-73406000D01*
X151638000Y-72390000D02*
X152654000Y-73406000D01*
X128454000Y-67380000D02*
X128454000Y-69156000D01*
X128524000Y-67310000D02*
X128454000Y-67380000D01*
X155448000Y-68326000D02*
X156718000Y-68326000D01*
X156718000Y-68326000D02*
X157734000Y-69342000D01*
X157734000Y-69342000D02*
X157734000Y-75184000D01*
X157734000Y-75184000D02*
X156972000Y-75946000D01*
X156972000Y-75946000D02*
X155448000Y-75946000D01*
X149940000Y-75438000D02*
X154940000Y-75438000D01*
X154940000Y-75438000D02*
X155448000Y-75946000D01*
X133096000Y-82550000D02*
X131572000Y-84074000D01*
D36*
X155194000Y-92456000D02*
X155194000Y-88646000D01*
X155194000Y-88646000D02*
X157988000Y-85852000D01*
X157988000Y-85852000D02*
X157988000Y-81026000D01*
X157988000Y-81026000D02*
X155448000Y-78486000D01*
X139192000Y-93218000D02*
X154432000Y-93218000D01*
X154432000Y-93218000D02*
X155194000Y-92456000D01*
X138176000Y-94234000D02*
X139192000Y-93218000D01*
D35*
X131504000Y-76206000D02*
X131504000Y-77910000D01*
X131504000Y-77910000D02*
X131572000Y-77978000D01*
X145542000Y-71120000D02*
X145542000Y-67437000D01*
X145542000Y-74422000D02*
X145542000Y-71120000D01*
X146558000Y-75438000D02*
X145542000Y-74422000D01*
X151638000Y-66294000D02*
X149940000Y-66294000D01*
X151765000Y-66167000D02*
X151638000Y-66294000D01*
X145542000Y-67437000D02*
X145288000Y-67183000D01*
X147240000Y-75438000D02*
X146558000Y-75438000D01*
X147240000Y-72390000D02*
X147240000Y-71200000D01*
X149940000Y-70278000D02*
X149940000Y-69342000D01*
X149352000Y-70866000D02*
X149940000Y-70278000D01*
X147574000Y-70866000D02*
X149352000Y-70866000D01*
X147240000Y-71200000D02*
X147574000Y-70866000D01*
X125254000Y-77656000D02*
X125254000Y-76486000D01*
X125254000Y-76486000D02*
X124714000Y-75946000D01*
X117602000Y-83392000D02*
X117602000Y-86106000D01*
X125984000Y-75946000D02*
X126054000Y-76016000D01*
X126054000Y-76016000D02*
X126054000Y-77656000D01*
X120142000Y-83392000D02*
X120142000Y-86106000D01*
X122682000Y-83392000D02*
X122682000Y-86106000D01*
X124968000Y-71374000D02*
X124936000Y-71406000D01*
X124936000Y-71406000D02*
X123004000Y-71406000D01*
X125222000Y-83392000D02*
X125222000Y-86106000D01*
X124454000Y-77656000D02*
X124454000Y-78734000D01*
X126238000Y-83820000D02*
X125650000Y-83820000D01*
X126746000Y-83312000D02*
X126238000Y-83820000D01*
X126746000Y-80010000D02*
X126746000Y-83312000D01*
X125984000Y-79248000D02*
X126746000Y-80010000D01*
X124968000Y-79248000D02*
X125984000Y-79248000D01*
X124454000Y-78734000D02*
X124968000Y-79248000D01*
X125650000Y-83820000D02*
X125222000Y-83392000D01*
X127654000Y-77656000D02*
X127654000Y-78632000D01*
X128270000Y-79248000D02*
X135128000Y-79248000D01*
X127654000Y-78632000D02*
X128270000Y-79248000D01*
X135128000Y-79248000D02*
X134366000Y-79248000D01*
X134366000Y-79248000D02*
X133350000Y-78232000D01*
X133350000Y-78232000D02*
X133350000Y-75946000D01*
X133350000Y-75946000D02*
X135128000Y-74168000D01*
X130302000Y-83820000D02*
X130556000Y-83820000D01*
X130556000Y-83820000D02*
X132588000Y-81788000D01*
X130556000Y-83820000D02*
X132080000Y-82296000D01*
X127508000Y-81280000D02*
X127508000Y-82804000D01*
X128524000Y-83820000D02*
X130302000Y-83820000D01*
X127508000Y-82804000D02*
X128524000Y-83820000D01*
X132080000Y-82296000D02*
X132588000Y-81788000D01*
X127508000Y-80010000D02*
X127508000Y-81280000D01*
X126854000Y-77656000D02*
X126854000Y-79356000D01*
X132588000Y-81788000D02*
X135128000Y-81788000D01*
X126854000Y-79356000D02*
X127508000Y-80010000D01*
X135128000Y-81788000D02*
X135890000Y-81788000D01*
X135890000Y-81788000D02*
X136652000Y-81026000D01*
X136652000Y-81026000D02*
X136652000Y-78232000D01*
X136652000Y-78232000D02*
X135128000Y-76708000D01*
D36*
X146558000Y-86394000D02*
X146558000Y-87376000D01*
X145542000Y-88392000D02*
X145542000Y-90932000D01*
X146558000Y-87376000D02*
X145542000Y-88392000D01*
D35*
X113182000Y-73392000D02*
X115838000Y-73392000D01*
X120396000Y-71120000D02*
X120396000Y-69630000D01*
X119888000Y-71628000D02*
X120396000Y-71120000D01*
X117602000Y-71628000D02*
X119888000Y-71628000D01*
X115838000Y-73392000D02*
X117602000Y-71628000D01*
D36*
X129794000Y-88726000D02*
X129794000Y-91356000D01*
X132588000Y-88726000D02*
X132588000Y-91356000D01*
X112776000Y-80992000D02*
X112776000Y-78398000D01*
D35*
X112776000Y-78398000D02*
X113182000Y-77992000D01*
D36*
X112776000Y-85310000D02*
X111980000Y-85310000D01*
X111760000Y-75692000D02*
X113182000Y-75692000D01*
X110236000Y-77216000D02*
X111760000Y-75692000D01*
X110236000Y-83566000D02*
X110236000Y-77216000D01*
X111980000Y-85310000D02*
X110236000Y-83566000D01*
D35*
X131504000Y-73806000D02*
X129940000Y-73806000D01*
X133858000Y-80518000D02*
X132060000Y-80518000D01*
X129940000Y-73806000D02*
X129540000Y-73406000D01*
M02*
