G04 #@! TF.FileFunction,Copper,L2,Bot,Signal*
%FSLAX46Y46*%
G04 Gerber Fmt 4.6, Leading zero omitted, Abs format (unit mm)*
G04 Created by KiCad (PCBNEW 4.0.6) date Tuesday, 11 '11e' April '11e' 2017, 13:18:08*
%MOMM*%
%LPD*%
G01*
G04 APERTURE LIST*
%ADD10C,0.100000*%
%ADD11R,2.000000X2.600000*%
%ADD12O,2.000000X2.600000*%
%ADD13R,2.600000X2.000000*%
%ADD14O,2.600000X2.000000*%
%ADD15R,1.800000X1.800000*%
%ADD16C,1.800000*%
%ADD17R,3.000000X3.000000*%
%ADD18C,3.000000*%
%ADD19R,1.600000X1.600000*%
%ADD20O,1.600000X1.600000*%
%ADD21C,1.700000*%
%ADD22C,2.150000*%
%ADD23C,0.600000*%
%ADD24C,0.250000*%
%ADD25C,0.500000*%
G04 APERTURE END LIST*
D10*
D11*
X132842000Y-60452000D03*
D12*
X135382000Y-60452000D03*
X137922000Y-60452000D03*
X140462000Y-60452000D03*
X143002000Y-60452000D03*
X145542000Y-60452000D03*
D11*
X153162000Y-90932000D03*
D12*
X150622000Y-90932000D03*
X148082000Y-90932000D03*
X145542000Y-90932000D03*
X143002000Y-90932000D03*
X140462000Y-90932000D03*
D13*
X155448000Y-63246000D03*
D14*
X155448000Y-65786000D03*
X155448000Y-68326000D03*
X155448000Y-70866000D03*
X155448000Y-73406000D03*
X155448000Y-75946000D03*
X155448000Y-78486000D03*
D15*
X135128000Y-69088000D03*
D16*
X135128000Y-71628000D03*
X135128000Y-74168000D03*
X135128000Y-76708000D03*
X135128000Y-79248000D03*
X135128000Y-81788000D03*
X135128000Y-84328000D03*
X142748000Y-84328000D03*
X142748000Y-81788000D03*
X142748000Y-79248000D03*
X142748000Y-76708000D03*
X142748000Y-74168000D03*
X142748000Y-71628000D03*
D15*
X142748000Y-69088000D03*
D17*
X115316000Y-69088000D03*
D18*
X115316000Y-64008000D03*
D19*
X125222000Y-86106000D03*
D20*
X117602000Y-93726000D03*
X122682000Y-86106000D03*
X120142000Y-93726000D03*
X120142000Y-86106000D03*
X122682000Y-93726000D03*
X117602000Y-86106000D03*
X125222000Y-93726000D03*
D21*
X138938000Y-83820000D03*
X138938000Y-78820000D03*
D22*
X112431100Y-92018600D03*
X158031100Y-92018600D03*
X112431100Y-58018600D03*
X158031100Y-58018600D03*
D23*
X119380000Y-72898000D03*
X118872000Y-65786000D03*
X129470000Y-74606000D03*
X137922000Y-92964000D03*
X129032000Y-82804000D03*
X126746000Y-89916000D03*
X142748000Y-65786000D03*
X114554000Y-84074000D03*
X120904000Y-72390000D03*
X121158000Y-62738000D03*
X121412000Y-76200000D03*
X138684000Y-68834000D03*
X121412000Y-75184000D03*
X155448000Y-82296000D03*
X132842000Y-63500000D03*
X139954000Y-64516000D03*
X126238000Y-64516000D03*
X128016000Y-86106000D03*
X128016000Y-75946000D03*
X132588000Y-67310000D03*
X128524000Y-66040000D03*
X138938000Y-74930000D03*
X124714000Y-64262000D03*
X139446000Y-66040000D03*
X124206000Y-67056000D03*
X121158000Y-71120000D03*
X145288000Y-94996000D03*
X134366000Y-93726000D03*
X125984000Y-70866000D03*
X139192000Y-88138000D03*
X135128000Y-88138000D03*
X127508000Y-70866000D03*
X142748000Y-63246000D03*
X134874000Y-63500000D03*
X128524000Y-67310000D03*
X133096000Y-82550000D03*
X131572000Y-84074000D03*
X138176000Y-94234000D03*
X131572000Y-77978000D03*
X151765000Y-66167000D03*
X145288000Y-67183000D03*
X124714000Y-75946000D03*
X125984000Y-75946000D03*
X124968000Y-71374000D03*
X133858000Y-80518000D03*
X129540000Y-73406000D03*
D24*
X130048000Y-75184000D02*
X129470000Y-74606000D01*
X130048000Y-78613000D02*
X130048000Y-78867000D01*
X131064000Y-79883000D02*
X131064000Y-81788000D01*
X130048000Y-78867000D02*
X131064000Y-79883000D01*
X131064000Y-81788000D02*
X133604000Y-84328000D01*
X133604000Y-84328000D02*
X135128000Y-84328000D01*
X118364000Y-71882000D02*
X119380000Y-72898000D01*
X118364000Y-66294000D02*
X118364000Y-71882000D01*
X118872000Y-65786000D02*
X118364000Y-66294000D01*
X130048000Y-75184000D02*
X130048000Y-78613000D01*
X135128000Y-84328000D02*
X135636000Y-84328000D01*
X135636000Y-84328000D02*
X137414000Y-86106000D01*
X137922000Y-86614000D02*
X137922000Y-92964000D01*
X137414000Y-86106000D02*
X137922000Y-86614000D01*
X125222000Y-93726000D02*
X126746000Y-93726000D01*
X126746000Y-93726000D02*
X128016000Y-94996000D01*
X126746000Y-89916000D02*
X128524000Y-89916000D01*
X129540000Y-88900000D02*
X129540000Y-87376000D01*
X128524000Y-89916000D02*
X129540000Y-88900000D01*
X129032000Y-82804000D02*
X129032000Y-85090000D01*
X129032000Y-85090000D02*
X129032000Y-85598000D01*
X129032000Y-85598000D02*
X129540000Y-86106000D01*
X129540000Y-86106000D02*
X129540000Y-87376000D01*
D25*
X142748000Y-65786000D02*
X142748000Y-69088000D01*
D24*
X120904000Y-72644000D02*
X120904000Y-72390000D01*
X119380000Y-74168000D02*
X120904000Y-72644000D01*
X118364000Y-74168000D02*
X119380000Y-74168000D01*
X114554000Y-77978000D02*
X118364000Y-74168000D01*
X114554000Y-84074000D02*
X114554000Y-77978000D01*
X155448000Y-70866000D02*
X156972000Y-70866000D01*
X157226000Y-63246000D02*
X155448000Y-63246000D01*
X157734000Y-63754000D02*
X157226000Y-63246000D01*
X157734000Y-70104000D02*
X157734000Y-63754000D01*
X156972000Y-70866000D02*
X157734000Y-70104000D01*
D25*
X142748000Y-69088000D02*
X151130000Y-69088000D01*
X151130000Y-69088000D02*
X152908000Y-70866000D01*
X152908000Y-70866000D02*
X155448000Y-70866000D01*
D24*
X140462000Y-93218000D02*
X140462000Y-90932000D01*
X138684000Y-94996000D02*
X140462000Y-93218000D01*
X128016000Y-94996000D02*
X138684000Y-94996000D01*
X120904000Y-72390000D02*
X120396000Y-71882000D01*
X120396000Y-71882000D02*
X120396000Y-63500000D01*
X120396000Y-63500000D02*
X121158000Y-62738000D01*
X140716000Y-81534000D02*
X140716000Y-83312000D01*
X139974000Y-74295000D02*
X139974000Y-74061000D01*
X139065000Y-73152000D02*
X139065000Y-69723000D01*
X139974000Y-74061000D02*
X139065000Y-73152000D01*
X138684000Y-68834000D02*
X138684000Y-69342000D01*
X138684000Y-69342000D02*
X139065000Y-69723000D01*
X139974000Y-74295000D02*
X139974000Y-75204000D01*
X139974000Y-75204000D02*
X140716000Y-75946000D01*
X140716000Y-75946000D02*
X140716000Y-81534000D01*
X140208000Y-83820000D02*
X138938000Y-83820000D01*
X140716000Y-83312000D02*
X140208000Y-83820000D01*
X138684000Y-68834000D02*
X138684000Y-67056000D01*
X138684000Y-67056000D02*
X138684000Y-67183000D01*
X138684000Y-67183000D02*
X138684000Y-67056000D01*
X138684000Y-67056000D02*
X137668000Y-66040000D01*
X120650000Y-76200000D02*
X121412000Y-76200000D01*
X120142000Y-75692000D02*
X120650000Y-76200000D01*
X120142000Y-74676000D02*
X120142000Y-75692000D01*
X122682000Y-72136000D02*
X120142000Y-74676000D01*
X122682000Y-70358000D02*
X122682000Y-72136000D01*
X124206000Y-68834000D02*
X122682000Y-70358000D01*
X129540000Y-68834000D02*
X124206000Y-68834000D01*
X132334000Y-66040000D02*
X129540000Y-68834000D01*
X137668000Y-66040000D02*
X132334000Y-66040000D01*
X136906000Y-75010000D02*
X136906000Y-76788000D01*
X121412000Y-75184000D02*
X123698000Y-72898000D01*
X123698000Y-72898000D02*
X123698000Y-70612000D01*
X123698000Y-70612000D02*
X124206000Y-70104000D01*
X124206000Y-70104000D02*
X128778000Y-70104000D01*
X133096000Y-68072000D02*
X133604000Y-67564000D01*
X133604000Y-67564000D02*
X136144000Y-67564000D01*
X136144000Y-67564000D02*
X136906000Y-68326000D01*
X136906000Y-68326000D02*
X136906000Y-75010000D01*
X129540000Y-70104000D02*
X131572000Y-68072000D01*
X131572000Y-68072000D02*
X133096000Y-68072000D01*
X128778000Y-70104000D02*
X129540000Y-70104000D01*
X136906000Y-76788000D02*
X138938000Y-78820000D01*
X156718000Y-82296000D02*
X155448000Y-82296000D01*
X159512000Y-79502000D02*
X156718000Y-82296000D01*
X159512000Y-62230000D02*
X159512000Y-79502000D01*
X157480000Y-60198000D02*
X159512000Y-62230000D01*
X156718000Y-60198000D02*
X157480000Y-60198000D01*
X156718000Y-60198000D02*
X156718000Y-60198000D01*
X149606000Y-60198000D02*
X156718000Y-60198000D01*
X147320000Y-62484000D02*
X149606000Y-60198000D01*
X141986000Y-62484000D02*
X147320000Y-62484000D01*
X141732000Y-62738000D02*
X141986000Y-62484000D01*
X134112000Y-62738000D02*
X141732000Y-62738000D01*
X133604000Y-62738000D02*
X134112000Y-62738000D01*
X133350000Y-62992000D02*
X133604000Y-62738000D01*
X132842000Y-63500000D02*
X133350000Y-62992000D01*
D25*
X126238000Y-64516000D02*
X139954000Y-64516000D01*
D24*
X128016000Y-86106000D02*
X128016000Y-81280000D01*
X128016000Y-81280000D02*
X128016000Y-75946000D01*
D25*
X128270000Y-66294000D02*
X128524000Y-66040000D01*
X125476000Y-66294000D02*
X128270000Y-66294000D01*
X137668000Y-73660000D02*
X138938000Y-74930000D01*
X137668000Y-68580000D02*
X137668000Y-73660000D01*
X137668000Y-68580000D02*
X137668000Y-68580000D01*
X137668000Y-67310000D02*
X137668000Y-68580000D01*
X137160000Y-66802000D02*
X137668000Y-67310000D01*
X133096000Y-66802000D02*
X137160000Y-66802000D01*
X132588000Y-67310000D02*
X133096000Y-66802000D01*
X124968000Y-65786000D02*
X125476000Y-66294000D01*
X124968000Y-64516000D02*
X124968000Y-65786000D01*
X124714000Y-64262000D02*
X124968000Y-64516000D01*
X140970000Y-74676000D02*
X140970000Y-68072000D01*
X140970000Y-68072000D02*
X139446000Y-66548000D01*
X139446000Y-66548000D02*
X139446000Y-66040000D01*
X142748000Y-76454000D02*
X140970000Y-74676000D01*
X142748000Y-76708000D02*
X142748000Y-76454000D01*
D24*
X143002000Y-58928000D02*
X143002000Y-60452000D01*
X142240000Y-58166000D02*
X143002000Y-58928000D01*
X129032000Y-58166000D02*
X142240000Y-58166000D01*
X123698000Y-63500000D02*
X129032000Y-58166000D01*
X123698000Y-66548000D02*
X123698000Y-63500000D01*
X124206000Y-67056000D02*
X123698000Y-66548000D01*
X145542000Y-58420000D02*
X145542000Y-60452000D01*
X144018000Y-56896000D02*
X145542000Y-58420000D01*
X143510000Y-56896000D02*
X144018000Y-56896000D01*
X128778000Y-56896000D02*
X143510000Y-56896000D01*
X121920000Y-63754000D02*
X128778000Y-56896000D01*
X121920000Y-70358000D02*
X121920000Y-63754000D01*
X121158000Y-71120000D02*
X121920000Y-70358000D01*
X150622000Y-92456000D02*
X150622000Y-90932000D01*
X149860000Y-93218000D02*
X150622000Y-92456000D01*
X147066000Y-93218000D02*
X149860000Y-93218000D01*
X145288000Y-94996000D02*
X147066000Y-93218000D01*
X128016000Y-93726000D02*
X134366000Y-93726000D01*
X125476000Y-91186000D02*
X128016000Y-93726000D01*
X125476000Y-88646000D02*
X125476000Y-91186000D01*
X127000000Y-87122000D02*
X125476000Y-88646000D01*
X127000000Y-71882000D02*
X127000000Y-87122000D01*
X125984000Y-70866000D02*
X127000000Y-71882000D01*
X129032000Y-77216000D02*
X129032000Y-75692000D01*
X148082000Y-89408000D02*
X146812000Y-88138000D01*
X146812000Y-88138000D02*
X139192000Y-88138000D01*
X135128000Y-88138000D02*
X134620000Y-87630000D01*
X134620000Y-87630000D02*
X132588000Y-87630000D01*
X132588000Y-87630000D02*
X130048000Y-85090000D01*
X130048000Y-85090000D02*
X130048000Y-80518000D01*
X130048000Y-80518000D02*
X129032000Y-79502000D01*
X129032000Y-79502000D02*
X129032000Y-77216000D01*
X148082000Y-90932000D02*
X148082000Y-89408000D01*
X128270000Y-71628000D02*
X127508000Y-70866000D01*
X128270000Y-74930000D02*
X128270000Y-71628000D01*
X129032000Y-75692000D02*
X128270000Y-74930000D01*
X142748000Y-63246000D02*
X142494000Y-63500000D01*
X142494000Y-63500000D02*
X134874000Y-63500000D01*
X155448000Y-75946000D02*
X156972000Y-75946000D01*
X130556000Y-65278000D02*
X128524000Y-67310000D01*
X141478000Y-65278000D02*
X130556000Y-65278000D01*
X142240000Y-64516000D02*
X141478000Y-65278000D01*
X147828000Y-64516000D02*
X142240000Y-64516000D01*
X149098000Y-63246000D02*
X147828000Y-64516000D01*
X151130000Y-61214000D02*
X149098000Y-63246000D01*
X157226000Y-61214000D02*
X151130000Y-61214000D01*
X158750000Y-62738000D02*
X157226000Y-61214000D01*
X158750000Y-74168000D02*
X158750000Y-62738000D01*
X156972000Y-75946000D02*
X158750000Y-74168000D01*
X131572000Y-77978000D02*
X131572000Y-78486000D01*
X132334000Y-79248000D02*
X132334000Y-81280000D01*
X131572000Y-78486000D02*
X132334000Y-79248000D01*
X133096000Y-82550000D02*
X133096000Y-82042000D01*
X136398000Y-88900000D02*
X136398000Y-92456000D01*
X134112000Y-86614000D02*
X135890000Y-86614000D01*
X135890000Y-86614000D02*
X136398000Y-87122000D01*
X136398000Y-87122000D02*
X136398000Y-88900000D01*
X131572000Y-84074000D02*
X134112000Y-86614000D01*
X136398000Y-93472000D02*
X137160000Y-94234000D01*
X137160000Y-94234000D02*
X138176000Y-94234000D01*
X136398000Y-92456000D02*
X136398000Y-93472000D01*
X133096000Y-82042000D02*
X132334000Y-81280000D01*
X146304000Y-66167000D02*
X151765000Y-66167000D01*
X145288000Y-67183000D02*
X146304000Y-66167000D01*
X117602000Y-80645000D02*
X117602000Y-86106000D01*
X119507000Y-78740000D02*
X117602000Y-80645000D01*
X121920000Y-78740000D02*
X119507000Y-78740000D01*
X124714000Y-75946000D02*
X121920000Y-78740000D01*
X120142000Y-86106000D02*
X120142000Y-81915000D01*
X120142000Y-81915000D02*
X121793000Y-80264000D01*
X121793000Y-80264000D02*
X124968000Y-80264000D01*
X124968000Y-80264000D02*
X125984000Y-79248000D01*
X125984000Y-79248000D02*
X125984000Y-75946000D01*
X122682000Y-86106000D02*
X122682000Y-87884000D01*
X115570000Y-85471000D02*
X115570000Y-85217000D01*
X116332000Y-84455000D02*
X116332000Y-83693000D01*
X115570000Y-85217000D02*
X116332000Y-84455000D01*
X122682000Y-87884000D02*
X122174000Y-88392000D01*
X122174000Y-88392000D02*
X116586000Y-88392000D01*
X116586000Y-88392000D02*
X115570000Y-87376000D01*
X115570000Y-87376000D02*
X115570000Y-85471000D01*
X116332000Y-78994000D02*
X117983000Y-77343000D01*
X117983000Y-77343000D02*
X121793000Y-77343000D01*
X121793000Y-77343000D02*
X124968000Y-74168000D01*
X124968000Y-74168000D02*
X124968000Y-71374000D01*
X116332000Y-83693000D02*
X116332000Y-78994000D01*
X129540000Y-73406000D02*
X131572000Y-73406000D01*
X131572000Y-73406000D02*
X132080000Y-73914000D01*
X132080000Y-73914000D02*
X133350000Y-75184000D01*
X133350000Y-75184000D02*
X133350000Y-80010000D01*
X133350000Y-80010000D02*
X133858000Y-80518000D01*
M02*
