M48
;DRILL file {KiCad 4.0.6} date Tuesday, 11 '11e' April '11e' 2017, 13:18:24
;FORMAT={-:-/ absolute / metric / decimal}
FMAT,2
METRIC,TZ
T1C0.400
T2C0.762
T3C0.800
T4C1.000
T5C1.200
T6C1.520
T7C1.650
%
G90
G05
M71
T1
X114.554Y-84.074
X118.872Y-65.786
X119.38Y-72.898
X120.904Y-72.39
X121.158Y-62.738
X121.158Y-71.12
X121.412Y-75.184
X121.412Y-76.2
X124.206Y-67.056
X124.714Y-64.262
X124.714Y-75.946
X124.968Y-71.374
X125.984Y-70.866
X125.984Y-75.946
X126.238Y-64.516
X126.746Y-89.916
X127.508Y-70.866
X128.016Y-75.946
X128.016Y-86.106
X128.524Y-66.04
X128.524Y-67.31
X129.032Y-82.804
X129.47Y-74.606
X129.54Y-73.406
X131.572Y-77.978
X131.572Y-84.074
X132.588Y-67.31
X132.842Y-63.5
X133.096Y-82.55
X133.858Y-80.518
X134.366Y-93.726
X134.874Y-63.5
X135.128Y-88.138
X137.922Y-92.964
X138.176Y-94.234
X138.684Y-68.834
X138.938Y-74.93
X139.192Y-88.138
X139.446Y-66.04
X139.954Y-64.516
X142.748Y-63.246
X142.748Y-65.786
X145.288Y-67.183
X145.288Y-94.996
X151.765Y-66.167
X155.448Y-82.296
T2
X135.128Y-69.088
X135.128Y-71.628
X135.128Y-74.168
X135.128Y-76.708
X135.128Y-79.248
X135.128Y-81.788
X135.128Y-84.328
X142.748Y-69.088
X142.748Y-71.628
X142.748Y-74.168
X142.748Y-76.708
X142.748Y-79.248
X142.748Y-81.788
X142.748Y-84.328
T3
X117.602Y-86.106
X117.602Y-93.726
X120.142Y-86.106
X120.142Y-93.726
X122.682Y-86.106
X122.682Y-93.726
X125.222Y-86.106
X125.222Y-93.726
T4
X138.938Y-78.82
X138.938Y-83.82
T5
X132.842Y-60.452
X135.382Y-60.452
X137.922Y-60.452
X140.462Y-60.452
X140.462Y-90.932
X143.002Y-60.452
X143.002Y-90.932
X145.542Y-60.452
X145.542Y-90.932
X148.082Y-90.932
X150.622Y-90.932
X153.162Y-90.932
X155.448Y-63.246
X155.448Y-65.786
X155.448Y-68.326
X155.448Y-70.866
X155.448Y-73.406
X155.448Y-75.946
X155.448Y-78.486
T6
X115.316Y-64.008
X115.316Y-69.088
T7
X112.431Y-58.019
X112.431Y-92.019
X158.031Y-58.019
X158.031Y-92.019
T0
M30
