  0
SECTION
  2
HEADER
  9
$ACADVER
  1
AC1014
  9
$HANDSEED
  5
FFFF
  9
$MEASUREMENT
 70
     1
  0
ENDSEC
  0
SECTION
  2
TABLES
  0
TABLE
  2
VPORT
  5
8
330
0
100
AcDbSymbolTable
 70
     4
  0
VPORT
  5
2E
330
8
100
AcDbSymbolTableRecord
100
AcDbViewportTableRecord
  2
*ACTIVE
 70
     0
 10
0.0
 20
0.0
 11
1.0
 21
1.0
 12
210.0
 22
148.5
 13
0.0
 23
0.0
 14
10.0
 24
10.0
 15
10.0
 25
10.0
 16
0.0
 26
0.0
 36
1.0
 17
0.0
 27
0.0
 37
0.0
 40
341.0
 41
1.24
 42
50.0
 43
0.0
 44
0.0
 50
0.0
 51
0.0
 71
     0
 72
   100
 73
     1
 74
     3
 75
     0
 76
     0
 77
     0
 78
     0
  0
ENDTAB
  0
TABLE
  2
LTYPE
  5
5
330
0
100
AcDbSymbolTable
 70
     1
  0
LTYPE
  5
14
330
5
100
AcDbSymbolTableRecord
100
AcDbLinetypeTableRecord
  2
BYBLOCK
 70
     0
  3

 72
    65
 73
     0
 40
0.0
  0
LTYPE
  5
15
330
5
100
AcDbSymbolTableRecord
100
AcDbLinetypeTableRecord
  2
BYLAYER
 70
     0
  3

 72
    65
 73
     0
 40
0.0
  0
LTYPE
  5
16
330
5
100
AcDbSymbolTableRecord
100
AcDbLinetypeTableRecord
  2
CONTINUOUS
 70
     0
  3
Solid line
 72
    65
 73
     0
 40
0.0
  0
ENDTAB
  0
TABLE
  2
LAYER
  5
2
100
AcDbSymbolTable
 70
2
  0
LAYER
  5
50
100
AcDbSymbolTableRecord
100
AcDbLayerTableRecord
  2
0
 70
0
  6
CONTINUOUS
  0
LAYER
  5
51
100
AcDbSymbolTableRecord
100
AcDbLayerTableRecord
  2
Capa_1
 70
0
  6
CONTINUOUS
  0
ENDTAB
  0
TABLE
  2
STYLE
  5
3
330
0
100
AcDbSymbolTable
 70
     1
  0
STYLE
  5
11
330
3
100
AcDbSymbolTableRecord
100
AcDbTextStyleTableRecord
  2
STANDARD
 70
     0
 40
0.0
 41
1.0
 50
0.0
 71
     0
 42
2.5
  3
txt
  4

  0
ENDTAB
  0
TABLE
  2
VIEW
  5
6
330
0
100
AcDbSymbolTable
 70
     0
  0
ENDTAB
  0
TABLE
  2
UCS
  5
7
330
0
100
AcDbSymbolTable
 70
     0
  0
ENDTAB
  0
TABLE
  2
APPID
  5
9
330
0
100
AcDbSymbolTable
 70
     2
  0
APPID
  5
12
330
9
100
AcDbSymbolTableRecord
100
AcDbRegAppTableRecord
  2
ACAD
 70
     0
  0
ENDTAB
  0
TABLE
  2
DIMSTYLE
  5
A
330
0
100
AcDbSymbolTable
 70
     1
  0
DIMSTYLE
105
27
330
A
100
AcDbSymbolTableRecord
100
AcDbDimStyleTableRecord
  2
ISO-25
 70
     0
  3

  4

  5

  6

  7

 40
1.0
 41
2.5
 42
0.625
 43
3.75
 44
1.25
 45
0.0
 46
0.0
 47
0.0
 48
0.0
140
2.5
141
2.5
142
0.0
143
0.03937007874016
144
1.0
145
0.0
146
1.0
147
0.625
 71
     0
 72
     0
 73
     0
 74
     0
 75
     0
 76
     0
 77
     1
 78
     8
170
     0
171
     3
172
     1
173
     0
174
     0
175
     0
176
     0
177
     0
178
     0
270
     2
271
     2
272
     2
273
     2
274
     3
340
11
275
     0
280
     0
281
     0
282
     0
283
     0
284
     8
285
     0
286
     0
287
     3
288
     0
  0
ENDTAB
  0
TABLE
  2
BLOCK_RECORD
  5
1
330
0
100
AcDbSymbolTable
 70
     1
  0
BLOCK_RECORD
  5
1F
330
1
100
AcDbSymbolTableRecord
100
AcDbBlockTableRecord
  2
*MODEL_SPACE
  0
BLOCK_RECORD
  5
1B
330
1
100
AcDbSymbolTableRecord
100
AcDbBlockTableRecord
  2
*PAPER_SPACE
  0
ENDTAB
  0
ENDSEC
  0
SECTION
  2
BLOCKS
  0
BLOCK
  5
20
330
1F
100
AcDbEntity
  8
0
100
AcDbBlockBegin
  2
*MODEL_SPACE
 70
     0
 10
0.0
 20
0.0
 30
0.0
  3
*MODEL_SPACE
  1

  0
ENDBLK
  5
21
330
1F
100
AcDbEntity
  8
0
100
AcDbBlockEnd
  0
BLOCK
  5
1C
330
1B
100
AcDbEntity
 67
     1
  8
0
100
AcDbBlockBegin
  2
*PAPER_SPACE
  1

  0
ENDBLK
  5
1D
330
1B
100
AcDbEntity
 67
     1
  8
0
100
AcDbBlockEnd
  0
ENDSEC
  0
SECTION
  2
ENTITIES
  0
LINE
  5
100
100
AcDbEntity
  8
Capa_1
 62
7
100
AcDbLine
 10
55.029475
 20
196.926056
 30
0.0
 11
74.852279
 21
177.103253
 31
0.0
  0
LINE
  5
101
100
AcDbEntity
  8
Capa_1
 62
7
100
AcDbLine
 10
74.852279
 20
177.103253
 30
0.0
 11
32.675491
 21
134.926466
 31
0.0
  0
LINE
  5
102
100
AcDbEntity
  8
Capa_1
 62
7
100
AcDbLine
 10
32.675491
 20
134.926466
 30
0.0
 11
12.874184
 21
154.727772
 31
0.0
  0
SPLINE
  5
103
100
AcDbEntity
  8
Capa_1
 62
7
100
AcDbSpline
 70
0
 71
3
 72
13
 73
9
 74
7
 40
0.000000
 40
0.000000
 40
0.000000
 40
0.000000
 40
2.832997
 40
5.665028
 40
8.496611
 40
11.082258
 40
13.668354
 40
16.255292
 40
16.255292
 40
16.255292
 40
16.255292
 10
69.805352
 20
203.663562
 30
0.0
 10
68.920869
 20
203.332560
 30
0.0
 10
67.152203
 20
202.670669
 30
0.0
 10
64.534771
 20
201.587463
 30
0.0
 10
62.020737
 20
200.472850
 30
0.0
 10
59.611575
 20
199.326465
 30
0.0
 10
57.301812
 20
198.162168
 30
0.0
 10
55.787003
 20
197.338138
 30
0.0
 10
55.029475
 20
196.926056
 30
0.0
 11
69.805352
 21
203.663562
 31
0.0
 11
67.157783
 21
202.655469
 31
0.0
 11
64.539302
 21
201.576601
 31
0.0
 11
61.951320
 21
200.427599
 31
0.0
 11
59.616001
 21
199.317706
 31
0.0
 11
57.308362
 21
198.150362
 31
0.0
 11
55.029475
 21
196.926056
 31
0.0
  0
SPLINE
  5
104
100
AcDbEntity
  8
Capa_1
 62
7
100
AcDbSpline
 70
0
 71
3
 72
19
 73
15
 74
13
 40
0.000000
 40
0.000000
 40
0.000000
 40
0.000000
 40
4.335010
 40
8.660742
 40
12.979161
 40
17.084288
 40
21.186086
 40
25.286110
 40
29.847043
 40
34.409792
 40
38.976489
 40
43.261410
 40
47.553560
 40
51.854858
 40
51.854858
 40
51.854858
 40
51.854858
 10
12.874184
 20
154.727772
 30
0.0
 10
12.199114
 20
153.449918
 30
0.0
 10
10.850418
 20
150.896945
 30
0.0
 10
9.031763
 20
146.969320
 30
0.0
 10
7.394556
 20
143.046568
 30
0.0
 10
5.945186
 20
139.129869
 30
0.0
 10
4.671981
 20
135.229055
 30
0.0
 10
3.511036
 20
131.135163
 30
0.0
 10
2.484113
 20
126.847086
 30
0.0
 10
1.615329
 20
122.365672
 30
0.0
 10
0.954992
 20
117.941684
 30
0.0
 10
0.494955
 20
113.583713
 30
0.0
 10
0.206595
 20
109.298789
 30
0.0
 10
0.162954
 20
106.434237
 30
0.0
 10
0.141111
 20
105.000437
 30
0.0
 11
12.874184
 21
154.727772
 31
0.0
 11
10.882831
 21
150.877210
 31
0.0
 11
9.056077
 21
146.956123
 31
0.0
 11
7.395283
 21
142.969833
 31
0.0
 11
5.969977
 21
139.120084
 31
0.0
 11
4.697420
 21
135.220681
 31
0.0
 11
3.578787
 21
131.276209
 31
0.0
 11
2.516626
 21
126.840679
 31
0.0
 11
1.648037
 21
122.361368
 31
0.0
 11
0.974638
 21
117.844593
 31
0.0
 11
0.522200
 21
113.583624
 31
0.0
 11
0.243914
 21
109.300506
 31
0.0
 11
0.141111
 21
105.000437
 31
0.0
  0
LINE
  5
105
100
AcDbEntity
  8
Capa_1
 62
7
100
AcDbLine
 10
12.714332
 20
55.273101
 30
0.0
 11
32.759825
 21
75.212762
 31
0.0
  0
LINE
  5
106
100
AcDbEntity
  8
Capa_1
 62
7
100
AcDbLine
 10
32.759825
 20
75.212762
 30
0.0
 11
74.895273
 21
32.994084
 31
0.0
  0
LINE
  5
107
100
AcDbEntity
  8
Capa_1
 62
7
100
AcDbLine
 10
74.895273
 20
32.994084
 30
0.0
 11
54.835998
 21
13.040640
 31
0.0
  0
SPLINE
  5
108
100
AcDbEntity
  8
Capa_1
 62
7
100
AcDbSpline
 70
0
 71
3
 72
19
 73
15
 74
13
 40
0.000000
 40
0.000000
 40
0.000000
 40
0.000000
 40
4.761884
 40
9.512817
 40
14.255392
 40
19.063233
 40
23.867549
 40
28.670819
 40
32.694841
 40
36.721314
 40
40.751719
 40
44.433052
 40
48.120102
 40
51.814095
 40
51.814095
 40
51.814095
 40
51.814095
 10
0.141111
 20
105.000437
 30
0.0
 10
0.162822
 20
103.413018
 30
0.0
 10
0.206194
 20
100.241830
 30
0.0
 10
0.544410
 20
95.499605
 30
0.0
 10
1.083188
 20
90.761773
 30
0.0
 10
1.844114
 20
86.035904
 30
0.0
 10
2.823774
 20
81.330033
 30
0.0
 10
3.953314
 20
76.927094
 30
0.0
 10
5.191884
 20
72.824364
 30
0.0
 10
6.503322
 20
69.015900
 30
0.0
 10
7.918113
 20
65.366778
 30
0.0
 10
9.423539
 20
61.877491
 30
0.0
 10
10.994469
 20
58.540115
 30
0.0
 10
12.140685
 20
56.362789
 30
0.0
 10
12.714332
 20
55.273101
 30
0.0
 11
0.141111
 21
105.000437
 31
0.0
 11
0.251930
 21
100.239843
 31
0.0
 11
0.577770
 21
95.500096
 31
0.0
 11
1.116846
 21
90.788259
 31
0.0
 11
1.880254
 21
86.041413
 31
0.0
 11
2.859647
 21
81.337985
 31
0.0
 11
4.053160
 21
76.685358
 31
0.0
 11
5.216179
 21
72.833068
 31
0.0
 11
6.526990
 21
69.025935
 31
0.0
 11
7.984495
 21
65.268298
 31
0.0
 11
9.441062
 21
61.887377
 31
0.0
 11
11.017952
 21
58.554546
 31
0.0
 11
12.714332
 21
55.273101
 31
0.0
  0
SPLINE
  5
109
100
AcDbEntity
  8
Capa_1
 62
7
100
AcDbSpline
 70
0
 71
3
 72
22
 73
18
 74
16
 40
0.000000
 40
0.000000
 40
0.000000
 40
0.000000
 40
3.526966
 40
7.047479
 40
10.562612
 40
13.817082
 40
17.068620
 40
20.318010
 40
24.542503
 40
28.766353
 40
32.991234
 40
37.399407
 40
41.812477
 40
46.232439
 40
48.264351
 40
50.298357
 40
52.334668
 40
52.334668
 40
52.334668
 40
52.334668
 10
54.835998
 20
13.040640
 30
0.0
 10
55.872557
 20
12.485688
 30
0.0
 10
57.943780
 20
11.376800
 30
0.0
 10
61.116671
 20
9.848285
 30
0.0
 10
64.252128
 20
8.456332
 30
0.0
 10
67.348689
 20
7.202017
 30
0.0
 10
70.399329
 20
6.074569
 30
0.0
 10
73.790150
 20
4.939728
 30
0.0
 10
77.530584
 20
3.834372
 30
0.0
 10
81.627830
 20
2.801040
 30
0.0
 10
85.823308
 20
1.920988
 30
0.0
 10
90.113809
 20
1.203899
 30
0.0
 10
94.495167
 20
0.660018
 30
0.0
 10
98.105998
 20
0.365061
 30
0.0
 10
100.931139
 20
0.222625
 30
0.0
 10
102.964353
 20
0.156859
 30
0.0
 10
104.321126
 20
0.146361
 30
0.0
 10
104.999897
 20
0.141109
 30
0.0
 11
54.835998
 21
13.040640
 31
0.0
 11
57.957138
 21
11.398088
 31
0.0
 11
61.125891
 21
9.864135
 31
0.0
 11
64.339397
 21
8.439514
 31
0.0
 11
67.355635
 21
7.217271
 31
0.0
 11
70.405587
 21
6.090198
 31
0.0
 11
73.486972
 21
5.058887
 31
0.0
 11
77.538272
 21
3.861681
 31
0.0
 11
81.633878
 21
2.828759
 31
0.0
 11
85.768770
 21
1.961414
 31
0.0
 11
90.116641
 21
1.234768
 31
0.0
 11
94.496083
 21
0.691008
 31
0.0
 11
98.901408
 21
0.331609
 31
0.0
 11
100.930715
 21
0.228761
 31
0.0
 11
102.963729
 21
0.165217
 31
0.0
 11
104.999897
 21
0.141109
 31
0.0
  0
LINE
  5
10a
100
AcDbEntity
  8
Capa_1
 62
7
100
AcDbLine
 10
154.901415
 20
12.798662
 30
0.0
 11
134.843794
 21
32.812734
 31
0.0
  0
LINE
  5
10b
100
AcDbEntity
  8
Capa_1
 62
7
100
AcDbLine
 10
134.843794
 20
32.812734
 30
0.0
 11
177.107675
 21
74.902980
 31
0.0
  0
LINE
  5
10c
100
AcDbEntity
  8
Capa_1
 62
7
100
AcDbLine
 10
177.107675
 20
74.902980
 30
0.0
 11
197.053398
 21
55.000802
 31
0.0
  0
SPLINE
  5
10d
100
AcDbEntity
  8
Capa_1
 62
7
100
AcDbSpline
 70
0
 71
3
 72
25
 73
21
 74
19
 40
0.000000
 40
0.000000
 40
0.000000
 40
0.000000
 40
3.417408
 40
6.828792
 40
10.235110
 40
12.677140
 40
15.117384
 40
17.556178
 40
20.650046
 40
23.742775
 40
26.835023
 40
29.748913
 40
32.663510
 40
35.579367
 40
38.097742
 40
40.617842
 40
43.140035
 40
46.093053
 40
49.050075
 40
52.011741
 40
52.011741
 40
52.011741
 40
52.011741
 10
104.999897
 20
0.141109
 30
0.0
 10
106.139085
 20
0.151992
 30
0.0
 10
108.415453
 20
0.173740
 30
0.0
 10
111.823593
 20
0.348593
 30
0.0
 10
114.900400
 20
0.599406
 30
0.0
 10
117.646904
 20
0.902045
 30
0.0
 10
120.065955
 20
1.225463
 30
0.0
 10
122.691457
 20
1.638967
 30
0.0
 10
125.519226
 20
2.161060
 30
0.0
 10
128.543308
 20
2.812214
 30
0.0
 10
131.488624
 20
3.537909
 30
0.0
 10
134.354667
 20
4.331770
 30
0.0
 10
137.141334
 20
5.187705
 30
0.0
 10
139.778216
 20
6.078581
 30
0.0
 10
142.267583
 20
6.992109
 30
0.0
 10
144.612171
 20
7.917112
 30
0.0
 10
147.067470
 20
8.954296
 30
0.0
 10
149.626881
 20
10.116776
 30
0.0
 10
152.287039
 20
11.409955
 30
0.0
 10
154.029500
 20
12.335518
 30
0.0
 10
154.901415
 20
12.798662
 30
0.0
 11
104.999897
 21
0.141109
 31
0.0
 11
108.416840
 21
0.197529
 31
0.0
 11
111.824073
 21
0.365753
 31
0.0
 11
115.218989
 21
0.644226
 31
0.0
 11
117.646352
 21
0.911471
 31
0.0
 11
120.065067
 21
1.234909
 31
0.0
 11
122.474169
 21
1.614309
 31
0.0
 11
125.516612
 21
2.176054
 31
0.0
 11
128.540046
 21
2.827064
 31
0.0
 11
131.542502
 21
3.566835
 31
0.0
 11
134.350658
 21
4.344663
 31
0.0
 11
137.136789
 21
5.200435
 31
0.0
 11
139.899249
 21
6.133731
 31
0.0
 11
142.263451
 21
7.001349
 31
0.0
 11
144.607729
 21
7.926151
 31
0.0
 11
146.931024
 21
8.907862
 31
0.0
 11
149.620237
 21
10.127885
 31
0.0
 11
152.277599
 21
11.424960
 31
0.0
 11
154.901415
 21
12.798662
 31
0.0
  0
SPLINE
  5
10e
100
AcDbEntity
  8
Capa_1
 62
7
100
AcDbSpline
 70
0
 71
3
 72
22
 73
18
 74
16
 40
0.000000
 40
0.000000
 40
0.000000
 40
0.000000
 40
3.380431
 40
6.754915
 40
10.124397
 40
13.119642
 40
16.112279
 40
19.102922
 40
22.493766
 40
25.883694
 40
29.273573
 40
32.736968
 40
36.202144
 40
39.670042
 40
43.821378
 40
47.979666
 40
52.146658
 40
52.146658
 40
52.146658
 40
52.146658
 10
197.053398
 20
55.000802
 30
0.0
 10
197.583828
 20
55.995068
 30
0.0
 10
198.643755
 20
57.981852
 30
0.0
 10
200.109727
 20
61.022601
 30
0.0
 10
201.431850
 20
63.988067
 30
0.0
 10
202.613315
 20
66.875265
 30
0.0
 10
203.667810
 20
69.676607
 30
0.0
 10
204.684765
 20
72.631639
 30
0.0
 10
205.650683
 20
75.742864
 30
0.0
 10
206.550845
 20
79.012003
 30
0.0
 10
207.350527
 20
82.332045
 30
0.0
 10
208.046433
 20
85.701039
 30
0.0
 10
208.634919
 20
89.116819
 30
0.0
 10
209.142304
 20
92.777348
 30
0.0
 10
209.536812
 20
96.684139
 30
0.0
 10
209.802362
 20
100.836177
 30
0.0
 10
209.839895
 20
103.611383
 30
0.0
 10
209.858681
 20
105.000437
 30
0.0
 11
197.053398
 21
55.000802
 31
0.0
 11
198.624191
 21
57.994114
 31
0.0
 11
200.095182
 21
61.031108
 31
0.0
 11
201.465722
 21
64.109262
 31
0.0
 11
202.600438
 21
66.881248
 31
0.0
 11
203.654631
 21
69.682061
 31
0.0
 11
204.627847
 21
72.509922
 31
0.0
 11
205.633231
 21
75.748290
 31
0.0
 11
206.533160
 21
79.016583
 31
0.0
 11
207.326969
 21
82.312208
 31
0.0
 11
208.027549
 21
85.704006
 31
0.0
 11
208.616009
 21
89.118850
 31
0.0
 11
209.091640
 21
92.553977
 31
0.0
 11
209.511250
 21
96.684051
 31
0.0
 11
209.767334
 21
100.834447
 31
0.0
 11
209.858681
 21
105.000437
 31
0.0
  0
LINE
  5
10f
100
AcDbEntity
  8
Capa_1
 62
7
100
AcDbLine
 10
197.039619
 20
155.084958
 30
0.0
 11
177.151769
 21
135.197111
 31
0.0
  0
LINE
  5
110
100
AcDbEntity
  8
Capa_1
 62
7
100
AcDbLine
 10
177.151769
 20
135.197111
 30
0.0
 11
134.974982
 21
177.373901
 31
0.0
  0
LINE
  5
111
100
AcDbEntity
  8
Capa_1
 62
7
100
AcDbLine
 10
134.974982
 20
177.373901
 30
0.0
 11
154.691402
 21
197.090318
 31
0.0
  0
SPLINE
  5
112
100
AcDbEntity
  8
Capa_1
 62
7
100
AcDbSpline
 70
0
 71
3
 72
25
 73
21
 74
19
 40
0.000000
 40
0.000000
 40
0.000000
 40
0.000000
 40
1.222116
 40
2.443375
 40
3.663821
 40
7.902680
 40
12.134119
 40
16.359927
 40
21.307425
 40
26.252304
 40
31.197256
 40
33.384045
 40
35.571607
 40
37.760181
 40
39.713538
 40
41.668061
 40
43.623929
 40
46.490190
 40
49.360277
 40
52.234778
 40
52.234778
 40
52.234778
 40
52.234778
 10
209.858681
 20
105.000437
 30
0.0
 10
209.856730
 20
105.407809
 30
0.0
 10
209.852831
 20
106.222267
 30
0.0
 10
209.828826
 20
107.443350
 30
0.0
 10
209.760983
 20
109.669188
 30
0.0
 10
209.577877
 20
112.895249
 30
0.0
 10
209.167846
 20
117.108491
 30
0.0
 10
208.555828
 20
121.535821
 30
0.0
 10
207.707855
 20
126.166687
 30
0.0
 10
206.588211
 20
130.985881
 30
0.0
 10
205.492928
 20
134.861264
 30
0.0
 10
204.546863
 20
137.820313
 30
0.0
 10
203.837288
 20
139.889857
 30
0.0
 10
203.111449
 20
141.871067
 30
0.0
 10
202.374811
 20
143.765131
 30
0.0
 10
201.632410
 20
145.573353
 30
0.0
 10
200.735845
 20
147.646841
 30
0.0
 10
199.663029
 20
149.975977
 30
0.0
 10
198.396246
 20
152.552192
 30
0.0
 10
197.492060
 20
154.240271
 30
0.0
 10
197.039619
 20
155.084958
 30
0.0
 11
209.858681
 21
105.000437
 31
0.0
 11
209.849800
 21
106.222521
 31
0.0
 11
209.826619
 21
107.443559
 31
0.0
 11
209.789251
 21
108.663433
 31
0.0
 11
209.549309
 21
112.895496
 31
0.0
 11
209.139377
 21
117.107031
 31
0.0
 11
208.560735
 21
121.293035
 31
0.0
 11
207.669595
 21
126.159616
 31
0.0
 11
206.550554
 21
130.976209
 31
0.0
 11
205.205671
 21
135.734764
 31
0.0
 11
204.539724
 21
137.817685
 31
0.0
 11
203.830227
 21
139.886994
 31
0.0
 11
203.077358
 21
141.941999
 31
0.0
 11
202.369310
 21
143.762513
 31
0.0
 11
201.627018
 21
145.570596
 31
0.0
 11
200.850607
 21
147.365757
 31
0.0
 11
199.652611
 21
149.969650
 31
0.0
 11
198.382150
 21
152.543233
 31
0.0
 11
197.039619
 21
155.084958
 31
0.0
  0
SPLINE
  5
113
100
AcDbEntity
  8
Capa_1
 62
7
100
AcDbSpline
 70
0
 71
3
 72
13
 73
9
 74
7
 40
0.000000
 40
0.000000
 40
0.000000
 40
0.000000
 40
2.468232
 40
4.935703
 40
7.402758
 40
10.243951
 40
13.085563
 40
15.928115
 40
15.928115
 40
15.928115
 40
15.928115
 10
154.691402
 20
197.090318
 30
0.0
 10
153.966793
 20
197.480079
 30
0.0
 10
152.517799
 20
198.259480
 30
0.0
 10
150.310397
 20
199.363126
 30
0.0
 10
147.967289
 20
200.471675
 30
0.0
 10
145.481686
 20
201.568654
 30
0.0
 10
142.853469
 20
202.650858
 30
0.0
 10
141.077575
 20
203.311626
 30
0.0
 10
140.189481
 20
203.642065
 30
0.0
 11
154.691402
 21
197.090318
 31
0.0
 11
152.511883
 21
198.248707
 31
0.0
 11
150.306386
 21
199.355143
 31
0.0
 11
148.075845
 21
200.409204
 31
0.0
 11
145.477133
 21
201.557715
 31
0.0
 11
142.847869
 21
202.635549
 31
0.0
 11
140.189481
 21
203.642065
 31
0.0
  0
SPLINE
  5
114
100
AcDbEntity
  8
Capa_1
 62
7
100
AcDbSpline
 70
0
 71
3
 72
19
 73
15
 74
13
 40
0.000000
 40
0.000000
 40
0.000000
 40
0.000000
 40
3.767616
 40
7.494463
 40
11.191232
 40
14.714471
 40
18.225557
 40
21.730868
 40
26.055297
 40
30.391620
 40
34.752331
 40
37.525761
 40
40.318831
 40
43.136257
 40
43.136257
 40
43.136257
 40
43.136257
 10
140.189481
 20
203.642065
 30
0.0
 10
139.570744
 20
202.548113
 30
0.0
 10
138.339965
 20
200.372046
 30
0.0
 10
136.125327
 20
197.359859
 30
0.0
 10
133.714665
 20
194.615142
 30
0.0
 10
131.112445
 20
192.153497
 30
0.0
 10
128.354792
 20
189.969594
 30
0.0
 10
125.192452
 20
187.889808
 30
0.0
 10
121.594968
 20
186.000016
 30
0.0
 10
117.548410
 20
184.407380
 30
0.0
 10
113.851261
 20
183.399613
 30
0.0
 10
110.590991
 20
182.822848
 30
0.0
 10
107.809744
 20
182.515443
 30
0.0
 10
105.939220
 20
182.476308
 30
0.0
 10
104.999897
 20
182.456656
 30
0.0
 11
140.189481
 21
203.642065
 31
0.0
 11
138.269506
 21
200.400364
 31
0.0
 11
136.077606
 21
197.386236
 31
0.0
 11
133.634282
 21
194.612021
 31
0.0
 11
131.075700
 21
192.189858
 31
0.0
 11
128.323062
 21
190.010248
 31
0.0
 11
125.394412
 21
188.084054
 31
0.0
 11
121.565962
 21
186.073171
 31
0.0
 11
117.530998
 21
184.484849
 31
0.0
 11
113.323395
 21
183.339478
 31
0.0
 11
110.592856
 21
182.853606
 31
0.0
 11
107.815514
 21
182.557620
 31
0.0
 11
104.999897
 21
182.456656
 31
0.0
  0
LINE
  5
115
100
AcDbEntity
  8
Capa_1
 62
7
100
AcDbLine
 10
69.805352
 20
203.663562
 30
0.0
 11
69.805352
 21
203.663562
 31
0.0
  0
LINE
  5
116
100
AcDbEntity
  8
Capa_1
 62
1
100
AcDbLine
 10
61.065320
 20
166.990054
 30
0.0
 11
97.635311
 21
130.420059
 31
0.0
  0
LINE
  5
117
100
AcDbEntity
  8
Capa_1
 62
1
100
AcDbLine
 10
97.635311
 20
130.420059
 30
0.0
 11
79.450097
 21
112.234848
 31
0.0
  0
LINE
  5
118
100
AcDbEntity
  8
Capa_1
 62
1
100
AcDbLine
 10
79.450097
 20
112.234848
 30
0.0
 11
42.880105
 21
148.804839
 31
0.0
  0
LINE
  5
119
100
AcDbEntity
  8
Capa_1
 62
1
100
AcDbLine
 10
42.880105
 20
148.804839
 30
0.0
 11
61.065320
 21
166.990054
 31
0.0
  0
SPLINE
  5
11a
100
AcDbEntity
  8
Capa_1
 62
7
100
AcDbSpline
 70
0
 71
3
 72
19
 73
15
 74
13
 40
0.000000
 40
0.000000
 40
0.000000
 40
0.000000
 40
3.448435
 40
6.861916
 40
10.248796
 40
14.147154
 40
18.029304
 40
21.903955
 40
25.519572
 40
29.142456
 40
32.779718
 40
36.208210
 40
39.663773
 40
43.155050
 40
43.155050
 40
43.155050
 40
43.155050
 10
104.999897
 20
182.456656
 30
0.0
 10
103.850083
 20
182.486160
 30
0.0
 10
101.562110
 20
182.544871
 30
0.0
 10
98.170475
 20
183.004681
 30
0.0
 10
94.682578
 20
183.763420
 30
0.0
 10
91.128364
 20
184.891655
 30
0.0
 10
87.551535
 20
186.423355
 30
0.0
 10
84.223044
 20
188.250231
 30
0.0
 10
81.152693
 20
190.331759
 30
0.0
 10
78.345214
 20
192.633025
 30
0.0
 10
75.801809
 20
195.135768
 30
0.0
 10
73.532195
 20
197.813808
 30
0.0
 10
71.511468
 20
200.628654
 30
0.0
 10
70.376004
 20
202.648465
 30
0.0
 10
69.805352
 20
203.663562
 30
0.0
 11
104.999897
 21
182.456656
 31
0.0
 11
101.554789
 21
182.608093
 31
0.0
 11
98.170100
 21
183.050516
 31
0.0
 11
94.861518
 21
183.774557
 31
0.0
 11
91.145432
 21
184.952649
 31
0.0
 11
87.576837
 21
186.481119
 31
0.0
 11
84.180101
 21
188.345282
 31
0.0
 11
81.187462
 21
190.374270
 31
0.0
 11
78.385420
 21
192.670757
 31
0.0
 11
75.793769
 21
195.222820
 31
0.0
 11
73.573813
 21
197.835547
 31
0.0
 11
71.572246
 21
200.652399
 31
0.0
 11
69.805352
 21
203.663562
 31
0.0
  0
LINE
  5
11b
100
AcDbEntity
  8
Capa_1
 62
7
100
AcDbLine
 10
60.071248
 20
149.798909
 30
0.0
 11
60.071248
 21
149.798909
 31
0.0
  0
SPLINE
  5
11c
100
AcDbEntity
  8
Capa_1
 62
7
100
AcDbSpline
 70
0
 71
3
 72
19
 73
15
 74
13
 40
0.000000
 40
0.000000
 40
0.000000
 40
0.000000
 40
0.710507
 40
1.399941
 40
2.110449
 40
2.820956
 40
3.510390
 40
4.220898
 40
4.931405
 40
5.620839
 40
6.331346
 40
7.041854
 40
7.731288
 40
8.441795
 40
8.441795
 40
8.441795
 40
8.441795
 10
60.071248
 20
149.798909
 30
0.0
 10
59.875452
 20
149.655931
 30
0.0
 10
59.489665
 20
149.374217
 30
0.0
 10
58.739691
 20
149.389327
 30
0.0
 10
58.104537
 20
149.752192
 30
0.0
 10
57.736432
 20
150.392586
 30
0.0
 10
57.736729
 20
151.127153
 30
0.0
 10
58.103621
 20
151.766536
 30
0.0
 10
58.743004
 20
152.133429
 30
0.0
 10
59.477571
 20
152.133725
 30
0.0
 10
60.117965
 20
151.765620
 30
0.0
 10
60.480830
 20
151.130466
 30
0.0
 10
60.495941
 20
150.380492
 30
0.0
 10
60.214226
 20
149.994706
 30
0.0
 10
60.071248
 20
149.798909
 30
0.0
 11
60.071248
 21
149.798909
 31
0.0
 11
59.455086
 21
149.445123
 31
0.0
 11
58.765652
 21
149.445123
 31
0.0
 11
58.149490
 21
149.798909
 31
0.0
 11
57.795703
 21
150.415071
 31
0.0
 11
57.795703
 21
151.104505
 31
0.0
 11
58.149489
 21
151.720668
 31
0.0
 11
58.765652
 21
152.074454
 31
0.0
 11
59.455086
 21
152.074454
 31
0.0
 11
60.071248
 21
151.720668
 31
0.0
 11
60.425034
 21
151.104505
 31
0.0
 11
60.425034
 21
150.415071
 31
0.0
 11
60.071248
 21
149.798909
 31
0.0
  0
LINE
  5
11d
100
AcDbEntity
  8
Capa_1
 62
7
100
AcDbLine
 10
86.375620
 20
123.494537
 30
0.0
 11
86.375620
 21
123.494537
 31
0.0
  0
LINE
  5
11e
100
AcDbEntity
  8
Capa_1
 62
1
100
AcDbLine
 10
167.146309
 20
148.984836
 30
0.0
 11
130.576320
 21
112.414848
 31
0.0
  0
LINE
  5
11f
100
AcDbEntity
  8
Capa_1
 62
1
100
AcDbLine
 10
130.576320
 20
112.414848
 30
0.0
 11
112.391105
 21
130.600062
 31
0.0
  0
LINE
  5
120
100
AcDbEntity
  8
Capa_1
 62
1
100
AcDbLine
 10
112.391105
 20
130.600062
 30
0.0
 11
148.961097
 21
167.170051
 31
0.0
  0
LINE
  5
121
100
AcDbEntity
  8
Capa_1
 62
1
100
AcDbLine
 10
148.961097
 20
167.170051
 30
0.0
 11
167.146309
 21
148.984836
 31
0.0
  0
SPLINE
  5
122
100
AcDbEntity
  8
Capa_1
 62
7
100
AcDbSpline
 70
0
 71
3
 72
19
 73
15
 74
13
 40
0.000000
 40
0.000000
 40
0.000000
 40
0.000000
 40
0.710507
 40
1.399941
 40
2.110449
 40
2.820956
 40
3.510390
 40
4.220897
 40
4.931405
 40
5.620839
 40
6.331346
 40
7.041853
 40
7.731287
 40
8.441795
 40
8.441795
 40
8.441795
 40
8.441795
 10
86.375620
 20
123.494537
 30
0.0
 10
86.179823
 20
123.351560
 30
0.0
 10
85.794037
 20
123.069845
 30
0.0
 10
85.044063
 20
123.084955
 30
0.0
 10
84.408908
 20
123.447821
 30
0.0
 10
84.040804
 20
124.088214
 30
0.0
 10
84.041100
 20
124.822782
 30
0.0
 10
84.407992
 20
125.462165
 30
0.0
 10
85.047375
 20
125.829057
 30
0.0
 10
85.781943
 20
125.829353
 30
0.0
 10
86.422336
 20
125.461249
 30
0.0
 10
86.785201
 20
124.826094
 30
0.0
 10
86.800312
 20
124.076120
 30
0.0
 10
86.518597
 20
123.690334
 30
0.0
 10
86.375620
 20
123.494537
 30
0.0
 11
86.375620
 21
123.494537
 31
0.0
 11
85.759457
 21
123.140751
 31
0.0
 11
85.070023
 21
123.140751
 31
0.0
 11
84.453861
 21
123.494537
 31
0.0
 11
84.100075
 21
124.110700
 31
0.0
 11
84.100075
 21
124.800133
 31
0.0
 11
84.453861
 21
125.416296
 31
0.0
 11
85.070023
 21
125.770082
 31
0.0
 11
85.759457
 21
125.770082
 31
0.0
 11
86.375620
 21
125.416296
 31
0.0
 11
86.729406
 21
124.800133
 31
0.0
 11
86.729406
 21
124.110700
 31
0.0
 11
86.375620
 21
123.494537
 31
0.0
  0
LINE
  5
123
100
AcDbEntity
  8
Capa_1
 62
7
100
AcDbLine
 10
149.955169
 20
149.978911
 30
0.0
 11
149.955169
 21
149.978911
 31
0.0
  0
SPLINE
  5
124
100
AcDbEntity
  8
Capa_1
 62
7
100
AcDbSpline
 70
0
 71
3
 72
19
 73
15
 74
13
 40
0.000000
 40
0.000000
 40
0.000000
 40
0.000000
 40
0.710507
 40
1.399941
 40
2.110449
 40
2.820956
 40
3.510390
 40
4.220898
 40
4.931405
 40
5.620839
 40
6.331346
 40
7.041854
 40
7.731288
 40
8.441795
 40
8.441795
 40
8.441795
 40
8.441795
 10
149.955169
 20
149.978911
 30
0.0
 10
149.812192
 20
150.174707
 30
0.0
 10
149.530477
 20
150.560494
 30
0.0
 10
149.545588
 20
151.310468
 30
0.0
 10
149.908453
 20
151.945622
 30
0.0
 10
150.548846
 20
152.313727
 30
0.0
 10
151.283414
 20
152.313430
 30
0.0
 10
151.922797
 20
151.946538
 30
0.0
 10
152.289689
 20
151.307155
 30
0.0
 10
152.289985
 20
150.572588
 30
0.0
 10
151.921881
 20
149.932194
 30
0.0
 10
151.286727
 20
149.569329
 30
0.0
 10
150.536752
 20
149.554218
 30
0.0
 10
150.150966
 20
149.835933
 30
0.0
 10
149.955169
 20
149.978911
 30
0.0
 11
149.955169
 21
149.978911
 31
0.0
 11
149.601383
 21
150.595073
 31
0.0
 11
149.601383
 21
151.284507
 31
0.0
 11
149.955169
 21
151.900669
 31
0.0
 11
150.571332
 21
152.254456
 31
0.0
 11
151.260766
 21
152.254456
 31
0.0
 11
151.876928
 21
151.900670
 31
0.0
 11
152.230714
 21
151.284507
 31
0.0
 11
152.230714
 21
150.595073
 31
0.0
 11
151.876928
 21
149.978911
 31
0.0
 11
151.260766
 21
149.625125
 31
0.0
 11
150.571332
 21
149.625125
 31
0.0
 11
149.955169
 21
149.978911
 31
0.0
  0
LINE
  5
125
100
AcDbEntity
  8
Capa_1
 62
7
100
AcDbLine
 10
123.650798
 20
123.674539
 30
0.0
 11
123.650798
 21
123.674539
 31
0.0
  0
LINE
  5
126
100
AcDbEntity
  8
Capa_1
 62
1
100
AcDbLine
 10
148.890097
 20
42.902848
 30
0.0
 11
112.320105
 21
79.472839
 31
0.0
  0
LINE
  5
127
100
AcDbEntity
  8
Capa_1
 62
1
100
AcDbLine
 10
112.320105
 20
79.472839
 30
0.0
 11
130.505320
 21
97.658054
 31
0.0
  0
LINE
  5
128
100
AcDbEntity
  8
Capa_1
 62
1
100
AcDbLine
 10
130.505320
 20
97.658054
 30
0.0
 11
167.075311
 21
61.088062
 31
0.0
  0
LINE
  5
129
100
AcDbEntity
  8
Capa_1
 62
1
100
AcDbLine
 10
167.075311
 20
61.088062
 30
0.0
 11
148.890097
 21
42.902848
 31
0.0
  0
SPLINE
  5
12a
100
AcDbEntity
  8
Capa_1
 62
7
100
AcDbSpline
 70
0
 71
3
 72
19
 73
15
 74
13
 40
0.000000
 40
0.000000
 40
0.000000
 40
0.000000
 40
0.710507
 40
1.399941
 40
2.110449
 40
2.820956
 40
3.510390
 40
4.220897
 40
4.931405
 40
5.620839
 40
6.331346
 40
7.041853
 40
7.731287
 40
8.441795
 40
8.441795
 40
8.441795
 40
8.441795
 10
123.650798
 20
123.674539
 30
0.0
 10
123.507820
 20
123.870336
 30
0.0
 10
123.226106
 20
124.256122
 30
0.0
 10
123.241216
 20
125.006096
 30
0.0
 10
123.604081
 20
125.641251
 30
0.0
 10
124.244475
 20
126.009355
 30
0.0
 10
124.979042
 20
126.009059
 30
0.0
 10
125.618425
 20
125.642167
 30
0.0
 10
125.985317
 20
125.002784
 30
0.0
 10
125.985614
 20
124.268216
 30
0.0
 10
125.617509
 20
123.627823
 30
0.0
 10
124.982355
 20
123.264957
 30
0.0
 10
124.232381
 20
123.249847
 30
0.0
 10
123.846594
 20
123.531562
 30
0.0
 10
123.650798
 20
123.674539
 30
0.0
 11
123.650798
 21
123.674539
 31
0.0
 11
123.297012
 21
124.290702
 31
0.0
 11
123.297012
 21
124.980136
 31
0.0
 11
123.650798
 21
125.596298
 31
0.0
 11
124.266960
 21
125.950084
 31
0.0
 11
124.956394
 21
125.950084
 31
0.0
 11
125.572557
 21
125.596298
 31
0.0
 11
125.926343
 21
124.980136
 31
0.0
 11
125.926343
 21
124.290702
 31
0.0
 11
125.572557
 21
123.674539
 31
0.0
 11
124.956394
 21
123.320753
 31
0.0
 11
124.266960
 21
123.320753
 31
0.0
 11
123.650798
 21
123.674539
 31
0.0
  0
LINE
  5
12b
100
AcDbEntity
  8
Capa_1
 62
7
100
AcDbLine
 10
149.884180
 20
60.093976
 30
0.0
 11
149.884180
 21
60.093976
 31
0.0
  0
SPLINE
  5
12c
100
AcDbEntity
  8
Capa_1
 62
7
100
AcDbSpline
 70
0
 71
3
 72
19
 73
15
 74
13
 40
0.000000
 40
0.000000
 40
0.000000
 40
0.000000
 40
0.710507
 40
1.399941
 40
2.110449
 40
2.820956
 40
3.510390
 40
4.220898
 40
4.931405
 40
5.620839
 40
6.331346
 40
7.041854
 40
7.731288
 40
8.441795
 40
8.441795
 40
8.441795
 40
8.441795
 10
149.884180
 20
60.093976
 30
0.0
 10
150.079976
 20
60.236953
 30
0.0
 10
150.465763
 20
60.518668
 30
0.0
 10
151.215737
 20
60.503557
 30
0.0
 10
151.850891
 20
60.140692
 30
0.0
 10
152.218996
 20
59.500298
 30
0.0
 10
152.218699
 20
58.765731
 30
0.0
 10
151.851807
 20
58.126348
 30
0.0
 10
151.212424
 20
57.759456
 30
0.0
 10
150.477857
 20
57.759159
 30
0.0
 10
149.837463
 20
58.127264
 30
0.0
 10
149.474598
 20
58.762418
 30
0.0
 10
149.459487
 20
59.512392
 30
0.0
 10
149.741202
 20
59.898179
 30
0.0
 10
149.884180
 20
60.093976
 30
0.0
 11
149.884180
 21
60.093976
 31
0.0
 11
150.500342
 21
60.447762
 31
0.0
 11
151.189776
 21
60.447761
 31
0.0
 11
151.805938
 21
60.093975
 31
0.0
 11
152.159725
 21
59.477813
 31
0.0
 11
152.159725
 21
58.788379
 31
0.0
 11
151.805939
 21
58.172216
 31
0.0
 11
151.189776
 21
57.818430
 31
0.0
 11
150.500342
 21
57.818431
 31
0.0
 11
149.884180
 21
58.172217
 31
0.0
 11
149.530394
 21
58.788379
 31
0.0
 11
149.530394
 21
59.477813
 31
0.0
 11
149.884180
 21
60.093976
 31
0.0
  0
LINE
  5
12d
100
AcDbEntity
  8
Capa_1
 62
7
100
AcDbLine
 10
123.579808
 20
86.398347
 30
0.0
 11
123.579808
 21
86.398347
 31
0.0
  0
LINE
  5
12e
100
AcDbEntity
  8
Capa_1
 62
1
100
AcDbLine
 10
42.880105
 20
60.982062
 30
0.0
 11
79.450100
 21
97.552054
 31
0.0
  0
LINE
  5
12f
100
AcDbEntity
  8
Capa_1
 62
1
100
AcDbLine
 10
79.450100
 20
97.552054
 30
0.0
 11
97.635311
 21
79.366839
 31
0.0
  0
LINE
  5
130
100
AcDbEntity
  8
Capa_1
 62
1
100
AcDbLine
 10
97.635311
 20
79.366839
 30
0.0
 11
61.065320
 21
42.796848
 31
0.0
  0
LINE
  5
131
100
AcDbEntity
  8
Capa_1
 62
1
100
AcDbLine
 10
61.065320
 20
42.796848
 30
0.0
 11
42.880105
 21
60.982062
 31
0.0
  0
SPLINE
  5
132
100
AcDbEntity
  8
Capa_1
 62
7
100
AcDbSpline
 70
0
 71
3
 72
19
 73
15
 74
13
 40
0.000000
 40
0.000000
 40
0.000000
 40
0.000000
 40
0.710507
 40
1.399941
 40
2.110449
 40
2.820956
 40
3.510390
 40
4.220897
 40
4.931405
 40
5.620839
 40
6.331346
 40
7.041853
 40
7.731287
 40
8.441795
 40
8.441795
 40
8.441795
 40
8.441795
 10
123.579808
 20
86.398347
 30
0.0
 10
123.775605
 20
86.541325
 30
0.0
 10
124.161391
 20
86.823039
 30
0.0
 10
124.911365
 20
86.807929
 30
0.0
 10
125.546520
 20
86.445064
 30
0.0
 10
125.914624
 20
85.804670
 30
0.0
 10
125.914328
 20
85.070103
 30
0.0
 10
125.547436
 20
84.430720
 30
0.0
 10
124.908053
 20
84.063828
 30
0.0
 10
124.173485
 20
84.063531
 30
0.0
 10
123.533092
 20
84.431636
 30
0.0
 10
123.170227
 20
85.066790
 30
0.0
 10
123.155116
 20
85.816764
 30
0.0
 10
123.436831
 20
86.202550
 30
0.0
 10
123.579808
 20
86.398347
 30
0.0
 11
123.579808
 21
86.398347
 31
0.0
 11
124.195971
 21
86.752133
 31
0.0
 11
124.885405
 21
86.752133
 31
0.0
 11
125.501567
 21
86.398347
 31
0.0
 11
125.855353
 21
85.782185
 31
0.0
 11
125.855353
 21
85.092751
 31
0.0
 11
125.501567
 21
84.476588
 31
0.0
 11
124.885405
 21
84.122802
 31
0.0
 11
124.195971
 21
84.122802
 31
0.0
 11
123.579808
 21
84.476588
 31
0.0
 11
123.226022
 21
85.092751
 31
0.0
 11
123.226022
 21
85.782185
 31
0.0
 11
123.579808
 21
86.398347
 31
0.0
  0
LINE
  5
133
100
AcDbEntity
  8
Capa_1
 62
7
100
AcDbLine
 10
60.071249
 20
59.987985
 30
0.0
 11
60.071249
 21
59.987985
 31
0.0
  0
SPLINE
  5
134
100
AcDbEntity
  8
Capa_1
 62
7
100
AcDbSpline
 70
0
 71
3
 72
19
 73
15
 74
13
 40
0.000000
 40
0.000000
 40
0.000000
 40
0.000000
 40
0.710507
 40
1.399941
 40
2.110449
 40
2.820956
 40
3.510390
 40
4.220898
 40
4.931405
 40
5.620839
 40
6.331346
 40
7.041854
 40
7.731288
 40
8.441795
 40
8.441795
 40
8.441795
 40
8.441795
 10
60.071249
 20
59.987985
 30
0.0
 10
60.214226
 20
59.792188
 30
0.0
 10
60.495941
 20
59.406402
 30
0.0
 10
60.480830
 20
58.656428
 30
0.0
 10
60.117965
 20
58.021273
 30
0.0
 10
59.477571
 20
57.653169
 30
0.0
 10
58.743004
 20
57.653465
 30
0.0
 10
58.103621
 20
58.020357
 30
0.0
 10
57.736729
 20
58.659740
 30
0.0
 10
57.736432
 20
59.394308
 30
0.0
 10
58.104537
 20
60.034702
 30
0.0
 10
58.739691
 20
60.397567
 30
0.0
 10
59.489665
 20
60.412677
 30
0.0
 10
59.875452
 20
60.130963
 30
0.0
 10
60.071249
 20
59.987985
 30
0.0
 11
60.071249
 21
59.987985
 31
0.0
 11
60.425035
 21
59.371823
 31
0.0
 11
60.425034
 21
58.682389
 31
0.0
 11
60.071248
 21
58.066226
 31
0.0
 11
59.455086
 21
57.712440
 31
0.0
 11
58.765652
 21
57.712440
 31
0.0
 11
58.149489
 21
58.066226
 31
0.0
 11
57.795703
 21
58.682389
 31
0.0
 11
57.795703
 21
59.371823
 31
0.0
 11
58.149490
 21
59.987985
 31
0.0
 11
58.765652
 21
60.341771
 31
0.0
 11
59.455086
 21
60.341771
 31
0.0
 11
60.071249
 21
59.987985
 31
0.0
  0
LINE
  5
135
100
AcDbEntity
  8
Capa_1
 62
7
100
AcDbLine
 10
86.375620
 20
86.292356
 30
0.0
 11
86.375620
 21
86.292356
 31
0.0
  0
SPLINE
  5
136
100
AcDbEntity
  8
Capa_1
 62
7
100
AcDbSpline
 70
0
 71
3
 72
19
 73
15
 74
13
 40
0.000000
 40
0.000000
 40
0.000000
 40
0.000000
 40
0.710507
 40
1.399941
 40
2.110449
 40
2.820956
 40
3.510390
 40
4.220897
 40
4.931405
 40
5.620839
 40
6.331346
 40
7.041853
 40
7.731287
 40
8.441795
 40
8.441795
 40
8.441795
 40
8.441795
 10
86.375620
 20
86.292356
 30
0.0
 10
86.518598
 20
86.096560
 30
0.0
 10
86.800312
 20
85.710773
 30
0.0
 10
86.785202
 20
84.960799
 30
0.0
 10
86.422337
 20
84.325645
 30
0.0
 10
85.781943
 20
83.957541
 30
0.0
 10
85.047376
 20
83.957837
 30
0.0
 10
84.407993
 20
84.324729
 30
0.0
 10
84.041101
 20
84.964112
 30
0.0
 10
84.040804
 20
85.698679
 30
0.0
 10
84.408909
 20
86.339073
 30
0.0
 10
85.044063
 20
86.701938
 30
0.0
 10
85.794037
 20
86.717048
 30
0.0
 10
86.179823
 20
86.435334
 30
0.0
 10
86.375620
 20
86.292356
 30
0.0
 11
86.375620
 21
86.292356
 31
0.0
 11
86.729406
 21
85.676194
 31
0.0
 11
86.729406
 21
84.986760
 31
0.0
 11
86.375620
 21
84.370598
 31
0.0
 11
85.759458
 21
84.016812
 31
0.0
 11
85.070024
 21
84.016812
 31
0.0
 11
84.453861
 21
84.370598
 31
0.0
 11
84.100075
 21
84.986760
 31
0.0
 11
84.100075
 21
85.676194
 31
0.0
 11
84.453861
 21
86.292356
 31
0.0
 11
85.070024
 21
86.646142
 31
0.0
 11
85.759458
 21
86.646142
 31
0.0
 11
86.375620
 21
86.292356
 31
0.0
  0
LINE
  5
137
100
AcDbEntity
  8
Capa_1
 62
7
100
AcDbLine
 10
12.983611
 20
88.489748
 30
0.0
 11
12.983611
 21
88.489748
 31
0.0
  0
SPLINE
  5
138
100
AcDbEntity
  8
Capa_1
 62
7
100
AcDbSpline
 70
0
 71
3
 72
25
 73
21
 74
19
 40
0.000000
 40
0.000000
 40
0.000000
 40
0.000000
 40
0.346488
 40
0.690109
 40
1.036597
 40
1.383085
 40
1.726706
 40
2.073194
 40
2.765256
 40
3.436792
 40
4.128854
 40
4.820916
 40
5.492452
 40
6.184514
 40
6.531002
 40
6.874623
 40
7.221111
 40
7.567599
 40
7.911220
 40
8.257708
 40
8.257708
 40
8.257708
 40
8.257708
 10
12.983611
 20
88.489748
 30
0.0
 10
12.974787
 20
88.373921
 30
0.0
 10
12.957213
 20
88.143226
 30
0.0
 10
12.818336
 20
87.820376
 30
0.0
 10
12.607030
 20
87.543008
 30
0.0
 10
12.329333
 20
87.330296
 30
0.0
 10
12.006390
 20
87.196688
 30
0.0
 10
11.545284
 20
87.135088
 30
0.0
 10
10.966336
 20
87.290356
 30
0.0
 10
10.460963
 20
87.796723
 30
0.0
 10
10.273164
 20
88.489748
 30
0.0
 10
10.460963
 20
89.182773
 30
0.0
 10
10.966336
 20
89.689141
 30
0.0
 10
11.545284
 20
89.844408
 30
0.0
 10
12.006390
 20
89.782809
 30
0.0
 10
12.329333
 20
89.649201
 30
0.0
 10
12.607030
 20
89.436488
 30
0.0
 10
12.818336
 20
89.159120
 30
0.0
 10
12.957213
 20
88.836270
 30
0.0
 10
12.974787
 20
88.605575
 30
0.0
 10
12.983611
 20
88.489748
 30
0.0
 11
12.983611
 21
88.489748
 31
0.0
 11
12.938263
 21
88.146240
 31
0.0
 11
12.806765
 21
87.828776
 31
0.0
 11
12.595934
 21
87.553814
 31
0.0
 11
12.320972
 21
87.342983
 31
0.0
 11
12.003508
 21
87.211485
 31
0.0
 11
11.660000
 21
87.166137
 31
0.0
 11
10.991948
 21
87.346849
 31
0.0
 11
10.517101
 21
87.821696
 31
0.0
 11
10.336389
 21
88.489748
 31
0.0
 11
10.517101
 21
89.157800
 31
0.0
 11
10.991948
 21
89.632647
 31
0.0
 11
11.660000
 21
89.813359
 31
0.0
 11
12.003508
 21
89.768011
 31
0.0
 11
12.320972
 21
89.636513
 31
0.0
 11
12.595934
 21
89.425682
 31
0.0
 11
12.806765
 21
89.150720
 31
0.0
 11
12.938263
 21
88.833256
 31
0.0
 11
12.983611
 21
88.489748
 31
0.0
  0
LINE
  5
139
100
AcDbEntity
  8
Capa_1
 62
7
100
AcDbLine
 10
12.983611
 20
121.509748
 30
0.0
 11
12.983611
 21
121.509748
 31
0.0
  0
SPLINE
  5
13a
100
AcDbEntity
  8
Capa_1
 62
7
100
AcDbSpline
 70
0
 71
3
 72
25
 73
21
 74
19
 40
0.000000
 40
0.000000
 40
0.000000
 40
0.000000
 40
0.346488
 40
0.690109
 40
1.036597
 40
1.383085
 40
1.726706
 40
2.073194
 40
2.765256
 40
3.436792
 40
4.128854
 40
4.820916
 40
5.492452
 40
6.184514
 40
6.531002
 40
6.874623
 40
7.221111
 40
7.567599
 40
7.911220
 40
8.257708
 40
8.257708
 40
8.257708
 40
8.257708
 10
12.983611
 20
121.509748
 30
0.0
 10
12.974787
 20
121.393921
 30
0.0
 10
12.957213
 20
121.163226
 30
0.0
 10
12.818336
 20
120.840376
 30
0.0
 10
12.607030
 20
120.563008
 30
0.0
 10
12.329333
 20
120.350296
 30
0.0
 10
12.006390
 20
120.216688
 30
0.0
 10
11.545284
 20
120.155088
 30
0.0
 10
10.966336
 20
120.310356
 30
0.0
 10
10.460963
 20
120.816723
 30
0.0
 10
10.273164
 20
121.509748
 30
0.0
 10
10.460963
 20
122.202773
 30
0.0
 10
10.966336
 20
122.709141
 30
0.0
 10
11.545284
 20
122.864408
 30
0.0
 10
12.006390
 20
122.802809
 30
0.0
 10
12.329333
 20
122.669201
 30
0.0
 10
12.607030
 20
122.456488
 30
0.0
 10
12.818336
 20
122.179120
 30
0.0
 10
12.957213
 20
121.856270
 30
0.0
 10
12.974787
 20
121.625575
 30
0.0
 10
12.983611
 20
121.509748
 30
0.0
 11
12.983611
 21
121.509748
 31
0.0
 11
12.938263
 21
121.166240
 31
0.0
 11
12.806765
 21
120.848776
 31
0.0
 11
12.595934
 21
120.573814
 31
0.0
 11
12.320972
 21
120.362983
 31
0.0
 11
12.003508
 21
120.231485
 31
0.0
 11
11.660000
 21
120.186137
 31
0.0
 11
10.991948
 21
120.366849
 31
0.0
 11
10.517101
 21
120.841696
 31
0.0
 11
10.336389
 21
121.509748
 31
0.0
 11
10.517101
 21
122.177800
 31
0.0
 11
10.991948
 21
122.652647
 31
0.0
 11
11.660000
 21
122.833359
 31
0.0
 11
12.003508
 21
122.788011
 31
0.0
 11
12.320972
 21
122.656513
 31
0.0
 11
12.595934
 21
122.445682
 31
0.0
 11
12.806765
 21
122.170720
 31
0.0
 11
12.938263
 21
121.853256
 31
0.0
 11
12.983611
 21
121.509748
 31
0.0
  0
LINE
  5
13b
100
AcDbEntity
  8
Capa_1
 62
7
100
AcDbLine
 10
58.703611
 20
88.489748
 30
0.0
 11
58.703611
 21
88.489748
 31
0.0
  0
SPLINE
  5
13c
100
AcDbEntity
  8
Capa_1
 62
7
100
AcDbSpline
 70
0
 71
3
 72
19
 73
15
 74
13
 40
0.000000
 40
0.000000
 40
0.000000
 40
0.000000
 40
0.692062
 40
1.363598
 40
2.055660
 40
2.747722
 40
3.419258
 40
4.111320
 40
4.803382
 40
5.474917
 40
6.166979
 40
6.859041
 40
7.530577
 40
8.222639
 40
8.222639
 40
8.222639
 40
8.222639
 10
58.703611
 20
88.489748
 30
0.0
 10
58.667232
 20
88.256417
 30
0.0
 10
58.595552
 20
87.796676
 30
0.0
 10
58.068600
 20
87.290539
 30
0.0
 10
57.381215
 20
87.103000
 30
0.0
 10
56.686612
 20
87.290539
 30
0.0
 10
56.180883
 20
87.796676
 30
0.0
 10
55.993205
 20
88.489748
 30
0.0
 10
56.180883
 20
89.182820
 30
0.0
 10
56.686612
 20
89.688957
 30
0.0
 10
57.381215
 20
89.876496
 30
0.0
 10
58.068600
 20
89.688957
 30
0.0
 10
58.595552
 20
89.182820
 30
0.0
 10
58.667232
 20
88.723079
 30
0.0
 10
58.703611
 20
88.489748
 30
0.0
 11
58.703611
 21
88.489748
 31
0.0
 11
58.522899
 21
87.821696
 31
0.0
 11
58.048052
 21
87.346849
 31
0.0
 11
57.380000
 21
87.166137
 31
0.0
 11
56.711948
 21
87.346849
 31
0.0
 11
56.237101
 21
87.821696
 31
0.0
 11
56.056389
 21
88.489748
 31
0.0
 11
56.237101
 21
89.157800
 31
0.0
 11
56.711948
 21
89.632647
 31
0.0
 11
57.380000
 21
89.813359
 31
0.0
 11
58.048052
 21
89.632647
 31
0.0
 11
58.522899
 21
89.157800
 31
0.0
 11
58.703611
 21
88.489748
 31
0.0
  0
LINE
  5
13d
100
AcDbEntity
  8
Capa_1
 62
7
100
AcDbLine
 10
58.703611
 20
121.509748
 30
0.0
 11
58.703611
 21
121.509748
 31
0.0
  0
LINE
  5
13e
100
AcDbEntity
  8
Capa_1
 62
1
100
AcDbLine
 10
9.196389
 20
125.323346
 30
0.0
 11
59.843614
 21
125.323346
 31
0.0
  0
LINE
  5
13f
100
AcDbEntity
  8
Capa_1
 62
1
100
AcDbLine
 10
59.843614
 20
125.323346
 30
0.0
 11
59.843614
 21
84.676127
 31
0.0
  0
LINE
  5
140
100
AcDbEntity
  8
Capa_1
 62
1
100
AcDbLine
 10
59.843614
 20
84.676127
 30
0.0
 11
9.196389
 21
84.676127
 31
0.0
  0
LINE
  5
141
100
AcDbEntity
  8
Capa_1
 62
1
100
AcDbLine
 10
9.196389
 20
84.676127
 30
0.0
 11
9.196389
 21
125.323346
 31
0.0
  0
SPLINE
  5
142
100
AcDbEntity
  8
Capa_1
 62
7
100
AcDbSpline
 70
0
 71
3
 72
19
 73
15
 74
13
 40
0.000000
 40
0.000000
 40
0.000000
 40
0.000000
 40
0.692062
 40
1.363598
 40
2.055660
 40
2.747722
 40
3.419258
 40
4.111320
 40
4.803382
 40
5.474917
 40
6.166979
 40
6.859041
 40
7.530577
 40
8.222639
 40
8.222639
 40
8.222639
 40
8.222639
 10
58.703611
 20
121.509748
 30
0.0
 10
58.667232
 20
121.276417
 30
0.0
 10
58.595552
 20
120.816676
 30
0.0
 10
58.068600
 20
120.310539
 30
0.0
 10
57.381215
 20
120.123000
 30
0.0
 10
56.686612
 20
120.310539
 30
0.0
 10
56.180883
 20
120.816676
 30
0.0
 10
55.993205
 20
121.509748
 30
0.0
 10
56.180883
 20
122.202820
 30
0.0
 10
56.686612
 20
122.708957
 30
0.0
 10
57.381215
 20
122.896496
 30
0.0
 10
58.068600
 20
122.708957
 30
0.0
 10
58.595552
 20
122.202820
 30
0.0
 10
58.667232
 20
121.743079
 30
0.0
 10
58.703611
 20
121.509748
 30
0.0
 11
58.703611
 21
121.509748
 31
0.0
 11
58.522899
 21
120.841696
 31
0.0
 11
58.048052
 21
120.366849
 31
0.0
 11
57.380000
 21
120.186137
 31
0.0
 11
56.711948
 21
120.366849
 31
0.0
 11
56.237101
 21
120.841696
 31
0.0
 11
56.056389
 21
121.509748
 31
0.0
 11
56.237101
 21
122.177800
 31
0.0
 11
56.711948
 21
122.652647
 31
0.0
 11
57.380000
 21
122.833359
 31
0.0
 11
58.048052
 21
122.652647
 31
0.0
 11
58.522899
 21
122.177800
 31
0.0
 11
58.703611
 21
121.509748
 31
0.0
  0
LINE
  5
143
100
AcDbEntity
  8
Capa_1
 62
7
100
AcDbLine
 10
153.718427
 20
88.489757
 30
0.0
 11
153.718427
 21
88.489757
 31
0.0
  0
SPLINE
  5
144
100
AcDbEntity
  8
Capa_1
 62
7
100
AcDbSpline
 70
0
 71
3
 72
25
 73
21
 74
19
 40
0.000000
 40
0.000000
 40
0.000000
 40
0.000000
 40
0.346490
 40
0.690113
 40
1.036603
 40
1.383093
 40
1.726715
 40
2.073205
 40
2.419695
 40
2.763318
 40
3.109808
 40
3.456298
 40
3.799920
 40
4.146410
 40
4.838467
 40
5.509997
 40
6.202054
 40
6.894110
 40
7.565641
 40
8.257698
 40
8.257698
 40
8.257698
 40
8.257698
 10
153.718427
 20
88.489757
 30
0.0
 10
153.709604
 20
88.373929
 30
0.0
 10
153.692032
 20
88.143232
 30
0.0
 10
153.553153
 20
87.820381
 30
0.0
 10
153.341861
 20
87.543002
 30
0.0
 10
153.064111
 20
87.330320
 30
0.0
 10
152.741361
 20
87.196591
 30
0.0
 10
152.394810
 20
87.150843
 30
0.0
 10
152.048293
 20
87.196591
 30
0.0
 10
151.725440
 20
87.330317
 30
0.0
 10
151.448072
 20
87.543013
 30
0.0
 10
151.235359
 20
87.820340
 30
0.0
 10
151.101755
 20
88.143385
 30
0.0
 10
151.040146
 20
88.604459
 30
0.0
 10
151.195517
 20
89.183414
 30
0.0
 10
151.701485
 20
89.688789
 30
0.0
 10
152.396017
 20
89.876531
 30
0.0
 10
153.083414
 20
89.688939
 30
0.0
 10
153.610360
 20
89.182824
 30
0.0
 10
153.682045
 20
88.723086
 30
0.0
 10
153.718427
 20
88.489757
 30
0.0
 11
153.718427
 21
88.489757
 31
0.0
 11
153.673082
 21
88.146247
 31
0.0
 11
153.541585
 21
87.828780
 31
0.0
 11
153.330754
 21
87.553815
 31
0.0
 11
153.055791
 21
87.342982
 31
0.0
 11
152.738325
 21
87.211482
 31
0.0
 11
152.394816
 21
87.166134
 31
0.0
 11
152.051306
 21
87.211482
 31
0.0
 11
151.733840
 21
87.342982
 31
0.0
 11
151.458877
 21
87.553815
 31
0.0
 11
151.248047
 21
87.828780
 31
0.0
 11
151.116550
 21
88.146247
 31
0.0
 11
151.071205
 21
88.489757
 31
0.0
 11
151.251922
 21
89.157801
 31
0.0
 11
151.726769
 21
89.632642
 31
0.0
 11
152.394816
 21
89.813351
 31
0.0
 11
153.062863
 21
89.632642
 31
0.0
 11
153.537709
 21
89.157801
 31
0.0
 11
153.718427
 21
88.489757
 31
0.0
  0
LINE
  5
145
100
AcDbEntity
  8
Capa_1
 62
7
100
AcDbLine
 10
153.718427
 20
121.509745
 30
0.0
 11
153.718427
 21
121.509745
 31
0.0
  0
SPLINE
  5
146
100
AcDbEntity
  8
Capa_1
 62
7
100
AcDbSpline
 70
0
 71
3
 72
19
 73
15
 74
13
 40
0.000000
 40
0.000000
 40
0.000000
 40
0.000000
 40
0.692062
 40
1.363598
 40
2.055660
 40
2.747722
 40
3.419258
 40
4.111320
 40
4.803382
 40
5.474918
 40
6.166980
 40
6.859042
 40
7.530578
 40
8.222640
 40
8.222640
 40
8.222640
 40
8.222640
 10
153.718427
 20
121.509745
 30
0.0
 10
153.682048
 20
121.276414
 30
0.0
 10
153.610368
 20
120.816673
 30
0.0
 10
153.083416
 20
120.310536
 30
0.0
 10
152.396031
 20
120.122997
 30
0.0
 10
151.701428
 20
120.310536
 30
0.0
 10
151.195699
 20
120.816673
 30
0.0
 10
151.008021
 20
121.509745
 30
0.0
 10
151.195699
 20
122.202817
 30
0.0
 10
151.701428
 20
122.708954
 30
0.0
 10
152.396031
 20
122.896493
 30
0.0
 10
153.083416
 20
122.708954
 30
0.0
 10
153.610368
 20
122.202817
 30
0.0
 10
153.682048
 20
121.743076
 30
0.0
 10
153.718427
 20
121.509745
 30
0.0
 11
153.718427
 21
121.509745
 31
0.0
 11
153.537715
 21
120.841693
 31
0.0
 11
153.062868
 21
120.366846
 31
0.0
 11
152.394816
 21
120.186134
 31
0.0
 11
151.726764
 21
120.366846
 31
0.0
 11
151.251916
 21
120.841693
 31
0.0
 11
151.071205
 21
121.509745
 31
0.0
 11
151.251916
 21
122.177797
 31
0.0
 11
151.726764
 21
122.652645
 31
0.0
 11
152.394816
 21
122.833356
 31
0.0
 11
153.062868
 21
122.652645
 31
0.0
 11
153.537715
 21
122.177797
 31
0.0
 11
153.718427
 21
121.509745
 31
0.0
  0
LINE
  5
147
100
AcDbEntity
  8
Capa_1
 62
7
100
AcDbLine
 10
199.438427
 20
88.489751
 30
0.0
 11
199.438427
 21
88.489751
 31
0.0
  0
SPLINE
  5
148
100
AcDbEntity
  8
Capa_1
 62
7
100
AcDbSpline
 70
0
 71
3
 72
25
 73
21
 74
19
 40
0.000000
 40
0.000000
 40
0.000000
 40
0.000000
 40
0.346490
 40
0.690113
 40
1.036603
 40
1.383093
 40
1.726715
 40
2.073205
 40
2.419695
 40
2.763318
 40
3.109808
 40
3.456298
 40
3.799920
 40
4.146410
 40
4.838467
 40
5.509997
 40
6.202054
 40
6.894110
 40
7.565641
 40
8.257697
 40
8.257697
 40
8.257697
 40
8.257697
 10
199.438427
 20
88.489751
 30
0.0
 10
199.429604
 20
88.373923
 30
0.0
 10
199.412032
 20
88.143226
 30
0.0
 10
199.273153
 20
87.820376
 30
0.0
 10
199.061861
 20
87.542997
 30
0.0
 10
198.784111
 20
87.330314
 30
0.0
 10
198.461361
 20
87.196585
 30
0.0
 10
198.114810
 20
87.150837
 30
0.0
 10
197.768293
 20
87.196586
 30
0.0
 10
197.445440
 20
87.330312
 30
0.0
 10
197.168072
 20
87.543008
 30
0.0
 10
196.955359
 20
87.820335
 30
0.0
 10
196.821755
 20
88.143379
 30
0.0
 10
196.760146
 20
88.604453
 30
0.0
 10
196.915517
 20
89.183409
 30
0.0
 10
197.421485
 20
89.688783
 30
0.0
 10
198.116016
 20
89.876525
 30
0.0
 10
198.803414
 20
89.688934
 30
0.0
 10
199.330360
 20
89.182819
 30
0.0
 10
199.402045
 20
88.723080
 30
0.0
 10
199.438427
 20
88.489751
 30
0.0
 11
199.438427
 21
88.489751
 31
0.0
 11
199.393081
 21
88.146241
 31
0.0
 11
199.261585
 21
87.828774
 31
0.0
 11
199.050754
 21
87.553809
 31
0.0
 11
198.775791
 21
87.342976
 31
0.0
 11
198.458325
 21
87.211477
 31
0.0
 11
198.114816
 21
87.166129
 31
0.0
 11
197.771306
 21
87.211477
 31
0.0
 11
197.453840
 21
87.342976
 31
0.0
 11
197.178877
 21
87.553809
 31
0.0
 11
196.968047
 21
87.828774
 31
0.0
 11
196.836550
 21
88.146241
 31
0.0
 11
196.791205
 21
88.489751
 31
0.0
 11
196.971922
 21
89.157795
 31
0.0
 11
197.446769
 21
89.632636
 31
0.0
 11
198.114816
 21
89.813345
 31
0.0
 11
198.782862
 21
89.632636
 31
0.0
 11
199.257709
 21
89.157795
 31
0.0
 11
199.438427
 21
88.489751
 31
0.0
  0
LINE
  5
149
100
AcDbEntity
  8
Capa_1
 62
7
100
AcDbLine
 10
199.438427
 20
121.509742
 30
0.0
 11
199.438427
 21
121.509742
 31
0.0
  0
LINE
  5
14a
100
AcDbEntity
  8
Capa_1
 62
1
100
AcDbLine
 10
149.931210
 20
125.323346
 30
0.0
 11
200.578432
 21
125.323346
 31
0.0
  0
LINE
  5
14b
100
AcDbEntity
  8
Capa_1
 62
1
100
AcDbLine
 10
200.578432
 20
125.323346
 30
0.0
 11
200.578432
 21
84.676127
 31
0.0
  0
LINE
  5
14c
100
AcDbEntity
  8
Capa_1
 62
1
100
AcDbLine
 10
200.578432
 20
84.676127
 30
0.0
 11
149.931210
 21
84.676127
 31
0.0
  0
LINE
  5
14d
100
AcDbEntity
  8
Capa_1
 62
1
100
AcDbLine
 10
149.931210
 20
84.676127
 30
0.0
 11
149.931210
 21
125.323346
 31
0.0
  0
SPLINE
  5
14e
100
AcDbEntity
  8
Capa_1
 62
7
100
AcDbSpline
 70
0
 71
3
 72
19
 73
15
 74
13
 40
0.000000
 40
0.000000
 40
0.000000
 40
0.000000
 40
0.692062
 40
1.363598
 40
2.055660
 40
2.747722
 40
3.419258
 40
4.111320
 40
4.803382
 40
5.474917
 40
6.166979
 40
6.859041
 40
7.530577
 40
8.222639
 40
8.222639
 40
8.222639
 40
8.222639
 10
199.438427
 20
121.509742
 30
0.0
 10
199.402047
 20
121.276412
 30
0.0
 10
199.330368
 20
120.816671
 30
0.0
 10
198.803416
 20
120.310533
 30
0.0
 10
198.116030
 20
120.122994
 30
0.0
 10
197.421428
 20
120.310533
 30
0.0
 10
196.915699
 20
120.816671
 30
0.0
 10
196.728021
 20
121.509742
 30
0.0
 10
196.915699
 20
122.202814
 30
0.0
 10
197.421428
 20
122.708951
 30
0.0
 10
198.116030
 20
122.896491
 30
0.0
 10
198.803416
 20
122.708951
 30
0.0
 10
199.330368
 20
122.202814
 30
0.0
 10
199.402047
 20
121.743073
 30
0.0
 10
199.438427
 20
121.509742
 30
0.0
 11
199.438427
 21
121.509742
 31
0.0
 11
199.257715
 21
120.841691
 31
0.0
 11
198.782867
 21
120.366843
 31
0.0
 11
198.114816
 21
120.186132
 31
0.0
 11
197.446764
 21
120.366843
 31
0.0
 11
196.971916
 21
120.841691
 31
0.0
 11
196.791205
 21
121.509742
 31
0.0
 11
196.971916
 21
122.177794
 31
0.0
 11
197.446764
 21
122.652642
 31
0.0
 11
198.114816
 21
122.833353
 31
0.0
 11
198.782867
 21
122.652642
 31
0.0
 11
199.257715
 21
122.177794
 31
0.0
 11
199.438427
 21
121.509742
 31
0.0
  0
LINE
  5
14f
100
AcDbEntity
  8
Capa_1
 62
7
100
AcDbLine
 10
88.490016
 20
57.043904
 30
0.0
 11
88.490016
 21
57.043904
 31
0.0
  0
SPLINE
  5
150
100
AcDbEntity
  8
Capa_1
 62
7
100
AcDbSpline
 70
0
 71
3
 72
25
 73
21
 74
19
 40
0.000000
 40
0.000000
 40
0.000000
 40
0.000000
 40
0.346490
 40
0.690113
 40
1.036603
 40
1.383093
 40
1.726715
 40
2.073205
 40
2.419695
 40
2.763318
 40
3.109808
 40
3.456298
 40
3.799920
 40
4.146410
 40
4.838467
 40
5.509997
 40
6.202054
 40
6.894110
 40
7.565641
 40
8.257698
 40
8.257698
 40
8.257698
 40
8.257698
 10
88.490016
 20
57.043904
 30
0.0
 10
88.374188
 20
57.052727
 30
0.0
 10
88.143491
 20
57.070299
 30
0.0
 10
87.820641
 20
57.209178
 30
0.0
 10
87.543262
 20
57.420470
 30
0.0
 10
87.330579
 20
57.698220
 30
0.0
 10
87.196850
 20
58.020970
 30
0.0
 10
87.151102
 20
58.367521
 30
0.0
 10
87.196851
 20
58.714038
 30
0.0
 10
87.330576
 20
59.036891
 30
0.0
 10
87.543273
 20
59.314259
 30
0.0
 10
87.820600
 20
59.526972
 30
0.0
 10
88.143644
 20
59.660576
 30
0.0
 10
88.604718
 20
59.722186
 30
0.0
 10
89.183674
 20
59.566814
 30
0.0
 10
89.689048
 20
59.060846
 30
0.0
 10
89.876790
 20
58.366315
 30
0.0
 10
89.689199
 20
57.678917
 30
0.0
 10
89.183083
 20
57.151971
 30
0.0
 10
88.723345
 20
57.080286
 30
0.0
 10
88.490016
 20
57.043904
 30
0.0
 11
88.490016
 21
57.043904
 31
0.0
 11
88.146506
 21
57.089250
 31
0.0
 11
87.829039
 21
57.220746
 31
0.0
 11
87.554074
 21
57.431577
 31
0.0
 11
87.343241
 21
57.706540
 31
0.0
 11
87.211742
 21
58.024006
 31
0.0
 11
87.166394
 21
58.367515
 31
0.0
 11
87.211742
 21
58.711025
 31
0.0
 11
87.343241
 21
59.028491
 31
0.0
 11
87.554074
 21
59.303454
 31
0.0
 11
87.829039
 21
59.514285
 31
0.0
 11
88.146506
 21
59.645781
 31
0.0
 11
88.490016
 21
59.691126
 31
0.0
 11
89.158060
 21
59.510409
 31
0.0
 11
89.632901
 21
59.035562
 31
0.0
 11
89.813610
 21
58.367515
 31
0.0
 11
89.632901
 21
57.699469
 31
0.0
 11
89.158060
 21
57.224622
 31
0.0
 11
88.490016
 21
57.043904
 31
0.0
  0
LINE
  5
151
100
AcDbEntity
  8
Capa_1
 62
7
100
AcDbLine
 10
121.510004
 20
57.043904
 30
0.0
 11
121.510004
 21
57.043904
 31
0.0
  0
SPLINE
  5
152
100
AcDbEntity
  8
Capa_1
 62
7
100
AcDbSpline
 70
0
 71
3
 72
19
 73
15
 74
13
 40
0.000000
 40
0.000000
 40
0.000000
 40
0.000000
 40
0.692062
 40
1.363598
 40
2.055660
 40
2.747722
 40
3.419258
 40
4.111320
 40
4.803382
 40
5.474918
 40
6.166980
 40
6.859042
 40
7.530578
 40
8.222640
 40
8.222640
 40
8.222640
 40
8.222640
 10
121.510004
 20
57.043904
 30
0.0
 10
121.276674
 20
57.080284
 30
0.0
 10
120.816933
 20
57.151963
 30
0.0
 10
120.310795
 20
57.678915
 30
0.0
 10
120.123256
 20
58.366301
 30
0.0
 10
120.310795
 20
59.060903
 30
0.0
 10
120.816933
 20
59.566633
 30
0.0
 10
121.510004
 20
59.754310
 30
0.0
 10
122.203076
 20
59.566633
 30
0.0
 10
122.709214
 20
59.060903
 30
0.0
 10
122.896753
 20
58.366301
 30
0.0
 10
122.709214
 20
57.678915
 30
0.0
 10
122.203076
 20
57.151963
 30
0.0
 10
121.743335
 20
57.080284
 30
0.0
 10
121.510004
 20
57.043904
 30
0.0
 11
121.510004
 21
57.043904
 31
0.0
 11
120.841953
 21
57.224616
 31
0.0
 11
120.367105
 21
57.699464
 31
0.0
 11
120.186394
 21
58.367515
 31
0.0
 11
120.367105
 21
59.035567
 31
0.0
 11
120.841953
 21
59.510415
 31
0.0
 11
121.510004
 21
59.691126
 31
0.0
 11
122.178056
 21
59.510415
 31
0.0
 11
122.652904
 21
59.035567
 31
0.0
 11
122.833615
 21
58.367515
 31
0.0
 11
122.652904
 21
57.699464
 31
0.0
 11
122.178056
 21
57.224616
 31
0.0
 11
121.510004
 21
57.043904
 31
0.0
  0
LINE
  5
153
100
AcDbEntity
  8
Capa_1
 62
7
100
AcDbLine
 10
88.489988
 20
11.323913
 30
0.0
 11
88.489988
 21
11.323913
 31
0.0
  0
SPLINE
  5
154
100
AcDbEntity
  8
Capa_1
 62
7
100
AcDbSpline
 70
0
 71
3
 72
25
 73
21
 74
19
 40
0.000000
 40
0.000000
 40
0.000000
 40
0.000000
 40
0.346490
 40
0.690113
 40
1.036603
 40
1.383093
 40
1.726715
 40
2.073205
 40
2.419695
 40
2.763318
 40
3.109808
 40
3.456298
 40
3.799920
 40
4.146410
 40
4.838467
 40
5.509997
 40
6.202054
 40
6.894110
 40
7.565641
 40
8.257697
 40
8.257697
 40
8.257697
 40
8.257697
 10
88.489988
 20
11.323913
 30
0.0
 10
88.374160
 20
11.332736
 30
0.0
 10
88.143463
 20
11.350308
 30
0.0
 10
87.820612
 20
11.489187
 30
0.0
 10
87.543233
 20
11.700479
 30
0.0
 10
87.330551
 20
11.978228
 30
0.0
 10
87.196822
 20
12.300979
 30
0.0
 10
87.151074
 20
12.647530
 30
0.0
 10
87.196822
 20
12.994046
 30
0.0
 10
87.330548
 20
13.316900
 30
0.0
 10
87.543244
 20
13.594268
 30
0.0
 10
87.820571
 20
13.806981
 30
0.0
 10
88.143616
 20
13.940585
 30
0.0
 10
88.604690
 20
14.002194
 30
0.0
 10
89.183645
 20
13.846822
 30
0.0
 10
89.689019
 20
13.340855
 30
0.0
 10
89.876762
 20
12.646323
 30
0.0
 10
89.689170
 20
11.958925
 30
0.0
 10
89.183055
 20
11.431980
 30
0.0
 10
88.723317
 20
11.360295
 30
0.0
 10
88.489988
 20
11.323913
 30
0.0
 11
88.489988
 21
11.323913
 31
0.0
 11
88.146478
 21
11.369258
 31
0.0
 11
87.829011
 21
11.500755
 31
0.0
 11
87.554046
 21
11.711586
 31
0.0
 11
87.343213
 21
11.986549
 31
0.0
 11
87.211713
 21
12.304014
 31
0.0
 11
87.166365
 21
12.647524
 31
0.0
 11
87.211713
 21
12.991034
 31
0.0
 11
87.343213
 21
13.308499
 31
0.0
 11
87.554046
 21
13.583462
 31
0.0
 11
87.829011
 21
13.794293
 31
0.0
 11
88.146478
 21
13.925790
 31
0.0
 11
88.489988
 21
13.971135
 31
0.0
 11
89.158032
 21
13.790418
 31
0.0
 11
89.632873
 21
13.315571
 31
0.0
 11
89.813582
 21
12.647524
 31
0.0
 11
89.632873
 21
11.979477
 31
0.0
 11
89.158032
 21
11.504630
 31
0.0
 11
88.489988
 21
11.323913
 31
0.0
  0
LINE
  5
155
100
AcDbEntity
  8
Capa_1
 62
7
100
AcDbLine
 10
121.509979
 20
11.323913
 30
0.0
 11
121.509979
 21
11.323913
 31
0.0
  0
LINE
  5
156
100
AcDbEntity
  8
Capa_1
 62
1
100
AcDbLine
 10
125.323600
 20
60.831126
 30
0.0
 11
125.323600
 21
10.183902
 31
0.0
  0
LINE
  5
157
100
AcDbEntity
  8
Capa_1
 62
1
100
AcDbLine
 10
125.323600
 20
10.183902
 30
0.0
 11
84.676378
 21
10.183902
 31
0.0
  0
LINE
  5
158
100
AcDbEntity
  8
Capa_1
 62
1
100
AcDbLine
 10
84.676378
 20
10.183902
 30
0.0
 11
84.676378
 21
60.831126
 31
0.0
  0
LINE
  5
159
100
AcDbEntity
  8
Capa_1
 62
1
100
AcDbLine
 10
84.676378
 20
60.831126
 30
0.0
 11
125.323600
 21
60.831126
 31
0.0
  0
SPLINE
  5
15a
100
AcDbEntity
  8
Capa_1
 62
7
100
AcDbSpline
 70
0
 71
3
 72
19
 73
15
 74
13
 40
0.000000
 40
0.000000
 40
0.000000
 40
0.000000
 40
0.692062
 40
1.363598
 40
2.055660
 40
2.747722
 40
3.419258
 40
4.111320
 40
4.803382
 40
5.474917
 40
6.166979
 40
6.859041
 40
7.530577
 40
8.222639
 40
8.222639
 40
8.222639
 40
8.222639
 10
121.509979
 20
11.323913
 30
0.0
 10
121.276648
 20
11.360292
 30
0.0
 10
120.816907
 20
11.431972
 30
0.0
 10
120.310770
 20
11.958923
 30
0.0
 10
120.123231
 20
12.646309
 30
0.0
 10
120.310770
 20
13.340912
 30
0.0
 10
120.816907
 20
13.846641
 30
0.0
 10
121.509979
 20
14.034319
 30
0.0
 10
122.203051
 20
13.846641
 30
0.0
 10
122.709188
 20
13.340912
 30
0.0
 10
122.896727
 20
12.646309
 30
0.0
 10
122.709188
 20
11.958923
 30
0.0
 10
122.203051
 20
11.431972
 30
0.0
 10
121.743310
 20
11.360292
 30
0.0
 10
121.509979
 20
11.323913
 30
0.0
 11
121.509979
 21
11.323913
 31
0.0
 11
120.841927
 21
11.504625
 31
0.0
 11
120.367080
 21
11.979472
 31
0.0
 11
120.186368
 21
12.647524
 31
0.0
 11
120.367080
 21
13.315576
 31
0.0
 11
120.841927
 21
13.790423
 31
0.0
 11
121.509979
 21
13.971135
 31
0.0
 11
122.178031
 21
13.790423
 31
0.0
 11
122.652878
 21
13.315576
 31
0.0
 11
122.833590
 21
12.647524
 31
0.0
 11
122.652878
 21
11.979472
 31
0.0
 11
122.178031
 21
11.504625
 31
0.0
 11
121.509979
 21
11.323913
 31
0.0
  0
LINE
  5
15b
100
AcDbEntity
  8
Capa_1
 62
7
100
AcDbLine
 10
119.823507
 20
105.034388
 30
0.0
 11
119.823507
 21
105.034388
 31
0.0
  0
LINE
  5
15c
100
AcDbEntity
  8
Capa_1
 62
5
100
AcDbLine
 10
43.954254
 20
137.917222
 30
0.0
 11
43.954254
 21
131.517613
 31
0.0
  0
LINE
  5
15d
100
AcDbEntity
  8
Capa_1
 62
5
100
AcDbLine
 10
43.954254
 20
131.517613
 30
0.0
 11
45.299221
 21
131.517613
 31
0.0
  0
SPLINE
  5
15e
100
AcDbEntity
  8
Capa_1
 62
7
100
AcDbSpline
 70
0
 71
3
 72
55
 73
51
 74
49
 40
0.000000
 40
0.000000
 40
0.000000
 40
0.000000
 40
2.463384
 40
4.861393
 40
7.218477
 40
8.280712
 40
9.339561
 40
10.396186
 40
12.461870
 40
14.530555
 40
16.610333
 40
18.785552
 40
20.998262
 40
23.268190
 40
24.923315
 40
26.545028
 40
28.141728
 40
29.758153
 40
31.361541
 40
32.956699
 40
35.359283
 40
37.764096
 40
40.183764
 40
42.260581
 40
44.372910
 40
46.538152
 40
48.723814
 40
50.855730
 40
52.951741
 40
55.038632
 40
57.113341
 40
59.184177
 40
60.593571
 40
62.007169
 40
63.427835
 40
65.513172
 40
67.634197
 40
69.808503
 40
71.942518
 40
74.024886
 40
76.072350
 40
77.880003
 40
79.677117
 40
81.469339
 40
83.517576
 40
85.573394
 40
87.645655
 40
89.424137
 40
91.231723
 40
93.079770
 40
93.079770
 40
93.079770
 40
93.079770
 10
119.823507
 20
105.034388
 30
0.0
 10
119.784777
 20
104.212263
 30
0.0
 10
119.708346
 20
102.589831
 30
0.0
 10
119.096549
 20
100.246193
 30
0.0
 10
118.327793
 20
98.458304
 30
0.0
 10
117.579501
 20
97.165201
 30
0.0
 10
116.984720
 20
96.287601
 30
0.0
 10
116.122088
 20
95.191683
 30
0.0
 10
114.911386
 20
93.947036
 30
0.0
 10
113.270421
 20
92.672286
 30
0.0
 10
111.435908
 20
91.620103
 30
0.0
 10
109.423568
 20
90.824685
 30
0.0
 10
107.253121
 20
90.323358
 30
0.0
 10
105.204711
 20
90.169263
 30
0.0
 10
103.355091
 20
90.270643
 30
0.0
 10
101.749369
 20
90.538169
 30
0.0
 10
100.195053
 20
90.975845
 30
0.0
 10
98.703350
 20
91.578216
 30
0.0
 10
97.286659
 20
92.339353
 30
0.0
 10
95.743969
 20
93.396783
 30
0.0
 10
94.153797
 20
94.834914
 30
0.0
 10
92.643394
 20
96.724772
 30
0.0
 10
91.511754
 20
98.739802
 30
0.0
 10
90.735167
 20
100.808909
 30
0.0
 10
90.278713
 20
102.884829
 30
0.0
 10
90.123945
 20
105.041187
 30
0.0
 10
90.280661
 20
107.204163
 30
0.0
 10
90.745675
 20
109.298553
 30
0.0
 10
91.494574
 20
111.273390
 30
0.0
 10
92.506051
 20
113.105577
 30
0.0
 10
93.758517
 20
114.771372
 30
0.0
 10
95.070253
 20
116.087182
 30
0.0
 10
96.350418
 20
117.101814
 30
0.0
 10
97.539168
 20
117.872632
 30
0.0
 10
98.996088
 20
118.630335
 30
0.0
 10
100.757337
 20
119.294526
 30
0.0
 10
102.841330
 20
119.754693
 30
0.0
 10
104.986477
 20
119.909319
 30
0.0
 10
107.118576
 20
119.758496
 30
0.0
 10
109.166048
 20
119.315089
 30
0.0
 10
111.028665
 20
118.626880
 30
0.0
 10
112.699717
 20
117.746729
 30
0.0
 10
114.181582
 20
116.718868
 30
0.0
 10
115.588946
 20
115.466986
 30
0.0
 10
116.881800
 20
113.978156
 30
0.0
 10
118.008263
 20
112.247311
 30
0.0
 10
118.846175
 20
110.457784
 30
0.0
 10
119.413192
 20
108.655303
 30
0.0
 10
119.758763
 20
106.870156
 30
0.0
 10
119.801767
 20
105.650809
 30
0.0
 10
119.823507
 20
105.034388
 30
0.0
 11
119.823507
 21
105.034388
 31
0.0
 11
119.621148
 21
102.579330
 31
0.0
 11
119.035765
 21
100.253868
 31
0.0
 11
118.099894
 21
98.090539
 31
0.0
 11
117.568256
 21
97.170917
 31
0.0
 11
116.974159
 21
96.294441
 31
0.0
 11
116.320646
 21
95.464153
 31
0.0
 11
114.880258
 21
93.983501
 31
0.0
 11
113.246495
 21
92.714534
 31
0.0
 11
111.442212
 21
91.680107
 31
0.0
 11
109.419208
 21
90.880714
 31
0.0
 11
107.263318
 21
90.382488
 31
0.0
 11
104.999894
 21
90.210779
 31
0.0
 11
103.347278
 21
90.301865
 31
0.0
 11
101.747661
 21
90.568659
 31
0.0
 11
100.210739
 21
91.001464
 31
0.0
 11
98.711874
 21
91.606636
 31
0.0
 11
97.299349
 21
92.365339
 31
0.0
 11
95.983577
 21
93.267155
 31
0.0
 11
94.201627
 21
94.878695
 31
0.0
 11
92.700461
 21
96.757425
 31
0.0
 11
91.516039
 21
98.867387
 31
0.0
 11
90.786367
 21
100.811802
 31
0.0
 11
90.332465
 21
102.874786
 31
0.0
 11
90.176285
 21
105.034388
 31
0.0
 11
90.335435
 21
107.214248
 31
0.0
 11
90.797825
 21
109.295416
 31
0.0
 11
91.540866
 21
111.255302
 31
0.0
 11
92.549169
 21
113.082442
 31
0.0
 11
93.795823
 21
114.740836
 31
0.0
 11
95.257803
 21
116.207456
 31
0.0
 11
96.362361
 21
117.082867
 31
0.0
 11
97.548484
 21
117.851873
 31
0.0
 11
98.808949
 21
118.507251
 31
0.0
 11
100.760240
 21
119.242844
 31
0.0
 11
102.831300
 21
119.700505
 31
0.0
 11
104.999894
 21
119.858000
 31
0.0
 11
107.128511
 21
119.706310
 31
0.0
 11
109.163633
 21
119.265242
 31
0.0
 11
111.084256
 21
118.555796
 31
0.0
 11
112.683732
 21
117.713603
 31
0.0
 11
114.160492
 21
116.689494
 31
0.0
 11
115.499631
 21
115.498375
 31
0.0
 11
116.842436
 21
113.951718
 31
0.0
 11
117.963776
 21
112.228644
 31
0.0
 11
118.841401
 21
110.351401
 31
0.0
 11
119.377979
 21
108.655794
 31
0.0
 11
119.709866
 21
106.878938
 31
0.0
 11
119.823507
 21
105.034388
 31
0.0
  0
SPLINE
  5
15f
100
AcDbEntity
  8
Capa_1
 62
5
100
AcDbSpline
 70
0
 71
3
 72
10
 73
6
 74
4
 40
0.000000
 40
0.000000
 40
0.000000
 40
0.000000
 40
1.037384
 40
1.906806
 40
2.666498
 40
2.666498
 40
2.666498
 40
2.666498
 10
45.299221
 20
131.517613
 30
0.0
 10
45.644508
 20
131.532015
 30
0.0
 10
46.279176
 20
131.558487
 30
0.0
 10
47.157130
 20
131.796486
 30
0.0
 10
47.589219
 20
132.132584
 30
0.0
 10
47.790712
 20
132.289313
 30
0.0
 11
45.299221
 21
131.517613
 31
0.0
 11
46.333055
 21
131.603358
 31
0.0
 11
47.163552
 21
131.860591
 31
0.0
 11
47.790712
 21
132.289313
 31
0.0
  0
SPLINE
  5
160
100
AcDbEntity
  8
Capa_1
 62
5
100
AcDbSpline
 70
0
 71
3
 72
13
 73
9
 74
7
 40
0.000000
 40
0.000000
 40
0.000000
 40
0.000000
 40
0.755690
 40
1.609827
 40
2.624228
 40
3.631920
 40
4.480818
 40
5.233030
 40
5.233030
 40
5.233030
 40
5.233030
 10
47.790712
 20
132.289313
 30
0.0
 10
47.952097
 20
132.485797
 30
0.0
 10
48.295890
 20
132.904362
 30
0.0
 10
48.536878
 20
133.765957
 30
0.0
 10
48.610264
 20
134.723444
 30
0.0
 10
48.536984
 20
135.679223
 30
0.0
 10
48.295522
 20
136.535420
 30
0.0
 10
47.952069
 20
136.950508
 30
0.0
 10
47.790712
 20
137.145520
 30
0.0
 11
47.790712
 21
132.289313
 31
0.0
 11
48.231685
 21
132.903000
 31
0.0
 11
48.496268
 21
133.715124
 31
0.0
 11
48.584462
 21
134.725684
 31
0.0
 11
48.496268
 21
135.729509
 31
0.0
 11
48.231685
 21
136.536121
 31
0.0
 11
47.790712
 21
137.145520
 31
0.0
  0
LINE
  5
161
100
AcDbEntity
  8
Capa_1
 62
5
100
AcDbLine
 10
45.299221
 20
137.917222
 30
0.0
 11
43.954254
 21
137.917222
 31
0.0
  0
LINE
  5
162
100
AcDbEntity
  8
Capa_1
 62
5
100
AcDbLine
 10
43.954254
 20
137.917222
 30
0.0
 11
43.954254
 21
137.917222
 31
0.0
  0
LINE
  5
163
100
AcDbEntity
  8
Capa_1
 62
5
100
AcDbLine
 10
42.840800
 20
138.832238
 30
0.0
 11
45.128344
 21
138.832238
 31
0.0
  0
SPLINE
  5
164
100
AcDbEntity
  8
Capa_1
 62
5
100
AcDbSpline
 70
0
 71
3
 72
10
 73
6
 74
4
 40
0.000000
 40
0.000000
 40
0.000000
 40
0.000000
 40
0.759694
 40
1.629116
 40
2.666499
 40
2.666499
 40
2.666499
 40
2.666499
 10
47.790712
 20
137.145520
 30
0.0
 10
47.589219
 20
137.302250
 30
0.0
 10
47.157130
 20
137.638348
 30
0.0
 10
46.279176
 20
137.876348
 30
0.0
 10
45.644508
 20
137.902820
 30
0.0
 10
45.299221
 20
137.917222
 30
0.0
 11
47.790712
 21
137.145520
 31
0.0
 11
47.163552
 21
137.574243
 31
0.0
 11
46.333055
 21
137.831478
 31
0.0
 11
45.299221
 21
137.917222
 31
0.0
  0
SPLINE
  5
165
100
AcDbEntity
  8
Capa_1
 62
5
100
AcDbSpline
 70
0
 71
3
 72
10
 73
6
 74
4
 40
0.000000
 40
0.000000
 40
0.000000
 40
0.000000
 40
1.457592
 40
2.674338
 40
3.720666
 40
3.720666
 40
3.720666
 40
3.720666
 10
45.128344
 20
138.832238
 30
0.0
 10
45.613449
 20
138.813386
 30
0.0
 10
46.503504
 20
138.778797
 30
0.0
 10
47.732674
 20
138.476367
 30
0.0
 10
48.352849
 20
138.037465
 30
0.0
 10
48.639586
 20
137.834540
 30
0.0
 11
45.128344
 21
138.832238
 31
0.0
 11
46.581714
 21
138.721382
 31
0.0
 11
47.752129
 21
138.388816
 31
0.0
 11
48.639586
 21
137.834540
 31
0.0
  0
LINE
  5
166
100
AcDbEntity
  8
Capa_1
 62
5
100
AcDbLine
 10
45.128344
 20
130.602595
 30
0.0
 11
42.840800
 21
130.602595
 31
0.0
  0
LINE
  5
167
100
AcDbEntity
  8
Capa_1
 62
5
100
AcDbLine
 10
42.840800
 20
130.602595
 30
0.0
 11
42.840800
 21
138.832238
 31
0.0
  0
LINE
  5
168
100
AcDbEntity
  8
Capa_1
 62
5
100
AcDbLine
 10
42.840800
 20
138.832238
 30
0.0
 11
42.840800
 21
138.832238
 31
0.0
  0
LINE
  5
169
100
AcDbEntity
  8
Capa_1
 62
5
100
AcDbLine
 10
163.884503
 20
137.735322
 30
0.0
 11
162.374171
 21
133.639792
 31
0.0
  0
LINE
  5
16a
100
AcDbEntity
  8
Capa_1
 62
5
100
AcDbLine
 10
162.374171
 20
133.639792
 30
0.0
 11
165.400344
 21
133.639792
 31
0.0
  0
LINE
  5
16b
100
AcDbEntity
  8
Capa_1
 62
5
100
AcDbLine
 10
165.400344
 20
133.639792
 30
0.0
 11
163.884503
 21
137.735322
 31
0.0
  0
LINE
  5
16c
100
AcDbEntity
  8
Capa_1
 62
5
100
AcDbLine
 10
163.884503
 20
137.735322
 30
0.0
 11
163.884503
 21
137.735322
 31
0.0
  0
LINE
  5
16d
100
AcDbEntity
  8
Capa_1
 62
5
100
AcDbLine
 10
163.256115
 20
138.832238
 30
0.0
 11
164.518399
 21
138.832238
 31
0.0
  0
LINE
  5
16e
100
AcDbEntity
  8
Capa_1
 62
5
100
AcDbLine
 10
164.518399
 20
138.832238
 30
0.0
 11
167.654814
 21
130.602595
 31
0.0
  0
LINE
  5
16f
100
AcDbEntity
  8
Capa_1
 62
5
100
AcDbLine
 10
167.654814
 20
130.602595
 30
0.0
 11
166.497262
 21
130.602595
 31
0.0
  0
LINE
  5
170
100
AcDbEntity
  8
Capa_1
 62
5
100
AcDbLine
 10
166.497262
 20
130.602595
 30
0.0
 11
165.747610
 21
132.713750
 31
0.0
  0
LINE
  5
171
100
AcDbEntity
  8
Capa_1
 62
5
100
AcDbLine
 10
165.747610
 20
132.713750
 30
0.0
 11
162.037931
 21
132.713750
 31
0.0
  0
LINE
  5
172
100
AcDbEntity
  8
Capa_1
 62
5
100
AcDbLine
 10
162.037931
 20
132.713750
 30
0.0
 11
161.288278
 21
130.602595
 31
0.0
  0
LINE
  5
173
100
AcDbEntity
  8
Capa_1
 62
5
100
AcDbLine
 10
161.288278
 20
130.602595
 30
0.0
 11
160.114189
 21
130.602595
 31
0.0
  0
LINE
  5
174
100
AcDbEntity
  8
Capa_1
 62
5
100
AcDbLine
 10
160.114189
 20
130.602595
 30
0.0
 11
163.256115
 21
138.832238
 31
0.0
  0
LINE
  5
175
100
AcDbEntity
  8
Capa_1
 62
5
100
AcDbLine
 10
163.256115
 20
138.832238
 30
0.0
 11
163.256115
 21
138.832238
 31
0.0
  0
LINE
  5
176
100
AcDbEntity
  8
Capa_1
 62
5
100
AcDbLine
 10
162.079271
 20
73.584766
 30
0.0
 11
162.079271
 21
70.569619
 31
0.0
  0
LINE
  5
177
100
AcDbEntity
  8
Capa_1
 62
5
100
AcDbLine
 10
162.079271
 20
70.569619
 30
0.0
 11
163.865210
 21
70.569619
 31
0.0
  0
SPLINE
  5
178
100
AcDbEntity
  8
Capa_1
 62
5
100
AcDbSpline
 70
0
 71
3
 72
16
 73
12
 74
10
 40
0.000000
 40
0.000000
 40
0.000000
 40
0.000000
 40
1.002433
 40
2.103800
 40
3.395964
 40
4.694893
 40
5.802068
 40
6.809764
 40
7.857650
 40
9.072627
 40
10.524724
 40
10.524724
 40
10.524724
 40
10.524724
 10
48.639586
 20
137.834540
 30
0.0
 10
48.866445
 20
137.584615
 30
0.0
 10
49.342553
 20
137.060099
 30
0.0
 10
49.692108
 20
135.953019
 30
0.0
 10
49.793519
 20
134.724761
 30
0.0
 10
49.695475
 20
133.486956
 30
0.0
 10
49.328538
 20
132.393056
 30
0.0
 10
48.666308
 20
131.542211
 30
0.0
 10
47.712367
 20
130.975321
 30
0.0
 10
46.503826
 20
130.650899
 30
0.0
 10
45.613231
 20
130.619624
 30
0.0
 10
45.128344
 20
130.602595
 30
0.0
 11
48.639586
 21
137.834540
 31
0.0
 11
49.261234
 21
137.048139
 31
0.0
 11
49.634222
 21
136.011853
 31
0.0
 11
49.758552
 21
134.725684
 31
0.0
 11
49.633610
 21
133.432778
 31
0.0
 11
49.258783
 21
132.390981
 31
0.0
 11
48.634071
 21
131.600293
 31
0.0
 11
47.744778
 21
131.046017
 31
0.0
 11
46.576202
 21
130.713451
 31
0.0
 11
45.128344
 21
130.602595
 31
0.0
  0
SPLINE
  5
179
100
AcDbEntity
  8
Capa_1
 62
5
100
AcDbSpline
 70
0
 71
3
 72
16
 73
12
 74
10
 40
0.000000
 40
0.000000
 40
0.000000
 40
0.000000
 40
0.548465
 40
1.008068
 40
1.404058
 40
1.784311
 40
2.191407
 40
2.661213
 40
3.132847
 40
3.538227
 40
3.914243
 40
3.914243
 40
3.914243
 40
3.914243
 10
163.865210
 20
70.569619
 30
0.0
 10
164.048332
 20
70.575950
 30
0.0
 10
164.384906
 20
70.587585
 30
0.0
 10
164.842225
 20
70.707508
 30
0.0
 10
165.204722
 20
70.917268
 30
0.0
 10
165.459853
 20
71.229375
 30
0.0
 10
165.604226
 20
71.629452
 30
0.0
 10
165.642717
 20
72.081052
 30
0.0
 10
165.603227
 20
72.529253
 30
0.0
 10
165.464863
 20
72.935338
 30
0.0
 10
165.281753
 20
73.124450
 30
0.0
 10
165.193639
 20
73.215452
 30
0.0
 11
163.865210
 21
70.569619
 31
0.0
 11
164.412138
 21
70.610654
 31
0.0
 11
164.854947
 21
70.733758
 31
0.0
 11
165.193639
 21
70.938932
 31
0.0
 11
165.435561
 21
71.232302
 31
0.0
 11
165.580714
 21
71.612641
 31
0.0
 11
165.629099
 21
72.079948
 31
0.0
 11
165.580714
 21
72.549094
 31
0.0
 11
165.435561
 21
72.927596
 31
0.0
 11
165.193639
 21
73.215452
 31
0.0
  0
LINE
  5
17a
100
AcDbEntity
  8
Capa_1
 62
5
100
AcDbLine
 10
163.865210
 20
73.584766
 30
0.0
 11
162.079271
 21
73.584766
 31
0.0
  0
LINE
  5
17b
100
AcDbEntity
  8
Capa_1
 62
5
100
AcDbLine
 10
162.079271
 20
73.584766
 30
0.0
 11
162.079271
 21
73.584766
 31
0.0
  0
LINE
  5
17c
100
AcDbEntity
  8
Capa_1
 62
5
100
AcDbLine
 10
162.079271
 20
76.969228
 30
0.0
 11
162.079271
 21
74.488760
 31
0.0
  0
LINE
  5
17d
100
AcDbEntity
  8
Capa_1
 62
5
100
AcDbLine
 10
162.079271
 20
74.488760
 30
0.0
 11
163.727404
 21
74.488760
 31
0.0
  0
SPLINE
  5
17e
100
AcDbEntity
  8
Capa_1
 62
5
100
AcDbSpline
 70
0
 71
3
 72
10
 73
6
 74
4
 40
0.000000
 40
0.000000
 40
0.000000
 40
0.000000
 40
0.395990
 40
0.855593
 40
1.404058
 40
1.404058
 40
1.404058
 40
1.404058
 10
165.193639
 20
73.215452
 30
0.0
 10
165.084010
 20
73.290556
 30
0.0
 10
164.847143
 20
73.452827
 30
0.0
 10
164.383305
 20
73.564863
 30
0.0
 10
164.047768
 20
73.577753
 30
0.0
 10
163.865210
 20
73.584766
 30
0.0
 11
165.193639
 21
73.215452
 31
0.0
 11
164.854947
 21
73.420626
 31
0.0
 11
164.412138
 21
73.543731
 31
0.0
 11
163.865210
 21
73.584766
 31
0.0
  0
LINE
  5
17f
100
AcDbEntity
  8
Capa_1
 62
5
100
AcDbLine
 10
163.727404
 20
76.969228
 30
0.0
 11
162.079271
 21
76.969228
 31
0.0
  0
LINE
  5
180
100
AcDbEntity
  8
Capa_1
 62
5
100
AcDbLine
 10
162.079271
 20
76.969228
 30
0.0
 11
162.079271
 21
76.969228
 31
0.0
  0
LINE
  5
181
100
AcDbEntity
  8
Capa_1
 62
5
100
AcDbLine
 10
160.965817
 20
77.884246
 30
0.0
 11
163.810086
 21
77.884246
 31
0.0
  0
SPLINE
  5
182
100
AcDbEntity
  8
Capa_1
 62
5
100
AcDbSpline
 70
0
 71
3
 72
19
 73
15
 74
13
 40
0.000000
 40
0.000000
 40
0.000000
 40
0.000000
 40
0.498459
 40
0.915125
 40
1.268918
 40
1.597862
 40
1.937798
 40
2.323796
 40
2.706754
 40
3.045002
 40
3.373497
 40
3.728758
 40
4.145874
 40
4.644374
 40
4.644374
 40
4.644374
 40
4.644374
 10
163.727404
 20
74.488760
 30
0.0
 10
163.893786
 20
74.493954
 30
0.0
 10
164.199249
 20
74.503490
 30
0.0
 10
164.614262
 20
74.601320
 30
0.0
 10
164.945161
 20
74.770657
 30
0.0
 10
165.182896
 20
75.025485
 30
0.0
 10
165.319130
 20
75.356759
 30
0.0
 10
165.354887
 20
75.727983
 30
0.0
 10
165.319050
 20
76.098600
 30
0.0
 10
165.182623
 20
76.428116
 30
0.0
 10
164.944207
 20
76.681474
 30
0.0
 10
164.615039
 20
76.854694
 30
0.0
 10
164.199376
 20
76.954140
 30
0.0
 10
163.893782
 20
76.963909
 30
0.0
 10
163.727404
 20
76.969228
 30
0.0
 11
163.727404
 21
74.488760
 31
0.0
 11
164.224723
 21
74.522446
 31
0.0
 11
164.628948
 21
74.623502
 31
0.0
 11
164.940079
 21
74.791929
 31
0.0
 11
165.163627
 21
75.033239
 31
0.0
 11
165.297756
 21
75.345594
 31
0.0
 11
165.342466
 21
75.728994
 31
0.0
 11
165.297756
 21
76.109332
 31
0.0
 11
165.163627
 21
76.419850
 31
0.0
 11
164.940079
 21
76.660548
 31
0.0
 11
164.628948
 21
76.832037
 31
0.0
 11
164.224723
 21
76.934930
 31
0.0
 11
163.727404
 21
76.969228
 31
0.0
  0
SPLINE
  5
183
100
AcDbEntity
  8
Capa_1
 62
5
100
AcDbSpline
 70
0
 71
3
 72
19
 73
15
 74
13
 40
0.000000
 40
0.000000
 40
0.000000
 40
0.000000
 40
0.786153
 40
1.463627
 40
2.064694
 40
2.620070
 40
3.171756
 40
3.777438
 40
4.248220
 40
4.665675
 40
5.051168
 40
5.427600
 40
5.819720
 40
6.253062
 40
6.253062
 40
6.253062
 40
6.253062
 10
163.810086
 20
77.884246
 30
0.0
 10
164.072548
 20
77.874876
 30
0.0
 10
164.561189
 20
77.857432
 30
0.0
 10
165.233705
 20
77.682778
 30
0.0
 10
165.777685
 20
77.388417
 30
0.0
 10
166.181431
 20
76.972068
 30
0.0
 10
166.419667
 20
76.441010
 30
0.0
 10
166.477223
 20
75.894913
 30
0.0
 10
166.439903
 20
75.396453
 30
0.0
 10
166.324688
 20
74.983994
 30
0.0
 10
166.124784
 20
74.639696
 30
0.0
 10
165.842817
 20
74.371192
 30
0.0
 10
165.484434
 20
74.179382
 30
0.0
 10
165.214223
 20
74.122006
 30
0.0
 10
165.072370
 20
74.091885
 30
0.0
 11
163.810086
 21
77.884246
 31
0.0
 11
164.594037
 21
77.825450
 31
0.0
 11
165.248147
 21
77.649061
 31
0.0
 11
165.772414
 21
77.355080
 31
0.0
 11
166.155202
 21
76.952692
 31
0.0
 11
166.384874
 21
76.451087
 31
0.0
 11
166.461432
 21
75.850262
 31
0.0
 11
166.422234
 21
75.381115
 31
0.0
 11
166.304641
 21
74.980565
 31
0.0
 11
166.108654
 21
74.648611
 31
0.0
 11
165.836721
 21
74.388315
 31
0.0
 11
165.491293
 21
74.202740
 31
0.0
 11
165.072370
 21
74.091885
 31
0.0
  0
SPLINE
  5
184
100
AcDbEntity
  8
Capa_1
 62
5
100
AcDbSpline
 70
0
 71
3
 72
10
 73
6
 74
4
 40
0.000000
 40
0.000000
 40
0.000000
 40
0.000000
 40
0.531317
 40
1.021995
 40
1.498868
 40
1.498868
 40
1.498868
 40
1.498868
 10
165.072370
 20
74.091885
 30
0.0
 10
165.243707
 20
74.045774
 30
0.0
 10
165.573274
 20
73.957078
 30
0.0
 10
166.015910
 20
73.706907
 30
0.0
 10
166.236806
 20
73.470013
 30
0.0
 10
166.345678
 20
73.353256
 30
0.0
 11
165.072370
 21
74.091885
 31
0.0
 11
165.578877
 21
73.931420
 31
0.0
 11
166.003312
 21
73.685210
 31
0.0
 11
166.345678
 21
73.353256
 31
0.0
  0
LINE
  5
185
100
AcDbEntity
  8
Capa_1
 62
5
100
AcDbLine
 10
163.920331
 20
69.654601
 30
0.0
 11
160.965817
 21
69.654601
 31
0.0
  0
LINE
  5
186
100
AcDbEntity
  8
Capa_1
 62
5
100
AcDbLine
 10
160.965817
 20
69.654601
 30
0.0
 11
160.965817
 21
77.884246
 31
0.0
  0
LINE
  5
187
100
AcDbEntity
  8
Capa_1
 62
5
100
AcDbLine
 10
160.965817
 20
77.884246
 30
0.0
 11
160.965817
 21
77.884246
 31
0.0
  0
LINE
  5
188
100
AcDbEntity
  8
Capa_1
 62
5
100
AcDbLine
 10
49.543578
 20
77.250347
 30
0.0
 11
49.543578
 21
76.076260
 31
0.0
  0
SPLINE
  5
189
100
AcDbEntity
  8
Capa_1
 62
5
100
AcDbSpline
 70
0
 71
3
 72
16
 73
12
 74
10
 40
0.000000
 40
0.000000
 40
0.000000
 40
0.000000
 40
0.475940
 40
0.965174
 40
1.494948
 40
2.179256
 40
2.799565
 40
3.417339
 40
4.078056
 40
4.816789
 40
5.671334
 40
5.671334
 40
5.671334
 40
5.671334
 10
166.345678
 20
73.353256
 30
0.0
 10
166.437788
 20
73.223046
 30
0.0
 10
166.624580
 20
72.958989
 30
0.0
 10
166.772756
 20
72.475095
 30
0.0
 10
166.822756
 20
71.907746
 30
0.0
 10
166.757305
 20
71.292464
 30
0.0
 10
166.500565
 20
70.692989
 30
0.0
 10
166.062348
 20
70.220076
 30
0.0
 10
165.470260
 20
69.884281
 30
0.0
 10
164.737665
 20
69.685139
 30
0.0
 10
164.205666
 20
69.665262
 30
0.0
 10
163.920331
 20
69.654601
 30
0.0
 11
166.345678
 21
73.353256
 31
0.0
 11
166.599849
 21
72.950868
 31
0.0
 11
166.752352
 21
72.486010
 31
0.0
 11
166.803186
 21
71.958680
 31
0.0
 11
166.719891
 21
71.279461
 31
0.0
 11
166.470007
 21
70.711710
 31
0.0
 11
166.053533
 21
70.255427
 31
0.0
 11
165.483331
 21
69.921635
 31
0.0
 11
164.772264
 21
69.721359
 31
0.0
 11
163.920331
 21
69.654601
 31
0.0
  0
SPLINE
  5
18a
100
AcDbEntity
  8
Capa_1
 62
5
100
AcDbSpline
 70
0
 71
3
 72
16
 73
12
 74
10
 40
0.000000
 40
0.000000
 40
0.000000
 40
0.000000
 40
0.499207
 40
0.977237
 40
1.441263
 40
1.896406
 40
2.354774
 40
2.824190
 40
3.696750
 40
4.472624
 40
5.220810
 40
5.220810
 40
5.220810
 40
5.220810
 10
49.543578
 20
76.076260
 30
0.0
 10
49.418325
 20
76.186082
 30
0.0
 10
49.173134
 20
76.401066
 30
0.0
 10
48.768314
 20
76.662971
 30
0.0
 10
48.348491
 20
76.867085
 30
0.0
 10
47.911685
 20
77.013057
 30
0.0
 10
47.457526
 20
77.099819
 30
0.0
 10
46.856974
 20
77.134410
 30
0.0
 10
46.150479
 20
77.064065
 30
0.0
 10
45.382017
 20
76.782326
 30
0.0
 10
45.012224
 20
76.427056
 30
0.0
 10
44.830687
 20
76.252649
 30
0.0
 11
49.543578
 21
76.076260
 31
0.0
 11
49.160177
 21
76.395965
 31
0.0
 11
48.759627
 21
76.656873
 31
0.0
 11
48.341929
 21
76.858984
 31
0.0
 11
47.910143
 21
77.002912
 31
0.0
 11
47.459983
 21
77.089269
 31
0.0
 11
46.991451
 21
77.118055
 31
0.0
 11
46.124205
 21
77.021899
 31
0.0
 11
45.403951
 21
76.733430
 31
0.0
 11
44.830687
 21
76.252649
 31
0.0
  0
SPLINE
  5
18b
100
AcDbEntity
  8
Capa_1
 62
5
100
AcDbSpline
 70
0
 71
3
 72
13
 73
9
 74
7
 40
0.000000
 40
0.000000
 40
0.000000
 40
0.000000
 40
0.779579
 40
1.646856
 40
2.652299
 40
3.655301
 40
4.522577
 40
5.304227
 40
5.304227
 40
5.304227
 40
5.304227
 10
44.830687
 20
76.252649
 30
0.0
 10
44.678477
 20
76.039741
 30
0.0
 10
44.356935
 20
75.589974
 30
0.0
 10
44.127686
 20
74.719822
 30
0.0
 10
44.055978
 20
73.761983
 30
0.0
 10
44.127771
 20
72.804056
 30
0.0
 10
44.357509
 20
71.934348
 30
0.0
 10
44.678517
 20
71.483419
 30
0.0
 10
44.830687
 20
71.269663
 30
0.0
 11
44.830687
 21
76.252649
 31
0.0
 11
44.414213
 21
75.593640
 31
0.0
 11
44.164329
 21
74.763142
 31
0.0
 11
44.081034
 21
73.761155
 31
0.0
 11
44.164329
 21
72.761617
 31
0.0
 11
44.414213
 21
71.931120
 31
0.0
 11
44.830687
 21
71.269663
 31
0.0
  0
LINE
  5
18c
100
AcDbEntity
  8
Capa_1
 62
5
100
AcDbLine
 10
49.543578
 20
71.451564
 30
0.0
 11
49.543578
 21
70.288498
 31
0.0
  0
SPLINE
  5
18d
100
AcDbEntity
  8
Capa_1
 62
5
100
AcDbSpline
 70
0
 71
3
 72
16
 73
12
 74
10
 40
0.000000
 40
0.000000
 40
0.000000
 40
0.000000
 40
0.746223
 40
1.521416
 40
2.393909
 40
2.863325
 40
3.321693
 40
3.776836
 40
4.240863
 40
4.718893
 40
5.218100
 40
5.218100
 40
5.218100
 40
5.218100
 10
44.830687
 20
71.269663
 30
0.0
 10
45.012323
 20
71.096329
 30
0.0
 10
45.382648
 20
70.742931
 30
0.0
 10
46.150799
 20
70.463418
 30
0.0
 10
46.856989
 20
70.393456
 30
0.0
 10
47.457528
 20
70.427993
 30
0.0
 10
47.911685
 20
70.514766
 30
0.0
 10
48.348492
 20
70.660735
 30
0.0
 10
48.768314
 20
70.864852
 30
0.0
 10
49.173134
 20
71.126757
 30
0.0
 10
49.418325
 20
71.341742
 30
0.0
 10
49.543578
 20
71.451564
 30
0.0
 11
44.830687
 21
71.269663
 31
0.0
 11
45.403951
 21
70.791942
 31
0.0
 11
46.124205
 21
70.505310
 31
0.0
 11
46.991451
 21
70.409766
 31
0.0
 11
47.459983
 21
70.438551
 31
0.0
 11
47.910143
 21
70.524909
 31
0.0
 11
48.341929
 21
70.668837
 31
0.0
 11
48.759627
 21
70.870950
 31
0.0
 11
49.160177
 21
71.131858
 31
0.0
 11
49.543578
 21
71.451564
 31
0.0
  0
SPLINE
  5
18e
100
AcDbEntity
  8
Capa_1
 62
5
100
AcDbSpline
 70
0
 71
3
 72
16
 73
12
 74
10
 40
0.000000
 40
0.000000
 40
0.000000
 40
0.000000
 40
0.465638
 40
0.924208
 40
1.380442
 40
1.836175
 40
2.300259
 40
2.777263
 40
3.941738
 40
4.994040
 40
6.018485
 40
6.018485
 40
6.018485
 40
6.018485
 10
49.543578
 20
70.288498
 30
0.0
 10
49.412718
 20
70.204796
 30
0.0
 10
49.152984
 20
70.038663
 30
0.0
 10
48.736159
 20
69.840952
 30
0.0
 10
48.305784
 20
69.685849
 30
0.0
 10
47.859916
 20
69.574700
 30
0.0
 10
47.398189
 20
69.508690
 30
0.0
 10
46.696116
 20
69.478149
 30
0.0
 10
45.797163
 20
69.567856
 30
0.0
 10
44.758036
 20
69.940388
 30
0.0
 10
44.238232
 20
70.406054
 30
0.0
 10
43.981816
 20
70.635764
 30
0.0
 11
49.543578
 21
70.288498
 31
0.0
 11
49.146091
 21
70.045963
 31
0.0
 11
48.732679
 21
69.847526
 31
0.0
 11
48.303344
 21
69.693186
 31
0.0
 11
47.861146
 21
69.582943
 31
0.0
 11
47.401800
 21
69.516796
 31
0.0
 11
46.925306
 21
69.494748
 31
0.0
 11
45.767753
 21
69.621527
 31
0.0
 11
44.786590
 21
70.001866
 31
0.0
 11
43.981816
 21
70.635764
 31
0.0
  0
SPLINE
  5
18f
100
AcDbEntity
  8
Capa_1
 62
5
100
AcDbSpline
 70
0
 71
3
 72
13
 73
9
 74
7
 40
0.000000
 40
0.000000
 40
0.000000
 40
0.000000
 40
1.044390
 40
2.146076
 40
3.378637
 40
4.613635
 40
5.715321
 40
6.757703
 40
6.757703
 40
6.757703
 40
6.757703
 10
43.981816
 20
70.635764
 30
0.0
 10
43.764770
 20
70.911140
 30
0.0
 10
43.318770
 20
71.477000
 30
0.0
 10
42.975517
 20
72.571958
 30
0.0
 10
42.870758
 20
73.761980
 30
0.0
 10
42.975386
 20
74.951928
 30
0.0
 10
43.318181
 20
76.047368
 30
0.0
 10
43.764721
 20
76.612026
 30
0.0
 10
43.981816
 20
76.886545
 30
0.0
 11
43.981816
 21
70.635764
 31
0.0
 11
43.384667
 21
71.492597
 31
0.0
 11
43.026377
 21
72.534394
 31
0.0
 11
42.906947
 21
73.761155
 31
0.0
 11
43.026377
 21
74.990365
 31
0.0
 11
43.384667
 21
76.032162
 31
0.0
 11
43.981816
 21
76.886545
 31
0.0
  0
SPLINE
  5
190
100
AcDbEntity
  8
Capa_1
 62
5
100
AcDbSpline
 70
0
 71
3
 72
13
 73
9
 74
7
 40
0.000000
 40
0.000000
 40
0.000000
 40
0.000000
 40
1.026343
 40
2.079310
 40
3.243852
 40
3.726973
 40
4.194695
 40
4.651615
 40
4.651615
 40
4.651615
 40
4.651615
 10
43.981816
 20
76.886545
 30
0.0
 10
44.238140
 20
77.117333
 30
0.0
 10
44.757439
 20
77.584895
 30
0.0
 10
45.796814
 20
77.959569
 30
0.0
 10
46.698265
 20
78.050041
 30
0.0
 10
47.403306
 20
78.018629
 30
0.0
 10
47.869552
 20
77.955428
 30
0.0
 10
48.167255
 20
77.874586
 30
0.0
 10
48.314367
 20
77.834637
 30
0.0
 11
43.981816
 21
76.886545
 31
0.0
 11
44.786590
 21
77.523505
 31
0.0
 11
45.767753
 21
77.905681
 31
0.0
 11
46.925306
 21
78.033073
 31
0.0
 11
47.407925
 21
78.011025
 31
0.0
 11
47.870945
 21
77.944879
 31
0.0
 11
48.314367
 21
77.834637
 31
0.0
  0
LINE
  5
191
100
AcDbEntity
  8
Capa_1
 62
5
100
AcDbLine
 10
49.543578
 20
77.250347
 30
0.0
 11
49.543578
 21
77.250347
 31
0.0
  0
LINE
  5
192
100
AcDbEntity
  8
Capa_1
 62
1
100
AcDbLine
 10
93.676289
 20
169.859735
 30
0.0
 11
116.323511
 21
169.859735
 31
0.0
  0
LINE
  5
193
100
AcDbEntity
  8
Capa_1
 62
1
100
AcDbLine
 10
116.323511
 20
169.859735
 30
0.0
 11
116.323511
 21
143.212513
 31
0.0
  0
LINE
  5
194
100
AcDbEntity
  8
Capa_1
 62
1
100
AcDbLine
 10
116.323511
 20
143.212513
 30
0.0
 11
93.676289
 21
143.212513
 31
0.0
  0
LINE
  5
195
100
AcDbEntity
  8
Capa_1
 62
1
100
AcDbLine
 10
93.676289
 20
143.212513
 30
0.0
 11
93.676289
 21
169.859735
 31
0.0
  0
SPLINE
  5
196
100
AcDbEntity
  8
Capa_1
 62
5
100
AcDbSpline
 70
0
 71
3
 72
10
 73
6
 74
4
 40
0.000000
 40
0.000000
 40
0.000000
 40
0.000000
 40
0.453849
 40
0.907520
 40
1.366017
 40
1.366017
 40
1.366017
 40
1.366017
 10
48.314367
 20
77.834637
 30
0.0
 10
48.458192
 20
77.787422
 30
0.0
 10
48.745785
 20
77.693009
 30
0.0
 10
49.158430
 20
77.496613
 30
0.0
 10
49.414743
 20
77.332725
 30
0.0
 10
49.543578
 20
77.250347
 30
0.0
 11
48.314367
 21
77.834637
 31
0.0
 11
48.742478
 21
77.683971
 31
0.0
 11
49.152215
 21
77.489207
 31
0.0
 11
49.543578
 21
77.250347
 31
0.0
  0
LINE
  5
197
100
AcDbEntity
  8
Capa_1
 62
7
100
AcDbLine
 10
100.073508
 20
149.286141
 30
0.0
 11
100.073508
 21
149.286141
 31
0.0
  0
SPLINE
  5
198
100
AcDbEntity
  8
Capa_1
 62
7
100
AcDbSpline
 70
0
 71
3
 72
25
 73
21
 74
19
 40
0.000000
 40
0.000000
 40
0.000000
 40
0.000000
 40
0.346490
 40
0.690113
 40
1.036603
 40
1.383093
 40
1.726715
 40
2.073205
 40
2.419695
 40
2.763318
 40
3.109808
 40
3.456298
 40
3.799920
 40
4.146410
 40
4.838467
 40
5.509997
 40
6.202054
 40
6.894110
 40
7.565641
 40
8.257698
 40
8.257698
 40
8.257698
 40
8.257698
 10
100.073508
 20
149.286141
 30
0.0
 10
100.064686
 20
149.170313
 30
0.0
 10
100.047113
 20
148.939617
 30
0.0
 10
99.908234
 20
148.616766
 30
0.0
 10
99.696942
 20
148.339387
 30
0.0
 10
99.419193
 20
148.126705
 30
0.0
 10
99.096442
 20
147.992975
 30
0.0
 10
98.749891
 20
147.947227
 30
0.0
 10
98.403375
 20
147.992976
 30
0.0
 10
98.080521
 20
148.126702
 30
0.0
 10
97.803153
 20
148.339398
 30
0.0
 10
97.590440
 20
148.616725
 30
0.0
 10
97.456836
 20
148.939769
 30
0.0
 10
97.395227
 20
149.400844
 30
0.0
 10
97.550599
 20
149.979799
 30
0.0
 10
98.056567
 20
150.485173
 30
0.0
 10
98.751098
 20
150.672915
 30
0.0
 10
99.438496
 20
150.485324
 30
0.0
 10
99.965442
 20
149.979209
 30
0.0
 10
100.037126
 20
149.519470
 30
0.0
 10
100.073508
 20
149.286141
 30
0.0
 11
100.073508
 21
149.286141
 31
0.0
 11
100.028163
 21
148.942631
 31
0.0
 11
99.896666
 21
148.625164
 31
0.0
 11
99.685835
 21
148.350199
 31
0.0
 11
99.410872
 21
148.139366
 31
0.0
 11
99.093407
 21
148.007867
 31
0.0
 11
98.749897
 21
147.962519
 31
0.0
 11
98.406388
 21
148.007867
 31
0.0
 11
98.088922
 21
148.139366
 31
0.0
 11
97.813959
 21
148.350199
 31
0.0
 11
97.603128
 21
148.625164
 31
0.0
 11
97.471631
 21
148.942631
 31
0.0
 11
97.426286
 21
149.286141
 31
0.0
 11
97.607003
 21
149.954186
 31
0.0
 11
98.081850
 21
150.429026
 31
0.0
 11
98.749897
 21
150.609735
 31
0.0
 11
99.417944
 21
150.429026
 31
0.0
 11
99.892791
 21
149.954186
 31
0.0
 11
100.073508
 21
149.286141
 31
0.0
  0
LINE
  5
199
100
AcDbEntity
  8
Capa_1
 62
7
100
AcDbLine
 10
112.573509
 20
163.786123
 30
0.0
 11
112.573509
 21
163.786123
 31
0.0
  0
SPLINE
  5
19a
100
AcDbEntity
  8
Capa_1
 62
7
100
AcDbSpline
 70
0
 71
3
 72
28
 73
24
 74
22
 40
0.000000
 40
0.000000
 40
0.000000
 40
0.000000
 40
0.346490
 40
0.690112
 40
1.036601
 40
1.383091
 40
1.726713
 40
2.073203
 40
2.419692
 40
2.763314
 40
3.109804
 40
3.456293
 40
3.799915
 40
4.146405
 40
4.838467
 40
5.510003
 40
6.202065
 40
6.548553
 40
6.892174
 40
7.238662
 40
7.585150
 40
7.928771
 40
8.275259
 40
8.275259
 40
8.275259
 40
8.275259
 10
112.573509
 20
163.786123
 30
0.0
 10
112.564686
 20
163.670296
 30
0.0
 10
112.547113
 20
163.439599
 30
0.0
 10
112.408234
 20
163.116749
 30
0.0
 10
112.196942
 20
162.839371
 30
0.0
 10
111.919192
 20
162.626689
 30
0.0
 10
111.596442
 20
162.492960
 30
0.0
 10
111.249892
 20
162.447212
 30
0.0
 10
110.903376
 20
162.492961
 30
0.0
 10
110.580522
 20
162.626686
 30
0.0
 10
110.303155
 20
162.839382
 30
0.0
 10
110.090441
 20
163.116709
 30
0.0
 10
109.956839
 20
163.439751
 30
0.0
 10
109.895218
 20
163.900834
 30
0.0
 10
110.050668
 20
164.479738
 30
0.0
 10
110.556287
 20
164.985351
 30
0.0
 10
111.135175
 20
165.140804
 30
0.0
 10
111.596289
 20
165.079180
 30
0.0
 10
111.919231
 20
164.945577
 30
0.0
 10
112.196928
 20
164.732863
 30
0.0
 10
112.408234
 20
164.455496
 30
0.0
 10
112.547110
 20
164.132645
 30
0.0
 10
112.564685
 20
163.901950
 30
0.0
 10
112.573509
 20
163.786123
 30
0.0
 11
112.573509
 21
163.786123
 31
0.0
 11
112.528163
 21
163.442614
 31
0.0
 11
112.396666
 21
163.125148
 31
0.0
 11
112.185835
 21
162.850184
 31
0.0
 11
111.910872
 21
162.639351
 31
0.0
 11
111.593407
 21
162.507852
 31
0.0
 11
111.249897
 21
162.462504
 31
0.0
 11
110.906388
 21
162.507852
 31
0.0
 11
110.588923
 21
162.639351
 31
0.0
 11
110.313960
 21
162.850184
 31
0.0
 11
110.103129
 21
163.125148
 31
0.0
 11
109.971632
 21
163.442614
 31
0.0
 11
109.926287
 21
163.786123
 31
0.0
 11
110.106998
 21
164.454175
 31
0.0
 11
110.581846
 21
164.929023
 31
0.0
 11
111.249897
 21
165.109734
 31
0.0
 11
111.593405
 21
165.064387
 31
0.0
 11
111.910870
 21
164.932889
 31
0.0
 11
112.185832
 21
164.722058
 31
0.0
 11
112.396663
 21
164.447095
 31
0.0
 11
112.528161
 21
164.129631
 31
0.0
 11
112.573509
 21
163.786123
 31
0.0
  0
LINE
  5
19b
100
AcDbEntity
  8
Capa_1
 62
7
100
AcDbLine
 10
197.299707
 20
66.674422
 30
0.0
 11
197.299707
 21
66.674422
 31
0.0
  0
SPLINE
  5
19c
100
AcDbEntity
  8
Capa_1
 62
7
100
AcDbSpline
 70
0
 71
3
 72
28
 73
24
 74
22
 40
0.000000
 40
0.000000
 40
0.000000
 40
0.000000
 40
0.477376
 40
0.950801
 40
1.428177
 40
1.905552
 40
2.378977
 40
2.856353
 40
3.333729
 40
3.807155
 40
4.284531
 40
4.761907
 40
5.235333
 40
5.712709
 40
6.190085
 40
6.663510
 40
7.140885
 40
7.618261
 40
8.091686
 40
8.569062
 40
9.522553
 40
10.447764
 40
11.401255
 40
11.401255
 40
11.401255
 40
11.401255
 10
197.299707
 20
66.674422
 30
0.0
 10
197.287551
 20
66.514841
 30
0.0
 10
197.263338
 20
66.196999
 30
0.0
 10
197.071996
 20
65.752193
 30
0.0
 10
196.780887
 20
65.370036
 30
0.0
 10
196.398218
 20
65.077015
 30
0.0
 10
195.953549
 20
64.892770
 30
0.0
 10
195.476089
 20
64.829742
 30
0.0
 10
194.998676
 20
64.892770
 30
0.0
 10
194.553867
 20
65.077014
 30
0.0
 10
194.171711
 20
65.370035
 30
0.0
 10
193.878689
 20
65.752193
 30
0.0
 10
193.694445
 20
66.196998
 30
0.0
 10
193.631417
 20
66.674422
 30
0.0
 10
193.694446
 20
67.151844
 30
0.0
 10
193.878689
 20
67.596653
 30
0.0
 10
194.171716
 20
67.978797
 30
0.0
 10
194.553852
 20
68.271862
 30
0.0
 10
194.998736
 20
68.455941
 30
0.0
 10
195.634926
 20
68.540809
 30
0.0
 10
196.425489
 20
68.326889
 30
0.0
 10
197.150657
 20
67.629239
 30
0.0
 10
197.249528
 20
66.995872
 30
0.0
 10
197.299707
 20
66.674422
 30
0.0
 11
197.299707
 21
66.674422
 31
0.0
 11
197.237230
 21
66.201152
 31
0.0
 11
197.056058
 21
65.763764
 31
0.0
 11
196.765585
 21
65.384933
 31
0.0
 11
196.386754
 21
65.094460
 31
0.0
 11
195.949367
 21
64.913287
 31
0.0
 11
195.476097
 21
64.850809
 31
0.0
 11
195.002827
 21
64.913287
 31
0.0
 11
194.565439
 21
65.094459
 31
0.0
 11
194.186608
 21
65.384932
 31
0.0
 11
193.896134
 21
65.763763
 31
0.0
 11
193.714962
 21
66.201152
 31
0.0
 11
193.652484
 21
66.674422
 31
0.0
 11
193.714963
 21
67.147691
 31
0.0
 11
193.896135
 21
67.585079
 31
0.0
 11
194.186609
 21
67.963909
 31
0.0
 11
194.565439
 21
68.254383
 31
0.0
 11
195.002827
 21
68.435554
 31
0.0
 11
195.476097
 21
68.498032
 31
0.0
 11
196.396508
 21
68.249055
 31
0.0
 11
197.050730
 21
67.594832
 31
0.0
 11
197.299707
 21
66.674422
 31
0.0
  0
LINE
  5
19d
100
AcDbEntity
  8
Capa_1
 62
7
100
AcDbLine
 10
15.956914
 20
145.036114
 30
0.0
 11
15.956914
 21
145.036114
 31
0.0
  0
SPLINE
  5
19e
100
AcDbEntity
  8
Capa_1
 62
7
100
AcDbSpline
 70
0
 71
3
 72
25
 73
21
 74
19
 40
0.000000
 40
0.000000
 40
0.000000
 40
0.000000
 40
0.953491
 40
1.878702
 40
2.832194
 40
3.785685
 40
4.710896
 40
5.664387
 40
6.141763
 40
6.615189
 40
7.092565
 40
7.569940
 40
8.043366
 40
8.520742
 40
8.998117
 40
9.471543
 40
9.948919
 40
10.426295
 40
10.899720
 40
11.377096
 40
11.377096
 40
11.377096
 40
11.377096
 10
15.956914
 20
145.036114
 30
0.0
 10
15.906792
 20
144.714641
 30
0.0
 10
15.808034
 20
144.081228
 30
0.0
 10
15.082030
 20
143.383915
 30
0.0
 10
14.134957
 20
143.125456
 30
0.0
 10
13.178056
 20
143.384123
 30
0.0
 10
12.480955
 20
144.080415
 30
0.0
 10
12.266899
 20
144.878080
 30
0.0
 10
12.351785
 20
145.513327
 30
0.0
 10
12.535860
 20
145.958400
 30
0.0
 10
12.828927
 20
146.340485
 30
0.0
 10
13.211071
 20
146.633526
 30
0.0
 10
13.655883
 20
146.817765
 30
0.0
 10
14.133295
 20
146.880795
 30
0.0
 10
14.610755
 20
146.817766
 30
0.0
 10
15.055424
 20
146.633522
 30
0.0
 10
15.438093
 20
146.340500
 30
0.0
 10
15.729202
 20
145.958343
 30
0.0
 10
15.920545
 20
145.513537
 30
0.0
 10
15.944757
 20
145.195695
 30
0.0
 10
15.956914
 20
145.036114
 30
0.0
 11
15.956914
 21
145.036114
 31
0.0
 11
15.707937
 21
144.115703
 31
0.0
 11
15.053714
 21
143.461481
 31
0.0
 11
14.133303
 21
143.212504
 31
0.0
 11
13.212892
 21
143.461481
 31
0.0
 11
12.558668
 21
144.115703
 31
0.0
 11
12.309692
 21
145.036114
 31
0.0
 11
12.372169
 21
145.509384
 31
0.0
 11
12.553341
 21
145.946772
 31
0.0
 11
12.843814
 21
146.325603
 31
0.0
 11
13.222645
 21
146.616077
 31
0.0
 11
13.660033
 21
146.797249
 31
0.0
 11
14.133303
 21
146.859727
 31
0.0
 11
14.606573
 21
146.797249
 31
0.0
 11
15.043960
 21
146.616077
 31
0.0
 11
15.422791
 21
146.325603
 31
0.0
 11
15.713265
 21
145.946772
 31
0.0
 11
15.894436
 21
145.509384
 31
0.0
 11
15.956914
 21
145.036114
 31
0.0
  0
LINE
  5
19f
100
AcDbEntity
  8
Capa_1
 62
7
100
AcDbLine
 10
15.956914
 20
63.672054
 30
0.0
 11
15.956914
 21
63.672054
 31
0.0
  0
SPLINE
  5
1a0
100
AcDbEntity
  8
Capa_1
 62
7
100
AcDbSpline
 70
0
 71
3
 72
25
 73
21
 74
19
 40
0.000000
 40
0.000000
 40
0.000000
 40
0.000000
 40
0.953491
 40
1.878702
 40
2.832194
 40
3.785685
 40
4.710896
 40
5.664387
 40
6.141763
 40
6.615189
 40
7.092565
 40
7.569940
 40
8.043366
 40
8.520742
 40
8.998117
 40
9.471543
 40
9.948919
 40
10.426295
 40
10.899720
 40
11.377096
 40
11.377096
 40
11.377096
 40
11.377096
 10
15.956914
 20
63.672054
 30
0.0
 10
15.906792
 20
63.350581
 30
0.0
 10
15.808034
 20
62.717168
 30
0.0
 10
15.082030
 20
62.019855
 30
0.0
 10
14.134957
 20
61.761396
 30
0.0
 10
13.178056
 20
62.020063
 30
0.0
 10
12.480955
 20
62.716355
 30
0.0
 10
12.266899
 20
63.514020
 30
0.0
 10
12.351785
 20
64.149267
 30
0.0
 10
12.535860
 20
64.594340
 30
0.0
 10
12.828927
 20
64.976425
 30
0.0
 10
13.211071
 20
65.269466
 30
0.0
 10
13.655883
 20
65.453705
 30
0.0
 10
14.133295
 20
65.516735
 30
0.0
 10
14.610755
 20
65.453706
 30
0.0
 10
15.055424
 20
65.269462
 30
0.0
 10
15.438093
 20
64.976440
 30
0.0
 10
15.729202
 20
64.594283
 30
0.0
 10
15.920545
 20
64.149477
 30
0.0
 10
15.944757
 20
63.831636
 30
0.0
 10
15.956914
 20
63.672054
 30
0.0
 11
15.956914
 21
63.672054
 31
0.0
 11
15.707937
 21
62.751643
 31
0.0
 11
15.053714
 21
62.097421
 31
0.0
 11
14.133303
 21
61.848444
 31
0.0
 11
13.212892
 21
62.097421
 31
0.0
 11
12.558668
 21
62.751643
 31
0.0
 11
12.309692
 21
63.672054
 31
0.0
 11
12.372169
 21
64.145324
 31
0.0
 11
12.553341
 21
64.582712
 31
0.0
 11
12.843814
 21
64.961543
 31
0.0
 11
13.222645
 21
65.252017
 31
0.0
 11
13.660033
 21
65.433189
 31
0.0
 11
14.133303
 21
65.495667
 31
0.0
 11
14.606573
 21
65.433189
 31
0.0
 11
15.043960
 21
65.252017
 31
0.0
 11
15.422791
 21
64.961543
 31
0.0
 11
15.713265
 21
64.582712
 31
0.0
 11
15.894436
 21
64.145324
 31
0.0
 11
15.956914
 21
63.672054
 31
0.0
  0
LINE
  5
1a1
100
AcDbEntity
  8
Capa_1
 62
7
100
AcDbLine
 10
197.299707
 20
145.036114
 30
0.0
 11
197.299707
 21
145.036114
 31
0.0
  0
LINE
  5
1a2
100
AcDbEntity
  8
Capa_1
 62
1
100
AcDbLine
 10
6.443328
 20
104.520698
 30
0.0
 11
62.241105
 21
104.520698
 31
0.0
  0
LINE
  5
1a3
100
AcDbEntity
  8
Capa_1
 62
1
100
AcDbLine
 10
62.241105
 20
104.520698
 30
0.0
 11
62.241105
 21
94.802920
 31
0.0
  0
LINE
  5
1a4
100
AcDbEntity
  8
Capa_1
 62
1
100
AcDbLine
 10
62.241105
 20
94.802920
 30
0.0
 11
6.443328
 21
94.802920
 31
0.0
  0
LINE
  5
1a5
100
AcDbEntity
  8
Capa_1
 62
1
100
AcDbLine
 10
6.443328
 20
94.802920
 30
0.0
 11
6.443328
 21
104.520698
 31
0.0
  0
SPLINE
  5
1a6
100
AcDbEntity
  8
Capa_1
 62
7
100
AcDbSpline
 70
0
 71
3
 72
28
 73
24
 74
22
 40
0.000000
 40
0.000000
 40
0.000000
 40
0.000000
 40
0.953491
 40
1.878702
 40
2.832193
 40
3.309568
 40
3.782993
 40
4.260369
 40
4.737745
 40
5.211170
 40
5.688546
 40
6.165922
 40
6.639347
 40
7.116724
 40
7.594100
 40
8.067525
 40
8.544902
 40
9.022277
 40
9.495702
 40
9.973078
 40
10.450454
 40
10.923879
 40
11.401255
 40
11.401255
 40
11.401255
 40
11.401255
 10
197.299707
 20
145.036114
 30
0.0
 10
197.249528
 20
144.714664
 30
0.0
 10
197.150657
 20
144.081297
 30
0.0
 10
196.425489
 20
143.383647
 30
0.0
 10
195.634926
 20
143.169727
 30
0.0
 10
194.998736
 20
143.254595
 30
0.0
 10
194.553852
 20
143.438674
 30
0.0
 10
194.171716
 20
143.731739
 30
0.0
 10
193.878689
 20
144.113884
 30
0.0
 10
193.694446
 20
144.558692
 30
0.0
 10
193.631417
 20
145.036114
 30
0.0
 10
193.694445
 20
145.513538
 30
0.0
 10
193.878689
 20
145.958344
 30
0.0
 10
194.171711
 20
146.340501
 30
0.0
 10
194.553867
 20
146.633522
 30
0.0
 10
194.998676
 20
146.817767
 30
0.0
 10
195.476089
 20
146.880795
 30
0.0
 10
195.953549
 20
146.817766
 30
0.0
 10
196.398218
 20
146.633521
 30
0.0
 10
196.780887
 20
146.340500
 30
0.0
 10
197.071996
 20
145.958343
 30
0.0
 10
197.263338
 20
145.513537
 30
0.0
 10
197.287551
 20
145.195695
 30
0.0
 10
197.299707
 20
145.036114
 30
0.0
 11
197.299707
 21
145.036114
 31
0.0
 11
197.050730
 21
144.115704
 31
0.0
 11
196.396508
 21
143.461481
 31
0.0
 11
195.476097
 21
143.212504
 31
0.0
 11
195.002827
 21
143.274982
 31
0.0
 11
194.565439
 21
143.456153
 31
0.0
 11
194.186609
 21
143.746627
 31
0.0
 11
193.896135
 21
144.125457
 31
0.0
 11
193.714963
 21
144.562845
 31
0.0
 11
193.652484
 21
145.036114
 31
0.0
 11
193.714962
 21
145.509384
 31
0.0
 11
193.896134
 21
145.946773
 31
0.0
 11
194.186608
 21
146.325604
 31
0.0
 11
194.565439
 21
146.616077
 31
0.0
 11
195.002827
 21
146.797249
 31
0.0
 11
195.476097
 21
146.859727
 31
0.0
 11
195.949367
 21
146.797249
 31
0.0
 11
196.386754
 21
146.616077
 31
0.0
 11
196.765585
 21
146.325603
 31
0.0
 11
197.056058
 21
145.946772
 31
0.0
 11
197.237230
 21
145.509384
 31
0.0
 11
197.299707
 21
145.036114
 31
0.0
  0
LINE
  5
1a7
100
AcDbEntity
  8
Capa_1
 62
7
100
AcDbLine
 10
10.148338
 20
97.125533
 30
0.0
 11
10.148338
 21
97.125533
 31
0.0
  0
SPLINE
  5
1a8
100
AcDbEntity
  8
Capa_1
 62
7
100
AcDbSpline
 70
0
 71
3
 72
25
 73
21
 74
19
 40
0.000000
 40
0.000000
 40
0.000000
 40
0.000000
 40
0.281048
 40
0.559769
 40
0.840817
 40
1.121864
 40
1.400586
 40
1.681633
 40
1.962681
 40
2.241403
 40
2.522450
 40
2.803498
 40
3.082219
 40
3.363267
 40
3.924611
 40
4.469306
 40
5.030650
 40
5.591995
 40
6.136690
 40
6.698034
 40
6.698034
 40
6.698034
 40
6.698034
 10
10.148338
 20
97.125533
 30
0.0
 10
10.141182
 20
97.031582
 30
0.0
 10
10.126931
 20
96.844457
 30
0.0
 10
10.014284
 20
96.582583
 30
0.0
 10
9.842900
 20
96.357593
 30
0.0
 10
9.617611
 20
96.185079
 30
0.0
 10
9.355819
 20
96.076607
 30
0.0
 10
9.074722
 20
96.039499
 30
0.0
 10
8.793653
 20
96.076608
 30
0.0
 10
8.531778
 20
96.185077
 30
0.0
 10
8.306798
 20
96.357602
 30
0.0
 10
8.134261
 20
96.582550
 30
0.0
 10
8.025893
 20
96.844581
 30
0.0
 10
7.975925
 20
97.218571
 30
0.0
 10
8.101946
 20
97.688176
 30
0.0
 10
8.512349
 20
98.098099
 30
0.0
 10
9.075701
 20
98.250382
 30
0.0
 10
9.633266
 20
98.098221
 30
0.0
 10
10.060684
 20
97.687698
 30
0.0
 10
10.118828
 20
97.314792
 30
0.0
 10
10.148338
 20
97.125533
 30
0.0
 11
10.148338
 21
97.125533
 31
0.0
 11
10.111559
 21
96.846902
 31
0.0
 11
10.004900
 21
96.589395
 31
0.0
 11
9.833891
 21
96.366363
 31
0.0
 11
9.610862
 21
96.195350
 31
0.0
 11
9.353357
 21
96.088686
 31
0.0
 11
9.074727
 21
96.051903
 31
0.0
 11
8.796097
 21
96.088686
 31
0.0
 11
8.538592
 21
96.195350
 31
0.0
 11
8.315562
 21
96.366363
 31
0.0
 11
8.144553
 21
96.589395
 31
0.0
 11
8.037894
 21
96.846902
 31
0.0
 11
8.001116
 21
97.125533
 31
0.0
 11
8.147698
 21
97.667401
 31
0.0
 11
8.532857
 21
98.052557
 31
0.0
 11
9.074727
 21
98.199134
 31
0.0
 11
9.616596
 21
98.052557
 31
0.0
 11
10.001755
 21
97.667401
 31
0.0
 11
10.148338
 21
97.125533
 31
0.0
  0
LINE
  5
1a9
100
AcDbEntity
  8
Capa_1
 62
7
100
AcDbLine
 10
60.948339
 20
97.125533
 30
0.0
 11
60.948339
 21
97.125533
 31
0.0
  0
LINE
  5
1aa
100
AcDbEntity
  8
Capa_1
 62
1
100
AcDbLine
 10
147.328261
 20
104.815340
 30
0.0
 11
203.126038
 21
104.815340
 31
0.0
  0
LINE
  5
1ab
100
AcDbEntity
  8
Capa_1
 62
1
100
AcDbLine
 10
203.126038
 20
104.815340
 30
0.0
 11
203.126038
 21
95.097562
 31
0.0
  0
LINE
  5
1ac
100
AcDbEntity
  8
Capa_1
 62
1
100
AcDbLine
 10
203.126038
 20
95.097562
 30
0.0
 11
147.328261
 21
95.097562
 31
0.0
  0
LINE
  5
1ad
100
AcDbEntity
  8
Capa_1
 62
1
100
AcDbLine
 10
147.328261
 20
95.097562
 30
0.0
 11
147.328261
 21
104.815340
 31
0.0
  0
SPLINE
  5
1ae
100
AcDbEntity
  8
Capa_1
 62
7
100
AcDbSpline
 70
0
 71
3
 72
25
 73
21
 74
19
 40
0.000000
 40
0.000000
 40
0.000000
 40
0.000000
 40
0.281047
 40
0.559769
 40
0.840816
 40
1.121864
 40
1.400585
 40
1.681632
 40
1.962680
 40
2.241402
 40
2.522450
 40
2.803498
 40
3.082220
 40
3.363268
 40
3.924613
 40
4.469308
 40
5.030653
 40
5.591997
 40
6.136691
 40
6.698035
 40
6.698035
 40
6.698035
 40
6.698035
 10
60.948339
 20
97.125533
 30
0.0
 10
60.941183
 20
97.031582
 30
0.0
 10
60.926931
 20
96.844457
 30
0.0
 10
60.814285
 20
96.582584
 30
0.0
 10
60.642901
 20
96.357593
 30
0.0
 10
60.417612
 20
96.185080
 30
0.0
 10
60.155821
 20
96.076607
 30
0.0
 10
59.874724
 20
96.039499
 30
0.0
 10
59.593655
 20
96.076607
 30
0.0
 10
59.331779
 20
96.185076
 30
0.0
 10
59.106798
 20
96.357601
 30
0.0
 10
58.934262
 20
96.582549
 30
0.0
 10
58.825893
 20
96.844580
 30
0.0
 10
58.775925
 20
97.218571
 30
0.0
 10
58.901946
 20
97.688177
 30
0.0
 10
59.312350
 20
98.098099
 30
0.0
 10
59.875702
 20
98.250381
 30
0.0
 10
60.433268
 20
98.098221
 30
0.0
 10
60.860685
 20
97.687697
 30
0.0
 10
60.918829
 20
97.314792
 30
0.0
 10
60.948339
 20
97.125533
 30
0.0
 11
60.948339
 21
97.125533
 31
0.0
 11
60.911560
 21
96.846902
 31
0.0
 11
60.804901
 21
96.589396
 31
0.0
 11
60.633892
 21
96.366363
 31
0.0
 11
60.410863
 21
96.195350
 31
0.0
 11
60.153358
 21
96.088686
 31
0.0
 11
59.874729
 21
96.051903
 31
0.0
 11
59.596098
 21
96.088686
 31
0.0
 11
59.338593
 21
96.195349
 31
0.0
 11
59.115563
 21
96.366362
 31
0.0
 11
58.944553
 21
96.589395
 31
0.0
 11
58.837894
 21
96.846902
 31
0.0
 11
58.801116
 21
97.125533
 31
0.0
 11
58.947699
 21
97.667401
 31
0.0
 11
59.332859
 21
98.052557
 31
0.0
 11
59.874729
 21
98.199134
 31
0.0
 11
60.416597
 21
98.052556
 31
0.0
 11
60.801756
 21
97.667400
 31
0.0
 11
60.948339
 21
97.125533
 31
0.0
  0
LINE
  5
1af
100
AcDbEntity
  8
Capa_1
 62
7
100
AcDbLine
 10
151.033270
 20
97.420175
 30
0.0
 11
151.033270
 21
97.420175
 31
0.0
  0
SPLINE
  5
1b0
100
AcDbEntity
  8
Capa_1
 62
7
100
AcDbSpline
 70
0
 71
3
 72
25
 73
21
 74
19
 40
0.000000
 40
0.000000
 40
0.000000
 40
0.000000
 40
0.281048
 40
0.559769
 40
0.840817
 40
1.121864
 40
1.400586
 40
1.681633
 40
1.962681
 40
2.241403
 40
2.522450
 40
2.803498
 40
3.082219
 40
3.363267
 40
3.924611
 40
4.469306
 40
5.030650
 40
5.591995
 40
6.136690
 40
6.698034
 40
6.698034
 40
6.698034
 40
6.698034
 10
151.033270
 20
97.420175
 30
0.0
 10
151.026115
 20
97.326224
 30
0.0
 10
151.011863
 20
97.139099
 30
0.0
 10
150.899216
 20
96.877225
 30
0.0
 10
150.727833
 20
96.652235
 30
0.0
 10
150.502543
 20
96.479722
 30
0.0
 10
150.240752
 20
96.371249
 30
0.0
 10
149.959655
 20
96.334142
 30
0.0
 10
149.678586
 20
96.371250
 30
0.0
 10
149.416710
 20
96.479719
 30
0.0
 10
149.191730
 20
96.652244
 30
0.0
 10
149.019194
 20
96.877192
 30
0.0
 10
148.910826
 20
97.139223
 30
0.0
 10
148.860857
 20
97.513213
 30
0.0
 10
148.986879
 20
97.982818
 30
0.0
 10
149.397282
 20
98.392741
 30
0.0
 10
149.960633
 20
98.545024
 30
0.0
 10
150.518199
 20
98.392863
 30
0.0
 10
150.945617
 20
97.982340
 30
0.0
 10
151.003761
 20
97.609434
 30
0.0
 10
151.033270
 20
97.420175
 30
0.0
 11
151.033270
 21
97.420175
 31
0.0
 11
150.996492
 21
97.141544
 31
0.0
 11
150.889833
 21
96.884038
 31
0.0
 11
150.718824
 21
96.661005
 31
0.0
 11
150.495794
 21
96.489992
 31
0.0
 11
150.238289
 21
96.383329
 31
0.0
 11
149.959659
 21
96.346545
 31
0.0
 11
149.681029
 21
96.383329
 31
0.0
 11
149.423524
 21
96.489992
 31
0.0
 11
149.200495
 21
96.661005
 31
0.0
 11
149.029486
 21
96.884038
 31
0.0
 11
148.922827
 21
97.141544
 31
0.0
 11
148.886048
 21
97.420175
 31
0.0
 11
149.032631
 21
97.962043
 31
0.0
 11
149.417790
 21
98.347199
 31
0.0
 11
149.959659
 21
98.493777
 31
0.0
 11
150.501528
 21
98.347199
 31
0.0
 11
150.886688
 21
97.962043
 31
0.0
 11
151.033270
 21
97.420175
 31
0.0
  0
LINE
  5
1b1
100
AcDbEntity
  8
Capa_1
 62
7
100
AcDbLine
 10
201.833271
 20
97.420175
 30
0.0
 11
201.833271
 21
97.420175
 31
0.0
  0
LINE
  5
1b2
100
AcDbEntity
  8
Capa_1
 62
1
100
AcDbLine
 10
105.358954
 20
178.552425
 30
0.0
 11
105.358954
 21
122.754647
 31
0.0
  0
LINE
  5
1b3
100
AcDbEntity
  8
Capa_1
 62
1
100
AcDbLine
 10
105.358954
 20
122.754647
 30
0.0
 11
95.641177
 21
122.754647
 31
0.0
  0
LINE
  5
1b4
100
AcDbEntity
  8
Capa_1
 62
1
100
AcDbLine
 10
95.641177
 20
122.754647
 30
0.0
 11
95.641177
 21
178.552425
 31
0.0
  0
LINE
  5
1b5
100
AcDbEntity
  8
Capa_1
 62
1
100
AcDbLine
 10
95.641177
 20
178.552425
 30
0.0
 11
105.358954
 21
178.552425
 31
0.0
  0
SPLINE
  5
1b6
100
AcDbEntity
  8
Capa_1
 62
7
100
AcDbSpline
 70
0
 71
3
 72
25
 73
21
 74
19
 40
0.000000
 40
0.000000
 40
0.000000
 40
0.000000
 40
0.281047
 40
0.559769
 40
0.840816
 40
1.121864
 40
1.400585
 40
1.681632
 40
1.962680
 40
2.241402
 40
2.522450
 40
2.803498
 40
3.082220
 40
3.363268
 40
3.924613
 40
4.469308
 40
5.030653
 40
5.591997
 40
6.136691
 40
6.698035
 40
6.698035
 40
6.698035
 40
6.698035
 10
201.833271
 20
97.420175
 30
0.0
 10
201.826116
 20
97.326224
 30
0.0
 10
201.811864
 20
97.139099
 30
0.0
 10
201.699217
 20
96.877226
 30
0.0
 10
201.527834
 20
96.652235
 30
0.0
 10
201.302545
 20
96.479722
 30
0.0
 10
201.040753
 20
96.371250
 30
0.0
 10
200.759656
 20
96.334142
 30
0.0
 10
200.478587
 20
96.371250
 30
0.0
 10
200.216711
 20
96.479719
 30
0.0
 10
199.991731
 20
96.652243
 30
0.0
 10
199.819194
 20
96.877192
 30
0.0
 10
199.710826
 20
97.139223
 30
0.0
 10
199.660857
 20
97.513213
 30
0.0
 10
199.786879
 20
97.982819
 30
0.0
 10
200.197283
 20
98.392742
 30
0.0
 10
200.760635
 20
98.545024
 30
0.0
 10
201.318200
 20
98.392863
 30
0.0
 10
201.745618
 20
97.982339
 30
0.0
 10
201.803762
 20
97.609434
 30
0.0
 10
201.833271
 20
97.420175
 30
0.0
 11
201.833271
 21
97.420175
 31
0.0
 11
201.796493
 21
97.141544
 31
0.0
 11
201.689834
 21
96.884038
 31
0.0
 11
201.518825
 21
96.661006
 31
0.0
 11
201.295796
 21
96.489992
 31
0.0
 11
201.038291
 21
96.383329
 31
0.0
 11
200.759661
 21
96.346545
 31
0.0
 11
200.481031
 21
96.383328
 31
0.0
 11
200.223526
 21
96.489991
 31
0.0
 11
200.000496
 21
96.661005
 31
0.0
 11
199.829486
 21
96.884037
 31
0.0
 11
199.722827
 21
97.141544
 31
0.0
 11
199.686048
 21
97.420175
 31
0.0
 11
199.832631
 21
97.962043
 31
0.0
 11
200.217791
 21
98.347199
 31
0.0
 11
200.759661
 21
98.493777
 31
0.0
 11
201.301530
 21
98.347198
 31
0.0
 11
201.686689
 21
97.962043
 31
0.0
 11
201.833271
 21
97.420175
 31
0.0
  0
LINE
  5
1b7
100
AcDbEntity
  8
Capa_1
 62
7
100
AcDbLine
 10
97.963790
 20
174.847415
 30
0.0
 11
97.963790
 21
174.847415
 31
0.0
  0
SPLINE
  5
1b8
100
AcDbEntity
  8
Capa_1
 62
7
100
AcDbSpline
 70
0
 71
3
 72
25
 73
21
 74
19
 40
0.000000
 40
0.000000
 40
0.000000
 40
0.000000
 40
0.281048
 40
0.559769
 40
0.840817
 40
1.121864
 40
1.400586
 40
1.681633
 40
1.962681
 40
2.241403
 40
2.522450
 40
2.803498
 40
3.082219
 40
3.363267
 40
3.924611
 40
4.469306
 40
5.030650
 40
5.591995
 40
6.136690
 40
6.698034
 40
6.698034
 40
6.698034
 40
6.698034
 10
97.963790
 20
174.847415
 30
0.0
 10
97.869839
 20
174.854570
 30
0.0
 10
97.682714
 20
174.868822
 30
0.0
 10
97.420840
 20
174.981469
 30
0.0
 10
97.195849
 20
175.152853
 30
0.0
 10
97.023336
 20
175.378142
 30
0.0
 10
96.914864
 20
175.639934
 30
0.0
 10
96.877756
 20
175.921031
 30
0.0
 10
96.914865
 20
176.202100
 30
0.0
 10
97.023334
 20
176.463975
 30
0.0
 10
97.195858
 20
176.688955
 30
0.0
 10
97.420807
 20
176.861491
 30
0.0
 10
97.682838
 20
176.969860
 30
0.0
 10
98.056827
 20
177.019828
 30
0.0
 10
98.526433
 20
176.893807
 30
0.0
 10
98.936356
 20
176.483404
 30
0.0
 10
99.088638
 20
175.920052
 30
0.0
 10
98.936478
 20
175.362487
 30
0.0
 10
98.525954
 20
174.935068
 30
0.0
 10
98.153049
 20
174.876925
 30
0.0
 10
97.963790
 20
174.847415
 30
0.0
 11
97.963790
 21
174.847415
 31
0.0
 11
97.685159
 21
174.884193
 31
0.0
 11
97.427652
 21
174.990852
 31
0.0
 11
97.204620
 21
175.161862
 31
0.0
 11
97.033606
 21
175.384891
 31
0.0
 11
96.926943
 21
175.642396
 31
0.0
 11
96.890160
 21
175.921026
 31
0.0
 11
96.926943
 21
176.199656
 31
0.0
 11
97.033606
 21
176.457161
 31
0.0
 11
97.204620
 21
176.680190
 31
0.0
 11
97.427652
 21
176.851200
 31
0.0
 11
97.685159
 21
176.957859
 31
0.0
 11
97.963790
 21
176.994637
 31
0.0
 11
98.505658
 21
176.848054
 31
0.0
 11
98.890813
 21
176.462895
 31
0.0
 11
99.037391
 21
175.921026
 31
0.0
 11
98.890813
 21
175.379157
 31
0.0
 11
98.505658
 21
174.993998
 31
0.0
 11
97.963790
 21
174.847415
 31
0.0
  0
LINE
  5
1b9
100
AcDbEntity
  8
Capa_1
 62
7
100
AcDbLine
 10
97.963790
 20
124.047414
 30
0.0
 11
97.963790
 21
124.047414
 31
0.0
  0
LINE
  5
1ba
100
AcDbEntity
  8
Capa_1
 62
1
100
AcDbLine
 10
104.800098
 20
63.590210
 30
0.0
 11
104.800098
 21
7.792433
 31
0.0
  0
LINE
  5
1bb
100
AcDbEntity
  8
Capa_1
 62
1
100
AcDbLine
 10
104.800098
 20
7.792433
 30
0.0
 11
95.082320
 21
7.792433
 31
0.0
  0
LINE
  5
1bc
100
AcDbEntity
  8
Capa_1
 62
1
100
AcDbLine
 10
95.082320
 20
7.792433
 30
0.0
 11
95.082320
 21
63.590210
 31
0.0
  0
LINE
  5
1bd
100
AcDbEntity
  8
Capa_1
 62
1
100
AcDbLine
 10
95.082320
 20
63.590210
 30
0.0
 11
104.800098
 21
63.590210
 31
0.0
  0
SPLINE
  5
1be
100
AcDbEntity
  8
Capa_1
 62
7
100
AcDbSpline
 70
0
 71
3
 72
25
 73
21
 74
19
 40
0.000000
 40
0.000000
 40
0.000000
 40
0.000000
 40
0.281047
 40
0.559769
 40
0.840816
 40
1.121864
 40
1.400585
 40
1.681632
 40
1.962680
 40
2.241402
 40
2.522450
 40
2.803498
 40
3.082220
 40
3.363268
 40
3.924613
 40
4.469308
 40
5.030653
 40
5.591997
 40
6.136691
 40
6.698035
 40
6.698035
 40
6.698035
 40
6.698035
 10
97.963790
 20
124.047414
 30
0.0
 10
97.869839
 20
124.054570
 30
0.0
 10
97.682714
 20
124.068821
 30
0.0
 10
97.420840
 20
124.181468
 30
0.0
 10
97.195850
 20
124.352851
 30
0.0
 10
97.023336
 20
124.578141
 30
0.0
 10
96.914864
 20
124.839932
 30
0.0
 10
96.877756
 20
125.121029
 30
0.0
 10
96.914864
 20
125.402098
 30
0.0
 10
97.023333
 20
125.663974
 30
0.0
 10
97.195858
 20
125.888954
 30
0.0
 10
97.420806
 20
126.061491
 30
0.0
 10
97.682837
 20
126.169859
 30
0.0
 10
98.056828
 20
126.219828
 30
0.0
 10
98.526434
 20
126.093806
 30
0.0
 10
98.936356
 20
125.683402
 30
0.0
 10
99.088638
 20
125.120050
 30
0.0
 10
98.936478
 20
124.562485
 30
0.0
 10
98.525954
 20
124.135068
 30
0.0
 10
98.153049
 20
124.076924
 30
0.0
 10
97.963790
 20
124.047414
 30
0.0
 11
97.963790
 21
124.047414
 31
0.0
 11
97.685159
 21
124.084193
 31
0.0
 11
97.427653
 21
124.190851
 31
0.0
 11
97.204620
 21
124.361861
 31
0.0
 11
97.033607
 21
124.584890
 31
0.0
 11
96.926943
 21
124.842394
 31
0.0
 11
96.890160
 21
125.121024
 31
0.0
 11
96.926943
 21
125.399655
 31
0.0
 11
97.033606
 21
125.657160
 31
0.0
 11
97.204619
 21
125.880190
 31
0.0
 11
97.427652
 21
126.051199
 31
0.0
 11
97.685159
 21
126.157858
 31
0.0
 11
97.963790
 21
126.194637
 31
0.0
 11
98.505658
 21
126.048054
 31
0.0
 11
98.890814
 21
125.662894
 31
0.0
 11
99.037391
 21
125.121024
 31
0.0
 11
98.890813
 21
124.579155
 31
0.0
 11
98.505657
 21
124.193997
 31
0.0
 11
97.963790
 21
124.047414
 31
0.0
  0
LINE
  5
1bf
100
AcDbEntity
  8
Capa_1
 62
7
100
AcDbLine
 10
97.404933
 20
59.885200
 30
0.0
 11
97.404933
 21
59.885200
 31
0.0
  0
SPLINE
  5
1c0
100
AcDbEntity
  8
Capa_1
 62
7
100
AcDbSpline
 70
0
 71
3
 72
25
 73
21
 74
19
 40
0.000000
 40
0.000000
 40
0.000000
 40
0.000000
 40
0.281048
 40
0.559769
 40
0.840817
 40
1.121864
 40
1.400586
 40
1.681633
 40
1.962681
 40
2.241403
 40
2.522450
 40
2.803498
 40
3.082219
 40
3.363267
 40
3.924611
 40
4.469306
 40
5.030650
 40
5.591995
 40
6.136690
 40
6.698034
 40
6.698034
 40
6.698034
 40
6.698034
 10
97.404933
 20
59.885200
 30
0.0
 10
97.310982
 20
59.892356
 30
0.0
 10
97.123857
 20
59.906607
 30
0.0
 10
96.861984
 20
60.019254
 30
0.0
 10
96.636993
 20
60.190638
 30
0.0
 10
96.464480
 20
60.415927
 30
0.0
 10
96.356008
 20
60.677719
 30
0.0
 10
96.318900
 20
60.958816
 30
0.0
 10
96.356008
 20
61.239885
 30
0.0
 10
96.464477
 20
61.501760
 30
0.0
 10
96.637002
 20
61.726740
 30
0.0
 10
96.861950
 20
61.899277
 30
0.0
 10
97.123981
 20
62.007645
 30
0.0
 10
97.497971
 20
62.057613
 30
0.0
 10
97.967577
 20
61.931592
 30
0.0
 10
98.377499
 20
61.521189
 30
0.0
 10
98.529782
 20
60.957837
 30
0.0
 10
98.377621
 20
60.400272
 30
0.0
 10
97.967098
 20
59.972854
 30
0.0
 10
97.594193
 20
59.914710
 30
0.0
 10
97.404933
 20
59.885200
 30
0.0
 11
97.404933
 21
59.885200
 31
0.0
 11
97.126302
 21
59.921979
 31
0.0
 11
96.868796
 21
60.028638
 31
0.0
 11
96.645763
 21
60.199647
 31
0.0
 11
96.474750
 21
60.422676
 31
0.0
 11
96.368087
 21
60.680181
 31
0.0
 11
96.331303
 21
60.958811
 31
0.0
 11
96.368087
 21
61.237441
 31
0.0
 11
96.474750
 21
61.494946
 31
0.0
 11
96.645763
 21
61.717976
 31
0.0
 11
96.868796
 21
61.888985
 31
0.0
 11
97.126302
 21
61.995644
 31
0.0
 11
97.404933
 21
62.032422
 31
0.0
 11
97.946801
 21
61.885840
 31
0.0
 11
98.331957
 21
61.500681
 31
0.0
 11
98.478535
 21
60.958811
 31
0.0
 11
98.331957
 21
60.416942
 31
0.0
 11
97.946801
 21
60.031783
 31
0.0
 11
97.404933
 21
59.885200
 31
0.0
  0
LINE
  5
1c1
100
AcDbEntity
  8
Capa_1
 62
7
100
AcDbLine
 10
97.404933
 20
9.085199
 30
0.0
 11
97.404933
 21
9.085199
 31
0.0
  0
SPLINE
  5
1c2
100
AcDbEntity
  8
Capa_1
 62
7
100
AcDbSpline
 70
0
 71
3
 72
25
 73
21
 74
19
 40
0.000000
 40
0.000000
 40
0.000000
 40
0.000000
 40
0.281047
 40
0.559769
 40
0.840816
 40
1.121864
 40
1.400585
 40
1.681632
 40
1.962680
 40
2.241402
 40
2.522450
 40
2.803498
 40
3.082220
 40
3.363268
 40
3.924613
 40
4.469308
 40
5.030653
 40
5.591997
 40
6.136691
 40
6.698035
 40
6.698035
 40
6.698035
 40
6.698035
 10
97.404933
 20
9.085199
 30
0.0
 10
97.310982
 20
9.092355
 30
0.0
 10
97.123858
 20
9.106607
 30
0.0
 10
96.861984
 20
9.219253
 30
0.0
 10
96.636993
 20
9.390637
 30
0.0
 10
96.464480
 20
9.615926
 30
0.0
 10
96.356008
 20
9.877717
 30
0.0
 10
96.318900
 20
10.158814
 30
0.0
 10
96.356008
 20
10.439883
 30
0.0
 10
96.464477
 20
10.701759
 30
0.0
 10
96.637001
 20
10.926740
 30
0.0
 10
96.861950
 20
11.099276
 30
0.0
 10
97.123981
 20
11.207645
 30
0.0
 10
97.497971
 20
11.257613
 30
0.0
 10
97.967577
 20
11.131592
 30
0.0
 10
98.377500
 20
10.721188
 30
0.0
 10
98.529782
 20
10.157836
 30
0.0
 10
98.377621
 20
9.600270
 30
0.0
 10
97.967098
 20
9.172853
 30
0.0
 10
97.594192
 20
9.114709
 30
0.0
 10
97.404933
 20
9.085199
 30
0.0
 11
97.404933
 21
9.085199
 31
0.0
 11
97.126303
 21
9.121978
 31
0.0
 11
96.868796
 21
9.228637
 31
0.0
 11
96.645764
 21
9.399646
 31
0.0
 11
96.474750
 21
9.622675
 31
0.0
 11
96.368087
 21
9.880180
 31
0.0
 11
96.331303
 21
10.158809
 31
0.0
 11
96.368086
 21
10.437440
 31
0.0
 11
96.474749
 21
10.694945
 31
0.0
 11
96.645763
 21
10.917975
 31
0.0
 11
96.868795
 21
11.088985
 31
0.0
 11
97.126302
 21
11.195644
 31
0.0
 11
97.404933
 21
11.232422
 31
0.0
 11
97.946802
 21
11.085839
 31
0.0
 11
98.331958
 21
10.700679
 31
0.0
 11
98.478535
 21
10.158809
 31
0.0
 11
98.331957
 21
9.616941
 31
0.0
 11
97.946801
 21
9.231782
 31
0.0
 11
97.404933
 21
9.085199
 31
0.0
  0
ENDSEC
  0
SECTION
  2
OBJECTS
  0
DICTIONARY
  5
C
330
0
100
AcDbDictionary
  3
ACAD_GROUP
350
D
  3
ACAD_MLINESTYLE
350
17
  0
DICTIONARY
  5
D
330
C
100
AcDbDictionary
  0
DICTIONARY
  5
1A
330
C
100
AcDbDictionary
  0
DICTIONARY
  5
17
330
C
100
AcDbDictionary
  3
STANDARD
350
18
  0
DICTIONARY
  5
19
330
C
100
AcDbDictionary
  0
ENDSEC
  0
EOF
