<?xml version="1.0" encoding="UTF-8" standalone="no"?>
<svg
   xmlns:dc="http://purl.org/dc/elements/1.1/"
   xmlns:cc="http://creativecommons.org/ns#"
   xmlns:rdf="http://www.w3.org/1999/02/22-rdf-syntax-ns#"
   xmlns:svg="http://www.w3.org/2000/svg"
   xmlns="http://www.w3.org/2000/svg"
   xmlns:sodipodi="http://sodipodi.sourceforge.net/DTD/sodipodi-0.dtd"
   xmlns:inkscape="http://www.inkscape.org/namespaces/inkscape"
   width="353.83997"
   height="131.0271"
   id="svg3336"
   version="1.1"
   inkscape:version="0.91 r13725"
   sodipodi:docname="Alien_Chutador_01.svg">
  <metadata
     id="metadata4078">
    <rdf:RDF>
      <cc:Work
         rdf:about="">
        <dc:format>image/svg+xml</dc:format>
        <dc:type
           rdf:resource="http://purl.org/dc/dcmitype/StillImage" />
        <dc:title></dc:title>
      </cc:Work>
    </rdf:RDF>
  </metadata>
  <sodipodi:namedview
     pagecolor="#ffffff"
     bordercolor="#666666"
     borderopacity="1"
     objecttolerance="10"
     gridtolerance="10"
     guidetolerance="10"
     inkscape:pageopacity="0"
     inkscape:pageshadow="2"
     inkscape:window-width="1920"
     inkscape:window-height="1017"
     id="namedview4076"
     showgrid="false"
     inkscape:zoom="2.1646365"
     inkscape:cx="172.62453"
     inkscape:cy="13.209428"
     inkscape:window-x="-8"
     inkscape:window-y="-8"
     inkscape:window-maximized="1"
     inkscape:current-layer="g3356"
     showguides="true"
     inkscape:guide-bbox="true"
     fit-margin-top="0"
     fit-margin-left="0"
     fit-margin-right="0"
     fit-margin-bottom="0">
    <sodipodi:guide
       position="-740.63739,-326.62755"
       orientation="0,1"
       id="guide5495" />
    <sodipodi:guide
       position="-797.12349,-376.46823"
       orientation="1,0"
       id="guide5497" />
    <sodipodi:guide
       position="-892.15305,-109.98672"
       orientation="0,1"
       id="guide5499" />
    <sodipodi:guide
       position="-359.19004,-326.62755"
       orientation="1,0"
       id="guide5501" />
    <sodipodi:guide
       position="-340.91192,-545.04763"
       orientation="0,1"
       id="guide7343" />
    <sodipodi:guide
       position="-677.26001,0.60054625"
       orientation="0,1"
       id="guide7345" />
    <sodipodi:guide
       position="-675.48486,-291.11543"
       orientation="1,0"
       id="guide7347" />
    <sodipodi:guide
       position="-267.99765,-367.95935"
       orientation="0,1"
       id="guide7395" />
    <sodipodi:guide
       position="-273.40062,-70.887104"
       orientation="0,1"
       id="guide7397" />
    <sodipodi:guide
       position="-256.7831,-69.434204"
       orientation="1,0"
       id="guide7399" />
    <sodipodi:guide
       position="-638.31047,-397.27656"
       orientation="0,1"
       id="guide10884" />
    <sodipodi:guide
       position="-668.16829,-441.35239"
       orientation="1,0"
       id="guide10886" />
  </sodipodi:namedview>
  <desc
     id="desc3338">\\192.168.1.102\Aula\Rosetta\Alien_Soccer_2017\Alien_Corte_Laser\Alien_motor_base_03.dxf - scale = 1.000000, origin = (0.000000, 0.000000), auto = False</desc>
  <defs
     id="defs3340">
    <marker
       refY="0"
       refX="0"
       style="overflow:visible"
       id="DistanceX"
       orient="auto">
      <path
         style="stroke:#000000;stroke-width:0.5"
         d="M 3,-3 -3,3 M 0,-5 0,5"
         id="path3343"
         inkscape:connector-curvature="0" />
    </marker>
    <pattern
       height="8"
       width="8"
       patternUnits="userSpaceOnUse"
       y="0"
       x="0"
       id="Hatch">
      <path
         linecap="square"
         stroke="#000000"
         stroke-width="0.25"
         d="M8 4 l-4,4"
         id="path3346" />
      <path
         linecap="square"
         stroke="#000000"
         stroke-width="0.25"
         d="M6 2 l-4,4"
         id="path3348" />
      <path
         linecap="square"
         stroke="#000000"
         stroke-width="0.25"
         d="M4 0 l-4,4"
         id="path3350" />
    </pattern>
    <symbol
       id="*MODEL_SPACE" />
    <symbol
       id="*PAPER_SPACE" />
  </defs>
  <g
     inkscape:label="0"
     inkscape:groupmode="layer"
     id="g3354"
     transform="translate(-950.63279,-330.21966)" />
  <g
     inkscape:label="Capa_1"
     inkscape:groupmode="layer"
     id="g3356"
     transform="translate(-950.63279,-330.21966)">
    <path
       inkscape:connector-curvature="0"
       style="fill:none;stroke:#000000;stroke-width:1"
       d="m 950.98634,354.59271 106.02596,106.02604 140.0157,0.0275"
       id="path3454" />
    <path
       inkscape:connector-curvature="0"
       style="fill:none;stroke:#000000"
       d="m 1003.3419,330.71966 c -3.1341,1.17284 -6.2681,2.34569 -9.38115,3.57198 -3.1121,1.22588 -6.2034,2.50519 -9.2781,3.82277 -3.0743,1.31737 -6.132,2.67302 -9.1701,4.07126 -2.7743,1.2768 -5.5321,2.58912 -8.2748,3.93269 -2.7431,1.34382 -5.471,2.7189 -8.1766,4.13626 -2.7065,1.41783 -5.3907,2.87796 -8.0749,4.33809"
       id="path3460" />
    <path
       inkscape:connector-curvature="0"
       style="fill:none;stroke:#000000;stroke-width:0.99999994"
       d="M 1197.2367,460.8932 1304.1192,354.01068"
       id="path3488" />
    <path
       inkscape:connector-curvature="0"
       style="fill:none;stroke:#000000"
       d="m 1304.1191,354.01068 c -2.5675,-1.38104 -5.135,-2.76208 -7.7227,-4.10452 -2.5869,-1.34204 -5.1939,-2.64549 -7.8147,-3.92045 -2.6204,-1.27473 -5.2545,-2.52097 -7.9034,-3.73486 -3.0507,-1.39797 -6.1212,-2.75303 -9.2081,-4.06952 -3.0873,-1.31669 -6.1913,-2.59481 -9.3162,-3.8191 -3.1259,-1.2247 -6.2727,-2.39555 -9.4195,-3.5664"
       id="path3492" />
    <path
       inkscape:connector-curvature="0"
       style="fill:none;stroke:#000000"
       d="m 1003.3419,330.71966 0,0"
       id="path3496" />
    <g
       id="g4559">
      <path
         id="path3494"
         d="m 1252.7345,330.79583 c -2.1924,3.87621 -4.3848,7.75242 -6.8032,11.48635 -2.3921,3.69352 -5.0053,7.24782 -7.7664,10.67998 -2.7391,3.40445 -5.6235,6.68872 -8.6576,9.82989 -2.8914,2.99372 -5.9187,5.85745 -9.0658,8.58247 -3.1362,2.71561 -6.3913,5.29346 -9.7535,7.72303 -3.3566,2.42556 -6.82,4.70333 -10.3771,6.82509 -4.3883,2.61758 -8.9192,4.99771 -13.5654,7.12518 -4.6588,2.13332 -9.4337,4.01258 -14.2971,5.62791 -4.8906,1.62442 -9.8708,2.98194 -14.9087,4.0584 -3.2041,0.68464 -6.4315,1.25559 -9.6752,1.7216 -3.2666,0.4693 -6.5497,0.83218 -9.8409,1.04877 -3.32,0.21848 -6.6483,0.28811 -9.9766,0.35774"
         style="fill:none;stroke:#000000"
         inkscape:connector-curvature="0" />
      <path
         id="path3498"
         d="m 1128.047,405.86224 c -4.0741,-0.10454 -8.1484,-0.20908 -12.2072,-0.53659 -4.0177,-0.32418 -8.0202,-0.86682 -11.9929,-1.56764 -3.9419,-0.69535 -7.8541,-1.54643 -11.7234,-2.5655 -4.4535,-1.17297 -8.8497,-2.56849 -13.1673,-4.17434 -4.2995,-1.59917 -8.5209,-3.40691 -12.6447,-5.41583 -4.1157,-2.00505 -8.1339,-4.2105 -12.0356,-6.60531 -3.641,-2.2347 -7.1804,-4.63429 -10.6038,-7.18933 -3.4303,-2.56017 -6.7441,-5.27643 -9.9285,-8.13715 -3.1972,-2.87209 -6.2639,-5.8898 -9.1831,-9.04275 -2.7516,-2.97197 -5.3722,-6.06411 -7.866,-9.25769 -2.5135,-3.2188 -4.8982,-6.54066 -7.0921,-9.98097 -2.2167,-3.47588 -4.2387,-7.07268 -6.2607,-10.66948"
         style="fill:none;stroke:#000000"
         inkscape:connector-curvature="0" />
    </g>
    <path
       inkscape:connector-curvature="0"
       style="fill:none;stroke:#000000"
       d="m 1087.7989,418.06538 0,0"
       id="path3594" />
    <rect
       style="opacity:1;fill:none;fill-opacity:1;fill-rule:nonzero;stroke:#0000ff;stroke-width:1;stroke-linecap:butt;stroke-linejoin:round;stroke-miterlimit:4;stroke-dasharray:none;stroke-dashoffset:0;stroke-opacity:1"
       id="rect4557"
       width="30.889763"
       height="55.76923"
       x="1112.5929"
       y="404.80975"
       rx="0"
       ry="0" />
  </g>
</svg>
