<?xml version="1.0" encoding="UTF-8" standalone="no"?>
<!-- Created with Inkscape (http://www.inkscape.org/) -->

<svg
   xmlns:dc="http://purl.org/dc/elements/1.1/"
   xmlns:cc="http://creativecommons.org/ns#"
   xmlns:rdf="http://www.w3.org/1999/02/22-rdf-syntax-ns#"
   xmlns:svg="http://www.w3.org/2000/svg"
   xmlns="http://www.w3.org/2000/svg"
   xmlns:sodipodi="http://sodipodi.sourceforge.net/DTD/sodipodi-0.dtd"
   xmlns:inkscape="http://www.inkscape.org/namespaces/inkscape"
   width="198.76047mm"
   height="172.733mm"
   viewBox="0 0 704.26935 612.04607"
   id="svg2"
   version="1.1"
   inkscape:version="0.91 r13725"
   sodipodi:docname="Alien_motor_base_03_contra.svg">
  <defs
     id="defs4" />
  <sodipodi:namedview
     id="base"
     pagecolor="#ffffff"
     bordercolor="#000000"
     borderopacity="1"
     inkscape:pageopacity="0.0"
     inkscape:pageshadow="2"
     inkscape:zoom="0.77850967"
     inkscape:cx="-140.52137"
     inkscape:cy="381.37805"
     inkscape:document-units="px"
     inkscape:current-layer="layer1"
     showgrid="false"
     showborder="true"
     inkscape:window-width="1920"
     inkscape:window-height="1017"
     inkscape:window-x="-8"
     inkscape:window-y="-8"
     inkscape:window-maximized="1"
     showguides="true"
     fit-margin-top="0"
     fit-margin-left="0"
     fit-margin-right="0"
     fit-margin-bottom="0"
     inkscape:guide-bbox="true">
    <sodipodi:guide
       position="-402.59221,661.15118"
       orientation="1,0"
       id="guide3440" />
    <sodipodi:guide
       position="-545.71756,346.82726"
       orientation="0,1"
       id="guide3442" />
  </sodipodi:namedview>
  <metadata
     id="metadata7">
    <rdf:RDF>
      <cc:Work
         rdf:about="">
        <dc:format>image/svg+xml</dc:format>
        <dc:type
           rdf:resource="http://purl.org/dc/dcmitype/StillImage" />
        <dc:title></dc:title>
      </cc:Work>
    </rdf:RDF>
  </metadata>
  <g
     inkscape:label="Capa 1"
     inkscape:groupmode="layer"
     id="layer1"
     transform="translate(-774.5762,-414.95982)">
    <g
       id="g4629"
       transform="matrix(1.0040752,0,0,1.0040763,-3.1590715,-4.1837953)">
      <path
         id="path4280"
         d="m 968.80284,527.82365 -10.7134,0 -5.3569,-9.65058 5.3569,-9.6506 10.7134,0 5.3569,9.6506 z"
         style="opacity:1;fill:none;fill-opacity:1;fill-rule:nonzero;stroke:#000000;stroke-width:1.24492633;stroke-linecap:butt;stroke-linejoin:round;stroke-miterlimit:4;stroke-dasharray:none;stroke-dashoffset:0;stroke-opacity:1"
         inkscape:connector-curvature="0" />
      <path
         id="path4278"
         d="m 1294.0987,527.18586 -10.7134,0 -5.3569,-9.65058 5.3569,-9.6506 10.7134,0 5.3569,9.6506 z"
         style="opacity:1;fill:none;fill-opacity:1;fill-rule:nonzero;stroke:#000000;stroke-width:1.24492633;stroke-linecap:butt;stroke-linejoin:round;stroke-miterlimit:4;stroke-dasharray:none;stroke-dashoffset:0;stroke-opacity:1"
         inkscape:connector-curvature="0" />
      <path
         inkscape:connector-curvature="0"
         style="opacity:1;fill:none;fill-opacity:1;fill-rule:nonzero;stroke:#000000;stroke-width:1.24492633;stroke-linecap:butt;stroke-linejoin:round;stroke-miterlimit:4;stroke-dasharray:none;stroke-dashoffset:0;stroke-opacity:1"
         d="m 1062.0072,621.02812 -10.7134,0 -5.3569,-9.65058 5.3569,-9.6506 10.7134,0 5.3569,9.6506 z"
         id="path4274" />
      <path
         id="path4272"
         d="m 1200.8942,620.39031 -10.7134,0 -5.3569,-9.65058 5.3569,-9.6506 10.7134,0 5.3569,9.6506 z"
         style="opacity:1;fill:none;fill-opacity:1;fill-rule:nonzero;stroke:#000000;stroke-width:1.24492633;stroke-linecap:butt;stroke-linejoin:round;stroke-miterlimit:4;stroke-dasharray:none;stroke-dashoffset:0;stroke-opacity:1"
         inkscape:connector-curvature="0" />
      <path
         inkscape:connector-curvature="0"
         style="opacity:1;fill:none;fill-opacity:1;fill-rule:nonzero;stroke:#000000;stroke-width:1.24492633;stroke-linecap:butt;stroke-linejoin:round;stroke-miterlimit:4;stroke-dasharray:none;stroke-dashoffset:0;stroke-opacity:1"
         d="m 1200.6426,759.28072 -10.7134,0 -5.3569,-9.65058 5.3569,-9.6506 10.7134,0 5.3569,9.6506 z"
         id="path4270" />
      <path
         inkscape:connector-curvature="0"
         style="opacity:1;fill:none;fill-opacity:1;fill-rule:nonzero;stroke:#000000;stroke-width:1.24492633;stroke-linecap:butt;stroke-linejoin:round;stroke-miterlimit:4;stroke-dasharray:none;stroke-dashoffset:0;stroke-opacity:1"
         d="m 1293.8471,852.48518 -10.7134,0 -5.3569,-9.65058 5.3569,-9.6506 10.7134,0 5.3569,9.6506 z"
         id="path4266" />
      <path
         inkscape:connector-curvature="0"
         style="opacity:1;fill:none;fill-opacity:1;fill-rule:nonzero;stroke:#000000;stroke-width:1.24492633;stroke-linecap:butt;stroke-linejoin:round;stroke-miterlimit:4;stroke-dasharray:none;stroke-dashoffset:0;stroke-opacity:1"
         d="m 968.80289,852.86072 -10.7134,0 -5.3569,-9.65058 5.3569,-9.6506 10.7134,0 5.3569,9.6506 z"
         id="path4262" />
      <path
         id="path4260"
         d="m 1062.0074,759.65626 -10.7134,0 -5.3569,-9.65058 5.3569,-9.6506 10.7134,0 5.3569,9.6506 z"
         style="opacity:1;fill:none;fill-opacity:1;fill-rule:nonzero;stroke:#000000;stroke-width:1.24492633;stroke-linecap:butt;stroke-linejoin:round;stroke-miterlimit:4;stroke-dasharray:none;stroke-dashoffset:0;stroke-opacity:1"
         inkscape:connector-curvature="0" />
      <path
         inkscape:connector-curvature="0"
         id="rect4486"
         transform="translate(0,330.21876)"
         d="m 1085.7988,87.845703 0,207.365237 c -9.2274,3.19884 -15.8203,11.94213 -15.8203,22.28515 l 0,21.89649 -294.77733,0 0,48.60547 295.43553,0 c 1.7083,7.13576 6.6392,12.99065 13.1817,15.95117 l 0,292.21289 48.6074,0 0,-290.12109 26.0996,0 c 9.5596,0 17.7505,-5.63308 21.4629,-13.77149 l 295.3789,0 0,-48.60742 -293.252,0 0,-26.16602 c 0,-13.06871 -10.5211,-23.58984 -23.5898,-23.58984 l -24.1192,0 0,-206.060547 -48.6074,0 z"
         style="opacity:1;fill:none;fill-opacity:1;fill-rule:nonzero;stroke:#000000;stroke-width:1.24492621;stroke-linecap:butt;stroke-linejoin:round;stroke-miterlimit:4;stroke-dasharray:none;stroke-dashoffset:0;stroke-opacity:1" />
      <path
         inkscape:connector-curvature="0"
         style="opacity:1;fill:none;fill-opacity:1;fill-rule:nonzero;stroke:#000000;stroke-width:1.24492633;stroke-linecap:butt;stroke-linejoin:round;stroke-miterlimit:4;stroke-dasharray:none;stroke-dashoffset:0;stroke-opacity:1"
         d="m 1200.8942,620.39031 -10.7134,0 -5.3569,-9.65058 5.3569,-9.6506 10.7134,0 5.3569,9.6506 z"
         id="path4276" />
    </g>
  </g>
</svg>
