  0
SECTION
  2
HEADER
  9
$ACADVER
  1
AC1014
  9
$HANDSEED
  5
FFFF
  9
$MEASUREMENT
 70
     1
  0
ENDSEC
  0
SECTION
  2
TABLES
  0
TABLE
  2
VPORT
  5
8
330
0
100
AcDbSymbolTable
 70
     4
  0
VPORT
  5
2E
330
8
100
AcDbSymbolTableRecord
100
AcDbViewportTableRecord
  2
*ACTIVE
 70
     0
 10
0.0
 20
0.0
 11
1.0
 21
1.0
 12
210.0
 22
148.5
 13
0.0
 23
0.0
 14
10.0
 24
10.0
 15
10.0
 25
10.0
 16
0.0
 26
0.0
 36
1.0
 17
0.0
 27
0.0
 37
0.0
 40
341.0
 41
1.24
 42
50.0
 43
0.0
 44
0.0
 50
0.0
 51
0.0
 71
     0
 72
   100
 73
     1
 74
     3
 75
     0
 76
     0
 77
     0
 78
     0
  0
ENDTAB
  0
TABLE
  2
LTYPE
  5
5
330
0
100
AcDbSymbolTable
 70
     1
  0
LTYPE
  5
14
330
5
100
AcDbSymbolTableRecord
100
AcDbLinetypeTableRecord
  2
BYBLOCK
 70
     0
  3

 72
    65
 73
     0
 40
0.0
  0
LTYPE
  5
15
330
5
100
AcDbSymbolTableRecord
100
AcDbLinetypeTableRecord
  2
BYLAYER
 70
     0
  3

 72
    65
 73
     0
 40
0.0
  0
LTYPE
  5
16
330
5
100
AcDbSymbolTableRecord
100
AcDbLinetypeTableRecord
  2
CONTINUOUS
 70
     0
  3
Solid line
 72
    65
 73
     0
 40
0.0
  0
ENDTAB
  0
TABLE
  2
LAYER
  5
2
100
AcDbSymbolTable
 70
2
  0
LAYER
  5
50
100
AcDbSymbolTableRecord
100
AcDbLayerTableRecord
  2
0
 70
0
  6
CONTINUOUS
  0
LAYER
  5
51
100
AcDbSymbolTableRecord
100
AcDbLayerTableRecord
  2
Capa_1
 70
0
  6
CONTINUOUS
  0
ENDTAB
  0
TABLE
  2
STYLE
  5
3
330
0
100
AcDbSymbolTable
 70
     1
  0
STYLE
  5
11
330
3
100
AcDbSymbolTableRecord
100
AcDbTextStyleTableRecord
  2
STANDARD
 70
     0
 40
0.0
 41
1.0
 50
0.0
 71
     0
 42
2.5
  3
txt
  4

  0
ENDTAB
  0
TABLE
  2
VIEW
  5
6
330
0
100
AcDbSymbolTable
 70
     0
  0
ENDTAB
  0
TABLE
  2
UCS
  5
7
330
0
100
AcDbSymbolTable
 70
     0
  0
ENDTAB
  0
TABLE
  2
APPID
  5
9
330
0
100
AcDbSymbolTable
 70
     2
  0
APPID
  5
12
330
9
100
AcDbSymbolTableRecord
100
AcDbRegAppTableRecord
  2
ACAD
 70
     0
  0
ENDTAB
  0
TABLE
  2
DIMSTYLE
  5
A
330
0
100
AcDbSymbolTable
 70
     1
  0
DIMSTYLE
105
27
330
A
100
AcDbSymbolTableRecord
100
AcDbDimStyleTableRecord
  2
ISO-25
 70
     0
  3

  4

  5

  6

  7

 40
1.0
 41
2.5
 42
0.625
 43
3.75
 44
1.25
 45
0.0
 46
0.0
 47
0.0
 48
0.0
140
2.5
141
2.5
142
0.0
143
0.03937007874016
144
1.0
145
0.0
146
1.0
147
0.625
 71
     0
 72
     0
 73
     0
 74
     0
 75
     0
 76
     0
 77
     1
 78
     8
170
     0
171
     3
172
     1
173
     0
174
     0
175
     0
176
     0
177
     0
178
     0
270
     2
271
     2
272
     2
273
     2
274
     3
340
11
275
     0
280
     0
281
     0
282
     0
283
     0
284
     8
285
     0
286
     0
287
     3
288
     0
  0
ENDTAB
  0
TABLE
  2
BLOCK_RECORD
  5
1
330
0
100
AcDbSymbolTable
 70
     1
  0
BLOCK_RECORD
  5
1F
330
1
100
AcDbSymbolTableRecord
100
AcDbBlockTableRecord
  2
*MODEL_SPACE
  0
BLOCK_RECORD
  5
1B
330
1
100
AcDbSymbolTableRecord
100
AcDbBlockTableRecord
  2
*PAPER_SPACE
  0
ENDTAB
  0
ENDSEC
  0
SECTION
  2
BLOCKS
  0
BLOCK
  5
20
330
1F
100
AcDbEntity
  8
0
100
AcDbBlockBegin
  2
*MODEL_SPACE
 70
     0
 10
0.0
 20
0.0
 30
0.0
  3
*MODEL_SPACE
  1

  0
ENDBLK
  5
21
330
1F
100
AcDbEntity
  8
0
100
AcDbBlockEnd
  0
BLOCK
  5
1C
330
1B
100
AcDbEntity
 67
     1
  8
0
100
AcDbBlockBegin
  2
*PAPER_SPACE
  1

  0
ENDBLK
  5
1D
330
1B
100
AcDbEntity
 67
     1
  8
0
100
AcDbBlockEnd
  0
ENDSEC
  0
SECTION
  2
ENTITIES
  0
SPLINE
  5
100
100
AcDbEntity
  8
Capa_1
 62
7
100
AcDbSpline
 70
8
 71
3
 72
8
 73
4
 74
0
 40
0
 40
0
 40
0
 40
0
 40
1
 40
1
 40
1
 40
1
 10
566.529148
 20
283.464549
 30
0.0
 10
566.529148
 20
264.682365
 30
0.0
 10
564.699860
 20
246.327437
 30
0.0
 10
561.209724
 20
228.568205
 30
0.0
  0
SPLINE
  5
101
100
AcDbEntity
  8
Capa_1
 62
7
100
AcDbSpline
 70
8
 71
3
 72
8
 73
4
 74
0
 40
0
 40
0
 40
0
 40
0
 40
1
 40
1
 40
1
 40
1
 10
561.209724
 20
228.568205
 30
0.0
 10
558.003156
 20
212.251893
 30
0.0
 10
553.394668
 20
196.438413
 30
0.0
 10
547.514892
 20
181.258397
 30
0.0
  0
SPLINE
  5
102
100
AcDbEntity
  8
Capa_1
 62
7
100
AcDbSpline
 70
8
 71
3
 72
8
 73
4
 74
0
 40
0
 40
0
 40
0
 40
0
 40
1
 40
1
 40
1
 40
1
 10
547.514892
 20
181.258397
 30
0.0
 10
542.249748
 20
167.665213
 30
0.0
 10
535.965212
 20
154.579981
 30
0.0
 10
528.755076
 20
142.096485
 30
0.0
  0
SPLINE
  5
103
100
AcDbEntity
  8
Capa_1
 62
7
100
AcDbSpline
 70
8
 71
3
 72
8
 73
4
 74
0
 40
0
 40
0
 40
0
 40
0
 40
1
 40
1
 40
1
 40
1
 10
528.755076
 20
142.096485
 30
0.0
 10
519.975284
 20
126.895325
 30
0.0
 10
509.823012
 20
112.586429
 30
0.0
 10
498.467636
 20
99.339165
 30
0.0
  0
SPLINE
  5
104
100
AcDbEntity
  8
Capa_1
 62
7
100
AcDbSpline
 70
8
 71
3
 72
8
 73
4
 74
0
 40
0
 40
0
 40
0
 40
0
 40
1
 40
1
 40
1
 40
1
 10
498.467636
 20
99.339165
 30
0.0
 10
488.821844
 20
88.086309
 30
0.0
 10
478.307932
 20
77.599493
 30
0.0
 10
467.029708
 20
67.982509
 30
0.0
  0
SPLINE
  5
105
100
AcDbEntity
  8
Capa_1
 62
7
100
AcDbSpline
 70
8
 71
3
 72
8
 73
4
 74
0
 40
0
 40
0
 40
0
 40
0
 40
1
 40
1
 40
1
 40
1
 10
467.029708
 20
67.982509
 30
0.0
 10
459.132876
 20
61.248845
 30
0.0
 10
450.861340
 20
54.941629
 30
0.0
 10
442.250724
 20
49.096493
 30
0.0
  0
SPLINE
  5
106
100
AcDbEntity
  8
Capa_1
 62
7
100
AcDbSpline
 70
8
 71
3
 72
8
 73
4
 74
0
 40
0
 40
0
 40
0
 40
0
 40
1
 40
1
 40
1
 40
1
 10
442.250724
 20
49.096493
 30
0.0
 10
430.257764
 20
40.955325
 30
0.0
 10
417.607028
 20
33.710557
 30
0.0
 10
404.394796
 20
27.458461
 30
0.0
  0
SPLINE
  5
107
100
AcDbEntity
  8
Capa_1
 62
7
100
AcDbSpline
 70
8
 71
3
 72
8
 73
4
 74
0
 40
0
 40
0
 40
0
 40
0
 40
1
 40
1
 40
1
 40
1
 10
404.394796
 20
27.458461
 30
0.0
 10
394.133052
 20
22.602557
 30
0.0
 10
383.532588
 20
18.345469
 30
0.0
 10
372.638516
 20
14.732325
 30
0.0
  0
SPLINE
  5
108
100
AcDbEntity
  8
Capa_1
 62
7
100
AcDbSpline
 70
8
 71
3
 72
8
 73
4
 74
0
 40
0
 40
0
 40
0
 40
0
 40
1
 40
1
 40
1
 40
1
 10
372.638516
 20
14.732325
 30
0.0
 10
356.506876
 20
9.382069
 30
0.0
 10
339.731452
 20
5.443757
 30
0.0
 10
322.458700
 20
3.063853
 30
0.0
  0
SPLINE
  5
109
100
AcDbEntity
  8
Capa_1
 62
7
100
AcDbSpline
 70
8
 71
3
 72
8
 73
4
 74
0
 40
0
 40
0
 40
0
 40
0
 40
1
 40
1
 40
1
 40
1
 10
322.458700
 20
3.063853
 30
0.0
 10
309.711876
 20
1.307557
 30
0.0
 10
296.694212
 20
0.399973
 30
0.0
 10
283.464572
 20
0.399973
 30
0.0
  0
SPLINE
  5
10a
100
AcDbEntity
  8
Capa_1
 62
7
100
AcDbSpline
 70
8
 71
3
 72
8
 73
4
 74
0
 40
0
 40
0
 40
0
 40
0
 40
1
 40
1
 40
1
 40
1
 10
283.464572
 20
0.399973
 30
0.0
 10
269.689692
 20
0.399973
 30
0.0
 10
256.144620
 20
1.383909
 30
0.0
 10
242.895804
 20
3.285325
 30
0.0
  0
SPLINE
  5
10b
100
AcDbEntity
  8
Capa_1
 62
7
100
AcDbSpline
 70
8
 71
3
 72
8
 73
4
 74
0
 40
0
 40
0
 40
0
 40
0
 40
1
 40
1
 40
1
 40
1
 10
242.895804
 20
3.285325
 30
0.0
 10
230.554052
 20
5.056573
 30
0.0
 10
218.469380
 20
7.623973
 30
0.0
 10
206.695500
 20
10.933813
 30
0.0
  0
SPLINE
  5
10c
100
AcDbEntity
  8
Capa_1
 62
7
100
AcDbSpline
 70
8
 71
3
 72
8
 73
4
 74
0
 40
0
 40
0
 40
0
 40
0
 40
1
 40
1
 40
1
 40
1
 10
206.695500
 20
10.933813
 30
0.0
 10
190.626204
 20
15.451181
 30
0.0
 10
175.135844
 20
21.351533
 30
0.0
 10
160.360972
 20
28.498309
 30
0.0
  0
SPLINE
  5
10d
100
AcDbEntity
  8
Capa_1
 62
7
100
AcDbSpline
 70
8
 71
3
 72
8
 73
4
 74
0
 40
0
 40
0
 40
0
 40
0
 40
1
 40
1
 40
1
 40
1
 10
160.360972
 20
28.498309
 30
0.0
 10
146.952612
 20
34.984101
 30
0.0
 10
134.133508
 20
42.496413
 30
0.0
 10
122.005724
 20
50.933205
 30
0.0
  0
SPLINE
  5
10e
100
AcDbEntity
  8
Capa_1
 62
7
100
AcDbSpline
 70
8
 71
3
 72
8
 73
4
 74
0
 40
0
 40
0
 40
0
 40
0
 40
1
 40
1
 40
1
 40
1
 10
122.005724
 20
50.933205
 30
0.0
 10
104.200228
 20
63.319741
 30
0.0
 10
87.884868
 20
77.698957
 30
0.0
 10
73.382636
 20
93.747869
 30
0.0
  0
SPLINE
  5
10f
100
AcDbEntity
  8
Capa_1
 62
7
100
AcDbSpline
 70
8
 71
3
 72
8
 73
4
 74
0
 40
0
 40
0
 40
0
 40
0
 40
1
 40
1
 40
1
 40
1
 10
73.382636
 20
93.747869
 30
0.0
 10
61.800210
 20
106.565581
 30
0.0
 10
51.374314
 20
120.448325
 30
0.0
 10
42.269498
 20
135.231573
 30
0.0
  0
SPLINE
  5
110
100
AcDbEntity
  8
Capa_1
 62
7
100
AcDbSpline
 70
8
 71
3
 72
8
 73
4
 74
0
 40
0
 40
0
 40
0
 40
0
 40
1
 40
1
 40
1
 40
1
 10
42.269498
 20
135.231573
 30
0.0
 10
32.707029
 20
150.757893
 30
0.0
 10
24.601782
 20
167.277517
 30
0.0
 10
18.144383
 20
184.599805
 30
0.0
  0
SPLINE
  5
111
100
AcDbEntity
  8
Capa_1
 62
7
100
AcDbSpline
 70
8
 71
3
 72
8
 73
4
 74
0
 40
0
 40
0
 40
0
 40
0
 40
1
 40
1
 40
1
 40
1
 10
18.144383
 20
184.599805
 30
0.0
 10
12.854550
 20
198.790045
 30
0.0
 10
8.670541
 20
213.518933
 30
0.0
 10
5.697146
 20
228.681685
 30
0.0
  0
SPLINE
  5
112
100
AcDbEntity
  8
Capa_1
 62
7
100
AcDbSpline
 70
8
 71
3
 72
8
 73
4
 74
0
 40
0
 40
0
 40
0
 40
0
 40
1
 40
1
 40
1
 40
1
 10
5.697146
 20
228.681685
 30
0.0
 10
2.221506
 20
246.405621
 30
0.0
 10
0.400000
 20
264.722365
 30
0.0
 10
0.400000
 20
283.464549
 30
0.0
  0
SPLINE
  5
113
100
AcDbEntity
  8
Capa_1
 62
7
100
AcDbSpline
 70
8
 71
3
 72
8
 73
4
 74
0
 40
0
 40
0
 40
0
 40
0
 40
1
 40
1
 40
1
 40
1
 10
0.400000
 20
283.464549
 30
0.0
 10
0.400000
 20
302.083861
 30
0.0
 10
2.197702
 20
319.479101
 30
0.0
 10
5.629005
 20
335.677733
 30
0.0
  0
SPLINE
  5
114
100
AcDbEntity
  8
Capa_1
 62
7
100
AcDbSpline
 70
8
 71
3
 72
8
 73
4
 74
0
 40
0
 40
0
 40
0
 40
0
 40
1
 40
1
 40
1
 40
1
 10
5.629005
 20
335.677733
 30
0.0
 10
8.621827
 20
349.806373
 30
0.0
 10
12.857417
 20
363.024685
 30
0.0
 10
18.226886
 20
375.350893
 30
0.0
  0
SPLINE
  5
115
100
AcDbEntity
  8
Capa_1
 62
7
100
AcDbSpline
 70
8
 71
3
 72
8
 73
4
 74
0
 40
0
 40
0
 40
0
 40
0
 40
1
 40
1
 40
1
 40
1
 10
18.226886
 20
375.350893
 30
0.0
 10
21.952053
 20
383.902421
 30
0.0
 10
26.222972
 20
392.024565
 30
0.0
 10
31.003284
 20
399.723413
 30
0.0
  0
SPLINE
  5
116
100
AcDbEntity
  8
Capa_1
 62
7
100
AcDbSpline
 70
8
 71
3
 72
8
 73
4
 74
0
 40
0
 40
0
 40
0
 40
0
 40
1
 40
1
 40
1
 40
1
 10
31.003284
 20
399.723413
 30
0.0
 10
38.760104
 20
412.216021
 30
0.0
 10
47.858168
 20
423.594077
 30
0.0
 10
58.142131
 20
433.883573
 30
0.0
  0
SPLINE
  5
117
100
AcDbEntity
  8
Capa_1
 62
7
100
AcDbSpline
 70
8
 71
3
 72
8
 73
4
 74
0
 40
0
 40
0
 40
0
 40
0
 40
1
 40
1
 40
1
 40
1
 10
58.142131
 20
433.883573
 30
0.0
 10
65.969493
 20
441.715149
 30
0.0
 10
74.483852
 20
448.916117
 30
0.0
 10
83.616724
 20
455.497933
 30
0.0
  0
SPLINE
  5
118
100
AcDbEntity
  8
Capa_1
 62
7
100
AcDbSpline
 70
8
 71
3
 72
8
 73
4
 74
0
 40
0
 40
0
 40
0
 40
0
 40
1
 40
1
 40
1
 40
1
 10
83.616724
 20
455.497933
 30
0.0
 10
91.329740
 20
461.056501
 30
0.0
 10
99.483900
 20
466.173469
 30
0.0
 10
108.037940
 20
470.855741
 30
0.0
  0
SPLINE
  5
119
100
AcDbEntity
  8
Capa_1
 62
7
100
AcDbSpline
 70
8
 71
3
 72
8
 73
4
 74
0
 40
0
 40
0
 40
0
 40
0
 40
1
 40
1
 40
1
 40
1
 10
108.037940
 20
470.855741
 30
0.0
 10
118.282284
 20
476.463245
 30
0.0
 10
129.100156
 20
481.447277
 30
0.0
 10
140.420692
 20
485.819709
 30
0.0
  0
SPLINE
  5
11a
100
AcDbEntity
  8
Capa_1
 62
7
100
AcDbSpline
 70
8
 71
3
 72
8
 73
4
 74
0
 40
0
 40
0
 40
0
 40
0
 40
1
 40
1
 40
1
 40
1
 10
140.420692
 20
485.819709
 30
0.0
 10
155.611716
 20
491.687077
 30
0.0
 10
171.707884
 20
496.453125
 30
0.0
 10
188.537956
 20
500.146525
 30
0.0
  0
SPLINE
  5
11b
100
AcDbEntity
  8
Capa_1
 62
7
100
AcDbSpline
 70
8
 71
3
 72
8
 73
4
 74
0
 40
0
 40
0
 40
0
 40
0
 40
1
 40
1
 40
1
 40
1
 10
188.537956
 20
500.146525
 30
0.0
 10
205.122836
 20
503.786109
 30
0.0
 10
222.420380
 20
506.384069
 30
0.0
 10
240.266732
 20
507.967813
 30
0.0
  0
SPLINE
  5
11c
100
AcDbEntity
  8
Capa_1
 62
7
100
AcDbSpline
 70
8
 71
3
 72
8
 73
4
 74
0
 40
0
 40
0
 40
0
 40
0
 40
1
 40
1
 40
1
 40
1
 10
240.266732
 20
507.967813
 30
0.0
 10
254.351052
 20
509.217701
 30
0.0
 10
268.777180
 20
509.835909
 30
0.0
 10
283.464572
 20
509.835909
 30
0.0
  0
SPLINE
  5
11d
100
AcDbEntity
  8
Capa_1
 62
7
100
AcDbSpline
 70
8
 71
3
 72
8
 73
4
 74
0
 40
0
 40
0
 40
0
 40
0
 40
1
 40
1
 40
1
 40
1
 10
283.464572
 20
509.835909
 30
0.0
 10
304.785548
 20
509.835909
 30
0.0
 10
325.555956
 20
508.533173
 30
0.0
 10
345.529404
 20
505.886461
 30
0.0
  0
SPLINE
  5
11e
100
AcDbEntity
  8
Capa_1
 62
7
100
AcDbSpline
 70
8
 71
3
 72
8
 73
4
 74
0
 40
0
 40
0
 40
0
 40
0
 40
1
 40
1
 40
1
 40
1
 10
345.529404
 20
505.886461
 30
0.0
 10
361.445044
 20
503.777453
 30
0.0
 10
376.854652
 20
500.815085
 30
0.0
 10
391.633548
 20
496.978501
 30
0.0
  0
SPLINE
  5
11f
100
AcDbEntity
  8
Capa_1
 62
7
100
AcDbSpline
 70
8
 71
3
 72
8
 73
4
 74
0
 40
0
 40
0
 40
0
 40
0
 40
1
 40
1
 40
1
 40
1
 10
391.633548
 20
496.978501
 30
0.0
 10
406.154964
 20
493.208757
 30
0.0
 10
420.067460
 20
488.594989
 30
0.0
 10
433.252780
 20
483.117413
 30
0.0
  0
SPLINE
  5
120
100
AcDbEntity
  8
Capa_1
 62
7
100
AcDbSpline
 70
8
 71
3
 72
8
 73
4
 74
0
 40
0
 40
0
 40
0
 40
0
 40
1
 40
1
 40
1
 40
1
 10
433.252780
 20
483.117413
 30
0.0
 10
444.870404
 20
478.291101
 30
0.0
 10
455.923484
 20
472.794165
 30
0.0
 10
466.331132
 20
466.613085
 30
0.0
  0
SPLINE
  5
121
100
AcDbEntity
  8
Capa_1
 62
7
100
AcDbSpline
 70
8
 71
3
 72
8
 73
4
 74
0
 40
0
 40
0
 40
0
 40
0
 40
1
 40
1
 40
1
 40
1
 10
466.331132
 20
466.613085
 30
0.0
 10
479.394660
 20
458.854677
 30
0.0
 10
491.441308
 20
450.018389
 30
0.0
 10
502.311100
 20
440.077453
 30
0.0
  0
SPLINE
  5
122
100
AcDbEntity
  8
Capa_1
 62
7
100
AcDbSpline
 70
8
 71
3
 72
8
 73
4
 74
0
 40
0
 40
0
 40
0
 40
0
 40
1
 40
1
 40
1
 40
1
 10
502.311100
 20
440.077453
 30
0.0
 10
510.901156
 20
432.221437
 30
0.0
 10
518.756228
 20
423.675541
 30
0.0
 10
525.797372
 20
414.426557
 30
0.0
  0
SPLINE
  5
123
100
AcDbEntity
  8
Capa_1
 62
7
100
AcDbSpline
 70
8
 71
3
 72
8
 73
4
 74
0
 40
0
 40
0
 40
0
 40
0
 40
1
 40
1
 40
1
 40
1
 10
525.797372
 20
414.426557
 30
0.0
 10
531.393252
 20
407.076021
 30
0.0
 10
536.475044
 20
399.281389
 30
0.0
 10
541.003108
 20
391.036053
 30
0.0
  0
SPLINE
  5
124
100
AcDbEntity
  8
Capa_1
 62
7
100
AcDbSpline
 70
8
 71
3
 72
8
 73
4
 74
0
 40
0
 40
0
 40
0
 40
0
 40
1
 40
1
 40
1
 40
1
 10
541.003108
 20
391.036053
 30
0.0
 10
545.950268
 20
382.027565
 30
0.0
 10
550.236468
 20
372.481069
 30
0.0
 10
553.810012
 20
362.387909
 30
0.0
  0
SPLINE
  5
125
100
AcDbEntity
  8
Capa_1
 62
7
100
AcDbSpline
 70
8
 71
3
 72
8
 73
4
 74
0
 40
0
 40
0
 40
0
 40
0
 40
1
 40
1
 40
1
 40
1
 10
553.810012
 20
362.387909
 30
0.0
 10
558.844124
 20
348.169493
 30
0.0
 10
562.463980
 20
332.866237
 30
0.0
 10
564.525084
 20
316.453973
 30
0.0
  0
SPLINE
  5
126
100
AcDbEntity
  8
Capa_1
 62
7
100
AcDbSpline
 70
8
 71
3
 72
8
 73
4
 74
0
 40
0
 40
0
 40
0
 40
0
 40
1
 40
1
 40
1
 40
1
 10
564.525084
 20
316.453973
 30
0.0
 10
565.848380
 20
305.916773
 30
0.0
 10
566.529148
 20
294.922429
 30
0.0
 10
566.529148
 20
283.464549
 30
0.0
  0
SPLINE
  5
127
100
AcDbEntity
  8
Capa_1
 62
7
100
AcDbSpline
 70
8
 71
3
 72
8
 73
4
 74
0
 40
0
 40
0
 40
0
 40
0
 40
1
 40
1
 40
1
 40
1
 10
513.780940
 20
151.644669
 30
0.0
 10
513.780940
 20
153.716823
 30
0.0
 10
515.460753
 20
155.396636
 30
0.0
 10
517.532908
 20
155.396637
 30
0.0
  0
SPLINE
  5
128
100
AcDbEntity
  8
Capa_1
 62
7
100
AcDbSpline
 70
8
 71
3
 72
8
 73
4
 74
0
 40
0
 40
0
 40
0
 40
0
 40
1
 40
1
 40
1
 40
1
 10
517.532908
 20
155.396637
 30
0.0
 10
519.605063
 20
155.396636
 30
0.0
 10
521.284876
 20
153.716823
 30
0.0
 10
521.284876
 20
151.644669
 30
0.0
  0
SPLINE
  5
129
100
AcDbEntity
  8
Capa_1
 62
7
100
AcDbSpline
 70
8
 71
3
 72
8
 73
4
 74
0
 40
0
 40
0
 40
0
 40
0
 40
1
 40
1
 40
1
 40
1
 10
521.284876
 20
151.644669
 30
0.0
 10
521.284876
 20
149.572514
 30
0.0
 10
519.605063
 20
147.892701
 30
0.0
 10
517.532908
 20
147.892701
 30
0.0
  0
SPLINE
  5
12a
100
AcDbEntity
  8
Capa_1
 62
7
100
AcDbSpline
 70
8
 71
3
 72
8
 73
4
 74
0
 40
0
 40
0
 40
0
 40
0
 40
1
 40
1
 40
1
 40
1
 10
517.532908
 20
147.892701
 30
0.0
 10
515.460753
 20
147.892701
 30
0.0
 10
513.780940
 20
149.572514
 30
0.0
 10
513.780940
 20
151.644669
 30
0.0
  0
LWPOLYLINE
  5
12b
100
AcDbEntity
  8
Capa_1
 62
7
100
AcDbPolyline
 90
2
 70
1
 10
566.529148
 20
283.464549
 30
0.0
 10
566.529148
 20
283.464549
 30
0.0
  0
SPLINE
  5
12c
100
AcDbEntity
  8
Capa_1
 62
7
100
AcDbSpline
 70
8
 71
3
 72
8
 73
4
 74
0
 40
0
 40
0
 40
0
 40
0
 40
1
 40
1
 40
1
 40
1
 10
508.111084
 20
409.974181
 30
0.0
 10
508.111084
 20
412.046335
 30
0.0
 10
509.790897
 20
413.726148
 30
0.0
 10
511.863052
 20
413.726149
 30
0.0
  0
SPLINE
  5
12d
100
AcDbEntity
  8
Capa_1
 62
7
100
AcDbSpline
 70
8
 71
3
 72
8
 73
4
 74
0
 40
0
 40
0
 40
0
 40
0
 40
1
 40
1
 40
1
 40
1
 10
511.863052
 20
413.726149
 30
0.0
 10
513.935207
 20
413.726148
 30
0.0
 10
515.615020
 20
412.046335
 30
0.0
 10
515.615020
 20
409.974181
 30
0.0
  0
SPLINE
  5
12e
100
AcDbEntity
  8
Capa_1
 62
7
100
AcDbSpline
 70
8
 71
3
 72
8
 73
4
 74
0
 40
0
 40
0
 40
0
 40
0
 40
1
 40
1
 40
1
 40
1
 10
515.615020
 20
409.974181
 30
0.0
 10
515.615020
 20
407.902026
 30
0.0
 10
513.935207
 20
406.222213
 30
0.0
 10
511.863052
 20
406.222213
 30
0.0
  0
SPLINE
  5
12f
100
AcDbEntity
  8
Capa_1
 62
7
100
AcDbSpline
 70
8
 71
3
 72
8
 73
4
 74
0
 40
0
 40
0
 40
0
 40
0
 40
1
 40
1
 40
1
 40
1
 10
511.863052
 20
406.222213
 30
0.0
 10
509.790897
 20
406.222213
 30
0.0
 10
508.111084
 20
407.902026
 30
0.0
 10
508.111084
 20
409.974181
 30
0.0
  0
LWPOLYLINE
  5
130
100
AcDbEntity
  8
Capa_1
 62
7
100
AcDbPolyline
 90
2
 70
1
 10
513.780940
 20
151.644669
 30
0.0
 10
513.780940
 20
151.644669
 30
0.0
  0
SPLINE
  5
131
100
AcDbEntity
  8
Capa_1
 62
7
100
AcDbSpline
 70
8
 71
3
 72
8
 73
4
 74
0
 40
0
 40
0
 40
0
 40
0
 40
1
 40
1
 40
1
 40
1
 10
45.422746
 20
151.644669
 30
0.0
 10
45.422747
 20
152.639753
 30
0.0
 10
45.818042
 20
153.594081
 30
0.0
 10
46.521673
 20
154.297711
 30
0.0
  0
SPLINE
  5
132
100
AcDbEntity
  8
Capa_1
 62
7
100
AcDbSpline
 70
8
 71
3
 72
8
 73
4
 74
0
 40
0
 40
0
 40
0
 40
0
 40
1
 40
1
 40
1
 40
1
 10
46.521673
 20
154.297711
 30
0.0
 10
47.225304
 20
155.001342
 30
0.0
 10
48.179633
 20
155.396637
 30
0.0
 10
49.174717
 20
155.396637
 30
0.0
  0
SPLINE
  5
133
100
AcDbEntity
  8
Capa_1
 62
7
100
AcDbSpline
 70
8
 71
3
 72
8
 73
4
 74
0
 40
0
 40
0
 40
0
 40
0
 40
1
 40
1
 40
1
 40
1
 10
49.174717
 20
155.396637
 30
0.0
 10
51.246870
 20
155.396635
 30
0.0
 10
52.926682
 20
153.716822
 30
0.0
 10
52.926682
 20
151.644669
 30
0.0
  0
SPLINE
  5
134
100
AcDbEntity
  8
Capa_1
 62
7
100
AcDbSpline
 70
8
 71
3
 72
8
 73
4
 74
0
 40
0
 40
0
 40
0
 40
0
 40
1
 40
1
 40
1
 40
1
 10
52.926682
 20
151.644669
 30
0.0
 10
52.926682
 20
149.572515
 30
0.0
 10
51.246870
 20
147.892702
 30
0.0
 10
49.174717
 20
147.892701
 30
0.0
  0
SPLINE
  5
135
100
AcDbEntity
  8
Capa_1
 62
7
100
AcDbSpline
 70
8
 71
3
 72
8
 73
4
 74
0
 40
0
 40
0
 40
0
 40
0
 40
1
 40
1
 40
1
 40
1
 10
49.174717
 20
147.892701
 30
0.0
 10
48.179633
 20
147.892700
 30
0.0
 10
47.225304
 20
148.287995
 30
0.0
 10
46.521673
 20
148.991626
 30
0.0
  0
SPLINE
  5
136
100
AcDbEntity
  8
Capa_1
 62
7
100
AcDbSpline
 70
8
 71
3
 72
8
 73
4
 74
0
 40
0
 40
0
 40
0
 40
0
 40
1
 40
1
 40
1
 40
1
 10
46.521673
 20
148.991626
 30
0.0
 10
45.818042
 20
149.695256
 30
0.0
 10
45.422747
 20
150.649584
 30
0.0
 10
45.422746
 20
151.644669
 30
0.0
  0
LWPOLYLINE
  5
137
100
AcDbEntity
  8
Capa_1
 62
7
100
AcDbPolyline
 90
2
 70
1
 10
508.111084
 20
409.974181
 30
0.0
 10
508.111084
 20
409.974181
 30
0.0
  0
SPLINE
  5
138
100
AcDbEntity
  8
Capa_1
 62
7
100
AcDbSpline
 70
8
 71
3
 72
8
 73
4
 74
0
 40
0
 40
0
 40
0
 40
0
 40
1
 40
1
 40
1
 40
1
 10
51.092502
 20
409.974181
 30
0.0
 10
51.092502
 20
410.969265
 30
0.0
 10
51.487798
 20
411.923593
 30
0.0
 10
52.191429
 20
412.627223
 30
0.0
  0
SPLINE
  5
139
100
AcDbEntity
  8
Capa_1
 62
7
100
AcDbSpline
 70
8
 71
3
 72
8
 73
4
 74
0
 40
0
 40
0
 40
0
 40
0
 40
1
 40
1
 40
1
 40
1
 10
52.191429
 20
412.627223
 30
0.0
 10
52.895060
 20
413.330854
 30
0.0
 10
53.849388
 20
413.726149
 30
0.0
 10
54.844472
 20
413.726149
 30
0.0
  0
SPLINE
  5
13a
100
AcDbEntity
  8
Capa_1
 62
7
100
AcDbSpline
 70
8
 71
3
 72
8
 73
4
 74
0
 40
0
 40
0
 40
0
 40
0
 40
1
 40
1
 40
1
 40
1
 10
54.844472
 20
413.726149
 30
0.0
 10
56.916626
 20
413.726147
 30
0.0
 10
58.596437
 20
412.046334
 30
0.0
 10
58.596438
 20
409.974181
 30
0.0
  0
SPLINE
  5
13b
100
AcDbEntity
  8
Capa_1
 62
7
100
AcDbSpline
 70
8
 71
3
 72
8
 73
4
 74
0
 40
0
 40
0
 40
0
 40
0
 40
1
 40
1
 40
1
 40
1
 10
58.596438
 20
409.974181
 30
0.0
 10
58.596437
 20
407.902027
 30
0.0
 10
56.916626
 20
406.222214
 30
0.0
 10
54.844472
 20
406.222213
 30
0.0
  0
SPLINE
  5
13c
100
AcDbEntity
  8
Capa_1
 62
7
100
AcDbSpline
 70
8
 71
3
 72
8
 73
4
 74
0
 40
0
 40
0
 40
0
 40
0
 40
1
 40
1
 40
1
 40
1
 10
54.844472
 20
406.222213
 30
0.0
 10
53.849388
 20
406.222212
 30
0.0
 10
52.895060
 20
406.617507
 30
0.0
 10
52.191429
 20
407.321138
 30
0.0
  0
SPLINE
  5
13d
100
AcDbEntity
  8
Capa_1
 62
7
100
AcDbSpline
 70
8
 71
3
 72
8
 73
4
 74
0
 40
0
 40
0
 40
0
 40
0
 40
1
 40
1
 40
1
 40
1
 10
52.191429
 20
407.321138
 30
0.0
 10
51.487798
 20
408.024768
 30
0.0
 10
51.092502
 20
408.979096
 30
0.0
 10
51.092502
 20
409.974181
 30
0.0
  0
LWPOLYLINE
  5
13e
100
AcDbEntity
  8
Capa_1
 62
7
100
AcDbPolyline
 90
2
 70
1
 10
45.422746
 20
151.644669
 30
0.0
 10
45.422746
 20
151.644669
 30
0.0
  0
LWPOLYLINE
  5
13f
100
AcDbEntity
  8
Capa_1
 62
7
100
AcDbPolyline
 90
2
 70
1
 10
51.092502
 20
409.974181
 30
0.0
 10
51.092502
 20
409.974181
 30
0.0
  0
LWPOLYLINE
  5
140
100
AcDbEntity
  8
Capa_1
 62
7
100
AcDbPolyline
 90
5
 70
1
 10
276.777972
 20
481.155506
 30
0.0
 10
290.151172
 20
481.155506
 30
0.0
 10
290.151172
 20
479.120861
 30
0.0
 10
276.777972
 20
479.120861
 30
0.0
 10
276.777972
 20
481.155506
 30
0.0
  0
LWPOLYLINE
  5
141
100
AcDbEntity
  8
Capa_1
 62
7
100
AcDbPolyline
 90
5
 70
1
 10
273.943332
 20
475.327193
 30
0.0
 10
292.985812
 20
475.327193
 30
0.0
 10
292.985812
 20
468.015113
 30
0.0
 10
273.943332
 20
468.015113
 30
0.0
 10
273.943332
 20
475.327193
 30
0.0
  0
LWPOLYLINE
  5
142
100
AcDbEntity
  8
Capa_1
 62
7
100
AcDbPolyline
 90
5
 70
1
 10
290.151172
 20
29.178397
 30
0.0
 10
276.777972
 20
29.178397
 30
0.0
 10
276.777972
 20
31.213045
 30
0.0
 10
290.151172
 20
31.213045
 30
0.0
 10
290.151172
 20
29.178397
 30
0.0
  0
LWPOLYLINE
  5
143
100
AcDbEntity
  8
Capa_1
 62
7
100
AcDbPolyline
 90
5
 70
1
 10
292.985812
 20
35.003197
 30
0.0
 10
273.943332
 20
35.003197
 30
0.0
 10
273.943332
 20
42.707133
 30
0.0
 10
292.985812
 20
42.707133
 30
0.0
 10
292.985812
 20
35.003197
 30
0.0
  0
LWPOLYLINE
  5
144
100
AcDbEntity
  8
Capa_1
 62
7
100
AcDbPolyline
 90
5
 70
1
 10
537.783594
 20
290.151149
 30
0.0
 10
537.783594
 20
276.777949
 30
0.0
 10
535.748948
 20
276.777949
 30
0.0
 10
535.748948
 20
290.151149
 30
0.0
 10
537.783594
 20
290.151149
 30
0.0
  0
LWPOLYLINE
  5
145
100
AcDbEntity
  8
Capa_1
 62
7
100
AcDbPolyline
 90
5
 70
1
 10
531.955281
 20
292.985789
 30
0.0
 10
531.955281
 20
273.943309
 30
0.0
 10
524.643201
 20
273.943309
 30
0.0
 10
524.643201
 20
292.985789
 30
0.0
 10
531.955281
 20
292.985789
 30
0.0
  0
LWPOLYLINE
  5
146
100
AcDbEntity
  8
Capa_1
 62
7
100
AcDbPolyline
 90
5
 70
1
 10
28.945148
 20
276.672805
 30
0.0
 10
28.945148
 20
290.046005
 30
0.0
 10
30.979796
 20
290.046005
 30
0.0
 10
30.979796
 20
276.672805
 30
0.0
 10
28.945148
 20
276.672805
 30
0.0
  0
LWPOLYLINE
  5
147
100
AcDbEntity
  8
Capa_1
 62
7
100
AcDbPolyline
 90
5
 70
1
 10
34.769948
 20
273.838165
 30
0.0
 10
34.769948
 20
292.880645
 30
0.0
 10
42.473884
 20
292.880645
 30
0.0
 10
42.473884
 20
273.838165
 30
0.0
 10
34.769948
 20
273.838165
 30
0.0
  0
LWPOLYLINE
  5
148
100
AcDbEntity
  8
Capa_1
 62
7
100
AcDbPolyline
 90
5
 70
1
 10
442.334969
 20
452.008482
 30
0.0
 10
451.791249
 20
442.552202
 30
0.0
 10
450.352538
 20
441.113490
 30
0.0
 10
440.896257
 20
450.569771
 30
0.0
 10
442.334969
 20
452.008482
 30
0.0
  0
LWPOLYLINE
  5
149
100
AcDbEntity
  8
Capa_1
 62
7
100
AcDbPolyline
 90
5
 70
1
 10
436.209336
 20
449.891636
 30
0.0
 10
449.674403
 20
436.426569
 30
0.0
 10
444.503982
 20
431.256148
 30
0.0
 10
431.038915
 20
444.721215
 30
0.0
 10
436.209336
 20
449.891636
 30
0.0
  0
LWPOLYLINE
  5
14a
100
AcDbEntity
  8
Capa_1
 62
7
100
AcDbPolyline
 90
5
 70
1
 10
107.773741
 20
98.243232
 30
0.0
 10
98.317460
 20
107.699512
 30
0.0
 10
99.756174
 20
109.138226
 30
0.0
 10
109.212454
 20
99.681945
 30
0.0
 10
107.773741
 20
98.243232
 30
0.0
  0
LWPOLYLINE
  5
14b
100
AcDbEntity
  8
Capa_1
 62
7
100
AcDbPolyline
 90
5
 70
1
 10
113.896889
 20
100.357594
 30
0.0
 10
100.431823
 20
113.822661
 30
0.0
 10
105.879328
 20
119.270167
 30
0.0
 10
119.344395
 20
105.805100
 30
0.0
 10
113.896889
 20
100.357594
 30
0.0
  0
LWPOLYLINE
  5
14c
100
AcDbEntity
  8
Capa_1
 62
7
100
AcDbPolyline
 90
5
 70
1
 10
468.613620
 20
107.909752
 30
0.0
 10
459.157340
 20
98.453471
 30
0.0
 10
457.718628
 20
99.892183
 30
0.0
 10
467.174908
 20
109.348463
 30
0.0
 10
468.613620
 20
107.909752
 30
0.0
  0
LWPOLYLINE
  5
14d
100
AcDbEntity
  8
Capa_1
 62
7
100
AcDbPolyline
 90
5
 70
1
 10
466.496774
 20
114.035384
 30
0.0
 10
453.031707
 20
100.570318
 30
0.0
 10
447.861286
 20
105.740739
 30
0.0
 10
461.326352
 20
119.205806
 30
0.0
 10
466.496774
 20
114.035384
 30
0.0
  0
LWPOLYLINE
  5
14e
100
AcDbEntity
  8
Capa_1
 62
7
100
AcDbPolyline
 90
5
 70
1
 10
115.124157
 20
442.736209
 30
0.0
 10
124.867618
 20
451.896310
 30
0.0
 10
126.261269
 20
450.413904
 30
0.0
 10
116.517808
 20
441.253803
 30
0.0
 10
115.124157
 20
442.736209
 30
0.0
  0
LWPOLYLINE
  5
14f
100
AcDbEntity
  8
Capa_1
 62
7
100
AcDbPolyline
 90
5
 70
1
 10
117.048644
 20
436.550756
 30
0.0
 10
130.922635
 20
449.594084
 30
0.0
 10
136.199519
 20
443.981142
 30
0.0
 10
122.325528
 20
430.937814
 30
0.0
 10
117.048644
 20
436.550756
 30
0.0
  0
LWPOLYLINE
  5
150
100
AcDbEntity
  8
Capa_1
 62
7
100
AcDbPolyline
 90
5
 70
1
 10
197.537395
 20
473.533492
 30
0.0
 10
209.936810
 20
478.543181
 30
0.0
 10
210.699002
 20
476.656690
 30
0.0
 10
198.299587
 20
471.647001
 30
0.0
 10
197.537395
 20
473.533492
 30
0.0
  0
LWPOLYLINE
  5
151
100
AcDbEntity
  8
Capa_1
 62
7
100
AcDbPolyline
 90
5
 70
1
 10
197.092487
 20
467.067700
 30
0.0
 10
214.748367
 20
474.201138
 30
0.0
 10
217.487520
 20
467.421496
 30
0.0
 10
199.831640
 20
460.288057
 30
0.0
 10
197.092487
 20
467.067700
 30
0.0
  0
LWPOLYLINE
  5
152
100
AcDbEntity
  8
Capa_1
 62
7
100
AcDbPolyline
 90
5
 70
1
 10
387.398860
 20
49.318468
 30
0.0
 10
374.999445
 20
44.308779
 30
0.0
 10
374.237252
 20
46.195271
 30
0.0
 10
386.636667
 20
51.204960
 30
0.0
 10
387.398860
 20
49.318468
 30
0.0
  0
LWPOLYLINE
  5
153
100
AcDbEntity
  8
Capa_1
 62
7
100
AcDbPolyline
 90
5
 70
1
 10
387.845084
 20
55.781003
 30
0.0
 10
370.189204
 20
48.647564
 30
0.0
 10
367.303259
 20
55.790529
 30
0.0
 10
384.959139
 20
62.923968
 30
0.0
 10
387.845084
 20
55.781003
 30
0.0
  0
LWPOLYLINE
  5
154
100
AcDbEntity
  8
Capa_1
 62
7
100
AcDbPolyline
 90
5
 70
1
 10
515.416835
 20
386.661538
 30
0.0
 10
520.426524
 20
374.262123
 30
0.0
 10
518.540034
 20
373.499932
 30
0.0
 10
513.530345
 20
385.899347
 30
0.0
 10
515.416835
 20
386.661538
 30
0.0
  0
LWPOLYLINE
  5
155
100
AcDbEntity
  8
Capa_1
 62
7
100
AcDbPolyline
 90
5
 70
1
 10
508.951043
 20
387.106446
 30
0.0
 10
516.084482
 20
369.450567
 30
0.0
 10
509.304839
 20
366.711413
 30
0.0
 10
502.171401
 20
384.367293
 30
0.0
 10
508.951043
 20
387.106446
 30
0.0
  0
LWPOLYLINE
  5
156
100
AcDbEntity
  8
Capa_1
 62
7
100
AcDbPolyline
 90
5
 70
1
 10
50.549227
 20
179.563090
 30
0.0
 10
45.539538
 20
191.962505
 30
0.0
 10
47.426031
 20
192.724698
 30
0.0
 10
52.435720
 20
180.325283
 30
0.0
 10
50.549227
 20
179.563090
 30
0.0
  0
LWPOLYLINE
  5
157
100
AcDbEntity
  8
Capa_1
 62
7
100
AcDbPolyline
 90
5
 70
1
 10
57.011762
 20
179.116866
 30
0.0
 10
49.878324
 20
196.772746
 30
0.0
 10
57.021289
 20
199.658691
 30
0.0
 10
64.154727
 20
182.002812
 30
0.0
 10
57.011762
 20
179.116866
 30
0.0
  0
LWPOLYLINE
  5
158
100
AcDbEntity
  8
Capa_1
 62
7
100
AcDbPolyline
 90
5
 70
1
 10
357.728536
 20
479.483988
 30
0.0
 10
370.038631
 20
474.258662
 30
0.0
 10
369.243632
 20
472.385761
 30
0.0
 10
356.933537
 20
477.611087
 30
0.0
 10
357.728536
 20
479.483988
 30
0.0
  0
LWPOLYLINE
  5
159
100
AcDbEntity
  8
Capa_1
 62
7
100
AcDbPolyline
 90
5
 70
1
 10
352.841933
 20
475.226580
 30
0.0
 10
370.370628
 20
467.786090
 30
0.0
 10
367.513571
 20
461.055285
 30
0.0
 10
349.984876
 20
468.495775
 30
0.0
 10
352.841933
 20
475.226580
 30
0.0
  0
LWPOLYLINE
  5
15a
100
AcDbEntity
  8
Capa_1
 62
7
100
AcDbPolyline
 90
5
 70
1
 10
192.631889
 20
46.421407
 30
0.0
 10
180.321793
 20
51.646733
 30
0.0
 10
181.116794
 20
53.519636
 30
0.0
 10
193.426889
 20
48.294310
 30
0.0
 10
192.631889
 20
46.421407
 30
0.0
  0
LWPOLYLINE
  5
15b
100
AcDbEntity
  8
Capa_1
 62
7
100
AcDbPolyline
 90
5
 70
1
 10
197.517119
 20
50.675582
 30
0.0
 10
179.988424
 20
58.116071
 30
0.0
 10
182.998592
 20
65.207582
 30
0.0
 10
200.527287
 20
57.767092
 30
0.0
 10
197.517119
 20
50.675582
 30
0.0
  0
LWPOLYLINE
  5
15c
100
AcDbEntity
  8
Capa_1
 62
7
100
AcDbPolyline
 90
5
 70
1
 10
522.012504
 20
191.926817
 30
0.0
 10
516.787178
 20
179.616721
 30
0.0
 10
514.914277
 20
180.411721
 30
0.0
 10
520.139603
 20
192.721816
 30
0.0
 10
522.012504
 20
191.926817
 30
0.0
  0
LWPOLYLINE
  5
15d
100
AcDbEntity
  8
Capa_1
 62
7
100
AcDbPolyline
 90
5
 70
1
 10
517.755096
 20
196.813420
 30
0.0
 10
510.314606
 20
179.284725
 30
0.0
 10
503.583801
 20
182.141782
 30
0.0
 10
511.024291
 20
199.670477
 30
0.0
 10
517.755096
 20
196.813420
 30
0.0
  0
LWPOLYLINE
  5
15e
100
AcDbEntity
  8
Capa_1
 62
7
100
AcDbPolyline
 90
5
 70
1
 10
49.316292
 20
373.676053
 30
0.0
 10
54.541617
 20
385.986149
 30
0.0
 10
56.414521
 20
385.191148
 30
0.0
 10
51.189195
 20
372.881053
 30
0.0
 10
49.316292
 20
373.676053
 30
0.0
  0
LWPOLYLINE
  5
15f
100
AcDbEntity
  8
Capa_1
 62
7
100
AcDbPolyline
 90
5
 70
1
 10
53.570466
 20
368.790823
 30
0.0
 10
61.010956
 20
386.319518
 30
0.0
 10
68.102466
 20
383.309350
 30
0.0
 10
60.661977
 20
365.780655
 30
0.0
 10
53.570466
 20
368.790823
 30
0.0
  0
LWPOLYLINE
  5
160
100
AcDbEntity
  8
Capa_1
 62
7
100
AcDbPolyline
 90
10
 70
1
 10
160.396244
 20
361.377029
 30
0.0
 10
160.396244
 20
339.498901
 30
0.0
 10
163.514996
 20
339.498901
 30
0.0
 10
163.514996
 20
331.794221
 30
0.0
 10
181.989988
 20
331.794221
 30
0.0
 10
181.989988
 20
339.498901
 30
0.0
 10
185.108740
 20
339.498901
 30
0.0
 10
185.108740
 20
361.377029
 30
0.0
 10
160.396244
 20
361.377029
 30
0.0
 10
160.396244
 20
361.377029
 30
0.0
  0
LWPOLYLINE
  5
161
100
AcDbEntity
  8
Capa_1
 62
7
100
AcDbPolyline
 90
10
 70
1
 10
185.224924
 20
361.377029
 30
0.0
 10
185.224924
 20
339.498901
 30
0.0
 10
188.343676
 20
339.498901
 30
0.0
 10
188.343676
 20
331.794221
 30
0.0
 10
206.818668
 20
331.794221
 30
0.0
 10
206.818668
 20
339.498901
 30
0.0
 10
209.937420
 20
339.498901
 30
0.0
 10
209.937420
 20
361.377029
 30
0.0
 10
185.224924
 20
361.377029
 30
0.0
 10
185.224924
 20
361.377029
 30
0.0
  0
LWPOLYLINE
  5
162
100
AcDbEntity
  8
Capa_1
 62
7
100
AcDbPolyline
 90
10
 70
1
 10
209.789668
 20
361.377029
 30
0.0
 10
209.789668
 20
339.498901
 30
0.0
 10
212.908420
 20
339.498901
 30
0.0
 10
212.908420
 20
331.794221
 30
0.0
 10
231.383412
 20
331.794221
 30
0.0
 10
231.383412
 20
339.498901
 30
0.0
 10
234.502164
 20
339.498901
 30
0.0
 10
234.502164
 20
361.377029
 30
0.0
 10
209.789668
 20
361.377029
 30
0.0
 10
209.789668
 20
361.377029
 30
0.0
  0
LWPOLYLINE
  5
163
100
AcDbEntity
  8
Capa_1
 62
7
100
AcDbPolyline
 90
10
 70
1
 10
234.618348
 20
361.377029
 30
0.0
 10
234.618348
 20
339.498901
 30
0.0
 10
237.737100
 20
339.498901
 30
0.0
 10
237.737100
 20
331.794221
 30
0.0
 10
256.212092
 20
331.794221
 30
0.0
 10
256.212092
 20
339.498901
 30
0.0
 10
259.330844
 20
339.498901
 30
0.0
 10
259.330844
 20
361.377029
 30
0.0
 10
234.618348
 20
361.377029
 30
0.0
 10
234.618348
 20
361.377029
 30
0.0
  0
LWPOLYLINE
  5
164
100
AcDbEntity
  8
Capa_1
 62
7
100
AcDbPolyline
 90
10
 70
1
 10
311.366636
 20
361.041373
 30
0.0
 10
311.366636
 20
339.163245
 30
0.0
 10
314.485388
 20
339.163245
 30
0.0
 10
314.485388
 20
331.458565
 30
0.0
 10
332.960380
 20
331.458565
 30
0.0
 10
332.960380
 20
339.163245
 30
0.0
 10
336.079132
 20
339.163245
 30
0.0
 10
336.079132
 20
361.041373
 30
0.0
 10
311.366636
 20
361.041373
 30
0.0
 10
311.366636
 20
361.041373
 30
0.0
  0
LWPOLYLINE
  5
165
100
AcDbEntity
  8
Capa_1
 62
7
100
AcDbPolyline
 90
10
 70
1
 10
336.195316
 20
361.041373
 30
0.0
 10
336.195316
 20
339.163245
 30
0.0
 10
339.314068
 20
339.163245
 30
0.0
 10
339.314068
 20
331.458565
 30
0.0
 10
357.789060
 20
331.458565
 30
0.0
 10
357.789060
 20
339.163245
 30
0.0
 10
360.907812
 20
339.163245
 30
0.0
 10
360.907812
 20
361.041373
 30
0.0
 10
336.195316
 20
361.041373
 30
0.0
 10
336.195316
 20
361.041373
 30
0.0
  0
LWPOLYLINE
  5
166
100
AcDbEntity
  8
Capa_1
 62
7
100
AcDbPolyline
 90
10
 70
1
 10
360.760060
 20
361.041373
 30
0.0
 10
360.760060
 20
339.163245
 30
0.0
 10
363.878812
 20
339.163245
 30
0.0
 10
363.878812
 20
331.458565
 30
0.0
 10
382.353804
 20
331.458565
 30
0.0
 10
382.353804
 20
339.163245
 30
0.0
 10
385.472556
 20
339.163245
 30
0.0
 10
385.472556
 20
361.041373
 30
0.0
 10
360.760060
 20
361.041373
 30
0.0
 10
360.760060
 20
361.041373
 30
0.0
  0
LWPOLYLINE
  5
167
100
AcDbEntity
  8
Capa_1
 62
7
100
AcDbPolyline
 90
10
 70
1
 10
385.588740
 20
361.041373
 30
0.0
 10
385.588740
 20
339.163245
 30
0.0
 10
388.707492
 20
339.163245
 30
0.0
 10
388.707492
 20
331.458565
 30
0.0
 10
407.182484
 20
331.458565
 30
0.0
 10
407.182484
 20
339.163245
 30
0.0
 10
410.301236
 20
339.163245
 30
0.0
 10
410.301236
 20
361.041373
 30
0.0
 10
385.588740
 20
361.041373
 30
0.0
 10
385.588740
 20
361.041373
 30
0.0
  0
LWPOLYLINE
  5
168
100
AcDbEntity
  8
Capa_1
 62
7
100
AcDbPolyline
 90
10
 70
1
 10
156.627916
 20
305.209709
 30
0.0
 10
156.627916
 20
283.331581
 30
0.0
 10
159.746668
 20
283.331581
 30
0.0
 10
159.746668
 20
275.626901
 30
0.0
 10
178.221660
 20
275.626901
 30
0.0
 10
178.221660
 20
283.331581
 30
0.0
 10
181.340412
 20
283.331581
 30
0.0
 10
181.340412
 20
305.209709
 30
0.0
 10
156.627916
 20
305.209709
 30
0.0
 10
156.627916
 20
305.209709
 30
0.0
  0
LWPOLYLINE
  5
169
100
AcDbEntity
  8
Capa_1
 62
7
100
AcDbPolyline
 90
10
 70
1
 10
181.456596
 20
305.209709
 30
0.0
 10
181.456596
 20
283.331581
 30
0.0
 10
184.575348
 20
283.331581
 30
0.0
 10
184.575348
 20
275.626901
 30
0.0
 10
203.050340
 20
275.626901
 30
0.0
 10
203.050340
 20
283.331581
 30
0.0
 10
206.169092
 20
283.331581
 30
0.0
 10
206.169092
 20
305.209709
 30
0.0
 10
181.456596
 20
305.209709
 30
0.0
 10
181.456596
 20
305.209709
 30
0.0
  0
LWPOLYLINE
  5
16a
100
AcDbEntity
  8
Capa_1
 62
7
100
AcDbPolyline
 90
10
 70
1
 10
206.021340
 20
305.209709
 30
0.0
 10
206.021340
 20
283.331581
 30
0.0
 10
209.140092
 20
283.331581
 30
0.0
 10
209.140092
 20
275.626901
 30
0.0
 10
227.615084
 20
275.626901
 30
0.0
 10
227.615084
 20
283.331581
 30
0.0
 10
230.733836
 20
283.331581
 30
0.0
 10
230.733836
 20
305.209709
 30
0.0
 10
206.021340
 20
305.209709
 30
0.0
 10
206.021340
 20
305.209709
 30
0.0
  0
LWPOLYLINE
  5
16b
100
AcDbEntity
  8
Capa_1
 62
7
100
AcDbPolyline
 90
10
 70
1
 10
230.850020
 20
305.209709
 30
0.0
 10
230.850020
 20
283.331581
 30
0.0
 10
233.968772
 20
283.331581
 30
0.0
 10
233.968772
 20
275.626901
 30
0.0
 10
252.443764
 20
275.626901
 30
0.0
 10
252.443764
 20
283.331581
 30
0.0
 10
255.562516
 20
283.331581
 30
0.0
 10
255.562516
 20
305.209709
 30
0.0
 10
230.850020
 20
305.209709
 30
0.0
 10
230.850020
 20
305.209709
 30
0.0
  0
LWPOLYLINE
  5
16c
100
AcDbEntity
  8
Capa_1
 62
7
100
AcDbPolyline
 90
10
 70
1
 10
307.598308
 20
304.874053
 30
0.0
 10
307.598308
 20
282.995925
 30
0.0
 10
310.717060
 20
282.995925
 30
0.0
 10
310.717060
 20
275.291245
 30
0.0
 10
329.192052
 20
275.291245
 30
0.0
 10
329.192052
 20
282.995925
 30
0.0
 10
332.310804
 20
282.995925
 30
0.0
 10
332.310804
 20
304.874053
 30
0.0
 10
307.598308
 20
304.874053
 30
0.0
 10
307.598308
 20
304.874053
 30
0.0
  0
LWPOLYLINE
  5
16d
100
AcDbEntity
  8
Capa_1
 62
7
100
AcDbPolyline
 90
10
 70
1
 10
332.426988
 20
304.874053
 30
0.0
 10
332.426988
 20
282.995925
 30
0.0
 10
335.545740
 20
282.995925
 30
0.0
 10
335.545740
 20
275.291245
 30
0.0
 10
354.020732
 20
275.291245
 30
0.0
 10
354.020732
 20
282.995925
 30
0.0
 10
357.139484
 20
282.995925
 30
0.0
 10
357.139484
 20
304.874053
 30
0.0
 10
332.426988
 20
304.874053
 30
0.0
 10
332.426988
 20
304.874053
 30
0.0
  0
LWPOLYLINE
  5
16e
100
AcDbEntity
  8
Capa_1
 62
7
100
AcDbPolyline
 90
10
 70
1
 10
356.991732
 20
304.874053
 30
0.0
 10
356.991732
 20
282.995925
 30
0.0
 10
360.110484
 20
282.995925
 30
0.0
 10
360.110484
 20
275.291245
 30
0.0
 10
378.585476
 20
275.291245
 30
0.0
 10
378.585476
 20
282.995925
 30
0.0
 10
381.704228
 20
282.995925
 30
0.0
 10
381.704228
 20
304.874053
 30
0.0
 10
356.991732
 20
304.874053
 30
0.0
 10
356.991732
 20
304.874053
 30
0.0
  0
SPLINE
  5
16f
100
AcDbEntity
  8
Capa_1
 62
7
100
AcDbSpline
 70
8
 71
3
 72
8
 73
4
 74
0
 40
0
 40
0
 40
0
 40
0
 40
1
 40
1
 40
1
 40
1
 10
236.694652
 20
226.879541
 30
0.0
 10
235.674202
 20
226.879530
 30
0.0
 10
234.695543
 20
227.285814
 30
0.0
 10
233.973972
 20
228.009014
 30
0.0
  0
SPLINE
  5
170
100
AcDbEntity
  8
Capa_1
 62
7
100
AcDbSpline
 70
8
 71
3
 72
8
 73
4
 74
0
 40
0
 40
0
 40
0
 40
0
 40
1
 40
1
 40
1
 40
1
 10
233.973972
 20
228.009014
 30
0.0
 10
233.252400
 20
228.732214
 30
0.0
 10
232.847025
 20
229.713088
 30
0.0
 10
232.847025
 20
230.735853
 30
0.0
  0
SPLINE
  5
171
100
AcDbEntity
  8
Capa_1
 62
7
100
AcDbSpline
 70
8
 71
3
 72
8
 73
4
 74
0
 40
0
 40
0
 40
0
 40
0
 40
1
 40
1
 40
1
 40
1
 10
232.847025
 20
230.735853
 30
0.0
 10
232.847025
 20
231.758617
 30
0.0
 10
233.252400
 20
232.739492
 30
0.0
 10
233.973972
 20
233.462692
 30
0.0
  0
SPLINE
  5
172
100
AcDbEntity
  8
Capa_1
 62
7
100
AcDbSpline
 70
8
 71
3
 72
8
 73
4
 74
0
 40
0
 40
0
 40
0
 40
0
 40
1
 40
1
 40
1
 40
1
 10
233.973972
 20
233.462692
 30
0.0
 10
234.695543
 20
234.185892
 30
0.0
 10
235.674202
 20
234.592176
 30
0.0
 10
236.694652
 20
234.592165
 30
0.0
  0
SPLINE
  5
173
100
AcDbEntity
  8
Capa_1
 62
7
100
AcDbSpline
 70
8
 71
3
 72
8
 73
4
 74
0
 40
0
 40
0
 40
0
 40
0
 40
1
 40
1
 40
1
 40
1
 10
236.694652
 20
234.592165
 30
0.0
 10
238.819601
 20
234.592145
 30
0.0
 10
240.542202
 20
232.865621
 30
0.0
 10
240.542202
 20
230.735853
 30
0.0
  0
SPLINE
  5
174
100
AcDbEntity
  8
Capa_1
 62
7
100
AcDbSpline
 70
8
 71
3
 72
8
 73
4
 74
0
 40
0
 40
0
 40
0
 40
0
 40
1
 40
1
 40
1
 40
1
 10
240.542202
 20
230.735853
 30
0.0
 10
240.542202
 20
228.606084
 30
0.0
 10
238.819601
 20
226.879560
 30
0.0
 10
236.694652
 20
226.879541
 30
0.0
  0
LWPOLYLINE
  5
175
100
AcDbEntity
  8
Capa_1
 62
7
100
AcDbPolyline
 90
10
 70
1
 10
381.820412
 20
304.874053
 30
0.0
 10
381.820412
 20
282.995925
 30
0.0
 10
384.939164
 20
282.995925
 30
0.0
 10
384.939164
 20
275.291245
 30
0.0
 10
403.414156
 20
275.291245
 30
0.0
 10
403.414156
 20
282.995925
 30
0.0
 10
406.532908
 20
282.995925
 30
0.0
 10
406.532908
 20
304.874053
 30
0.0
 10
381.820412
 20
304.874053
 30
0.0
 10
381.820412
 20
304.874053
 30
0.0
  0
SPLINE
  5
176
100
AcDbEntity
  8
Capa_1
 62
7
100
AcDbSpline
 70
8
 71
3
 72
8
 73
4
 74
0
 40
0
 40
0
 40
0
 40
0
 40
1
 40
1
 40
1
 40
1
 10
236.694652
 20
90.245301
 30
0.0
 10
235.674200
 20
90.245290
 30
0.0
 10
234.695540
 20
90.651575
 30
0.0
 10
233.973969
 20
91.374777
 30
0.0
  0
SPLINE
  5
177
100
AcDbEntity
  8
Capa_1
 62
7
100
AcDbSpline
 70
8
 71
3
 72
8
 73
4
 74
0
 40
0
 40
0
 40
0
 40
0
 40
1
 40
1
 40
1
 40
1
 10
233.973969
 20
91.374777
 30
0.0
 10
233.252398
 20
92.097978
 30
0.0
 10
232.847023
 20
93.078855
 30
0.0
 10
232.847025
 20
94.101621
 30
0.0
  0
SPLINE
  5
178
100
AcDbEntity
  8
Capa_1
 62
7
100
AcDbSpline
 70
8
 71
3
 72
8
 73
4
 74
0
 40
0
 40
0
 40
0
 40
0
 40
1
 40
1
 40
1
 40
1
 10
232.847025
 20
94.101621
 30
0.0
 10
232.847023
 20
95.124387
 30
0.0
 10
233.252398
 20
96.105263
 30
0.0
 10
233.973969
 20
96.828465
 30
0.0
  0
SPLINE
  5
179
100
AcDbEntity
  8
Capa_1
 62
7
100
AcDbSpline
 70
8
 71
3
 72
8
 73
4
 74
0
 40
0
 40
0
 40
0
 40
0
 40
1
 40
1
 40
1
 40
1
 10
233.973969
 20
96.828465
 30
0.0
 10
234.695540
 20
97.551666
 30
0.0
 10
235.674200
 20
97.957952
 30
0.0
 10
236.694652
 20
97.957941
 30
0.0
  0
SPLINE
  5
17a
100
AcDbEntity
  8
Capa_1
 62
7
100
AcDbSpline
 70
8
 71
3
 72
8
 73
4
 74
0
 40
0
 40
0
 40
0
 40
0
 40
1
 40
1
 40
1
 40
1
 10
236.694652
 20
97.957941
 30
0.0
 10
238.819604
 20
97.957921
 30
0.0
 10
240.542206
 20
96.231392
 30
0.0
 10
240.542202
 20
94.101621
 30
0.0
  0
SPLINE
  5
17b
100
AcDbEntity
  8
Capa_1
 62
7
100
AcDbSpline
 70
8
 71
3
 72
8
 73
4
 74
0
 40
0
 40
0
 40
0
 40
0
 40
1
 40
1
 40
1
 40
1
 10
240.542202
 20
94.101621
 30
0.0
 10
240.542206
 20
91.971849
 30
0.0
 10
238.819604
 20
90.245320
 30
0.0
 10
236.694652
 20
90.245301
 30
0.0
  0
LWPOLYLINE
  5
17c
100
AcDbEntity
  8
Capa_1
 62
7
100
AcDbPolyline
 90
2
 70
1
 10
236.694652
 20
226.879541
 30
0.0
 10
236.694652
 20
226.879541
 30
0.0
  0
SPLINE
  5
17d
100
AcDbEntity
  8
Capa_1
 62
7
100
AcDbSpline
 70
8
 71
3
 72
8
 73
4
 74
0
 40
0
 40
0
 40
0
 40
0
 40
1
 40
1
 40
1
 40
1
 10
330.233564
 20
226.879541
 30
0.0
 10
329.213114
 20
226.879530
 30
0.0
 10
328.234455
 20
227.285814
 30
0.0
 10
327.512884
 20
228.009014
 30
0.0
  0
SPLINE
  5
17e
100
AcDbEntity
  8
Capa_1
 62
7
100
AcDbSpline
 70
8
 71
3
 72
8
 73
4
 74
0
 40
0
 40
0
 40
0
 40
0
 40
1
 40
1
 40
1
 40
1
 10
327.512884
 20
228.009014
 30
0.0
 10
326.791312
 20
228.732214
 30
0.0
 10
326.385937
 20
229.713088
 30
0.0
 10
326.385937
 20
230.735853
 30
0.0
  0
SPLINE
  5
17f
100
AcDbEntity
  8
Capa_1
 62
7
100
AcDbSpline
 70
8
 71
3
 72
8
 73
4
 74
0
 40
0
 40
0
 40
0
 40
0
 40
1
 40
1
 40
1
 40
1
 10
326.385937
 20
230.735853
 30
0.0
 10
326.385937
 20
231.758617
 30
0.0
 10
326.791312
 20
232.739492
 30
0.0
 10
327.512884
 20
233.462692
 30
0.0
  0
SPLINE
  5
180
100
AcDbEntity
  8
Capa_1
 62
7
100
AcDbSpline
 70
8
 71
3
 72
8
 73
4
 74
0
 40
0
 40
0
 40
0
 40
0
 40
1
 40
1
 40
1
 40
1
 10
327.512884
 20
233.462692
 30
0.0
 10
328.234455
 20
234.185892
 30
0.0
 10
329.213114
 20
234.592176
 30
0.0
 10
330.233564
 20
234.592165
 30
0.0
  0
SPLINE
  5
181
100
AcDbEntity
  8
Capa_1
 62
7
100
AcDbSpline
 70
8
 71
3
 72
8
 73
4
 74
0
 40
0
 40
0
 40
0
 40
0
 40
1
 40
1
 40
1
 40
1
 10
330.233564
 20
234.592165
 30
0.0
 10
332.358513
 20
234.592145
 30
0.0
 10
334.081114
 20
232.865621
 30
0.0
 10
334.081114
 20
230.735853
 30
0.0
  0
SPLINE
  5
182
100
AcDbEntity
  8
Capa_1
 62
7
100
AcDbSpline
 70
8
 71
3
 72
8
 73
4
 74
0
 40
0
 40
0
 40
0
 40
0
 40
1
 40
1
 40
1
 40
1
 10
334.081114
 20
230.735853
 30
0.0
 10
334.081114
 20
228.606084
 30
0.0
 10
332.358513
 20
226.879560
 30
0.0
 10
330.233564
 20
226.879541
 30
0.0
  0
LWPOLYLINE
  5
183
100
AcDbEntity
  8
Capa_1
 62
7
100
AcDbPolyline
 90
2
 70
1
 10
236.694652
 20
90.245301
 30
0.0
 10
236.694652
 20
90.245301
 30
0.0
  0
SPLINE
  5
184
100
AcDbEntity
  8
Capa_1
 62
7
100
AcDbSpline
 70
8
 71
3
 72
8
 73
4
 74
0
 40
0
 40
0
 40
0
 40
0
 40
1
 40
1
 40
1
 40
1
 10
330.233564
 20
90.245301
 30
0.0
 10
329.213112
 20
90.245290
 30
0.0
 10
328.234452
 20
90.651575
 30
0.0
 10
327.512881
 20
91.374777
 30
0.0
  0
SPLINE
  5
185
100
AcDbEntity
  8
Capa_1
 62
7
100
AcDbSpline
 70
8
 71
3
 72
8
 73
4
 74
0
 40
0
 40
0
 40
0
 40
0
 40
1
 40
1
 40
1
 40
1
 10
327.512881
 20
91.374777
 30
0.0
 10
326.791310
 20
92.097978
 30
0.0
 10
326.385935
 20
93.078855
 30
0.0
 10
326.385937
 20
94.101621
 30
0.0
  0
SPLINE
  5
186
100
AcDbEntity
  8
Capa_1
 62
7
100
AcDbSpline
 70
8
 71
3
 72
8
 73
4
 74
0
 40
0
 40
0
 40
0
 40
0
 40
1
 40
1
 40
1
 40
1
 10
326.385937
 20
94.101621
 30
0.0
 10
326.385935
 20
95.124387
 30
0.0
 10
326.791310
 20
96.105263
 30
0.0
 10
327.512881
 20
96.828465
 30
0.0
  0
SPLINE
  5
187
100
AcDbEntity
  8
Capa_1
 62
7
100
AcDbSpline
 70
8
 71
3
 72
8
 73
4
 74
0
 40
0
 40
0
 40
0
 40
0
 40
1
 40
1
 40
1
 40
1
 10
327.512881
 20
96.828465
 30
0.0
 10
328.234452
 20
97.551666
 30
0.0
 10
329.213112
 20
97.957952
 30
0.0
 10
330.233564
 20
97.957941
 30
0.0
  0
SPLINE
  5
188
100
AcDbEntity
  8
Capa_1
 62
7
100
AcDbSpline
 70
8
 71
3
 72
8
 73
4
 74
0
 40
0
 40
0
 40
0
 40
0
 40
1
 40
1
 40
1
 40
1
 10
330.233564
 20
97.957941
 30
0.0
 10
332.358516
 20
97.957921
 30
0.0
 10
334.081118
 20
96.231392
 30
0.0
 10
334.081114
 20
94.101621
 30
0.0
  0
SPLINE
  5
189
100
AcDbEntity
  8
Capa_1
 62
7
100
AcDbSpline
 70
8
 71
3
 72
8
 73
4
 74
0
 40
0
 40
0
 40
0
 40
0
 40
1
 40
1
 40
1
 40
1
 10
334.081114
 20
94.101621
 30
0.0
 10
334.081118
 20
91.971849
 30
0.0
 10
332.358516
 20
90.245320
 30
0.0
 10
330.233564
 20
90.245301
 30
0.0
  0
LWPOLYLINE
  5
18a
100
AcDbEntity
  8
Capa_1
 62
7
100
AcDbPolyline
 90
2
 70
1
 10
330.233564
 20
226.879541
 30
0.0
 10
330.233564
 20
226.879541
 30
0.0
  0
LWPOLYLINE
  5
18b
100
AcDbEntity
  8
Capa_1
 62
7
100
AcDbPolyline
 90
2
 70
1
 10
330.233564
 20
90.245301
 30
0.0
 10
330.233564
 20
90.245301
 30
0.0
  0
SPLINE
  5
18c
100
AcDbEntity
  8
Capa_1
 62
7
100
AcDbSpline
 70
8
 71
3
 72
8
 73
4
 74
0
 40
0
 40
0
 40
0
 40
0
 40
1
 40
1
 40
1
 40
1
 10
323.935284
 20
68.386813
 30
0.0
 10
325.943964
 20
68.386813
 30
0.0
 10
327.756788
 20
67.578005
 30
0.0
 10
329.067172
 20
66.266957
 30
0.0
  0
SPLINE
  5
18d
100
AcDbEntity
  8
Capa_1
 62
7
100
AcDbSpline
 70
8
 71
3
 72
8
 73
4
 74
0
 40
0
 40
0
 40
0
 40
0
 40
1
 40
1
 40
1
 40
1
 10
329.067172
 20
66.266957
 30
0.0
 10
330.376716
 20
64.956765
 30
0.0
 10
331.184476
 20
63.144997
 30
0.0
 10
331.184476
 20
61.137621
 30
0.0
  0
LWPOLYLINE
  5
18e
100
AcDbEntity
  8
Capa_1
 62
7
100
AcDbPolyline
 90
2
 70
1
 10
243.158588
 20
68.386813
 30
0.0
 10
323.935284
 20
68.386813
 30
0.0
  0
SPLINE
  5
18f
100
AcDbEntity
  8
Capa_1
 62
7
100
AcDbSpline
 70
8
 71
3
 72
8
 73
4
 74
0
 40
0
 40
0
 40
0
 40
0
 40
1
 40
1
 40
1
 40
1
 10
331.184476
 20
59.584221
 30
0.0
 10
331.184476
 20
57.414021
 30
0.0
 10
330.240356
 20
55.472437
 30
0.0
 10
328.738764
 20
54.146117
 30
0.0
  0
SPLINE
  5
190
100
AcDbEntity
  8
Capa_1
 62
7
100
AcDbSpline
 70
8
 71
3
 72
8
 73
4
 74
0
 40
0
 40
0
 40
0
 40
0
 40
1
 40
1
 40
1
 40
1
 10
328.738764
 20
54.146117
 30
0.0
 10
327.461596
 20
53.018029
 30
0.0
 10
325.781140
 20
52.335029
 30
0.0
 10
323.935284
 20
52.335029
 30
0.0
  0
LWPOLYLINE
  5
191
100
AcDbEntity
  8
Capa_1
 62
7
100
AcDbPolyline
 90
2
 70
1
 10
331.184476
 20
61.137621
 30
0.0
 10
331.184476
 20
59.584221
 30
0.0
  0
SPLINE
  5
192
100
AcDbEntity
  8
Capa_1
 62
7
100
AcDbSpline
 70
8
 71
3
 72
8
 73
4
 74
0
 40
0
 40
0
 40
0
 40
0
 40
1
 40
1
 40
1
 40
1
 10
243.158588
 20
52.335029
 30
0.0
 10
241.606332
 20
52.335029
 30
0.0
 10
240.171036
 20
52.818037
 30
0.0
 10
238.994188
 20
53.642565
 30
0.0
  0
SPLINE
  5
193
100
AcDbEntity
  8
Capa_1
 62
7
100
AcDbSpline
 70
8
 71
3
 72
8
 73
4
 74
0
 40
0
 40
0
 40
0
 40
0
 40
1
 40
1
 40
1
 40
1
 10
238.994188
 20
53.642565
 30
0.0
 10
237.126244
 20
54.951293
 30
0.0
 10
235.909396
 20
57.120429
 30
0.0
 10
235.909396
 20
59.584221
 30
0.0
  0
LWPOLYLINE
  5
194
100
AcDbEntity
  8
Capa_1
 62
7
100
AcDbPolyline
 90
2
 70
1
 10
323.935284
 20
52.335029
 30
0.0
 10
243.158588
 20
52.335029
 30
0.0
  0
SPLINE
  5
195
100
AcDbEntity
  8
Capa_1
 62
7
100
AcDbSpline
 70
8
 71
3
 72
8
 73
4
 74
0
 40
0
 40
0
 40
0
 40
0
 40
1
 40
1
 40
1
 40
1
 10
235.909396
 20
61.137621
 30
0.0
 10
235.909396
 20
63.682997
 30
0.0
 10
237.208156
 20
65.913869
 30
0.0
 10
239.181852
 20
67.206421
 30
0.0
  0
SPLINE
  5
196
100
AcDbEntity
  8
Capa_1
 62
7
100
AcDbSpline
 70
8
 71
3
 72
8
 73
4
 74
0
 40
0
 40
0
 40
0
 40
0
 40
1
 40
1
 40
1
 40
1
 10
239.181852
 20
67.206421
 30
0.0
 10
240.322228
 20
67.953245
 30
0.0
 10
241.687916
 20
68.386813
 30
0.0
 10
243.158588
 20
68.386813
 30
0.0
  0
LWPOLYLINE
  5
197
100
AcDbEntity
  8
Capa_1
 62
7
100
AcDbPolyline
 90
2
 70
1
 10
235.909396
 20
59.584221
 30
0.0
 10
235.909396
 20
61.137621
 30
0.0
  0
SPLINE
  5
198
100
AcDbEntity
  8
Capa_1
 62
7
100
AcDbSpline
 70
8
 71
3
 72
8
 73
4
 74
0
 40
0
 40
0
 40
0
 40
0
 40
1
 40
1
 40
1
 40
1
 10
283.464068
 20
453.142997
 30
0.0
 10
272.632340
 20
453.142989
 30
0.0
 10
261.978292
 20
452.807773
 30
0.0
 10
251.552452
 20
452.114141
 30
0.0
  0
SPLINE
  5
199
100
AcDbEntity
  8
Capa_1
 62
7
100
AcDbSpline
 70
8
 71
3
 72
8
 73
4
 74
0
 40
0
 40
0
 40
0
 40
0
 40
1
 40
1
 40
1
 40
1
 10
251.552452
 20
452.114141
 30
0.0
 10
234.854436
 20
451.003221
 30
0.0
 10
218.741796
 20
448.972909
 30
0.0
 10
203.422052
 20
445.927781
 30
0.0
  0
SPLINE
  5
19a
100
AcDbEntity
  8
Capa_1
 62
7
100
AcDbSpline
 70
8
 71
3
 72
8
 73
4
 74
0
 40
0
 40
0
 40
0
 40
0
 40
1
 40
1
 40
1
 40
1
 10
203.422052
 20
445.927781
 30
0.0
 10
196.871372
 20
444.625701
 30
0.0
 10
190.465668
 20
443.138069
 30
0.0
 10
184.221164
 20
441.457429
 30
0.0
  0
SPLINE
  5
19b
100
AcDbEntity
  8
Capa_1
 62
7
100
AcDbSpline
 70
8
 71
3
 72
8
 73
4
 74
0
 40
0
 40
0
 40
0
 40
0
 40
1
 40
1
 40
1
 40
1
 10
184.221164
 20
441.457429
 30
0.0
 10
176.967980
 20
439.505317
 30
0.0
 10
169.932292
 20
437.292813
 30
0.0
 10
163.139500
 20
434.808229
 30
0.0
  0
SPLINE
  5
19c
100
AcDbEntity
  8
Capa_1
 62
7
100
AcDbSpline
 70
8
 71
3
 72
8
 73
4
 74
0
 40
0
 40
0
 40
0
 40
0
 40
1
 40
1
 40
1
 40
1
 10
163.139500
 20
434.808229
 30
0.0
 10
155.836548
 20
432.137037
 30
0.0
 10
148.814356
 20
429.151357
 30
0.0
 10
142.104532
 20
425.836669
 30
0.0
  0
SPLINE
  5
19d
100
AcDbEntity
  8
Capa_1
 62
7
100
AcDbSpline
 70
8
 71
3
 72
8
 73
4
 74
0
 40
0
 40
0
 40
0
 40
0
 40
1
 40
1
 40
1
 40
1
 10
142.104532
 20
425.836669
 30
0.0
 10
132.446916
 20
421.065749
 30
0.0
 10
123.436412
 20
415.613237
 30
0.0
 10
115.167236
 20
409.435805
 30
0.0
  0
SPLINE
  5
19e
100
AcDbEntity
  8
Capa_1
 62
7
100
AcDbSpline
 70
8
 71
3
 72
8
 73
4
 74
0
 40
0
 40
0
 40
0
 40
0
 40
1
 40
1
 40
1
 40
1
 10
115.167236
 20
409.435805
 30
0.0
 10
107.413556
 20
403.643469
 30
0.0
 10
100.311652
 20
397.213781
 30
0.0
 10
93.939204
 20
390.111045
 30
0.0
  0
SPLINE
  5
19f
100
AcDbEntity
  8
Capa_1
 62
7
100
AcDbSpline
 70
8
 71
3
 72
8
 73
4
 74
0
 40
0
 40
0
 40
0
 40
0
 40
1
 40
1
 40
1
 40
1
 10
93.939204
 20
390.111045
 30
0.0
 10
81.195804
 20
375.907221
 30
0.0
 10
71.369532
 20
359.011813
 30
0.0
 10
65.081551
 20
339.139253
 30
0.0
  0
SPLINE
  5
1a0
100
AcDbEntity
  8
Capa_1
 62
7
100
AcDbSpline
 70
8
 71
3
 72
8
 73
4
 74
0
 40
0
 40
0
 40
0
 40
0
 40
1
 40
1
 40
1
 40
1
 10
65.081551
 20
339.139253
 30
0.0
 10
59.872971
 20
322.678045
 30
0.0
 10
57.092171
 20
304.174069
 30
0.0
 10
57.092192
 20
283.465053
 30
0.0
  0
SPLINE
  5
1a1
100
AcDbEntity
  8
Capa_1
 62
7
100
AcDbSpline
 70
8
 71
3
 72
8
 73
4
 74
0
 40
0
 40
0
 40
0
 40
0
 40
1
 40
1
 40
1
 40
1
 10
57.092192
 20
283.465053
 30
0.0
 10
57.106288
 20
272.544605
 30
0.0
 10
57.901753
 20
261.771493
 30
0.0
 10
59.431480
 20
251.206365
 30
0.0
  0
SPLINE
  5
1a2
100
AcDbEntity
  8
Capa_1
 62
7
100
AcDbSpline
 70
8
 71
3
 72
8
 73
4
 74
0
 40
0
 40
0
 40
0
 40
0
 40
1
 40
1
 40
1
 40
1
 10
59.431480
 20
251.206365
 30
0.0
 10
61.639970
 20
235.953325
 30
0.0
 10
65.378893
 20
221.133781
 30
0.0
 10
70.506500
 20
206.930221
 30
0.0
  0
SPLINE
  5
1a3
100
AcDbEntity
  8
Capa_1
 62
7
100
AcDbSpline
 70
8
 71
3
 72
8
 73
4
 74
0
 40
0
 40
0
 40
0
 40
0
 40
1
 40
1
 40
1
 40
1
 10
70.506500
 20
206.930221
 30
0.0
 10
73.213692
 20
199.431277
 30
0.0
 10
76.307964
 20
192.104029
 30
0.0
 10
79.768468
 20
184.975349
 30
0.0
  0
SPLINE
  5
1a4
100
AcDbEntity
  8
Capa_1
 62
7
100
AcDbSpline
 70
8
 71
3
 72
8
 73
4
 74
0
 40
0
 40
0
 40
0
 40
0
 40
1
 40
1
 40
1
 40
1
 10
79.768468
 20
184.975349
 30
0.0
 10
84.529268
 20
175.168029
 30
0.0
 10
89.983228
 20
165.736525
 30
0.0
 10
96.076036
 20
156.750765
 30
0.0
  0
SPLINE
  5
1a5
100
AcDbEntity
  8
Capa_1
 62
7
100
AcDbSpline
 70
8
 71
3
 72
8
 73
4
 74
0
 40
0
 40
0
 40
0
 40
0
 40
1
 40
1
 40
1
 40
1
 10
96.076036
 20
156.750765
 30
0.0
 10
104.254876
 20
144.688477
 30
0.0
 10
113.584900
 20
133.429413
 30
0.0
 10
123.934716
 20
123.142733
 30
0.0
  0
SPLINE
  5
1a6
100
AcDbEntity
  8
Capa_1
 62
7
100
AcDbSpline
 70
8
 71
3
 72
8
 73
4
 74
0
 40
0
 40
0
 40
0
 40
0
 40
1
 40
1
 40
1
 40
1
 10
123.934716
 20
123.142733
 30
0.0
 10
129.945460
 20
117.168653
 30
0.0
 10
136.301980
 20
111.584701
 30
0.0
 10
142.977068
 20
106.373541
 30
0.0
  0
SPLINE
  5
1a7
100
AcDbEntity
  8
Capa_1
 62
7
100
AcDbSpline
 70
8
 71
3
 72
8
 73
4
 74
0
 40
0
 40
0
 40
0
 40
0
 40
1
 40
1
 40
1
 40
1
 10
142.977068
 20
106.373541
 30
0.0
 10
152.745532
 20
98.747421
 30
0.0
 10
163.196236
 20
91.919669
 30
0.0
 10
174.243852
 20
85.835981
 30
0.0
  0
SPLINE
  5
1a8
100
AcDbEntity
  8
Capa_1
 62
7
100
AcDbSpline
 70
8
 71
3
 72
8
 73
4
 74
0
 40
0
 40
0
 40
0
 40
0
 40
1
 40
1
 40
1
 40
1
 10
174.243852
 20
85.835981
 30
0.0
 10
176.181180
 20
84.769133
 30
0.0
 10
178.070972
 20
84.931221
 30
0.0
 10
179.541004
 20
84.938381
 30
0.0
  0
SPLINE
  5
1a9
100
AcDbEntity
  8
Capa_1
 62
7
100
AcDbSpline
 70
8
 71
3
 72
8
 73
4
 74
0
 40
0
 40
0
 40
0
 40
0
 40
1
 40
1
 40
1
 40
1
 10
179.541004
 20
84.938381
 30
0.0
 10
180.633100
 20
84.943981
 30
0.0
 10
184.268612
 20
84.970781
 30
0.0
 10
202.518900
 20
84.911501
 30
0.0
  0
SPLINE
  5
1aa
100
AcDbEntity
  8
Capa_1
 62
7
100
AcDbSpline
 70
8
 71
3
 72
8
 73
4
 74
0
 40
0
 40
0
 40
0
 40
0
 40
1
 40
1
 40
1
 40
1
 10
202.518900
 20
84.911501
 30
0.0
 10
207.934508
 20
84.965741
 30
0.0
 10
212.252100
 20
84.964301
 30
0.0
 10
218.820372
 20
85.003213
 30
0.0
  0
SPLINE
  5
1ab
100
AcDbEntity
  8
Capa_1
 62
7
100
AcDbSpline
 70
8
 71
3
 72
8
 73
4
 74
0
 40
0
 40
0
 40
0
 40
0
 40
1
 40
1
 40
1
 40
1
 10
218.820372
 20
85.003213
 30
0.0
 10
219.547756
 20
85.007213
 30
0.0
 10
220.219236
 20
84.945213
 30
0.0
 10
220.932396
 20
85.008013
 30
0.0
  0
SPLINE
  5
1ac
100
AcDbEntity
  8
Capa_1
 62
7
100
AcDbSpline
 70
8
 71
3
 72
8
 73
4
 74
0
 40
0
 40
0
 40
0
 40
0
 40
1
 40
1
 40
1
 40
1
 10
220.932396
 20
85.008013
 30
0.0
 10
221.434724
 20
85.052173
 30
0.0
 10
221.769212
 20
85.086893
 30
0.0
 10
222.512060
 20
85.362037
 30
0.0
  0
LWPOLYLINE
  5
1ad
100
AcDbEntity
  8
Capa_1
 62
7
100
AcDbPolyline
 90
2
 70
1
 10
243.158588
 20
68.386813
 30
0.0
 10
243.158588
 20
68.386813
 30
0.0
  0
SPLINE
  5
1ae
100
AcDbEntity
  8
Capa_1
 62
7
100
AcDbSpline
 70
8
 71
3
 72
8
 73
4
 74
0
 40
0
 40
0
 40
0
 40
0
 40
1
 40
1
 40
1
 40
1
 10
345.383380
 20
85.095421
 30
0.0
 10
346.681012
 20
84.878597
 30
0.0
 10
347.975028
 20
85.002749
 30
0.0
 10
348.866740
 20
84.982037
 30
0.0
  0
SPLINE
  5
1af
100
AcDbEntity
  8
Capa_1
 62
7
100
AcDbSpline
 70
8
 71
3
 72
8
 73
4
 74
0
 40
0
 40
0
 40
0
 40
0
 40
1
 40
1
 40
1
 40
1
 10
348.866740
 20
84.982037
 30
0.0
 10
350.682260
 20
84.939877
 30
0.0
 10
352.373252
 20
84.958997
 30
0.0
 10
353.708788
 20
84.967077
 30
0.0
  0
SPLINE
  5
1b0
100
AcDbEntity
  8
Capa_1
 62
7
100
AcDbSpline
 70
8
 71
3
 72
8
 73
4
 74
0
 40
0
 40
0
 40
0
 40
0
 40
1
 40
1
 40
1
 40
1
 10
353.708788
 20
84.967077
 30
0.0
 10
356.443356
 20
84.983557
 30
0.0
 10
358.040908
 20
84.906117
 30
0.0
 10
360.654052
 20
84.866605
 30
0.0
  0
SPLINE
  5
1b1
100
AcDbEntity
  8
Capa_1
 62
7
100
AcDbSpline
 70
8
 71
3
 72
8
 73
4
 74
0
 40
0
 40
0
 40
0
 40
0
 40
1
 40
1
 40
1
 40
1
 10
360.654052
 20
84.866605
 30
0.0
 10
366.667196
 20
84.989173
 30
0.0
 10
385.732540
 20
84.922205
 30
0.0
 10
385.732540
 20
84.922205
 30
0.0
  0
SPLINE
  5
1b2
100
AcDbEntity
  8
Capa_1
 62
7
100
AcDbSpline
 70
8
 71
3
 72
8
 73
4
 74
0
 40
0
 40
0
 40
0
 40
0
 40
1
 40
1
 40
1
 40
1
 10
385.732540
 20
84.922205
 30
0.0
 10
385.875468
 20
84.924605
 30
0.0
 10
386.549700
 20
84.942045
 30
0.0
 10
386.692348
 20
84.952125
 30
0.0
  0
SPLINE
  5
1b3
100
AcDbEntity
  8
Capa_1
 62
7
100
AcDbSpline
 70
8
 71
3
 72
8
 73
4
 74
0
 40
0
 40
0
 40
0
 40
0
 40
1
 40
1
 40
1
 40
1
 10
386.692348
 20
84.952125
 30
0.0
 10
388.883444
 20
85.106701
 30
0.0
 10
390.580292
 20
84.481701
 30
0.0
 10
392.780444
 20
85.773197
 30
0.0
  0
SPLINE
  5
1b4
100
AcDbEntity
  8
Capa_1
 62
7
100
AcDbSpline
 70
8
 71
3
 72
8
 73
4
 74
0
 40
0
 40
0
 40
0
 40
0
 40
1
 40
1
 40
1
 40
1
 10
392.780444
 20
85.773197
 30
0.0
 10
399.756404
 20
89.868117
 30
0.0
 10
406.794468
 20
94.306101
 30
0.0
 10
413.642812
 20
99.052685
 30
0.0
  0
SPLINE
  5
1b5
100
AcDbEntity
  8
Capa_1
 62
7
100
AcDbSpline
 70
8
 71
3
 72
8
 73
4
 74
0
 40
0
 40
0
 40
0
 40
0
 40
1
 40
1
 40
1
 40
1
 10
413.642812
 20
99.052685
 30
0.0
 10
424.447196
 20
106.541197
 30
0.0
 10
434.779348
 20
114.797829
 30
0.0
 10
443.650372
 20
123.687237
 30
0.0
  0
SPLINE
  5
1b6
100
AcDbEntity
  8
Capa_1
 62
7
100
AcDbSpline
 70
8
 71
3
 72
8
 73
4
 74
0
 40
0
 40
0
 40
0
 40
0
 40
1
 40
1
 40
1
 40
1
 10
443.650372
 20
123.687237
 30
0.0
 10
453.814524
 20
133.872461
 30
0.0
 10
462.984108
 20
144.999861
 30
0.0
 10
471.033132
 20
156.907149
 30
0.0
  0
SPLINE
  5
1b7
100
AcDbEntity
  8
Capa_1
 62
7
100
AcDbSpline
 70
8
 71
3
 72
8
 73
4
 74
0
 40
0
 40
0
 40
0
 40
0
 40
1
 40
1
 40
1
 40
1
 10
471.033132
 20
156.907149
 30
0.0
 10
477.104524
 20
165.888837
 30
0.0
 10
482.538356
 20
175.314261
 30
0.0
 10
487.280548
 20
185.113773
 30
0.0
  0
SPLINE
  5
1b8
100
AcDbEntity
  8
Capa_1
 62
7
100
AcDbSpline
 70
8
 71
3
 72
8
 73
4
 74
0
 40
0
 40
0
 40
0
 40
0
 40
1
 40
1
 40
1
 40
1
 10
487.280548
 20
185.113773
 30
0.0
 10
493.663916
 20
198.304709
 30
0.0
 10
498.794092
 20
212.173461
 30
0.0
 10
502.539196
 20
226.550165
 30
0.0
  0
SPLINE
  5
1b9
100
AcDbEntity
  8
Capa_1
 62
7
100
AcDbSpline
 70
8
 71
3
 72
8
 73
4
 74
0
 40
0
 40
0
 40
0
 40
0
 40
1
 40
1
 40
1
 40
1
 10
502.539196
 20
226.550165
 30
0.0
 10
505.030052
 20
236.112101
 30
0.0
 10
506.908220
 20
245.898725
 30
0.0
 10
508.134884
 20
255.860069
 30
0.0
  0
SPLINE
  5
1ba
100
AcDbEntity
  8
Capa_1
 62
7
100
AcDbSpline
 70
8
 71
3
 72
8
 73
4
 74
0
 40
0
 40
0
 40
0
 40
0
 40
1
 40
1
 40
1
 40
1
 10
508.134884
 20
255.860069
 30
0.0
 10
509.251716
 20
264.929477
 30
0.0
 10
509.828492
 20
274.143709
 30
0.0
 10
509.835940
 20
283.465053
 30
0.0
  0
SPLINE
  5
1bb
100
AcDbEntity
  8
Capa_1
 62
7
100
AcDbSpline
 70
8
 71
3
 72
8
 73
4
 74
0
 40
0
 40
0
 40
0
 40
0
 40
1
 40
1
 40
1
 40
1
 10
509.835940
 20
283.465053
 30
0.0
 10
509.835956
 20
299.546613
 30
0.0
 10
508.159060
 20
314.298477
 30
0.0
 10
504.970572
 20
327.796629
 30
0.0
  0
SPLINE
  5
1bc
100
AcDbEntity
  8
Capa_1
 62
7
100
AcDbSpline
 70
8
 71
3
 72
8
 73
4
 74
0
 40
0
 40
0
 40
0
 40
0
 40
1
 40
1
 40
1
 40
1
 10
504.970572
 20
327.796629
 30
0.0
 10
502.356548
 20
338.862845
 30
0.0
 10
498.726548
 20
349.086413
 30
0.0
 10
494.171676
 20
358.509213
 30
0.0
  0
SPLINE
  5
1bd
100
AcDbEntity
  8
Capa_1
 62
7
100
AcDbSpline
 70
8
 71
3
 72
8
 73
4
 74
0
 40
0
 40
0
 40
0
 40
0
 40
1
 40
1
 40
1
 40
1
 10
494.171676
 20
358.509213
 30
0.0
 10
487.253892
 20
372.820221
 30
0.0
 10
478.202748
 20
385.284141
 30
0.0
 10
467.337380
 20
396.047685
 30
0.0
  0
SPLINE
  5
1be
100
AcDbEntity
  8
Capa_1
 62
7
100
AcDbSpline
 70
8
 71
3
 72
8
 73
4
 74
0
 40
0
 40
0
 40
0
 40
0
 40
1
 40
1
 40
1
 40
1
 10
467.337380
 20
396.047685
 30
0.0
 10
455.047644
 20
408.222245
 30
0.0
 10
440.436836
 20
418.221389
 30
0.0
 10
423.966780
 20
426.257429
 30
0.0
  0
SPLINE
  5
1bf
100
AcDbEntity
  8
Capa_1
 62
7
100
AcDbSpline
 70
8
 71
3
 72
8
 73
4
 74
0
 40
0
 40
0
 40
0
 40
0
 40
1
 40
1
 40
1
 40
1
 10
423.966780
 20
426.257429
 30
0.0
 10
413.939092
 20
431.150125
 30
0.0
 10
403.222188
 20
435.315109
 30
0.0
 10
391.920316
 20
438.800293
 30
0.0
  0
SPLINE
  5
1c0
100
AcDbEntity
  8
Capa_1
 62
7
100
AcDbSpline
 70
8
 71
3
 72
8
 73
4
 74
0
 40
0
 40
0
 40
0
 40
0
 40
1
 40
1
 40
1
 40
1
 10
391.920316
 20
438.800293
 30
0.0
 10
383.411532
 20
441.424173
 30
0.0
 10
374.571188
 20
443.662741
 30
0.0
 10
365.443748
 20
445.536445
 30
0.0
  0
SPLINE
  5
1c1
100
AcDbEntity
  8
Capa_1
 62
7
100
AcDbSpline
 70
8
 71
3
 72
8
 73
4
 74
0
 40
0
 40
0
 40
0
 40
0
 40
1
 40
1
 40
1
 40
1
 10
365.443748
 20
445.536445
 30
0.0
 10
352.254180
 20
448.244029
 30
0.0
 10
338.465116
 20
450.189717
 30
0.0
 10
324.210772
 20
451.435221
 30
0.0
  0
SPLINE
  5
1c2
100
AcDbEntity
  8
Capa_1
 62
7
100
AcDbSpline
 70
8
 71
3
 72
8
 73
4
 74
0
 40
0
 40
0
 40
0
 40
0
 40
1
 40
1
 40
1
 40
1
 10
324.210772
 20
451.435221
 30
0.0
 10
310.992948
 20
452.590149
 30
0.0
 10
297.375044
 20
453.143013
 30
0.0
 10
283.464068
 20
453.142997
 30
0.0
  0
LWPOLYLINE
  5
1c3
100
AcDbEntity
  8
Capa_1
 62
7
100
AcDbPolyline
 90
13
 70
1
 10
222.512060
 20
85.362037
 30
0.0
 10
224.109484
 20
86.303069
 30
0.0
 10
225.477780
 20
87.446301
 30
0.0
 10
226.456828
 20
88.879765
 30
0.0
 10
227.171876
 20
90.665125
 30
0.0
 10
227.171876
 20
241.727701
 30
0.0
 10
339.757820
 20
241.727701
 30
0.0
 10
339.757820
 20
91.008013
 30
0.0
 10
340.301924
 20
88.857509
 30
0.0
 10
341.246548
 20
87.651013
 30
0.0
 10
342.410668
 20
86.463421
 30
0.0
 10
343.881340
 20
85.556125
 30
0.0
 10
345.383380
 20
85.095421
 30
0.0
  0
LWPOLYLINE
  5
1c4
100
AcDbEntity
  8
Capa_1
 62
7
100
AcDbPolyline
 90
2
 70
1
 10
283.464068
 20
453.142997
 30
0.0
 10
283.464068
 20
453.142997
 30
0.0
  0
LWPOLYLINE
  5
1c5
100
AcDbEntity
  8
Capa_1
 62
7
100
AcDbPolyline
 90
10
 70
1
 10
406.514652
 20
231.829637
 30
0.0
 10
384.637084
 20
231.986301
 30
0.0
 10
384.614764
 20
228.867629
 30
0.0
 10
376.910276
 20
228.922829
 30
0.0
 10
376.777988
 20
210.448309
 30
0.0
 10
384.482468
 20
210.393109
 30
0.0
 10
384.460148
 20
207.274437
 30
0.0
 10
406.337716
 20
207.117773
 30
0.0
 10
406.514676
 20
231.829637
 30
0.0
 10
406.514652
 20
231.829637
 30
0.0
  0
LWPOLYLINE
  5
1c6
100
AcDbEntity
  8
Capa_1
 62
7
100
AcDbPolyline
 90
10
 70
1
 10
406.336860
 20
207.001589
 30
0.0
 10
384.459292
 20
207.158253
 30
0.0
 10
384.436972
 20
204.039581
 30
0.0
 10
376.732492
 20
204.094781
 30
0.0
 10
376.600196
 20
185.620261
 30
0.0
 10
384.304676
 20
185.565061
 30
0.0
 10
384.282356
 20
182.446389
 30
0.0
 10
406.159916
 20
182.289733
 30
0.0
 10
406.336876
 20
207.001589
 30
0.0
 10
406.336860
 20
207.001589
 30
0.0
  0
LWPOLYLINE
  5
1c7
100
AcDbEntity
  8
Capa_1
 62
7
100
AcDbPolyline
 90
10
 70
1
 10
406.160964
 20
182.437477
 30
0.0
 10
384.283396
 20
182.594141
 30
0.0
 10
384.261076
 20
179.475469
 30
0.0
 10
376.556596
 20
179.530669
 30
0.0
 10
376.424300
 20
161.056157
 30
0.0
 10
384.128788
 20
161.000957
 30
0.0
 10
384.106468
 20
157.882285
 30
0.0
 10
405.984036
 20
157.725621
 30
0.0
 10
406.160996
 20
182.437485
 30
0.0
 10
406.160964
 20
182.437477
 30
0.0
  0
LWPOLYLINE
  5
1c8
100
AcDbEntity
  8
Capa_1
 62
7
100
AcDbPolyline
 90
10
 70
1
 10
405.983172
 20
157.609437
 30
0.0
 10
384.105604
 20
157.766101
 30
0.0
 10
384.083284
 20
154.647429
 30
0.0
 10
376.378804
 20
154.702629
 30
0.0
 10
376.246508
 20
136.228109
 30
0.0
 10
383.950996
 20
136.172909
 30
0.0
 10
383.928676
 20
133.054237
 30
0.0
 10
405.806244
 20
132.897573
 30
0.0
 10
405.983204
 20
157.609437
 30
0.0
 10
405.983172
 20
157.609437
 30
0.0
  0
LWPOLYLINE
  5
1c9
100
AcDbEntity
  8
Capa_1
 62
7
100
AcDbPolyline
 90
10
 70
1
 10
155.609924
 20
134.546709
 30
0.0
 10
177.487252
 20
134.734141
 30
0.0
 10
177.460532
 20
137.852781
 30
0.0
 10
185.164932
 20
137.918781
 30
0.0
 10
185.006652
 20
156.393093
 30
0.0
 10
177.302252
 20
156.327093
 30
0.0
 10
177.275532
 20
159.445733
 30
0.0
 10
155.398212
 20
159.258301
 30
0.0
 10
155.609924
 20
134.546709
 30
0.0
 10
155.609924
 20
134.546709
 30
0.0
  0
LWPOLYLINE
  5
1ca
100
AcDbEntity
  8
Capa_1
 62
7
100
AcDbPolyline
 90
10
 70
1
 10
155.397212
 20
159.374477
 30
0.0
 10
177.274540
 20
159.561909
 30
0.0
 10
177.247820
 20
162.680549
 30
0.0
 10
184.952220
 20
162.746549
 30
0.0
 10
184.793940
 20
181.220861
 30
0.0
 10
177.089540
 20
181.154861
 30
0.0
 10
177.062820
 20
184.273501
 30
0.0
 10
155.185500
 20
184.086069
 30
0.0
 10
155.397212
 20
159.374477
 30
0.0
 10
155.397212
 20
159.374477
 30
0.0
  0
LWPOLYLINE
  5
1cb
100
AcDbEntity
  8
Capa_1
 62
7
100
AcDbPolyline
 90
10
 70
1
 10
155.186764
 20
183.938317
 30
0.0
 10
177.064092
 20
184.125749
 30
0.0
 10
177.037372
 20
187.244389
 30
0.0
 10
184.741764
 20
187.310389
 30
0.0
 10
184.583492
 20
205.784701
 30
0.0
 10
176.879092
 20
205.718701
 30
0.0
 10
176.852372
 20
208.837341
 30
0.0
 10
154.975052
 20
208.649909
 30
0.0
 10
155.186764
 20
183.938317
 30
0.0
 10
155.186764
 20
183.938317
 30
0.0
  0
LWPOLYLINE
  5
1cc
100
AcDbEntity
  8
Capa_1
 62
7
100
AcDbPolyline
 90
10
 70
1
 10
154.974052
 20
208.766085
 30
0.0
 10
176.851380
 20
208.953525
 30
0.0
 10
176.824660
 20
212.072157
 30
0.0
 10
184.529060
 20
212.138157
 30
0.0
 10
184.370780
 20
230.612469
 30
0.0
 10
176.666380
 20
230.546469
 30
0.0
 10
176.639660
 20
233.665101
 30
0.0
 10
154.762340
 20
233.477669
 30
0.0
 10
154.974052
 20
208.766077
 30
0.0
 10
154.974052
 20
208.766085
 30
0.0
  0
LWPOLYLINE
  5
1cd
100
AcDbEntity
  8
Capa_1
 62
7
100
AcDbPolyline
 90
10
 70
1
 10
88.880380
 20
229.013829
 30
0.0
 10
110.757708
 20
229.201261
 30
0.0
 10
110.730988
 20
232.319901
 30
0.0
 10
118.435388
 20
232.385901
 30
0.0
 10
118.277108
 20
250.860213
 30
0.0
 10
110.572708
 20
250.794213
 30
0.0
 10
110.545988
 20
253.912853
 30
0.0
 10
88.668668
 20
253.725421
 30
0.0
 10
88.880380
 20
229.013829
 30
0.0
 10
88.880380
 20
229.013829
 30
0.0
  0
LWPOLYLINE
  5
1ce
100
AcDbEntity
  8
Capa_1
 62
7
100
AcDbPolyline
 90
10
 70
1
 10
88.667668
 20
253.841597
 30
0.0
 10
110.544996
 20
254.029029
 30
0.0
 10
110.518276
 20
257.147669
 30
0.0
 10
118.222676
 20
257.213669
 30
0.0
 10
118.064396
 20
275.687981
 30
0.0
 10
110.359996
 20
275.621981
 30
0.0
 10
110.333276
 20
278.740621
 30
0.0
 10
88.455956
 20
278.553189
 30
0.0
 10
88.667668
 20
253.841597
 30
0.0
 10
88.667668
 20
253.841597
 30
0.0
  0
LWPOLYLINE
  5
1cf
100
AcDbEntity
  8
Capa_1
 62
7
100
AcDbPolyline
 90
10
 70
1
 10
88.457220
 20
278.405437
 30
0.0
 10
110.334548
 20
278.592869
 30
0.0
 10
110.307828
 20
281.711509
 30
0.0
 10
118.012220
 20
281.777509
 30
0.0
 10
117.853948
 20
300.251821
 30
0.0
 10
110.149548
 20
300.185821
 30
0.0
 10
110.122828
 20
303.304461
 30
0.0
 10
88.245508
 20
303.117029
 30
0.0
 10
88.457220
 20
278.405437
 30
0.0
 10
88.457220
 20
278.405437
 30
0.0
  0
LWPOLYLINE
  5
1d0
100
AcDbEntity
  8
Capa_1
 62
7
100
AcDbPolyline
 90
10
 70
1
 10
88.244508
 20
303.233205
 30
0.0
 10
110.121836
 20
303.420645
 30
0.0
 10
110.095116
 20
306.539277
 30
0.0
 10
117.799516
 20
306.605277
 30
0.0
 10
117.641236
 20
325.079589
 30
0.0
 10
109.936836
 20
325.013589
 30
0.0
 10
109.910116
 20
328.132221
 30
0.0
 10
88.032796
 20
327.944789
 30
0.0
 10
88.244508
 20
303.233197
 30
0.0
 10
88.244508
 20
303.233205
 30
0.0
  0
LWPOLYLINE
  5
1d1
100
AcDbEntity
  8
Capa_1
 62
7
100
AcDbPolyline
 90
10
 70
1
 10
472.673556
 20
338.611189
 30
0.0
 10
450.795988
 20
338.767853
 30
0.0
 10
450.773668
 20
335.649181
 30
0.0
 10
443.069180
 20
335.704381
 30
0.0
 10
442.936892
 20
317.229853
 30
0.0
 10
450.641372
 20
317.174653
 30
0.0
 10
450.619052
 20
314.055981
 30
0.0
 10
472.496620
 20
313.899317
 30
0.0
 10
472.673580
 20
338.611189
 30
0.0
 10
472.673556
 20
338.611189
 30
0.0
  0
LWPOLYLINE
  5
1d2
100
AcDbEntity
  8
Capa_1
 62
7
100
AcDbPolyline
 90
10
 70
1
 10
472.495764
 20
313.783133
 30
0.0
 10
450.618196
 20
313.939797
 30
0.0
 10
450.595876
 20
310.821125
 30
0.0
 10
442.891396
 20
310.876325
 30
0.0
 10
442.759100
 20
292.401805
 30
0.0
 10
450.463580
 20
292.346605
 30
0.0
 10
450.441260
 20
289.227933
 30
0.0
 10
472.318820
 20
289.071277
 30
0.0
 10
472.495780
 20
313.783133
 30
0.0
 10
472.495764
 20
313.783133
 30
0.0
  0
LWPOLYLINE
  5
1d3
100
AcDbEntity
  8
Capa_1
 62
7
100
AcDbPolyline
 90
10
 70
1
 10
472.319868
 20
289.219021
 30
0.0
 10
450.442300
 20
289.375685
 30
0.0
 10
450.419980
 20
286.257013
 30
0.0
 10
442.715500
 20
286.312213
 30
0.0
 10
442.583204
 20
267.837701
 30
0.0
 10
450.287692
 20
267.782501
 30
0.0
 10
450.265372
 20
264.663829
 30
0.0
 10
472.142940
 20
264.507165
 30
0.0
 10
472.319900
 20
289.219029
 30
0.0
 10
472.319868
 20
289.219021
 30
0.0
  0
LWPOLYLINE
  5
1d4
100
AcDbEntity
  8
Capa_1
 62
7
100
AcDbPolyline
 90
10
 70
1
 10
472.142076
 20
264.390981
 30
0.0
 10
450.264508
 20
264.547645
 30
0.0
 10
450.242188
 20
261.428973
 30
0.0
 10
442.537708
 20
261.484173
 30
0.0
 10
442.405412
 20
243.009653
 30
0.0
 10
450.109900
 20
242.954453
 30
0.0
 10
450.087580
 20
239.835781
 30
0.0
 10
471.965148
 20
239.679117
 30
0.0
 10
472.142108
 20
264.390981
 30
0.0
 10
472.142076
 20
264.390981
 30
0.0
  0
ENDSEC
  0
SECTION
  2
OBJECTS
  0
DICTIONARY
  5
C
330
0
100
AcDbDictionary
  3
ACAD_GROUP
350
D
  3
ACAD_MLINESTYLE
350
17
  0
DICTIONARY
  5
D
330
C
100
AcDbDictionary
  0
DICTIONARY
  5
1A
330
C
100
AcDbDictionary
  0
DICTIONARY
  5
17
330
C
100
AcDbDictionary
  3
STANDARD
350
18
  0
DICTIONARY
  5
19
330
C
100
AcDbDictionary
  0
ENDSEC
  0
EOF
