<?xml version="1.0" encoding="UTF-8" standalone="no"?>
<!-- Created with Inkscape (http://www.inkscape.org/) -->

<svg
   xmlns:dc="http://purl.org/dc/elements/1.1/"
   xmlns:cc="http://creativecommons.org/ns#"
   xmlns:rdf="http://www.w3.org/1999/02/22-rdf-syntax-ns#"
   xmlns:svg="http://www.w3.org/2000/svg"
   xmlns="http://www.w3.org/2000/svg"
   xmlns:sodipodi="http://sodipodi.sourceforge.net/DTD/sodipodi-0.dtd"
   xmlns:inkscape="http://www.inkscape.org/namespaces/inkscape"
   width="210mm"
   height="210mm"
   viewBox="0 0 744.09449 744.09448"
   id="svg2"
   version="1.1"
   inkscape:version="0.91 r13725"
   sodipodi:docname="Alien_Intermedio_Base_01.svg">
  <defs
     id="defs4" />
  <sodipodi:namedview
     id="base"
     pagecolor="#ffffff"
     bordercolor="#666666"
     borderopacity="1.0"
     inkscape:pageopacity="0.0"
     inkscape:pageshadow="2"
     inkscape:zoom="0.94"
     inkscape:cx="173.87175"
     inkscape:cy="427.11321"
     inkscape:document-units="px"
     inkscape:current-layer="layer1"
     showgrid="false"
     fit-margin-top="0"
     fit-margin-left="0"
     fit-margin-right="0"
     fit-margin-bottom="0"
     inkscape:window-width="1920"
     inkscape:window-height="1017"
     inkscape:window-x="-8"
     inkscape:window-y="-8"
     inkscape:window-maximized="1"
     showguides="true"
     inkscape:guide-bbox="true" />
  <metadata
     id="metadata7">
    <rdf:RDF>
      <cc:Work
         rdf:about="">
        <dc:format>image/svg+xml</dc:format>
        <dc:type
           rdf:resource="http://purl.org/dc/dcmitype/StillImage" />
        <dc:title></dc:title>
      </cc:Work>
    </rdf:RDF>
  </metadata>
  <g
     inkscape:label="Capa 1"
     inkscape:groupmode="layer"
     id="layer1"
     transform="translate(3.3571472,-160.19629)">
    <path
       style="opacity:1;fill:none;fill-opacity:1;stroke:#000000;stroke-width:1;stroke-linecap:round;stroke-linejoin:round;stroke-miterlimit:10;stroke-dasharray:none;stroke-dashoffset:0;stroke-opacity:1"
       d="m 278.09207,171.8252 c -27.30306,6.84139 -53.41043,16.69939 -77.94141,29.20703 -17.11093,8.72438 -33.45646,18.73548 -48.9082,29.90625 -24.10808,17.42883 -46.04034,37.68053 -65.314451,60.26953 -10.420735,12.21296 -20.064008,25.10819 -28.853515,38.61133 -15.554856,23.89661 -28.43494,49.69372 -38.216797,76.96679 -14.0562932,39.19074 -21.7148442,81.42986 -21.7148442,125.45704 0,14.68799 0.8519439,29.1768 2.5097656,43.41992 1.8313621,15.73408 4.646519,31.16914 8.3808594,46.24023 4.3363292,17.50061 9.9122492,34.51064 16.6308592,50.93359 11.04564,26.99995 25.177731,52.41107 41.957032,75.79297 14.82318,20.65605 31.711934,39.72822 50.365231,56.91602 17.25776,15.9019 36.02648,30.19007 56.06445,42.625 26.23334,16.27959 54.64451,29.38378 84.69532,38.77344 35.03597,10.94732 72.30014,16.8457 110.94336,16.8457 28.09547,0 55.46385,-3.11775 81.77539,-9.02734 29.43114,-6.61026 57.54136,-16.71278 83.87304,-29.84961 27.60368,-13.77143 53.25135,-30.87816 76.41797,-50.79102 29.99356,-25.78097 55.82688,-56.26655 76.35352,-90.3125 18.15812,-30.11745 32.16338,-63.01956 41.22461,-97.91601 7.76849,-29.9179 11.90234,-61.30192 11.90234,-93.65039 0,-46.8145 -8.6567,-91.60712 -24.45898,-132.86329 -14.11359,-36.84737 -33.92667,-70.87269 -58.35938,-101 -21.6012,-26.63584 -46.8139,-50.22488 -74.89258,-70.01953 -12.11381,-8.53988 -24.76195,-16.37343 -37.88281,-23.4414 -17.30809,-9.32356 -35.43889,-17.31325 -54.25781,-23.83399 -10.17196,-3.52458 -20.55005,-6.60612 -31.10157,-9.25 -8.89264,7.45523 -18.70985,13.84469 -29.26757,18.94727 -18.54425,8.96245 -39.34906,13.98633 -61.32617,13.98633 -15.95288,0 -31.28696,-2.64805 -45.5879,-7.52735 -14.64571,-4.99688 -28.20687,-12.3338 -40.23828,-21.5664 -1.62207,-1.24474 -3.20613,-2.53709 -4.77148,-3.84961 z"
       id="path4136" />
    <g
       id="g4248"
       transform="translate(-5.225486,-0.00178973)">
      <path
         id="path4680"
         d="m 701.65379,665.75594 a 6.4616141,6.4616141 0 0 1 -6.46161,6.46162 6.4616141,6.4616141 0 0 1 -6.46162,-6.46162 6.4616141,6.4616141 0 0 1 6.46162,-6.46161 6.4616141,6.4616141 0 0 1 6.46161,6.46161 z"
         style="opacity:1;fill:none;fill-opacity:1;stroke:#000000;stroke-width:1.25;stroke-linecap:round;stroke-linejoin:round;stroke-miterlimit:10;stroke-dasharray:none;stroke-dashoffset:0;stroke-opacity:1"
         inkscape:connector-curvature="0" />
      <path
         id="circle4682"
         d="m 59.10059,388.0964 a 6.4616141,6.4616141 0 0 1 -6.46161,6.46161 6.4616141,6.4616141 0 0 1 -6.46161,-6.46161 6.4616141,6.4616141 0 0 1 6.46161,-6.46162 6.4616141,6.4616141 0 0 1 6.46161,6.46162 z"
         style="opacity:1;fill:none;fill-opacity:1;stroke:#000000;stroke-width:1.25;stroke-linecap:round;stroke-linejoin:round;stroke-miterlimit:10;stroke-dasharray:none;stroke-dashoffset:0;stroke-opacity:1"
         inkscape:connector-curvature="0" />
      <path
         id="circle4684"
         d="m 59.10059,676.39425 a 6.4616141,6.4616141 0 0 1 -6.46161,6.46161 6.4616141,6.4616141 0 0 1 -6.46161,-6.46161 6.4616141,6.4616141 0 0 1 6.46161,-6.46162 6.4616141,6.4616141 0 0 1 6.46161,6.46162 z"
         style="opacity:1;fill:none;fill-opacity:1;stroke:#000000;stroke-width:1.25;stroke-linecap:round;stroke-linejoin:round;stroke-miterlimit:10;stroke-dasharray:none;stroke-dashoffset:0;stroke-opacity:1"
         inkscape:connector-curvature="0" />
      <path
         id="circle4686"
         d="m 701.65379,388.0964 a 6.4616141,6.4616141 0 0 1 -6.46161,6.46161 6.4616141,6.4616141 0 0 1 -6.46162,-6.46161 6.4616141,6.4616141 0 0 1 6.46162,-6.46162 6.4616141,6.4616141 0 0 1 6.46161,6.46162 z"
         style="opacity:1;fill:none;fill-opacity:1;stroke:#000000;stroke-width:1.25;stroke-linecap:round;stroke-linejoin:round;stroke-miterlimit:10;stroke-dasharray:none;stroke-dashoffset:0;stroke-opacity:1"
         inkscape:connector-curvature="0" />
    </g>
    <path
       sodipodi:nodetypes="sssssssssssssssss"
       inkscape:connector-curvature="0"
       id="path4496"
       d="m 438.93087,345.44442 c 0,11.88886 -2.9537,23.08784 -8.16727,32.90318 -2.36636,4.455 -5.19828,8.62498 -8.4309,12.44503 -6.33098,7.48145 -14.19885,13.62074 -23.11628,17.93056 -9.23106,4.46138 -19.58681,6.96236 -30.5267,6.96236 -7.94111,0 -15.57444,-1.3178 -22.69324,-3.74665 -7.29042,-2.48737 -14.04119,-6.14003 -20.03025,-10.73589 -9.05216,-6.94639 -16.36417,-16.04748 -21.16927,-26.53648 -4.07621,-8.89795 -6.34838,-18.79467 -6.34838,-29.22211 0,-10.52734 2.3159,-20.51374 6.46602,-29.47758 4.17672,-9.02127 10.21125,-17.0068 17.61257,-23.4656 5.02926,-4.38879 10.68959,-8.07264 16.82698,-10.89749 8.92724,-4.10895 18.86381,-6.40048 29.33557,-6.40048 10.27472,0 20.03417,2.20609 28.83053,6.17045 7.84626,3.53615 14.92623,8.47126 20.9221,14.48747 6.85239,6.87566 12.28882,15.16339 15.83486,24.38875 3.00609,7.82066 4.65366,16.31516 4.65366,25.19447 z"
       style="opacity:1;fill:none;fill-opacity:1;stroke:#000000;stroke-width:1.25000012;stroke-linecap:round;stroke-linejoin:round;stroke-miterlimit:10;stroke-dasharray:none;stroke-dashoffset:0;stroke-opacity:1" />
    <path
       style="opacity:1;fill:none;fill-opacity:1;stroke:#ff0000;stroke-width:1.25;stroke-linecap:round;stroke-linejoin:round;stroke-miterlimit:10;stroke-dasharray:none;stroke-dashoffset:0;stroke-opacity:1"
       d="m 211.18875,438.71466 0,368.15039 315,0 0,-368.15039 -315,0 z m -70.86523,368.35742 0,6.73242 456.73242,0 0,-6.73242 -456.73242,0 z"
       id="rect4190"
       inkscape:connector-curvature="0" />
    <g
       style="stroke:#000000"
       id="g4212"
       transform="translate(246.25948,-112.47706)">
      <g
         style="stroke:#000000"
         transform="translate(0,-311.81104)"
         id="g4208">
        <path
           style="opacity:1;fill:none;fill-opacity:1;stroke:#000000;stroke-width:1.24999988;stroke-linecap:round;stroke-linejoin:round;stroke-miterlimit:10;stroke-dasharray:none;stroke-dashoffset:0;stroke-opacity:1"
           d="m 6.6477737,898.97583 a 4.6899605,4.689961 0 0 1 -4.6899604,4.68996 4.6899605,4.689961 0 0 1 -4.6899605,-4.68996 4.6899605,4.689961 0 0 1 4.6899605,-4.68996 4.6899605,4.689961 0 0 1 4.6899604,4.68996 z"
           id="path4196" />
        <path
           style="opacity:1;fill:none;fill-opacity:1;stroke:#000000;stroke-width:1.24999988;stroke-linecap:round;stroke-linejoin:round;stroke-miterlimit:10;stroke-dasharray:none;stroke-dashoffset:0;stroke-opacity:1"
           d="m 247.59266,898.97583 a 4.6899605,4.689961 0 0 1 -4.68997,4.68996 4.6899605,4.689961 0 0 1 -4.68996,-4.68996 4.6899605,4.689961 0 0 1 4.68996,-4.68996 4.6899605,4.689961 0 0 1 4.68997,4.68996 z"
           id="ellipse4198" />
      </g>
      <g
         style="stroke:#000000"
         transform="translate(35.433067,-1.2786117e-5)"
         id="g4204">
        <path
           style="opacity:1;fill:none;fill-opacity:1;stroke:#000000;stroke-width:1.24999988;stroke-linecap:round;stroke-linejoin:round;stroke-miterlimit:10;stroke-dasharray:none;stroke-dashoffset:0;stroke-opacity:1"
           d="m 6.6477737,898.97583 a 4.6899605,4.689961 0 0 1 -4.6899604,4.68996 4.6899605,4.689961 0 0 1 -4.6899605,-4.68996 4.6899605,4.689961 0 0 1 4.6899605,-4.68996 4.6899605,4.689961 0 0 1 4.6899604,4.68996 z"
           id="ellipse4200" />
        <path
           style="opacity:1;fill:none;fill-opacity:1;stroke:#000000;stroke-width:1.24999988;stroke-linecap:round;stroke-linejoin:round;stroke-miterlimit:10;stroke-dasharray:none;stroke-dashoffset:0;stroke-opacity:1"
           d="m 176.72652,898.97583 a 4.6899605,4.689961 0 0 1 -4.68996,4.68996 4.6899605,4.689961 0 0 1 -4.68996,-4.68996 4.6899605,4.689961 0 0 1 4.68996,-4.68996 4.6899605,4.689961 0 0 1 4.68996,4.68996 z"
           id="ellipse4202" />
      </g>
    </g>
  </g>
</svg>
