  0
SECTION
  2
HEADER
  9
$ACADVER
  1
AC1014
  9
$HANDSEED
  5
FFFF
  9
$MEASUREMENT
 70
     1
  0
ENDSEC
  0
SECTION
  2
TABLES
  0
TABLE
  2
VPORT
  5
8
330
0
100
AcDbSymbolTable
 70
     4
  0
VPORT
  5
2E
330
8
100
AcDbSymbolTableRecord
100
AcDbViewportTableRecord
  2
*ACTIVE
 70
     0
 10
0.0
 20
0.0
 11
1.0
 21
1.0
 12
210.0
 22
148.5
 13
0.0
 23
0.0
 14
10.0
 24
10.0
 15
10.0
 25
10.0
 16
0.0
 26
0.0
 36
1.0
 17
0.0
 27
0.0
 37
0.0
 40
341.0
 41
1.24
 42
50.0
 43
0.0
 44
0.0
 50
0.0
 51
0.0
 71
     0
 72
   100
 73
     1
 74
     3
 75
     0
 76
     0
 77
     0
 78
     0
  0
ENDTAB
  0
TABLE
  2
LTYPE
  5
5
330
0
100
AcDbSymbolTable
 70
     1
  0
LTYPE
  5
14
330
5
100
AcDbSymbolTableRecord
100
AcDbLinetypeTableRecord
  2
BYBLOCK
 70
     0
  3

 72
    65
 73
     0
 40
0.0
  0
LTYPE
  5
15
330
5
100
AcDbSymbolTableRecord
100
AcDbLinetypeTableRecord
  2
BYLAYER
 70
     0
  3

 72
    65
 73
     0
 40
0.0
  0
LTYPE
  5
16
330
5
100
AcDbSymbolTableRecord
100
AcDbLinetypeTableRecord
  2
CONTINUOUS
 70
     0
  3
Solid line
 72
    65
 73
     0
 40
0.0
  0
ENDTAB
  0
TABLE
  2
LAYER
  5
2
100
AcDbSymbolTable
 70
2
  0
LAYER
  5
50
100
AcDbSymbolTableRecord
100
AcDbLayerTableRecord
  2
0
 70
0
  6
CONTINUOUS
  0
LAYER
  5
51
100
AcDbSymbolTableRecord
100
AcDbLayerTableRecord
  2
Capa_1
 70
0
  6
CONTINUOUS
  0
ENDTAB
  0
TABLE
  2
STYLE
  5
3
330
0
100
AcDbSymbolTable
 70
     1
  0
STYLE
  5
11
330
3
100
AcDbSymbolTableRecord
100
AcDbTextStyleTableRecord
  2
STANDARD
 70
     0
 40
0.0
 41
1.0
 50
0.0
 71
     0
 42
2.5
  3
txt
  4

  0
ENDTAB
  0
TABLE
  2
VIEW
  5
6
330
0
100
AcDbSymbolTable
 70
     0
  0
ENDTAB
  0
TABLE
  2
UCS
  5
7
330
0
100
AcDbSymbolTable
 70
     0
  0
ENDTAB
  0
TABLE
  2
APPID
  5
9
330
0
100
AcDbSymbolTable
 70
     2
  0
APPID
  5
12
330
9
100
AcDbSymbolTableRecord
100
AcDbRegAppTableRecord
  2
ACAD
 70
     0
  0
ENDTAB
  0
TABLE
  2
DIMSTYLE
  5
A
330
0
100
AcDbSymbolTable
 70
     1
  0
DIMSTYLE
105
27
330
A
100
AcDbSymbolTableRecord
100
AcDbDimStyleTableRecord
  2
ISO-25
 70
     0
  3

  4

  5

  6

  7

 40
1.0
 41
2.5
 42
0.625
 43
3.75
 44
1.25
 45
0.0
 46
0.0
 47
0.0
 48
0.0
140
2.5
141
2.5
142
0.0
143
0.03937007874016
144
1.0
145
0.0
146
1.0
147
0.625
 71
     0
 72
     0
 73
     0
 74
     0
 75
     0
 76
     0
 77
     1
 78
     8
170
     0
171
     3
172
     1
173
     0
174
     0
175
     0
176
     0
177
     0
178
     0
270
     2
271
     2
272
     2
273
     2
274
     3
340
11
275
     0
280
     0
281
     0
282
     0
283
     0
284
     8
285
     0
286
     0
287
     3
288
     0
  0
ENDTAB
  0
TABLE
  2
BLOCK_RECORD
  5
1
330
0
100
AcDbSymbolTable
 70
     1
  0
BLOCK_RECORD
  5
1F
330
1
100
AcDbSymbolTableRecord
100
AcDbBlockTableRecord
  2
*MODEL_SPACE
  0
BLOCK_RECORD
  5
1B
330
1
100
AcDbSymbolTableRecord
100
AcDbBlockTableRecord
  2
*PAPER_SPACE
  0
ENDTAB
  0
ENDSEC
  0
SECTION
  2
BLOCKS
  0
BLOCK
  5
20
330
1F
100
AcDbEntity
  8
0
100
AcDbBlockBegin
  2
*MODEL_SPACE
 70
     0
 10
0.0
 20
0.0
 30
0.0
  3
*MODEL_SPACE
  1

  0
ENDBLK
  5
21
330
1F
100
AcDbEntity
  8
0
100
AcDbBlockEnd
  0
BLOCK
  5
1C
330
1B
100
AcDbEntity
 67
     1
  8
0
100
AcDbBlockBegin
  2
*PAPER_SPACE
  1

  0
ENDBLK
  5
1D
330
1B
100
AcDbEntity
 67
     1
  8
0
100
AcDbBlockEnd
  0
ENDSEC
  0
SECTION
  2
ENTITIES
  0
LINE
  5
100
100
AcDbEntity
  8
Capa_1
 62
7
100
AcDbLine
 10
0.176388
 20
99.999998
 30
0.0
 11
0.176388
 21
99.999998
 31
0.0
  0
SPLINE
  5
101
100
AcDbEntity
  8
Capa_1
 62
7
100
AcDbSpline
 70
0
 71
3
 72
58
 73
54
 74
52
 40
0.000000
 40
0.000000
 40
0.000000
 40
0.000000
 40
10.218507
 40
20.243979
 40
30.120875
 40
43.687662
 40
57.117881
 40
70.472668
 40
83.439908
 40
96.423108
 40
109.465831
 40
124.893708
 40
140.589028
 40
156.704444
 40
165.932746
 40
175.000158
 40
183.940125
 40
198.395200
 40
212.683914
 40
226.882057
 40
240.989453
 40
255.118983
 40
269.327823
 40
283.731020
 40
298.381822
 40
313.407149
 40
323.129254
 40
332.674706
 40
342.082206
 40
352.640719
 40
363.102881
 40
373.500655
 40
385.629636
 40
397.741729
 40
409.870167
 40
420.173753
 40
430.539792
 40
440.999179
 40
450.563896
 40
460.270117
 40
470.158416
 40
486.121418
 40
501.670769
 40
516.955363
 40
529.376658
 40
541.740538
 40
554.085110
 40
566.737303
 40
579.446585
 40
592.261809
 40
603.593199
 40
615.106132
 40
626.866140
 40
626.866140
 40
626.866140
 40
626.866140
 10
0.176388
 20
99.999998
 30
0.0
 10
0.274991
 20
103.407652
 30
0.0
 10
0.470336
 20
110.158589
 30
0.0
 10
2.042670
 20
120.101313
 30
0.0
 10
4.808250
 20
130.923170
 30
0.0
 10
9.274295
 20
142.420092
 30
0.0
 10
15.813044
 20
154.219475
 30
0.0
 10
23.752758
 20
164.877937
 30
0.0
 10
32.911483
 20
174.297053
 30
0.0
 10
43.127044
 20
182.392733
 30
0.0
 10
55.010984
 20
189.517455
 30
0.0
 10
68.645544
 20
195.231292
 30
0.0
 10
84.005352
 20
198.980803
 30
0.0
 10
97.705486
 20
200.067585
 30
0.0
 10
109.177498
 20
199.547129
 30
0.0
 10
118.184834
 20
198.309612
 30
0.0
 10
128.740207
 20
195.869699
 30
0.0
 10
140.604786
 20
191.600608
 30
0.0
 10
153.274255
 20
184.835931
 30
0.0
 10
164.759429
 20
176.407457
 30
0.0
 10
174.906358
 20
166.485830
 30
0.0
 10
183.564488
 20
155.236341
 30
0.0
 10
190.595048
 20
142.789141
 30
0.0
 10
195.828545
 20
129.296424
 30
0.0
 10
199.091182
 20
114.915805
 30
0.0
 10
200.063191
 20
101.766870
 30
0.0
 10
199.516788
 20
90.333274
 30
0.0
 10
198.144109
 20
80.858681
 30
0.0
 10
195.808399
 20
71.288072
 30
0.0
 10
192.416984
 20
61.708277
 30
0.0
 10
187.888161
 20
52.243780
 30
0.0
 10
182.120575
 20
42.858739
 30
0.0
 10
174.990086
 20
33.740437
 30
0.0
 10
166.405526
 20
25.139253
 30
0.0
 10
157.325940
 20
18.010626
 30
0.0
 10
148.009455
 20
12.254016
 30
0.0
 10
138.647729
 20
7.735252
 30
0.0
 10
129.095303
 20
4.306226
 30
0.0
 10
119.462912
 20
1.913524
 30
0.0
 10
109.831253
 20
0.493791
 30
0.0
 10
97.976193
 20
-0.082615
 30
0.0
 10
84.156284
 20
1.003314
 30
0.0
 10
68.932723
 20
4.682645
 30
0.0
 10
55.559201
 20
10.228353
 30
0.0
 10
44.023442
 20
17.026194
 30
0.0
 10
34.193687
 20
24.598821
 30
0.0
 10
25.314110
 20
33.374858
 30
0.0
 10
17.519869
 20
43.278118
 30
0.0
 10
10.961592
 20
54.222498
 30
0.0
 10
6.026592
 20
65.513923
 30
0.0
 10
2.645036
 20
76.929747
 30
0.0
 10
0.565692
 20
88.315498
 30
0.0
 10
0.307071
 20
96.077696
 30
0.0
 10
0.176388
 20
99.999998
 30
0.0
 11
0.176388
 21
99.999998
 31
0.0
 11
0.691677
 21
110.205505
 31
0.0
 11
2.204101
 21
120.116238
 31
0.0
 11
4.663498
 21
129.682034
 31
0.0
 11
9.569864
 21
142.330564
 31
0.0
 11
16.079048
 21
154.077959
 31
0.0
 11
24.055696
 21
164.788861
 31
0.0
 11
33.095466
 21
174.085735
 31
0.0
 11
43.271399
 21
182.148854
 31
0.0
 11
54.458858
 21
188.853581
 31
0.0
 11
68.688719
 21
194.814323
 31
0.0
 11
83.935960
 21
198.537860
 31
0.0
 11
100.000002
 21
199.823612
 31
0.0
 11
109.218742
 21
199.403598
 31
0.0
 11
118.201587
 21
198.168109
 31
0.0
 11
126.911712
 21
196.153972
 31
0.0
 11
140.513167
 21
191.260139
 31
0.0
 11
153.118963
 21
184.532490
 31
0.0
 11
164.566506
 21
176.133619
 31
0.0
 11
174.653424
 21
166.270927
 31
0.0
 11
183.270097
 21
155.072866
 31
0.0
 11
190.255993
 21
142.699977
 31
0.0
 11
195.463342
 21
129.271068
 31
0.0
 11
198.706543
 21
114.983743
 31
0.0
 11
199.823608
 21
99.999998
 31
0.0
 11
199.357304
 21
90.289082
 31
0.0
 11
197.987148
 21
80.842478
 31
0.0
 11
195.756278
 21
71.703317
 31
0.0
 11
192.232881
 21
61.750032
 31
0.0
 11
187.717849
 21
52.312271
 31
0.0
 11
182.274381
 21
43.453245
 31
0.0
 11
174.803426
 21
33.898298
 31
0.0
 11
166.247173
 21
25.325472
 31
0.0
 11
156.707173
 21
17.836320
 31
0.0
 11
147.941504
 21
12.420884
 31
0.0
 11
138.605697
 21
7.915613
 31
0.0
 11
128.761277
 21
4.382035
 31
0.0
 11
119.478754
 21
2.075833
 31
0.0
 11
109.876527
 21
0.658813
 31
0.0
 11
100.000002
 21
0.176383
 31
0.0
 11
84.086921
 21
1.437832
 31
0.0
 11
68.973109
 21
5.092283
 31
0.0
 11
54.853413
 21
10.944889
 31
0.0
 11
44.151029
 21
17.249455
 31
0.0
 11
34.356044
 21
24.794240
 31
0.0
 11
25.575973
 21
33.471729
 31
0.0
 11
17.752100
 21
43.414818
 31
0.0
 11
11.219554
 21
54.316730
 31
0.0
 11
6.093643
 21
66.062155
 31
0.0
 11
2.857513
 21
76.921614
 31
0.0
 11
0.859478
 21
88.259845
 31
0.0
 11
0.176388
 21
99.999998
 31
0.0
  0
SPLINE
  5
102
100
AcDbEntity
  8
Capa_1
 62
7
100
AcDbSpline
 70
0
 71
3
 72
19
 73
15
 74
13
 40
0.000000
 40
0.000000
 40
0.000000
 40
0.000000
 40
9.534881
 40
18.932008
 40
28.234738
 40
36.277591
 40
44.295806
 40
52.307354
 40
62.633338
 40
73.016897
 40
83.504726
 40
87.221906
 40
90.961868
 40
94.727764
 40
94.727764
 40
94.727764
 40
94.727764
 10
129.823678
 20
26.003851
 30
0.0
 10
132.732868
 20
27.293151
 30
0.0
 10
138.509217
 20
29.853126
 30
0.0
 10
146.472643
 20
34.931248
 30
0.0
 10
153.433918
 20
40.525115
 30
0.0
 10
159.408195
 20
46.529131
 30
0.0
 10
164.480013
 20
52.764377
 30
0.0
 10
169.320646
 20
60.112509
 30
0.0
 10
173.650649
 20
68.682480
 30
0.0
 10
177.107480
 20
78.519941
 30
0.0
 10
178.797842
 20
86.567662
 30
0.0
 10
179.495956
 20
92.509454
 30
0.0
 10
179.770859
 20
96.242545
 30
0.0
 10
179.806162
 20
98.744694
 30
0.0
 10
179.823874
 20
100.000091
 30
0.0
 11
129.823678
 21
26.003851
 31
0.0
 11
138.440478
 21
30.086093
 31
0.0
 11
146.396614
 21
35.086682
 31
0.0
 11
153.638328
 21
40.926063
 31
0.0
 11
159.313892
 21
46.624787
 31
0.0
 11
164.373035
 21
52.845467
 31
0.0
 11
168.780391
 21
59.535766
 31
0.0
 11
173.436254
 21
68.752538
 31
0.0
 11
176.878655
 21
78.548873
 31
0.0
 11
179.032212
 21
88.813217
 31
0.0
 11
179.468372
 21
92.504719
 31
0.0
 11
179.733342
 21
96.235283
 31
0.0
 11
179.823874
 21
100.000091
 31
0.0
  0
SPLINE
  5
103
100
AcDbEntity
  8
Capa_1
 62
7
100
AcDbSpline
 70
0
 71
3
 72
31
 73
27
 74
25
 40
0.000000
 40
0.000000
 40
0.000000
 40
0.000000
 40
12.923079
 40
25.508679
 40
37.879779
 40
48.648984
 40
59.369106
 40
70.078258
 40
80.232292
 40
90.442961
 40
100.752533
 40
108.803111
 40
116.975957
 40
125.308611
 40
138.775336
 40
151.881372
 40
164.763657
 40
174.614457
 40
184.426314
 40
194.228290
 40
204.827415
 40
215.485502
 40
226.250170
 40
234.238697
 40
242.348086
 40
250.615059
 40
250.615059
 40
250.615059
 40
250.615059
 10
179.823874
 20
100.000091
 30
0.0
 10
179.625993
 20
104.312679
 30
0.0
 10
179.235399
 20
112.825235
 30
0.0
 10
176.107626
 20
125.141493
 30
0.0
 10
171.502006
 20
136.165087
 30
0.0
 10
165.640931
 20
145.853997
 30
0.0
 10
158.891955
 20
154.239283
 30
0.0
 10
151.234094
 20
161.509889
 30
0.0
 10
142.838933
 20
167.623741
 30
0.0
 10
133.850914
 20
172.556425
 30
0.0
 10
124.954662
 20
176.033709
 30
0.0
 10
116.385990
 20
178.281813
 30
0.0
 10
108.282950
 20
179.541945
 30
0.0
 10
98.289862
 20
180.054146
 30
0.0
 10
86.636136
 20
179.087603
 30
0.0
 10
73.837234
 20
175.815460
 30
0.0
 10
62.853013
 20
170.980132
 30
0.0
 10
53.625649
 20
165.226348
 30
0.0
 10
45.971478
 20
159.032147
 30
0.0
 10
38.956266
 20
151.772296
 30
0.0
 10
32.745288
 20
143.450507
 30
0.0
 10
27.538550
 20
134.097404
 30
0.0
 10
23.949099
 20
124.938475
 30
0.0
 10
21.703868
 20
116.259029
 30
0.0
 10
20.417072
 20
108.218209
 30
0.0
 10
20.257194
 20
102.756981
 30
0.0
 10
20.176486
 20
100.000091
 30
0.0
 11
179.823874
 21
100.000091
 31
0.0
 11
178.789886
 21
112.881738
 31
0.0
 11
175.795772
 21
125.106002
 31
0.0
 11
171.003303
 21
136.511103
 31
0.0
 11
165.435393
 21
145.729245
 31
0.0
 11
158.713434
 21
154.080071
 31
0.0
 11
150.947215
 21
161.453793
 31
0.0
 11
142.738563
 21
167.430618
 31
0.0
 11
133.786609
 21
172.341859
 31
0.0
 11
124.184296
 21
176.094574
 31
0.0
 11
116.397363
 21
178.137973
 31
0.0
 11
108.321800
 21
179.395231
 31
0.0
 11
100.000175
 21
179.823782
 31
0.0
 11
86.580371
 21
178.700594
 31
0.0
 11
73.882994
 21
175.453318
 31
0.0
 11
62.091513
 21
170.265423
 31
0.0
 11
53.731827
 21
165.054481
 31
0.0
 11
46.104298
 21
158.882502
 31
0.0
 11
39.293096
 21
151.833653
 31
0.0
 11
32.954590
 21
143.338668
 31
0.0
 11
27.770930
 21
134.026069
 31
0.0
 11
23.847946
 21
124.001685
 31
0.0
 11
21.835945
 21
116.270681
 31
0.0
 11
20.598273
 21
108.256297
 31
0.0
 11
20.176486
 21
100.000091
 31
0.0
  0
LINE
  5
104
100
AcDbEntity
  8
Capa_1
 62
7
100
AcDbLine
 10
70.176121
 20
26.017080
 30
0.0
 11
70.176121
 21
73.227015
 31
0.0
  0
LINE
  5
105
100
AcDbEntity
  8
Capa_1
 62
7
100
AcDbLine
 10
70.176121
 20
73.227015
 30
0.0
 11
129.823678
 21
73.227015
 31
0.0
  0
LINE
  5
106
100
AcDbEntity
  8
Capa_1
 62
7
100
AcDbLine
 10
129.823678
 20
73.227015
 30
0.0
 11
129.823678
 21
26.003851
 31
0.0
  0
SPLINE
  5
107
100
AcDbEntity
  8
Capa_1
 62
7
100
AcDbSpline
 70
0
 71
3
 72
19
 73
15
 74
13
 40
0.000000
 40
0.000000
 40
0.000000
 40
0.000000
 40
7.567486
 40
15.042316
 40
22.447422
 40
30.846946
 40
39.205558
 40
47.544744
 40
55.210768
 40
62.892557
 40
70.606635
 40
78.559693
 40
86.589807
 40
94.725008
 40
94.725008
 40
94.725008
 40
94.725008
 10
20.176486
 20
100.000091
 30
0.0
 10
20.246976
 20
97.476698
 30
0.0
 10
20.387092
 20
92.460808
 30
0.0
 10
21.488212
 20
85.042845
 30
0.0
 10
23.291358
 20
77.486779
 30
0.0
 10
25.946777
 20
69.865360
 30
0.0
 10
29.515326
 20
62.282549
 30
0.0
 10
33.729770
 20
55.322778
 30
0.0
 10
38.480733
 20
49.001441
 30
0.0
 10
43.675782
 20
43.319521
 30
0.0
 10
49.463868
 20
38.096700
 30
0.0
 10
55.836706
 20
33.412265
 30
0.0
 10
62.747768
 20
29.264537
 30
0.0
 10
67.689295
 20
27.104246
 30
0.0
 10
70.176121
 20
26.017080
 30
0.0
 11
20.176486
 21
100.000091
 31
0.0
 11
20.539242
 21
92.441304
 31
0.0
 11
21.598284
 21
85.041878
 31
0.0
 11
23.326882
 21
77.841354
 31
0.0
 11
26.087229
 21
69.908354
 31
0.0
 11
29.646923
 21
62.345619
 31
0.0
 11
33.966104
 21
55.212127
 31
0.0
 11
38.572122
 21
49.084115
 31
0.0
 11
43.755244
 21
43.414449
 31
0.0
 11
49.484511
 21
38.248937
 31
0.0
 11
55.885714
 21
33.529219
 31
0.0
 11
62.794002
 21
29.435531
 31
0.0
 11
70.176121
 21
26.017080
 31
0.0
  0
LINE
  5
108
100
AcDbEntity
  8
Capa_1
 62
7
100
AcDbLine
 10
181.250496
 20
53.496876
 30
0.0
 11
181.250496
 21
53.496876
 31
0.0
  0
SPLINE
  5
109
100
AcDbEntity
  8
Capa_1
 62
7
100
AcDbSpline
 70
0
 71
3
 72
31
 73
27
 74
25
 40
0.000000
 40
0.000000
 40
0.000000
 40
0.000000
 40
0.346488
 40
0.690109
 40
1.036597
 40
1.383086
 40
1.726706
 40
2.073195
 40
2.419683
 40
2.763304
 40
3.109792
 40
3.456280
 40
3.799901
 40
4.146389
 40
4.492877
 40
4.836498
 40
5.182986
 40
5.529474
 40
5.873095
 40
6.219583
 40
6.566071
 40
6.909692
 40
7.256180
 40
7.602669
 40
7.946290
 40
8.292778
 40
8.292778
 40
8.292778
 40
8.292778
 10
181.250496
 20
53.496876
 30
0.0
 10
181.259320
 20
53.612703
 30
0.0
 10
181.276894
 20
53.843399
 30
0.0
 10
181.415774
 20
54.166247
 30
0.0
 10
181.627066
 20
54.443623
 30
0.0
 10
181.904815
 20
54.656303
 30
0.0
 10
182.227564
 20
54.790031
 30
0.0
 10
182.574113
 20
54.835778
 30
0.0
 10
182.920629
 20
54.790031
 30
0.0
 10
183.243479
 20
54.656303
 30
0.0
 10
183.520855
 20
54.443623
 30
0.0
 10
183.733535
 20
54.166247
 30
0.0
 10
183.867263
 20
53.843399
 30
0.0
 10
183.913010
 20
53.496876
 30
0.0
 10
183.867263
 20
53.150354
 30
0.0
 10
183.733535
 20
52.827506
 30
0.0
 10
183.520855
 20
52.550129
 30
0.0
 10
183.243479
 20
52.337449
 30
0.0
 10
182.920629
 20
52.203721
 30
0.0
 10
182.574113
 20
52.157974
 30
0.0
 10
182.227564
 20
52.203721
 30
0.0
 10
181.904815
 20
52.337449
 30
0.0
 10
181.627066
 20
52.550129
 30
0.0
 10
181.415774
 20
52.827506
 30
0.0
 10
181.276894
 20
53.150354
 30
0.0
 10
181.259320
 20
53.381049
 30
0.0
 10
181.250496
 20
53.496876
 30
0.0
 11
181.250496
 21
53.496876
 31
0.0
 11
181.295844
 21
53.840384
 31
0.0
 11
181.427342
 21
54.157848
 31
0.0
 11
181.638173
 21
54.432811
 31
0.0
 11
181.913135
 21
54.643642
 31
0.0
 11
182.230600
 21
54.775140
 31
0.0
 11
182.574108
 21
54.820487
 31
0.0
 11
182.917616
 21
54.775139
 31
0.0
 11
183.235080
 21
54.643642
 31
0.0
 11
183.510042
 21
54.432810
 31
0.0
 11
183.720873
 21
54.157848
 31
0.0
 11
183.852371
 21
53.840384
 31
0.0
 11
183.897719
 21
53.496876
 31
0.0
 11
183.852371
 21
53.153368
 31
0.0
 11
183.720873
 21
52.835904
 31
0.0
 11
183.510042
 21
52.560942
 31
0.0
 11
183.235080
 21
52.350111
 31
0.0
 11
182.917616
 21
52.218613
 31
0.0
 11
182.574108
 21
52.173265
 31
0.0
 11
182.230600
 21
52.218613
 31
0.0
 11
181.913135
 21
52.350111
 31
0.0
 11
181.638173
 21
52.560942
 31
0.0
 11
181.427342
 21
52.835904
 31
0.0
 11
181.295844
 21
53.153368
 31
0.0
 11
181.250496
 21
53.496876
 31
0.0
  0
LINE
  5
10a
100
AcDbEntity
  8
Capa_1
 62
7
100
AcDbLine
 10
181.250496
 20
146.630201
 30
0.0
 11
181.250496
 21
146.630201
 31
0.0
  0
SPLINE
  5
10b
100
AcDbEntity
  8
Capa_1
 62
7
100
AcDbSpline
 70
0
 71
3
 72
31
 73
27
 74
25
 40
0.000000
 40
0.000000
 40
0.000000
 40
0.000000
 40
0.346488
 40
0.690109
 40
1.036597
 40
1.383086
 40
1.726706
 40
2.073195
 40
2.419683
 40
2.763304
 40
3.109792
 40
3.456280
 40
3.799901
 40
4.146389
 40
4.492877
 40
4.836498
 40
5.182986
 40
5.529474
 40
5.873095
 40
6.219583
 40
6.566071
 40
6.909692
 40
7.256180
 40
7.602669
 40
7.946290
 40
8.292778
 40
8.292778
 40
8.292778
 40
8.292778
 10
181.250496
 20
146.630201
 30
0.0
 10
181.259320
 20
146.746028
 30
0.0
 10
181.276894
 20
146.976723
 30
0.0
 10
181.415774
 20
147.299572
 30
0.0
 10
181.627066
 20
147.576948
 30
0.0
 10
181.904815
 20
147.789628
 30
0.0
 10
182.227564
 20
147.923356
 30
0.0
 10
182.574113
 20
147.969103
 30
0.0
 10
182.920629
 20
147.923356
 30
0.0
 10
183.243479
 20
147.789628
 30
0.0
 10
183.520855
 20
147.576948
 30
0.0
 10
183.733535
 20
147.299571
 30
0.0
 10
183.867263
 20
146.976723
 30
0.0
 10
183.913010
 20
146.630201
 30
0.0
 10
183.867263
 20
146.283679
 30
0.0
 10
183.733535
 20
145.960831
 30
0.0
 10
183.520855
 20
145.683454
 30
0.0
 10
183.243479
 20
145.470774
 30
0.0
 10
182.920629
 20
145.337046
 30
0.0
 10
182.574113
 20
145.291299
 30
0.0
 10
182.227564
 20
145.337046
 30
0.0
 10
181.904815
 20
145.470774
 30
0.0
 10
181.627066
 20
145.683454
 30
0.0
 10
181.415774
 20
145.960830
 30
0.0
 10
181.276894
 20
146.283679
 30
0.0
 10
181.259320
 20
146.514374
 30
0.0
 10
181.250496
 20
146.630201
 30
0.0
 11
181.250496
 21
146.630201
 31
0.0
 11
181.295844
 21
146.973709
 31
0.0
 11
181.427342
 21
147.291173
 31
0.0
 11
181.638173
 21
147.566136
 31
0.0
 11
181.913135
 21
147.776967
 31
0.0
 11
182.230600
 21
147.908464
 31
0.0
 11
182.574108
 21
147.953812
 31
0.0
 11
182.917616
 21
147.908464
 31
0.0
 11
183.235080
 21
147.776966
 31
0.0
 11
183.510042
 21
147.566135
 31
0.0
 11
183.720873
 21
147.291173
 31
0.0
 11
183.852371
 21
146.973709
 31
0.0
 11
183.897719
 21
146.630201
 31
0.0
 11
183.852371
 21
146.286693
 31
0.0
 11
183.720873
 21
145.969229
 31
0.0
 11
183.510042
 21
145.694267
 31
0.0
 11
183.235080
 21
145.483436
 31
0.0
 11
182.917616
 21
145.351938
 31
0.0
 11
182.574108
 21
145.306590
 31
0.0
 11
182.230600
 21
145.351938
 31
0.0
 11
181.913135
 21
145.483435
 31
0.0
 11
181.638173
 21
145.694266
 31
0.0
 11
181.427342
 21
145.969229
 31
0.0
 11
181.295844
 21
146.286693
 31
0.0
 11
181.250496
 21
146.630201
 31
0.0
  0
LINE
  5
10c
100
AcDbEntity
  8
Capa_1
 62
7
100
AcDbLine
 10
16.024134
 20
53.496876
 30
0.0
 11
16.024134
 21
53.496876
 31
0.0
  0
SPLINE
  5
10d
100
AcDbEntity
  8
Capa_1
 62
7
100
AcDbSpline
 70
0
 71
3
 72
31
 73
27
 74
25
 40
0.000000
 40
0.000000
 40
0.000000
 40
0.000000
 40
0.346488
 40
0.690109
 40
1.036597
 40
1.383086
 40
1.726706
 40
2.073195
 40
2.419683
 40
2.763304
 40
3.109792
 40
3.456280
 40
3.799901
 40
4.146389
 40
4.492877
 40
4.836498
 40
5.182986
 40
5.529474
 40
5.873095
 40
6.219583
 40
6.566071
 40
6.909692
 40
7.256180
 40
7.602669
 40
7.946290
 40
8.292778
 40
8.292778
 40
8.292778
 40
8.292778
 10
16.024134
 20
53.496876
 30
0.0
 10
16.032957
 20
53.612703
 30
0.0
 10
16.050531
 20
53.843399
 30
0.0
 10
16.189412
 20
54.166247
 30
0.0
 10
16.400704
 20
54.443623
 30
0.0
 10
16.678453
 20
54.656303
 30
0.0
 10
17.001202
 20
54.790031
 30
0.0
 10
17.347751
 20
54.835778
 30
0.0
 10
17.694267
 20
54.790031
 30
0.0
 10
18.017116
 20
54.656303
 30
0.0
 10
18.294492
 20
54.443623
 30
0.0
 10
18.507173
 20
54.166247
 30
0.0
 10
18.640901
 20
53.843399
 30
0.0
 10
18.686648
 20
53.496876
 30
0.0
 10
18.640901
 20
53.150354
 30
0.0
 10
18.507173
 20
52.827506
 30
0.0
 10
18.294492
 20
52.550129
 30
0.0
 10
18.017116
 20
52.337449
 30
0.0
 10
17.694267
 20
52.203721
 30
0.0
 10
17.347751
 20
52.157974
 30
0.0
 10
17.001202
 20
52.203721
 30
0.0
 10
16.678453
 20
52.337449
 30
0.0
 10
16.400704
 20
52.550129
 30
0.0
 10
16.189412
 20
52.827506
 30
0.0
 10
16.050531
 20
53.150354
 30
0.0
 10
16.032957
 20
53.381049
 30
0.0
 10
16.024134
 20
53.496876
 30
0.0
 11
16.024134
 21
53.496876
 31
0.0
 11
16.069482
 21
53.840384
 31
0.0
 11
16.200980
 21
54.157848
 31
0.0
 11
16.411811
 21
54.432811
 31
0.0
 11
16.686773
 21
54.643642
 31
0.0
 11
17.004238
 21
54.775140
 31
0.0
 11
17.347746
 21
54.820487
 31
0.0
 11
17.691253
 21
54.775139
 31
0.0
 11
18.008718
 21
54.643642
 31
0.0
 11
18.283680
 21
54.432810
 31
0.0
 11
18.494511
 21
54.157848
 31
0.0
 11
18.626009
 21
53.840384
 31
0.0
 11
18.671357
 21
53.496876
 31
0.0
 11
18.626009
 21
53.153368
 31
0.0
 11
18.494511
 21
52.835904
 31
0.0
 11
18.283680
 21
52.560942
 31
0.0
 11
18.008718
 21
52.350111
 31
0.0
 11
17.691253
 21
52.218613
 31
0.0
 11
17.347746
 21
52.173265
 31
0.0
 11
17.004238
 21
52.218613
 31
0.0
 11
16.686773
 21
52.350111
 31
0.0
 11
16.411811
 21
52.560942
 31
0.0
 11
16.200980
 21
52.835904
 31
0.0
 11
16.069482
 21
53.153368
 31
0.0
 11
16.024134
 21
53.496876
 31
0.0
  0
LINE
  5
10e
100
AcDbEntity
  8
Capa_1
 62
7
100
AcDbLine
 10
16.024134
 20
146.630201
 30
0.0
 11
16.024134
 21
146.630201
 31
0.0
  0
SPLINE
  5
10f
100
AcDbEntity
  8
Capa_1
 62
7
100
AcDbSpline
 70
0
 71
3
 72
31
 73
27
 74
25
 40
0.000000
 40
0.000000
 40
0.000000
 40
0.000000
 40
0.346488
 40
0.690109
 40
1.036597
 40
1.383086
 40
1.726706
 40
2.073195
 40
2.419683
 40
2.763304
 40
3.109792
 40
3.456280
 40
3.799901
 40
4.146389
 40
4.492877
 40
4.836498
 40
5.182986
 40
5.529474
 40
5.873095
 40
6.219583
 40
6.566071
 40
6.909692
 40
7.256180
 40
7.602669
 40
7.946290
 40
8.292778
 40
8.292778
 40
8.292778
 40
8.292778
 10
16.024134
 20
146.630201
 30
0.0
 10
16.032957
 20
146.746028
 30
0.0
 10
16.050531
 20
146.976723
 30
0.0
 10
16.189412
 20
147.299572
 30
0.0
 10
16.400704
 20
147.576948
 30
0.0
 10
16.678453
 20
147.789628
 30
0.0
 10
17.001202
 20
147.923356
 30
0.0
 10
17.347751
 20
147.969103
 30
0.0
 10
17.694267
 20
147.923356
 30
0.0
 10
18.017116
 20
147.789628
 30
0.0
 10
18.294492
 20
147.576948
 30
0.0
 10
18.507173
 20
147.299571
 30
0.0
 10
18.640901
 20
146.976723
 30
0.0
 10
18.686648
 20
146.630201
 30
0.0
 10
18.640901
 20
146.283679
 30
0.0
 10
18.507173
 20
145.960831
 30
0.0
 10
18.294492
 20
145.683454
 30
0.0
 10
18.017116
 20
145.470774
 30
0.0
 10
17.694267
 20
145.337046
 30
0.0
 10
17.347751
 20
145.291299
 30
0.0
 10
17.001202
 20
145.337046
 30
0.0
 10
16.678453
 20
145.470774
 30
0.0
 10
16.400704
 20
145.683454
 30
0.0
 10
16.189412
 20
145.960830
 30
0.0
 10
16.050531
 20
146.283679
 30
0.0
 10
16.032957
 20
146.514374
 30
0.0
 10
16.024134
 20
146.630201
 30
0.0
 11
16.024134
 21
146.630201
 31
0.0
 11
16.069482
 21
146.973709
 31
0.0
 11
16.200980
 21
147.291173
 31
0.0
 11
16.411811
 21
147.566136
 31
0.0
 11
16.686773
 21
147.776967
 31
0.0
 11
17.004238
 21
147.908464
 31
0.0
 11
17.347746
 21
147.953812
 31
0.0
 11
17.691253
 21
147.908464
 31
0.0
 11
18.008718
 21
147.776966
 31
0.0
 11
18.283680
 21
147.566135
 31
0.0
 11
18.494511
 21
147.291173
 31
0.0
 11
18.626009
 21
146.973709
 31
0.0
 11
18.671357
 21
146.630201
 31
0.0
 11
18.626009
 21
146.286693
 31
0.0
 11
18.494511
 21
145.969229
 31
0.0
 11
18.283680
 21
145.694267
 31
0.0
 11
18.008718
 21
145.483436
 31
0.0
 11
17.691253
 21
145.351938
 31
0.0
 11
17.347746
 21
145.306590
 31
0.0
 11
17.004238
 21
145.351938
 31
0.0
 11
16.686773
 21
145.483435
 31
0.0
 11
16.411811
 21
145.694266
 31
0.0
 11
16.200980
 21
145.969229
 31
0.0
 11
16.069482
 21
146.286693
 31
0.0
 11
16.024134
 21
146.630201
 31
0.0
  0
ENDSEC
  0
SECTION
  2
OBJECTS
  0
DICTIONARY
  5
C
330
0
100
AcDbDictionary
  3
ACAD_GROUP
350
D
  3
ACAD_MLINESTYLE
350
17
  0
DICTIONARY
  5
D
330
C
100
AcDbDictionary
  0
DICTIONARY
  5
1A
330
C
100
AcDbDictionary
  0
DICTIONARY
  5
17
330
C
100
AcDbDictionary
  3
STANDARD
350
18
  0
DICTIONARY
  5
19
330
C
100
AcDbDictionary
  0
ENDSEC
  0
EOF
