<?xml version="1.0" encoding="UTF-8" standalone="no"?>
<!-- Created with Inkscape (http://www.inkscape.org/) -->

<svg
   xmlns:dc="http://purl.org/dc/elements/1.1/"
   xmlns:cc="http://creativecommons.org/ns#"
   xmlns:rdf="http://www.w3.org/1999/02/22-rdf-syntax-ns#"
   xmlns:svg="http://www.w3.org/2000/svg"
   xmlns="http://www.w3.org/2000/svg"
   xmlns:sodipodi="http://sodipodi.sourceforge.net/DTD/sodipodi-0.dtd"
   xmlns:inkscape="http://www.inkscape.org/namespaces/inkscape"
   width="244.68019mm"
   height="210mm"
   viewBox="0 0 866.97706 744.09448"
   id="svg2"
   version="1.1"
   inkscape:version="0.91 r13725"
   sodipodi:docname="Alien_Master_Base_02-2.svg">
  <defs
     id="defs4">
    <inkscape:perspective
       sodipodi:type="inkscape:persp3d"
       inkscape:vp_x="0 : 372.04724 : 1"
       inkscape:vp_y="0 : 1000 : 0"
       inkscape:vp_z="744.09449 : 372.04724 : 1"
       inkscape:persp3d-origin="372.04724 : 248.03149 : 1"
       id="perspective4294" />
  </defs>
  <sodipodi:namedview
     id="base"
     pagecolor="#ffffff"
     bordercolor="#666666"
     borderopacity="1.0"
     inkscape:pageopacity="0.0"
     inkscape:pageshadow="2"
     inkscape:zoom="1.3641449"
     inkscape:cx="372.0146"
     inkscape:cy="386.91142"
     inkscape:document-units="px"
     inkscape:current-layer="layer1"
     showgrid="false"
     fit-margin-top="0"
     fit-margin-left="0"
     fit-margin-right="0"
     fit-margin-bottom="0"
     inkscape:window-width="1920"
     inkscape:window-height="1017"
     inkscape:window-x="-8"
     inkscape:window-y="-8"
     inkscape:window-maximized="1"
     showguides="true"
     inkscape:guide-bbox="true">
    <sodipodi:guide
       position="-84.302326,461.62789"
       orientation="0,1"
       id="guide3389"
       inkscape:locked="false" />
    <sodipodi:guide
       position="129.3684,249.09441"
       orientation="0,1"
       id="guide3437"
       inkscape:locked="false" />
    <sodipodi:guide
       position="787.89834,353.39555"
       orientation="1,0"
       id="guide4339" />
  </sodipodi:namedview>
  <metadata
     id="metadata7">
    <rdf:RDF>
      <cc:Work
         rdf:about="">
        <dc:format>image/svg+xml</dc:format>
        <dc:type
           rdf:resource="http://purl.org/dc/dcmitype/StillImage" />
        <dc:title></dc:title>
      </cc:Work>
    </rdf:RDF>
  </metadata>
  <g
     inkscape:label="Capa 1"
     inkscape:groupmode="layer"
     id="layer1"
     transform="translate(3.3571472,-160.19629)">
    <path
       style="opacity:1;fill:none;fill-opacity:1;stroke:#000000;stroke-width:1;stroke-linecap:round;stroke-linejoin:round;stroke-miterlimit:10;stroke-dasharray:none;stroke-dashoffset:0;stroke-opacity:1"
       d="m 740.23734,532.24353 c 0,5.06899 -0.10151,10.11427 -0.3026,15.13392 -1.08223,27.01395 -5.0487,53.2856 -11.59988,78.51538 -3.81465,14.69089 -8.50564,29.02854 -14.01385,42.9538 -3.94843,9.98196 -8.31676,19.75203 -13.08323,29.28841 -4.37901,8.76118 -9.09406,17.32513 -14.12825,25.67495 -13.28713,22.03832 -28.79751,42.58497 -46.2206,61.32938 -9.49301,10.21293 -19.55382,19.89085 -30.13222,28.98351 -14.05054,12.07714 -29.01419,23.12179 -44.77323,33.01622 -10.22457,6.41957 -20.78396,12.35496 -31.64602,17.77403 -12.88936,6.43048 -26.20492,12.13391 -39.89296,17.05658 -14.27527,5.13385 -28.95567,9.41851 -43.98027,12.79305 -26.31154,5.90959 -53.67867,9.02801 -81.77414,9.02801 -19.25501,0 -38.16793,-1.4647 -56.6334,-4.28877 -18.59321,-2.8436 -36.73277,-7.06543 -54.31113,-12.55796 -15.31455,-4.78518 -30.20315,-10.53483 -44.59468,-17.17786 -13.84809,-6.39217 -27.23594,-13.61152 -40.1002,-21.59467 C 153.01271,835.73657 134.24513,821.44845 116.98737,805.54655 98.334073,788.35875 81.444654,769.28565 66.621475,748.6296 58.40203,737.17583 50.81789,725.23535 43.920604,712.85972 36.737666,699.97154 30.299653,686.61142 24.664789,672.83757 17.946178,656.41461 12.369363,639.40348 8.0330336,621.90287 4.2986932,606.83178 1.4843261,591.39767 -0.34703598,575.66359 -2.0048577,561.42047 -2.8571472,546.93153 -2.8571472,532.24353 c 0,-44.02717 7.6577885,-86.26578 21.7140812,-125.45652 9.781857,-27.27307 22.662414,-53.07011 38.21727,-76.96672 8.789507,-13.50314 18.432914,-26.39947 28.853649,-38.61243 19.274117,-22.589 41.207477,-42.84018 65.315557,-60.26901 15.45174,-11.17077 31.79686,-21.18213 48.90779,-29.90651 26.37089,-13.44576 54.56074,-23.83468 84.10256,-30.69975 27.12605,-6.30369 55.39201,-9.6363 84.43633,-9.6363 42.62188,0 83.56754,7.17673 121.69448,20.3877 18.81892,6.52074 36.95112,14.51158 54.25921,23.83514 13.12086,7.06797 25.76812,14.90182 37.88193,23.4417 11.86592,8.36512 23.21999,17.40768 34.00598,27.07141 14.73722,13.20385 28.41389,27.56735 40.88653,42.94701 12.39525,15.28424 23.60135,31.57207 33.47747,48.72265 9.59106,16.65555 17.92781,34.12476 24.88127,52.27866 7.78834,20.33358 13.84126,41.52614 17.97753,63.39641 3.9719,21.00122 6.17644,42.62737 6.45313,64.71796 0.0198,1.58051 0.0297,3.1634 0.0297,4.7486 z"
       id="path4136"
       inkscape:connector-curvature="0"
       sodipodi:nodetypes="sssssssssssssssssssssssssssssssssssssssss" />
    <path
       transform="matrix(0,1,-1,0,0,0)"
       style="opacity:1;fill:none;fill-opacity:1;stroke:#000000;stroke-width:0.99999988;stroke-linecap:round;stroke-linejoin:round;stroke-miterlimit:10;stroke-dasharray:none;stroke-dashoffset:0;stroke-opacity:1"
       d="m 390.77651,-130.28726 a 4.814961,4.8149595 0 0 1 -4.81496,4.81496 4.814961,4.8149595 0 0 1 -4.81496,-4.81496 4.814961,4.8149595 0 0 1 4.81496,-4.81496 4.814961,4.8149595 0 0 1 4.81496,4.81496 z"
       id="path4138"
       inkscape:connector-curvature="0" />
    <path
       transform="matrix(0,1,-1,0,0,0)"
       style="opacity:1;fill:none;fill-opacity:1;stroke:#000000;stroke-width:0.99999988;stroke-linecap:round;stroke-linejoin:round;stroke-miterlimit:10;stroke-dasharray:none;stroke-dashoffset:0;stroke-opacity:1"
       d="m 683.27651,-130.28726 a 4.814961,4.8149595 0 0 1 -4.81496,4.81496 4.814961,4.8149595 0 0 1 -4.81496,-4.81496 4.814961,4.8149595 0 0 1 4.81496,-4.81496 4.814961,4.8149595 0 0 1 4.81496,4.81496 z"
       id="ellipse4140"
       inkscape:connector-curvature="0" />
    <path
       transform="matrix(0,1,-1,0,0,0)"
       style="opacity:1;fill:none;fill-opacity:1;stroke:#000000;stroke-width:0.99999988;stroke-linecap:round;stroke-linejoin:round;stroke-miterlimit:10;stroke-dasharray:none;stroke-dashoffset:0;stroke-opacity:1"
       d="m 395.27651,-301.28726 a 4.814961,4.8149595 0 0 1 -4.81496,4.81496 4.814961,4.8149595 0 0 1 -4.81496,-4.81496 4.814961,4.8149595 0 0 1 4.81496,-4.81496 4.814961,4.8149595 0 0 1 4.81496,4.81496 z"
       id="ellipse4142"
       inkscape:connector-curvature="0" />
    <path
       transform="matrix(0,1,-1,0,0,0)"
       style="opacity:1;fill:none;fill-opacity:1;stroke:#000000;stroke-width:0.99999988;stroke-linecap:round;stroke-linejoin:round;stroke-miterlimit:10;stroke-dasharray:none;stroke-dashoffset:0;stroke-opacity:1"
       d="m 660.77651,-301.28726 a 4.814961,4.8149595 0 0 1 -4.81496,4.81496 4.814961,4.8149595 0 0 1 -4.81496,-4.81496 4.814961,4.8149595 0 0 1 4.81496,-4.81496 4.814961,4.8149595 0 0 1 4.81496,4.81496 z"
       id="ellipse4144"
       inkscape:connector-curvature="0" />
    <path
       style="opacity:1;fill:none;fill-opacity:1;stroke:#ff0000;stroke-width:1;stroke-linecap:round;stroke-linejoin:round;stroke-miterlimit:10;stroke-dasharray:none;stroke-dashoffset:0;stroke-opacity:1"
       d="m 331.64658,-313.89743 363.96063,0 0,197.4252 -363.96063,0 z"
       id="rect4146"
       transform="matrix(0,1,-1,0,0,0)"
       inkscape:connector-curvature="0" />
    <path
       transform="matrix(0,1,-1,0,0,0)"
       style="opacity:1;fill:none;fill-opacity:1;stroke:#ff0000;stroke-width:1;stroke-linecap:round;stroke-linejoin:round;stroke-miterlimit:10;stroke-dasharray:none;stroke-dashoffset:0;stroke-opacity:1"
       d="m 290.23749,-288.69955 72.72727,0 0,54.54545 -72.72727,0 z"
       id="rect4148"
       inkscape:connector-curvature="0" />
    <path
       transform="matrix(0,1,-1,0,0,0)"
       style="opacity:1;fill:none;fill-opacity:1;stroke:#ff0000;stroke-width:1;stroke-linecap:round;stroke-linejoin:round;stroke-miterlimit:10;stroke-dasharray:none;stroke-dashoffset:0;stroke-opacity:1"
       d="m 314.10114,-178.47226 54.54545,0 0,39.77273 -54.54545,0 z"
       id="rect4150"
       inkscape:connector-curvature="0" />
    <path
       style="opacity:1;fill:none;fill-opacity:1;stroke:#ff0000;stroke-width:1;stroke-linecap:round;stroke-linejoin:round;stroke-miterlimit:10;stroke-dasharray:none;stroke-dashoffset:0;stroke-opacity:1"
       d="m 678.27141,371.88264 c 0,9.76762 -1.32364,19.22609 -3.80134,28.20582 -3.87243,14.03451 -10.56386,26.89961 -19.42685,37.94786 -6.59895,8.22598 -14.40171,15.44478 -23.14106,21.38918 -16.93977,11.52221 -37.39844,18.25635 -59.42996,18.25635 -19.21929,0 -37.24164,-5.12469 -52.77513,-14.08216 -9.47829,-5.4657 -18.02991,-12.35843 -25.36136,-20.3847 -8.35442,-9.14616 -15.1244,-19.76425 -19.87566,-31.41995 -5.02056,-12.31637 -7.78706,-25.79131 -7.78706,-39.9124 0,-14.77678 3.02937,-28.84601 8.50095,-41.62052 4.89522,-11.42889 11.74524,-21.82146 20.12958,-30.75723 10.15596,-10.82391 22.56314,-19.51033 36.47425,-25.31194 12.52715,-5.22444 26.27387,-8.10952 40.69443,-8.10952 17.17523,0 33.39457,4.09259 47.73605,11.35577 13.40973,6.7913 25.17766,16.3546 34.55007,27.93617 9.25631,11.4381 16.17608,24.84479 20.03326,39.494 2.27052,8.62324 3.47983,17.67703 3.47983,27.01327 z"
       id="path4170"
       inkscape:connector-curvature="0"
       sodipodi:nodetypes="sssssssssssssssss" />
    <path
       style="opacity:1;fill:none;fill-opacity:1;stroke:#000000;stroke-width:1;stroke-linecap:round;stroke-linejoin:round;stroke-miterlimit:10;stroke-dasharray:none;stroke-dashoffset:0;stroke-opacity:1"
       d="m 577.28716,371.88264 a 4.81496,4.81496 0 0 1 -4.81496,4.81496 4.81496,4.81496 0 0 1 -4.81496,-4.81496 4.81496,4.81496 0 0 1 4.81496,-4.81496 4.81496,4.81496 0 0 1 4.81496,4.81496 z"
       id="circle4172"
       inkscape:connector-curvature="0" />
    <path
       inkscape:connector-curvature="0"
       id="path4178"
       d="m 512.10415,589.34764 a 11.901574,11.901575 0 0 1 -11.90157,11.90157 11.901574,11.901575 0 0 1 -11.90158,-11.90157 11.901574,11.901575 0 0 1 11.90158,-11.90158 11.901574,11.901575 0 0 1 11.90157,11.90158 z"
       style="opacity:1;fill:none;fill-opacity:1;stroke:#000000;stroke-width:0.99999988;stroke-linecap:round;stroke-linejoin:round;stroke-miterlimit:10;stroke-dasharray:none;stroke-dashoffset:0;stroke-opacity:1" />
    <path
       inkscape:connector-curvature="0"
       id="rect4180"
       d="m 410.72595,502.96192 45.063,0 0,69.86615 -45.063,0 z"
       style="opacity:1;fill:none;fill-opacity:1;stroke:#000000;stroke-width:1;stroke-linecap:round;stroke-linejoin:round;stroke-miterlimit:10;stroke-dasharray:none;stroke-dashoffset:0;stroke-opacity:1" />
    <path
       style="opacity:1;fill:none;fill-opacity:1;stroke:#000000;stroke-width:1;stroke-linecap:round;stroke-linejoin:round;stroke-miterlimit:10;stroke-dasharray:none;stroke-dashoffset:0;stroke-opacity:1"
       d="m 471.28131,680.5386 a 10.129922,10.129921 0 0 1 -10.12993,10.12992 10.129922,10.129921 0 0 1 -10.12992,-10.12992 10.129922,10.129921 0 0 1 10.12992,-10.12992 10.129922,10.129921 0 0 1 10.12993,10.12992 z"
       id="ellipse4190"
       inkscape:connector-curvature="0" />
    <path
       style="opacity:1;fill:none;fill-opacity:1;stroke:#000000;stroke-width:1;stroke-linecap:round;stroke-linejoin:round;stroke-miterlimit:10;stroke-dasharray:none;stroke-dashoffset:0;stroke-opacity:1"
       d="m 401.48751,685.19633 a 10.129922,10.129921 0 0 1 -10.12992,10.12993 10.129922,10.129921 0 0 1 -10.12993,-10.12993 10.129922,10.129921 0 0 1 10.12993,-10.12992 10.129922,10.129921 0 0 1 10.12992,10.12992 z"
       id="path4186"
       inkscape:connector-curvature="0" />
    <path
       style="opacity:1;fill:none;fill-opacity:1;stroke:#000000;stroke-width:1;stroke-linecap:round;stroke-linejoin:round;stroke-miterlimit:10;stroke-dasharray:none;stroke-dashoffset:0;stroke-opacity:1"
       d="m 541.07508,685.19633 a 10.129922,10.129921 0 0 1 -10.12992,10.12993 10.129922,10.129921 0 0 1 -10.12992,-10.12993 10.129922,10.129921 0 0 1 10.12992,-10.12992 10.129922,10.129921 0 0 1 10.12992,10.12992 z"
       id="ellipse4188"
       inkscape:connector-curvature="0" />
    <g
       id="g4248"
       transform="translate(-5.225486,-0.00178973)">
      <path
         id="path4680"
         d="m 701.65379,665.75594 a 6.4616141,6.4616141 0 0 1 -6.46161,6.46162 6.4616141,6.4616141 0 0 1 -6.46162,-6.46162 6.4616141,6.4616141 0 0 1 6.46162,-6.46161 6.4616141,6.4616141 0 0 1 6.46161,6.46161 z"
         style="opacity:1;fill:none;fill-opacity:1;stroke:#000000;stroke-width:1.25;stroke-linecap:round;stroke-linejoin:round;stroke-miterlimit:10;stroke-dasharray:none;stroke-dashoffset:0;stroke-opacity:1"
         inkscape:connector-curvature="0" />
      <path
         id="circle4682"
         d="m 59.10059,388.0964 a 6.4616141,6.4616141 0 0 1 -6.46161,6.46161 6.4616141,6.4616141 0 0 1 -6.46161,-6.46161 6.4616141,6.4616141 0 0 1 6.46161,-6.46162 6.4616141,6.4616141 0 0 1 6.46161,6.46162 z"
         style="opacity:1;fill:none;fill-opacity:1;stroke:#000000;stroke-width:1.25;stroke-linecap:round;stroke-linejoin:round;stroke-miterlimit:10;stroke-dasharray:none;stroke-dashoffset:0;stroke-opacity:1"
         inkscape:connector-curvature="0" />
      <path
         id="circle4684"
         d="m 59.10059,676.39425 a 6.4616141,6.4616141 0 0 1 -6.46161,6.46161 6.4616141,6.4616141 0 0 1 -6.46161,-6.46161 6.4616141,6.4616141 0 0 1 6.46161,-6.46162 6.4616141,6.4616141 0 0 1 6.46161,6.46162 z"
         style="opacity:1;fill:none;fill-opacity:1;stroke:#000000;stroke-width:1.25;stroke-linecap:round;stroke-linejoin:round;stroke-miterlimit:10;stroke-dasharray:none;stroke-dashoffset:0;stroke-opacity:1"
         inkscape:connector-curvature="0" />
      <path
         id="circle4686"
         d="m 701.65379,388.0964 a 6.4616141,6.4616141 0 0 1 -6.46161,6.46161 6.4616141,6.4616141 0 0 1 -6.46162,-6.46161 6.4616141,6.4616141 0 0 1 6.46162,-6.46162 6.4616141,6.4616141 0 0 1 6.46161,6.46162 z"
         style="opacity:1;fill:none;fill-opacity:1;stroke:#000000;stroke-width:1.25;stroke-linecap:round;stroke-linejoin:round;stroke-miterlimit:10;stroke-dasharray:none;stroke-dashoffset:0;stroke-opacity:1"
         inkscape:connector-curvature="0" />
    </g>
    <g
       style="font-style:normal;font-weight:normal;font-size:27.5px;line-height:125%;font-family:sans-serif;letter-spacing:0px;word-spacing:0px;fill:none;fill-opacity:1;stroke:#0000ff;stroke-width:1.4228555px;stroke-linecap:butt;stroke-linejoin:miter;stroke-opacity:1"
       id="text4280"
       transform="matrix(0.70637676,0,0,0.69926538,110.17805,70.88456)">
      <path
         d="m 275.20865,201.74443 -6.68945,18.13965 13.40332,0 -6.71387,-18.13965 z m -2.7832,-4.8584 5.59082,0 13.8916,36.4502 -5.12696,0 -3.32031,-9.35059 -16.43066,0 -3.32031,9.35059 -5.2002,0 13.91602,-36.4502 z"
         style="font-size:50px;fill:none;stroke:#0000ff;stroke-width:1.4228555px"
         id="path4331"
         inkscape:connector-curvature="0" />
      <path
         d="m 297.20572,196.88603 4.93164,0 0,32.29981 17.74902,0 0,4.15039 -22.68066,0 0,-36.4502 z"
         style="font-size:50px;fill:none;stroke:#0000ff;stroke-width:1.4228555px"
         id="path4333"
         inkscape:connector-curvature="0" />
      <path
         d="m 325.03775,196.88603 4.93164,0 0,36.4502 -4.93164,0 0,-36.4502 z"
         style="font-size:50px;fill:none;stroke:#0000ff;stroke-width:1.4228555px"
         id="path4335"
         inkscape:connector-curvature="0" />
      <path
         d="m 339.78384,196.88603 23.04688,0 0,4.15039 -18.11524,0 0,10.79102 17.3584,0 0,4.15039 -17.3584,0 0,13.20801 18.55469,0 0,4.15039 -23.48633,0 0,-36.4502 z"
         style="font-size:50px;fill:none;stroke:#0000ff;stroke-width:1.4228555px"
         id="path4337"
         inkscape:connector-curvature="0" />
      <path
         d="m 371.42447,196.88603 6.64062,0 16.16211,30.49317 0,-30.49317 4.78516,0 0,36.4502 -6.64063,0 -16.1621,-30.49317 0,30.49317 -4.78516,0 0,-36.4502 z"
         style="font-size:50px;fill:none;stroke:#0000ff;stroke-width:1.4228555px"
         id="path4339"
         inkscape:connector-curvature="0" />
      <path
         d="m 435.73111,200.1331 q -3.80859,0 -5.73731,3.75977 -1.90429,3.73535 -1.90429,11.25488 0,7.49512 1.90429,11.25488 1.92872,3.73536 5.73731,3.73536 3.83301,0 5.7373,-3.73536 1.92872,-3.75976 1.92872,-11.25488 0,-7.51953 -1.92872,-11.25488 -1.90429,-3.75977 -5.7373,-3.75977 z m 0,-3.90625 q 6.12793,0 9.35059,4.8584 3.24707,4.83399 3.24707,14.0625 0,9.2041 -3.24707,14.0625 -3.22266,4.83399 -9.35059,4.83399 -6.12793,0 -9.375,-4.83399 -3.22266,-4.8584 -3.22266,-14.0625 0,-9.22851 3.22266,-14.0625 3.24707,-4.8584 9.375,-4.8584 z"
         style="font-size:50px;fill:none;stroke:#0000ff;stroke-width:1.4228555px"
         id="path4341"
         inkscape:connector-curvature="0" />
      <path
         d="m 457.87466,229.18584 8.05664,0 0,-27.80762 -8.76464,1.75781 0,-4.49219 8.71582,-1.75781 4.93164,0 0,32.29981 8.05664,0 0,4.15039 -20.9961,0 0,-4.15039 z"
         style="font-size:50px;fill:none;stroke:#0000ff;stroke-width:1.4228555px"
         id="path4343"
         inkscape:connector-curvature="0" />
      <text
         xml:space="preserve"
         style="font-style:normal;font-weight:normal;font-size:39.12852478px;line-height:125%;font-family:sans-serif;letter-spacing:0px;word-spacing:0px;fill:#000000;fill-opacity:1;stroke:none;stroke-width:1px;stroke-linecap:butt;stroke-linejoin:miter;stroke-opacity:1"
         x="302.00549"
         y="234.87962"
         id="text5942"
         sodipodi:linespacing="125%"
         transform="scale(0.99495357,1.005072)"><tspan
           sodipodi:role="line"
           id="tspan5944"
           x="302.00549"
           y="234.87962" /></text>
      <text
         xml:space="preserve"
         style="font-style:normal;font-weight:normal;font-size:39.12852478px;line-height:125%;font-family:sans-serif;letter-spacing:0px;word-spacing:0px;fill:#000000;fill-opacity:1;stroke:none;stroke-width:1px;stroke-linecap:butt;stroke-linejoin:miter;stroke-opacity:1"
         x="467.76852"
         y="235.97983"
         id="text5946"
         sodipodi:linespacing="125%"
         transform="scale(0.99495357,1.005072)"><tspan
           sodipodi:role="line"
           id="tspan5948"
           x="467.76852"
           y="235.97983" /></text>
      <text
         xml:space="preserve"
         style="font-style:normal;font-weight:normal;font-size:39.12852478px;line-height:125%;font-family:sans-serif;letter-spacing:0px;word-spacing:0px;fill:#000000;fill-opacity:1;stroke:none;stroke-width:1px;stroke-linecap:butt;stroke-linejoin:miter;stroke-opacity:1"
         x="499.3075"
         y="224.97786"
         id="text5950"
         sodipodi:linespacing="125%"
         transform="scale(0.99495357,1.005072)"><tspan
           sodipodi:role="line"
           id="tspan5952"
           x="499.3075"
           y="224.97786"></tspan></text>
    </g>
    <path
       style="opacity:1;fill:none;fill-opacity:1;stroke:#000000;stroke-width:1;stroke-linecap:round;stroke-linejoin:round;stroke-miterlimit:10;stroke-dasharray:none;stroke-dashoffset:0;stroke-opacity:1"
       d="m 516.72493,298.29652 c 6.29546,0 11.36364,5.06818 11.36364,11.36364 l 0,28.40909 c 0,6.29545 -5.06818,11.36364 -11.36364,11.36364 -6.29545,0 -11.36364,-5.06819 -11.36364,-11.36364 l 0,-28.40909 c 0,-6.29546 5.06819,-11.36364 11.36364,-11.36364 z"
       id="rect4290"
       inkscape:connector-curvature="0" />
    <path
       id="path3381"
       d="m 599.28716,371.88264 a 4.81496,4.81496 0 0 1 -4.81496,4.81496 4.81496,4.81496 0 0 1 -4.81496,-4.81496 4.81496,4.81496 0 0 1 4.81496,-4.81496 4.81496,4.81496 0 0 1 4.81496,4.81496 z"
       style="opacity:1;fill:none;fill-opacity:1;stroke:#000000;stroke-width:1;stroke-linecap:round;stroke-linejoin:round;stroke-miterlimit:10;stroke-dasharray:none;stroke-dashoffset:0;stroke-opacity:1"
       inkscape:connector-curvature="0" />
    <path
       inkscape:connector-curvature="0"
       style="opacity:1;fill:none;fill-opacity:1;stroke:#000000;stroke-width:1;stroke-linecap:round;stroke-linejoin:round;stroke-miterlimit:10;stroke-dasharray:none;stroke-dashoffset:0;stroke-opacity:1"
       d="m 555.28716,371.88264 a 4.81496,4.81496 0 0 1 -4.81496,4.81496 4.81496,4.81496 0 0 1 -4.81496,-4.81496 4.81496,4.81496 0 0 1 4.81496,-4.81496 4.81496,4.81496 0 0 1 4.81496,4.81496 z"
       id="path3383" />
    <path
       id="path3385"
       d="m 339.16914,495.01302 0.34838,0 c 7.60923,0 13.73507,2.5405 13.73507,5.69616 l 0,148.61801 c 0,3.15568 -6.12584,5.69617 -13.73507,5.69617 l -0.34838,0 c -7.60924,0 -13.73507,-2.54049 -13.73507,-5.69617 l 0,-148.61801 c 0,-3.15566 6.12583,-5.69616 13.73507,-5.69616 z"
       style="opacity:1;fill:none;fill-opacity:1;stroke:#000000;stroke-width:1.03167856;stroke-linecap:round;stroke-linejoin:round;stroke-miterlimit:10;stroke-dasharray:none;stroke-dashoffset:0;stroke-opacity:1"
       inkscape:connector-curvature="0" />
    <path
       style="opacity:1;fill:none;fill-opacity:1;fill-rule:nonzero;stroke:#ff0000;stroke-width:1;stroke-linecap:round;stroke-linejoin:miter;stroke-miterlimit:4;stroke-dasharray:none;stroke-dashoffset:0;stroke-opacity:1"
       d="m 316.83481,299.62009 140.73228,0 0,140.73228 -140.73228,0 z"
       id="rect3387" />
    <g
       id="g3395"
       transform="translate(158.47147,-403.72656)">
      <path
         inkscape:connector-curvature="0"
         style="opacity:1;fill:none;fill-opacity:1;stroke:#000000;stroke-width:1;stroke-linecap:round;stroke-linejoin:round;stroke-miterlimit:10;stroke-dasharray:none;stroke-dashoffset:0;stroke-opacity:1"
         d="m 283.15072,721.81046 a 4.81496,4.81496 0 0 1 -4.81496,4.81496 4.81496,4.81496 0 0 1 -4.81495,-4.81496 4.81496,4.81496 0 0 1 4.81495,-4.81496 4.81496,4.81496 0 0 1 4.81496,4.81496 z"
         id="path3391" />
      <path
         id="path3393"
         d="m 183.93813,721.81046 a 4.81496,4.81496 0 0 1 -4.81496,4.81496 4.81496,4.81496 0 0 1 -4.81496,-4.81496 4.81496,4.81496 0 0 1 4.81496,-4.81496 4.81496,4.81496 0 0 1 4.81496,4.81496 z"
         style="opacity:1;fill:none;fill-opacity:1;stroke:#000000;stroke-width:1;stroke-linecap:round;stroke-linejoin:round;stroke-miterlimit:10;stroke-dasharray:none;stroke-dashoffset:0;stroke-opacity:1"
         inkscape:connector-curvature="0" />
    </g>
    <g
       style="font-style:normal;font-weight:normal;font-size:27.5px;line-height:125%;font-family:sans-serif;letter-spacing:0px;word-spacing:0px;fill:none;fill-opacity:1;stroke:#0000ff;stroke-width:1px;stroke-linecap:butt;stroke-linejoin:miter;stroke-opacity:1"
       id="text3399">
      <path
         d="m 381.80679,645.47449 0,8.50342 1.78711,0 q 2.26319,0 3.31055,-1.0254 1.05469,-1.02539 1.05469,-3.2373 0,-2.19727 -1.05469,-3.21533 -1.04736,-1.02539 -3.31055,-1.02539 l -1.78711,0 z m -1.47949,-1.21582 3.03955,0 q 3.17871,0 4.66553,1.32568 1.48682,1.31836 1.48682,4.13086 0,2.82715 -1.49415,4.15283 -1.49414,1.32569 -4.6582,1.32569 l -3.03955,0 0,-10.93506 z"
         style="font-size:15px;fill:none;stroke:#0000ff"
         id="path4535" />
      <path
         d="m 398.82828,650.75525 0,0.65918 -6.19629,0 q 0.0879,1.3916 0.83496,2.12402 0.75439,0.7251 2.09473,0.7251 0.77636,0 1.50146,-0.19043 0.73242,-0.19043 1.4502,-0.57129 l 0,1.27442 q -0.7251,0.30761 -1.48682,0.46875 -0.76172,0.16113 -1.54541,0.16113 -1.96289,0 -3.11279,-1.14258 -1.14258,-1.14258 -1.14258,-3.09082 0,-2.01416 1.08398,-3.19336 1.09131,-1.18652 2.93701,-1.18652 1.65528,0 2.61475,1.06933 0.9668,1.06201 0.9668,2.89307 z m -1.34766,-0.39551 q -0.0146,-1.10596 -0.62256,-1.76514 -0.60058,-0.65918 -1.59668,-0.65918 -1.12793,0 -1.80908,0.63721 -0.67383,0.63721 -0.77637,1.79444 l 4.80469,-0.007 z"
         style="font-size:15px;fill:none;stroke:#0000ff"
         id="path4537" />
      <path
         d="m 401.04019,643.79724 1.34766,0 0,11.39649 -1.34766,0 0,-11.39649 z"
         style="font-size:15px;fill:none;stroke:#0000ff"
         id="path4539" />
    </g>
    <g
       style="font-style:normal;font-weight:normal;font-size:27.5px;line-height:125%;font-family:sans-serif;letter-spacing:0px;word-spacing:0px;fill:none;fill-opacity:1;stroke:#0000ff;stroke-width:1px;stroke-linecap:butt;stroke-linejoin:miter;stroke-opacity:1"
       id="text3403">
      <path
         d="m 459.66458,653.72302 0,-2.93701 -2.41699,0 0,-1.21582 3.88184,0 0,4.69482 q -0.85694,0.60791 -1.88965,0.92286 -1.03272,0.30761 -2.20459,0.30761 -2.56348,0 -4.01368,-1.49414 -1.44287,-1.50146 -1.44287,-4.1748 0,-2.68067 1.44287,-4.17481 1.4502,-1.50146 4.01368,-1.50146 1.06933,0 2.02881,0.26367 0.96679,0.26367 1.77978,0.77637 l 0,1.5747 q -0.82031,-0.6958 -1.74316,-1.04736 -0.92286,-0.35156 -1.94092,-0.35156 -2.00684,0 -3.01758,1.1206 -1.00342,1.12061 -1.00342,3.33985 0,2.21191 1.00342,3.33252 1.01074,1.1206 3.01758,1.1206 0.78369,0 1.39892,-0.13183 0.61524,-0.13916 1.10596,-0.42481 z"
         style="font-size:15px;fill:none;stroke:#0000ff"
         id="path4530" />
      <path
         d="m 466.9595,648.02478 q -1.08398,0 -1.71386,0.84961 -0.62989,0.84228 -0.62989,2.31445 0,1.47217 0.62256,2.32178 0.62988,0.84229 1.72119,0.84229 1.07666,0 1.70655,-0.84961 0.62988,-0.84961 0.62988,-2.31446 0,-1.45752 -0.62988,-2.30713 -0.62989,-0.85693 -1.70655,-0.85693 z m 0,-1.14258 q 1.75782,0 2.76123,1.14258 1.00342,1.14258 1.00342,3.16406 0,2.01416 -1.00342,3.16407 -1.00341,1.14257 -2.76123,1.14257 -1.76513,0 -2.76855,-1.14257 -0.9961,-1.14991 -0.9961,-3.16407 0,-2.02148 0.9961,-3.16406 1.00342,-1.14258 2.76855,-1.14258 z"
         style="font-size:15px;fill:none;stroke:#0000ff"
         id="path4532" />
    </g>
    <g
       style="font-style:normal;font-weight:normal;font-size:27.5px;line-height:125%;font-family:sans-serif;letter-spacing:0px;word-spacing:0px;fill:none;fill-opacity:1;stroke:#0000ff;stroke-width:1px;stroke-linecap:butt;stroke-linejoin:miter;stroke-opacity:1"
       id="text3407">
      <path
         d="m 428.72742,481.41211 q -1.61133,0 -2.56348,1.20117 -0.94482,1.20117 -0.94482,3.27393 0,2.06543 0.94482,3.2666 0.95215,1.20117 2.56348,1.20117 1.61133,0 2.54883,-1.20117 0.94482,-1.20117 0.94482,-3.2666 0,-2.07276 -0.94482,-3.27393 -0.9375,-1.20117 -2.54883,-1.20117 z m 0,-1.20117 q 2.2998,0 3.67675,1.54541 1.37696,1.53808 1.37696,4.13086 0,2.58545 -1.37696,4.13086 -1.37695,1.53808 -3.67675,1.53808 -2.30713,0 -3.69141,-1.53808 -1.37695,-1.53809 -1.37695,-4.13086 0,-2.59278 1.37695,-4.13086 1.38428,-1.54541 3.69141,-1.54541 z"
         style="font-size:15px;fill:none;stroke:#0000ff"
         id="path4525" />
      <path
         d="m 442.85583,486.39258 0,4.95117 -1.34765,0 0,-4.90723 q 0,-1.16455 -0.4541,-1.74316 -0.4541,-0.57861 -1.36231,-0.57861 -1.09131,0 -1.72119,0.6958 -0.62988,0.6958 -0.62988,1.89697 l 0,4.63623 -1.35498,0 0,-8.20313 1.35498,0 0,1.27442 q 0.4834,-0.73975 1.13525,-1.10596 0.65918,-0.36621 1.51612,-0.36621 1.41357,0 2.13867,0.87891 0.72509,0.87158 0.72509,2.5708 z"
         style="font-size:15px;fill:none;stroke:#0000ff"
         id="path4527" />
    </g>
    <g
       style="font-style:normal;font-weight:normal;font-size:27.5px;line-height:125%;font-family:sans-serif;letter-spacing:0px;word-spacing:0px;fill:none;fill-opacity:1;stroke:#0000ff;stroke-width:1px;stroke-linecap:butt;stroke-linejoin:miter;stroke-opacity:1"
       id="text3411">
      <path
         d="m 479.73505,538.7019 0,4.10889 1.86035,0 q 1.03271,0 1.59668,-0.53467 0.56396,-0.53466 0.56396,-1.52343 0,-0.98145 -0.56396,-1.51612 -0.56397,-0.53467 -1.59668,-0.53467 l -1.86035,0 z m -1.4795,-1.21582 3.33985,0 q 1.83838,0 2.77588,0.83496 0.94482,0.82764 0.94482,2.43165 0,1.61865 -0.94482,2.44628 -0.9375,0.82764 -2.77588,0.82764 l -1.86035,0 0,4.39453 -1.4795,0 0,-10.93506 z"
         style="font-size:15px;fill:none;stroke:#0000ff"
         id="path4514" />
      <path
         d="m 489.90106,541.16284 q -1.08398,0 -1.71387,0.84961 -0.62988,0.84229 -0.62988,2.31445 0,1.47217 0.62256,2.32178 0.62988,0.84229 1.72119,0.84229 1.07666,0 1.70654,-0.84961 0.62989,-0.84961 0.62989,-2.31446 0,-1.45752 -0.62989,-2.30712 -0.62988,-0.85694 -1.70654,-0.85694 z m 0,-1.14258 q 1.75781,0 2.76123,1.14258 1.00342,1.14258 1.00342,3.16406 0,2.01416 -1.00342,3.16407 -1.00342,1.14257 -2.76123,1.14257 -1.76513,0 -2.76855,-1.14257 -0.9961,-1.14991 -0.9961,-3.16407 0,-2.02148 0.9961,-3.16406 1.00342,-1.14258 2.76855,-1.14258 z"
         style="font-size:15px;fill:none;stroke:#0000ff"
         id="path4516" />
      <path
         d="m 495.10858,540.21802 1.34766,0 1.68457,6.40136 1.67724,-6.40136 1.58936,0 1.68457,6.40136 1.67725,-6.40136 1.34765,0 -2.14599,8.20312 -1.58936,0 -1.76514,-6.72363 -1.77246,6.72363 -1.58935,0 -2.146,-8.20312 z"
         style="font-size:15px;fill:none;stroke:#0000ff"
         id="path4518" />
      <path
         d="m 515.18427,543.98267 0,0.65918 -6.19629,0 q 0.0879,1.3916 0.83496,2.12402 0.75439,0.7251 2.09472,0.7251 0.77637,0 1.50147,-0.19043 0.73242,-0.19043 1.45019,-0.57129 l 0,1.27441 q -0.72509,0.30762 -1.48681,0.46875 -0.76172,0.16113 -1.54541,0.16113 -1.96289,0 -3.1128,-1.14257 -1.14257,-1.14258 -1.14257,-3.09082 0,-2.01416 1.08398,-3.19336 1.09131,-1.18653 2.93701,-1.18653 1.65528,0 2.61475,1.06934 0.9668,1.06201 0.9668,2.89307 z m -1.34766,-0.39551 q -0.0146,-1.10596 -0.62256,-1.76514 -0.60059,-0.65918 -1.59668,-0.65918 -1.12793,0 -1.80908,0.63721 -0.67383,0.63721 -0.77637,1.79443 l 4.80469,-0.007 z"
         style="font-size:15px;fill:none;stroke:#0000ff"
         id="path4520" />
      <path
         d="m 522.1496,541.47778 q -0.22705,-0.13183 -0.49805,-0.19043 -0.26367,-0.0659 -0.58594,-0.0659 -1.14258,0 -1.75781,0.74707 -0.60791,0.73974 -0.60791,2.13134 l 0,4.32129 -1.35498,0 0,-8.20312 1.35498,0 0,1.27441 q 0.4248,-0.74707 1.10596,-1.10596 0.68115,-0.36621 1.65527,-0.36621 0.13916,0 0.30762,0.022 0.16845,0.0146 0.37353,0.0513 l 0.007,1.38427 z"
         style="font-size:15px;fill:none;stroke:#0000ff"
         id="path4522" />
    </g>
    <g
       style="font-style:normal;font-weight:normal;font-size:27.5px;line-height:125%;font-family:sans-serif;letter-spacing:0px;word-spacing:0px;fill:none;fill-opacity:1;stroke:#0000ff;stroke-width:1px;stroke-linecap:butt;stroke-linejoin:miter;stroke-opacity:1"
       id="text3415">
      <path
         d="m 381.642,715.47449 0,4.10888 1.86035,0 q 1.03271,0 1.59668,-0.53466 0.56396,-0.53467 0.56396,-1.52344 0,-0.98145 -0.56396,-1.51611 -0.56397,-0.53467 -1.59668,-0.53467 l -1.86035,0 z m -1.47949,-1.21582 3.33984,0 q 1.83838,0 2.77588,0.83496 0.94482,0.82763 0.94482,2.43164 0,1.61865 -0.94482,2.44629 -0.9375,0.82763 -2.77588,0.82763 l -1.86035,0 0,4.39454 -1.47949,0 0,-10.93506 z"
         style="font-size:15px;fill:none;stroke:#0000ff"
         id="path4507" />
      <path
         d="m 391.80801,717.93542 q -1.08398,0 -1.71386,0.84961 -0.62989,0.84229 -0.62989,2.31446 0,1.47217 0.62256,2.32177 0.62989,0.84229 1.72119,0.84229 1.07666,0 1.70655,-0.84961 0.62988,-0.84961 0.62988,-2.31445 0,-1.45752 -0.62988,-2.30713 -0.62989,-0.85694 -1.70655,-0.85694 z m 0,-1.14257 q 1.75782,0 2.76123,1.14257 1.00342,1.14258 1.00342,3.16407 0,2.01416 -1.00342,3.16406 -1.00341,1.14258 -2.76123,1.14258 -1.76513,0 -2.76855,-1.14258 -0.99609,-1.1499 -0.99609,-3.16406 0,-2.02149 0.99609,-3.16407 1.00342,-1.14257 2.76855,-1.14257 z"
         style="font-size:15px;fill:none;stroke:#0000ff"
         id="path4509" />
      <path
         d="m 402.55264,718.25037 q -0.22705,-0.13184 -0.49804,-0.19043 -0.26368,-0.0659 -0.58594,-0.0659 -1.14258,0 -1.75781,0.74707 -0.60791,0.73974 -0.60791,2.13135 l 0,4.32129 -1.35498,0 0,-8.20313 1.35498,0 0,1.27441 q 0.4248,-0.74707 1.10595,-1.10595 0.68116,-0.36621 1.65528,-0.36621 0.13916,0 0.30761,0.022 0.16846,0.0146 0.37354,0.0513 l 0.007,1.38428 z"
         style="font-size:15px;fill:none;stroke:#0000ff"
         id="path4511" />
    </g>
    <g
       style="font-style:normal;font-weight:normal;font-size:27.5px;line-height:125%;font-family:sans-serif;letter-spacing:0px;word-spacing:0px;fill:none;fill-opacity:1;stroke:#0000ff;stroke-width:1px;stroke-linecap:butt;stroke-linejoin:miter;stroke-opacity:1"
       id="text3419">
      <path
         d="m 513.38901,642.57404 1.47949,0 0,10.17334 q 0,1.97753 -0.75439,2.87109 -0.74708,0.89355 -2.40967,0.89355 l -0.56397,0 0,-1.24511 0.46143,0 q 0.98144,0 1.38428,-0.54932 0.40283,-0.54932 0.40283,-1.97021 l 0,-10.17334 z"
         style="font-size:15px;fill:none;stroke:#0000ff"
         id="path4496" />
      <path
         d="m 517.61508,650.27179 0,-4.96582 1.34766,0 0,4.91455 q 0,1.16455 0.4541,1.75049 0.4541,0.57861 1.3623,0.57861 1.09131,0 1.7212,-0.6958 0.6372,-0.6958 0.6372,-1.89697 l 0,-4.65088 1.34766,0 0,8.20312 -1.34766,0 0,-1.25976 q -0.49072,0.74707 -1.14258,1.11328 -0.64453,0.35889 -1.50146,0.35889 -1.41357,0 -2.146,-0.87891 -0.73242,-0.87891 -0.73242,-2.5708 z m 3.39112,-5.16357 0,0 z"
         style="font-size:15px;fill:none;stroke:#0000ff"
         id="path4498" />
      <path
         d="m 532.67368,649.31232 q 0,-1.46485 -0.60791,-2.27051 -0.60059,-0.80566 -1.6919,-0.80566 -1.08398,0 -1.69189,0.80566 -0.60059,0.80566 -0.60059,2.27051 0,1.45752 0.60059,2.26318 0.60791,0.80566 1.69189,0.80566 1.09131,0 1.6919,-0.80566 0.60791,-0.80566 0.60791,-2.26318 z m 1.34765,3.17871 q 0,2.09472 -0.93017,3.11279 -0.93018,1.02539 -2.84913,1.02539 -0.71044,0 -1.34033,-0.10986 -0.62988,-0.10254 -1.22314,-0.32227 l 0,-1.31103 q 0.59326,0.32226 1.17187,0.47607 0.57862,0.15381 1.1792,0.15381 1.32569,0 1.98487,-0.6958 0.65918,-0.68848 0.65918,-2.0874 l 0,-0.66651 q -0.41748,0.7251 -1.06934,1.08399 -0.65186,0.35888 -1.56006,0.35888 -1.50879,0 -2.43164,-1.1499 -0.92285,-1.1499 -0.92285,-3.04687 0,-1.9043 0.92285,-3.0542 0.92285,-1.1499 2.43164,-1.1499 0.9082,0 1.56006,0.35888 0.65186,0.35889 1.06934,1.08399 l 0,-1.24512 1.34765,0 0,7.18506 z"
         style="font-size:15px;fill:none;stroke:#0000ff"
         id="path4500" />
      <path
         d="m 540.52524,649.38556 q -1.6333,0 -2.26319,0.37353 -0.62988,0.37354 -0.62988,1.27442 0,0.71777 0.46875,1.14258 0.47608,0.41748 1.28906,0.41748 1.12061,0 1.79444,-0.79102 0.68115,-0.79834 0.68115,-2.1167 l 0,-0.30029 -1.34033,0 z m 2.68799,-0.55664 0,4.68017 -1.34766,0 0,-1.24511 q -0.46143,0.74707 -1.1499,1.10595 -0.68848,0.35157 -1.68457,0.35157 -1.25977,0 -2.00684,-0.70313 -0.73974,-0.71045 -0.73974,-1.89697 0,-1.38428 0.92285,-2.0874 0.93017,-0.70313 2.76855,-0.70313 l 1.88965,0 0,-0.13183 q 0,-0.93018 -0.61523,-1.43555 -0.60791,-0.5127 -1.71387,-0.5127 -0.70313,0 -1.36963,0.16846 -0.6665,0.16846 -1.28174,0.50537 l 0,-1.24512 q 0.73975,-0.28564 1.43555,-0.4248 0.6958,-0.14648 1.35498,-0.14648 1.77978,0 2.65869,0.92285 0.87891,0.92285 0.87891,2.79785 z"
         style="font-size:15px;fill:none;stroke:#0000ff"
         id="path4502" />
      <path
         d="m 550.74985,646.56573 q -0.22705,-0.13183 -0.49805,-0.19042 -0.26367,-0.0659 -0.58594,-0.0659 -1.14258,0 -1.75781,0.74707 -0.60791,0.73974 -0.60791,2.13135 l 0,4.32128 -1.35498,0 0,-8.20312 1.35498,0 0,1.27441 q 0.42481,-0.74707 1.10596,-1.10595 0.68115,-0.36621 1.65527,-0.36621 0.13916,0 0.30762,0.022 0.16846,0.0147 0.37353,0.0513 l 0.007,1.38427 z"
         style="font-size:15px;fill:none;stroke:#0000ff"
         id="path4504" />
    </g>
    <g
       style="font-style:normal;font-weight:normal;font-size:27.5px;line-height:125%;font-family:sans-serif;letter-spacing:0px;word-spacing:0px;fill:none;fill-opacity:1;stroke:#0000ff;stroke-width:1px;stroke-linecap:butt;stroke-linejoin:miter;stroke-opacity:1"
       id="text3423">
      <path
         d="m 516.32605,714.25861 9.25049,0 0,1.24511 -3.88184,0 0,9.68994 -1.48681,0 0,-9.68994 -3.88184,0 0,-1.24511 z"
         style="font-size:15px;fill:none;stroke:#0000ff"
         id="path4487" />
      <path
         d="m 531.42126,720.75519 0,0.65918 -6.19628,0 q 0.0879,1.3916 0.83496,2.12402 0.75439,0.7251 2.09472,0.7251 0.77637,0 1.50147,-0.19043 0.73242,-0.19043 1.45019,-0.57129 l 0,1.27441 q -0.72509,0.30762 -1.48681,0.46875 -0.76172,0.16114 -1.54541,0.16114 -1.96289,0 -3.1128,-1.14258 -1.14257,-1.14258 -1.14257,-3.09082 0,-2.01416 1.08398,-3.19336 1.09131,-1.18652 2.93701,-1.18652 1.65528,0 2.61475,1.06933 0.96679,1.06201 0.96679,2.89307 z m -1.34765,-0.39551 q -0.0147,-1.10596 -0.62256,-1.76514 -0.60059,-0.65918 -1.59668,-0.65918 -1.12793,0 -1.80908,0.63721 -0.67383,0.63721 -0.77637,1.79443 l 4.80469,-0.007 z"
         style="font-size:15px;fill:none;stroke:#0000ff"
         id="path4489" />
      <path
         d="m 538.86267,717.23224 0,1.27441 q -0.57129,-0.29297 -1.18652,-0.43945 -0.61524,-0.14648 -1.27442,-0.14648 -1.00341,0 -1.50879,0.30761 -0.49804,0.30762 -0.49804,0.92285 0,0.46875 0.35888,0.73975 0.35889,0.26367 1.44288,0.50537 l 0.46142,0.10254 q 1.43555,0.30762 2.03613,0.87158 0.60791,0.55664 0.60791,1.56006 0,1.14258 -0.9082,1.80908 -0.90088,0.66651 -2.48291,0.66651 -0.65918,0 -1.37695,-0.13184 -0.71045,-0.12451 -1.50147,-0.38086 l 0,-1.3916 q 0.74707,0.38818 1.47217,0.58594 0.7251,0.19043 1.43555,0.19043 0.95215,0 1.46484,-0.32227 0.5127,-0.32959 0.5127,-0.92285 0,-0.54932 -0.37354,-0.84229 -0.36621,-0.29296 -1.61865,-0.56396 l -0.46875,-0.10986 q -1.25244,-0.26368 -1.80908,-0.80567 -0.55664,-0.54931 -0.55664,-1.50146 0,-1.15723 0.82031,-1.78711 0.82031,-0.62988 2.3291,-0.62988 0.74707,0 1.40625,0.10986 0.65918,0.10986 1.21582,0.32959 z"
         style="font-size:15px;fill:none;stroke:#0000ff"
         id="path4491" />
      <path
         d="m 542.78845,714.66144 0,2.3291 2.77588,0 0,1.04736 -2.77588,0 0,4.45313 q 0,1.00342 0.271,1.28906 0.27832,0.28564 1.1206,0.28564 l 1.38428,0 0,1.12793 -1.38428,0 q -1.56005,0 -2.15332,-0.57861 -0.59326,-0.58594 -0.59326,-2.12402 l 0,-4.45313 -0.98877,0 0,-1.04736 0.98877,0 0,-2.3291 1.35498,0 z"
         style="font-size:15px;fill:none;stroke:#0000ff"
         id="path4493" />
    </g>
    <g
       style="font-style:normal;font-weight:normal;font-size:27.5px;line-height:125%;font-family:sans-serif;letter-spacing:0px;word-spacing:0px;fill:none;fill-opacity:1;stroke:#0000ff;stroke-width:1px;stroke-linecap:butt;stroke-linejoin:miter;stroke-opacity:1"
       id="text3439">
      <path
         d="m 551.74359,482.94489 1.83716,0 2.32544,6.20117 2.33765,-6.20117 1.83715,0 0,9.11254 -1.20239,0 0,-8.0017 -2.34985,6.25 -1.23902,0 -2.34985,-6.25 0,8.0017 -1.19629,0 0,-9.11254 z"
         style="font-size:12.5px;fill:none;stroke:#0000ff"
         id="path4470" />
      <path
         d="m 565.1347,486.00885 q -0.90332,0 -1.42822,0.70801 -0.5249,0.7019 -0.5249,1.92871 0,1.22681 0.5188,1.93481 0.5249,0.70191 1.43432,0.70191 0.89722,0 1.42212,-0.70801 0.52491,-0.70801 0.52491,-1.92871 0,-1.2146 -0.52491,-1.92261 -0.5249,-0.71411 -1.42212,-0.71411 z m 0,-0.95215 q 1.46485,0 2.30103,0.95215 0.83618,0.95215 0.83618,2.63672 0,1.67847 -0.83618,2.63672 -0.83618,0.95215 -2.30103,0.95215 -1.47094,0 -2.30712,-0.95215 -0.83008,-0.95825 -0.83008,-2.63672 0,-1.68457 0.83008,-2.63672 0.83618,-0.95215 2.30712,-0.95215 z"
         style="font-size:12.5px;fill:none;stroke:#0000ff"
         id="path4472" />
      <path
         d="m 574.62567,486.25909 0,-3.69873 1.12305,0 0,9.49707 -1.12305,0 0,-1.02539 q -0.354,0.61036 -0.89722,0.90943 -0.5371,0.29297 -1.29394,0.29297 -1.23901,0 -2.02026,-0.98877 -0.77515,-0.98877 -0.77515,-2.6001 0,-1.61133 0.77515,-2.6001 0.78125,-0.98877 2.02026,-0.98877 0.75684,0 1.29394,0.29907 0.54322,0.29297 0.89722,0.90332 z m -3.8269,2.38648 q 0,1.23901 0.50659,1.94702 0.51269,0.7019 1.40381,0.7019 0.89111,0 1.40381,-0.7019 0.51269,-0.70801 0.51269,-1.94702 0,-1.23901 -0.51269,-1.94092 -0.5127,-0.70801 -1.40381,-0.70801 -0.89112,0 -1.40381,0.70801 -0.50659,0.70191 -0.50659,1.94092 z"
         style="font-size:12.5px;fill:none;stroke:#0000ff"
         id="path4474" />
      <path
         d="m 578.22064,490.50714 1.28784,0 0,1.55029 -1.28784,0 0,-1.55029 z"
         style="font-size:12.5px;fill:none;stroke:#0000ff"
         id="path4476" />
      <path
         d="m 584.80634,482.94489 7.70874,0 0,1.03759 -3.23487,0 0,8.07495 -1.23901,0 0,-8.07495 -3.23486,0 0,-1.03759 z"
         style="font-size:12.5px;fill:none;stroke:#0000ff"
         id="path4478" />
      <path
         d="m 597.38568,488.3587 0,0.54932 -5.16357,0 q 0.0732,1.15967 0.6958,1.77002 0.62866,0.60425 1.7456,0.60425 0.64698,0 1.25122,-0.15869 0.61036,-0.1587 1.2085,-0.47608 l 0,1.06201 q -0.60425,0.25635 -1.23901,0.39063 -0.63477,0.13428 -1.28785,0.13428 -1.63574,0 -2.59399,-0.95215 -0.95215,-0.95215 -0.95215,-2.57569 0,-1.67846 0.90332,-2.66113 0.90943,-0.98877 2.44751,-0.98877 1.3794,0 2.17896,0.89111 0.80566,0.88501 0.80566,2.41089 z m -1.12305,-0.32959 q -0.0122,-0.92163 -0.51879,-1.47094 -0.50049,-0.54932 -1.33057,-0.54932 -0.93994,0 -1.50757,0.53101 -0.56152,0.531 -0.64697,1.49536 l 4.0039,-0.006 z"
         style="font-size:12.5px;fill:none;stroke:#0000ff"
         id="path4480" />
      <path
         d="m 603.58685,485.42291 0,1.06201 q -0.47607,-0.24414 -0.98877,-0.36621 -0.51269,-0.12207 -1.06201,-0.12207 -0.83618,0 -1.25732,0.25635 -0.41504,0.25635 -0.41504,0.76904 0,0.39063 0.29907,0.61646 0.29907,0.21973 1.20239,0.42114 l 0.38452,0.0854 q 1.19629,0.25635 1.69678,0.72632 0.50659,0.46387 0.50659,1.30005 0,0.95215 -0.75683,1.50757 -0.75073,0.55542 -2.06909,0.55542 -0.54932,0 -1.14746,-0.10987 -0.59205,-0.10376 -1.25123,-0.31738 l 0,-1.15967 q 0.62256,0.32349 1.22681,0.48828 0.60425,0.15869 1.19629,0.15869 0.79346,0 1.2207,-0.26855 0.42725,-0.27466 0.42725,-0.76904 0,-0.45777 -0.31128,-0.70191 -0.30518,-0.24414 -1.34888,-0.46997 l -0.39062,-0.0915 q -1.0437,-0.21973 -1.50757,-0.67139 -0.46387,-0.45776 -0.46387,-1.25122 0,-0.96435 0.6836,-1.48926 0.68359,-0.5249 1.94091,-0.5249 0.62256,0 1.17188,0.0916 0.54932,0.0916 1.01318,0.27466 z"
         style="font-size:12.5px;fill:none;stroke:#0000ff"
         id="path4482" />
      <path
         d="m 606.85834,483.28058 0,1.94092 2.31323,0 0,0.8728 -2.31323,0 0,3.71094 q 0,0.83618 0.22583,1.07422 0.23193,0.23803 0.93384,0.23803 l 1.15356,0 0,0.93994 -1.15356,0 q -1.30005,0 -1.79444,-0.48217 -0.49438,-0.48828 -0.49438,-1.77002 l 0,-3.71094 -0.82398,0 0,-0.8728 0.82398,0 0,-1.94092 1.12915,0 z"
         style="font-size:12.5px;fill:none;stroke:#0000ff"
         id="path4484" />
    </g>
    <g
       style="font-style:normal;font-weight:normal;font-size:27.5px;line-height:125%;font-family:sans-serif;letter-spacing:0px;word-spacing:0px;fill:none;fill-opacity:1;stroke:#0000ff;stroke-width:1px;stroke-linecap:butt;stroke-linejoin:miter;stroke-opacity:1"
       id="text3443">
      <path
         d="m 554.89301,501.75665 q -0.95215,0 -1.43433,0.93994 -0.47608,0.93384 -0.47608,2.81372 0,1.87378 0.47608,2.81373 0.48218,0.93383 1.43433,0.93383 0.95825,0 1.43432,-0.93383 0.48218,-0.93995 0.48218,-2.81373 0,-1.87988 -0.48218,-2.81372 -0.47607,-0.93994 -1.43432,-0.93994 z m 0,-0.97656 q 1.53198,0 2.33764,1.2146 0.81177,1.2085 0.81177,3.51562 0,2.30103 -0.81177,3.51563 -0.80566,1.2085 -2.33764,1.2085 -1.53199,0 -2.34375,-1.2085 -0.80567,-1.2146 -0.80567,-3.51563 0,-2.30712 0.80567,-3.51562 0.81176,-1.2146 2.34375,-1.2146 z"
         style="font-size:12.5px;fill:none;stroke:#0000ff"
         id="path4451" />
      <path
         d="m 563.46844,506.13287 3.2898,0 0,1.00098 -3.2898,0 0,-1.00098 z"
         style="font-size:12.5px;fill:none;stroke:#0000ff"
         id="path4453" />
      <path
         d="m 573.8139,505.70563 0,3.33862 1.97754,0 q 0.99488,0 1.47095,-0.40894 0.48218,-0.41503 0.48218,-1.26342 0,-0.85449 -0.48218,-1.25733 -0.47607,-0.40893 -1.47095,-0.40893 l -1.97754,0 z m 0,-3.74756 0,2.74658 1.82495,0 q 0.90333,0 1.34278,-0.33569 0.44556,-0.3418 0.44556,-1.0376 0,-0.6897 -0.44556,-1.03149 -0.43945,-0.3418 -1.34278,-0.3418 l -1.82495,0 z m -1.23291,-1.01318 3.14942,0 q 1.40991,0 2.17285,0.58593 0.76294,0.58594 0.76294,1.66626 0,0.83618 -0.39063,1.33057 -0.39062,0.49438 -1.14746,0.61645 0.90943,0.19532 1.40991,0.81788 0.5066,0.61645 0.5066,1.54418 0,1.22071 -0.83008,1.88599 -0.83008,0.66528 -2.36206,0.66528 l -3.27149,0 0,-9.11254 z"
         style="font-size:12.5px;fill:none;stroke:#0000ff"
         id="path4455" />
      <path
         d="m 585.06268,504.2713 q -0.18921,-0.10986 -0.41504,-0.15869 -0.21972,-0.0549 -0.48828,-0.0549 -0.95215,0 -1.46484,0.62256 -0.50659,0.61645 -0.50659,1.77612 l 0,3.60107 -1.12915,0 0,-6.83593 1.12915,0 0,1.06201 q 0.354,-0.62256 0.92163,-0.92163 0.56763,-0.30518 1.37939,-0.30518 0.11597,0 0.25635,0.0183 0.14038,0.0122 0.31128,0.0427 l 0.006,1.15356 z"
         style="font-size:12.5px;fill:none;stroke:#0000ff"
         id="path4457" />
      <path
         d="m 586.1369,507.35968 0,-4.13818 1.12305,0 0,4.09546 q 0,0.97045 0.37842,1.45874 0.37841,0.48217 1.13525,0.48217 0.90942,0 1.43433,-0.57983 0.531,-0.57983 0.531,-1.58081 l 0,-3.87573 1.12305,0 0,6.83593 -1.12305,0 0,-1.0498 q -0.40893,0.62256 -0.95215,0.92773 -0.53711,0.29908 -1.25122,0.29908 -1.17798,0 -1.78833,-0.73243 -0.61035,-0.73242 -0.61035,-2.14233 z m 2.82593,-4.30298 0,0 z m 0.83618,-2.99682 1.2146,0 -1.98975,2.29492 -0.93383,0 1.70898,-2.29492 z"
         style="font-size:12.5px;fill:none;stroke:#0000ff"
         id="path4459" />
      <path
         d="m 594.18744,503.2215 1.12305,0 0,6.958 q 0,1.30616 -0.50049,1.89209 -0.49439,0.58594 -1.59912,0.58594 l -0.42725,0 0,-0.95215 0.29907,0 q 0.64087,0 0.87281,-0.29907 0.23193,-0.29297 0.23193,-1.22681 l 0,-6.958 z m 0,-2.66114 1.12305,0 0,1.42212 -1.12305,0 0,-1.42212 z"
         style="font-size:12.5px;fill:none;stroke:#0000ff"
         id="path4461" />
      <path
         d="m 597.53827,507.35968 0,-4.13818 1.12305,0 0,4.09546 q 0,0.97045 0.37841,1.45874 0.37842,0.48217 1.13526,0.48217 0.90942,0 1.43432,-0.57983 0.53101,-0.57983 0.53101,-1.58081 l 0,-3.87573 1.12305,0 0,6.83593 -1.12305,0 0,-1.0498 q -0.40894,0.62256 -0.95215,0.92773 -0.53711,0.29908 -1.25122,0.29908 -1.17798,0 -1.78833,-0.73243 -0.61035,-0.73242 -0.61035,-2.14233 z m 2.82593,-4.30298 0,0 z"
         style="font-size:12.5px;fill:none;stroke:#0000ff"
         id="path4463" />
      <path
         d="m 605.58881,500.56036 1.12304,0 0,9.49707 -1.12304,0 0,-9.49707 z"
         style="font-size:12.5px;fill:none;stroke:#0000ff"
         id="path4465" />
      <path
         d="m 612.16229,506.62115 q -1.36108,0 -1.88598,0.31128 -0.52491,0.31128 -0.52491,1.06202 0,0.59814 0.39063,0.95214 0.39673,0.3479 1.07422,0.3479 0.93384,0 1.49536,-0.65918 0.56763,-0.66528 0.56763,-1.76391 l 0,-0.25025 -1.11695,0 z m 2.23999,-0.46386 0,3.90014 -1.12304,0 0,-1.03759 q -0.38453,0.62256 -0.95826,0.92163 -0.57373,0.29297 -1.4038,0.29297 -1.04981,0 -1.67237,-0.58594 -0.61645,-0.59204 -0.61645,-1.58081 0,-1.15357 0.76904,-1.7395 0.77515,-0.58594 2.30713,-0.58594 l 1.57471,0 0,-0.10986 q 0,-0.77515 -0.5127,-1.19629 -0.50659,-0.42725 -1.42822,-0.42725 -0.58594,0 -1.14136,0.14038 -0.55542,0.14038 -1.06811,0.42114 l 0,-1.03759 q 0.61645,-0.23804 1.19628,-0.35401 0.57984,-0.12207 1.12915,-0.12207 1.48316,0 2.21558,0.76904 0.73242,0.76905 0.73242,2.33155 z"
         style="font-size:12.5px;fill:none;stroke:#0000ff"
         id="path4467" />
    </g>
    <g
       style="font-style:normal;font-weight:normal;font-size:27.5px;line-height:125%;font-family:sans-serif;letter-spacing:0px;word-spacing:0px;fill:none;fill-opacity:1;stroke:#0000ff;stroke-width:1px;stroke-linecap:butt;stroke-linejoin:miter;stroke-opacity:1"
       id="text135">
      <path
         d="m 551.92059,527.76984 2.01416,0 0,-6.95191 -2.19116,0.43946 0,-1.12305 2.17896,-0.43945 1.23291,0 0,8.07495 2.01416,0 0,1.03759 -5.24903,0 0,-1.03759 z"
         style="font-size:12.5px;fill:none;stroke:#0000ff"
         id="path4436" />
      <path
         d="m 562.91913,524.88287 3.28979,0 0,1.00098 -3.28979,0 0,-1.00098 z"
         style="font-size:12.5px;fill:none;stroke:#0000ff"
         id="path4438" />
      <path
         d="m 572.03168,519.69489 1.83716,0 2.32543,6.20117 2.33765,-6.20117 1.83716,0 0,9.11254 -1.20239,0 0,-8.0017 -2.34986,6.25 -1.23901,0 -2.34985,-6.25 0,8.0017 -1.19629,0 0,-9.11254 z"
         style="font-size:12.5px;fill:none;stroke:#0000ff"
         id="path4440" />
      <path
         d="m 585.42279,522.75885 q -0.90332,0 -1.42822,0.70801 -0.5249,0.7019 -0.5249,1.92871 0,1.22681 0.51879,1.93481 0.52491,0.70191 1.43433,0.70191 0.89722,0 1.42212,-0.70801 0.5249,-0.70801 0.5249,-1.92871 0,-1.2146 -0.5249,-1.92261 -0.5249,-0.71411 -1.42212,-0.71411 z m 0,-0.95215 q 1.46484,0 2.30103,0.95215 0.83618,0.95215 0.83618,2.63672 0,1.67847 -0.83618,2.63672 -0.83619,0.95215 -2.30103,0.95215 -1.47095,0 -2.30713,-0.95215 -0.83008,-0.95825 -0.83008,-2.63672 0,-1.68457 0.83008,-2.63672 0.83618,-0.95215 2.30713,-0.95215 z"
         style="font-size:12.5px;fill:none;stroke:#0000ff"
         id="path4442" />
      <path
         d="m 589.6098,521.9715 1.19019,0 2.13623,5.7373 2.13623,-5.7373 1.19018,0 -2.56347,6.83593 -1.52588,0 -2.56348,-6.83593 z"
         style="font-size:12.5px;fill:none;stroke:#0000ff"
         id="path4444" />
      <path
         d="m 597.81293,521.9715 1.12304,0 0,6.83593 -1.12304,0 0,-6.83593 z m 0,-2.66114 1.12304,0 0,1.42212 -1.12304,0 0,-1.42212 z"
         style="font-size:12.5px;fill:none;stroke:#0000ff"
         id="path4446" />
      <path
         d="m 601.43842,527.25714 1.28784,0 0,1.55029 -1.28784,0 0,-1.55029 z"
         style="font-size:12.5px;fill:none;stroke:#0000ff"
         id="path4448" />
    </g>
    <g
       style="font-style:normal;font-weight:normal;font-size:27.5px;line-height:125%;font-family:sans-serif;letter-spacing:0px;word-spacing:0px;fill:none;fill-opacity:1;stroke:#0000ff;stroke-width:1px;stroke-linecap:butt;stroke-linejoin:miter;stroke-opacity:1"
       id="text135-1">
      <path
         d="m 553.22675,544.74658 4.30297,0 0,1.0376 -5.78613,0 0,-1.0376 q 0.70191,-0.72632 1.9104,-1.94702 1.2146,-1.22681 1.52588,-1.58081 0.59204,-0.66528 0.82398,-1.12305 0.23803,-0.46386 0.23803,-0.90942 0,-0.72632 -0.51269,-1.18408 -0.50659,-0.45777 -1.32447,-0.45777 -0.57983,0 -1.2268,0.20142 -0.64087,0.20142 -1.37329,0.61035 l 0,-1.24512 q 0.74463,-0.29907 1.3916,-0.45166 0.64697,-0.15258 1.18408,-0.15258 1.41602,0 2.2583,0.708 0.84229,0.70801 0.84229,1.89209 0,0.56153 -0.21363,1.06812 -0.20752,0.50049 -0.76294,1.18408 -0.15258,0.177 -0.97046,1.02539 -0.81787,0.84229 -2.30712,2.36206 z"
         style="font-size:12.5px;fill:none;stroke:#0000ff;stroke-width:1px"
         id="path4427" />
      <path
         d="m 563.37689,541.85962 3.2898,0 0,1.00098 -3.2898,0 0,-1.00098 z"
         style="font-size:12.5px;fill:none;stroke:#0000ff;stroke-width:1px"
         id="path4429" />
      <path
         d="m 572.34906,536.67163 1.23901,0 0,5.53589 q 0,1.46484 0.53101,2.11182 0.53101,0.64087 1.72119,0.64087 1.18408,0 1.71509,-0.64087 0.531,-0.64698 0.531,-2.11182 l 0,-5.53589 1.23902,0 0,5.68848 q 0,1.78222 -0.88501,2.69165 -0.87891,0.90942 -2.6001,0.90942 -1.72729,0 -2.6123,-0.90942 -0.87891,-0.90943 -0.87891,-2.69165 l 0,-5.68848 z"
         style="font-size:12.5px;fill:none;stroke:#0000ff;stroke-width:1px"
         id="path4431" />
      <path
         d="m 587.10736,536.9707 0,1.2024 q -0.7019,-0.3357 -1.32446,-0.50049 -0.62256,-0.1648 -1.20239,-0.1648 -1.00708,0 -1.5564,0.39063 -0.54321,0.39062 -0.54321,1.11084 0,0.60425 0.3601,0.91552 0.36621,0.30518 1.3794,0.49439 l 0.74463,0.15259 q 1.37939,0.26245 2.03247,0.92773 0.65918,0.65918 0.65918,1.77002 0,1.32446 -0.89112,2.00806 -0.88501,0.68359 -2.60009,0.68359 -0.64698,0 -1.3794,-0.14648 -0.72632,-0.14649 -1.50757,-0.43335 l 0,-1.26953 q 0.75074,0.42114 1.47095,0.63476 0.72022,0.21363 1.41602,0.21363 1.0559,0 1.62963,-0.41504 0.57374,-0.41504 0.57374,-1.18409 0,-0.67138 -0.41504,-1.0498 -0.40894,-0.37842 -1.34888,-0.56763 l -0.75073,-0.14648 q -1.3794,-0.27466 -1.99585,-0.8606 -0.61646,-0.58594 -0.61646,-1.62964 0,-1.20849 0.84839,-1.90429 0.85449,-0.6958 2.34985,-0.6958 0.64087,0 1.30616,0.11596 0.66528,0.11597 1.36108,0.3479 z"
         style="font-size:12.5px;fill:none;stroke:#0000ff;stroke-width:1px"
         id="path4433" />
    </g>
    <g
       style="font-style:normal;font-weight:normal;font-size:27.5px;line-height:125%;font-family:sans-serif;letter-spacing:0px;word-spacing:0px;fill:none;fill-opacity:1;stroke:#0000ff;stroke-width:1px;stroke-linecap:butt;stroke-linejoin:miter;stroke-opacity:1"
       id="text135-1-6">
      <path
         d="m 555.86346,556.94885 q 0.88501,0.18921 1.3794,0.78736 0.50049,0.59814 0.50049,1.47705 0,1.34887 -0.92774,2.0874 -0.92773,0.73852 -2.63672,0.73852 -0.57373,0 -1.18408,-0.11596 -0.60425,-0.10987 -1.25122,-0.3357 l 0,-1.19018 q 0.5127,0.29907 1.12305,0.45166 0.61035,0.15259 1.27563,0.15259 1.15967,0 1.76392,-0.45777 0.61035,-0.45776 0.61035,-1.33056 0,-0.80567 -0.56763,-1.25733 -0.56152,-0.45776 -1.5686,-0.45776 l -1.06201,0 0,-1.01318 1.11084,0 q 0.90942,0 1.3916,-0.36011 0.48218,-0.36621 0.48218,-1.04981 0,-0.7019 -0.50049,-1.07422 -0.49439,-0.37841 -1.42212,-0.37841 -0.50659,0 -1.08643,0.10986 -0.57983,0.10986 -1.27563,0.3418 l 0,-1.09864 q 0.7019,-0.19531 1.31226,-0.29296 0.61645,-0.0977 1.15966,-0.0977 1.40381,0 2.22168,0.64087 0.81787,0.63476 0.81787,1.72119 0,0.75684 -0.43335,1.28174 -0.43335,0.5188 -1.23291,0.72021 z"
         style="font-size:12.5px;fill:none;stroke:#0000ff;stroke-width:1px"
         id="path4414" />
      <path
         d="m 563.34027,557.93762 3.2898,0 0,1.00098 -3.2898,0 0,-1.00098 z"
         style="font-size:12.5px;fill:none;stroke:#0000ff;stroke-width:1px"
         id="path4416" />
      <path
         d="m 573.68573,557.51038 0,3.33862 1.97754,0 q 0.99487,0 1.47095,-0.40894 0.48217,-0.41504 0.48217,-1.26342 0,-0.8545 -0.48217,-1.25733 -0.47608,-0.40893 -1.47095,-0.40893 l -1.97754,0 z m 0,-3.74756 0,2.74658 1.82495,0 q 0.90332,0 1.34277,-0.33569 0.44556,-0.3418 0.44556,-1.0376 0,-0.6897 -0.44556,-1.0315 -0.43945,-0.34179 -1.34277,-0.34179 l -1.82495,0 z m -1.23291,-1.01319 3.14941,0 q 1.40992,0 2.17286,0.58594 0.76293,0.58594 0.76293,1.66626 0,0.83618 -0.39062,1.33057 -0.39063,0.49438 -1.14746,0.61645 0.90942,0.19532 1.40991,0.81787 0.50659,0.61646 0.50659,1.54419 0,1.22071 -0.83008,1.88599 -0.83007,0.66528 -2.36206,0.66528 l -3.27148,0 0,-9.11255 z"
         style="font-size:12.5px;fill:none;stroke:#0000ff;stroke-width:1px"
         id="path4418" />
      <path
         d="m 583.62225,555.8136 q -0.90332,0 -1.42822,0.70801 -0.5249,0.7019 -0.5249,1.92871 0,1.2268 0.5188,1.93481 0.5249,0.70191 1.43432,0.70191 0.89722,0 1.42212,-0.70801 0.5249,-0.70801 0.5249,-1.92871 0,-1.2146 -0.5249,-1.92261 -0.5249,-0.71411 -1.42212,-0.71411 z m 0,-0.95215 q 1.46485,0 2.30103,0.95215 0.83618,0.95215 0.83618,2.63672 0,1.67846 -0.83618,2.63672 -0.83618,0.95214 -2.30103,0.95214 -1.47094,0 -2.30713,-0.95214 -0.83007,-0.95826 -0.83007,-2.63672 0,-1.68457 0.83007,-2.63672 0.83619,-0.95215 2.30713,-0.95215 z"
         style="font-size:12.5px;fill:none;stroke:#0000ff;stroke-width:1px"
         id="path4420" />
      <path
         d="m 588.61493,552.36511 1.12305,0 0,9.49707 -1.12305,0 0,-9.49707 z"
         style="font-size:12.5px;fill:none;stroke:#0000ff;stroke-width:1px"
         id="path4422" />
      <path
         d="m 595.18842,558.4259 q -1.36109,0 -1.88599,0.31128 -0.5249,0.31128 -0.5249,1.06201 0,0.59815 0.39062,0.95215 0.39673,0.3479 1.07422,0.3479 0.93384,0 1.49536,-0.65918 0.56763,-0.66528 0.56763,-1.76391 l 0,-0.25025 -1.11694,0 z m 2.23999,-0.46386 0,3.90014 -1.12305,0 0,-1.0376 q -0.38452,0.62256 -0.95825,0.92164 -0.57373,0.29296 -1.40381,0.29296 -1.04981,0 -1.67236,-0.58593 -0.61646,-0.59204 -0.61646,-1.58081 0,-1.15357 0.76904,-1.73951 0.77515,-0.58593 2.30713,-0.58593 l 1.57471,0 0,-0.10987 q 0,-0.77514 -0.5127,-1.19629 -0.50659,-0.42724 -1.42822,-0.42724 -0.58594,0 -1.14136,0.14038 -0.55542,0.14038 -1.06811,0.42114 l 0,-1.0376 q 0.61645,-0.23803 1.19629,-0.354 0.57983,-0.12207 1.12915,-0.12207 1.48315,0 2.21557,0.76904 0.73243,0.76905 0.73243,2.33155 z"
         style="font-size:12.5px;fill:none;stroke:#0000ff;stroke-width:1px"
         id="path4424" />
    </g>
    <g
       style="font-style:normal;font-weight:normal;font-size:27.5px;line-height:125%;font-family:sans-serif;letter-spacing:0px;word-spacing:0px;fill:none;fill-opacity:1;stroke:#0000ff;stroke-width:1px;stroke-linecap:butt;stroke-linejoin:miter;stroke-opacity:1"
       id="text135-1-6-2">
      <path
         d="m 555.85736,570.49005 -3.11279,4.8645 3.11279,0 0,-4.8645 z m -0.32349,-1.07422 1.5503,0 0,5.93872 1.30005,0 0,1.02539 -1.30005,0 0,2.14844 -1.22681,0 0,-2.14844 -4.11377,0 0,-1.19018 3.79028,-5.77393 z"
         style="font-size:12.5px;fill:none;stroke:#0000ff;stroke-width:1px"
         id="path4399" />
      <path
         d="m 563.68207,574.60382 3.28979,0 0,1.00098 -3.28979,0 0,-1.00098 z"
         style="font-size:12.5px;fill:none;stroke:#0000ff;stroke-width:1px"
         id="path4401" />
      <path
         d="m 579.61835,570.11774 0,1.30005 q -0.62256,-0.57984 -1.33057,-0.8667 -0.7019,-0.28687 -1.49536,-0.28687 -1.5625,0 -2.39258,0.95825 -0.83008,0.95215 -0.83008,2.75879 0,1.80054 0.83008,2.75879 0.83008,0.95215 2.39258,0.95215 0.79346,0 1.49536,-0.28687 0.70801,-0.28686 1.33057,-0.86669 l 0,1.28784 q -0.64698,0.43945 -1.37329,0.65918 -0.72022,0.21972 -1.52588,0.21972 -2.06909,0 -3.25928,-1.26342 -1.19019,-1.26954 -1.19019,-3.4607 0,-2.19726 1.19019,-3.46069 1.19019,-1.26953 3.25928,-1.26953 0.81787,0 1.53808,0.21972 0.72632,0.21363 1.36109,0.64698 z"
         style="font-size:12.5px;fill:none;stroke:#0000ff;stroke-width:1px"
         id="path4403" />
      <path
         d="m 587.1684,574.4024 0,4.12598 -1.12305,0 0,-4.08935 q 0,-0.97046 -0.37842,-1.45264 -0.37842,-0.48218 -1.13525,-0.48218 -0.90943,0 -1.43433,0.57984 -0.5249,0.57983 -0.5249,1.58081 l 0,3.86352 -1.12915,0 0,-9.49707 1.12915,0 0,3.72315 q 0.40283,-0.61646 0.94604,-0.92164 0.54932,-0.30517 1.26343,-0.30517 1.17798,0 1.78223,0.73242 0.60425,0.72632 0.60425,2.14233 z"
         style="font-size:12.5px;fill:none;stroke:#0000ff;stroke-width:1px"
         id="path4405" />
      <path
         d="m 589.30463,575.83063 0,-4.13819 1.12304,0 0,4.09546 q 0,0.97046 0.37842,1.45874 0.37842,0.48218 1.13526,0.48218 0.90942,0 1.43432,-0.57983 0.53101,-0.57984 0.53101,-1.58081 l 0,-3.87574 1.12304,0 0,6.83594 -1.12304,0 0,-1.0498 q -0.40894,0.62256 -0.95215,0.92773 -0.53711,0.29907 -1.25122,0.29907 -1.17798,0 -1.78833,-0.73242 -0.61035,-0.73242 -0.61035,-2.14233 z m 2.82592,-4.30298 0,0 z"
         style="font-size:12.5px;fill:none;stroke:#0000ff;stroke-width:1px"
         id="path4407" />
      <path
         d="m 598.466,569.75153 0,1.94091 2.31324,0 0,0.87281 -2.31324,0 0,3.71093 q 0,0.83619 0.22583,1.07422 0.23194,0.23804 0.93384,0.23804 l 1.15357,0 0,0.93994 -1.15357,0 q -1.30005,0 -1.79443,-0.48218 -0.49439,-0.48828 -0.49439,-1.77002 l 0,-3.71093 -0.82397,0 0,-0.87281 0.82397,0 0,-1.94091 1.12915,0 z"
         style="font-size:12.5px;fill:none;stroke:#0000ff;stroke-width:1px"
         id="path4409" />
      <path
         d="m 605.36908,575.0921 q -1.36108,0 -1.88599,0.31128 -0.5249,0.31128 -0.5249,1.06201 0,0.59815 0.39063,0.95215 0.39672,0.3479 1.07421,0.3479 0.93384,0 1.49537,-0.65918 0.56762,-0.66528 0.56762,-1.76391 l 0,-0.25025 -1.11694,0 z m 2.23999,-0.46387 0,3.90015 -1.12305,0 0,-1.0376 q -0.38452,0.62256 -0.95825,0.92163 -0.57373,0.29297 -1.40381,0.29297 -1.0498,0 -1.67236,-0.58593 -0.61646,-0.59205 -0.61646,-1.58081 0,-1.15357 0.76905,-1.73951 0.77514,-0.58593 2.30713,-0.58593 l 1.5747,0 0,-0.10987 q 0,-0.77514 -0.51269,-1.19629 -0.50659,-0.42724 -1.42823,-0.42724 -0.58593,0 -1.14135,0.14038 -0.55542,0.14038 -1.06812,0.42114 l 0,-1.0376 q 0.61646,-0.23803 1.19629,-0.354 0.57984,-0.12207 1.12915,-0.12207 1.48316,0 2.21558,0.76904 0.73242,0.76904 0.73242,2.33154 z"
         style="font-size:12.5px;fill:none;stroke:#0000ff;stroke-width:1px"
         id="path4411" />
    </g>
    <path
       style="opacity:1;fill:none;fill-opacity:1;stroke:#ff0000;stroke-width:0.93749994;stroke-linecap:round;stroke-linejoin:round;stroke-miterlimit:10;stroke-dasharray:none;stroke-dashoffset:0;stroke-opacity:1"
       d="m 532.50685,589.34765 a 32.304272,32.304266 0 0 1 -32.30426,32.30426 32.304272,32.304266 0 0 1 -32.30429,-32.30426 32.304272,32.304266 0 0 1 32.30429,-32.30429 32.304272,32.304266 0 0 1 32.30426,32.30429 z"
       id="path3917"
       inkscape:connector-curvature="0" />
    <path
       style="opacity:1;fill:none;fill-opacity:1;stroke:#000000;stroke-width:1;stroke-linecap:round;stroke-linejoin:round;stroke-miterlimit:10;stroke-dasharray:none;stroke-dashoffset:0;stroke-opacity:1"
       d="m 410.72595,502.96192 45.063,0 0,69.86615 -45.063,0 z"
       id="path3919"
       inkscape:connector-curvature="0" />
    <path
       style="fill:none;stroke:#000000;stroke-width:0.77930802"
       d="m 143.44768,295.27087 28.42223,0 c 6.84443,0 12.35457,5.51014 12.35457,12.35457 l 0,41.1819 c 0,6.84443 -5.51014,12.35456 -12.35457,12.35456 l -28.42223,0 c -6.84443,0 -12.35457,-5.51013 -12.35457,-12.35456 l 0,-41.1819 c 0,-6.84443 5.51014,-12.35457 12.35457,-12.35457 z"
       id="rect3921" />
    <path
       inkscape:connector-curvature="0"
       id="path4738"
       d="m 281.08269,775.41833 a 70.392601,70.392609 0 0 1 -70.3926,70.39261 70.392601,70.392609 0 0 1 -70.3926,-70.39261 70.392601,70.392609 0 0 1 70.3926,-70.3926 70.392601,70.392609 0 0 1 70.3926,70.3926 z"
       style="fill:#0000ff;stroke:#0000ff;stroke-width:0.94707191;stroke-opacity:1" />
    <path
       inkscape:connector-curvature="0"
       id="rect4742"
       d="m 159.10299,728.98877 101.7417,0 0,93.49663 -101.7417,0 z"
       style="fill:#ffffff;stroke:#0000ff;stroke-width:0.80654794;stroke-opacity:1" />
    <path
       transform="matrix(0,-1,1,0,0,0)"
       style="opacity:1;fill:none;fill-opacity:1;fill-rule:nonzero;stroke:#000000;stroke-width:0.99999994;stroke-linecap:butt;stroke-linejoin:round;stroke-miterlimit:4;stroke-dasharray:none;stroke-dashoffset:0;stroke-opacity:1"
       d="m -190.42111,370.9845 a 4.8149605,4.8149605 0 0 1 -4.81496,4.81496 4.8149605,4.8149605 0 0 1 -4.81496,-4.81496 4.8149605,4.8149605 0 0 1 4.81496,-4.81496 4.8149605,4.8149605 0 0 1 4.81496,4.81496 z"
       id="path4231" />
    <g
       id="g4241"
       transform="matrix(0,-1,1,0,316.3634,1203.2719)">
      <path
         style="opacity:1;fill:none;fill-opacity:1;fill-rule:nonzero;stroke:#000000;stroke-width:0.99999994;stroke-linecap:butt;stroke-linejoin:round;stroke-miterlimit:4;stroke-dasharray:none;stroke-dashoffset:0;stroke-opacity:1"
         d="m 956.01308,115.33538 a 4.8149605,4.8149605 0 0 1 -4.81496,4.81496 4.8149605,4.8149605 0 0 1 -4.81496,-4.81496 4.8149605,4.8149605 0 0 1 4.81496,-4.81496 4.8149605,4.8149605 0 0 1 4.81496,4.81496 z"
         id="circle4233" />
      <path
         style="opacity:1;fill:none;fill-opacity:1;fill-rule:nonzero;stroke:#000000;stroke-width:0.99999994;stroke-linecap:butt;stroke-linejoin:round;stroke-miterlimit:4;stroke-dasharray:none;stroke-dashoffset:0;stroke-opacity:1"
         d="m 956.00551,-10.855096 a 4.8149605,4.8149605 0 0 1 -4.81496,4.8149606 4.8149605,4.8149605 0 0 1 -4.81496,-4.8149606 4.8149605,4.8149605 0 0 1 4.81496,-4.81496 4.8149605,4.8149605 0 0 1 4.81496,4.81496 z"
         id="circle4235" />
    </g>
    <g
       id="g4287"
       transform="matrix(-1,0,0,-1,816.69229,501.60198)">
      <path
         style="opacity:1;fill:none;fill-opacity:1;fill-rule:nonzero;stroke:#000000;stroke-width:0.99999994;stroke-linecap:butt;stroke-linejoin:round;stroke-miterlimit:4;stroke-dasharray:none;stroke-dashoffset:0;stroke-opacity:1"
         d="m 789.04128,-27.521765 a 4.8149605,4.8149605 0 0 1 -4.81496,4.814961 4.8149605,4.8149605 0 0 1 -4.81496,-4.814961 4.8149605,4.8149605 0 0 1 4.81496,-4.81496 4.8149605,4.8149605 0 0 1 4.81496,4.81496 z"
         id="circle4289" />
      <g
         transform="translate(-223.80952,-82.142857)"
         id="g4291">
        <path
           style="opacity:1;fill:none;fill-opacity:1;fill-rule:nonzero;stroke:#000000;stroke-width:0.99999994;stroke-linecap:butt;stroke-linejoin:round;stroke-miterlimit:4;stroke-dasharray:none;stroke-dashoffset:0;stroke-opacity:1"
           d="m 956.01308,115.33538 a 4.8149605,4.8149605 0 0 1 -4.81496,4.81496 4.8149605,4.8149605 0 0 1 -4.81496,-4.81496 4.8149605,4.8149605 0 0 1 4.81496,-4.81496 4.8149605,4.8149605 0 0 1 4.81496,4.81496 z"
           id="circle4293" />
        <path
           style="opacity:1;fill:none;fill-opacity:1;fill-rule:nonzero;stroke:#000000;stroke-width:0.99999994;stroke-linecap:butt;stroke-linejoin:round;stroke-miterlimit:4;stroke-dasharray:none;stroke-dashoffset:0;stroke-opacity:1"
           d="m 956.00551,-10.855096 a 4.8149605,4.8149605 0 0 1 -4.81496,4.8149606 4.8149605,4.8149605 0 0 1 -4.81496,-4.8149606 4.8149605,4.8149605 0 0 1 4.81496,-4.81496 4.8149605,4.8149605 0 0 1 4.81496,4.81496 z"
           id="circle4295" />
      </g>
    </g>
    <g
       style="fill:none"
       transform="translate(-77.735801,561.50913)"
       id="g4284">
      <path
         style="opacity:1;fill:none;fill-opacity:1;fill-rule:nonzero;stroke:#000000;stroke-width:0.99999994;stroke-linecap:butt;stroke-linejoin:round;stroke-miterlimit:4;stroke-dasharray:none;stroke-dashoffset:0;stroke-opacity:1"
         d="m 789.04128,-27.521765 a 4.8149605,4.8149605 0 0 1 -4.81496,4.814961 4.8149605,4.8149605 0 0 1 -4.81496,-4.814961 4.8149605,4.8149605 0 0 1 4.81496,-4.81496 4.8149605,4.8149605 0 0 1 4.81496,4.81496 z"
         id="circle4286" />
      <g
         style="fill:none"
         id="g4288"
         transform="translate(-223.80952,-82.142857)">
        <path
           style="opacity:1;fill:none;fill-opacity:1;fill-rule:nonzero;stroke:#000000;stroke-width:0.99999994;stroke-linecap:butt;stroke-linejoin:round;stroke-miterlimit:4;stroke-dasharray:none;stroke-dashoffset:0;stroke-opacity:1"
           d="m 956.01308,115.33538 a 4.8149605,4.8149605 0 0 1 -4.81496,4.81496 4.8149605,4.8149605 0 0 1 -4.81496,-4.81496 4.8149605,4.8149605 0 0 1 4.81496,-4.81496 4.8149605,4.8149605 0 0 1 4.81496,4.81496 z"
           id="circle4290" />
        <path
           style="opacity:1;fill:none;fill-opacity:1;fill-rule:nonzero;stroke:#000000;stroke-width:0.99999994;stroke-linecap:butt;stroke-linejoin:round;stroke-miterlimit:4;stroke-dasharray:none;stroke-dashoffset:0;stroke-opacity:1"
           d="m 956.00551,-10.855096 a 4.8149605,4.8149605 0 0 1 -4.81496,4.8149606 4.8149605,4.8149605 0 0 1 -4.81496,-4.8149606 4.8149605,4.8149605 0 0 1 4.81496,-4.81496 4.8149605,4.8149605 0 0 1 4.81496,4.81496 z"
           id="circle4292" />
      </g>
    </g>
    <g
       id="g4308"
       transform="matrix(0.00302883,0.99999541,-0.99999541,0.00302883,500.11864,-745.51348)">
      <g
         style="fill:none"
         transform="translate(829.96966,166.18739)"
         id="g4312">
        <path
           style="opacity:1;fill:none;fill-opacity:1;fill-rule:nonzero;stroke:#000000;stroke-width:0.99999994;stroke-linecap:butt;stroke-linejoin:round;stroke-miterlimit:4;stroke-dasharray:none;stroke-dashoffset:0;stroke-opacity:1"
           d="m 789.04128,-27.521765 a 4.8149605,4.8149605 0 0 1 -4.81496,4.814961 4.8149605,4.8149605 0 0 1 -4.81496,-4.814961 4.8149605,4.8149605 0 0 1 4.81496,-4.81496 4.8149605,4.8149605 0 0 1 4.81496,4.81496 z"
           id="circle4314" />
        <g
           style="fill:none"
           id="g4316"
           transform="translate(-223.80952,-82.142857)">
          <path
             style="opacity:1;fill:none;fill-opacity:1;fill-rule:nonzero;stroke:#000000;stroke-width:0.99999994;stroke-linecap:butt;stroke-linejoin:round;stroke-miterlimit:4;stroke-dasharray:none;stroke-dashoffset:0;stroke-opacity:1"
             d="m 956.01308,115.33538 a 4.8149605,4.8149605 0 0 1 -4.81496,4.81496 4.8149605,4.8149605 0 0 1 -4.81496,-4.81496 4.8149605,4.8149605 0 0 1 4.81496,-4.81496 4.8149605,4.8149605 0 0 1 4.81496,4.81496 z"
             id="circle4318" />
          <path
             style="opacity:1;fill:none;fill-opacity:1;fill-rule:nonzero;stroke:#000000;stroke-width:0.99999994;stroke-linecap:butt;stroke-linejoin:round;stroke-miterlimit:4;stroke-dasharray:none;stroke-dashoffset:0;stroke-opacity:1"
             d="m 956.00551,-10.855096 a 4.8149605,4.8149605 0 0 1 -4.81496,4.8149606 4.8149605,4.8149605 0 0 1 -4.81496,-4.8149606 4.8149605,4.8149605 0 0 1 4.81496,-4.81496 4.8149605,4.8149605 0 0 1 4.81496,4.81496 z"
             id="circle4320" />
        </g>
      </g>
    </g>
    <g
       style="fill:none"
       transform="translate(-1139.5035,-223.83088)"
       id="g4311">
      <path
         style="opacity:1;fill:none;fill-opacity:1;fill-rule:nonzero;stroke:#000000;stroke-width:0.99999994;stroke-linecap:butt;stroke-linejoin:round;stroke-miterlimit:4;stroke-dasharray:none;stroke-dashoffset:0;stroke-opacity:1"
         d="m 1883.1507,532.0984 0,211.59961 53.5483,0 50.3521,0 c 2.3631,-7.90292 4.4601,-15.87497 6.2891,-23.90264 1.8441,-8.09371 3.4157,-16.24396 4.7128,-24.43691 3.0053,-18.98192 4.5372,-38.19304 4.5704,-57.46123 -0.037,-14.33687 -0.9046,-28.64141 -2.591,-42.84271 -1.2147,-10.22926 -2.8545,-20.40495 -4.9154,-30.50059 -2.2298,-10.92342 -4.9527,-21.75312 -8.1636,-32.45553 l -44.0686,0 z"
         id="path4313"
         inkscape:connector-curvature="0"
         sodipodi:nodetypes="ccccsscssccc" />
      <g
         style="fill:none"
         transform="translate(1183.3425,667.80092)"
         id="g4315">
        <path
           style="opacity:1;fill:none;fill-opacity:1;fill-rule:nonzero;stroke:#000000;stroke-width:0.99999994;stroke-linecap:butt;stroke-linejoin:round;stroke-miterlimit:4;stroke-dasharray:none;stroke-dashoffset:0;stroke-opacity:1"
           d="m 789.04128,-27.521765 a 4.8149605,4.8149605 0 0 1 -4.81496,4.814961 4.8149605,4.8149605 0 0 1 -4.81496,-4.814961 4.8149605,4.8149605 0 0 1 4.81496,-4.81496 4.8149605,4.8149605 0 0 1 4.81496,4.81496 z"
           id="circle4317" />
        <g
           style="fill:none"
           id="g4319"
           transform="translate(-223.80952,-82.142857)">
          <path
             style="opacity:1;fill:none;fill-opacity:1;fill-rule:nonzero;stroke:#000000;stroke-width:0.99999994;stroke-linecap:butt;stroke-linejoin:round;stroke-miterlimit:4;stroke-dasharray:none;stroke-dashoffset:0;stroke-opacity:1"
             d="m 956.01308,115.33538 a 4.8149605,4.8149605 0 0 1 -4.81496,4.81496 4.8149605,4.8149605 0 0 1 -4.81496,-4.81496 4.8149605,4.8149605 0 0 1 4.81496,-4.81496 4.8149605,4.8149605 0 0 1 4.81496,4.81496 z"
             id="circle4321" />
          <path
             style="opacity:1;fill:none;fill-opacity:1;fill-rule:nonzero;stroke:#000000;stroke-width:0.99999994;stroke-linecap:butt;stroke-linejoin:round;stroke-miterlimit:4;stroke-dasharray:none;stroke-dashoffset:0;stroke-opacity:1"
             d="m 956.00551,-10.855096 a 4.8149605,4.8149605 0 0 1 -4.81496,4.8149606 4.8149605,4.8149605 0 0 1 -4.81496,-4.8149606 4.8149605,4.8149605 0 0 1 4.81496,-4.81496 4.8149605,4.8149605 0 0 1 4.81496,4.81496 z"
             id="circle4323" />
        </g>
      </g>
    </g>
    <g
       id="g4325"
       transform="matrix(0,-1,1,0,119.42188,2167.3)"
       style="fill:none">
      <path
         inkscape:connector-curvature="0"
         id="path4327"
         d="m 1883.1507,532.0984 0,211.59961 58.756,0 45.1444,0 c 2.6043,-8.70975 4.8855,-17.50346 6.8409,-26.36306 1.5897,-7.20259 2.9641,-14.44873 4.1217,-21.72869 1.7596,-11.06518 3.0184,-22.20851 3.7714,-33.39589 0.5443,-8.08567 0.8243,-16.19434 0.8383,-24.31314 -0.043,-16.3463 -1.1642,-32.65056 -3.3485,-48.8077 -1.1704,-8.65759 -2.6461,-17.27293 -4.4245,-25.82987 -2.1792,-10.48469 -4.8129,-20.88169 -7.897,-31.16126 l -51.748,0 z"
         style="opacity:1;fill:none;fill-opacity:1;fill-rule:nonzero;stroke:#000000;stroke-width:0.99999994;stroke-linecap:butt;stroke-linejoin:round;stroke-miterlimit:4;stroke-dasharray:none;stroke-dashoffset:0;stroke-opacity:1"
         sodipodi:nodetypes="ccccssscssccc" />
      <g
         id="g4329"
         transform="translate(1183.3425,667.80092)"
         style="fill:none">
        <path
           style="opacity:1;fill:none;fill-opacity:1;fill-rule:nonzero;stroke:#000000;stroke-width:0.99999994;stroke-linecap:butt;stroke-linejoin:round;stroke-miterlimit:4;stroke-dasharray:none;stroke-dashoffset:0;stroke-opacity:1"
           d="m 789.04128,-27.521765 a 4.8149605,4.8149605 0 0 1 -4.81496,4.814961 4.8149605,4.8149605 0 0 1 -4.81496,-4.814961 4.8149605,4.8149605 0 0 1 4.81496,-4.81496 4.8149605,4.8149605 0 0 1 4.81496,4.81496 z"
           id="circle4331" />
        <g
           transform="translate(-223.80952,-82.142857)"
           id="g4333"
           style="fill:none">
          <path
             style="opacity:1;fill:none;fill-opacity:1;fill-rule:nonzero;stroke:#000000;stroke-width:0.99999994;stroke-linecap:butt;stroke-linejoin:round;stroke-miterlimit:4;stroke-dasharray:none;stroke-dashoffset:0;stroke-opacity:1"
             d="m 956.01308,115.33538 a 4.8149605,4.8149605 0 0 1 -4.81496,4.81496 4.8149605,4.8149605 0 0 1 -4.81496,-4.81496 4.8149605,4.8149605 0 0 1 4.81496,-4.81496 4.8149605,4.8149605 0 0 1 4.81496,4.81496 z"
             id="circle4335" />
          <path
             style="opacity:1;fill:none;fill-opacity:1;fill-rule:nonzero;stroke:#000000;stroke-width:0.99999994;stroke-linecap:butt;stroke-linejoin:round;stroke-miterlimit:4;stroke-dasharray:none;stroke-dashoffset:0;stroke-opacity:1"
             d="m 956.00551,-10.855096 a 4.8149605,4.8149605 0 0 1 -4.81496,4.8149606 4.8149605,4.8149605 0 0 1 -4.81496,-4.8149606 4.8149605,4.8149605 0 0 1 4.81496,-4.81496 4.8149605,4.8149605 0 0 1 4.81496,4.81496 z"
             id="circle4337" />
        </g>
      </g>
    </g>
    <g
       style="fill:none"
       transform="matrix(0,-1,1,0,119.42188,2782.3266)"
       id="g4339">
      <path
         style="opacity:1;fill:none;fill-opacity:1;fill-rule:nonzero;stroke:#000000;stroke-width:0.99999994;stroke-linecap:butt;stroke-linejoin:round;stroke-miterlimit:4;stroke-dasharray:none;stroke-dashoffset:0;stroke-opacity:1"
         d="m 1883.1507,532.0984 0,211.59961 53.6507,0 50.2497,0 c 2.0582,-6.88335 3.9146,-13.81915 5.5678,-20.79845 1.6889,-7.12953 3.1658,-14.30447 4.4293,-21.51531 1.5836,-9.03772 2.832,-18.13183 3.7425,-27.26361 1.1989,-12.02343 1.8118,-24.11215 1.8327,-36.22341 -0.032,-12.34833 -0.68,-24.67267 -1.9366,-36.92773 -0.8275,-8.07033 -1.919,-16.11062 -3.2726,-24.10792 -1.4655,-8.65807 -3.2381,-17.26577 -5.3156,-25.80666 -1.5465,-6.35812 -3.2619,-12.67921 -5.1452,-18.95652 l -48.09,0 z"
         id="path4342"
         inkscape:connector-curvature="0"
         sodipodi:nodetypes="ccccssscsssccc" />
      <g
         style="fill:none"
         transform="translate(1183.3425,667.80092)"
         id="g4344">
        <path
           style="opacity:1;fill:none;fill-opacity:1;fill-rule:nonzero;stroke:#000000;stroke-width:0.99999994;stroke-linecap:butt;stroke-linejoin:round;stroke-miterlimit:4;stroke-dasharray:none;stroke-dashoffset:0;stroke-opacity:1"
           d="m 789.04128,-27.521765 a 4.8149605,4.8149605 0 0 1 -4.81496,4.814961 4.8149605,4.8149605 0 0 1 -4.81496,-4.814961 4.8149605,4.8149605 0 0 1 4.81496,-4.81496 4.8149605,4.8149605 0 0 1 4.81496,4.81496 z"
           id="circle4346" />
        <g
           style="fill:none"
           id="g4348"
           transform="translate(-223.80952,-82.142857)">
          <path
             style="opacity:1;fill:none;fill-opacity:1;fill-rule:nonzero;stroke:#000000;stroke-width:0.99999994;stroke-linecap:butt;stroke-linejoin:round;stroke-miterlimit:4;stroke-dasharray:none;stroke-dashoffset:0;stroke-opacity:1"
             d="m 956.01308,115.33538 a 4.8149605,4.8149605 0 0 1 -4.81496,4.81496 4.8149605,4.8149605 0 0 1 -4.81496,-4.81496 4.8149605,4.8149605 0 0 1 4.81496,-4.81496 4.8149605,4.8149605 0 0 1 4.81496,4.81496 z"
             id="circle4350" />
          <path
             style="opacity:1;fill:none;fill-opacity:1;fill-rule:nonzero;stroke:#000000;stroke-width:0.99999994;stroke-linecap:butt;stroke-linejoin:round;stroke-miterlimit:4;stroke-dasharray:none;stroke-dashoffset:0;stroke-opacity:1"
             d="m 956.00551,-10.855096 a 4.8149605,4.8149605 0 0 1 -4.81496,4.8149606 4.8149605,4.8149605 0 0 1 -4.81496,-4.8149606 4.8149605,4.8149605 0 0 1 4.81496,-4.81496 4.8149605,4.8149605 0 0 1 4.81496,4.81496 z"
             id="circle4352" />
        </g>
      </g>
    </g>
    <g
       id="g4354"
       transform="translate(-1139.5035,11.886958)"
       style="fill:none">
      <path
         inkscape:connector-curvature="0"
         id="path4356"
         d="m 1883.1507,532.0984 0,211.59961 52.0018,0 51.8986,0 c 2.42,-8.09316 4.5609,-16.25881 6.4207,-24.48245 1.9278,-8.52422 3.5536,-17.11074 4.8749,-25.74341 2.8114,-18.36789 4.2446,-36.94473 4.2767,-55.57492 -0.042,-16.13855 -1.1357,-32.23613 -3.2656,-48.19161 -1.3536,-10.14004 -3.1257,-20.22269 -5.3127,-30.22198 -2.0134,-9.20581 -4.3783,-18.34098 -7.0917,-27.38524 l -48.708,0 z"
         style="opacity:1;fill:none;fill-opacity:1;fill-rule:nonzero;stroke:#000000;stroke-width:0.99999994;stroke-linecap:butt;stroke-linejoin:round;stroke-miterlimit:4;stroke-dasharray:none;stroke-dashoffset:0;stroke-opacity:1"
         sodipodi:nodetypes="ccccsscssccc" />
      <g
         id="g4358"
         transform="translate(1183.3425,667.80092)"
         style="fill:none">
        <path
           style="opacity:1;fill:none;fill-opacity:1;fill-rule:nonzero;stroke:#000000;stroke-width:0.99999994;stroke-linecap:butt;stroke-linejoin:round;stroke-miterlimit:4;stroke-dasharray:none;stroke-dashoffset:0;stroke-opacity:1"
           d="m 789.04128,-27.521765 a 4.8149605,4.8149605 0 0 1 -4.81496,4.814961 4.8149605,4.8149605 0 0 1 -4.81496,-4.814961 4.8149605,4.8149605 0 0 1 4.81496,-4.81496 4.8149605,4.8149605 0 0 1 4.81496,4.81496 z"
           id="circle4360" />
        <g
           transform="translate(-223.80952,-82.142857)"
           id="g4362"
           style="fill:none">
          <path
             style="opacity:1;fill:none;fill-opacity:1;fill-rule:nonzero;stroke:#000000;stroke-width:0.99999994;stroke-linecap:butt;stroke-linejoin:round;stroke-miterlimit:4;stroke-dasharray:none;stroke-dashoffset:0;stroke-opacity:1"
             d="m 956.01308,115.33538 a 4.8149605,4.8149605 0 0 1 -4.81496,4.81496 4.8149605,4.8149605 0 0 1 -4.81496,-4.81496 4.8149605,4.8149605 0 0 1 4.81496,-4.81496 4.8149605,4.8149605 0 0 1 4.81496,4.81496 z"
             id="circle4364" />
          <path
             style="opacity:1;fill:none;fill-opacity:1;fill-rule:nonzero;stroke:#000000;stroke-width:0.99999994;stroke-linecap:butt;stroke-linejoin:round;stroke-miterlimit:4;stroke-dasharray:none;stroke-dashoffset:0;stroke-opacity:1"
             d="m 956.00551,-10.855096 a 4.8149605,4.8149605 0 0 1 -4.81496,4.8149606 4.8149605,4.8149605 0 0 1 -4.81496,-4.8149606 4.8149605,4.8149605 0 0 1 4.81496,-4.81496 4.8149605,4.8149605 0 0 1 4.81496,4.81496 z"
             id="circle4366" />
        </g>
      </g>
    </g>
    <text
       xml:space="preserve"
       style="font-style:normal;font-weight:normal;font-size:57.58169174px;line-height:125%;font-family:sans-serif;letter-spacing:0px;word-spacing:0px;fill:#0000ff;fill-opacity:1;stroke:none;stroke-width:1px;stroke-linecap:butt;stroke-linejoin:miter;stroke-opacity:1;"
       x="199.03419"
       y="778.54315"
       id="text5962"
       sodipodi:linespacing="125%"
       transform="scale(0.97708721,1.0234501)"><tspan
         sodipodi:role="line"
         id="tspan5964"
         x="199.03419"
         y="778.54315">2</tspan></text>
  </g>
</svg>
