  0
SECTION
  2
HEADER
  9
$ACADVER
  1
AC1014
  9
$HANDSEED
  5
FFFF
  9
$MEASUREMENT
 70
     1
  0
ENDSEC
  0
SECTION
  2
TABLES
  0
TABLE
  2
VPORT
  5
8
330
0
100
AcDbSymbolTable
 70
     4
  0
VPORT
  5
2E
330
8
100
AcDbSymbolTableRecord
100
AcDbViewportTableRecord
  2
*ACTIVE
 70
     0
 10
0.0
 20
0.0
 11
1.0
 21
1.0
 12
210.0
 22
148.5
 13
0.0
 23
0.0
 14
10.0
 24
10.0
 15
10.0
 25
10.0
 16
0.0
 26
0.0
 36
1.0
 17
0.0
 27
0.0
 37
0.0
 40
341.0
 41
1.24
 42
50.0
 43
0.0
 44
0.0
 50
0.0
 51
0.0
 71
     0
 72
   100
 73
     1
 74
     3
 75
     0
 76
     0
 77
     0
 78
     0
  0
ENDTAB
  0
TABLE
  2
LTYPE
  5
5
330
0
100
AcDbSymbolTable
 70
     1
  0
LTYPE
  5
14
330
5
100
AcDbSymbolTableRecord
100
AcDbLinetypeTableRecord
  2
BYBLOCK
 70
     0
  3

 72
    65
 73
     0
 40
0.0
  0
LTYPE
  5
15
330
5
100
AcDbSymbolTableRecord
100
AcDbLinetypeTableRecord
  2
BYLAYER
 70
     0
  3

 72
    65
 73
     0
 40
0.0
  0
LTYPE
  5
16
330
5
100
AcDbSymbolTableRecord
100
AcDbLinetypeTableRecord
  2
CONTINUOUS
 70
     0
  3
Solid line
 72
    65
 73
     0
 40
0.0
  0
ENDTAB
  0
TABLE
  2
LAYER
  5
2
100
AcDbSymbolTable
 70
2
  0
LAYER
  5
50
100
AcDbSymbolTableRecord
100
AcDbLayerTableRecord
  2
0
 70
0
  6
CONTINUOUS
  0
LAYER
  5
51
100
AcDbSymbolTableRecord
100
AcDbLayerTableRecord
  2
Capa_1
 70
0
  6
CONTINUOUS
  0
ENDTAB
  0
TABLE
  2
STYLE
  5
3
330
0
100
AcDbSymbolTable
 70
     1
  0
STYLE
  5
11
330
3
100
AcDbSymbolTableRecord
100
AcDbTextStyleTableRecord
  2
STANDARD
 70
     0
 40
0.0
 41
1.0
 50
0.0
 71
     0
 42
2.5
  3
txt
  4

  0
ENDTAB
  0
TABLE
  2
VIEW
  5
6
330
0
100
AcDbSymbolTable
 70
     0
  0
ENDTAB
  0
TABLE
  2
UCS
  5
7
330
0
100
AcDbSymbolTable
 70
     0
  0
ENDTAB
  0
TABLE
  2
APPID
  5
9
330
0
100
AcDbSymbolTable
 70
     2
  0
APPID
  5
12
330
9
100
AcDbSymbolTableRecord
100
AcDbRegAppTableRecord
  2
ACAD
 70
     0
  0
ENDTAB
  0
TABLE
  2
DIMSTYLE
  5
A
330
0
100
AcDbSymbolTable
 70
     1
  0
DIMSTYLE
105
27
330
A
100
AcDbSymbolTableRecord
100
AcDbDimStyleTableRecord
  2
ISO-25
 70
     0
  3

  4

  5

  6

  7

 40
1.0
 41
2.5
 42
0.625
 43
3.75
 44
1.25
 45
0.0
 46
0.0
 47
0.0
 48
0.0
140
2.5
141
2.5
142
0.0
143
0.03937007874016
144
1.0
145
0.0
146
1.0
147
0.625
 71
     0
 72
     0
 73
     0
 74
     0
 75
     0
 76
     0
 77
     1
 78
     8
170
     0
171
     3
172
     1
173
     0
174
     0
175
     0
176
     0
177
     0
178
     0
270
     2
271
     2
272
     2
273
     2
274
     3
340
11
275
     0
280
     0
281
     0
282
     0
283
     0
284
     8
285
     0
286
     0
287
     3
288
     0
  0
ENDTAB
  0
TABLE
  2
BLOCK_RECORD
  5
1
330
0
100
AcDbSymbolTable
 70
     1
  0
BLOCK_RECORD
  5
1F
330
1
100
AcDbSymbolTableRecord
100
AcDbBlockTableRecord
  2
*MODEL_SPACE
  0
BLOCK_RECORD
  5
1B
330
1
100
AcDbSymbolTableRecord
100
AcDbBlockTableRecord
  2
*PAPER_SPACE
  0
ENDTAB
  0
ENDSEC
  0
SECTION
  2
BLOCKS
  0
BLOCK
  5
20
330
1F
100
AcDbEntity
  8
0
100
AcDbBlockBegin
  2
*MODEL_SPACE
 70
     0
 10
0.0
 20
0.0
 30
0.0
  3
*MODEL_SPACE
  1

  0
ENDBLK
  5
21
330
1F
100
AcDbEntity
  8
0
100
AcDbBlockEnd
  0
BLOCK
  5
1C
330
1B
100
AcDbEntity
 67
     1
  8
0
100
AcDbBlockBegin
  2
*PAPER_SPACE
  1

  0
ENDBLK
  5
1D
330
1B
100
AcDbEntity
 67
     1
  8
0
100
AcDbBlockEnd
  0
ENDSEC
  0
SECTION
  2
ENTITIES
  0
SPLINE
  5
100
100
AcDbEntity
  8
Capa_1
 62
7
100
AcDbSpline
 70
0
 71
3
 72
85
 73
81
 74
79
 40
0.000000
 40
0.000000
 40
0.000000
 40
0.000000
 40
7.904513
 40
15.744829
 40
23.535033
 40
28.946450
 40
34.343119
 40
39.728316
 40
48.113257
 40
56.488188
 40
64.863105
 40
69.395341
 40
73.932029
 40
78.475001
 40
86.534444
 40
94.630360
 40
102.775789
 40
114.595154
 40
126.603370
 40
138.867847
 40
142.994669
 40
147.087202
 40
151.148476
 40
155.601972
 40
160.024428
 40
164.419043
 40
169.490997
 40
174.534033
 40
179.552366
 40
187.757298
 40
195.919551
 40
204.051333
 40
211.218662
 40
218.377223
 40
225.533414
 40
232.157703
 40
238.790211
 40
245.436132
 40
254.165898
 40
262.943697
 40
271.786997
 40
282.206740
 40
292.783490
 40
303.564691
 40
311.427356
 40
319.174635
 40
326.825816
 40
335.290897
 40
343.678191
 40
352.005573
 40
360.687159
 40
369.334424
 40
377.960288
 40
389.112827
 40
400.272079
 40
411.462253
 40
421.409921
 40
431.426034
 40
441.538356
 40
450.310809
 40
459.203475
 40
468.245102
 40
481.275650
 40
494.021553
 40
506.562447
 40
517.643327
 40
528.647678
 40
539.604965
 40
549.274071
 40
558.941192
 40
568.621513
 40
572.807188
 40
576.999834
 40
581.200911
 40
586.757963
 40
592.336681
 40
597.941911
 40
600.984828
 40
604.037963
 40
607.102076
 40
607.102076
 40
607.102076
 40
607.102076
 10
79.431224
 20
206.718063
 30
0.0
 10
76.888799
 20
206.021524
 30
0.0
 10
71.824599
 20
204.634104
 30
0.0
 10
64.481323
 20
201.841868
 30
0.0
 10
58.109851
 20
198.896532
 30
0.0
 10
52.659841
 20
195.935712
 30
0.0
 10
48.053056
 20
193.118060
 30
0.0
 10
42.779273
 20
189.507235
 30
0.0
 10
36.967675
 20
184.942354
 30
0.0
 10
30.804615
 20
179.254321
 30
0.0
 10
25.983920
 20
174.038821
 30
0.0
 10
22.304715
 20
169.534318
 30
0.0
 10
19.587428
 20
165.898773
 30
0.0
 10
16.367017
 20
161.178069
 30
0.0
 10
12.824085
 20
155.249259
 30
0.0
 10
9.214232
 20
147.988748
 30
0.0
 10
5.710787
 20
139.306599
 30
0.0
 10
2.681335
 20
129.063094
 30
0.0
 10
0.605694
 20
117.187025
 30
0.0
 10
0.062264
 20
107.712249
 30
0.0
 10
0.193885
 20
100.884534
 30
0.0
 10
0.430868
 20
96.796726
 30
0.0
 10
0.836011
 20
92.612867
 30
0.0
 10
1.425509
 20
88.339600
 30
0.0
 10
2.215635
 20
83.985870
 30
0.0
 10
3.234355
 20
79.468294
 30
0.0
 10
4.512055
 20
74.801562
 30
0.0
 10
6.079691
 20
70.004757
 30
0.0
 10
8.249400
 20
64.313458
 30
0.0
 10
11.209535
 20
57.819931
 30
0.0
 10
15.172018
 20
50.670137
 30
0.0
 10
19.486996
 20
44.138211
 30
0.0
 10
24.059629
 20
38.204070
 30
0.0
 10
28.809116
 20
32.837790
 30
0.0
 10
33.782523
 20
27.933011
 30
0.0
 10
38.932106
 20
23.478735
 30
0.0
 10
44.216241
 20
19.459978
 30
0.0
 10
50.327781
 20
15.393696
 30
0.0
 10
57.347871
 20
11.431876
 30
0.0
 10
65.341300
 20
7.765949
 30
0.0
 10
74.146543
 20
4.597682
 30
0.0
 10
83.793769
 20
2.106329
 30
0.0
 10
94.281844
 20
0.500300
 30
0.0
 10
104.027301
 20
0.009243
 30
0.0
 10
112.825812
 20
0.332449
 30
0.0
 10
120.539311
 20
1.189103
 30
0.0
 10
128.366101
 20
2.647246
 30
0.0
 10
136.264996
 20
4.761887
 30
0.0
 10
144.178937
 20
7.584747
 30
0.0
 10
151.906769
 20
11.062618
 30
0.0
 10
159.402690
 20
15.200018
 30
0.0
 10
166.614172
 20
19.997473
 30
0.0
 10
174.054179
 20
25.881031
 30
0.0
 10
181.523001
 20
33.021005
 30
0.0
 10
188.748657
 20
41.562550
 30
0.0
 10
194.803107
 20
50.489675
 30
0.0
 10
199.744220
 20
59.640903
 30
0.0
 10
203.649062
 20
68.891318
 30
0.0
 10
206.525088
 20
78.101967
 30
0.0
 10
208.474454
 20
87.164391
 30
0.0
 10
209.605999
 20
96.005546
 30
0.0
 10
210.042413
 20
106.329264
 30
0.0
 10
209.334426
 20
117.944708
 30
0.0
 10
206.993245
 20
130.532600
 30
0.0
 10
203.338124
 20
142.122586
 30
0.0
 10
198.632894
 20
152.685336
 30
0.0
 10
193.104335
 20
162.234939
 30
0.0
 10
186.886215
 20
170.773783
 30
0.0
 10
180.163433
 20
178.327049
 30
0.0
 10
173.089168
 20
184.942363
 30
0.0
 10
166.882993
 20
189.759949
 30
0.0
 10
161.893976
 20
193.130296
 30
0.0
 10
158.327479
 20
195.337686
 30
0.0
 10
154.277518
 20
197.625344
 30
0.0
 10
149.711666
 20
199.930683
 30
0.0
 10
144.600682
 20
202.177032
 30
0.0
 10
140.161230
 20
203.851888
 30
0.0
 10
136.456250
 20
205.072299
 30
0.0
 10
133.530107
 20
205.946941
 30
0.0
 10
131.556192
 20
206.458880
 30
0.0
 10
130.567463
 20
206.715309
 30
0.0
 11
79.431224
 21
206.718063
 31
0.0
 11
71.842156
 21
204.507322
 31
0.0
 11
64.501931
 21
201.752026
 31
0.0
 11
57.434426
 21
198.475190
 31
0.0
 11
52.678687
 21
195.893257
 31
0.0
 11
48.075010
 21
193.077199
 31
0.0
 11
43.631445
 21
190.034982
 31
0.0
 11
37.037339
 21
184.855695
 31
0.0
 11
30.882859
 21
179.175744
 31
0.0
 11
25.198255
 21
173.025581
 31
0.0
 11
22.331229
 21
169.515406
 31
0.0
 11
19.615266
 21
165.881526
 31
0.0
 11
17.055152
 21
162.128606
 31
0.0
 11
12.921279
 21
155.210101
 31
0.0
 11
9.317217
 21
147.960647
 31
0.0
 11
6.269523
 21
140.406867
 31
0.0
 11
2.917565
 21
129.072770
 31
0.0
 11
0.848403
 21
117.244168
 31
0.0
 11
0.141111
 21
105.000103
 31
0.0
 11
0.220775
 21
100.874049
 31
0.0
 11
0.457842
 21
96.788388
 31
0.0
 11
0.849423
 21
92.746036
 31
0.0
 11
1.458148
 21
88.334338
 31
0.0
 11
2.247920
 21
83.982974
 31
0.0
 11
3.214687
 21
79.696016
 31
0.0
 11
4.554096
 21
74.804114
 31
0.0
 11
6.120655
 21
70.010567
 31
0.0
 11
7.908286
 21
65.321425
 31
0.0
 11
11.311374
 21
57.855510
 31
0.0
 11
15.267626
 21
50.716150
 31
0.0
 11
19.749492
 21
43.930965
 31
0.0
 11
24.124094
 21
38.253511
 31
0.0
 11
28.868449
 21
32.892908
 31
0.0
 11
33.963680
 21
27.867999
 31
0.0
 11
38.973819
 21
23.534443
 31
0.0
 11
44.253083
 21
19.519529
 31
0.0
 11
49.786313
 21
15.838277
 31
0.0
 11
57.389197
 21
11.548173
 31
0.0
 11
65.368082
 21
7.889327
 31
0.0
 11
73.689215
 21
4.895550
 31
0.0
 11
83.777884
 21
2.289827
 31
0.0
 11
94.232530
 21
0.687325
 31
0.0
 11
104.999896
 21
0.141319
 31
0.0
 11
112.857215
 21
0.431212
 31
0.0
 11
120.557053
 21
1.287264
 31
0.0
 11
128.078729
 21
2.689035
 31
0.0
 11
136.255803
 21
4.878342
 31
0.0
 11
144.155648
 21
7.695990
 31
0.0
 11
151.749564
 21
11.113259
 31
0.0
 11
159.350438
 21
15.308096
 31
0.0
 11
166.550364
 21
20.097277
 31
0.0
 11
173.316414
 21
25.447613
 31
0.0
 11
181.377909
 21
33.154197
 31
0.0
 11
188.584762
 21
41.674183
 31
0.0
 11
194.865074
 21
50.935808
 31
0.0
 11
199.590753
 21
59.689325
 31
0.0
 11
203.485459
 21
68.917205
 31
0.0
 11
206.499575
 21
78.569882
 31
0.0
 11
208.344872
 21
87.146058
 31
0.0
 11
209.475010
 21
95.966619
 31
0.0
 11
209.858680
 21
105.000103
 31
0.0
 11
209.060104
 21
118.006157
 31
0.0
 11
206.727558
 21
130.536811
 31
0.0
 11
202.955812
 21
142.497076
 31
0.0
 11
198.447757
 21
152.619494
 31
0.0
 11
192.935077
 21
162.143469
 31
0.0
 11
186.485498
 21
171.001520
 31
0.0
 11
180.057204
 21
178.224307
 31
0.0
 11
172.996168
 21
184.826958
 31
0.0
 11
165.349148
 21
190.762588
 31
0.0
 11
161.880739
 21
193.105665
 31
0.0
 11
158.315661
 21
195.312131
 31
0.0
 11
154.657777
 21
197.378272
 31
0.0
 11
149.697061
 21
199.882693
 31
0.0
 11
144.589994
 21
202.127677
 31
0.0
 11
139.345017
 21
204.104753
 31
0.0
 11
136.455214
 21
205.057846
 31
0.0
 11
133.528679
 21
205.927918
 31
0.0
 11
130.567463
 21
206.715309
 31
0.0
  0
LINE
  5
101
100
AcDbEntity
  8
Capa_1
 62
7
100
AcDbLine
 10
79.431224
 20
206.718063
 30
0.0
 11
79.431224
 21
206.718063
 31
0.0
  0
SPLINE
  5
102
100
AcDbEntity
  8
Capa_1
 62
7
100
AcDbSpline
 70
0
 71
3
 72
22
 73
18
 74
16
 40
0.000000
 40
0.000000
 40
0.000000
 40
0.000000
 40
3.276979
 40
6.562643
 40
9.862124
 40
15.705915
 40
21.650504
 40
27.748745
 40
32.195200
 40
36.551880
 40
40.841393
 40
45.183857
 40
49.491247
 40
53.776575
 40
54.353513
 40
54.930308
 40
55.506939
 40
55.506939
 40
55.506939
 40
55.506939
 10
130.567463
 20
206.715309
 30
0.0
 10
129.713710
 20
206.032973
 30
0.0
 10
128.003940
 20
204.666493
 30
0.0
 10
125.232684
 20
202.887511
 30
0.0
 10
121.580750
 20
200.924340
 30
0.0
 10
116.883629
 20
199.070237
 30
0.0
 10
111.053479
 20
197.723054
 30
0.0
 10
105.550138
 20
197.309188
 30
0.0
 10
100.581187
 20
197.581577
 30
0.0
 10
96.267439
 20
198.300403
 30
0.0
 10
92.091929
 20
199.476333
 30
0.0
 10
88.084182
 20
201.094336
 30
0.0
 10
84.279447
 20
203.139629
 30
0.0
 10
81.750771
 20
204.869104
 30
0.0
 10
80.322462
 20
205.985799
 30
0.0
 10
79.874105
 20
206.348704
 30
0.0
 10
79.578837
 20
206.594955
 30
0.0
 10
79.431224
 20
206.718063
 30
0.0
 11
130.567463
 21
206.715309
 31
0.0
 11
127.972708
 21
204.713850
 31
0.0
 11
125.215541
 21
202.926780
 31
0.0
 11
122.307504
 21
201.367968
 31
0.0
 11
116.872620
 21
199.220427
 31
0.0
 11
111.080667
 21
197.881987
 31
0.0
 11
104.999896
 21
197.420715
 31
0.0
 11
100.560183
 21
197.665471
 31
0.0
 11
96.262882
 21
198.382313
 31
0.0
 11
92.133978
 21
199.545100
 31
0.0
 11
88.107315
 21
201.170823
 31
0.0
 11
84.312629
 21
203.208952
 31
0.0
 11
80.777841
 21
205.631618
 31
0.0
 11
80.323431
 21
205.987103
 31
0.0
 11
79.874962
 21
206.349825
 31
0.0
 11
79.431224
 21
206.718063
 31
0.0
  0
LINE
  5
103
100
AcDbEntity
  8
Capa_1
 62
7
100
AcDbLine
 10
197.495005
 20
67.320337
 30
0.0
 11
197.495005
 21
67.320337
 31
0.0
  0
SPLINE
  5
104
100
AcDbEntity
  8
Capa_1
 62
7
100
AcDbSpline
 70
0
 71
3
 72
28
 73
24
 74
22
 40
0.000000
 40
0.000000
 40
0.000000
 40
0.000000
 40
0.477376
 40
0.950801
 40
1.428177
 40
1.905552
 40
2.378977
 40
2.856353
 40
3.333729
 40
3.807155
 40
4.284531
 40
4.761907
 40
5.235333
 40
5.712709
 40
6.190085
 40
6.663510
 40
7.140885
 40
7.618261
 40
8.091686
 40
8.569062
 40
9.522553
 40
10.447764
 40
11.401255
 40
11.401255
 40
11.401255
 40
11.401255
 10
197.495005
 20
67.320337
 30
0.0
 10
197.482849
 20
67.160756
 30
0.0
 10
197.458636
 20
66.842914
 30
0.0
 10
197.267294
 20
66.398109
 30
0.0
 10
196.976185
 20
66.015952
 30
0.0
 10
196.593516
 20
65.722930
 30
0.0
 10
196.148847
 20
65.538686
 30
0.0
 10
195.671387
 20
65.475657
 30
0.0
 10
195.193974
 20
65.538685
 30
0.0
 10
194.749165
 20
65.722929
 30
0.0
 10
194.367009
 20
66.015951
 30
0.0
 10
194.073987
 20
66.398108
 30
0.0
 10
193.889743
 20
66.842914
 30
0.0
 10
193.826715
 20
67.320337
 30
0.0
 10
193.889744
 20
67.797759
 30
0.0
 10
194.073987
 20
68.242568
 30
0.0
 10
194.367014
 20
68.624712
 30
0.0
 10
194.749150
 20
68.917778
 30
0.0
 10
195.194034
 20
69.101856
 30
0.0
 10
195.830225
 20
69.186724
 30
0.0
 10
196.620787
 20
68.972804
 30
0.0
 10
197.345955
 20
68.275155
 30
0.0
 10
197.444826
 20
67.641788
 30
0.0
 10
197.495005
 20
67.320337
 30
0.0
 11
197.495005
 21
67.320337
 31
0.0
 11
197.432528
 21
66.847068
 31
0.0
 11
197.251356
 21
66.409680
 31
0.0
 11
196.960883
 21
66.030849
 31
0.0
 11
196.582052
 21
65.740375
 31
0.0
 11
196.144665
 21
65.559203
 31
0.0
 11
195.671395
 21
65.496724
 31
0.0
 11
195.198125
 21
65.559202
 31
0.0
 11
194.760737
 21
65.740374
 31
0.0
 11
194.381906
 21
66.030848
 31
0.0
 11
194.091432
 21
66.409679
 31
0.0
 11
193.910260
 21
66.847067
 31
0.0
 11
193.847782
 21
67.320337
 31
0.0
 11
193.910261
 21
67.793607
 31
0.0
 11
194.091433
 21
68.230994
 31
0.0
 11
194.381907
 21
68.609825
 31
0.0
 11
194.760738
 21
68.900298
 31
0.0
 11
195.198126
 21
69.081470
 31
0.0
 11
195.671395
 21
69.143947
 31
0.0
 11
196.591806
 21
68.894971
 31
0.0
 11
197.246029
 21
68.240748
 31
0.0
 11
197.495005
 21
67.320337
 31
0.0
  0
LINE
  5
105
100
AcDbEntity
  8
Capa_1
 62
7
100
AcDbLine
 10
16.152213
 20
145.682030
 30
0.0
 11
16.152213
 21
145.682030
 31
0.0
  0
SPLINE
  5
106
100
AcDbEntity
  8
Capa_1
 62
7
100
AcDbSpline
 70
0
 71
3
 72
25
 73
21
 74
19
 40
0.000000
 40
0.000000
 40
0.000000
 40
0.000000
 40
0.953491
 40
1.878702
 40
2.832193
 40
3.785684
 40
4.710894
 40
5.664385
 40
6.141761
 40
6.615186
 40
7.092562
 40
7.569937
 40
8.043363
 40
8.520738
 40
8.998114
 40
9.471539
 40
9.948915
 40
10.426290
 40
10.899716
 40
11.377091
 40
11.377091
 40
11.377091
 40
11.377091
 10
16.152213
 20
145.682030
 30
0.0
 10
16.102091
 20
145.360556
 30
0.0
 10
16.003333
 20
144.727144
 30
0.0
 10
15.277330
 20
144.029831
 30
0.0
 10
14.330258
 20
143.771371
 30
0.0
 10
13.373357
 20
144.030039
 30
0.0
 10
12.676256
 20
144.726330
 30
0.0
 10
12.462201
 20
145.523995
 30
0.0
 10
12.547087
 20
146.159242
 30
0.0
 10
12.731162
 20
146.604315
 30
0.0
 10
13.024228
 20
146.986400
 30
0.0
 10
13.406372
 20
147.279441
 30
0.0
 10
13.851183
 20
147.463680
 30
0.0
 10
14.328595
 20
147.526710
 30
0.0
 10
14.806055
 20
147.463681
 30
0.0
 10
15.250724
 20
147.279437
 30
0.0
 10
15.633393
 20
146.986415
 30
0.0
 10
15.924502
 20
146.604258
 30
0.0
 10
16.115844
 20
146.159452
 30
0.0
 10
16.140057
 20
145.841611
 30
0.0
 10
16.152213
 20
145.682030
 30
0.0
 11
16.152213
 21
145.682030
 31
0.0
 11
15.903237
 21
144.761619
 31
0.0
 11
15.249014
 21
144.107396
 31
0.0
 11
14.328603
 21
143.858420
 31
0.0
 11
13.408193
 21
144.107396
 31
0.0
 11
12.753970
 21
144.761619
 31
0.0
 11
12.504993
 21
145.682030
 31
0.0
 11
12.567471
 21
146.155299
 31
0.0
 11
12.748642
 21
146.592687
 31
0.0
 11
13.039116
 21
146.971518
 31
0.0
 11
13.417946
 21
147.261992
 31
0.0
 11
13.855334
 21
147.443164
 31
0.0
 11
14.328603
 21
147.505642
 31
0.0
 11
14.801873
 21
147.443164
 31
0.0
 11
15.239260
 21
147.261992
 31
0.0
 11
15.618091
 21
146.971518
 31
0.0
 11
15.908564
 21
146.592687
 31
0.0
 11
16.089736
 21
146.155299
 31
0.0
 11
16.152213
 21
145.682030
 31
0.0
  0
LINE
  5
107
100
AcDbEntity
  8
Capa_1
 62
7
100
AcDbLine
 10
16.152213
 20
64.317970
 30
0.0
 11
16.152213
 21
64.317970
 31
0.0
  0
SPLINE
  5
108
100
AcDbEntity
  8
Capa_1
 62
7
100
AcDbSpline
 70
0
 71
3
 72
25
 73
21
 74
19
 40
0.000000
 40
0.000000
 40
0.000000
 40
0.000000
 40
0.953491
 40
1.878702
 40
2.832193
 40
3.785684
 40
4.710894
 40
5.664385
 40
6.141761
 40
6.615186
 40
7.092562
 40
7.569937
 40
8.043363
 40
8.520738
 40
8.998114
 40
9.471539
 40
9.948915
 40
10.426290
 40
10.899716
 40
11.377091
 40
11.377091
 40
11.377091
 40
11.377091
 10
16.152213
 20
64.317970
 30
0.0
 10
16.102091
 20
63.996496
 30
0.0
 10
16.003333
 20
63.363084
 30
0.0
 10
15.277330
 20
62.665771
 30
0.0
 10
14.330258
 20
62.407311
 30
0.0
 10
13.373357
 20
62.665979
 30
0.0
 10
12.676256
 20
63.362270
 30
0.0
 10
12.462201
 20
64.159935
 30
0.0
 10
12.547087
 20
64.795183
 30
0.0
 10
12.731162
 20
65.240255
 30
0.0
 10
13.024228
 20
65.622340
 30
0.0
 10
13.406372
 20
65.915381
 30
0.0
 10
13.851183
 20
66.099620
 30
0.0
 10
14.328595
 20
66.162651
 30
0.0
 10
14.806055
 20
66.099621
 30
0.0
 10
15.250724
 20
65.915377
 30
0.0
 10
15.633393
 20
65.622355
 30
0.0
 10
15.924502
 20
65.240198
 30
0.0
 10
16.115844
 20
64.795393
 30
0.0
 10
16.140057
 20
64.477551
 30
0.0
 10
16.152213
 20
64.317970
 30
0.0
 11
16.152213
 21
64.317970
 31
0.0
 11
15.903237
 21
63.397559
 31
0.0
 11
15.249014
 21
62.743336
 31
0.0
 11
14.328603
 21
62.494360
 31
0.0
 11
13.408193
 21
62.743336
 31
0.0
 11
12.753970
 21
63.397559
 31
0.0
 11
12.504993
 21
64.317970
 31
0.0
 11
12.567471
 21
64.791239
 31
0.0
 11
12.748642
 21
65.228627
 31
0.0
 11
13.039116
 21
65.607458
 31
0.0
 11
13.417946
 21
65.897932
 31
0.0
 11
13.855334
 21
66.079104
 31
0.0
 11
14.328603
 21
66.141582
 31
0.0
 11
14.801873
 21
66.079104
 31
0.0
 11
15.239260
 21
65.897932
 31
0.0
 11
15.618091
 21
65.607458
 31
0.0
 11
15.908564
 21
65.228627
 31
0.0
 11
16.089736
 21
64.791239
 31
0.0
 11
16.152213
 21
64.317970
 31
0.0
  0
LINE
  5
109
100
AcDbEntity
  8
Capa_1
 62
7
100
AcDbLine
 10
197.495005
 20
145.682030
 30
0.0
 11
197.495005
 21
145.682030
 31
0.0
  0
SPLINE
  5
10a
100
AcDbEntity
  8
Capa_1
 62
7
100
AcDbSpline
 70
0
 71
3
 72
28
 73
24
 74
22
 40
0.000000
 40
0.000000
 40
0.000000
 40
0.000000
 40
0.953491
 40
1.878702
 40
2.832193
 40
3.309568
 40
3.782993
 40
4.260369
 40
4.737745
 40
5.211170
 40
5.688546
 40
6.165922
 40
6.639347
 40
7.116724
 40
7.594100
 40
8.067525
 40
8.544902
 40
9.022277
 40
9.495702
 40
9.973078
 40
10.450454
 40
10.923879
 40
11.401255
 40
11.401255
 40
11.401255
 40
11.401255
 10
197.495005
 20
145.682030
 30
0.0
 10
197.444826
 20
145.360579
 30
0.0
 10
197.345955
 20
144.727212
 30
0.0
 10
196.620787
 20
144.029562
 30
0.0
 10
195.830225
 20
143.815642
 30
0.0
 10
195.194034
 20
143.900510
 30
0.0
 10
194.749150
 20
144.084589
 30
0.0
 10
194.367014
 20
144.377654
 30
0.0
 10
194.073987
 20
144.759799
 30
0.0
 10
193.889744
 20
145.204607
 30
0.0
 10
193.826715
 20
145.682030
 30
0.0
 10
193.889743
 20
146.159453
 30
0.0
 10
194.073987
 20
146.604259
 30
0.0
 10
194.367009
 20
146.986416
 30
0.0
 10
194.749165
 20
147.279437
 30
0.0
 10
195.193974
 20
147.463682
 30
0.0
 10
195.671387
 20
147.526710
 30
0.0
 10
196.148847
 20
147.463681
 30
0.0
 10
196.593516
 20
147.279436
 30
0.0
 10
196.976185
 20
146.986415
 30
0.0
 10
197.267294
 20
146.604258
 30
0.0
 10
197.458636
 20
146.159452
 30
0.0
 10
197.482849
 20
145.841611
 30
0.0
 10
197.495005
 20
145.682030
 30
0.0
 11
197.495005
 21
145.682030
 31
0.0
 11
197.246029
 21
144.761619
 31
0.0
 11
196.591806
 21
144.107396
 31
0.0
 11
195.671395
 21
143.858420
 31
0.0
 11
195.198126
 21
143.920897
 31
0.0
 11
194.760738
 21
144.102069
 31
0.0
 11
194.381907
 21
144.392542
 31
0.0
 11
194.091433
 21
144.771372
 31
0.0
 11
193.910261
 21
145.208760
 31
0.0
 11
193.847782
 21
145.682030
 31
0.0
 11
193.910260
 21
146.155300
 31
0.0
 11
194.091432
 21
146.592688
 31
0.0
 11
194.381906
 21
146.971519
 31
0.0
 11
194.760737
 21
147.261993
 31
0.0
 11
195.198125
 21
147.443165
 31
0.0
 11
195.671395
 21
147.505642
 31
0.0
 11
196.144665
 21
147.443164
 31
0.0
 11
196.582052
 21
147.261992
 31
0.0
 11
196.960883
 21
146.971518
 31
0.0
 11
197.251356
 21
146.592687
 31
0.0
 11
197.432528
 21
146.155299
 31
0.0
 11
197.495005
 21
145.682030
 31
0.0
  0
LINE
  5
10b
100
AcDbEntity
  8
Capa_1
 62
7
100
AcDbLine
 10
124.823507
 20
157.718864
 30
0.0
 11
124.823507
 21
157.718861
 31
0.0
  0
LINE
  5
10c
100
AcDbEntity
  8
Capa_1
 62
1
100
AcDbLine
 10
60.549620
 20
131.395927
 30
0.0
 11
60.549620
 21
27.495706
 31
0.0
  0
LINE
  5
10d
100
AcDbEntity
  8
Capa_1
 62
1
100
AcDbLine
 10
60.549620
 20
27.495706
 30
0.0
 11
149.449620
 21
27.495706
 31
0.0
  0
LINE
  5
10e
100
AcDbEntity
  8
Capa_1
 62
1
100
AcDbLine
 10
149.449620
 20
27.495706
 30
0.0
 11
149.449620
 21
131.395927
 31
0.0
  0
LINE
  5
10f
100
AcDbEntity
  8
Capa_1
 62
1
100
AcDbLine
 10
149.449620
 20
131.395927
 30
0.0
 11
60.549620
 21
131.395927
 31
0.0
  0
LINE
  5
110
100
AcDbEntity
  8
Capa_1
 62
1
100
AcDbLine
 10
60.549620
 20
131.395927
 30
0.0
 11
60.549620
 21
131.395927
 31
0.0
  0
LINE
  5
111
100
AcDbEntity
  8
Capa_1
 62
1
100
AcDbLine
 10
40.549877
 20
27.437277
 30
0.0
 11
40.549877
 21
25.537239
 31
0.0
  0
LINE
  5
112
100
AcDbEntity
  8
Capa_1
 62
1
100
AcDbLine
 10
40.549877
 20
25.537239
 30
0.0
 11
169.449916
 21
25.537239
 31
0.0
  0
LINE
  5
113
100
AcDbEntity
  8
Capa_1
 62
1
100
AcDbLine
 10
169.449916
 20
25.537239
 30
0.0
 11
169.449916
 21
27.437277
 31
0.0
  0
LINE
  5
114
100
AcDbEntity
  8
Capa_1
 62
1
100
AcDbLine
 10
169.449916
 20
27.437277
 30
0.0
 11
40.549877
 21
27.437277
 31
0.0
  0
LINE
  5
115
100
AcDbEntity
  8
Capa_1
 62
1
100
AcDbLine
 10
40.549877
 20
27.437277
 30
0.0
 11
40.549877
 21
27.437277
 31
0.0
  0
SPLINE
  5
116
100
AcDbEntity
  8
Capa_1
 62
7
100
AcDbSpline
 70
0
 71
3
 72
55
 73
51
 74
49
 40
0.000000
 40
0.000000
 40
0.000000
 40
0.000000
 40
3.294283
 40
6.501139
 40
9.653268
 40
11.073793
 40
12.489791
 40
13.902817
 40
16.665255
 40
19.431706
 40
22.212992
 40
25.121912
 40
28.080971
 40
31.116546
 40
33.329942
 40
35.498660
 40
37.633927
 40
39.795569
 40
41.939781
 40
44.072987
 40
47.285962
 40
50.501918
 40
53.737736
 40
56.515063
 40
59.339879
 40
62.235457
 40
65.158343
 40
68.009352
 40
70.812350
 40
73.603149
 40
76.377657
 40
79.146984
 40
81.031768
 40
82.922172
 40
84.822027
 40
87.610749
 40
90.447195
 40
93.354893
 40
96.208712
 40
98.993463
 40
101.731536
 40
104.148911
 40
106.552191
 40
108.948929
 40
111.688035
 40
114.437280
 40
117.208515
 40
119.586877
 40
122.004160
 40
124.475554
 40
124.475554
 40
124.475554
 40
124.475554
 10
124.823507
 20
157.718861
 30
0.0
 10
124.771714
 20
156.619433
 30
0.0
 10
124.669502
 20
154.449756
 30
0.0
 10
123.851346
 20
151.315609
 30
0.0
 10
122.823292
 20
148.924665
 30
0.0
 10
121.822601
 20
147.195399
 30
0.0
 10
121.027201
 20
146.021785
 30
0.0
 10
119.873603
 20
144.556214
 30
0.0
 10
118.254531
 20
142.891749
 30
0.0
 10
116.060069
 20
141.187026
 30
0.0
 10
113.606775
 20
139.779943
 30
0.0
 10
110.915673
 20
138.716230
 30
0.0
 10
108.013134
 20
138.045805
 30
0.0
 10
105.273796
 20
137.839734
 30
0.0
 10
102.800299
 20
137.975310
 30
0.0
 10
100.652967
 20
138.333073
 30
0.0
 10
98.574383
 20
138.918383
 30
0.0
 10
96.579526
 20
139.723927
 30
0.0
 10
94.684986
 20
140.741795
 30
0.0
 10
92.621948
 20
142.155899
 30
0.0
 10
90.495410
 20
144.079111
 30
0.0
 10
88.475548
 20
146.606417
 30
0.0
 10
86.962206
 20
149.301114
 30
0.0
 10
85.923677
 20
152.068129
 30
0.0
 10
85.313259
 20
154.844257
 30
0.0
 10
85.106289
 20
157.727953
 30
0.0
 10
85.315865
 20
160.620501
 30
0.0
 10
85.937729
 20
163.421327
 30
0.0
 10
86.939231
 20
166.062278
 30
0.0
 10
88.291879
 20
168.512461
 30
0.0
 10
89.966802
 20
170.740128
 30
0.0
 10
91.720986
 20
172.499762
 30
0.0
 10
93.432950
 20
173.856628
 30
0.0
 10
95.022666
 20
174.887443
 30
0.0
 10
96.971005
 20
175.900717
 30
0.0
 10
99.326323
 20
176.788941
 30
0.0
 10
102.113247
 20
177.404322
 30
0.0
 10
104.981951
 20
177.611103
 30
0.0
 10
107.833207
 20
177.409407
 30
0.0
 10
110.571290
 20
176.816439
 30
0.0
 10
113.062168
 20
175.896097
 30
0.0
 10
115.296866
 20
174.719072
 30
0.0
 10
117.278564
 20
173.344513
 30
0.0
 10
119.160634
 20
171.670375
 30
0.0
 10
120.889565
 20
169.679361
 30
0.0
 10
122.395984
 20
167.364703
 30
0.0
 10
123.516525
 20
164.971569
 30
0.0
 10
124.274793
 20
162.561111
 30
0.0
 10
124.736925
 20
160.173836
 30
0.0
 10
124.794434
 20
158.543204
 30
0.0
 10
124.823507
 20
157.718864
 30
0.0
 11
124.823507
 21
157.718861
 31
0.0
 11
124.552893
 21
154.435712
 31
0.0
 11
123.770060
 21
151.325873
 31
0.0
 11
122.518522
 21
148.432853
 31
0.0
 11
121.807563
 21
147.203044
 31
0.0
 11
121.013078
 21
146.030932
 31
0.0
 11
120.139135
 21
144.920588
 31
0.0
 11
118.212904
 21
142.940513
 31
0.0
 11
116.028073
 21
141.243525
 31
0.0
 11
113.615207
 21
139.860186
 31
0.0
 11
110.909842
 21
138.791159
 31
0.0
 11
108.026771
 21
138.124880
 31
0.0
 11
104.999894
 21
137.895253
 31
0.0
 11
102.789851
 21
138.017063
 31
0.0
 11
100.650683
 21
138.373848
 31
0.0
 11
98.595357
 21
138.952641
 31
0.0
 11
96.590927
 21
139.761934
 31
0.0
 11
94.701957
 21
140.776546
 31
0.0
 11
92.942375
 21
141.982548
 31
0.0
 11
90.559372
 21
144.137660
 31
0.0
 11
88.551863
 21
146.650085
 31
0.0
 11
86.967937
 21
149.471732
 31
0.0
 11
85.992146
 21
152.071997
 31
0.0
 11
85.385142
 21
154.830825
 31
0.0
 11
85.176283
 21
157.718861
 31
0.0
 11
85.389114
 21
160.633988
 31
0.0
 11
86.007469
 21
163.417132
 31
0.0
 11
87.001138
 21
166.038089
 31
0.0
 11
88.349540
 21
168.481524
 31
0.0
 11
90.016691
 21
170.699293
 31
0.0
 11
91.971796
 21
172.660603
 31
0.0
 11
93.448923
 21
173.831290
 31
0.0
 11
95.035125
 21
174.859682
 31
0.0
 11
96.720744
 21
175.736117
 31
0.0
 11
99.330205
 21
176.719826
 31
0.0
 11
102.099834
 21
177.331857
 31
0.0
 11
104.999894
 21
177.542475
 31
0.0
 11
107.846493
 21
177.339620
 31
0.0
 11
110.568061
 21
176.749778
 31
0.0
 11
113.136510
 21
175.801036
 31
0.0
 11
115.275489
 21
174.674773
 31
0.0
 11
117.250360
 21
173.305233
 31
0.0
 11
119.041191
 21
171.712350
 31
0.0
 11
120.836924
 21
169.644006
 31
0.0
 11
122.336492
 21
167.339739
 31
0.0
 11
123.510141
 21
164.829303
 31
0.0
 11
124.227703
 21
162.561769
 31
0.0
 11
124.671535
 21
160.185581
 31
0.0
 11
124.823507
 21
157.718864
 31
0.0
  0
LINE
  5
117
100
AcDbEntity
  8
Capa_1
 62
7
100
AcDbLine
 10
72.323509
 20
121.243527
 30
0.0
 11
72.323509
 21
121.243527
 31
0.0
  0
SPLINE
  5
118
100
AcDbEntity
  8
Capa_1
 62
7
100
AcDbSpline
 70
0
 71
3
 72
19
 73
15
 74
13
 40
0.000000
 40
0.000000
 40
0.000000
 40
0.000000
 40
0.692062
 40
1.363598
 40
2.055660
 40
2.747722
 40
3.419258
 40
4.111320
 40
4.803382
 40
5.474918
 40
6.166980
 40
6.859042
 40
7.530577
 40
8.222640
 40
8.222640
 40
8.222640
 40
8.222640
 10
72.323509
 20
121.243527
 30
0.0
 10
72.287129
 20
121.010196
 30
0.0
 10
72.215450
 20
120.550455
 30
0.0
 10
71.688498
 20
120.044318
 30
0.0
 10
71.001112
 20
119.856779
 30
0.0
 10
70.306510
 20
120.044318
 30
0.0
 10
69.800781
 20
120.550455
 30
0.0
 10
69.613103
 20
121.243527
 30
0.0
 10
69.800781
 20
121.936599
 30
0.0
 10
70.306510
 20
122.442736
 30
0.0
 10
71.001112
 20
122.630275
 30
0.0
 10
71.688498
 20
122.442736
 30
0.0
 10
72.215450
 20
121.936599
 30
0.0
 10
72.287129
 20
121.476858
 30
0.0
 10
72.323509
 20
121.243527
 30
0.0
 11
72.323509
 21
121.243527
 31
0.0
 11
72.142797
 21
120.575475
 31
0.0
 11
71.667949
 21
120.100628
 31
0.0
 11
70.999898
 21
119.919916
 31
0.0
 11
70.331846
 21
120.100628
 31
0.0
 11
69.856998
 21
120.575475
 31
0.0
 11
69.676287
 21
121.243527
 31
0.0
 11
69.856998
 21
121.911579
 31
0.0
 11
70.331846
 21
122.386426
 31
0.0
 11
70.999898
 21
122.567138
 31
0.0
 11
71.667949
 21
122.386426
 31
0.0
 11
72.142797
 21
121.911579
 31
0.0
 11
72.323509
 21
121.243527
 31
0.0
  0
LINE
  5
119
100
AcDbEntity
  8
Capa_1
 62
7
100
AcDbLine
 10
140.323510
 20
121.243527
 30
0.0
 11
140.323510
 21
121.243527
 31
0.0
  0
SPLINE
  5
11a
100
AcDbEntity
  8
Capa_1
 62
7
100
AcDbSpline
 70
0
 71
3
 72
25
 73
21
 74
19
 40
0.000000
 40
0.000000
 40
0.000000
 40
0.000000
 40
0.346489
 40
0.690110
 40
1.036598
 40
1.383087
 40
1.726708
 40
2.073197
 40
2.765259
 40
3.436794
 40
4.128856
 40
4.820918
 40
5.492454
 40
6.184516
 40
6.531005
 40
6.874626
 40
7.221114
 40
7.567603
 40
7.911224
 40
8.257713
 40
8.257713
 40
8.257713
 40
8.257713
 10
140.323510
 20
121.243527
 30
0.0
 10
140.314686
 20
121.127700
 30
0.0
 10
140.297112
 20
120.897005
 30
0.0
 10
140.158235
 20
120.574154
 30
0.0
 10
139.946928
 20
120.296786
 30
0.0
 10
139.669231
 20
120.084074
 30
0.0
 10
139.346287
 20
119.950466
 30
0.0
 10
138.885180
 20
119.888868
 30
0.0
 10
138.306232
 20
120.044134
 30
0.0
 10
137.800860
 20
120.550502
 30
0.0
 10
137.613060
 20
121.243527
 30
0.0
 10
137.800860
 20
121.936552
 30
0.0
 10
138.306232
 20
122.442920
 30
0.0
 10
138.885180
 20
122.598186
 30
0.0
 10
139.346287
 20
122.536588
 30
0.0
 10
139.669231
 20
122.402980
 30
0.0
 10
139.946928
 20
122.190268
 30
0.0
 10
140.158235
 20
121.912900
 30
0.0
 10
140.297112
 20
121.590049
 30
0.0
 10
140.314686
 20
121.359354
 30
0.0
 10
140.323510
 20
121.243527
 30
0.0
 11
140.323510
 21
121.243527
 31
0.0
 11
140.278162
 21
120.900019
 31
0.0
 11
140.146664
 21
120.582554
 31
0.0
 11
139.935832
 21
120.307592
 31
0.0
 11
139.660869
 21
120.096761
 31
0.0
 11
139.343404
 21
119.965263
 31
0.0
 11
138.999896
 21
119.919916
 31
0.0
 11
138.331844
 21
120.100628
 31
0.0
 11
137.856997
 21
120.575475
 31
0.0
 11
137.676285
 21
121.243527
 31
0.0
 11
137.856997
 21
121.911579
 31
0.0
 11
138.331844
 21
122.386426
 31
0.0
 11
138.999896
 21
122.567138
 31
0.0
 11
139.343404
 21
122.521791
 31
0.0
 11
139.660869
 21
122.390293
 31
0.0
 11
139.935832
 21
122.179462
 31
0.0
 11
140.146664
 21
121.904500
 31
0.0
 11
140.278162
 21
121.587035
 31
0.0
 11
140.323510
 21
121.243527
 31
0.0
  0
LINE
  5
11b
100
AcDbEntity
  8
Capa_1
 62
7
100
AcDbLine
 10
82.323508
 20
33.243526
 30
0.0
 11
82.323508
 21
33.243526
 31
0.0
  0
SPLINE
  5
11c
100
AcDbEntity
  8
Capa_1
 62
7
100
AcDbSpline
 70
0
 71
3
 72
19
 73
15
 74
13
 40
0.000000
 40
0.000000
 40
0.000000
 40
0.000000
 40
0.692062
 40
1.363598
 40
2.055660
 40
2.747722
 40
3.419258
 40
4.111320
 40
4.803382
 40
5.474918
 40
6.166980
 40
6.859042
 40
7.530577
 40
8.222640
 40
8.222640
 40
8.222640
 40
8.222640
 10
82.323508
 20
33.243526
 30
0.0
 10
82.287128
 20
33.010195
 30
0.0
 10
82.215449
 20
32.550454
 30
0.0
 10
81.688497
 20
32.044317
 30
0.0
 10
81.001111
 20
31.856778
 30
0.0
 10
80.306509
 20
32.044317
 30
0.0
 10
79.800780
 20
32.550454
 30
0.0
 10
79.613101
 20
33.243526
 30
0.0
 10
79.800780
 20
33.936598
 30
0.0
 10
80.306509
 20
34.442735
 30
0.0
 10
81.001111
 20
34.630274
 30
0.0
 10
81.688497
 20
34.442735
 30
0.0
 10
82.215449
 20
33.936598
 30
0.0
 10
82.287128
 20
33.476857
 30
0.0
 10
82.323508
 20
33.243526
 30
0.0
 11
82.323508
 21
33.243526
 31
0.0
 11
82.142796
 21
32.575474
 31
0.0
 11
81.667948
 21
32.100627
 31
0.0
 11
80.999897
 21
31.919915
 31
0.0
 11
80.331845
 21
32.100627
 31
0.0
 11
79.856997
 21
32.575474
 31
0.0
 11
79.676285
 21
33.243526
 31
0.0
 11
79.856997
 21
33.911578
 31
0.0
 11
80.331845
 21
34.386425
 31
0.0
 11
80.999897
 21
34.567137
 31
0.0
 11
81.667948
 21
34.386425
 31
0.0
 11
82.142796
 21
33.911578
 31
0.0
 11
82.323508
 21
33.243526
 31
0.0
  0
LINE
  5
11d
100
AcDbEntity
  8
Capa_1
 62
7
100
AcDbLine
 10
130.323509
 20
33.243526
 30
0.0
 11
130.323509
 21
33.243526
 31
0.0
  0
SPLINE
  5
11e
100
AcDbEntity
  8
Capa_1
 62
7
100
AcDbSpline
 70
0
 71
3
 72
19
 73
15
 74
13
 40
0.000000
 40
0.000000
 40
0.000000
 40
0.000000
 40
0.692062
 40
1.363598
 40
2.055660
 40
2.747722
 40
3.419257
 40
4.111320
 40
4.803382
 40
5.474917
 40
6.166979
 40
6.859041
 40
7.530577
 40
8.222639
 40
8.222639
 40
8.222639
 40
8.222639
 10
130.323509
 20
33.243526
 30
0.0
 10
130.287130
 20
33.010195
 30
0.0
 10
130.215451
 20
32.550454
 30
0.0
 10
129.688499
 20
32.044317
 30
0.0
 10
129.001113
 20
31.856778
 30
0.0
 10
128.306511
 20
32.044317
 30
0.0
 10
127.800781
 20
32.550454
 30
0.0
 10
127.613103
 20
33.243526
 30
0.0
 10
127.800781
 20
33.936598
 30
0.0
 10
128.306511
 20
34.442735
 30
0.0
 10
129.001113
 20
34.630274
 30
0.0
 10
129.688499
 20
34.442735
 30
0.0
 10
130.215451
 20
33.936598
 30
0.0
 10
130.287130
 20
33.476857
 30
0.0
 10
130.323509
 20
33.243526
 30
0.0
 11
130.323509
 21
33.243526
 31
0.0
 11
130.142798
 21
32.575474
 31
0.0
 11
129.667950
 21
32.100627
 31
0.0
 11
128.999898
 21
31.919915
 31
0.0
 11
128.331847
 21
32.100627
 31
0.0
 11
127.856999
 21
32.575474
 31
0.0
 11
127.676287
 21
33.243526
 31
0.0
 11
127.856999
 21
33.911578
 31
0.0
 11
128.331847
 21
34.386425
 31
0.0
 11
128.999898
 21
34.567137
 31
0.0
 11
129.667950
 21
34.386425
 31
0.0
 11
130.142798
 21
33.911578
 31
0.0
 11
130.323509
 21
33.243526
 31
0.0
  0
ENDSEC
  0
SECTION
  2
OBJECTS
  0
DICTIONARY
  5
C
330
0
100
AcDbDictionary
  3
ACAD_GROUP
350
D
  3
ACAD_MLINESTYLE
350
17
  0
DICTIONARY
  5
D
330
C
100
AcDbDictionary
  0
DICTIONARY
  5
1A
330
C
100
AcDbDictionary
  0
DICTIONARY
  5
17
330
C
100
AcDbDictionary
  3
STANDARD
350
18
  0
DICTIONARY
  5
19
330
C
100
AcDbDictionary
  0
ENDSEC
  0
EOF
