  0
SECTION
  2
HEADER
  9
$ACADVER
  1
AC1014
  9
$HANDSEED
  5
FFFF
  9
$MEASUREMENT
 70
     1
  0
ENDSEC
  0
SECTION
  2
TABLES
  0
TABLE
  2
VPORT
  5
8
330
0
100
AcDbSymbolTable
 70
     4
  0
VPORT
  5
2E
330
8
100
AcDbSymbolTableRecord
100
AcDbViewportTableRecord
  2
*ACTIVE
 70
     0
 10
0.0
 20
0.0
 11
1.0
 21
1.0
 12
210.0
 22
148.5
 13
0.0
 23
0.0
 14
10.0
 24
10.0
 15
10.0
 25
10.0
 16
0.0
 26
0.0
 36
1.0
 17
0.0
 27
0.0
 37
0.0
 40
341.0
 41
1.24
 42
50.0
 43
0.0
 44
0.0
 50
0.0
 51
0.0
 71
     0
 72
   100
 73
     1
 74
     3
 75
     0
 76
     0
 77
     0
 78
     0
  0
ENDTAB
  0
TABLE
  2
LTYPE
  5
5
330
0
100
AcDbSymbolTable
 70
     1
  0
LTYPE
  5
14
330
5
100
AcDbSymbolTableRecord
100
AcDbLinetypeTableRecord
  2
BYBLOCK
 70
     0
  3

 72
    65
 73
     0
 40
0.0
  0
LTYPE
  5
15
330
5
100
AcDbSymbolTableRecord
100
AcDbLinetypeTableRecord
  2
BYLAYER
 70
     0
  3

 72
    65
 73
     0
 40
0.0
  0
LTYPE
  5
16
330
5
100
AcDbSymbolTableRecord
100
AcDbLinetypeTableRecord
  2
CONTINUOUS
 70
     0
  3
Solid line
 72
    65
 73
     0
 40
0.0
  0
ENDTAB
  0
TABLE
  2
LAYER
  5
2
100
AcDbSymbolTable
 70
2
  0
LAYER
  5
50
100
AcDbSymbolTableRecord
100
AcDbLayerTableRecord
  2
0
 70
0
  6
CONTINUOUS
  0
LAYER
  5
51
100
AcDbSymbolTableRecord
100
AcDbLayerTableRecord
  2
Capa_1
 70
0
  6
CONTINUOUS
  0
ENDTAB
  0
TABLE
  2
STYLE
  5
3
330
0
100
AcDbSymbolTable
 70
     1
  0
STYLE
  5
11
330
3
100
AcDbSymbolTableRecord
100
AcDbTextStyleTableRecord
  2
STANDARD
 70
     0
 40
0.0
 41
1.0
 50
0.0
 71
     0
 42
2.5
  3
txt
  4

  0
ENDTAB
  0
TABLE
  2
VIEW
  5
6
330
0
100
AcDbSymbolTable
 70
     0
  0
ENDTAB
  0
TABLE
  2
UCS
  5
7
330
0
100
AcDbSymbolTable
 70
     0
  0
ENDTAB
  0
TABLE
  2
APPID
  5
9
330
0
100
AcDbSymbolTable
 70
     2
  0
APPID
  5
12
330
9
100
AcDbSymbolTableRecord
100
AcDbRegAppTableRecord
  2
ACAD
 70
     0
  0
ENDTAB
  0
TABLE
  2
DIMSTYLE
  5
A
330
0
100
AcDbSymbolTable
 70
     1
  0
DIMSTYLE
105
27
330
A
100
AcDbSymbolTableRecord
100
AcDbDimStyleTableRecord
  2
ISO-25
 70
     0
  3

  4

  5

  6

  7

 40
1.0
 41
2.5
 42
0.625
 43
3.75
 44
1.25
 45
0.0
 46
0.0
 47
0.0
 48
0.0
140
2.5
141
2.5
142
0.0
143
0.03937007874016
144
1.0
145
0.0
146
1.0
147
0.625
 71
     0
 72
     0
 73
     0
 74
     0
 75
     0
 76
     0
 77
     1
 78
     8
170
     0
171
     3
172
     1
173
     0
174
     0
175
     0
176
     0
177
     0
178
     0
270
     2
271
     2
272
     2
273
     2
274
     3
340
11
275
     0
280
     0
281
     0
282
     0
283
     0
284
     8
285
     0
286
     0
287
     3
288
     0
  0
ENDTAB
  0
TABLE
  2
BLOCK_RECORD
  5
1
330
0
100
AcDbSymbolTable
 70
     1
  0
BLOCK_RECORD
  5
1F
330
1
100
AcDbSymbolTableRecord
100
AcDbBlockTableRecord
  2
*MODEL_SPACE
  0
BLOCK_RECORD
  5
1B
330
1
100
AcDbSymbolTableRecord
100
AcDbBlockTableRecord
  2
*PAPER_SPACE
  0
ENDTAB
  0
ENDSEC
  0
SECTION
  2
BLOCKS
  0
BLOCK
  5
20
330
1F
100
AcDbEntity
  8
0
100
AcDbBlockBegin
  2
*MODEL_SPACE
 70
     0
 10
0.0
 20
0.0
 30
0.0
  3
*MODEL_SPACE
  1

  0
ENDBLK
  5
21
330
1F
100
AcDbEntity
  8
0
100
AcDbBlockEnd
  0
BLOCK
  5
1C
330
1B
100
AcDbEntity
 67
     1
  8
0
100
AcDbBlockBegin
  2
*PAPER_SPACE
  1

  0
ENDBLK
  5
1D
330
1B
100
AcDbEntity
 67
     1
  8
0
100
AcDbBlockEnd
  0
ENDSEC
  0
SECTION
  2
ENTITIES
  0
LINE
  5
100
100
AcDbEntity
  8
Capa_1
 62
7
100
AcDbLine
 10
209.858889
 20
105.000001
 30
0.0
 11
209.858889
 21
105.000001
 31
0.0
  0
SPLINE
  5
101
100
AcDbEntity
  8
Capa_1
 62
7
100
AcDbSpline
 70
0
 71
3
 72
115
 73
111
 74
109
 40
0.000000
 40
0.000000
 40
0.000000
 40
0.000000
 40
9.041548
 40
17.934070
 40
26.706447
 40
34.027603
 40
41.294123
 40
48.517283
 40
51.279075
 40
54.036440
 40
56.789853
 40
64.040227
 40
71.273838
 40
78.497613
 40
82.432222
 40
86.366852
 40
90.302523
 40
95.533150
 40
100.769946
 40
106.015564
 40
109.425222
 40
112.840633
 40
116.262687
 40
120.333292
 40
124.416297
 40
128.513547
 40
132.803885
 40
137.114350
 40
141.447609
 40
149.098708
 40
156.845828
 40
164.708403
 40
170.111042
 40
175.456394
 40
180.751064
 40
186.037319
 40
191.284088
 40
196.496595
 40
201.013721
 40
205.511325
 40
209.992038
 40
214.289880
 40
218.576287
 40
222.853076
 40
229.498926
 40
236.131308
 40
242.755531
 40
249.911805
 40
257.070519
 40
264.237932
 40
268.218962
 40
272.205921
 40
276.200103
 40
280.368859
 40
284.548642
 40
288.741281
 40
293.759716
 40
298.802931
 40
303.874980
 40
308.269515
 40
312.691825
 40
317.145244
 40
321.206530
 40
325.299084
 40
329.425918
 40
341.690352
 40
353.698482
 40
365.517795
 40
373.663233
 40
381.759169
 40
389.818625
 40
394.361669
 40
398.898487
 40
403.430793
 40
411.805736
 40
420.180729
 40
428.565711
 40
433.950894
 40
439.347534
 40
444.758933
 40
453.134959
 40
461.569981
 40
470.081910
 40
477.983800
 40
485.987000
 40
494.112855
 40
505.990595
 40
517.625957
 40
529.080745
 40
534.686101
 40
540.265056
 40
545.822238
 40
550.023269
 40
554.215835
 40
558.401468
 40
562.496120
 40
566.586769
 40
570.674628
 40
576.257299
 40
581.839866
 40
587.425247
 40
592.981734
 40
598.547060
 40
604.124561
 40
609.556216
 40
615.006475
 40
620.479428
 40
633.020329
 40
645.766225
 40
658.796755
 40
658.796755
 40
658.796755
 40
658.796755
 10
209.858889
 20
105.000001
 30
0.0
 10
209.785444
 20
101.985209
 30
0.0
 10
209.639764
 20
96.005317
 30
0.0
 10
208.465820
 20
87.164663
 30
0.0
 10
206.722902
 20
79.012358
 30
0.0
 10
204.497757
 20
71.543121
 30
0.0
 10
201.939523
 20
64.731841
 30
0.0
 10
199.545646
 20
59.497636
 30
0.0
 10
197.596472
 20
55.723476
 30
0.0
 10
196.266747
 20
53.307320
 30
0.0
 10
194.118310
 20
49.635651
 30
0.0
 10
190.980445
 20
44.816214
 30
0.0
 10
186.621003
 20
39.034183
 30
0.0
 10
182.599843
 20
34.399574
 30
0.0
 10
179.105828
 20
30.778429
 30
0.0
 10
176.269183
 20
28.049870
 30
0.0
 10
173.010471
 20
25.141351
 30
0.0
 10
169.291488
 20
22.101781
 30
0.0
 10
165.074672
 20
18.991518
 30
0.0
 10
161.213960
 20
16.430804
 30
0.0
 10
157.771507
 20
14.346650
 30
0.0
 10
154.792973
 20
12.673425
 30
0.0
 10
151.565854
 20
10.996850
 30
0.0
 10
148.079322
 20
9.341462
 30
0.0
 10
144.323799
 20
7.735076
 30
0.0
 10
140.439653
 20
6.251220
 30
0.0
 10
136.426892
 20
4.900850
 30
0.0
 10
132.286130
 20
3.695494
 30
0.0
 10
127.011142
 20
2.394897
 30
0.0
 10
120.538985
 20
1.189017
 30
0.0
 10
112.826038
 20
0.332264
 30
0.0
 10
105.819872
 20
0.074978
 30
0.0
 10
99.615911
 20
0.231491
 30
0.0
 10
94.281417
 20
0.637140
 30
0.0
 10
89.012833
 20
1.306993
 30
0.0
 10
83.817155
 20
2.236468
 30
0.0
 10
78.701773
 20
3.420901
 30
0.0
 10
73.898962
 20
4.790486
 30
0.0
 10
69.402776
 20
6.303281
 30
0.0
 10
65.203966
 20
7.921610
 30
0.0
 10
61.145821
 20
9.690125
 30
0.0
 10
57.229091
 20
11.596879
 30
0.0
 10
53.453786
 20
13.630627
 30
0.0
 10
49.091451
 20
16.216076
 30
0.0
 10
44.216128
 20
19.459840
 30
0.0
 10
38.932255
 20
23.478564
 30
0.0
 10
33.782707
 20
27.932864
 30
0.0
 10
28.809249
 20
32.837717
 30
0.0
 10
24.059792
 20
38.203957
 30
0.0
 10
20.331976
 20
43.041812
 30
0.0
 10
17.468036
 20
47.196522
 30
0.0
 10
15.330589
 20
50.563800
 30
0.0
 10
13.291341
 20
54.064015
 30
0.0
 10
11.359869
 20
57.697941
 30
0.0
 10
9.546387
 20
61.465749
 30
0.0
 10
7.773025
 20
65.563242
 30
0.0
 10
6.079723
 20
70.004734
 30
0.0
 10
4.512006
 20
74.801564
 30
0.0
 10
3.234225
 20
79.468364
 30
0.0
 10
2.215565
 20
83.985904
 30
0.0
 10
1.425552
 20
88.339553
 30
0.0
 10
0.836120
 20
92.612757
 30
0.0
 10
0.430943
 20
96.796598
 30
0.0
 10
0.193904
 20
100.884418
 30
0.0
 10
0.062251
 20
107.712129
 30
0.0
 10
0.605651
 20
117.186867
 30
0.0
 10
2.681170
 20
129.062894
 30
0.0
 10
5.710563
 20
139.306375
 30
0.0
 10
9.214048
 20
147.988501
 30
0.0
 10
12.823969
 20
155.248994
 30
0.0
 10
16.366960
 20
161.177809
 30
0.0
 10
19.587374
 20
165.898596
 30
0.0
 10
22.304643
 20
169.534267
 30
0.0
 10
25.983845
 20
174.038872
 30
0.0
 10
30.804656
 20
179.254345
 30
0.0
 10
36.967869
 20
184.942265
 30
0.0
 10
42.779532
 20
189.507136
 30
0.0
 10
48.053309
 20
193.117891
 30
0.0
 10
52.659958
 20
195.935961
 30
0.0
 10
58.281973
 20
198.988429
 30
0.0
 10
65.018402
 20
202.089573
 30
0.0
 10
72.954093
 20
204.992707
 30
0.0
 10
80.947798
 20
207.198264
 30
0.0
 10
88.947216
 20
208.739877
 30
0.0
 10
96.913165
 20
209.654721
 30
0.0
 10
106.250246
 20
210.009352
 30
0.0
 10
116.803790
 20
209.423144
 30
0.0
 10
128.319539
 20
207.475831
 30
0.0
 10
137.536595
 20
204.840610
 30
0.0
 10
144.600625
 20
202.177558
 30
0.0
 10
149.711808
 20
199.930628
 30
0.0
 10
154.277727
 20
197.625352
 30
0.0
 10
158.327686
 20
195.337616
 30
0.0
 10
161.894017
 20
193.130203
 30
0.0
 10
165.340033
 20
190.802133
 30
0.0
 10
168.664298
 20
188.360366
 30
0.0
 10
171.865671
 20
185.811544
 30
0.0
 10
175.341560
 20
182.816690
 30
0.0
 10
179.039059
 20
179.323181
 30
0.0
 10
182.890873
 20
175.277423
 30
0.0
 10
186.517569
 20
171.040110
 30
0.0
 10
189.911738
 20
166.621644
 30
0.0
 10
193.066240
 20
162.032164
 30
0.0
 10
195.951091
 20
157.317269
 30
0.0
 10
198.566041
 20
152.491247
 30
0.0
 10
200.910766
 20
147.566901
 30
0.0
 10
203.902914
 20
140.336557
 30
0.0
 10
206.974784
 20
130.532060
 30
0.0
 10
209.403916
 20
117.944311
 30
0.0
 10
209.706119
 20
109.346418
 30
0.0
 10
209.858889
 20
105.000001
 30
0.0
 11
209.858889
 21
105.000001
 31
0.0
 11
209.475209
 21
95.966597
 31
0.0
 11
208.345053
 21
87.146184
 31
0.0
 11
206.499744
 21
78.570088
 31
0.0
 11
204.411580
 21
71.553044
 31
0.0
 11
201.856192
 21
64.750669
 31
0.0
 11
198.852346
 21
58.181731
 31
0.0
 11
197.585056
 21
55.727862
 31
0.0
 11
196.255601
 21
53.312161
 31
0.0
 11
194.865040
 21
50.935689
 31
0.0
 11
190.909212
 21
44.859559
 31
0.0
 11
186.554560
 21
39.083562
 31
0.0
 11
181.820560
 21
33.627175
 31
0.0
 11
179.088531
 21
30.795715
 31
0.0
 11
176.252820
 21
28.068068
 31
0.0
 11
173.316577
 21
25.447385
 31
0.0
 11
169.266533
 21
22.137308
 31
0.0
 11
165.052072
 21
19.028877
 31
0.0
 11
160.680577
 21
16.129474
 31
0.0
 11
157.763814
 21
14.363613
 31
0.0
 11
154.786072
 21
12.690866
 31
0.0
 11
151.749367
 21
11.113247
 31
0.0
 11
148.072170
 21
9.367381
 31
0.0
 11
144.318154
 21
7.761676
 31
0.0
 11
140.490687
 21
6.299501
 31
0.0
 11
136.424413
 21
4.931139
 31
0.0
 11
132.285736
 21
3.726370
 31
0.0
 11
128.078478
 21
2.689018
 31
0.0
 11
120.556893
 21
1.287198
 31
0.0
 11
112.857225
 21
0.431055
 31
0.0
 11
104.999998
 21
0.141113
 31
0.0
 11
99.599089
 21
0.277803
 31
0.0
 11
94.269152
 21
0.683467
 31
0.0
 11
89.016794
 21
1.351500
 31
0.0
 11
83.813178
 21
2.282558
 31
0.0
 11
78.701660
 21
3.466185
 31
0.0
 11
73.688986
 21
4.895635
 31
0.0
 11
69.407694
 21
6.336108
 31
0.0
 11
65.211004
 21
7.953585
 31
0.0
 11
61.103377
 21
9.743609
 31
0.0
 11
57.239097
 21
11.624775
 31
0.0
 11
53.465383
 21
13.657599
 31
0.0
 11
49.786209
 21
15.838105
 31
0.0
 11
44.253062
 21
19.519355
 31
0.0
 11
38.973953
 21
23.534263
 31
0.0
 11
33.963897
 21
27.867816
 31
0.0
 11
28.868618
 21
32.892792
 31
0.0
 11
24.124172
 21
38.253522
 31
0.0
 11
19.749522
 21
43.931044
 31
0.0
 11
17.490117
 21
47.208800
 31
0.0
 11
15.353476
 21
50.574896
 31
0.0
 11
13.342832
 21
54.026099
 31
0.0
 11
11.386334
 21
57.707218
 31
0.0
 11
9.573644
 21
61.473482
 31
0.0
 11
7.908413
 21
65.321239
 31
0.0
 11
6.120717
 21
70.010463
 31
0.0
 11
4.554037
 21
74.804161
 31
0.0
 11
3.214562
 21
79.696143
 31
0.0
 11
2.247853
 21
83.983031
 31
0.0
 11
1.458188
 21
88.334267
 31
0.0
 11
0.849520
 21
92.745895
 31
0.0
 11
0.457915
 21
96.788257
 31
0.0
 11
0.220801
 21
100.873936
 31
0.0
 11
0.141111
 21
105.000001
 31
0.0
 11
0.848348
 21
117.244027
 31
0.0
 11
2.917405
 21
129.072559
 31
0.0
 11
6.269307
 21
140.406619
 31
0.0
 11
9.317036
 21
147.960393
 31
0.0
 11
12.921163
 21
155.209838
 31
0.0
 11
17.055070
 21
162.128338
 31
0.0
 11
19.615194
 21
165.881339
 31
0.0
 11
22.331175
 21
169.515368
 31
0.0
 11
25.198211
 21
173.025624
 31
0.0
 11
30.882897
 21
179.175748
 31
0.0
 11
37.037526
 21
184.855629
 31
0.0
 11
43.631713
 21
190.034878
 31
0.0
 11
48.075248
 21
193.077113
 31
0.0
 11
52.678870
 21
195.893207
 31
0.0
 11
57.434578
 21
198.475159
 31
0.0
 11
65.043265
 21
201.977401
 31
0.0
 11
72.964898
 21
204.875214
 31
0.0
 11
81.170189
 21
207.139311
 31
0.0
 11
88.929220
 21
208.635072
 31
0.0
 11
96.880048
 21
209.549156
 31
0.0
 11
104.999998
 21
209.858889
 31
0.0
 11
116.859209
 21
209.195687
 31
0.0
 11
128.331389
 21
207.253849
 31
0.0
 11
139.344885
 21
204.105027
 31
0.0
 11
144.589963
 21
202.127867
 31
0.0
 11
149.697221
 21
199.882726
 31
0.0
 11
154.658039
 21
197.378221
 31
0.0
 11
158.315859
 21
195.312059
 31
0.0
 11
161.880817
 21
193.105551
 31
0.0
 11
165.349162
 21
190.762452
 31
0.0
 11
168.649249
 21
188.338488
 31
0.0
 11
171.849505
 21
185.790594
 31
0.0
 11
174.946405
 21
183.122299
 31
0.0
 11
179.004306
 21
179.288286
 31
0.0
 11
182.853668
 21
175.245086
 31
0.0
 11
186.485493
 21
171.001698
 31
0.0
 11
189.870367
 21
166.595206
 31
0.0
 11
193.022673
 21
162.008724
 31
0.0
 11
195.933578
 21
157.251083
 31
0.0
 11
198.521043
 21
152.475321
 31
0.0
 11
200.864421
 21
147.554558
 31
0.0
 11
202.955626
 21
142.496884
 31
0.0
 11
206.727474
 21
130.536642
 31
0.0
 11
209.060210
 21
118.006032
 31
0.0
 11
209.858889
 21
105.000001
 31
0.0
  0
LINE
  5
102
100
AcDbEntity
  8
Capa_1
 62
7
100
AcDbLine
 10
37.717422
 20
144.925138
 30
0.0
 11
37.717422
 21
144.925138
 31
0.0
  0
SPLINE
  5
103
100
AcDbEntity
  8
Capa_1
 62
7
100
AcDbSpline
 70
0
 71
3
 72
19
 73
15
 74
13
 40
0.000000
 40
0.000000
 40
0.000000
 40
0.000000
 40
0.710507
 40
1.399941
 40
2.110449
 40
2.820956
 40
3.510390
 40
4.220897
 40
4.931405
 40
5.620839
 40
6.331346
 40
7.041853
 40
7.731287
 40
8.441795
 40
8.441795
 40
8.441795
 40
8.441795
 10
37.717422
 20
144.925138
 30
0.0
 10
37.477872
 20
144.962487
 30
0.0
 10
37.005878
 20
145.036077
 30
0.0
 10
36.486250
 20
145.577073
 30
0.0
 10
36.293713
 20
146.282779
 30
0.0
 10
36.486250
 20
146.995895
 30
0.0
 10
37.005878
 20
147.515103
 30
0.0
 10
37.717422
 20
147.707783
 30
0.0
 10
38.428966
 20
147.515103
 30
0.0
 10
38.948593
 20
146.995895
 30
0.0
 10
39.141130
 20
146.282779
 30
0.0
 10
38.948593
 20
145.577073
 30
0.0
 10
38.428966
 20
145.036077
 30
0.0
 10
37.956971
 20
144.962487
 30
0.0
 10
37.717422
 20
144.925138
 30
0.0
 11
37.717422
 21
144.925138
 31
0.0
 11
37.031565
 21
145.110666
 31
0.0
 11
36.544061
 21
145.598169
 31
0.0
 11
36.358533
 21
146.284027
 31
0.0
 11
36.544061
 21
146.969884
 31
0.0
 11
37.031565
 21
147.457387
 31
0.0
 11
37.717422
 21
147.642915
 31
0.0
 11
38.403279
 21
147.457387
 31
0.0
 11
38.890782
 21
146.969884
 31
0.0
 11
39.076310
 21
146.284027
 31
0.0
 11
38.890782
 21
145.598169
 31
0.0
 11
38.403279
 21
145.110666
 31
0.0
 11
37.717422
 21
144.925138
 31
0.0
  0
LINE
  5
104
100
AcDbEntity
  8
Capa_1
 62
7
100
AcDbLine
 10
37.717422
 20
62.375138
 30
0.0
 11
37.717422
 21
62.375138
 31
0.0
  0
SPLINE
  5
105
100
AcDbEntity
  8
Capa_1
 62
7
100
AcDbSpline
 70
0
 71
3
 72
19
 73
15
 74
13
 40
0.000000
 40
0.000000
 40
0.000000
 40
0.000000
 40
0.710507
 40
1.399941
 40
2.110449
 40
2.820956
 40
3.510390
 40
4.220897
 40
4.931405
 40
5.620839
 40
6.331346
 40
7.041853
 40
7.731287
 40
8.441795
 40
8.441795
 40
8.441795
 40
8.441795
 10
37.717422
 20
62.375138
 30
0.0
 10
37.477872
 20
62.412487
 30
0.0
 10
37.005878
 20
62.486077
 30
0.0
 10
36.486250
 20
63.027073
 30
0.0
 10
36.293713
 20
63.732779
 30
0.0
 10
36.486250
 20
64.445895
 30
0.0
 10
37.005878
 20
64.965103
 30
0.0
 10
37.717422
 20
65.157783
 30
0.0
 10
38.428966
 20
64.965103
 30
0.0
 10
38.948593
 20
64.445895
 30
0.0
 10
39.141130
 20
63.732779
 30
0.0
 10
38.948593
 20
63.027073
 30
0.0
 10
38.428966
 20
62.486077
 30
0.0
 10
37.956971
 20
62.412487
 30
0.0
 10
37.717422
 20
62.375138
 30
0.0
 11
37.717422
 21
62.375138
 31
0.0
 11
37.031565
 21
62.560666
 31
0.0
 11
36.544061
 21
63.048169
 31
0.0
 11
36.358533
 21
63.734027
 31
0.0
 11
36.544061
 21
64.419884
 31
0.0
 11
37.031565
 21
64.907387
 31
0.0
 11
37.717422
 21
65.092915
 31
0.0
 11
38.403279
 21
64.907387
 31
0.0
 11
38.890782
 21
64.419884
 31
0.0
 11
39.076310
 21
63.734027
 31
0.0
 11
38.890782
 21
63.048169
 31
0.0
 11
38.403279
 21
62.560666
 31
0.0
 11
37.717422
 21
62.375138
 31
0.0
  0
LINE
  5
106
100
AcDbEntity
  8
Capa_1
 62
7
100
AcDbLine
 10
85.977422
 20
143.655138
 30
0.0
 11
85.977422
 21
143.655138
 31
0.0
  0
SPLINE
  5
107
100
AcDbEntity
  8
Capa_1
 62
7
100
AcDbSpline
 70
0
 71
3
 72
19
 73
15
 74
13
 40
0.000000
 40
0.000000
 40
0.000000
 40
0.000000
 40
0.710507
 40
1.399941
 40
2.110449
 40
2.820956
 40
3.510390
 40
4.220897
 40
4.931405
 40
5.620839
 40
6.331346
 40
7.041853
 40
7.731287
 40
8.441795
 40
8.441795
 40
8.441795
 40
8.441795
 10
85.977422
 20
143.655138
 30
0.0
 10
85.737872
 20
143.692487
 30
0.0
 10
85.265878
 20
143.766077
 30
0.0
 10
84.746250
 20
144.307073
 30
0.0
 10
84.553713
 20
145.012779
 30
0.0
 10
84.746250
 20
145.725895
 30
0.0
 10
85.265878
 20
146.245103
 30
0.0
 10
85.977422
 20
146.437783
 30
0.0
 10
86.688966
 20
146.245103
 30
0.0
 10
87.208593
 20
145.725895
 30
0.0
 10
87.401130
 20
145.012779
 30
0.0
 10
87.208593
 20
144.307073
 30
0.0
 10
86.688966
 20
143.766077
 30
0.0
 10
86.216971
 20
143.692487
 30
0.0
 10
85.977422
 20
143.655138
 30
0.0
 11
85.977422
 21
143.655138
 31
0.0
 11
85.291565
 21
143.840666
 31
0.0
 11
84.804061
 21
144.328169
 31
0.0
 11
84.618533
 21
145.014027
 31
0.0
 11
84.804061
 21
145.699884
 31
0.0
 11
85.291565
 21
146.187387
 31
0.0
 11
85.977422
 21
146.372915
 31
0.0
 11
86.663279
 21
146.187387
 31
0.0
 11
87.150782
 21
145.699884
 31
0.0
 11
87.336310
 21
145.014027
 31
0.0
 11
87.150782
 21
144.328169
 31
0.0
 11
86.663279
 21
143.840666
 31
0.0
 11
85.977422
 21
143.655138
 31
0.0
  0
LINE
  5
108
100
AcDbEntity
  8
Capa_1
 62
7
100
AcDbLine
 10
85.977422
 20
68.725138
 30
0.0
 11
85.977422
 21
68.725138
 31
0.0
  0
LINE
  5
109
100
AcDbEntity
  8
Capa_1
 62
1
100
AcDbLine
 10
89.536292
 20
161.612918
 30
0.0
 11
89.536292
 21
58.895140
 31
0.0
  0
LINE
  5
10a
100
AcDbEntity
  8
Capa_1
 62
1
100
AcDbLine
 10
89.536292
 20
58.895140
 30
0.0
 11
33.818513
 21
58.895140
 31
0.0
  0
LINE
  5
10b
100
AcDbEntity
  8
Capa_1
 62
1
100
AcDbLine
 10
33.818513
 20
58.895140
 30
0.0
 11
33.818513
 21
161.612918
 31
0.0
  0
LINE
  5
10c
100
AcDbEntity
  8
Capa_1
 62
1
100
AcDbLine
 10
33.818513
 20
161.612918
 30
0.0
 11
89.536292
 21
161.612918
 31
0.0
  0
LINE
  5
10d
100
AcDbEntity
  8
Capa_1
 62
1
100
AcDbLine
 10
82.424890
 20
173.299484
 30
0.0
 11
82.424890
 21
152.774232
 31
0.0
  0
LINE
  5
10e
100
AcDbEntity
  8
Capa_1
 62
1
100
AcDbLine
 10
82.424890
 20
152.774232
 30
0.0
 11
67.030952
 21
152.774232
 31
0.0
  0
LINE
  5
10f
100
AcDbEntity
  8
Capa_1
 62
1
100
AcDbLine
 10
67.030952
 20
152.774232
 30
0.0
 11
67.030952
 21
173.299484
 31
0.0
  0
LINE
  5
110
100
AcDbEntity
  8
Capa_1
 62
1
100
AcDbLine
 10
67.030952
 20
173.299484
 30
0.0
 11
82.424890
 21
173.299484
 31
0.0
  0
LINE
  5
111
100
AcDbEntity
  8
Capa_1
 62
1
100
AcDbLine
 10
51.316299
 20
166.564631
 30
0.0
 11
51.316299
 21
151.170693
 31
0.0
  0
LINE
  5
112
100
AcDbEntity
  8
Capa_1
 62
1
100
AcDbLine
 10
51.316299
 20
151.170693
 30
0.0
 11
40.091551
 21
151.170693
 31
0.0
  0
LINE
  5
113
100
AcDbEntity
  8
Capa_1
 62
1
100
AcDbLine
 10
40.091551
 20
151.170693
 30
0.0
 11
40.091551
 21
166.564631
 31
0.0
  0
LINE
  5
114
100
AcDbEntity
  8
Capa_1
 62
1
100
AcDbLine
 10
40.091551
 20
166.564631
 30
0.0
 11
51.316299
 21
166.564631
 31
0.0
  0
SPLINE
  5
115
100
AcDbEntity
  8
Capa_1
 62
7
100
AcDbSpline
 70
0
 71
3
 72
19
 73
15
 74
13
 40
0.000000
 40
0.000000
 40
0.000000
 40
0.000000
 40
0.710507
 40
1.399941
 40
2.110449
 40
2.820956
 40
3.510390
 40
4.220897
 40
4.931405
 40
5.620839
 40
6.331346
 40
7.041853
 40
7.731287
 40
8.441795
 40
8.441795
 40
8.441795
 40
8.441795
 10
85.977422
 20
68.725138
 30
0.0
 10
85.737872
 20
68.762487
 30
0.0
 10
85.265878
 20
68.836077
 30
0.0
 10
84.746250
 20
69.377073
 30
0.0
 10
84.553713
 20
70.082779
 30
0.0
 10
84.746250
 20
70.795895
 30
0.0
 10
85.265878
 20
71.315103
 30
0.0
 10
85.977422
 20
71.507783
 30
0.0
 10
86.688966
 20
71.315103
 30
0.0
 10
87.208593
 20
70.795895
 30
0.0
 10
87.401130
 20
70.082779
 30
0.0
 10
87.208593
 20
69.377073
 30
0.0
 10
86.688966
 20
68.836077
 30
0.0
 10
86.216971
 20
68.762487
 30
0.0
 10
85.977422
 20
68.725138
 30
0.0
 11
85.977422
 21
68.725138
 31
0.0
 11
85.291565
 21
68.910666
 31
0.0
 11
84.804061
 21
69.398169
 31
0.0
 11
84.618533
 21
70.084027
 31
0.0
 11
84.804061
 21
70.769884
 31
0.0
 11
85.291565
 21
71.257387
 31
0.0
 11
85.977422
 21
71.442915
 31
0.0
 11
86.663279
 21
71.257387
 31
0.0
 11
87.150782
 21
70.769884
 31
0.0
 11
87.336310
 21
70.084027
 31
0.0
 11
87.150782
 21
69.398169
 31
0.0
 11
86.663279
 21
68.910666
 31
0.0
 11
85.977422
 21
68.725138
 31
0.0
  0
LINE
  5
116
100
AcDbEntity
  8
Capa_1
 62
1
100
AcDbLine
 10
192.370726
 20
150.257408
 30
0.0
 11
192.370726
 21
150.257408
 31
0.0
  0
SPLINE
  5
117
100
AcDbEntity
  8
Capa_1
 62
1
100
AcDbSpline
 70
0
 71
3
 72
55
 73
51
 74
49
 40
0.000000
 40
0.000000
 40
0.000000
 40
0.000000
 40
2.728546
 40
5.409961
 40
8.053927
 40
12.128598
 40
16.157334
 40
20.159620
 40
23.132542
 40
26.104897
 40
29.082187
 40
34.883683
 40
40.783246
 40
46.863720
 40
52.182408
 40
57.353980
 40
62.437394
 40
65.516716
 40
68.586343
 40
71.652626
 40
75.149873
 40
78.659952
 40
82.193888
 40
85.969107
 40
89.807199
 40
93.734623
 40
97.841736
 40
101.852479
 40
105.796700
 40
109.288652
 40
112.758869
 40
116.217751
 40
120.404045
 40
124.602365
 40
128.830509
 40
132.682952
 40
136.599946
 40
140.609467
 40
145.371953
 40
150.011228
 40
154.571529
 40
158.793761
 40
162.995752
 40
167.193890
 40
171.351613
 40
175.538035
 40
179.775177
 40
182.305956
 40
184.871671
 40
187.480860
 40
187.480860
 40
187.480860
 40
187.480860
 10
192.370726
 20
150.257408
 30
0.0
 10
192.347231
 20
149.347580
 30
0.0
 10
192.300648
 20
147.543640
 30
0.0
 10
191.925428
 20
144.879729
 30
0.0
 10
191.230879
 20
141.821396
 30
0.0
 10
190.037169
 20
138.430268
 30
0.0
 10
188.187558
 20
134.830649
 30
0.0
 10
186.081458
 20
131.813438
 30
0.0
 10
183.877670
 20
129.329218
 30
0.0
 10
181.689964
 20
127.306724
 30
0.0
 10
178.560688
 20
124.941897
 30
0.0
 10
174.238078
 20
122.578487
 30
0.0
 10
168.543298
 20
120.800583
 30
0.0
 10
162.765442
 20
120.220223
 30
0.0
 10
157.235011
 20
120.705788
 30
0.0
 10
152.198597
 20
122.068947
 30
0.0
 10
148.152070
 20
123.963275
 30
0.0
 10
145.004662
 20
126.001914
 30
0.0
 10
142.606752
 20
127.930608
 30
0.0
 10
140.319141
 20
130.191660
 30
0.0
 10
138.197685
 20
132.804528
 30
0.0
 10
136.312251
 20
135.779148
 30
0.0
 10
134.750670
 20
139.039307
 30
0.0
 10
133.566694
 20
142.572110
 30
0.0
 10
132.820247
 20
146.356898
 30
0.0
 10
132.564452
 20
150.317266
 30
0.0
 10
132.835906
 20
154.335732
 30
0.0
 10
133.651767
 20
158.285278
 30
0.0
 10
134.921481
 20
161.895681
 30
0.0
 10
136.550693
 20
165.154778
 30
0.0
 10
138.459694
 20
168.066370
 30
0.0
 10
140.840230
 20
170.915846
 30
0.0
 10
143.745115
 20
173.608728
 30
0.0
 10
147.207768
 20
176.017168
 30
0.0
 10
150.876107
 20
177.864171
 30
0.0
 10
154.669821
 20
179.164113
 30
0.0
 10
158.530195
 20
179.941921
 30
0.0
 10
162.762639
 20
180.221150
 30
0.0
 10
167.238578
 20
179.870216
 30
0.0
 10
171.781480
 20
178.775265
 30
0.0
 10
175.932491
 20
177.058902
 30
0.0
 10
179.657445
 20
174.826942
 30
0.0
 10
182.938248
 20
172.170713
 30
0.0
 10
185.801883
 20
169.098898
 30
0.0
 10
188.208320
 20
165.663556
 30
0.0
 10
190.117797
 20
161.914680
 30
0.0
 10
191.303546
 20
158.446381
 30
0.0
 10
191.963383
 20
155.403366
 30
0.0
 10
192.306639
 20
152.852916
 30
0.0
 10
192.349244
 20
151.127409
 30
0.0
 10
192.370726
 20
150.257408
 30
0.0
 11
192.370726
 21
150.257408
 31
0.0
 11
192.247979
 21
147.531624
 31
0.0
 11
191.886826
 21
144.874642
 31
0.0
 11
191.297904
 21
142.297099
 31
0.0
 11
189.946590
 21
138.453027
 31
0.0
 11
188.105493
 21
134.869582
 31
0.0
 11
185.815215
 21
131.587369
 31
0.0
 11
183.842390
 21
129.363358
 31
0.0
 11
181.659830
 21
127.345604
 31
0.0
 11
179.284293
 21
125.550867
 31
0.0
 11
174.192818
 21
122.769819
 31
0.0
 11
168.561317
 21
121.011686
 31
0.0
 11
162.511838
 21
120.398520
 31
0.0
 11
157.213832
 21
120.867116
 31
0.0
 11
152.222053
 21
122.218890
 31
0.0
 11
147.617524
 21
124.372818
 31
0.0
 11
145.032783
 21
126.046539
 31
0.0
 11
142.640801
 21
127.970346
 31
0.0
 11
140.459984
 21
130.125834
 31
0.0
 11
138.255775
 21
132.841014
 31
0.0
 11
136.376912
 21
135.805896
 31
0.0
 11
134.850631
 21
138.993242
 31
0.0
 11
133.651123
 21
142.572830
 31
0.0
 11
132.907849
 21
146.338265
 31
0.0
 11
132.652950
 21
150.257408
 31
0.0
 11
132.931798
 21
154.355044
 31
0.0
 11
133.743791
 21
158.282731
 31
0.0
 11
135.052107
 21
162.003644
 31
0.0
 11
136.613148
 21
165.127244
 31
0.0
 11
138.515609
 21
168.029492
 31
0.0
 11
140.733122
 21
170.684017
 31
0.0
 11
143.803329
 21
173.529871
 31
0.0
 11
147.250233
 21
175.926692
 31
0.0
 11
151.026966
 21
177.827609
 31
0.0
 11
154.671431
 21
179.076285
 31
0.0
 11
158.511131
 21
179.850589
 31
0.0
 11
162.511838
 21
180.116296
 31
0.0
 11
167.259508
 21
179.740927
 31
0.0
 11
171.769507
 21
178.653369
 31
0.0
 11
175.984012
 21
176.911445
 31
0.0
 11
179.606207
 21
174.741895
 31
0.0
 11
182.872229
 21
172.098068
 31
0.0
 11
185.734810
 21
169.027237
 31
0.0
 11
188.119749
 21
165.621548
 31
0.0
 11
190.019538
 21
161.891007
 31
0.0
 11
191.388641
 21
157.881153
 31
0.0
 11
191.928052
 21
155.408527
 31
0.0
 11
192.258509
 21
152.864183
 31
0.0
 11
192.370726
 21
150.257408
 31
0.0
  0
LINE
  5
118
100
AcDbEntity
  8
Capa_1
 62
7
100
AcDbLine
 10
163.870727
 20
150.257408
 30
0.0
 11
163.870727
 21
150.257408
 31
0.0
  0
SPLINE
  5
119
100
AcDbEntity
  8
Capa_1
 62
7
100
AcDbSpline
 70
0
 71
3
 72
31
 73
27
 74
25
 40
0.000000
 40
0.000000
 40
0.000000
 40
0.000000
 40
0.355723
 40
0.708502
 40
1.064225
 40
1.419948
 40
1.772727
 40
2.128450
 40
2.484173
 40
2.836952
 40
3.192675
 40
3.548398
 40
3.901177
 40
4.256900
 40
4.612623
 40
4.965402
 40
5.321125
 40
5.676848
 40
6.029627
 40
6.385350
 40
6.741073
 40
7.093852
 40
7.449575
 40
7.805298
 40
8.158078
 40
8.513800
 40
8.513800
 40
8.513800
 40
8.513800
 10
163.870727
 20
150.257408
 30
0.0
 10
163.861668
 20
150.138494
 30
0.0
 10
163.843626
 20
149.901650
 30
0.0
 10
163.701044
 20
149.570197
 30
0.0
 10
163.484120
 20
149.285428
 30
0.0
 10
163.198969
 20
149.067079
 30
0.0
 10
162.867618
 20
148.929787
 30
0.0
 10
162.511832
 20
148.882820
 30
0.0
 10
162.156081
 20
148.929787
 30
0.0
 10
161.824627
 20
149.067079
 30
0.0
 10
161.539858
 20
149.285428
 30
0.0
 10
161.321509
 20
149.570197
 30
0.0
 10
161.184217
 20
149.901650
 30
0.0
 10
161.137250
 20
150.257408
 30
0.0
 10
161.184217
 20
150.613166
 30
0.0
 10
161.321509
 20
150.944619
 30
0.0
 10
161.539858
 20
151.229388
 30
0.0
 10
161.824627
 20
151.447737
 30
0.0
 10
162.156081
 20
151.585029
 30
0.0
 10
162.511832
 20
151.631995
 30
0.0
 10
162.867618
 20
151.585029
 30
0.0
 10
163.198969
 20
151.447737
 30
0.0
 10
163.484120
 20
151.229388
 30
0.0
 10
163.701044
 20
150.944619
 30
0.0
 10
163.843626
 20
150.613166
 30
0.0
 10
163.861668
 20
150.376322
 30
0.0
 10
163.870727
 20
150.257408
 30
0.0
 11
163.870727
 21
150.257408
 31
0.0
 11
163.824170
 21
149.904745
 31
0.0
 11
163.689168
 21
149.578819
 31
0.0
 11
163.472717
 21
149.296528
 31
0.0
 11
163.190427
 21
149.080078
 31
0.0
 11
162.864501
 21
148.945075
 31
0.0
 11
162.511838
 21
148.898519
 31
0.0
 11
162.159175
 21
148.945075
 31
0.0
 11
161.833249
 21
149.080078
 31
0.0
 11
161.550959
 21
149.296528
 31
0.0
 11
161.334508
 21
149.578819
 31
0.0
 11
161.199506
 21
149.904745
 31
0.0
 11
161.152949
 21
150.257408
 31
0.0
 11
161.199506
 21
150.610071
 31
0.0
 11
161.334508
 21
150.935997
 31
0.0
 11
161.550959
 21
151.218287
 31
0.0
 11
161.833249
 21
151.434738
 31
0.0
 11
162.159175
 21
151.569740
 31
0.0
 11
162.511838
 21
151.616297
 31
0.0
 11
162.864501
 21
151.569740
 31
0.0
 11
163.190427
 21
151.434738
 31
0.0
 11
163.472717
 21
151.218287
 31
0.0
 11
163.689168
 21
150.935997
 31
0.0
 11
163.824170
 21
150.610071
 31
0.0
 11
163.870727
 21
150.257408
 31
0.0
  0
LINE
  5
11a
100
AcDbEntity
  8
Capa_1
 62
7
100
AcDbLine
 10
145.474633
 20
88.883952
 30
0.0
 11
145.474633
 21
88.883952
 31
0.0
  0
LINE
  5
11b
100
AcDbEntity
  8
Capa_1
 62
7
100
AcDbLine
 10
116.863452
 20
113.263922
 30
0.0
 11
129.581232
 21
113.263922
 31
0.0
  0
LINE
  5
11c
100
AcDbEntity
  8
Capa_1
 62
7
100
AcDbLine
 10
129.581232
 20
113.263922
 30
0.0
 11
129.581232
 21
93.546142
 31
0.0
  0
LINE
  5
11d
100
AcDbEntity
  8
Capa_1
 62
7
100
AcDbLine
 10
129.581232
 20
93.546142
 30
0.0
 11
116.863452
 21
93.546142
 31
0.0
  0
LINE
  5
11e
100
AcDbEntity
  8
Capa_1
 62
7
100
AcDbLine
 10
116.863452
 20
93.546142
 30
0.0
 11
116.863452
 21
113.263922
 31
0.0
  0
SPLINE
  5
11f
100
AcDbEntity
  8
Capa_1
 62
7
100
AcDbSpline
 70
0
 71
3
 72
28
 73
24
 74
22
 40
0.000000
 40
0.000000
 40
0.000000
 40
0.000000
 40
1.756225
 40
3.460361
 40
5.216585
 40
6.095858
 40
6.967855
 40
7.847127
 40
8.726400
 40
9.598397
 40
10.477669
 40
11.356943
 40
12.228940
 40
13.108213
 40
13.987486
 40
14.859483
 40
15.738756
 40
16.618029
 40
17.490025
 40
18.369298
 40
19.248571
 40
20.120567
 40
20.999840
 40
20.999840
 40
20.999840
 40
20.999840
 10
145.474633
 20
88.883952
 30
0.0
 10
145.382208
 20
88.291876
 30
0.0
 10
145.200100
 20
87.125284
 30
0.0
 10
143.864420
 20
85.840291
 30
0.0
 10
142.408291
 20
85.446274
 30
0.0
 10
141.236499
 20
85.602591
 30
0.0
 10
140.417073
 20
85.941644
 30
0.0
 10
139.713221
 20
86.481438
 30
0.0
 10
139.173498
 20
87.185306
 30
0.0
 10
138.834143
 20
88.004594
 30
0.0
 10
138.718051
 20
88.883952
 30
0.0
 10
138.834142
 20
89.763313
 30
0.0
 10
139.173499
 20
90.582595
 30
0.0
 10
139.713212
 20
91.286486
 30
0.0
 10
140.417102
 20
91.826198
 30
0.0
 10
141.236389
 20
92.165556
 30
0.0
 10
142.115731
 20
92.281647
 30
0.0
 10
142.995158
 20
92.165555
 30
0.0
 10
143.814189
 20
91.826197
 30
0.0
 10
144.519023
 20
91.286485
 30
0.0
 10
145.055213
 20
90.582594
 30
0.0
 10
145.407645
 20
89.763312
 30
0.0
 10
145.452242
 20
89.177883
 30
0.0
 10
145.474633
 20
88.883952
 30
0.0
 11
145.474633
 21
88.883952
 31
0.0
 11
145.016046
 21
87.188658
 31
0.0
 11
143.811040
 21
85.983652
 31
0.0
 11
142.115745
 21
85.525065
 31
0.0
 11
141.244036
 21
85.640142
 31
0.0
 11
140.438416
 21
85.973840
 31
0.0
 11
139.740652
 21
86.508859
 31
0.0
 11
139.205631
 21
87.206623
 31
0.0
 11
138.871933
 21
88.012243
 31
0.0
 11
138.756855
 21
88.883952
 31
0.0
 11
138.871932
 21
89.755663
 31
0.0
 11
139.205631
 21
90.561283
 31
0.0
 11
139.740651
 21
91.259047
 31
0.0
 11
140.438415
 21
91.794067
 31
0.0
 11
141.244035
 21
92.127766
 31
0.0
 11
142.115745
 21
92.242843
 31
0.0
 11
142.987455
 21
92.127765
 31
0.0
 11
143.793074
 21
91.794066
 31
0.0
 11
144.490838
 21
91.259046
 31
0.0
 11
145.025858
 21
90.561282
 31
0.0
 11
145.359556
 21
89.755662
 31
0.0
 11
145.474633
 21
88.883952
 31
0.0
  0
LINE
  5
120
100
AcDbEntity
  8
Capa_1
 62
7
100
AcDbLine
 10
133.953520
 20
63.147837
 30
0.0
 11
133.953520
 21
63.147837
 31
0.0
  0
SPLINE
  5
121
100
AcDbEntity
  8
Capa_1
 62
7
100
AcDbSpline
 70
0
 71
3
 72
25
 73
21
 74
19
 40
0.000000
 40
0.000000
 40
0.000000
 40
0.000000
 40
0.748386
 40
1.490578
 40
2.238964
 40
2.987349
 40
3.729542
 40
4.477928
 40
5.972724
 40
7.423184
 40
8.917980
 40
10.412776
 40
11.863237
 40
13.358033
 40
14.106418
 40
14.848611
 40
15.596997
 40
16.345382
 40
17.087575
 40
17.835960
 40
17.835960
 40
17.835960
 40
17.835960
 10
133.953520
 20
63.147837
 30
0.0
 10
133.934462
 20
62.897661
 30
0.0
 10
133.896502
 20
62.399378
 30
0.0
 10
133.596540
 20
61.702049
 30
0.0
 10
133.140136
 20
61.102957
 30
0.0
 10
132.540334
 20
60.643516
 30
0.0
 10
131.842803
 20
60.354934
 30
0.0
 10
130.846852
 20
60.221886
 30
0.0
 10
129.596372
 20
60.557250
 30
0.0
 10
128.504811
 20
61.650962
 30
0.0
 10
128.099180
 20
63.147837
 30
0.0
 10
128.504811
 20
64.644712
 30
0.0
 10
129.596372
 20
65.738424
 30
0.0
 10
130.846852
 20
66.073788
 30
0.0
 10
131.842803
 20
65.940740
 30
0.0
 10
132.540334
 20
65.652158
 30
0.0
 10
133.140136
 20
65.192717
 30
0.0
 10
133.596540
 20
64.593625
 30
0.0
 10
133.896502
 20
63.896296
 30
0.0
 10
133.934462
 20
63.398013
 30
0.0
 10
133.953520
 20
63.147837
 30
0.0
 11
133.953520
 21
63.147837
 31
0.0
 11
133.855573
 21
62.405889
 31
0.0
 11
133.571548
 21
61.720192
 31
0.0
 11
133.116170
 21
61.126297
 31
0.0
 11
132.522274
 21
60.670919
 31
0.0
 11
131.836577
 21
60.386895
 31
0.0
 11
131.094629
 21
60.288948
 31
0.0
 11
129.651693
 21
60.679271
 31
0.0
 11
128.626062
 21
61.704901
 31
0.0
 11
128.235740
 21
63.147837
 31
0.0
 11
128.626062
 21
64.590773
 31
0.0
 11
129.651693
 21
65.616403
 31
0.0
 11
131.094629
 21
66.006725
 31
0.0
 11
131.836577
 21
65.908779
 31
0.0
 11
132.522274
 21
65.624755
 31
0.0
 11
133.116170
 21
65.169377
 31
0.0
 11
133.571548
 21
64.575482
 31
0.0
 11
133.855573
 21
63.889785
 31
0.0
 11
133.953520
 21
63.147837
 31
0.0
  0
LINE
  5
122
100
AcDbEntity
  8
Capa_1
 62
7
100
AcDbLine
 10
114.256159
 20
61.833322
 30
0.0
 11
114.256159
 21
61.833322
 31
0.0
  0
SPLINE
  5
123
100
AcDbEntity
  8
Capa_1
 62
7
100
AcDbSpline
 70
0
 71
3
 72
28
 73
24
 74
22
 40
0.000000
 40
0.000000
 40
0.000000
 40
0.000000
 40
0.748386
 40
1.490578
 40
2.238964
 40
2.987349
 40
3.729542
 40
4.477928
 40
5.226314
 40
5.968507
 40
6.716893
 40
7.465279
 40
8.207472
 40
8.955858
 40
9.704243
 40
10.446436
 40
11.194822
 40
11.943207
 40
12.685400
 40
13.433785
 40
14.928581
 40
16.379042
 40
17.873838
 40
17.873838
 40
17.873838
 40
17.873838
 10
114.256159
 20
61.833322
 30
0.0
 10
114.237101
 20
61.583145
 30
0.0
 10
114.199143
 20
61.084862
 30
0.0
 10
113.899174
 20
60.387537
 30
0.0
 10
113.442800
 20
59.788427
 30
0.0
 10
112.842886
 20
59.329055
 30
0.0
 10
112.145775
 20
59.040213
 30
0.0
 10
111.397258
 20
58.941403
 30
0.0
 10
110.648813
 20
59.040212
 30
0.0
 10
109.951484
 20
59.329054
 30
0.0
 10
109.352374
 20
59.788426
 30
0.0
 10
108.893002
 20
60.387536
 30
0.0
 10
108.604161
 20
61.084862
 30
0.0
 10
108.505351
 20
61.833322
 30
0.0
 10
108.604162
 20
62.581781
 30
0.0
 10
108.893001
 20
63.279110
 30
0.0
 10
109.352382
 20
63.878202
 30
0.0
 10
109.951459
 20
64.337643
 30
0.0
 10
110.648907
 20
64.626225
 30
0.0
 10
111.646269
 20
64.759273
 30
0.0
 10
112.885640
 20
64.423909
 30
0.0
 10
114.022493
 20
63.330197
 30
0.0
 10
114.177492
 20
62.337263
 30
0.0
 10
114.256159
 20
61.833322
 30
0.0
 11
114.256159
 21
61.833322
 31
0.0
 11
114.158212
 21
61.091374
 31
0.0
 11
113.874188
 21
60.405677
 31
0.0
 11
113.418811
 21
59.811781
 31
0.0
 11
112.824915
 21
59.356403
 31
0.0
 11
112.139219
 21
59.072378
 31
0.0
 11
111.397270
 21
58.974431
 31
0.0
 11
110.655321
 21
59.072377
 31
0.0
 11
109.969624
 21
59.356402
 31
0.0
 11
109.375728
 21
59.811780
 31
0.0
 11
108.920350
 21
60.405676
 31
0.0
 11
108.636326
 21
61.091373
 31
0.0
 11
108.538379
 21
61.833322
 31
0.0
 11
108.636326
 21
62.575270
 31
0.0
 11
108.920351
 21
63.260967
 31
0.0
 11
109.375729
 21
63.854862
 31
0.0
 11
109.969625
 21
64.310240
 31
0.0
 11
110.655322
 21
64.594264
 31
0.0
 11
111.397270
 21
64.692211
 31
0.0
 11
112.840206
 21
64.301888
 31
0.0
 11
113.865837
 21
63.276258
 31
0.0
 11
114.256159
 21
61.833322
 31
0.0
  0
LINE
  5
124
100
AcDbEntity
  8
Capa_1
 62
7
100
AcDbLine
 10
153.650873
 20
61.833322
 30
0.0
 11
153.650873
 21
61.833322
 31
0.0
  0
SPLINE
  5
125
100
AcDbEntity
  8
Capa_1
 62
7
100
AcDbSpline
 70
0
 71
3
 72
25
 73
21
 74
19
 40
0.000000
 40
0.000000
 40
0.000000
 40
0.000000
 40
0.748386
 40
1.490578
 40
2.238964
 40
2.987349
 40
3.729542
 40
4.477928
 40
5.226313
 40
5.968506
 40
6.716891
 40
7.465277
 40
8.207469
 40
8.955855
 40
10.450651
 40
11.901112
 40
13.395908
 40
14.890704
 40
16.341164
 40
17.835960
 40
17.835960
 40
17.835960
 40
17.835960
 10
153.650873
 20
61.833322
 30
0.0
 10
153.631815
 20
61.583145
 30
0.0
 10
153.593857
 20
61.084862
 30
0.0
 10
153.293888
 20
60.387537
 30
0.0
 10
152.837514
 20
59.788427
 30
0.0
 10
152.237600
 20
59.329055
 30
0.0
 10
151.540490
 20
59.040213
 30
0.0
 10
150.791972
 20
58.941402
 30
0.0
 10
150.043529
 20
59.040215
 30
0.0
 10
149.346195
 20
59.329049
 30
0.0
 10
148.747105
 20
59.788451
 30
0.0
 10
148.287662
 20
60.387448
 30
0.0
 10
147.999086
 20
61.085192
 30
0.0
 10
147.866010
 20
62.081074
 30
0.0
 10
148.201585
 20
63.331580
 30
0.0
 10
149.294437
 20
64.423162
 30
0.0
 10
150.794578
 20
64.828677
 30
0.0
 10
152.279312
 20
64.423488
 30
0.0
 10
153.417473
 20
63.330305
 30
0.0
 10
153.572296
 20
62.337299
 30
0.0
 10
153.650873
 20
61.833322
 30
0.0
 11
153.650873
 21
61.833322
 31
0.0
 11
153.552927
 21
61.091374
 31
0.0
 11
153.268902
 21
60.405677
 31
0.0
 11
152.813525
 21
59.811781
 31
0.0
 11
152.219629
 21
59.356403
 31
0.0
 11
151.533933
 21
59.072378
 31
0.0
 11
150.791984
 21
58.974431
 31
0.0
 11
150.050036
 21
59.072378
 31
0.0
 11
149.364340
 21
59.356403
 31
0.0
 11
148.770444
 21
59.811781
 31
0.0
 11
148.315067
 21
60.405677
 31
0.0
 11
148.031042
 21
61.091374
 31
0.0
 11
147.933096
 21
61.833322
 31
0.0
 11
148.323418
 21
63.276258
 31
0.0
 11
149.349049
 21
64.301888
 31
0.0
 11
150.791984
 21
64.692211
 31
0.0
 11
152.234920
 21
64.301888
 31
0.0
 11
153.260551
 21
63.276258
 31
0.0
 11
153.650873
 21
61.833322
 31
0.0
  0
LINE
  5
126
100
AcDbEntity
  8
Capa_1
 62
7
100
AcDbLine
 10
197.495005
 20
67.320337
 30
0.0
 11
197.495005
 21
67.320337
 31
0.0
  0
SPLINE
  5
127
100
AcDbEntity
  8
Capa_1
 62
7
100
AcDbSpline
 70
0
 71
3
 72
28
 73
24
 74
22
 40
0.000000
 40
0.000000
 40
0.000000
 40
0.000000
 40
0.477376
 40
0.950801
 40
1.428177
 40
1.905552
 40
2.378977
 40
2.856353
 40
3.333729
 40
3.807155
 40
4.284531
 40
4.761907
 40
5.235333
 40
5.712709
 40
6.190085
 40
6.663510
 40
7.140885
 40
7.618261
 40
8.091686
 40
8.569062
 40
9.522553
 40
10.447764
 40
11.401255
 40
11.401255
 40
11.401255
 40
11.401255
 10
197.495005
 20
67.320337
 30
0.0
 10
197.482849
 20
67.160756
 30
0.0
 10
197.458636
 20
66.842914
 30
0.0
 10
197.267294
 20
66.398109
 30
0.0
 10
196.976185
 20
66.015952
 30
0.0
 10
196.593516
 20
65.722930
 30
0.0
 10
196.148847
 20
65.538686
 30
0.0
 10
195.671387
 20
65.475657
 30
0.0
 10
195.193974
 20
65.538685
 30
0.0
 10
194.749165
 20
65.722929
 30
0.0
 10
194.367009
 20
66.015951
 30
0.0
 10
194.073987
 20
66.398108
 30
0.0
 10
193.889743
 20
66.842914
 30
0.0
 10
193.826715
 20
67.320337
 30
0.0
 10
193.889744
 20
67.797759
 30
0.0
 10
194.073987
 20
68.242568
 30
0.0
 10
194.367014
 20
68.624712
 30
0.0
 10
194.749150
 20
68.917778
 30
0.0
 10
195.194034
 20
69.101856
 30
0.0
 10
195.830225
 20
69.186724
 30
0.0
 10
196.620787
 20
68.972804
 30
0.0
 10
197.345955
 20
68.275155
 30
0.0
 10
197.444826
 20
67.641788
 30
0.0
 10
197.495005
 20
67.320337
 30
0.0
 11
197.495005
 21
67.320337
 31
0.0
 11
197.432528
 21
66.847068
 31
0.0
 11
197.251356
 21
66.409680
 31
0.0
 11
196.960883
 21
66.030849
 31
0.0
 11
196.582052
 21
65.740375
 31
0.0
 11
196.144665
 21
65.559203
 31
0.0
 11
195.671395
 21
65.496724
 31
0.0
 11
195.198125
 21
65.559202
 31
0.0
 11
194.760737
 21
65.740374
 31
0.0
 11
194.381906
 21
66.030848
 31
0.0
 11
194.091432
 21
66.409679
 31
0.0
 11
193.910260
 21
66.847067
 31
0.0
 11
193.847782
 21
67.320337
 31
0.0
 11
193.910261
 21
67.793607
 31
0.0
 11
194.091433
 21
68.230994
 31
0.0
 11
194.381907
 21
68.609825
 31
0.0
 11
194.760738
 21
68.900298
 31
0.0
 11
195.198126
 21
69.081470
 31
0.0
 11
195.671395
 21
69.143947
 31
0.0
 11
196.591806
 21
68.894971
 31
0.0
 11
197.246029
 21
68.240748
 31
0.0
 11
197.495005
 21
67.320337
 31
0.0
  0
LINE
  5
128
100
AcDbEntity
  8
Capa_1
 62
7
100
AcDbLine
 10
16.152213
 20
145.682030
 30
0.0
 11
16.152213
 21
145.682030
 31
0.0
  0
SPLINE
  5
129
100
AcDbEntity
  8
Capa_1
 62
7
100
AcDbSpline
 70
0
 71
3
 72
25
 73
21
 74
19
 40
0.000000
 40
0.000000
 40
0.000000
 40
0.000000
 40
0.953491
 40
1.878702
 40
2.832193
 40
3.785684
 40
4.710894
 40
5.664385
 40
6.141761
 40
6.615186
 40
7.092562
 40
7.569937
 40
8.043363
 40
8.520738
 40
8.998114
 40
9.471539
 40
9.948915
 40
10.426290
 40
10.899716
 40
11.377091
 40
11.377091
 40
11.377091
 40
11.377091
 10
16.152213
 20
145.682030
 30
0.0
 10
16.102091
 20
145.360556
 30
0.0
 10
16.003333
 20
144.727144
 30
0.0
 10
15.277330
 20
144.029831
 30
0.0
 10
14.330258
 20
143.771371
 30
0.0
 10
13.373357
 20
144.030039
 30
0.0
 10
12.676256
 20
144.726330
 30
0.0
 10
12.462201
 20
145.523995
 30
0.0
 10
12.547087
 20
146.159242
 30
0.0
 10
12.731162
 20
146.604315
 30
0.0
 10
13.024228
 20
146.986400
 30
0.0
 10
13.406372
 20
147.279441
 30
0.0
 10
13.851183
 20
147.463680
 30
0.0
 10
14.328595
 20
147.526710
 30
0.0
 10
14.806055
 20
147.463681
 30
0.0
 10
15.250724
 20
147.279437
 30
0.0
 10
15.633393
 20
146.986415
 30
0.0
 10
15.924502
 20
146.604258
 30
0.0
 10
16.115844
 20
146.159452
 30
0.0
 10
16.140057
 20
145.841611
 30
0.0
 10
16.152213
 20
145.682030
 30
0.0
 11
16.152213
 21
145.682030
 31
0.0
 11
15.903237
 21
144.761619
 31
0.0
 11
15.249014
 21
144.107396
 31
0.0
 11
14.328603
 21
143.858420
 31
0.0
 11
13.408193
 21
144.107396
 31
0.0
 11
12.753970
 21
144.761619
 31
0.0
 11
12.504993
 21
145.682030
 31
0.0
 11
12.567471
 21
146.155299
 31
0.0
 11
12.748642
 21
146.592687
 31
0.0
 11
13.039116
 21
146.971518
 31
0.0
 11
13.417946
 21
147.261992
 31
0.0
 11
13.855334
 21
147.443164
 31
0.0
 11
14.328603
 21
147.505642
 31
0.0
 11
14.801873
 21
147.443164
 31
0.0
 11
15.239260
 21
147.261992
 31
0.0
 11
15.618091
 21
146.971518
 31
0.0
 11
15.908564
 21
146.592687
 31
0.0
 11
16.089736
 21
146.155299
 31
0.0
 11
16.152213
 21
145.682030
 31
0.0
  0
LINE
  5
12a
100
AcDbEntity
  8
Capa_1
 62
7
100
AcDbLine
 10
16.152213
 20
64.317970
 30
0.0
 11
16.152213
 21
64.317970
 31
0.0
  0
SPLINE
  5
12b
100
AcDbEntity
  8
Capa_1
 62
7
100
AcDbSpline
 70
0
 71
3
 72
25
 73
21
 74
19
 40
0.000000
 40
0.000000
 40
0.000000
 40
0.000000
 40
0.953491
 40
1.878702
 40
2.832193
 40
3.785684
 40
4.710894
 40
5.664385
 40
6.141761
 40
6.615186
 40
7.092562
 40
7.569937
 40
8.043363
 40
8.520738
 40
8.998114
 40
9.471539
 40
9.948915
 40
10.426290
 40
10.899716
 40
11.377091
 40
11.377091
 40
11.377091
 40
11.377091
 10
16.152213
 20
64.317970
 30
0.0
 10
16.102091
 20
63.996496
 30
0.0
 10
16.003333
 20
63.363084
 30
0.0
 10
15.277330
 20
62.665771
 30
0.0
 10
14.330258
 20
62.407311
 30
0.0
 10
13.373357
 20
62.665979
 30
0.0
 10
12.676256
 20
63.362270
 30
0.0
 10
12.462201
 20
64.159935
 30
0.0
 10
12.547087
 20
64.795183
 30
0.0
 10
12.731162
 20
65.240255
 30
0.0
 10
13.024228
 20
65.622340
 30
0.0
 10
13.406372
 20
65.915381
 30
0.0
 10
13.851183
 20
66.099620
 30
0.0
 10
14.328595
 20
66.162651
 30
0.0
 10
14.806055
 20
66.099621
 30
0.0
 10
15.250724
 20
65.915377
 30
0.0
 10
15.633393
 20
65.622355
 30
0.0
 10
15.924502
 20
65.240198
 30
0.0
 10
16.115844
 20
64.795393
 30
0.0
 10
16.140057
 20
64.477551
 30
0.0
 10
16.152213
 20
64.317970
 30
0.0
 11
16.152213
 21
64.317970
 31
0.0
 11
15.903237
 21
63.397559
 31
0.0
 11
15.249014
 21
62.743336
 31
0.0
 11
14.328603
 21
62.494360
 31
0.0
 11
13.408193
 21
62.743336
 31
0.0
 11
12.753970
 21
63.397559
 31
0.0
 11
12.504993
 21
64.317970
 31
0.0
 11
12.567471
 21
64.791239
 31
0.0
 11
12.748642
 21
65.228627
 31
0.0
 11
13.039116
 21
65.607458
 31
0.0
 11
13.417946
 21
65.897932
 31
0.0
 11
13.855334
 21
66.079104
 31
0.0
 11
14.328603
 21
66.141582
 31
0.0
 11
14.801873
 21
66.079104
 31
0.0
 11
15.239260
 21
65.897932
 31
0.0
 11
15.618091
 21
65.607458
 31
0.0
 11
15.908564
 21
65.228627
 31
0.0
 11
16.089736
 21
64.791239
 31
0.0
 11
16.152213
 21
64.317970
 31
0.0
  0
LINE
  5
12c
100
AcDbEntity
  8
Capa_1
 62
7
100
AcDbLine
 10
197.495005
 20
145.682030
 30
0.0
 11
197.495005
 21
145.682030
 31
0.0
  0
LINE
  5
12d
100
AcDbEntity
  8
Capa_1
 62
5
100
AcDbLine
 10
86.906436
 20
195.391849
 30
0.0
 11
85.572860
 21
191.812021
 31
0.0
  0
LINE
  5
12e
100
AcDbEntity
  8
Capa_1
 62
5
100
AcDbLine
 10
85.572860
 20
191.812021
 30
0.0
 11
88.244881
 21
191.812021
 31
0.0
  0
LINE
  5
12f
100
AcDbEntity
  8
Capa_1
 62
5
100
AcDbLine
 10
88.244881
 20
191.812021
 30
0.0
 11
86.906436
 21
195.391849
 31
0.0
  0
LINE
  5
130
100
AcDbEntity
  8
Capa_1
 62
5
100
AcDbLine
 10
86.906436
 20
195.391849
 30
0.0
 11
86.906436
 21
195.391849
 31
0.0
  0
LINE
  5
131
100
AcDbEntity
  8
Capa_1
 62
5
100
AcDbLine
 10
86.351591
 20
196.350645
 30
0.0
 11
87.466150
 21
196.350645
 31
0.0
  0
LINE
  5
132
100
AcDbEntity
  8
Capa_1
 62
5
100
AcDbLine
 10
87.466150
 20
196.350645
 30
0.0
 11
90.235513
 21
189.157263
 31
0.0
  0
LINE
  5
133
100
AcDbEntity
  8
Capa_1
 62
5
100
AcDbLine
 10
90.235513
 20
189.157263
 30
0.0
 11
89.213427
 21
189.157263
 31
0.0
  0
LINE
  5
134
100
AcDbEntity
  8
Capa_1
 62
5
100
AcDbLine
 10
89.213427
 20
189.157263
 30
0.0
 11
88.551506
 21
191.002585
 31
0.0
  0
LINE
  5
135
100
AcDbEntity
  8
Capa_1
 62
5
100
AcDbLine
 10
88.551506
 20
191.002585
 30
0.0
 11
85.275968
 21
191.002585
 31
0.0
  0
LINE
  5
136
100
AcDbEntity
  8
Capa_1
 62
5
100
AcDbLine
 10
85.275968
 20
191.002585
 30
0.0
 11
84.614047
 21
189.157263
 31
0.0
  0
LINE
  5
137
100
AcDbEntity
  8
Capa_1
 62
5
100
AcDbLine
 10
84.614047
 20
189.157263
 30
0.0
 11
83.577360
 21
189.157263
 31
0.0
  0
LINE
  5
138
100
AcDbEntity
  8
Capa_1
 62
5
100
AcDbLine
 10
83.577360
 20
189.157263
 30
0.0
 11
86.351591
 21
196.350645
 31
0.0
  0
LINE
  5
139
100
AcDbEntity
  8
Capa_1
 62
5
100
AcDbLine
 10
86.351591
 20
196.350645
 30
0.0
 11
86.351591
 21
196.350645
 31
0.0
  0
LINE
  5
13a
100
AcDbEntity
  8
Capa_1
 62
5
100
AcDbLine
 10
91.291667
 20
196.350645
 30
0.0
 11
92.274815
 21
196.350645
 31
0.0
  0
LINE
  5
13b
100
AcDbEntity
  8
Capa_1
 62
5
100
AcDbLine
 10
92.274815
 20
196.350645
 30
0.0
 11
92.274815
 21
189.976335
 31
0.0
  0
LINE
  5
13c
100
AcDbEntity
  8
Capa_1
 62
5
100
AcDbLine
 10
92.274815
 20
189.976335
 30
0.0
 11
95.813175
 21
189.976335
 31
0.0
  0
LINE
  5
13d
100
AcDbEntity
  8
Capa_1
 62
5
100
AcDbLine
 10
95.813175
 20
189.976335
 30
0.0
 11
95.813175
 21
189.157263
 31
0.0
  0
LINE
  5
13e
100
AcDbEntity
  8
Capa_1
 62
5
100
AcDbLine
 10
95.813175
 20
189.157263
 30
0.0
 11
91.291667
 21
189.157263
 31
0.0
  0
LINE
  5
13f
100
AcDbEntity
  8
Capa_1
 62
5
100
AcDbLine
 10
91.291667
 20
189.157263
 30
0.0
 11
91.291667
 21
196.350645
 31
0.0
  0
LINE
  5
140
100
AcDbEntity
  8
Capa_1
 62
5
100
AcDbLine
 10
91.291667
 20
196.350645
 30
0.0
 11
91.291667
 21
196.350645
 31
0.0
  0
LINE
  5
141
100
AcDbEntity
  8
Capa_1
 62
5
100
AcDbLine
 10
96.840127
 20
196.350645
 30
0.0
 11
97.823276
 21
196.350645
 31
0.0
  0
LINE
  5
142
100
AcDbEntity
  8
Capa_1
 62
5
100
AcDbLine
 10
97.823276
 20
196.350645
 30
0.0
 11
97.823276
 21
189.157263
 31
0.0
  0
LINE
  5
143
100
AcDbEntity
  8
Capa_1
 62
5
100
AcDbLine
 10
97.823276
 20
189.157263
 30
0.0
 11
96.840127
 21
189.157263
 31
0.0
  0
LINE
  5
144
100
AcDbEntity
  8
Capa_1
 62
5
100
AcDbLine
 10
96.840127
 20
189.157263
 30
0.0
 11
96.840127
 21
196.350645
 31
0.0
  0
LINE
  5
145
100
AcDbEntity
  8
Capa_1
 62
5
100
AcDbLine
 10
96.840127
 20
196.350645
 30
0.0
 11
96.840127
 21
196.350645
 31
0.0
  0
LINE
  5
146
100
AcDbEntity
  8
Capa_1
 62
5
100
AcDbLine
 10
99.779837
 20
196.350645
 30
0.0
 11
104.374353
 21
196.350645
 31
0.0
  0
LINE
  5
147
100
AcDbEntity
  8
Capa_1
 62
5
100
AcDbLine
 10
104.374353
 20
196.350645
 30
0.0
 11
104.374353
 21
195.531573
 31
0.0
  0
LINE
  5
148
100
AcDbEntity
  8
Capa_1
 62
5
100
AcDbLine
 10
104.374353
 20
195.531573
 30
0.0
 11
100.762986
 21
195.531573
 31
0.0
  0
LINE
  5
149
100
AcDbEntity
  8
Capa_1
 62
5
100
AcDbLine
 10
100.762986
 20
195.531573
 30
0.0
 11
100.762986
 21
193.401985
 31
0.0
  0
LINE
  5
14a
100
AcDbEntity
  8
Capa_1
 62
5
100
AcDbLine
 10
100.762986
 20
193.401985
 30
0.0
 11
104.223473
 21
193.401985
 31
0.0
  0
LINE
  5
14b
100
AcDbEntity
  8
Capa_1
 62
5
100
AcDbLine
 10
104.223473
 20
193.401985
 30
0.0
 11
104.223473
 21
192.582913
 31
0.0
  0
LINE
  5
14c
100
AcDbEntity
  8
Capa_1
 62
5
100
AcDbLine
 10
104.223473
 20
192.582913
 30
0.0
 11
100.762986
 21
192.582913
 31
0.0
  0
LINE
  5
14d
100
AcDbEntity
  8
Capa_1
 62
5
100
AcDbLine
 10
100.762986
 20
192.582913
 30
0.0
 11
100.762986
 21
189.976335
 31
0.0
  0
LINE
  5
14e
100
AcDbEntity
  8
Capa_1
 62
5
100
AcDbLine
 10
100.762986
 20
189.976335
 30
0.0
 11
104.461960
 21
189.976335
 31
0.0
  0
LINE
  5
14f
100
AcDbEntity
  8
Capa_1
 62
5
100
AcDbLine
 10
104.461960
 20
189.976335
 30
0.0
 11
104.461960
 21
189.157263
 31
0.0
  0
LINE
  5
150
100
AcDbEntity
  8
Capa_1
 62
5
100
AcDbLine
 10
104.461960
 20
189.157263
 30
0.0
 11
99.779837
 21
189.157263
 31
0.0
  0
LINE
  5
151
100
AcDbEntity
  8
Capa_1
 62
5
100
AcDbLine
 10
99.779837
 20
189.157263
 30
0.0
 11
99.779837
 21
196.350645
 31
0.0
  0
LINE
  5
152
100
AcDbEntity
  8
Capa_1
 62
5
100
AcDbLine
 10
99.779837
 20
196.350645
 30
0.0
 11
99.779837
 21
196.350645
 31
0.0
  0
LINE
  5
153
100
AcDbEntity
  8
Capa_1
 62
5
100
AcDbLine
 10
106.087562
 20
196.350645
 30
0.0
 11
107.411404
 21
196.350645
 31
0.0
  0
LINE
  5
154
100
AcDbEntity
  8
Capa_1
 62
5
100
AcDbLine
 10
107.411404
 20
196.350645
 30
0.0
 11
110.633405
 21
190.332872
 31
0.0
  0
LINE
  5
155
100
AcDbEntity
  8
Capa_1
 62
5
100
AcDbLine
 10
110.633405
 20
190.332872
 30
0.0
 11
110.633405
 21
196.350645
 31
0.0
  0
LINE
  5
156
100
AcDbEntity
  8
Capa_1
 62
5
100
AcDbLine
 10
110.633405
 20
196.350645
 30
0.0
 11
111.587352
 21
196.350645
 31
0.0
  0
LINE
  5
157
100
AcDbEntity
  8
Capa_1
 62
5
100
AcDbLine
 10
111.587352
 20
196.350645
 30
0.0
 11
111.587352
 21
189.157263
 31
0.0
  0
LINE
  5
158
100
AcDbEntity
  8
Capa_1
 62
5
100
AcDbLine
 10
111.587352
 20
189.157263
 30
0.0
 11
110.263508
 21
189.157263
 31
0.0
  0
LINE
  5
159
100
AcDbEntity
  8
Capa_1
 62
5
100
AcDbLine
 10
110.263508
 20
189.157263
 30
0.0
 11
107.041509
 21
195.175036
 31
0.0
  0
LINE
  5
15a
100
AcDbEntity
  8
Capa_1
 62
5
100
AcDbLine
 10
107.041509
 20
195.175036
 30
0.0
 11
107.041509
 21
189.157263
 31
0.0
  0
LINE
  5
15b
100
AcDbEntity
  8
Capa_1
 62
5
100
AcDbLine
 10
107.041509
 20
189.157263
 30
0.0
 11
106.087562
 21
189.157263
 31
0.0
  0
LINE
  5
15c
100
AcDbEntity
  8
Capa_1
 62
5
100
AcDbLine
 10
106.087562
 20
189.157263
 30
0.0
 11
106.087562
 21
196.350645
 31
0.0
  0
LINE
  5
15d
100
AcDbEntity
  8
Capa_1
 62
5
100
AcDbLine
 10
106.087562
 20
196.350645
 30
0.0
 11
106.087562
 21
196.350645
 31
0.0
  0
SPLINE
  5
15e
100
AcDbEntity
  8
Capa_1
 62
7
100
AcDbSpline
 70
0
 71
3
 72
28
 73
24
 74
22
 40
0.000000
 40
0.000000
 40
0.000000
 40
0.000000
 40
0.953491
 40
1.878702
 40
2.832193
 40
3.309568
 40
3.782993
 40
4.260369
 40
4.737745
 40
5.211170
 40
5.688546
 40
6.165922
 40
6.639347
 40
7.116724
 40
7.594100
 40
8.067525
 40
8.544902
 40
9.022277
 40
9.495702
 40
9.973078
 40
10.450454
 40
10.923879
 40
11.401255
 40
11.401255
 40
11.401255
 40
11.401255
 10
197.495005
 20
145.682030
 30
0.0
 10
197.444826
 20
145.360579
 30
0.0
 10
197.345955
 20
144.727212
 30
0.0
 10
196.620787
 20
144.029562
 30
0.0
 10
195.830225
 20
143.815642
 30
0.0
 10
195.194034
 20
143.900510
 30
0.0
 10
194.749150
 20
144.084589
 30
0.0
 10
194.367014
 20
144.377654
 30
0.0
 10
194.073987
 20
144.759799
 30
0.0
 10
193.889744
 20
145.204607
 30
0.0
 10
193.826715
 20
145.682030
 30
0.0
 10
193.889743
 20
146.159453
 30
0.0
 10
194.073987
 20
146.604259
 30
0.0
 10
194.367009
 20
146.986416
 30
0.0
 10
194.749165
 20
147.279437
 30
0.0
 10
195.193974
 20
147.463682
 30
0.0
 10
195.671387
 20
147.526710
 30
0.0
 10
196.148847
 20
147.463681
 30
0.0
 10
196.593516
 20
147.279436
 30
0.0
 10
196.976185
 20
146.986415
 30
0.0
 10
197.267294
 20
146.604258
 30
0.0
 10
197.458636
 20
146.159452
 30
0.0
 10
197.482849
 20
145.841611
 30
0.0
 10
197.495005
 20
145.682030
 30
0.0
 11
197.495005
 21
145.682030
 31
0.0
 11
197.246029
 21
144.761619
 31
0.0
 11
196.591806
 21
144.107396
 31
0.0
 11
195.671395
 21
143.858420
 31
0.0
 11
195.198126
 21
143.920897
 31
0.0
 11
194.760738
 21
144.102069
 31
0.0
 11
194.381907
 21
144.392542
 31
0.0
 11
194.091433
 21
144.771372
 31
0.0
 11
193.910261
 21
145.208760
 31
0.0
 11
193.847782
 21
145.682030
 31
0.0
 11
193.910260
 21
146.155300
 31
0.0
 11
194.091432
 21
146.592688
 31
0.0
 11
194.381906
 21
146.971519
 31
0.0
 11
194.760737
 21
147.261993
 31
0.0
 11
195.198125
 21
147.443165
 31
0.0
 11
195.671395
 21
147.505642
 31
0.0
 11
196.144665
 21
147.443164
 31
0.0
 11
196.582052
 21
147.261992
 31
0.0
 11
196.960883
 21
146.971518
 31
0.0
 11
197.251356
 21
146.592687
 31
0.0
 11
197.432528
 21
146.155299
 31
0.0
 11
197.495005
 21
145.682030
 31
0.0
  0
SPLINE
  5
15f
100
AcDbEntity
  8
Capa_1
 62
5
100
AcDbSpline
 70
0
 71
3
 72
16
 73
12
 74
10
 40
0.000000
 40
0.000000
 40
0.000000
 40
0.000000
 40
0.471794
 40
0.926245
 40
1.434879
 40
2.046794
 40
2.797907
 40
3.705221
 40
4.610396
 40
5.361509
 40
5.975435
 40
5.975435
 40
5.975435
 40
5.975435
 10
118.907426
 20
195.709842
 30
0.0
 10
118.748551
 20
195.695578
 30
0.0
 10
118.436639
 20
195.667576
 30
0.0
 10
118.025649
 20
195.387439
 30
0.0
 10
117.724863
 20
194.948140
 30
0.0
 10
117.522069
 20
194.352410
 30
0.0
 10
117.405061
 20
193.602693
 30
0.0
 10
117.371684
 20
192.746990
 30
0.0
 10
117.408168
 20
191.893833
 30
0.0
 10
117.513236
 20
191.138194
 30
0.0
 10
117.685975
 20
190.715640
 30
0.0
 10
117.763664
 20
190.525597
 30
0.0
 11
118.907426
 21
195.709842
 31
0.0
 11
118.442892
 21
195.627399
 31
0.0
 11
118.061638
 21
195.380071
 31
0.0
 11
117.763664
 21
194.967858
 31
0.0
 11
117.552758
 21
194.393437
 31
0.0
 11
117.426215
 21
193.653060
 31
0.0
 11
117.384034
 21
192.746727
 31
0.0
 11
117.426215
 21
191.842536
 31
0.0
 11
117.552758
 21
191.102159
 31
0.0
 11
117.763664
 21
190.525597
 31
0.0
  0
SPLINE
  5
160
100
AcDbEntity
  8
Capa_1
 62
5
100
AcDbSpline
 70
0
 71
3
 72
19
 73
15
 74
13
 40
0.000000
 40
0.000000
 40
0.000000
 40
0.000000
 40
0.506467
 40
0.960046
 40
1.431747
 40
1.905578
 40
2.359157
 40
2.864353
 40
3.479214
 40
4.230602
 40
5.135803
 40
6.043142
 40
6.794530
 40
7.407384
 40
7.407384
 40
7.407384
 40
7.407384
 10
117.763664
 20
190.525597
 30
0.0
 10
117.852731
 20
190.380132
 30
0.0
 10
118.021564
 20
190.104394
 30
0.0
 10
118.438252
 20
189.837089
 30
0.0
 10
118.907822
 20
189.763802
 30
0.0
 10
119.379293
 20
189.836281
 30
0.0
 10
119.791080
 20
190.105821
 30
0.0
 10
120.090390
 20
190.548205
 30
0.0
 10
120.295681
 20
191.141828
 30
0.0
 10
120.414280
 20
191.892190
 30
0.0
 10
120.448215
 20
192.747870
 30
0.0
 10
120.411261
 20
193.601118
 30
0.0
 10
120.305072
 20
194.357274
 30
0.0
 10
120.129885
 20
194.778591
 30
0.0
 10
120.051187
 20
194.967858
 30
0.0
 11
117.763664
 21
190.525597
 31
0.0
 11
118.061638
 21
190.116060
 31
0.0
 11
118.442892
 21
189.870337
 31
0.0
 11
118.907426
 21
189.788430
 31
0.0
 11
119.374125
 21
189.870337
 31
0.0
 11
119.755378
 21
190.116060
 31
0.0
 11
120.051187
 21
190.525597
 31
0.0
 11
120.264799
 21
191.102159
 31
0.0
 11
120.392965
 21
191.842536
 31
0.0
 11
120.435688
 21
192.746727
 31
0.0
 11
120.392965
 21
193.653060
 31
0.0
 11
120.264799
 21
194.393437
 31
0.0
 11
120.051187
 21
194.967858
 31
0.0
  0
LINE
  5
161
100
AcDbEntity
  8
Capa_1
 62
5
100
AcDbLine
 10
118.907426
 20
195.709842
 30
0.0
 11
118.907426
 21
195.709842
 31
0.0
  0
SPLINE
  5
162
100
AcDbEntity
  8
Capa_1
 62
5
100
AcDbSpline
 70
0
 71
3
 72
10
 73
6
 74
4
 40
0.000000
 40
0.000000
 40
0.000000
 40
0.000000
 40
0.507368
 40
0.961819
 40
1.435743
 40
1.435743
 40
1.435743
 40
1.435743
 10
120.051187
 20
194.967858
 30
0.0
 10
119.963010
 20
195.113670
 30
0.0
 10
119.795853
 20
195.390087
 30
0.0
 10
119.378542
 20
195.667393
 30
0.0
 10
119.066646
 20
195.695496
 30
0.0
 10
118.907426
 20
195.709842
 30
0.0
 11
120.051187
 21
194.967858
 31
0.0
 11
119.755378
 21
195.380071
 31
0.0
 11
119.374125
 21
195.627399
 31
0.0
 11
118.907426
 21
195.709842
 31
0.0
  0
SPLINE
  5
163
100
AcDbEntity
  8
Capa_1
 62
5
100
AcDbSpline
 70
0
 71
3
 72
10
 73
6
 74
4
 40
0.000000
 40
0.000000
 40
0.000000
 40
0.000000
 40
0.757598
 40
1.456336
 40
2.181899
 40
2.181899
 40
2.181899
 40
2.181899
 10
118.907426
 20
196.480733
 30
0.0
 10
119.160885
 20
196.462593
 30
0.0
 10
119.648111
 20
196.427721
 30
0.0
 10
120.321020
 20
196.086972
 30
0.0
 10
120.619477
 20
195.712632
 30
0.0
 10
120.771515
 20
195.521937
 30
0.0
 11
118.907426
 21
196.480733
 31
0.0
 11
119.657496
 21
196.374201
 31
0.0
 11
120.278859
 21
196.054602
 31
0.0
 11
120.771515
 21
195.521937
 31
0.0
  0
SPLINE
  5
164
100
AcDbEntity
  8
Capa_1
 62
5
100
AcDbSpline
 70
0
 71
3
 72
19
 73
15
 74
13
 40
0.000000
 40
0.000000
 40
0.000000
 40
0.000000
 40
0.815881
 40
1.765782
 40
2.885886
 40
4.003853
 40
4.953754
 40
5.771557
 40
6.495158
 40
7.193163
 40
7.950685
 40
8.708743
 40
9.408193
 40
10.133637
 40
10.133637
 40
10.133637
 40
10.133637
 10
120.771515
 20
195.521937
 30
0.0
 10
120.903479
 20
195.282566
 30
0.0
 10
121.189084
 20
194.764505
 30
0.0
 10
121.378205
 20
193.808837
 30
0.0
 10
121.439826
 20
192.748155
 30
0.0
 10
121.381844
 20
191.683397
 30
0.0
 10
121.177175
 20
190.737804
 30
0.0
 10
120.821514
 20
189.977514
 30
0.0
 10
120.313171
 20
189.411528
 30
0.0
 10
119.649883
 20
189.076555
 30
0.0
 10
118.906653
 20
188.986471
 30
0.0
 10
118.166410
 20
189.077951
 30
0.0
 10
117.492210
 20
189.407097
 30
0.0
 10
117.191546
 20
189.781103
 30
0.0
 10
117.038471
 20
189.971518
 30
0.0
 11
120.771515
 21
195.521937
 31
0.0
 11
121.131138
 21
194.789589
 31
0.0
 11
121.346911
 21
193.864520
 31
0.0
 11
121.418836
 21
192.746727
 31
0.0
 11
121.346911
 21
191.631076
 31
0.0
 11
121.131138
 21
190.706006
 31
0.0
 11
120.771515
 21
189.971518
 31
0.0
 11
120.278859
 21
189.441529
 31
0.0
 11
119.657496
 21
189.123536
 31
0.0
 11
118.907426
 21
189.017539
 31
0.0
 11
118.156816
 21
189.123536
 31
0.0
 11
117.533831
 21
189.441529
 31
0.0
 11
117.038471
 21
189.971518
 31
0.0
  0
LINE
  5
165
100
AcDbEntity
  8
Capa_1
 62
5
100
AcDbLine
 10
118.907426
 20
196.480733
 30
0.0
 11
118.907426
 21
196.480733
 31
0.0
  0
LINE
  5
166
100
AcDbEntity
  8
Capa_1
 62
5
100
AcDbLine
 10
123.321859
 20
189.976335
 30
0.0
 11
124.927992
 21
189.976335
 31
0.0
  0
LINE
  5
167
100
AcDbEntity
  8
Capa_1
 62
5
100
AcDbLine
 10
124.927992
 20
189.976335
 30
0.0
 11
124.927992
 21
195.464120
 31
0.0
  0
LINE
  5
168
100
AcDbEntity
  8
Capa_1
 62
5
100
AcDbLine
 10
124.927992
 20
195.464120
 30
0.0
 11
123.180715
 21
195.117219
 31
0.0
  0
LINE
  5
169
100
AcDbEntity
  8
Capa_1
 62
5
100
AcDbLine
 10
123.180715
 20
195.117219
 30
0.0
 11
123.180715
 21
196.003745
 31
0.0
  0
LINE
  5
16a
100
AcDbEntity
  8
Capa_1
 62
5
100
AcDbLine
 10
123.180715
 20
196.003745
 30
0.0
 11
124.918259
 21
196.350645
 31
0.0
  0
LINE
  5
16b
100
AcDbEntity
  8
Capa_1
 62
5
100
AcDbLine
 10
124.918259
 20
196.350645
 30
0.0
 11
125.901408
 21
196.350645
 31
0.0
  0
LINE
  5
16c
100
AcDbEntity
  8
Capa_1
 62
5
100
AcDbLine
 10
125.901408
 20
196.350645
 30
0.0
 11
125.901408
 21
189.976335
 31
0.0
  0
LINE
  5
16d
100
AcDbEntity
  8
Capa_1
 62
5
100
AcDbLine
 10
125.901408
 20
189.976335
 30
0.0
 11
127.507541
 21
189.976335
 31
0.0
  0
LINE
  5
16e
100
AcDbEntity
  8
Capa_1
 62
5
100
AcDbLine
 10
127.507541
 20
189.976335
 30
0.0
 11
127.507541
 21
189.157263
 31
0.0
  0
LINE
  5
16f
100
AcDbEntity
  8
Capa_1
 62
5
100
AcDbLine
 10
127.507541
 20
189.157263
 30
0.0
 11
123.321859
 21
189.157263
 31
0.0
  0
LINE
  5
170
100
AcDbEntity
  8
Capa_1
 62
5
100
AcDbLine
 10
123.321859
 20
189.157263
 30
0.0
 11
123.321859
 21
189.976335
 31
0.0
  0
LINE
  5
171
100
AcDbEntity
  8
Capa_1
 62
5
100
AcDbLine
 10
123.321859
 20
189.976335
 30
0.0
 11
123.321859
 21
189.976335
 31
0.0
  0
SPLINE
  5
172
100
AcDbEntity
  8
Capa_1
 62
5
100
AcDbSpline
 70
0
 71
3
 72
16
 73
12
 74
10
 40
0.000000
 40
0.000000
 40
0.000000
 40
0.000000
 40
0.816618
 40
1.766152
 40
2.884084
 40
4.004154
 40
4.953688
 40
5.768380
 40
6.495782
 40
7.195963
 40
7.954096
 40
7.954096
 40
7.954096
 40
7.954096
 10
117.038471
 20
189.971518
 30
0.0
 10
116.907514
 20
190.211685
 30
0.0
 10
116.624285
 20
190.731111
 30
0.0
 10
116.436393
 20
191.686150
 30
0.0
 10
116.375189
 20
192.746717
 30
0.0
 10
116.432638
 20
193.811400
 30
0.0
 10
116.635404
 20
194.756518
 30
0.0
 10
116.989343
 20
195.518785
 30
0.0
 10
117.499205
 20
196.082061
 30
0.0
 10
118.163900
 20
196.428872
 30
0.0
 10
118.653104
 20
196.462994
 30
0.0
 10
118.907426
 20
196.480733
 30
0.0
 11
117.038471
 21
189.971518
 31
0.0
 11
116.681552
 21
190.706006
 31
0.0
 11
116.467401
 21
191.631076
 31
0.0
 11
116.396017
 21
192.746727
 31
0.0
 11
116.467401
 21
193.864520
 31
0.0
 11
116.681552
 21
194.789589
 31
0.0
 11
117.038471
 21
195.521937
 31
0.0
 11
117.533831
 21
196.054602
 31
0.0
 11
118.156816
 21
196.374201
 31
0.0
 11
118.907426
 21
196.480733
 31
0.0
  0
LINE
  5
173
100
AcDbEntity
  8
Capa_1
 62
7
100
AcDbLine
 10
149.985791
 20
167.817974
 30
0.0
 11
149.985791
 21
159.800298
 31
0.0
  0
SPLINE
  5
174
100
AcDbEntity
  8
Capa_1
 62
7
100
AcDbSpline
 70
0
 71
3
 72
10
 73
6
 74
4
 40
0.000000
 40
0.000000
 40
0.000000
 40
0.000000
 40
1.678889
 40
3.304272
 40
4.983161
 40
4.983161
 40
4.983161
 40
4.983161
 10
146.778720
 20
171.025046
 30
0.0
 10
147.341569
 20
170.937528
 30
0.0
 10
148.449329
 20
170.765281
 30
0.0
 10
149.726027
 20
169.488584
 30
0.0
 10
149.898273
 20
168.380824
 30
0.0
 10
149.985791
 20
167.817974
 30
0.0
 11
146.778720
 21
171.025046
 31
0.0
 11
148.399835
 21
170.588410
 31
0.0
 11
149.549155
 21
169.439090
 31
0.0
 11
149.985791
 21
167.817974
 31
0.0
  0
LINE
  5
175
100
AcDbEntity
  8
Capa_1
 62
7
100
AcDbLine
 10
143.571648
 20
159.800298
 30
0.0
 11
143.571648
 21
167.817974
 31
0.0
  0
SPLINE
  5
176
100
AcDbEntity
  8
Capa_1
 62
7
100
AcDbSpline
 70
0
 71
3
 72
13
 73
9
 74
7
 40
0.000000
 40
0.000000
 40
0.000000
 40
0.000000
 40
1.678888
 40
3.304271
 40
4.983160
 40
6.662048
 40
8.287432
 40
9.966320
 40
9.966320
 40
9.966320
 40
9.966320
 10
149.985791
 20
159.800298
 30
0.0
 10
149.898273
 20
159.234084
 30
0.0
 10
149.726026
 20
158.119701
 30
0.0
 10
148.449329
 20
156.891991
 30
0.0
 10
146.778720
 20
156.441425
 30
0.0
 10
145.108111
 20
156.891991
 30
0.0
 10
143.831414
 20
158.119701
 30
0.0
 10
143.659166
 20
159.234084
 30
0.0
 10
143.571648
 20
159.800298
 30
0.0
 11
149.985791
 21
159.800298
 31
0.0
 11
149.549155
 21
158.179183
 31
0.0
 11
148.399835
 21
157.029864
 31
0.0
 11
146.778720
 21
156.593226
 31
0.0
 11
145.157605
 21
157.029864
 31
0.0
 11
144.008285
 21
158.179183
 31
0.0
 11
143.571648
 21
159.800298
 31
0.0
  0
LINE
  5
177
100
AcDbEntity
  8
Capa_1
 62
7
100
AcDbLine
 10
146.778720
 20
171.025046
 30
0.0
 11
146.778720
 21
171.025046
 31
0.0
  0
SPLINE
  5
178
100
AcDbEntity
  8
Capa_1
 62
7
100
AcDbSpline
 70
0
 71
3
 72
10
 73
6
 74
4
 40
0.000000
 40
0.000000
 40
0.000000
 40
0.000000
 40
1.678889
 40
3.304272
 40
4.983160
 40
4.983160
 40
4.983160
 40
4.983160
 10
143.571648
 20
167.817974
 30
0.0
 10
143.659166
 20
168.380824
 30
0.0
 10
143.831413
 20
169.488584
 30
0.0
 10
145.108111
 20
170.765281
 30
0.0
 10
146.215871
 20
170.937528
 30
0.0
 10
146.778720
 20
171.025046
 30
0.0
 11
143.571648
 21
167.817974
 31
0.0
 11
144.008285
 21
169.439090
 31
0.0
 11
145.157605
 21
170.588410
 31
0.0
 11
146.778720
 21
171.025046
 31
0.0
  0
LINE
  5
179
100
AcDbEntity
  8
Capa_1
 62
7
100
AcDbLine
 10
170.079616
 20
150.257408
 30
0.0
 11
170.079616
 21
150.257408
 31
0.0
  0
SPLINE
  5
17a
100
AcDbEntity
  8
Capa_1
 62
7
100
AcDbSpline
 70
0
 71
3
 72
31
 73
27
 74
25
 40
0.000000
 40
0.000000
 40
0.000000
 40
0.000000
 40
0.355723
 40
0.708502
 40
1.064225
 40
1.419948
 40
1.772727
 40
2.128450
 40
2.484173
 40
2.836952
 40
3.192675
 40
3.548398
 40
3.901177
 40
4.256900
 40
4.612623
 40
4.965402
 40
5.321125
 40
5.676848
 40
6.029627
 40
6.385350
 40
6.741073
 40
7.093852
 40
7.449575
 40
7.805298
 40
8.158078
 40
8.513800
 40
8.513800
 40
8.513800
 40
8.513800
 10
170.079616
 20
150.257408
 30
0.0
 10
170.070557
 20
150.138494
 30
0.0
 10
170.052515
 20
149.901650
 30
0.0
 10
169.909933
 20
149.570197
 30
0.0
 10
169.693009
 20
149.285428
 30
0.0
 10
169.407858
 20
149.067079
 30
0.0
 10
169.076507
 20
148.929787
 30
0.0
 10
168.720721
 20
148.882820
 30
0.0
 10
168.364970
 20
148.929787
 30
0.0
 10
168.033516
 20
149.067079
 30
0.0
 10
167.748747
 20
149.285428
 30
0.0
 10
167.530398
 20
149.570197
 30
0.0
 10
167.393106
 20
149.901650
 30
0.0
 10
167.346139
 20
150.257408
 30
0.0
 10
167.393106
 20
150.613166
 30
0.0
 10
167.530398
 20
150.944619
 30
0.0
 10
167.748747
 20
151.229388
 30
0.0
 10
168.033516
 20
151.447737
 30
0.0
 10
168.364970
 20
151.585029
 30
0.0
 10
168.720721
 20
151.631995
 30
0.0
 10
169.076507
 20
151.585029
 30
0.0
 10
169.407858
 20
151.447737
 30
0.0
 10
169.693009
 20
151.229388
 30
0.0
 10
169.909933
 20
150.944619
 30
0.0
 10
170.052515
 20
150.613166
 30
0.0
 10
170.070557
 20
150.376322
 30
0.0
 10
170.079616
 20
150.257408
 30
0.0
 11
170.079616
 21
150.257408
 31
0.0
 11
170.033059
 21
149.904745
 31
0.0
 11
169.898057
 21
149.578819
 31
0.0
 11
169.681606
 21
149.296528
 31
0.0
 11
169.399316
 21
149.080078
 31
0.0
 11
169.073390
 21
148.945075
 31
0.0
 11
168.720727
 21
148.898519
 31
0.0
 11
168.368064
 21
148.945075
 31
0.0
 11
168.042138
 21
149.080078
 31
0.0
 11
167.759847
 21
149.296528
 31
0.0
 11
167.543397
 21
149.578819
 31
0.0
 11
167.408394
 21
149.904745
 31
0.0
 11
167.361838
 21
150.257408
 31
0.0
 11
167.408394
 21
150.610071
 31
0.0
 11
167.543397
 21
150.935997
 31
0.0
 11
167.759847
 21
151.218287
 31
0.0
 11
168.042138
 21
151.434738
 31
0.0
 11
168.368064
 21
151.569740
 31
0.0
 11
168.720727
 21
151.616297
 31
0.0
 11
169.073390
 21
151.569740
 31
0.0
 11
169.399316
 21
151.434738
 31
0.0
 11
169.681606
 21
151.218287
 31
0.0
 11
169.898057
 21
150.935997
 31
0.0
 11
170.033059
 21
150.610071
 31
0.0
 11
170.079616
 21
150.257408
 31
0.0
  0
LINE
  5
17b
100
AcDbEntity
  8
Capa_1
 62
7
100
AcDbLine
 10
157.661838
 20
150.257408
 30
0.0
 11
157.661838
 21
150.257408
 31
0.0
  0
LINE
  5
17c
100
AcDbEntity
  8
Capa_1
 62
7
100
AcDbLine
 10
96.668530
 20
115.507278
 30
0.0
 11
96.766851
 21
115.507278
 31
0.0
  0
SPLINE
  5
17d
100
AcDbEntity
  8
Capa_1
 62
7
100
AcDbSpline
 70
0
 71
3
 72
31
 73
27
 74
25
 40
0.000000
 40
0.000000
 40
0.000000
 40
0.000000
 40
0.355723
 40
0.708502
 40
1.064225
 40
1.419948
 40
1.772727
 40
2.128450
 40
2.484173
 40
2.836952
 40
3.192675
 40
3.548398
 40
3.901177
 40
4.256900
 40
4.612623
 40
4.965402
 40
5.321125
 40
5.676848
 40
6.029627
 40
6.385350
 40
6.741073
 40
7.093852
 40
7.449575
 40
7.805298
 40
8.158078
 40
8.513800
 40
8.513800
 40
8.513800
 40
8.513800
 10
157.661838
 20
150.257408
 30
0.0
 10
157.652779
 20
150.138494
 30
0.0
 10
157.634737
 20
149.901650
 30
0.0
 10
157.492155
 20
149.570197
 30
0.0
 10
157.275231
 20
149.285428
 30
0.0
 10
156.990080
 20
149.067079
 30
0.0
 10
156.658729
 20
148.929787
 30
0.0
 10
156.302943
 20
148.882820
 30
0.0
 10
155.947193
 20
148.929787
 30
0.0
 10
155.615738
 20
149.067079
 30
0.0
 10
155.330969
 20
149.285428
 30
0.0
 10
155.112620
 20
149.570197
 30
0.0
 10
154.975328
 20
149.901650
 30
0.0
 10
154.928362
 20
150.257408
 30
0.0
 10
154.975328
 20
150.613166
 30
0.0
 10
155.112620
 20
150.944619
 30
0.0
 10
155.330969
 20
151.229388
 30
0.0
 10
155.615738
 20
151.447737
 30
0.0
 10
155.947193
 20
151.585029
 30
0.0
 10
156.302943
 20
151.631995
 30
0.0
 10
156.658729
 20
151.585029
 30
0.0
 10
156.990080
 20
151.447737
 30
0.0
 10
157.275231
 20
151.229388
 30
0.0
 10
157.492155
 20
150.944619
 30
0.0
 10
157.634737
 20
150.613166
 30
0.0
 10
157.652779
 20
150.376322
 30
0.0
 10
157.661838
 20
150.257408
 30
0.0
 11
157.661838
 21
150.257408
 31
0.0
 11
157.615282
 21
149.904745
 31
0.0
 11
157.480279
 21
149.578819
 31
0.0
 11
157.263829
 21
149.296528
 31
0.0
 11
156.981538
 21
149.080078
 31
0.0
 11
156.655612
 21
148.945075
 31
0.0
 11
156.302949
 21
148.898519
 31
0.0
 11
155.950286
 21
148.945075
 31
0.0
 11
155.624360
 21
149.080078
 31
0.0
 11
155.342070
 21
149.296528
 31
0.0
 11
155.125619
 21
149.578819
 31
0.0
 11
154.990617
 21
149.904745
 31
0.0
 11
154.944060
 21
150.257408
 31
0.0
 11
154.990617
 21
150.610071
 31
0.0
 11
155.125619
 21
150.935997
 31
0.0
 11
155.342070
 21
151.218287
 31
0.0
 11
155.624360
 21
151.434738
 31
0.0
 11
155.950286
 21
151.569740
 31
0.0
 11
156.302949
 21
151.616297
 31
0.0
 11
156.655612
 21
151.569740
 31
0.0
 11
156.981538
 21
151.434738
 31
0.0
 11
157.263829
 21
151.218287
 31
0.0
 11
157.480279
 21
150.935997
 31
0.0
 11
157.615282
 21
150.610071
 31
0.0
 11
157.661838
 21
150.257408
 31
0.0
  0
LINE
  5
17e
100
AcDbEntity
  8
Capa_1
 62
7
100
AcDbLine
 10
100.643192
 20
113.899695
 30
0.0
 11
100.643192
 21
71.956390
 31
0.0
  0
SPLINE
  5
17f
100
AcDbEntity
  8
Capa_1
 62
7
100
AcDbSpline
 70
0
 71
3
 72
10
 73
6
 74
4
 40
0.000000
 40
0.000000
 40
0.000000
 40
0.000000
 40
1.971605
 40
3.475496
 40
4.444438
 40
4.444438
 40
4.444438
 40
4.444438
 10
96.766851
 20
115.507278
 30
0.0
 10
97.410980
 20
115.460968
 30
0.0
 10
98.546435
 20
115.379333
 30
0.0
 10
100.105859
 20
114.957288
 30
0.0
 10
100.491920
 20
114.197433
 30
0.0
 10
100.643192
 20
113.899695
 30
0.0
 11
96.766851
 21
115.507278
 31
0.0
 11
98.726270
 21
115.288408
 31
0.0
 11
100.115436
 21
114.712297
 31
0.0
 11
100.643192
 21
113.899695
 31
0.0
  0
LINE
  5
180
100
AcDbEntity
  8
Capa_1
 62
7
100
AcDbLine
 10
96.766851
 20
70.348805
 30
0.0
 11
96.668530
 21
70.348805
 31
0.0
  0
SPLINE
  5
181
100
AcDbEntity
  8
Capa_1
 62
7
100
AcDbSpline
 70
0
 71
3
 72
10
 73
6
 74
4
 40
0.000000
 40
0.000000
 40
0.000000
 40
0.000000
 40
0.968945
 40
2.472835
 40
4.444441
 40
4.444441
 40
4.444441
 40
4.444441
 10
100.643192
 20
71.956390
 30
0.0
 10
100.491920
 20
71.658652
 30
0.0
 10
100.105860
 20
70.898795
 30
0.0
 10
98.546435
 20
70.476750
 30
0.0
 10
97.410980
 20
70.395115
 30
0.0
 10
96.766851
 20
70.348805
 30
0.0
 11
100.643192
 21
71.956390
 31
0.0
 11
100.115436
 21
71.143785
 31
0.0
 11
98.726270
 21
70.567674
 31
0.0
 11
96.766851
 21
70.348805
 31
0.0
  0
LINE
  5
182
100
AcDbEntity
  8
Capa_1
 62
7
100
AcDbLine
 10
92.792188
 20
71.956390
 30
0.0
 11
92.792188
 21
113.899695
 31
0.0
  0
SPLINE
  5
183
100
AcDbEntity
  8
Capa_1
 62
7
100
AcDbSpline
 70
0
 71
3
 72
10
 73
6
 74
4
 40
0.000000
 40
0.000000
 40
0.000000
 40
0.000000
 40
1.971607
 40
3.475496
 40
4.444441
 40
4.444441
 40
4.444441
 40
4.444441
 10
96.668530
 20
70.348805
 30
0.0
 10
96.024400
 20
70.395115
 30
0.0
 10
94.888945
 20
70.476749
 30
0.0
 10
93.329519
 20
70.898795
 30
0.0
 10
92.943460
 20
71.658652
 30
0.0
 10
92.792188
 20
71.956390
 30
0.0
 11
96.668530
 21
70.348805
 31
0.0
 11
94.709109
 21
70.567674
 31
0.0
 11
93.319944
 21
71.143785
 31
0.0
 11
92.792188
 21
71.956390
 31
0.0
  0
LINE
  5
184
100
AcDbEntity
  8
Capa_1
 62
7
100
AcDbLine
 10
96.668530
 20
115.507278
 30
0.0
 11
96.668530
 21
115.507278
 31
0.0
  0
LINE
  5
185
100
AcDbEntity
  8
Capa_1
 62
1
100
AcDbLine
 10
90.365286
 20
170.651505
 30
0.0
 11
130.083062
 21
170.651505
 31
0.0
  0
LINE
  5
186
100
AcDbEntity
  8
Capa_1
 62
1
100
AcDbLine
 10
130.083062
 20
170.651505
 30
0.0
 11
130.083062
 21
130.933729
 31
0.0
  0
LINE
  5
187
100
AcDbEntity
  8
Capa_1
 62
1
100
AcDbLine
 10
130.083062
 20
130.933729
 30
0.0
 11
90.365286
 21
130.933729
 31
0.0
  0
LINE
  5
188
100
AcDbEntity
  8
Capa_1
 62
1
100
AcDbLine
 10
90.365286
 20
130.933729
 30
0.0
 11
90.365286
 21
170.651505
 31
0.0
  0
SPLINE
  5
189
100
AcDbEntity
  8
Capa_1
 62
7
100
AcDbSpline
 70
0
 71
3
 72
10
 73
6
 74
4
 40
0.000000
 40
0.000000
 40
0.000000
 40
0.000000
 40
0.968942
 40
2.472832
 40
4.444438
 40
4.444438
 40
4.444438
 40
4.444438
 10
92.792188
 20
113.899695
 30
0.0
 10
92.943460
 20
114.197433
 30
0.0
 10
93.329521
 20
114.957288
 30
0.0
 10
94.888945
 20
115.379333
 30
0.0
 10
96.024400
 20
115.460968
 30
0.0
 10
96.668530
 20
115.507278
 30
0.0
 11
92.792188
 21
113.899695
 31
0.0
 11
93.319944
 21
114.712297
 31
0.0
 11
94.709109
 21
115.288408
 31
0.0
 11
96.668530
 21
115.507278
 31
0.0
  0
LINE
  5
18a
100
AcDbEntity
  8
Capa_1
 62
7
100
AcDbLine
 10
125.583057
 20
165.440608
 30
0.0
 11
125.583057
 21
165.440608
 31
0.0
  0
SPLINE
  5
18b
100
AcDbEntity
  8
Capa_1
 62
7
100
AcDbSpline
 70
0
 71
3
 72
25
 73
21
 74
19
 40
0.000000
 40
0.000000
 40
0.000000
 40
0.000000
 40
0.355723
 40
0.708502
 40
1.064225
 40
1.419948
 40
1.772727
 40
2.128450
 40
2.838957
 40
3.528390
 40
4.238896
 40
4.949403
 40
5.638836
 40
6.349342
 40
6.705065
 40
7.057844
 40
7.413567
 40
7.769290
 40
8.122069
 40
8.477792
 40
8.477792
 40
8.477792
 40
8.477792
 10
125.583057
 20
165.440608
 30
0.0
 10
125.573998
 20
165.321694
 30
0.0
 10
125.555956
 20
165.084850
 30
0.0
 10
125.413378
 20
164.753395
 30
0.0
 10
125.196439
 20
164.468635
 30
0.0
 10
124.911342
 20
164.250253
 30
0.0
 10
124.579791
 20
164.113084
 30
0.0
 10
124.106395
 20
164.049843
 30
0.0
 10
123.512018
 20
164.209250
 30
0.0
 10
122.993177
 20
164.729113
 30
0.0
 10
122.800373
 20
165.440608
 30
0.0
 10
122.993177
 20
166.152103
 30
0.0
 10
123.512018
 20
166.671966
 30
0.0
 10
124.106395
 20
166.831373
 30
0.0
 10
124.579791
 20
166.768132
 30
0.0
 10
124.911342
 20
166.630963
 30
0.0
 10
125.196439
 20
166.412581
 30
0.0
 10
125.413378
 20
166.127821
 30
0.0
 10
125.555956
 20
165.796365
 30
0.0
 10
125.573998
 20
165.559522
 30
0.0
 10
125.583057
 20
165.440608
 30
0.0
 11
125.583057
 21
165.440608
 31
0.0
 11
125.536501
 21
165.087945
 31
0.0
 11
125.401498
 21
164.762019
 31
0.0
 11
125.185048
 21
164.479728
 31
0.0
 11
124.902757
 21
164.263278
 31
0.0
 11
124.576832
 21
164.128275
 31
0.0
 11
124.224169
 21
164.081719
 31
0.0
 11
123.538313
 21
164.267248
 31
0.0
 11
123.050810
 21
164.754752
 31
0.0
 11
122.865283
 21
165.440608
 31
0.0
 11
123.050810
 21
166.126464
 31
0.0
 11
123.538313
 21
166.613967
 31
0.0
 11
124.224169
 21
166.799497
 31
0.0
 11
124.576832
 21
166.752940
 31
0.0
 11
124.902757
 21
166.617938
 31
0.0
 11
125.185048
 21
166.401487
 31
0.0
 11
125.401498
 21
166.119197
 31
0.0
 11
125.536501
 21
165.793271
 31
0.0
 11
125.583057
 21
165.440608
 31
0.0
  0
LINE
  5
18c
100
AcDbEntity
  8
Capa_1
 62
7
100
AcDbLine
 10
97.583060
 20
165.440608
 30
0.0
 11
97.583060
 21
165.440608
 31
0.0
  0
SPLINE
  5
18d
100
AcDbEntity
  8
Capa_1
 62
7
100
AcDbSpline
 70
0
 71
3
 72
31
 73
27
 74
25
 40
0.000000
 40
0.000000
 40
0.000000
 40
0.000000
 40
0.355723
 40
0.708502
 40
1.064225
 40
1.419948
 40
1.772727
 40
2.128450
 40
2.484173
 40
2.836952
 40
3.192675
 40
3.548398
 40
3.901177
 40
4.256900
 40
4.612623
 40
4.965402
 40
5.321125
 40
5.676848
 40
6.029627
 40
6.385350
 40
6.741073
 40
7.093852
 40
7.449575
 40
7.805298
 40
8.158078
 40
8.513800
 40
8.513800
 40
8.513800
 40
8.513800
 10
97.583060
 20
165.440608
 30
0.0
 10
97.574001
 20
165.321694
 30
0.0
 10
97.555959
 20
165.084850
 30
0.0
 10
97.413377
 20
164.753397
 30
0.0
 10
97.196453
 20
164.468628
 30
0.0
 10
96.911302
 20
164.250279
 30
0.0
 10
96.579951
 20
164.112987
 30
0.0
 10
96.224165
 20
164.066020
 30
0.0
 10
95.868415
 20
164.112987
 30
0.0
 10
95.536960
 20
164.250279
 30
0.0
 10
95.252191
 20
164.468628
 30
0.0
 10
95.033842
 20
164.753397
 30
0.0
 10
94.896550
 20
165.084850
 30
0.0
 10
94.849584
 20
165.440608
 30
0.0
 10
94.896550
 20
165.796366
 30
0.0
 10
95.033842
 20
166.127819
 30
0.0
 10
95.252191
 20
166.412588
 30
0.0
 10
95.536960
 20
166.630937
 30
0.0
 10
95.868415
 20
166.768229
 30
0.0
 10
96.224165
 20
166.815195
 30
0.0
 10
96.579951
 20
166.768229
 30
0.0
 10
96.911302
 20
166.630937
 30
0.0
 10
97.196453
 20
166.412588
 30
0.0
 10
97.413377
 20
166.127819
 30
0.0
 10
97.555959
 20
165.796366
 30
0.0
 10
97.574001
 20
165.559522
 30
0.0
 10
97.583060
 20
165.440608
 30
0.0
 11
97.583060
 21
165.440608
 31
0.0
 11
97.536504
 21
165.087945
 31
0.0
 11
97.401501
 21
164.762019
 31
0.0
 11
97.185050
 21
164.479728
 31
0.0
 11
96.902760
 21
164.263278
 31
0.0
 11
96.576834
 21
164.128275
 31
0.0
 11
96.224171
 21
164.081719
 31
0.0
 11
95.871508
 21
164.128275
 31
0.0
 11
95.545582
 21
164.263278
 31
0.0
 11
95.263292
 21
164.479728
 31
0.0
 11
95.046841
 21
164.762019
 31
0.0
 11
94.911839
 21
165.087945
 31
0.0
 11
94.865282
 21
165.440608
 31
0.0
 11
94.911839
 21
165.793271
 31
0.0
 11
95.046841
 21
166.119197
 31
0.0
 11
95.263292
 21
166.401487
 31
0.0
 11
95.545582
 21
166.617938
 31
0.0
 11
95.871508
 21
166.752940
 31
0.0
 11
96.224171
 21
166.799497
 31
0.0
 11
96.576834
 21
166.752940
 31
0.0
 11
96.902760
 21
166.617938
 31
0.0
 11
97.185050
 21
166.401487
 31
0.0
 11
97.401501
 21
166.119197
 31
0.0
 11
97.536504
 21
165.793271
 31
0.0
 11
97.583060
 21
165.440608
 31
0.0
  0
LINE
  5
18e
100
AcDbEntity
  8
Capa_1
 62
1
100
AcDbLine
 10
151.232728
 20
88.883950
 30
0.0
 11
151.232728
 21
88.883950
 31
0.0
  0
LINE
  5
18f
100
AcDbEntity
  8
Capa_1
 62
7
100
AcDbLine
 10
116.863452
 20
113.263922
 30
0.0
 11
129.581232
 21
113.263922
 31
0.0
  0
LINE
  5
190
100
AcDbEntity
  8
Capa_1
 62
7
100
AcDbLine
 10
129.581232
 20
113.263922
 30
0.0
 11
129.581232
 21
93.546142
 31
0.0
  0
LINE
  5
191
100
AcDbEntity
  8
Capa_1
 62
7
100
AcDbLine
 10
129.581232
 20
93.546142
 30
0.0
 11
116.863452
 21
93.546142
 31
0.0
  0
LINE
  5
192
100
AcDbEntity
  8
Capa_1
 62
7
100
AcDbLine
 10
116.863452
 20
93.546142
 30
0.0
 11
116.863452
 21
113.263922
 31
0.0
  0
LINE
  5
193
100
AcDbEntity
  8
Capa_1
 62
7
100
AcDbLine
 10
37.944850
 20
171.878952
 30
0.0
 11
52.939703
 21
171.878952
 31
0.0
  0
LINE
  5
194
100
AcDbEntity
  8
Capa_1
 62
7
100
AcDbLine
 10
52.939703
 20
171.878952
 30
0.0
 11
52.939703
 21
153.283039
 31
0.0
  0
LINE
  5
195
100
AcDbEntity
  8
Capa_1
 62
7
100
AcDbLine
 10
52.939703
 20
153.283039
 30
0.0
 11
37.944850
 21
153.283039
 31
0.0
  0
LINE
  5
196
100
AcDbEntity
  8
Capa_1
 62
7
100
AcDbLine
 10
37.944850
 20
153.283039
 30
0.0
 11
37.944850
 21
171.878952
 31
0.0
  0
LINE
  5
197
100
AcDbEntity
  8
Capa_1
 62
5
100
AcDbLine
 10
45.849861
 20
49.474123
 30
0.0
 11
74.563630
 21
49.474123
 31
0.0
  0
LINE
  5
198
100
AcDbEntity
  8
Capa_1
 62
5
100
AcDbLine
 10
74.563630
 20
49.474123
 30
0.0
 11
74.563630
 21
23.087296
 31
0.0
  0
LINE
  5
199
100
AcDbEntity
  8
Capa_1
 62
5
100
AcDbLine
 10
74.563630
 20
23.087296
 30
0.0
 11
45.849861
 21
23.087296
 31
0.0
  0
LINE
  5
19a
100
AcDbEntity
  8
Capa_1
 62
5
100
AcDbLine
 10
45.849861
 20
23.087296
 30
0.0
 11
45.849861
 21
49.474123
 31
0.0
  0
LINE
  5
19b
100
AcDbEntity
  8
Capa_1
 62
7
100
AcDbLine
 10
212.503371
 20
200.496690
 30
0.0
 11
212.503371
 21
150.779276
 31
0.0
  0
LINE
  5
19c
100
AcDbEntity
  8
Capa_1
 62
7
100
AcDbLine
 10
212.503371
 20
150.779276
 30
0.0
 11
243.102979
 21
150.779276
 31
0.0
  0
SPLINE
  5
19d
100
AcDbEntity
  8
Capa_1
 62
1
100
AcDbSpline
 70
0
 71
3
 72
28
 73
24
 74
22
 40
0.000000
 40
0.000000
 40
0.000000
 40
0.000000
 40
4.766896
 40
9.392407
 40
14.159303
 40
16.545901
 40
18.912749
 40
21.299346
 40
23.685944
 40
26.052791
 40
28.439389
 40
30.825988
 40
33.192836
 40
35.579435
 40
37.966034
 40
40.332884
 40
42.719483
 40
45.106081
 40
47.472928
 40
49.859526
 40
52.246124
 40
54.612971
 40
56.999568
 40
56.999568
 40
56.999568
 40
56.999568
 10
151.232728
 20
88.883950
 30
0.0
 10
150.981861
 20
87.276885
 30
0.0
 10
150.487568
 20
84.110422
 30
0.0
 10
146.862151
 20
80.622582
 30
0.0
 10
142.909802
 20
79.553108
 30
0.0
 10
139.729223
 20
79.977399
 30
0.0
 10
137.505065
 20
80.897685
 30
0.0
 10
135.594611
 20
82.362840
 30
0.0
 10
134.129648
 20
84.273339
 30
0.0
 10
133.208541
 20
86.497120
 30
0.0
 10
132.893434
 20
88.883949
 30
0.0
 10
133.208538
 20
91.270785
 30
0.0
 10
134.129651
 20
93.494551
 30
0.0
 10
135.594586
 20
95.405112
 30
0.0
 10
137.505143
 20
96.870046
 30
0.0
 10
139.728923
 20
97.791160
 30
0.0
 10
142.115709
 20
98.106263
 30
0.0
 10
144.502727
 20
97.791158
 30
0.0
 10
146.725809
 20
96.870043
 30
0.0
 10
148.638932
 20
95.405109
 30
0.0
 10
150.094304
 20
93.494549
 30
0.0
 10
151.050905
 20
91.270783
 30
0.0
 10
151.171953
 20
89.681761
 30
0.0
 10
151.232728
 20
88.883950
 30
0.0
 11
151.232728
 21
88.883950
 31
0.0
 11
149.987993
 21
84.282436
 31
0.0
 11
146.717262
 21
81.011706
 31
0.0
 11
142.115748
 21
79.766969
 31
0.0
 11
139.749678
 21
80.079321
 31
0.0
 11
137.562996
 21
80.985073
 31
0.0
 11
135.669065
 21
82.437269
 31
0.0
 11
134.216867
 21
84.331199
 31
0.0
 11
133.311113
 21
86.517881
 31
0.0
 11
132.998760
 21
88.883950
 31
0.0
 11
133.311111
 21
91.250020
 31
0.0
 11
134.216864
 21
93.436704
 31
0.0
 11
135.669062
 21
95.330635
 31
0.0
 11
137.562993
 21
96.782833
 31
0.0
 11
139.749677
 21
97.688586
 31
0.0
 11
142.115748
 21
98.000938
 31
0.0
 11
144.481817
 21
97.688584
 31
0.0
 11
146.668499
 21
96.782830
 31
0.0
 11
148.562429
 21
95.330632
 31
0.0
 11
150.014625
 21
93.436701
 31
0.0
 11
150.920377
 21
91.250019
 31
0.0
 11
151.232728
 21
88.883950
 31
0.0
  0
SPLINE
  5
19e
100
AcDbEntity
  8
Capa_1
 62
7
100
AcDbSpline
 70
0
 71
3
 72
10
 73
6
 74
4
 40
0.000000
 40
0.000000
 40
0.000000
 40
0.000000
 40
8.371158
 40
16.735667
 40
25.106825
 40
25.106825
 40
25.106825
 40
25.106825
 10
243.102979
 20
150.779276
 30
0.0
 10
243.713745
 20
153.502976
 30
0.0
 10
244.934792
 20
158.948213
 30
0.0
 10
245.978619
 20
167.269698
 30
0.0
 10
246.140316
 20
172.847817
 30
0.0
 10
246.221196
 20
175.637985
 30
0.0
 11
243.102979
 21
150.779276
 31
0.0
 11
244.803859
 21
158.975817
 31
0.0
 11
245.844924
 21
167.275288
 31
0.0
 11
246.221196
 21
175.637985
 31
0.0
  0
LINE
  5
19f
100
AcDbEntity
  8
Capa_1
 62
7
100
AcDbLine
 10
243.116215
 20
200.496690
 30
0.0
 11
212.503371
 21
200.496690
 31
0.0
  0
LINE
  5
1a0
100
AcDbEntity
  8
Capa_1
 62
7
100
AcDbLine
 10
212.503371
 20
200.496690
 30
0.0
 11
212.503371
 21
200.496690
 31
0.0
  0
LINE
  5
1a1
100
AcDbEntity
  8
Capa_1
 62
7
100
AcDbLine
 10
212.503372
 20
150.609464
 30
0.0
 11
212.503372
 21
100.892051
 31
0.0
  0
LINE
  5
1a2
100
AcDbEntity
  8
Capa_1
 62
7
100
AcDbLine
 10
212.503372
 20
100.892051
 30
0.0
 11
243.102981
 21
100.892051
 31
0.0
  0
SPLINE
  5
1a3
100
AcDbEntity
  8
Capa_1
 62
7
100
AcDbSpline
 70
0
 71
3
 72
10
 73
6
 74
4
 40
0.000000
 40
0.000000
 40
0.000000
 40
0.000000
 40
8.370605
 40
16.734563
 40
25.105168
 40
25.105168
 40
25.105168
 40
25.105168
 10
246.221196
 20
175.637985
 30
0.0
 10
246.141766
 20
178.428009
 30
0.0
 10
245.982968
 20
184.005843
 30
0.0
 10
244.943573
 20
192.327322
 30
0.0
 10
243.725496
 20
197.772846
 30
0.0
 10
243.116215
 20
200.496690
 30
0.0
 11
246.221196
 21
175.637985
 31
0.0
 11
245.849289
 21
184.000323
 31
0.0
 11
244.812643
 21
192.299791
 31
0.0
 11
243.116215
 21
200.496690
 31
0.0
  0
SPLINE
  5
1a4
100
AcDbEntity
  8
Capa_1
 62
7
100
AcDbSpline
 70
0
 71
3
 72
10
 73
6
 74
4
 40
0.000000
 40
0.000000
 40
0.000000
 40
0.000000
 40
8.371158
 40
16.735667
 40
25.106825
 40
25.106825
 40
25.106825
 40
25.106825
 10
243.102981
 20
100.892051
 30
0.0
 10
243.713746
 20
103.615751
 30
0.0
 10
244.934793
 20
109.060987
 30
0.0
 10
245.978620
 20
117.382472
 30
0.0
 10
246.140317
 20
122.960592
 30
0.0
 10
246.221198
 20
125.750759
 30
0.0
 11
243.102981
 21
100.892051
 31
0.0
 11
244.803860
 21
109.088592
 31
0.0
 11
245.844926
 21
117.388062
 31
0.0
 11
246.221198
 21
125.750759
 31
0.0
  0
LINE
  5
1a5
100
AcDbEntity
  8
Capa_1
 62
7
100
AcDbLine
 10
243.116217
 20
150.609464
 30
0.0
 11
212.503372
 21
150.609464
 31
0.0
  0
LINE
  5
1a6
100
AcDbEntity
  8
Capa_1
 62
7
100
AcDbLine
 10
212.503372
 20
150.609464
 30
0.0
 11
212.503372
 21
150.609464
 31
0.0
  0
LINE
  5
1a7
100
AcDbEntity
  8
Capa_1
 62
7
100
AcDbLine
 10
212.511145
 20
100.666020
 30
0.0
 11
212.511145
 21
50.948606
 31
0.0
  0
LINE
  5
1a8
100
AcDbEntity
  8
Capa_1
 62
7
100
AcDbLine
 10
212.511145
 20
50.948606
 30
0.0
 11
243.110754
 21
50.948606
 31
0.0
  0
SPLINE
  5
1a9
100
AcDbEntity
  8
Capa_1
 62
7
100
AcDbSpline
 70
0
 71
3
 72
10
 73
6
 74
4
 40
0.000000
 40
0.000000
 40
0.000000
 40
0.000000
 40
8.370605
 40
16.734563
 40
25.105168
 40
25.105168
 40
25.105168
 40
25.105168
 10
246.221198
 20
125.750759
 30
0.0
 10
246.141767
 20
128.540783
 30
0.0
 10
245.982970
 20
134.118617
 30
0.0
 10
244.943574
 20
142.440097
 30
0.0
 10
243.725497
 20
147.885621
 30
0.0
 10
243.116217
 20
150.609464
 30
0.0
 11
246.221198
 21
125.750759
 31
0.0
 11
245.849290
 21
134.113098
 31
0.0
 11
244.812644
 21
142.412565
 31
0.0
 11
243.116217
 21
150.609464
 31
0.0
  0
SPLINE
  5
1aa
100
AcDbEntity
  8
Capa_1
 62
7
100
AcDbSpline
 70
0
 71
3
 72
10
 73
6
 74
4
 40
0.000000
 40
0.000000
 40
0.000000
 40
0.000000
 40
8.371158
 40
16.735667
 40
25.106825
 40
25.106825
 40
25.106825
 40
25.106825
 10
243.110754
 20
50.948606
 30
0.0
 10
243.721520
 20
53.672306
 30
0.0
 10
244.942566
 20
59.117543
 30
0.0
 10
245.986393
 20
67.439028
 30
0.0
 10
246.148090
 20
73.017147
 30
0.0
 10
246.228971
 20
75.807315
 30
0.0
 11
243.110754
 21
50.948606
 31
0.0
 11
244.811633
 21
59.145148
 31
0.0
 11
245.852699
 21
67.444618
 31
0.0
 11
246.228971
 21
75.807315
 31
0.0
  0
LINE
  5
1ab
100
AcDbEntity
  8
Capa_1
 62
7
100
AcDbLine
 10
243.123990
 20
100.666020
 30
0.0
 11
212.511145
 21
100.666020
 31
0.0
  0
LINE
  5
1ac
100
AcDbEntity
  8
Capa_1
 62
7
100
AcDbLine
 10
212.511145
 20
100.666020
 30
0.0
 11
212.511145
 21
100.666020
 31
0.0
  0
LINE
  5
1ad
100
AcDbEntity
  8
Capa_1
 62
7
100
AcDbLine
 10
212.535141
 20
50.722579
 30
0.0
 11
212.535141
 21
1.005165
 31
0.0
  0
SPLINE
  5
1ae
100
AcDbEntity
  8
Capa_1
 62
7
100
AcDbSpline
 70
0
 71
3
 72
10
 73
6
 74
4
 40
0.000000
 40
0.000000
 40
0.000000
 40
0.000000
 40
8.370605
 40
16.734563
 40
25.105168
 40
25.105168
 40
25.105168
 40
25.105168
 10
246.228971
 20
75.807315
 30
0.0
 10
246.149541
 20
78.597339
 30
0.0
 10
245.990743
 20
84.175173
 30
0.0
 10
244.951347
 20
92.496652
 30
0.0
 10
243.733270
 20
97.942177
 30
0.0
 10
243.123990
 20
100.666020
 30
0.0
 11
246.228971
 21
75.807315
 31
0.0
 11
245.857064
 21
84.169653
 31
0.0
 11
244.820417
 21
92.469121
 31
0.0
 11
243.123990
 21
100.666020
 31
0.0
  0
SPLINE
  5
1af
100
AcDbEntity
  8
Capa_1
 62
7
100
AcDbSpline
 70
0
 71
3
 72
13
 73
9
 74
7
 40
0.000000
 40
0.000000
 40
0.000000
 40
0.000000
 40
7.933232
 40
22.666377
 40
30.599609
 40
38.970766
 40
47.335276
 40
55.706433
 40
55.706433
 40
55.706433
 40
55.706433
 10
212.535141
 20
1.005165
 30
0.0
 10
215.215705
 20
0.959987
 30
0.0
 10
222.874460
 20
0.830906
 30
0.0
 10
232.018497
 20
2.150297
 30
0.0
 10
245.023825
 20
-1.173051
 30
0.0
 10
244.460605
 20
9.806357
 30
0.0
 10
246.136954
 20
17.337429
 30
0.0
 10
246.214285
 20
23.020973
 30
0.0
 10
246.252966
 20
25.863873
 30
0.0
 11
212.535141
 21
1.005165
 31
0.0
 11
220.468373
 21
1.005165
 31
0.0
 11
235.201518
 21
1.005165
 31
0.0
 11
243.134750
 21
1.005165
 31
0.0
 11
244.835629
 21
9.201706
 31
0.0
 11
245.876695
 21
17.501176
 31
0.0
 11
246.252966
 21
25.863873
 31
0.0
  0
LINE
  5
1b0
100
AcDbEntity
  8
Capa_1
 62
7
100
AcDbLine
 10
243.147986
 20
50.722579
 30
0.0
 11
212.535141
 21
50.722579
 31
0.0
  0
LINE
  5
1b1
100
AcDbEntity
  8
Capa_1
 62
7
100
AcDbLine
 10
212.535141
 20
50.722579
 30
0.0
 11
212.535141
 21
50.722579
 31
0.0
  0
SPLINE
  5
1b2
100
AcDbEntity
  8
Capa_1
 62
7
100
AcDbSpline
 70
0
 71
3
 72
10
 73
6
 74
4
 40
0.000000
 40
0.000000
 40
0.000000
 40
0.000000
 40
8.370605
 40
16.734563
 40
25.105168
 40
25.105168
 40
25.105168
 40
25.105168
 10
246.252966
 20
25.863873
 30
0.0
 10
246.173536
 20
28.653898
 30
0.0
 10
246.014739
 20
34.231731
 30
0.0
 10
244.975343
 20
42.553211
 30
0.0
 10
243.757266
 20
47.998735
 30
0.0
 10
243.147986
 20
50.722579
 30
0.0
 11
246.252966
 21
25.863873
 31
0.0
 11
245.881059
 21
34.226212
 31
0.0
 11
244.844413
 21
42.525679
 31
0.0
 11
243.147986
 21
50.722579
 31
0.0
  0
ENDSEC
  0
SECTION
  2
OBJECTS
  0
DICTIONARY
  5
C
330
0
100
AcDbDictionary
  3
ACAD_GROUP
350
D
  3
ACAD_MLINESTYLE
350
17
  0
DICTIONARY
  5
D
330
C
100
AcDbDictionary
  0
DICTIONARY
  5
1A
330
C
100
AcDbDictionary
  0
DICTIONARY
  5
17
330
C
100
AcDbDictionary
  3
STANDARD
350
18
  0
DICTIONARY
  5
19
330
C
100
AcDbDictionary
  0
ENDSEC
  0
EOF
