  0
SECTION
  2
HEADER
  9
$ACADVER
  1
AC1014
  9
$HANDSEED
  5
FFFF
  9
$MEASUREMENT
 70
     1
  0
ENDSEC
  0
SECTION
  2
TABLES
  0
TABLE
  2
VPORT
  5
8
330
0
100
AcDbSymbolTable
 70
     4
  0
VPORT
  5
2E
330
8
100
AcDbSymbolTableRecord
100
AcDbViewportTableRecord
  2
*ACTIVE
 70
     0
 10
0.0
 20
0.0
 11
1.0
 21
1.0
 12
210.0
 22
148.5
 13
0.0
 23
0.0
 14
10.0
 24
10.0
 15
10.0
 25
10.0
 16
0.0
 26
0.0
 36
1.0
 17
0.0
 27
0.0
 37
0.0
 40
341.0
 41
1.24
 42
50.0
 43
0.0
 44
0.0
 50
0.0
 51
0.0
 71
     0
 72
   100
 73
     1
 74
     3
 75
     0
 76
     0
 77
     0
 78
     0
  0
ENDTAB
  0
TABLE
  2
LTYPE
  5
5
330
0
100
AcDbSymbolTable
 70
     1
  0
LTYPE
  5
14
330
5
100
AcDbSymbolTableRecord
100
AcDbLinetypeTableRecord
  2
BYBLOCK
 70
     0
  3

 72
    65
 73
     0
 40
0.0
  0
LTYPE
  5
15
330
5
100
AcDbSymbolTableRecord
100
AcDbLinetypeTableRecord
  2
BYLAYER
 70
     0
  3

 72
    65
 73
     0
 40
0.0
  0
LTYPE
  5
16
330
5
100
AcDbSymbolTableRecord
100
AcDbLinetypeTableRecord
  2
CONTINUOUS
 70
     0
  3
Solid line
 72
    65
 73
     0
 40
0.0
  0
ENDTAB
  0
TABLE
  2
LAYER
  5
2
100
AcDbSymbolTable
 70
2
  0
LAYER
  5
50
100
AcDbSymbolTableRecord
100
AcDbLayerTableRecord
  2
0
 70
0
  6
CONTINUOUS
  0
LAYER
  5
51
100
AcDbSymbolTableRecord
100
AcDbLayerTableRecord
  2
Capa_1
 70
0
  6
CONTINUOUS
  0
ENDTAB
  0
TABLE
  2
STYLE
  5
3
330
0
100
AcDbSymbolTable
 70
     1
  0
STYLE
  5
11
330
3
100
AcDbSymbolTableRecord
100
AcDbTextStyleTableRecord
  2
STANDARD
 70
     0
 40
0.0
 41
1.0
 50
0.0
 71
     0
 42
2.5
  3
txt
  4

  0
ENDTAB
  0
TABLE
  2
VIEW
  5
6
330
0
100
AcDbSymbolTable
 70
     0
  0
ENDTAB
  0
TABLE
  2
UCS
  5
7
330
0
100
AcDbSymbolTable
 70
     0
  0
ENDTAB
  0
TABLE
  2
APPID
  5
9
330
0
100
AcDbSymbolTable
 70
     2
  0
APPID
  5
12
330
9
100
AcDbSymbolTableRecord
100
AcDbRegAppTableRecord
  2
ACAD
 70
     0
  0
ENDTAB
  0
TABLE
  2
DIMSTYLE
  5
A
330
0
100
AcDbSymbolTable
 70
     1
  0
DIMSTYLE
105
27
330
A
100
AcDbSymbolTableRecord
100
AcDbDimStyleTableRecord
  2
ISO-25
 70
     0
  3

  4

  5

  6

  7

 40
1.0
 41
2.5
 42
0.625
 43
3.75
 44
1.25
 45
0.0
 46
0.0
 47
0.0
 48
0.0
140
2.5
141
2.5
142
0.0
143
0.03937007874016
144
1.0
145
0.0
146
1.0
147
0.625
 71
     0
 72
     0
 73
     0
 74
     0
 75
     0
 76
     0
 77
     1
 78
     8
170
     0
171
     3
172
     1
173
     0
174
     0
175
     0
176
     0
177
     0
178
     0
270
     2
271
     2
272
     2
273
     2
274
     3
340
11
275
     0
280
     0
281
     0
282
     0
283
     0
284
     8
285
     0
286
     0
287
     3
288
     0
  0
ENDTAB
  0
TABLE
  2
BLOCK_RECORD
  5
1
330
0
100
AcDbSymbolTable
 70
     1
  0
BLOCK_RECORD
  5
1F
330
1
100
AcDbSymbolTableRecord
100
AcDbBlockTableRecord
  2
*MODEL_SPACE
  0
BLOCK_RECORD
  5
1B
330
1
100
AcDbSymbolTableRecord
100
AcDbBlockTableRecord
  2
*PAPER_SPACE
  0
ENDTAB
  0
ENDSEC
  0
SECTION
  2
BLOCKS
  0
BLOCK
  5
20
330
1F
100
AcDbEntity
  8
0
100
AcDbBlockBegin
  2
*MODEL_SPACE
 70
     0
 10
0.0
 20
0.0
 30
0.0
  3
*MODEL_SPACE
  1

  0
ENDBLK
  5
21
330
1F
100
AcDbEntity
  8
0
100
AcDbBlockEnd
  0
BLOCK
  5
1C
330
1B
100
AcDbEntity
 67
     1
  8
0
100
AcDbBlockBegin
  2
*PAPER_SPACE
  1

  0
ENDBLK
  5
1D
330
1B
100
AcDbEntity
 67
     1
  8
0
100
AcDbBlockEnd
  0
ENDSEC
  0
SECTION
  2
ENTITIES
  0
SPLINE
  5
100
100
AcDbEntity
  8
Capa_1
 62
7
100
AcDbSpline
 70
0
 71
3
 72
61
 73
57
 74
55
 40
0.000000
 40
0.000000
 40
0.000000
 40
0.000000
 40
0.324333
 40
0.643501
 40
0.957628
 40
1.265314
 40
1.578249
 40
1.893254
 40
2.215901
 40
2.536547
 40
2.856431
 40
3.177052
 40
3.498412
 40
3.819695
 40
4.131132
 40
4.442527
 40
4.754017
 40
5.075475
 40
5.396950
 40
5.717181
 40
5.876936
 40
6.036403
 40
6.195798
 40
6.353955
 40
6.512175
 40
6.670403
 40
6.829938
 40
6.989470
 40
7.148999
 40
7.308530
 40
7.468064
 40
7.627591
 40
7.785795
 40
7.944002
 40
8.102205
 40
8.261731
 40
8.421264
 40
8.580798
 40
8.740336
 40
8.899872
 40
9.059393
 40
9.217576
 40
9.375773
 40
9.534004
 40
9.693599
 40
9.853163
 40
10.012608
 40
10.171940
 40
10.331387
 40
10.491150
 40
10.649865
 40
10.808272
 40
10.965994
 40
11.124674
 40
11.283962
 40
11.443879
 40
11.443879
 40
11.443879
 40
11.443879
 10
45.506701
 20
135.626302
 30
0.0
 10
45.490048
 20
135.519472
 30
0.0
 10
45.457007
 20
135.307512
 30
0.0
 10
45.385486
 20
134.995879
 30
0.0
 10
45.269164
 20
134.702278
 30
0.0
 10
45.090923
 20
134.443743
 30
0.0
 10
44.867439
 20
134.223943
 30
0.0
 10
44.605783
 20
134.042600
 30
0.0
 10
44.314990
 20
133.906655
 30
0.0
 10
44.003627
 20
133.822042
 30
0.0
 10
43.682838
 20
133.793000
 30
0.0
 10
43.361836
 20
133.822158
 30
0.0
 10
43.050370
 20
133.906417
 30
0.0
 10
42.760791
 20
134.041912
 30
0.0
 10
42.502446
 20
134.224364
 30
0.0
 10
42.281129
 20
134.445594
 30
0.0
 10
42.098623
 20
134.704014
 30
0.0
 10
41.963388
 20
134.993861
 30
0.0
 10
41.879318
 20
135.305285
 30
0.0
 10
41.854778
 20
135.572822
 30
0.0
 10
41.863974
 20
135.786015
 30
0.0
 10
41.884957
 20
135.944385
 30
0.0
 10
41.919622
 20
136.099773
 30
0.0
 10
41.967528
 20
136.251162
 30
0.0
 10
42.028118
 20
136.397512
 30
0.0
 10
42.101327
 20
136.538500
 30
0.0
 10
42.186860
 20
136.672894
 30
0.0
 10
42.284061
 20
136.799649
 30
0.0
 10
42.391948
 20
136.917444
 30
0.0
 10
42.509758
 20
137.025317
 30
0.0
 10
42.636515
 20
137.122513
 30
0.0
 10
42.770889
 20
137.208056
 30
0.0
 10
42.911838
 20
137.281305
 30
0.0
 10
43.058182
 20
137.341921
 30
0.0
 10
43.209642
 20
137.389793
 30
0.0
 10
43.365146
 20
137.424327
 30
0.0
 10
43.523505
 20
137.445233
 30
0.0
 10
43.683090
 20
137.452255
 30
0.0
 10
43.842676
 20
137.445236
 30
0.0
 10
44.001036
 20
137.424337
 30
0.0
 10
44.156530
 20
137.389793
 30
0.0
 10
44.307978
 20
137.341921
 30
0.0
 10
44.454319
 20
137.281297
 30
0.0
 10
44.595295
 20
137.208043
 30
0.0
 10
44.729736
 20
137.122526
 30
0.0
 10
44.856521
 20
137.025359
 30
0.0
 10
44.974230
 20
136.917493
 30
0.0
 10
45.081826
 20
136.799594
 30
0.0
 10
45.178863
 20
136.672744
 30
0.0
 10
45.264752
 20
136.538359
 30
0.0
 10
45.339209
 20
136.397699
 30
0.0
 10
45.400564
 20
136.251547
 30
0.0
 10
45.447154
 20
136.099957
 30
0.0
 10
45.476665
 20
135.943905
 30
0.0
 10
45.494570
 20
135.785552
 30
0.0
 10
45.502652
 20
135.679455
 30
0.0
 10
45.506701
 20
135.626302
 30
0.0
 11
45.506701
 21
135.626302
 31
0.0
 11
45.452926
 21
135.306459
 31
0.0
 11
45.377239
 21
134.996395
 31
0.0
 11
45.257725
 21
134.705891
 31
0.0
 11
45.084575
 21
134.451550
 31
0.0
 11
44.862257
 21
134.231315
 31
0.0
 11
44.603500
 21
134.051669
 31
0.0
 11
44.311176
 21
133.915112
 31
0.0
 11
44.001697
 21
133.831226
 31
0.0
 11
43.683089
 21
133.802692
 31
0.0
 11
43.363745
 21
133.831288
 31
0.0
 11
43.053531
 21
133.915189
 31
0.0
 11
42.762677
 21
134.051669
 31
0.0
 11
42.508160
 21
134.231151
 31
0.0
 11
42.287941
 21
134.451311
 31
0.0
 11
42.108455
 21
134.705891
 31
0.0
 11
41.972135
 21
134.997014
 31
0.0
 11
41.888336
 21
135.307375
 31
0.0
 11
41.859479
 21
135.626302
 31
0.0
 11
41.866333
 21
135.785910
 31
0.0
 11
41.887259
 21
135.943998
 31
0.0
 11
41.921954
 21
136.099572
 31
0.0
 11
41.969654
 21
136.250365
 31
0.0
 11
42.030185
 21
136.396548
 31
0.0
 11
42.103127
 21
136.536960
 31
0.0
 11
42.188766
 21
136.671561
 31
0.0
 11
42.285843
 21
136.798157
 31
0.0
 11
42.393601
 21
136.915790
 31
0.0
 11
42.511248
 21
137.023537
 31
0.0
 11
42.637849
 21
137.120612
 31
0.0
 11
42.772431
 21
137.206264
 31
0.0
 11
42.912802
 21
137.279233
 31
0.0
 11
43.058966
 21
137.339776
 31
0.0
 11
43.209819
 21
137.387437
 31
0.0
 11
43.365547
 21
137.422039
 31
0.0
 11
43.523708
 21
137.442919
 31
0.0
 11
43.683089
 21
137.449915
 31
0.0
 11
43.842473
 21
137.442922
 31
0.0
 11
44.000637
 21
137.422046
 31
0.0
 11
44.156358
 21
137.387437
 31
0.0
 11
44.307191
 21
137.339776
 31
0.0
 11
44.453344
 21
137.279233
 31
0.0
 11
44.593746
 21
137.206264
 31
0.0
 11
44.728411
 21
137.120615
 31
0.0
 11
44.855050
 21
137.023541
 31
0.0
 11
44.972576
 21
136.915790
 31
0.0
 11
45.080031
 21
136.798146
 31
0.0
 11
45.176962
 21
136.671545
 31
0.0
 11
45.263050
 21
136.536960
 31
0.0
 11
45.337119
 21
136.396588
 31
0.0
 11
45.398185
 21
136.250425
 31
0.0
 11
45.444223
 21
136.099572
 31
0.0
 11
45.474681
 21
135.943842
 31
0.0
 11
45.493581
 21
135.785680
 31
0.0
 11
45.506701
 21
135.626302
 31
0.0
  0
SPLINE
  5
101
100
AcDbEntity
  8
Capa_1
 62
7
100
AcDbSpline
 70
0
 71
3
 72
61
 73
57
 74
55
 40
0.000000
 40
0.000000
 40
0.000000
 40
0.000000
 40
0.324333
 40
0.643501
 40
0.957628
 40
1.265314
 40
1.578249
 40
1.893254
 40
2.215901
 40
2.536547
 40
2.856431
 40
3.177052
 40
3.498412
 40
3.819695
 40
4.131132
 40
4.442527
 40
4.754017
 40
5.075475
 40
5.396950
 40
5.717181
 40
5.876936
 40
6.036403
 40
6.195798
 40
6.353955
 40
6.512175
 40
6.670403
 40
6.829938
 40
6.989470
 40
7.148999
 40
7.308530
 40
7.468064
 40
7.627591
 40
7.785795
 40
7.944002
 40
8.102205
 40
8.261731
 40
8.421264
 40
8.580798
 40
8.740336
 40
8.899872
 40
9.059393
 40
9.217576
 40
9.375773
 40
9.534004
 40
9.693599
 40
9.853163
 40
10.012608
 40
10.171940
 40
10.331387
 40
10.491150
 40
10.649865
 40
10.808272
 40
10.965994
 40
11.124674
 40
11.283962
 40
11.443879
 40
11.443879
 40
11.443879
 40
11.443879
 10
168.725152
 20
74.660906
 30
0.0
 10
168.708499
 20
74.554076
 30
0.0
 10
168.675458
 20
74.342116
 30
0.0
 10
168.603937
 20
74.030483
 30
0.0
 10
168.487615
 20
73.736882
 30
0.0
 10
168.309374
 20
73.478347
 30
0.0
 10
168.085890
 20
73.258547
 30
0.0
 10
167.824234
 20
73.077204
 30
0.0
 10
167.533441
 20
72.941259
 30
0.0
 10
167.222078
 20
72.856646
 30
0.0
 10
166.901289
 20
72.827604
 30
0.0
 10
166.580287
 20
72.856762
 30
0.0
 10
166.268820
 20
72.941021
 30
0.0
 10
165.979242
 20
73.076516
 30
0.0
 10
165.720897
 20
73.258968
 30
0.0
 10
165.499580
 20
73.480198
 30
0.0
 10
165.317074
 20
73.738618
 30
0.0
 10
165.181839
 20
74.028465
 30
0.0
 10
165.097769
 20
74.339889
 30
0.0
 10
165.073229
 20
74.607426
 30
0.0
 10
165.082424
 20
74.820619
 30
0.0
 10
165.103408
 20
74.978989
 30
0.0
 10
165.138073
 20
75.134377
 30
0.0
 10
165.185979
 20
75.285766
 30
0.0
 10
165.246569
 20
75.432116
 30
0.0
 10
165.319777
 20
75.573103
 30
0.0
 10
165.405310
 20
75.707498
 30
0.0
 10
165.502512
 20
75.834253
 30
0.0
 10
165.610399
 20
75.952048
 30
0.0
 10
165.728209
 20
76.059920
 30
0.0
 10
165.854965
 20
76.157116
 30
0.0
 10
165.989340
 20
76.242660
 30
0.0
 10
166.130289
 20
76.315909
 30
0.0
 10
166.276633
 20
76.376525
 30
0.0
 10
166.428093
 20
76.424397
 30
0.0
 10
166.583597
 20
76.458931
 30
0.0
 10
166.741955
 20
76.479837
 30
0.0
 10
166.901541
 20
76.486859
 30
0.0
 10
167.061127
 20
76.479840
 30
0.0
 10
167.219487
 20
76.458941
 30
0.0
 10
167.374981
 20
76.424397
 30
0.0
 10
167.526429
 20
76.376525
 30
0.0
 10
167.672769
 20
76.315901
 30
0.0
 10
167.813746
 20
76.242647
 30
0.0
 10
167.948187
 20
76.157130
 30
0.0
 10
168.074972
 20
76.059963
 30
0.0
 10
168.192681
 20
75.952097
 30
0.0
 10
168.300276
 20
75.834198
 30
0.0
 10
168.397314
 20
75.707348
 30
0.0
 10
168.483202
 20
75.572962
 30
0.0
 10
168.557660
 20
75.432303
 30
0.0
 10
168.619015
 20
75.286151
 30
0.0
 10
168.665605
 20
75.134561
 30
0.0
 10
168.695116
 20
74.978509
 30
0.0
 10
168.713021
 20
74.820156
 30
0.0
 10
168.721103
 20
74.714059
 30
0.0
 10
168.725152
 20
74.660906
 30
0.0
 11
168.725152
 21
74.660906
 31
0.0
 11
168.671377
 21
74.341063
 31
0.0
 11
168.595689
 21
74.030999
 31
0.0
 11
168.476176
 21
73.740495
 31
0.0
 11
168.303026
 21
73.486154
 31
0.0
 11
168.080708
 21
73.265919
 31
0.0
 11
167.821951
 21
73.086273
 31
0.0
 11
167.529627
 21
72.949716
 31
0.0
 11
167.220148
 21
72.865830
 31
0.0
 11
166.901539
 21
72.837296
 31
0.0
 11
166.582196
 21
72.865892
 31
0.0
 11
166.271982
 21
72.949793
 31
0.0
 11
165.981128
 21
73.086273
 31
0.0
 11
165.726611
 21
73.265755
 31
0.0
 11
165.506392
 21
73.485915
 31
0.0
 11
165.326906
 21
73.740495
 31
0.0
 11
165.190586
 21
74.031618
 31
0.0
 11
165.106787
 21
74.341979
 31
0.0
 11
165.077929
 21
74.660906
 31
0.0
 11
165.084784
 21
74.820514
 31
0.0
 11
165.105710
 21
74.978602
 31
0.0
 11
165.140405
 21
75.134176
 31
0.0
 11
165.188105
 21
75.284969
 31
0.0
 11
165.248636
 21
75.431152
 31
0.0
 11
165.321578
 21
75.571564
 31
0.0
 11
165.407217
 21
75.706164
 31
0.0
 11
165.504294
 21
75.832760
 31
0.0
 11
165.612052
 21
75.950394
 31
0.0
 11
165.729699
 21
76.058140
 31
0.0
 11
165.856299
 21
76.155216
 31
0.0
 11
165.990882
 21
76.240868
 31
0.0
 11
166.131253
 21
76.313837
 31
0.0
 11
166.277417
 21
76.374379
 31
0.0
 11
166.428270
 21
76.422041
 31
0.0
 11
166.583998
 21
76.456643
 31
0.0
 11
166.742159
 21
76.477523
 31
0.0
 11
166.901539
 21
76.484519
 31
0.0
 11
167.060923
 21
76.477526
 31
0.0
 11
167.219088
 21
76.456650
 31
0.0
 11
167.374809
 21
76.422041
 31
0.0
 11
167.525642
 21
76.374379
 31
0.0
 11
167.671795
 21
76.313837
 31
0.0
 11
167.812197
 21
76.240868
 31
0.0
 11
167.946862
 21
76.155219
 31
0.0
 11
168.073501
 21
76.058145
 31
0.0
 11
168.191027
 21
75.950394
 31
0.0
 11
168.298481
 21
75.832750
 31
0.0
 11
168.395413
 21
75.706149
 31
0.0
 11
168.481501
 21
75.571564
 31
0.0
 11
168.555570
 21
75.431192
 31
0.0
 11
168.616636
 21
75.285029
 31
0.0
 11
168.662674
 21
75.134176
 31
0.0
 11
168.693132
 21
74.978446
 31
0.0
 11
168.712032
 21
74.820284
 31
0.0
 11
168.725152
 21
74.660906
 31
0.0
  0
SPLINE
  5
102
100
AcDbEntity
  8
Capa_1
 62
7
100
AcDbSpline
 70
0
 71
3
 72
61
 73
57
 74
55
 40
0.000000
 40
0.000000
 40
0.000000
 40
0.000000
 40
0.324333
 40
0.643501
 40
0.957628
 40
1.265314
 40
1.578249
 40
1.893254
 40
2.215901
 40
2.536547
 40
2.856431
 40
3.177052
 40
3.498412
 40
3.819695
 40
4.131132
 40
4.442527
 40
4.754017
 40
5.075475
 40
5.396950
 40
5.717181
 40
5.876936
 40
6.036403
 40
6.195798
 40
6.353955
 40
6.512175
 40
6.670403
 40
6.829938
 40
6.989470
 40
7.148999
 40
7.308530
 40
7.468064
 40
7.627591
 40
7.785795
 40
7.944002
 40
8.102205
 40
8.261731
 40
8.421264
 40
8.580798
 40
8.740336
 40
8.899872
 40
9.059393
 40
9.217576
 40
9.375773
 40
9.534004
 40
9.693599
 40
9.853163
 40
10.012608
 40
10.171940
 40
10.331387
 40
10.491150
 40
10.649865
 40
10.808272
 40
10.965994
 40
11.124674
 40
11.283962
 40
11.443879
 40
11.443879
 40
11.443879
 40
11.443879
 10
168.725152
 20
135.626302
 30
0.0
 10
168.708499
 20
135.519472
 30
0.0
 10
168.675458
 20
135.307512
 30
0.0
 10
168.603937
 20
134.995879
 30
0.0
 10
168.487615
 20
134.702278
 30
0.0
 10
168.309374
 20
134.443743
 30
0.0
 10
168.085890
 20
134.223943
 30
0.0
 10
167.824234
 20
134.042600
 30
0.0
 10
167.533441
 20
133.906655
 30
0.0
 10
167.222078
 20
133.822042
 30
0.0
 10
166.901289
 20
133.793000
 30
0.0
 10
166.580287
 20
133.822158
 30
0.0
 10
166.268820
 20
133.906417
 30
0.0
 10
165.979242
 20
134.041912
 30
0.0
 10
165.720897
 20
134.224364
 30
0.0
 10
165.499580
 20
134.445594
 30
0.0
 10
165.317074
 20
134.704014
 30
0.0
 10
165.181839
 20
134.993861
 30
0.0
 10
165.097769
 20
135.305285
 30
0.0
 10
165.073229
 20
135.572822
 30
0.0
 10
165.082424
 20
135.786015
 30
0.0
 10
165.103408
 20
135.944385
 30
0.0
 10
165.138073
 20
136.099773
 30
0.0
 10
165.185979
 20
136.251162
 30
0.0
 10
165.246569
 20
136.397512
 30
0.0
 10
165.319777
 20
136.538500
 30
0.0
 10
165.405310
 20
136.672894
 30
0.0
 10
165.502512
 20
136.799649
 30
0.0
 10
165.610399
 20
136.917444
 30
0.0
 10
165.728209
 20
137.025317
 30
0.0
 10
165.854965
 20
137.122513
 30
0.0
 10
165.989340
 20
137.208056
 30
0.0
 10
166.130289
 20
137.281305
 30
0.0
 10
166.276633
 20
137.341921
 30
0.0
 10
166.428093
 20
137.389793
 30
0.0
 10
166.583597
 20
137.424327
 30
0.0
 10
166.741955
 20
137.445233
 30
0.0
 10
166.901541
 20
137.452255
 30
0.0
 10
167.061127
 20
137.445236
 30
0.0
 10
167.219487
 20
137.424337
 30
0.0
 10
167.374981
 20
137.389793
 30
0.0
 10
167.526429
 20
137.341921
 30
0.0
 10
167.672769
 20
137.281297
 30
0.0
 10
167.813746
 20
137.208043
 30
0.0
 10
167.948187
 20
137.122526
 30
0.0
 10
168.074972
 20
137.025359
 30
0.0
 10
168.192681
 20
136.917493
 30
0.0
 10
168.300276
 20
136.799594
 30
0.0
 10
168.397314
 20
136.672744
 30
0.0
 10
168.483202
 20
136.538359
 30
0.0
 10
168.557660
 20
136.397699
 30
0.0
 10
168.619015
 20
136.251547
 30
0.0
 10
168.665605
 20
136.099957
 30
0.0
 10
168.695116
 20
135.943905
 30
0.0
 10
168.713021
 20
135.785552
 30
0.0
 10
168.721103
 20
135.679455
 30
0.0
 10
168.725152
 20
135.626302
 30
0.0
 11
168.725152
 21
135.626302
 31
0.0
 11
168.671377
 21
135.306459
 31
0.0
 11
168.595689
 21
134.996395
 31
0.0
 11
168.476176
 21
134.705891
 31
0.0
 11
168.303026
 21
134.451550
 31
0.0
 11
168.080708
 21
134.231315
 31
0.0
 11
167.821951
 21
134.051669
 31
0.0
 11
167.529627
 21
133.915112
 31
0.0
 11
167.220148
 21
133.831226
 31
0.0
 11
166.901539
 21
133.802692
 31
0.0
 11
166.582196
 21
133.831288
 31
0.0
 11
166.271982
 21
133.915189
 31
0.0
 11
165.981128
 21
134.051669
 31
0.0
 11
165.726611
 21
134.231151
 31
0.0
 11
165.506392
 21
134.451311
 31
0.0
 11
165.326906
 21
134.705891
 31
0.0
 11
165.190586
 21
134.997014
 31
0.0
 11
165.106787
 21
135.307375
 31
0.0
 11
165.077929
 21
135.626302
 31
0.0
 11
165.084784
 21
135.785910
 31
0.0
 11
165.105710
 21
135.943998
 31
0.0
 11
165.140405
 21
136.099572
 31
0.0
 11
165.188105
 21
136.250365
 31
0.0
 11
165.248636
 21
136.396548
 31
0.0
 11
165.321578
 21
136.536960
 31
0.0
 11
165.407217
 21
136.671561
 31
0.0
 11
165.504294
 21
136.798157
 31
0.0
 11
165.612052
 21
136.915790
 31
0.0
 11
165.729699
 21
137.023537
 31
0.0
 11
165.856299
 21
137.120612
 31
0.0
 11
165.990882
 21
137.206264
 31
0.0
 11
166.131253
 21
137.279233
 31
0.0
 11
166.277417
 21
137.339776
 31
0.0
 11
166.428270
 21
137.387437
 31
0.0
 11
166.583998
 21
137.422039
 31
0.0
 11
166.742159
 21
137.442919
 31
0.0
 11
166.901539
 21
137.449915
 31
0.0
 11
167.060923
 21
137.442922
 31
0.0
 11
167.219088
 21
137.422046
 31
0.0
 11
167.374809
 21
137.387437
 31
0.0
 11
167.525642
 21
137.339776
 31
0.0
 11
167.671795
 21
137.279233
 31
0.0
 11
167.812197
 21
137.206264
 31
0.0
 11
167.946862
 21
137.120615
 31
0.0
 11
168.073501
 21
137.023541
 31
0.0
 11
168.191027
 21
136.915790
 31
0.0
 11
168.298481
 21
136.798146
 31
0.0
 11
168.395413
 21
136.671545
 31
0.0
 11
168.481501
 21
136.536960
 31
0.0
 11
168.555570
 21
136.396588
 31
0.0
 11
168.616636
 21
136.250425
 31
0.0
 11
168.662674
 21
136.099572
 31
0.0
 11
168.693132
 21
135.943842
 31
0.0
 11
168.712032
 21
135.785680
 31
0.0
 11
168.725152
 21
135.626302
 31
0.0
  0
SPLINE
  5
103
100
AcDbEntity
  8
Capa_1
 62
7
100
AcDbSpline
 70
0
 71
3
 72
61
 73
57
 74
55
 40
0.000000
 40
0.000000
 40
0.000000
 40
0.000000
 40
0.324333
 40
0.643501
 40
0.957628
 40
1.265314
 40
1.578249
 40
1.893254
 40
2.215901
 40
2.536547
 40
2.856431
 40
3.177052
 40
3.498412
 40
3.819695
 40
4.131132
 40
4.442527
 40
4.754017
 40
5.075475
 40
5.396950
 40
5.717181
 40
5.876936
 40
6.036403
 40
6.195798
 40
6.353955
 40
6.512175
 40
6.670403
 40
6.829938
 40
6.989470
 40
7.148999
 40
7.308530
 40
7.468064
 40
7.627591
 40
7.785795
 40
7.944002
 40
8.102205
 40
8.261731
 40
8.421264
 40
8.580798
 40
8.740336
 40
8.899872
 40
9.059393
 40
9.217576
 40
9.375773
 40
9.534004
 40
9.693599
 40
9.853163
 40
10.012608
 40
10.171940
 40
10.331387
 40
10.491150
 40
10.649865
 40
10.808272
 40
10.965994
 40
11.124674
 40
11.283962
 40
11.443879
 40
11.443879
 40
11.443879
 40
11.443879
 10
45.153387
 20
74.660906
 30
0.0
 10
45.136734
 20
74.554076
 30
0.0
 10
45.103693
 20
74.342116
 30
0.0
 10
45.032172
 20
74.030483
 30
0.0
 10
44.915850
 20
73.736882
 30
0.0
 10
44.737609
 20
73.478347
 30
0.0
 10
44.514125
 20
73.258547
 30
0.0
 10
44.252469
 20
73.077204
 30
0.0
 10
43.961676
 20
72.941259
 30
0.0
 10
43.650313
 20
72.856646
 30
0.0
 10
43.329524
 20
72.827604
 30
0.0
 10
43.008522
 20
72.856762
 30
0.0
 10
42.697056
 20
72.941021
 30
0.0
 10
42.407477
 20
73.076516
 30
0.0
 10
42.149132
 20
73.258968
 30
0.0
 10
41.927815
 20
73.480198
 30
0.0
 10
41.745309
 20
73.738618
 30
0.0
 10
41.610074
 20
74.028465
 30
0.0
 10
41.526004
 20
74.339889
 30
0.0
 10
41.501464
 20
74.607426
 30
0.0
 10
41.510660
 20
74.820619
 30
0.0
 10
41.531643
 20
74.978989
 30
0.0
 10
41.566308
 20
75.134377
 30
0.0
 10
41.614214
 20
75.285766
 30
0.0
 10
41.674804
 20
75.432116
 30
0.0
 10
41.748013
 20
75.573103
 30
0.0
 10
41.833546
 20
75.707498
 30
0.0
 10
41.930747
 20
75.834253
 30
0.0
 10
42.038634
 20
75.952048
 30
0.0
 10
42.156444
 20
76.059920
 30
0.0
 10
42.283201
 20
76.157116
 30
0.0
 10
42.417575
 20
76.242660
 30
0.0
 10
42.558524
 20
76.315909
 30
0.0
 10
42.704868
 20
76.376525
 30
0.0
 10
42.856328
 20
76.424397
 30
0.0
 10
43.011832
 20
76.458931
 30
0.0
 10
43.170191
 20
76.479837
 30
0.0
 10
43.329776
 20
76.486859
 30
0.0
 10
43.489362
 20
76.479840
 30
0.0
 10
43.647722
 20
76.458941
 30
0.0
 10
43.803216
 20
76.424397
 30
0.0
 10
43.954664
 20
76.376525
 30
0.0
 10
44.101005
 20
76.315901
 30
0.0
 10
44.241981
 20
76.242647
 30
0.0
 10
44.376422
 20
76.157130
 30
0.0
 10
44.503207
 20
76.059963
 30
0.0
 10
44.620916
 20
75.952097
 30
0.0
 10
44.728512
 20
75.834198
 30
0.0
 10
44.825549
 20
75.707348
 30
0.0
 10
44.911438
 20
75.572962
 30
0.0
 10
44.985895
 20
75.432303
 30
0.0
 10
45.047250
 20
75.286151
 30
0.0
 10
45.093840
 20
75.134561
 30
0.0
 10
45.123351
 20
74.978509
 30
0.0
 10
45.141256
 20
74.820156
 30
0.0
 10
45.149338
 20
74.714059
 30
0.0
 10
45.153387
 20
74.660906
 30
0.0
 11
45.153387
 21
74.660906
 31
0.0
 11
45.099612
 21
74.341063
 31
0.0
 11
45.023925
 21
74.030999
 31
0.0
 11
44.904411
 21
73.740495
 31
0.0
 11
44.731261
 21
73.486154
 31
0.0
 11
44.508943
 21
73.265919
 31
0.0
 11
44.250186
 21
73.086273
 31
0.0
 11
43.957862
 21
72.949716
 31
0.0
 11
43.648383
 21
72.865830
 31
0.0
 11
43.329775
 21
72.837296
 31
0.0
 11
43.010431
 21
72.865892
 31
0.0
 11
42.700217
 21
72.949793
 31
0.0
 11
42.409363
 21
73.086273
 31
0.0
 11
42.154846
 21
73.265755
 31
0.0
 11
41.934627
 21
73.485915
 31
0.0
 11
41.755141
 21
73.740495
 31
0.0
 11
41.618821
 21
74.031618
 31
0.0
 11
41.535022
 21
74.341979
 31
0.0
 11
41.506165
 21
74.660906
 31
0.0
 11
41.513019
 21
74.820514
 31
0.0
 11
41.533945
 21
74.978602
 31
0.0
 11
41.568640
 21
75.134176
 31
0.0
 11
41.616340
 21
75.284969
 31
0.0
 11
41.676871
 21
75.431152
 31
0.0
 11
41.749813
 21
75.571564
 31
0.0
 11
41.835452
 21
75.706164
 31
0.0
 11
41.932529
 21
75.832760
 31
0.0
 11
42.040287
 21
75.950394
 31
0.0
 11
42.157934
 21
76.058140
 31
0.0
 11
42.284535
 21
76.155216
 31
0.0
 11
42.419117
 21
76.240868
 31
0.0
 11
42.559488
 21
76.313837
 31
0.0
 11
42.705652
 21
76.374379
 31
0.0
 11
42.856505
 21
76.422041
 31
0.0
 11
43.012233
 21
76.456643
 31
0.0
 11
43.170394
 21
76.477523
 31
0.0
 11
43.329775
 21
76.484519
 31
0.0
 11
43.489159
 21
76.477526
 31
0.0
 11
43.647323
 21
76.456650
 31
0.0
 11
43.803044
 21
76.422041
 31
0.0
 11
43.953877
 21
76.374379
 31
0.0
 11
44.100030
 21
76.313837
 31
0.0
 11
44.240432
 21
76.240868
 31
0.0
 11
44.375097
 21
76.155219
 31
0.0
 11
44.501736
 21
76.058145
 31
0.0
 11
44.619262
 21
75.950394
 31
0.0
 11
44.726717
 21
75.832750
 31
0.0
 11
44.823648
 21
75.706149
 31
0.0
 11
44.909736
 21
75.571564
 31
0.0
 11
44.983805
 21
75.431192
 31
0.0
 11
45.044871
 21
75.285029
 31
0.0
 11
45.090909
 21
75.134176
 31
0.0
 11
45.121367
 21
74.978446
 31
0.0
 11
45.140267
 21
74.820284
 31
0.0
 11
45.153387
 21
74.660906
 31
0.0
  0
SPLINE
  5
104
100
AcDbEntity
  8
Capa_1
 62
7
100
AcDbSpline
 70
0
 71
3
 72
61
 73
57
 74
55
 40
0.000000
 40
0.000000
 40
0.000000
 40
0.000000
 40
0.324333
 40
0.643501
 40
0.957628
 40
1.265314
 40
1.578249
 40
1.893254
 40
2.215901
 40
2.536547
 40
2.856431
 40
3.177052
 40
3.498412
 40
3.819695
 40
4.131132
 40
4.442527
 40
4.754017
 40
5.075475
 40
5.396950
 40
5.717181
 40
5.876936
 40
6.036403
 40
6.195798
 40
6.353955
 40
6.512175
 40
6.670403
 40
6.829938
 40
6.989470
 40
7.148999
 40
7.308530
 40
7.468064
 40
7.627591
 40
7.785795
 40
7.944002
 40
8.102205
 40
8.261731
 40
8.421264
 40
8.580798
 40
8.740336
 40
8.899872
 40
9.059393
 40
9.217576
 40
9.375773
 40
9.534004
 40
9.693599
 40
9.853163
 40
10.012608
 40
10.171940
 40
10.331387
 40
10.491150
 40
10.649865
 40
10.808272
 40
10.965994
 40
11.124674
 40
11.283962
 40
11.443879
 40
11.443879
 40
11.443879
 40
11.443879
 10
78.729930
 20
48.935891
 30
0.0
 10
78.713276
 20
48.829060
 30
0.0
 10
78.680235
 20
48.617100
 30
0.0
 10
78.608714
 20
48.305467
 30
0.0
 10
78.492392
 20
48.011867
 30
0.0
 10
78.314151
 20
47.753331
 30
0.0
 10
78.090667
 20
47.533532
 30
0.0
 10
77.829011
 20
47.352188
 30
0.0
 10
77.538219
 20
47.216243
 30
0.0
 10
77.226855
 20
47.131631
 30
0.0
 10
76.906067
 20
47.102588
 30
0.0
 10
76.585064
 20
47.131746
 30
0.0
 10
76.273598
 20
47.216006
 30
0.0
 10
75.984019
 20
47.351500
 30
0.0
 10
75.725674
 20
47.533952
 30
0.0
 10
75.504357
 20
47.755183
 30
0.0
 10
75.321852
 20
48.013603
 30
0.0
 10
75.186616
 20
48.303450
 30
0.0
 10
75.102547
 20
48.614873
 30
0.0
 10
75.078007
 20
48.882410
 30
0.0
 10
75.087202
 20
49.095603
 30
0.0
 10
75.108185
 20
49.253973
 30
0.0
 10
75.142851
 20
49.409361
 30
0.0
 10
75.190756
 20
49.560750
 30
0.0
 10
75.251346
 20
49.707101
 30
0.0
 10
75.324555
 20
49.848088
 30
0.0
 10
75.410088
 20
49.982482
 30
0.0
 10
75.507290
 20
50.109237
 30
0.0
 10
75.615176
 20
50.227033
 30
0.0
 10
75.732986
 20
50.334905
 30
0.0
 10
75.859743
 20
50.432101
 30
0.0
 10
75.994117
 20
50.517644
 30
0.0
 10
76.135066
 20
50.590893
 30
0.0
 10
76.281411
 20
50.651510
 30
0.0
 10
76.432870
 20
50.699382
 30
0.0
 10
76.588374
 20
50.733916
 30
0.0
 10
76.746733
 20
50.754822
 30
0.0
 10
76.906318
 20
50.761844
 30
0.0
 10
77.065904
 20
50.754824
 30
0.0
 10
77.224265
 20
50.733926
 30
0.0
 10
77.379759
 20
50.699381
 30
0.0
 10
77.531206
 20
50.651509
 30
0.0
 10
77.677547
 20
50.590886
 30
0.0
 10
77.818524
 20
50.517632
 30
0.0
 10
77.952964
 20
50.432115
 30
0.0
 10
78.079749
 20
50.334948
 30
0.0
 10
78.197458
 20
50.227081
 30
0.0
 10
78.305054
 20
50.109182
 30
0.0
 10
78.402091
 20
49.982333
 30
0.0
 10
78.487980
 20
49.847947
 30
0.0
 10
78.562438
 20
49.707287
 30
0.0
 10
78.623792
 20
49.561135
 30
0.0
 10
78.670382
 20
49.409545
 30
0.0
 10
78.699893
 20
49.253494
 30
0.0
 10
78.717798
 20
49.095141
 30
0.0
 10
78.725880
 20
48.989044
 30
0.0
 10
78.729930
 20
48.935891
 30
0.0
 11
78.729930
 21
48.935891
 31
0.0
 11
78.676155
 21
48.616047
 31
0.0
 11
78.600467
 21
48.305983
 31
0.0
 11
78.480953
 21
48.015479
 31
0.0
 11
78.307803
 21
47.761138
 31
0.0
 11
78.085485
 21
47.540904
 31
0.0
 11
77.826728
 21
47.361257
 31
0.0
 11
77.534404
 21
47.224700
 31
0.0
 11
77.224925
 21
47.140814
 31
0.0
 11
76.906317
 21
47.112281
 31
0.0
 11
76.586974
 21
47.140876
 31
0.0
 11
76.276759
 21
47.224777
 31
0.0
 11
75.985905
 21
47.361257
 31
0.0
 11
75.731388
 21
47.540739
 31
0.0
 11
75.511169
 21
47.760900
 31
0.0
 11
75.331683
 21
48.015479
 31
0.0
 11
75.195363
 21
48.306602
 31
0.0
 11
75.111564
 21
48.616963
 31
0.0
 11
75.082707
 21
48.935891
 31
0.0
 11
75.089561
 21
49.095499
 31
0.0
 11
75.110488
 21
49.253586
 31
0.0
 11
75.145182
 21
49.409160
 31
0.0
 11
75.192882
 21
49.559953
 31
0.0
 11
75.253413
 21
49.706136
 31
0.0
 11
75.326355
 21
49.846548
 31
0.0
 11
75.411994
 21
49.981149
 31
0.0
 11
75.509071
 21
50.107745
 31
0.0
 11
75.616829
 21
50.225378
 31
0.0
 11
75.734476
 21
50.333125
 31
0.0
 11
75.861077
 21
50.430200
 31
0.0
 11
75.995659
 21
50.515853
 31
0.0
 11
76.136030
 21
50.588821
 31
0.0
 11
76.282194
 21
50.649364
 31
0.0
 11
76.433047
 21
50.697025
 31
0.0
 11
76.588775
 21
50.731628
 31
0.0
 11
76.746936
 21
50.752508
 31
0.0
 11
76.906317
 21
50.759503
 31
0.0
 11
77.065701
 21
50.752511
 31
0.0
 11
77.223866
 21
50.731634
 31
0.0
 11
77.379586
 21
50.697025
 31
0.0
 11
77.530419
 21
50.649364
 31
0.0
 11
77.676573
 21
50.588821
 31
0.0
 11
77.816974
 21
50.515853
 31
0.0
 11
77.951639
 21
50.430203
 31
0.0
 11
78.078278
 21
50.333129
 31
0.0
 11
78.195804
 21
50.225378
 31
0.0
 11
78.303259
 21
50.107734
 31
0.0
 11
78.400190
 21
49.981133
 31
0.0
 11
78.486279
 21
49.846548
 31
0.0
 11
78.560347
 21
49.706177
 31
0.0
 11
78.621413
 21
49.560014
 31
0.0
 11
78.667451
 21
49.409160
 31
0.0
 11
78.697910
 21
49.253431
 31
0.0
 11
78.716809
 21
49.095268
 31
0.0
 11
78.729930
 21
48.935891
 31
0.0
  0
SPLINE
  5
105
100
AcDbEntity
  8
Capa_1
 62
7
100
AcDbSpline
 70
0
 71
3
 72
61
 73
57
 74
55
 40
0.000000
 40
0.000000
 40
0.000000
 40
0.000000
 40
0.324333
 40
0.643501
 40
0.957628
 40
1.265314
 40
1.578249
 40
1.893254
 40
2.215901
 40
2.536547
 40
2.856431
 40
3.177052
 40
3.498412
 40
3.819695
 40
4.131132
 40
4.442527
 40
4.754017
 40
5.075475
 40
5.396950
 40
5.717181
 40
5.876936
 40
6.036403
 40
6.195798
 40
6.353955
 40
6.512175
 40
6.670403
 40
6.829938
 40
6.989470
 40
7.148999
 40
7.308530
 40
7.468064
 40
7.627591
 40
7.785795
 40
7.944002
 40
8.102205
 40
8.261731
 40
8.421264
 40
8.580798
 40
8.740336
 40
8.899872
 40
9.059393
 40
9.217576
 40
9.375773
 40
9.534004
 40
9.693599
 40
9.853163
 40
10.012608
 40
10.171940
 40
10.331387
 40
10.491150
 40
10.649865
 40
10.808272
 40
10.965994
 40
11.124674
 40
11.283962
 40
11.443879
 40
11.443879
 40
11.443879
 40
11.443879
 10
134.897181
 20
48.935891
 30
0.0
 10
134.880528
 20
48.829060
 30
0.0
 10
134.847487
 20
48.617100
 30
0.0
 10
134.775966
 20
48.305467
 30
0.0
 10
134.659643
 20
48.011867
 30
0.0
 10
134.481403
 20
47.753331
 30
0.0
 10
134.257918
 20
47.533532
 30
0.0
 10
133.996263
 20
47.352188
 30
0.0
 10
133.705470
 20
47.216243
 30
0.0
 10
133.394107
 20
47.131631
 30
0.0
 10
133.073318
 20
47.102588
 30
0.0
 10
132.752315
 20
47.131746
 30
0.0
 10
132.440849
 20
47.216006
 30
0.0
 10
132.151271
 20
47.351500
 30
0.0
 10
131.892926
 20
47.533952
 30
0.0
 10
131.671609
 20
47.755183
 30
0.0
 10
131.489103
 20
48.013603
 30
0.0
 10
131.353868
 20
48.303450
 30
0.0
 10
131.269798
 20
48.614873
 30
0.0
 10
131.245258
 20
48.882410
 30
0.0
 10
131.254453
 20
49.095603
 30
0.0
 10
131.275437
 20
49.253973
 30
0.0
 10
131.310102
 20
49.409361
 30
0.0
 10
131.358007
 20
49.560750
 30
0.0
 10
131.418597
 20
49.707101
 30
0.0
 10
131.491806
 20
49.848088
 30
0.0
 10
131.577339
 20
49.982482
 30
0.0
 10
131.674541
 20
50.109237
 30
0.0
 10
131.782428
 20
50.227033
 30
0.0
 10
131.900237
 20
50.334905
 30
0.0
 10
132.026994
 20
50.432101
 30
0.0
 10
132.161369
 20
50.517644
 30
0.0
 10
132.302318
 20
50.590893
 30
0.0
 10
132.448662
 20
50.651510
 30
0.0
 10
132.600122
 20
50.699382
 30
0.0
 10
132.755626
 20
50.733916
 30
0.0
 10
132.913984
 20
50.754822
 30
0.0
 10
133.073569
 20
50.761844
 30
0.0
 10
133.233156
 20
50.754824
 30
0.0
 10
133.391516
 20
50.733926
 30
0.0
 10
133.547010
 20
50.699381
 30
0.0
 10
133.698457
 20
50.651509
 30
0.0
 10
133.844798
 20
50.590886
 30
0.0
 10
133.985775
 20
50.517632
 30
0.0
 10
134.120215
 20
50.432115
 30
0.0
 10
134.247001
 20
50.334948
 30
0.0
 10
134.364709
 20
50.227081
 30
0.0
 10
134.472305
 20
50.109182
 30
0.0
 10
134.569343
 20
49.982333
 30
0.0
 10
134.655231
 20
49.847947
 30
0.0
 10
134.729689
 20
49.707287
 30
0.0
 10
134.791043
 20
49.561135
 30
0.0
 10
134.837634
 20
49.409545
 30
0.0
 10
134.867144
 20
49.253494
 30
0.0
 10
134.885049
 20
49.095141
 30
0.0
 10
134.893132
 20
48.989044
 30
0.0
 10
134.897181
 20
48.935891
 30
0.0
 11
134.897181
 21
48.935891
 31
0.0
 11
134.843406
 21
48.616047
 31
0.0
 11
134.767718
 21
48.305983
 31
0.0
 11
134.648204
 21
48.015479
 31
0.0
 11
134.475055
 21
47.761138
 31
0.0
 11
134.252737
 21
47.540904
 31
0.0
 11
133.993980
 21
47.361257
 31
0.0
 11
133.701656
 21
47.224700
 31
0.0
 11
133.392176
 21
47.140814
 31
0.0
 11
133.073568
 21
47.112281
 31
0.0
 11
132.754225
 21
47.140876
 31
0.0
 11
132.444011
 21
47.224777
 31
0.0
 11
132.153157
 21
47.361257
 31
0.0
 11
131.898639
 21
47.540739
 31
0.0
 11
131.678421
 21
47.760900
 31
0.0
 11
131.498935
 21
48.015479
 31
0.0
 11
131.362615
 21
48.306602
 31
0.0
 11
131.278815
 21
48.616963
 31
0.0
 11
131.249958
 21
48.935891
 31
0.0
 11
131.256813
 21
49.095499
 31
0.0
 11
131.277739
 21
49.253586
 31
0.0
 11
131.312434
 21
49.409160
 31
0.0
 11
131.360134
 21
49.559953
 31
0.0
 11
131.420664
 21
49.706136
 31
0.0
 11
131.493606
 21
49.846548
 31
0.0
 11
131.579246
 21
49.981149
 31
0.0
 11
131.676323
 21
50.107745
 31
0.0
 11
131.784081
 21
50.225378
 31
0.0
 11
131.901728
 21
50.333125
 31
0.0
 11
132.028328
 21
50.430200
 31
0.0
 11
132.162910
 21
50.515853
 31
0.0
 11
132.303282
 21
50.588821
 31
0.0
 11
132.449446
 21
50.649364
 31
0.0
 11
132.600298
 21
50.697025
 31
0.0
 11
132.756027
 21
50.731628
 31
0.0
 11
132.914188
 21
50.752508
 31
0.0
 11
133.073568
 21
50.759503
 31
0.0
 11
133.232952
 21
50.752511
 31
0.0
 11
133.391117
 21
50.731634
 31
0.0
 11
133.546838
 21
50.697025
 31
0.0
 11
133.697671
 21
50.649364
 31
0.0
 11
133.843824
 21
50.588821
 31
0.0
 11
133.984226
 21
50.515853
 31
0.0
 11
134.118890
 21
50.430203
 31
0.0
 11
134.245530
 21
50.333129
 31
0.0
 11
134.363056
 21
50.225378
 31
0.0
 11
134.470510
 21
50.107734
 31
0.0
 11
134.567442
 21
49.981133
 31
0.0
 11
134.653530
 21
49.846548
 31
0.0
 11
134.727598
 21
49.706177
 31
0.0
 11
134.788665
 21
49.560014
 31
0.0
 11
134.834703
 21
49.409160
 31
0.0
 11
134.865161
 21
49.253431
 31
0.0
 11
134.884060
 21
49.095268
 31
0.0
 11
134.897181
 21
48.935891
 31
0.0
  0
SPLINE
  5
106
100
AcDbEntity
  8
Capa_1
 62
7
100
AcDbSpline
 70
0
 71
3
 72
61
 73
57
 74
55
 40
0.000000
 40
0.000000
 40
0.000000
 40
0.000000
 40
0.324333
 40
0.643501
 40
0.957628
 40
1.265314
 40
1.578249
 40
1.893254
 40
2.215901
 40
2.536547
 40
2.856431
 40
3.177052
 40
3.498412
 40
3.819695
 40
4.131132
 40
4.442527
 40
4.754017
 40
5.075475
 40
5.396950
 40
5.717181
 40
5.876936
 40
6.036403
 40
6.195798
 40
6.353955
 40
6.512175
 40
6.670403
 40
6.829938
 40
6.989470
 40
7.148999
 40
7.308530
 40
7.468064
 40
7.627591
 40
7.785795
 40
7.944002
 40
8.102205
 40
8.261731
 40
8.421264
 40
8.580798
 40
8.740336
 40
8.899872
 40
9.059393
 40
9.217576
 40
9.375773
 40
9.534004
 40
9.693599
 40
9.853163
 40
10.012608
 40
10.171940
 40
10.331387
 40
10.491150
 40
10.649865
 40
10.808272
 40
10.965994
 40
11.124674
 40
11.283962
 40
11.443879
 40
11.443879
 40
11.443879
 40
11.443879
 10
78.729930
 20
166.340335
 30
0.0
 10
78.713276
 20
166.233505
 30
0.0
 10
78.680235
 20
166.021545
 30
0.0
 10
78.608714
 20
165.709911
 30
0.0
 10
78.492392
 20
165.416311
 30
0.0
 10
78.314151
 20
165.157775
 30
0.0
 10
78.090667
 20
164.937976
 30
0.0
 10
77.829011
 20
164.756633
 30
0.0
 10
77.538219
 20
164.620688
 30
0.0
 10
77.226855
 20
164.536075
 30
0.0
 10
76.906067
 20
164.507033
 30
0.0
 10
76.585064
 20
164.536190
 30
0.0
 10
76.273598
 20
164.620450
 30
0.0
 10
75.984019
 20
164.755945
 30
0.0
 10
75.725674
 20
164.938397
 30
0.0
 10
75.504357
 20
165.159627
 30
0.0
 10
75.321852
 20
165.418047
 30
0.0
 10
75.186616
 20
165.707894
 30
0.0
 10
75.102547
 20
166.019318
 30
0.0
 10
75.078007
 20
166.286855
 30
0.0
 10
75.087202
 20
166.500047
 30
0.0
 10
75.108185
 20
166.658417
 30
0.0
 10
75.142851
 20
166.813806
 30
0.0
 10
75.190756
 20
166.965195
 30
0.0
 10
75.251346
 20
167.111545
 30
0.0
 10
75.324555
 20
167.252532
 30
0.0
 10
75.410088
 20
167.386927
 30
0.0
 10
75.507290
 20
167.513681
 30
0.0
 10
75.615176
 20
167.631477
 30
0.0
 10
75.732986
 20
167.739349
 30
0.0
 10
75.859743
 20
167.836545
 30
0.0
 10
75.994117
 20
167.922089
 30
0.0
 10
76.135066
 20
167.995338
 30
0.0
 10
76.281411
 20
168.055954
 30
0.0
 10
76.432870
 20
168.103826
 30
0.0
 10
76.588374
 20
168.138360
 30
0.0
 10
76.746733
 20
168.159266
 30
0.0
 10
76.906318
 20
168.166288
 30
0.0
 10
77.065904
 20
168.159269
 30
0.0
 10
77.224265
 20
168.138370
 30
0.0
 10
77.379759
 20
168.103826
 30
0.0
 10
77.531206
 20
168.055953
 30
0.0
 10
77.677547
 20
167.995330
 30
0.0
 10
77.818524
 20
167.922076
 30
0.0
 10
77.952964
 20
167.836559
 30
0.0
 10
78.079749
 20
167.739392
 30
0.0
 10
78.197458
 20
167.631526
 30
0.0
 10
78.305054
 20
167.513626
 30
0.0
 10
78.402091
 20
167.386777
 30
0.0
 10
78.487980
 20
167.252391
 30
0.0
 10
78.562438
 20
167.111731
 30
0.0
 10
78.623792
 20
166.965580
 30
0.0
 10
78.670382
 20
166.813990
 30
0.0
 10
78.699893
 20
166.657938
 30
0.0
 10
78.717798
 20
166.499585
 30
0.0
 10
78.725880
 20
166.393488
 30
0.0
 10
78.729930
 20
166.340335
 30
0.0
 11
78.729930
 21
166.340335
 31
0.0
 11
78.676155
 21
166.020491
 31
0.0
 11
78.600467
 21
165.710428
 31
0.0
 11
78.480953
 21
165.419924
 31
0.0
 11
78.307803
 21
165.165582
 31
0.0
 11
78.085485
 21
164.945348
 31
0.0
 11
77.826728
 21
164.765702
 31
0.0
 11
77.534404
 21
164.629145
 31
0.0
 11
77.224925
 21
164.545259
 31
0.0
 11
76.906317
 21
164.516725
 31
0.0
 11
76.586974
 21
164.545321
 31
0.0
 11
76.276759
 21
164.629222
 31
0.0
 11
75.985905
 21
164.765702
 31
0.0
 11
75.731388
 21
164.945184
 31
0.0
 11
75.511169
 21
165.165344
 31
0.0
 11
75.331683
 21
165.419924
 31
0.0
 11
75.195363
 21
165.711047
 31
0.0
 11
75.111564
 21
166.021408
 31
0.0
 11
75.082707
 21
166.340335
 31
0.0
 11
75.089561
 21
166.499943
 31
0.0
 11
75.110488
 21
166.658031
 31
0.0
 11
75.145182
 21
166.813605
 31
0.0
 11
75.192882
 21
166.964397
 31
0.0
 11
75.253413
 21
167.110580
 31
0.0
 11
75.326355
 21
167.250993
 31
0.0
 11
75.411994
 21
167.385593
 31
0.0
 11
75.509071
 21
167.512189
 31
0.0
 11
75.616829
 21
167.629823
 31
0.0
 11
75.734476
 21
167.737569
 31
0.0
 11
75.861077
 21
167.834644
 31
0.0
 11
75.995659
 21
167.920297
 31
0.0
 11
76.136030
 21
167.993266
 31
0.0
 11
76.282194
 21
168.053808
 31
0.0
 11
76.433047
 21
168.101470
 31
0.0
 11
76.588775
 21
168.136072
 31
0.0
 11
76.746936
 21
168.156952
 31
0.0
 11
76.906317
 21
168.163948
 31
0.0
 11
77.065701
 21
168.156955
 31
0.0
 11
77.223866
 21
168.136079
 31
0.0
 11
77.379586
 21
168.101470
 31
0.0
 11
77.530419
 21
168.053808
 31
0.0
 11
77.676573
 21
167.993266
 31
0.0
 11
77.816974
 21
167.920297
 31
0.0
 11
77.951639
 21
167.834648
 31
0.0
 11
78.078278
 21
167.737574
 31
0.0
 11
78.195804
 21
167.629823
 31
0.0
 11
78.303259
 21
167.512179
 31
0.0
 11
78.400190
 21
167.385578
 31
0.0
 11
78.486279
 21
167.250993
 31
0.0
 11
78.560347
 21
167.110621
 31
0.0
 11
78.621413
 21
166.964458
 31
0.0
 11
78.667451
 21
166.813605
 31
0.0
 11
78.697910
 21
166.657875
 31
0.0
 11
78.716809
 21
166.499713
 31
0.0
 11
78.729930
 21
166.340335
 31
0.0
  0
SPLINE
  5
107
100
AcDbEntity
  8
Capa_1
 62
7
100
AcDbSpline
 70
0
 71
3
 72
61
 73
57
 74
55
 40
0.000000
 40
0.000000
 40
0.000000
 40
0.000000
 40
0.324333
 40
0.643501
 40
0.957628
 40
1.265314
 40
1.578249
 40
1.893254
 40
2.215901
 40
2.536547
 40
2.856431
 40
3.177052
 40
3.498412
 40
3.819695
 40
4.131132
 40
4.442527
 40
4.754017
 40
5.075475
 40
5.396950
 40
5.717181
 40
5.876936
 40
6.036403
 40
6.195798
 40
6.353955
 40
6.512175
 40
6.670403
 40
6.829938
 40
6.989470
 40
7.148999
 40
7.308530
 40
7.468064
 40
7.627591
 40
7.785795
 40
7.944002
 40
8.102205
 40
8.261731
 40
8.421264
 40
8.580798
 40
8.740336
 40
8.899872
 40
9.059393
 40
9.217576
 40
9.375773
 40
9.534004
 40
9.693599
 40
9.853163
 40
10.012608
 40
10.171940
 40
10.331387
 40
10.491150
 40
10.649865
 40
10.808272
 40
10.965994
 40
11.124674
 40
11.283962
 40
11.443879
 40
11.443879
 40
11.443879
 40
11.443879
 10
134.897181
 20
166.340335
 30
0.0
 10
134.880528
 20
166.233505
 30
0.0
 10
134.847487
 20
166.021545
 30
0.0
 10
134.775966
 20
165.709911
 30
0.0
 10
134.659643
 20
165.416311
 30
0.0
 10
134.481403
 20
165.157775
 30
0.0
 10
134.257918
 20
164.937976
 30
0.0
 10
133.996263
 20
164.756633
 30
0.0
 10
133.705470
 20
164.620688
 30
0.0
 10
133.394107
 20
164.536075
 30
0.0
 10
133.073318
 20
164.507033
 30
0.0
 10
132.752315
 20
164.536190
 30
0.0
 10
132.440849
 20
164.620450
 30
0.0
 10
132.151271
 20
164.755945
 30
0.0
 10
131.892926
 20
164.938397
 30
0.0
 10
131.671609
 20
165.159627
 30
0.0
 10
131.489103
 20
165.418047
 30
0.0
 10
131.353868
 20
165.707894
 30
0.0
 10
131.269798
 20
166.019318
 30
0.0
 10
131.245258
 20
166.286855
 30
0.0
 10
131.254453
 20
166.500047
 30
0.0
 10
131.275437
 20
166.658417
 30
0.0
 10
131.310102
 20
166.813806
 30
0.0
 10
131.358007
 20
166.965195
 30
0.0
 10
131.418597
 20
167.111545
 30
0.0
 10
131.491806
 20
167.252532
 30
0.0
 10
131.577339
 20
167.386927
 30
0.0
 10
131.674541
 20
167.513681
 30
0.0
 10
131.782428
 20
167.631477
 30
0.0
 10
131.900237
 20
167.739349
 30
0.0
 10
132.026994
 20
167.836545
 30
0.0
 10
132.161369
 20
167.922089
 30
0.0
 10
132.302318
 20
167.995338
 30
0.0
 10
132.448662
 20
168.055954
 30
0.0
 10
132.600122
 20
168.103826
 30
0.0
 10
132.755626
 20
168.138360
 30
0.0
 10
132.913984
 20
168.159266
 30
0.0
 10
133.073569
 20
168.166288
 30
0.0
 10
133.233156
 20
168.159269
 30
0.0
 10
133.391516
 20
168.138370
 30
0.0
 10
133.547010
 20
168.103826
 30
0.0
 10
133.698457
 20
168.055953
 30
0.0
 10
133.844798
 20
167.995330
 30
0.0
 10
133.985775
 20
167.922076
 30
0.0
 10
134.120215
 20
167.836559
 30
0.0
 10
134.247001
 20
167.739392
 30
0.0
 10
134.364709
 20
167.631526
 30
0.0
 10
134.472305
 20
167.513626
 30
0.0
 10
134.569343
 20
167.386777
 30
0.0
 10
134.655231
 20
167.252391
 30
0.0
 10
134.729689
 20
167.111731
 30
0.0
 10
134.791043
 20
166.965580
 30
0.0
 10
134.837634
 20
166.813990
 30
0.0
 10
134.867144
 20
166.657938
 30
0.0
 10
134.885049
 20
166.499585
 30
0.0
 10
134.893132
 20
166.393488
 30
0.0
 10
134.897181
 20
166.340335
 30
0.0
 11
134.897181
 21
166.340335
 31
0.0
 11
134.843406
 21
166.020491
 31
0.0
 11
134.767718
 21
165.710428
 31
0.0
 11
134.648204
 21
165.419924
 31
0.0
 11
134.475055
 21
165.165582
 31
0.0
 11
134.252737
 21
164.945348
 31
0.0
 11
133.993980
 21
164.765702
 31
0.0
 11
133.701656
 21
164.629145
 31
0.0
 11
133.392176
 21
164.545259
 31
0.0
 11
133.073568
 21
164.516725
 31
0.0
 11
132.754225
 21
164.545321
 31
0.0
 11
132.444011
 21
164.629222
 31
0.0
 11
132.153157
 21
164.765702
 31
0.0
 11
131.898639
 21
164.945184
 31
0.0
 11
131.678421
 21
165.165344
 31
0.0
 11
131.498935
 21
165.419924
 31
0.0
 11
131.362615
 21
165.711047
 31
0.0
 11
131.278815
 21
166.021408
 31
0.0
 11
131.249958
 21
166.340335
 31
0.0
 11
131.256813
 21
166.499943
 31
0.0
 11
131.277739
 21
166.658031
 31
0.0
 11
131.312434
 21
166.813605
 31
0.0
 11
131.360134
 21
166.964397
 31
0.0
 11
131.420664
 21
167.110580
 31
0.0
 11
131.493606
 21
167.250993
 31
0.0
 11
131.579246
 21
167.385593
 31
0.0
 11
131.676323
 21
167.512189
 31
0.0
 11
131.784081
 21
167.629823
 31
0.0
 11
131.901728
 21
167.737569
 31
0.0
 11
132.028328
 21
167.834644
 31
0.0
 11
132.162910
 21
167.920297
 31
0.0
 11
132.303282
 21
167.993266
 31
0.0
 11
132.449446
 21
168.053808
 31
0.0
 11
132.600298
 21
168.101470
 31
0.0
 11
132.756027
 21
168.136072
 31
0.0
 11
132.914188
 21
168.156952
 31
0.0
 11
133.073568
 21
168.163948
 31
0.0
 11
133.232952
 21
168.156955
 31
0.0
 11
133.391117
 21
168.136079
 31
0.0
 11
133.546838
 21
168.101470
 31
0.0
 11
133.697671
 21
168.053808
 31
0.0
 11
133.843824
 21
167.993266
 31
0.0
 11
133.984226
 21
167.920297
 31
0.0
 11
134.118890
 21
167.834648
 31
0.0
 11
134.245530
 21
167.737574
 31
0.0
 11
134.363056
 21
167.629823
 31
0.0
 11
134.470510
 21
167.512179
 31
0.0
 11
134.567442
 21
167.385578
 31
0.0
 11
134.653530
 21
167.250993
 31
0.0
 11
134.727598
 21
167.110621
 31
0.0
 11
134.788665
 21
166.964458
 31
0.0
 11
134.834703
 21
166.813605
 31
0.0
 11
134.865161
 21
166.657875
 31
0.0
 11
134.884060
 21
166.499713
 31
0.0
 11
134.897181
 21
166.340335
 31
0.0
  0
LINE
  5
108
100
AcDbEntity
  8
Capa_1
 62
7
100
AcDbLine
 10
16.512498
 20
145.682030
 30
0.0
 11
16.512498
 21
145.682030
 31
0.0
  0
SPLINE
  5
109
100
AcDbEntity
  8
Capa_1
 62
7
100
AcDbSpline
 70
0
 71
3
 72
25
 73
21
 74
19
 40
0.000000
 40
0.000000
 40
0.000000
 40
0.000000
 40
0.953491
 40
1.878702
 40
2.832193
 40
3.785684
 40
4.710894
 40
5.664385
 40
6.141761
 40
6.615186
 40
7.092562
 40
7.569937
 40
8.043363
 40
8.520738
 40
8.998114
 40
9.471539
 40
9.948915
 40
10.426290
 40
10.899716
 40
11.377091
 40
11.377091
 40
11.377091
 40
11.377091
 10
16.512498
 20
145.682030
 30
0.0
 10
16.462376
 20
145.360556
 30
0.0
 10
16.363618
 20
144.727144
 30
0.0
 10
15.637615
 20
144.029831
 30
0.0
 10
14.690543
 20
143.771371
 30
0.0
 10
13.733642
 20
144.030039
 30
0.0
 10
13.036541
 20
144.726330
 30
0.0
 10
12.822486
 20
145.523995
 30
0.0
 10
12.907372
 20
146.159242
 30
0.0
 10
13.091447
 20
146.604315
 30
0.0
 10
13.384513
 20
146.986400
 30
0.0
 10
13.766657
 20
147.279441
 30
0.0
 10
14.211468
 20
147.463680
 30
0.0
 10
14.688880
 20
147.526710
 30
0.0
 10
15.166340
 20
147.463681
 30
0.0
 10
15.611009
 20
147.279437
 30
0.0
 10
15.993678
 20
146.986415
 30
0.0
 10
16.284787
 20
146.604258
 30
0.0
 10
16.476129
 20
146.159452
 30
0.0
 10
16.500342
 20
145.841611
 30
0.0
 10
16.512498
 20
145.682030
 30
0.0
 11
16.512498
 21
145.682030
 31
0.0
 11
16.263521
 21
144.761619
 31
0.0
 11
15.609299
 21
144.107396
 31
0.0
 11
14.688888
 21
143.858420
 31
0.0
 11
13.768477
 21
144.107396
 31
0.0
 11
13.114255
 21
144.761619
 31
0.0
 11
12.865278
 21
145.682030
 31
0.0
 11
12.927756
 21
146.155299
 31
0.0
 11
13.108927
 21
146.592687
 31
0.0
 11
13.399400
 21
146.971518
 31
0.0
 11
13.778231
 21
147.261992
 31
0.0
 11
14.215619
 21
147.443164
 31
0.0
 11
14.688888
 21
147.505642
 31
0.0
 11
15.162158
 21
147.443164
 31
0.0
 11
15.599545
 21
147.261992
 31
0.0
 11
15.978376
 21
146.971518
 31
0.0
 11
16.268849
 21
146.592687
 31
0.0
 11
16.450021
 21
146.155299
 31
0.0
 11
16.512498
 21
145.682030
 31
0.0
  0
LINE
  5
10a
100
AcDbEntity
  8
Capa_1
 62
7
100
AcDbLine
 10
16.512498
 20
64.317970
 30
0.0
 11
16.512498
 21
64.317970
 31
0.0
  0
SPLINE
  5
10b
100
AcDbEntity
  8
Capa_1
 62
7
100
AcDbSpline
 70
0
 71
3
 72
25
 73
21
 74
19
 40
0.000000
 40
0.000000
 40
0.000000
 40
0.000000
 40
0.953491
 40
1.878702
 40
2.832193
 40
3.785684
 40
4.710894
 40
5.664385
 40
6.141761
 40
6.615186
 40
7.092562
 40
7.569937
 40
8.043363
 40
8.520738
 40
8.998114
 40
9.471539
 40
9.948915
 40
10.426290
 40
10.899716
 40
11.377091
 40
11.377091
 40
11.377091
 40
11.377091
 10
16.512498
 20
64.317970
 30
0.0
 10
16.462376
 20
63.996496
 30
0.0
 10
16.363618
 20
63.363084
 30
0.0
 10
15.637615
 20
62.665771
 30
0.0
 10
14.690543
 20
62.407311
 30
0.0
 10
13.733642
 20
62.665979
 30
0.0
 10
13.036541
 20
63.362270
 30
0.0
 10
12.822486
 20
64.159935
 30
0.0
 10
12.907372
 20
64.795183
 30
0.0
 10
13.091447
 20
65.240255
 30
0.0
 10
13.384513
 20
65.622340
 30
0.0
 10
13.766657
 20
65.915381
 30
0.0
 10
14.211468
 20
66.099620
 30
0.0
 10
14.688880
 20
66.162651
 30
0.0
 10
15.166340
 20
66.099621
 30
0.0
 10
15.611009
 20
65.915377
 30
0.0
 10
15.993678
 20
65.622355
 30
0.0
 10
16.284787
 20
65.240198
 30
0.0
 10
16.476129
 20
64.795393
 30
0.0
 10
16.500342
 20
64.477551
 30
0.0
 10
16.512498
 20
64.317970
 30
0.0
 11
16.512498
 21
64.317970
 31
0.0
 11
16.263521
 21
63.397559
 31
0.0
 11
15.609299
 21
62.743336
 31
0.0
 11
14.688888
 21
62.494360
 31
0.0
 11
13.768477
 21
62.743336
 31
0.0
 11
13.114255
 21
63.397559
 31
0.0
 11
12.865278
 21
64.317970
 31
0.0
 11
12.927756
 21
64.791239
 31
0.0
 11
13.108927
 21
65.228627
 31
0.0
 11
13.399400
 21
65.607458
 31
0.0
 11
13.778231
 21
65.897932
 31
0.0
 11
14.215619
 21
66.079104
 31
0.0
 11
14.688888
 21
66.141582
 31
0.0
 11
15.162158
 21
66.079104
 31
0.0
 11
15.599545
 21
65.897932
 31
0.0
 11
15.978376
 21
65.607458
 31
0.0
 11
16.268849
 21
65.228627
 31
0.0
 11
16.450021
 21
64.791239
 31
0.0
 11
16.512498
 21
64.317970
 31
0.0
  0
LINE
  5
10c
100
AcDbEntity
  8
Capa_1
 62
7
100
AcDbLine
 10
197.134720
 20
145.682030
 30
0.0
 11
197.134720
 21
145.682030
 31
0.0
  0
SPLINE
  5
10d
100
AcDbEntity
  8
Capa_1
 62
7
100
AcDbSpline
 70
0
 71
3
 72
25
 73
21
 74
19
 40
0.000000
 40
0.000000
 40
0.000000
 40
0.000000
 40
0.953491
 40
1.878702
 40
2.832193
 40
3.785684
 40
4.710894
 40
5.664385
 40
6.141761
 40
6.615186
 40
7.092562
 40
7.569937
 40
8.043363
 40
8.520738
 40
8.998114
 40
9.471539
 40
9.948915
 40
10.426290
 40
10.899716
 40
11.377091
 40
11.377091
 40
11.377091
 40
11.377091
 10
197.134720
 20
145.682030
 30
0.0
 10
197.084598
 20
145.360556
 30
0.0
 10
196.985840
 20
144.727144
 30
0.0
 10
196.259837
 20
144.029831
 30
0.0
 10
195.312765
 20
143.771371
 30
0.0
 10
194.355864
 20
144.030039
 30
0.0
 10
193.658763
 20
144.726330
 30
0.0
 10
193.444708
 20
145.523995
 30
0.0
 10
193.529594
 20
146.159242
 30
0.0
 10
193.713669
 20
146.604315
 30
0.0
 10
194.006735
 20
146.986400
 30
0.0
 10
194.388879
 20
147.279441
 30
0.0
 10
194.833690
 20
147.463680
 30
0.0
 10
195.311102
 20
147.526710
 30
0.0
 10
195.788562
 20
147.463681
 30
0.0
 10
196.233231
 20
147.279437
 30
0.0
 10
196.615900
 20
146.986415
 30
0.0
 10
196.907009
 20
146.604258
 30
0.0
 10
197.098351
 20
146.159452
 30
0.0
 10
197.122564
 20
145.841611
 30
0.0
 10
197.134720
 20
145.682030
 30
0.0
 11
197.134720
 21
145.682030
 31
0.0
 11
196.885744
 21
144.761619
 31
0.0
 11
196.231521
 21
144.107396
 31
0.0
 11
195.311110
 21
143.858420
 31
0.0
 11
194.390700
 21
144.107396
 31
0.0
 11
193.736477
 21
144.761619
 31
0.0
 11
193.487500
 21
145.682030
 31
0.0
 11
193.549978
 21
146.155299
 31
0.0
 11
193.731149
 21
146.592687
 31
0.0
 11
194.021623
 21
146.971518
 31
0.0
 11
194.400453
 21
147.261992
 31
0.0
 11
194.837841
 21
147.443164
 31
0.0
 11
195.311110
 21
147.505642
 31
0.0
 11
195.784380
 21
147.443164
 31
0.0
 11
196.221767
 21
147.261992
 31
0.0
 11
196.600598
 21
146.971518
 31
0.0
 11
196.891071
 21
146.592687
 31
0.0
 11
197.072243
 21
146.155299
 31
0.0
 11
197.134720
 21
145.682030
 31
0.0
  0
LINE
  5
10e
100
AcDbEntity
  8
Capa_1
 62
7
100
AcDbLine
 10
197.134720
 20
64.317970
 30
0.0
 11
197.134720
 21
64.317970
 31
0.0
  0
SPLINE
  5
10f
100
AcDbEntity
  8
Capa_1
 62
7
100
AcDbSpline
 70
0
 71
3
 72
25
 73
21
 74
19
 40
0.000000
 40
0.000000
 40
0.000000
 40
0.000000
 40
0.953491
 40
1.878702
 40
2.832193
 40
3.785684
 40
4.710894
 40
5.664385
 40
6.141761
 40
6.615186
 40
7.092562
 40
7.569937
 40
8.043363
 40
8.520738
 40
8.998114
 40
9.471539
 40
9.948915
 40
10.426290
 40
10.899716
 40
11.377091
 40
11.377091
 40
11.377091
 40
11.377091
 10
197.134720
 20
64.317970
 30
0.0
 10
197.084598
 20
63.996496
 30
0.0
 10
196.985840
 20
63.363084
 30
0.0
 10
196.259837
 20
62.665771
 30
0.0
 10
195.312765
 20
62.407311
 30
0.0
 10
194.355864
 20
62.665979
 30
0.0
 10
193.658763
 20
63.362270
 30
0.0
 10
193.444708
 20
64.159935
 30
0.0
 10
193.529594
 20
64.795183
 30
0.0
 10
193.713669
 20
65.240255
 30
0.0
 10
194.006735
 20
65.622340
 30
0.0
 10
194.388879
 20
65.915381
 30
0.0
 10
194.833690
 20
66.099620
 30
0.0
 10
195.311102
 20
66.162651
 30
0.0
 10
195.788562
 20
66.099621
 30
0.0
 10
196.233231
 20
65.915377
 30
0.0
 10
196.615900
 20
65.622355
 30
0.0
 10
196.907009
 20
65.240198
 30
0.0
 10
197.098351
 20
64.795393
 30
0.0
 10
197.122564
 20
64.477551
 30
0.0
 10
197.134720
 20
64.317970
 30
0.0
 11
197.134720
 21
64.317970
 31
0.0
 11
196.885744
 21
63.397559
 31
0.0
 11
196.231521
 21
62.743336
 31
0.0
 11
195.311110
 21
62.494360
 31
0.0
 11
194.390700
 21
62.743336
 31
0.0
 11
193.736477
 21
63.397559
 31
0.0
 11
193.487500
 21
64.317970
 31
0.0
 11
193.549978
 21
64.791239
 31
0.0
 11
193.731149
 21
65.228627
 31
0.0
 11
194.021623
 21
65.607458
 31
0.0
 11
194.400453
 21
65.897932
 31
0.0
 11
194.837841
 21
66.079104
 31
0.0
 11
195.311110
 21
66.141582
 31
0.0
 11
195.784380
 21
66.079104
 31
0.0
 11
196.221767
 21
65.897932
 31
0.0
 11
196.600598
 21
65.607458
 31
0.0
 11
196.891071
 21
65.228627
 31
0.0
 11
197.072243
 21
64.791239
 31
0.0
 11
197.134720
 21
64.317970
 31
0.0
  0
LINE
  5
110
100
AcDbEntity
  8
Capa_1
 62
7
100
AcDbLine
 10
209.823611
 20
105.000001
 30
0.0
 11
209.823611
 21
105.000001
 31
0.0
  0
SPLINE
  5
111
100
AcDbEntity
  8
Capa_1
 62
7
100
AcDbSpline
 70
0
 71
3
 72
25
 73
21
 74
19
 40
0.000000
 40
0.000000
 40
0.000000
 40
0.000000
 40
27.440188
 40
54.653300
 40
82.093488
 40
109.533676
 40
136.746788
 40
164.186976
 40
218.994957
 40
272.177351
 40
326.985332
 40
381.793314
 40
434.975707
 40
489.783689
 40
517.223877
 40
544.436988
 40
571.877177
 40
599.317365
 40
626.530476
 40
653.970665
 40
653.970665
 40
653.970665
 40
653.970665
 10
209.823611
 20
105.000001
 30
0.0
 10
209.124812
 20
95.827077
 30
0.0
 10
207.732996
 20
77.557137
 30
0.0
 10
196.734645
 20
51.988948
 30
0.0
 10
180.000205
 20
30.022756
 30
0.0
 10
158.007991
 20
13.176952
 30
0.0
 10
132.432446
 20
2.595843
 30
0.0
 10
95.915034
 20
-2.282518
 30
0.0
 10
50.065132
 20
10.013891
 30
0.0
 10
10.042083
 20
50.115769
 30
0.0
 10
-4.830713
 20
105.000001
 30
0.0
 10
10.042083
 20
159.884233
 30
0.0
 10
50.065132
 20
199.986111
 30
0.0
 10
95.915034
 20
212.282520
 30
0.0
 10
132.432446
 20
207.404159
 30
0.0
 10
158.007991
 20
196.823051
 30
0.0
 10
180.000205
 20
179.977246
 30
0.0
 10
196.734645
 20
158.011054
 30
0.0
 10
207.732996
 20
132.442866
 30
0.0
 10
209.124812
 20
114.172926
 30
0.0
 10
209.823611
 20
105.000001
 30
0.0
 11
209.823611
 21
105.000001
 31
0.0
 11
206.232298
 21
77.795839
 31
0.0
 11
195.818292
 21
52.654203
 31
0.0
 11
179.121485
 21
30.878515
 31
0.0
 11
157.345796
 21
14.181709
 31
0.0
 11
132.204160
 21
3.767703
 31
0.0
 11
104.999998
 21
0.176391
 31
0.0
 11
52.093515
 21
14.487887
 31
0.0
 11
14.487884
 21
52.093518
 31
0.0
 11
0.176389
 21
105.000001
 31
0.0
 11
14.487884
 21
157.906484
 31
0.0
 11
52.093515
 21
195.512115
 31
0.0
 11
104.999998
 21
209.823611
 31
0.0
 11
132.204160
 21
206.232299
 31
0.0
 11
157.345796
 21
195.818293
 31
0.0
 11
179.121485
 21
179.121488
 31
0.0
 11
195.818292
 21
157.345799
 31
0.0
 11
206.232298
 21
132.204163
 31
0.0
 11
209.823611
 21
105.000001
 31
0.0
  0
LINE
  5
112
100
AcDbEntity
  8
Capa_1
 62
7
100
AcDbLine
 10
68.701411
 20
13.885810
 30
0.0
 11
68.701411
 21
13.885810
 31
0.0
  0
SPLINE
  5
113
100
AcDbEntity
  8
Capa_1
 62
7
100
AcDbSpline
 70
0
 71
3
 72
25
 73
21
 74
19
 40
0.000000
 40
0.000000
 40
0.000000
 40
0.000000
 40
0.953491
 40
1.878702
 40
2.832193
 40
3.785684
 40
4.710894
 40
5.664385
 40
6.141761
 40
6.615186
 40
7.092562
 40
7.569937
 40
8.043363
 40
8.520738
 40
8.998114
 40
9.471539
 40
9.948915
 40
10.426290
 40
10.899716
 40
11.377091
 40
11.377091
 40
11.377091
 40
11.377091
 10
68.701411
 20
13.885810
 30
0.0
 10
68.651289
 20
13.564336
 30
0.0
 10
68.552531
 20
12.930924
 30
0.0
 10
67.826528
 20
12.233611
 30
0.0
 10
66.879456
 20
11.975151
 30
0.0
 10
65.922555
 20
12.233819
 30
0.0
 10
65.225454
 20
12.930111
 30
0.0
 10
65.011399
 20
13.727775
 30
0.0
 10
65.096285
 20
14.363023
 30
0.0
 10
65.280360
 20
14.808095
 30
0.0
 10
65.573426
 20
15.190180
 30
0.0
 10
65.955570
 20
15.483221
 30
0.0
 10
66.400381
 20
15.667460
 30
0.0
 10
66.877793
 20
15.730491
 30
0.0
 10
67.355253
 20
15.667461
 30
0.0
 10
67.799922
 20
15.483217
 30
0.0
 10
68.182591
 20
15.190195
 30
0.0
 10
68.473700
 20
14.808038
 30
0.0
 10
68.665042
 20
14.363233
 30
0.0
 10
68.689255
 20
14.045391
 30
0.0
 10
68.701411
 20
13.885810
 30
0.0
 11
68.701411
 21
13.885810
 31
0.0
 11
68.452435
 21
12.965399
 31
0.0
 11
67.798212
 21
12.311176
 31
0.0
 11
66.877801
 21
12.062200
 31
0.0
 11
65.957391
 21
12.311176
 31
0.0
 11
65.303168
 21
12.965399
 31
0.0
 11
65.054191
 21
13.885810
 31
0.0
 11
65.116669
 21
14.359079
 31
0.0
 11
65.297840
 21
14.796467
 31
0.0
 11
65.588314
 21
15.175298
 31
0.0
 11
65.967144
 21
15.465772
 31
0.0
 11
66.404532
 21
15.646944
 31
0.0
 11
66.877801
 21
15.709423
 31
0.0
 11
67.351071
 21
15.646944
 31
0.0
 11
67.788458
 21
15.465772
 31
0.0
 11
68.167289
 21
15.175298
 31
0.0
 11
68.457762
 21
14.796467
 31
0.0
 11
68.638934
 21
14.359079
 31
0.0
 11
68.701411
 21
13.885810
 31
0.0
  0
LINE
  5
114
100
AcDbEntity
  8
Capa_1
 62
7
100
AcDbLine
 10
144.336967
 20
13.885810
 30
0.0
 11
144.336967
 21
13.885810
 31
0.0
  0
SPLINE
  5
115
100
AcDbEntity
  8
Capa_1
 62
7
100
AcDbSpline
 70
0
 71
3
 72
25
 73
21
 74
19
 40
0.000000
 40
0.000000
 40
0.000000
 40
0.000000
 40
0.953491
 40
1.878702
 40
2.832193
 40
3.785684
 40
4.710894
 40
5.664385
 40
6.141761
 40
6.615186
 40
7.092562
 40
7.569937
 40
8.043363
 40
8.520738
 40
8.998114
 40
9.471539
 40
9.948915
 40
10.426290
 40
10.899716
 40
11.377091
 40
11.377091
 40
11.377091
 40
11.377091
 10
144.336967
 20
13.885810
 30
0.0
 10
144.286845
 20
13.564336
 30
0.0
 10
144.188087
 20
12.930924
 30
0.0
 10
143.462084
 20
12.233611
 30
0.0
 10
142.515011
 20
11.975151
 30
0.0
 10
141.558111
 20
12.233819
 30
0.0
 10
140.861010
 20
12.930111
 30
0.0
 10
140.646954
 20
13.727775
 30
0.0
 10
140.731840
 20
14.363023
 30
0.0
 10
140.915915
 20
14.808095
 30
0.0
 10
141.208982
 20
15.190180
 30
0.0
 10
141.591126
 20
15.483221
 30
0.0
 10
142.035937
 20
15.667460
 30
0.0
 10
142.513349
 20
15.730491
 30
0.0
 10
142.990809
 20
15.667461
 30
0.0
 10
143.435477
 20
15.483217
 30
0.0
 10
143.818147
 20
15.190195
 30
0.0
 10
144.109255
 20
14.808038
 30
0.0
 10
144.300598
 20
14.363233
 30
0.0
 10
144.324810
 20
14.045391
 30
0.0
 10
144.336967
 20
13.885810
 30
0.0
 11
144.336967
 21
13.885810
 31
0.0
 11
144.087990
 21
12.965399
 31
0.0
 11
143.433767
 21
12.311176
 31
0.0
 11
142.513357
 21
12.062200
 31
0.0
 11
141.592946
 21
12.311176
 31
0.0
 11
140.938723
 21
12.965399
 31
0.0
 11
140.689747
 21
13.885810
 31
0.0
 11
140.752224
 21
14.359079
 31
0.0
 11
140.933396
 21
14.796467
 31
0.0
 11
141.223869
 21
15.175298
 31
0.0
 11
141.602700
 21
15.465772
 31
0.0
 11
142.040087
 21
15.646944
 31
0.0
 11
142.513357
 21
15.709423
 31
0.0
 11
142.986626
 21
15.646944
 31
0.0
 11
143.424014
 21
15.465772
 31
0.0
 11
143.802844
 21
15.175298
 31
0.0
 11
144.093318
 21
14.796467
 31
0.0
 11
144.274489
 21
14.359079
 31
0.0
 11
144.336967
 21
13.885810
 31
0.0
  0
LINE
  5
116
100
AcDbEntity
  8
Capa_1
 62
7
100
AcDbLine
 10
144.336967
 20
196.201365
 30
0.0
 11
144.336967
 21
196.201365
 31
0.0
  0
SPLINE
  5
117
100
AcDbEntity
  8
Capa_1
 62
7
100
AcDbSpline
 70
0
 71
3
 72
25
 73
21
 74
19
 40
0.000000
 40
0.000000
 40
0.000000
 40
0.000000
 40
0.953491
 40
1.878702
 40
2.832193
 40
3.785684
 40
4.710894
 40
5.664385
 40
6.141761
 40
6.615186
 40
7.092562
 40
7.569937
 40
8.043363
 40
8.520738
 40
8.998114
 40
9.471539
 40
9.948915
 40
10.426290
 40
10.899716
 40
11.377091
 40
11.377091
 40
11.377091
 40
11.377091
 10
144.336967
 20
196.201365
 30
0.0
 10
144.286845
 20
195.879892
 30
0.0
 10
144.188087
 20
195.246479
 30
0.0
 10
143.462084
 20
194.549167
 30
0.0
 10
142.515011
 20
194.290707
 30
0.0
 10
141.558111
 20
194.549375
 30
0.0
 10
140.861010
 20
195.245666
 30
0.0
 10
140.646954
 20
196.043331
 30
0.0
 10
140.731840
 20
196.678578
 30
0.0
 10
140.915915
 20
197.123650
 30
0.0
 10
141.208982
 20
197.505736
 30
0.0
 10
141.591126
 20
197.798776
 30
0.0
 10
142.035937
 20
197.983016
 30
0.0
 10
142.513349
 20
198.046046
 30
0.0
 10
142.990809
 20
197.983017
 30
0.0
 10
143.435477
 20
197.798772
 30
0.0
 10
143.818147
 20
197.505751
 30
0.0
 10
144.109255
 20
197.123594
 30
0.0
 10
144.300598
 20
196.678788
 30
0.0
 10
144.324810
 20
196.360946
 30
0.0
 10
144.336967
 20
196.201365
 30
0.0
 11
144.336967
 21
196.201365
 31
0.0
 11
144.087990
 21
195.280955
 31
0.0
 11
143.433767
 21
194.626732
 31
0.0
 11
142.513357
 21
194.377755
 31
0.0
 11
141.592946
 21
194.626732
 31
0.0
 11
140.938723
 21
195.280955
 31
0.0
 11
140.689747
 21
196.201365
 31
0.0
 11
140.752224
 21
196.674635
 31
0.0
 11
140.933396
 21
197.112023
 31
0.0
 11
141.223869
 21
197.490854
 31
0.0
 11
141.602700
 21
197.781328
 31
0.0
 11
142.040087
 21
197.962500
 31
0.0
 11
142.513357
 21
198.024978
 31
0.0
 11
142.986626
 21
197.962500
 31
0.0
 11
143.424014
 21
197.781328
 31
0.0
 11
143.802844
 21
197.490854
 31
0.0
 11
144.093318
 21
197.112023
 31
0.0
 11
144.274489
 21
196.674635
 31
0.0
 11
144.336967
 21
196.201365
 31
0.0
  0
LINE
  5
118
100
AcDbEntity
  8
Capa_1
 62
7
100
AcDbLine
 10
68.701411
 20
196.201365
 30
0.0
 11
68.701411
 21
196.201365
 31
0.0
  0
LINE
  5
119
100
AcDbEntity
  8
Capa_1
 62
1
100
AcDbLine
 10
60.549723
 20
160.187123
 30
0.0
 11
60.549723
 21
56.286902
 31
0.0
  0
LINE
  5
11a
100
AcDbEntity
  8
Capa_1
 62
1
100
AcDbLine
 10
60.549723
 20
56.286902
 30
0.0
 11
149.449723
 21
56.286902
 31
0.0
  0
LINE
  5
11b
100
AcDbEntity
  8
Capa_1
 62
1
100
AcDbLine
 10
149.449723
 20
56.286902
 30
0.0
 11
149.449723
 21
160.187123
 31
0.0
  0
LINE
  5
11c
100
AcDbEntity
  8
Capa_1
 62
1
100
AcDbLine
 10
149.449723
 20
160.187123
 30
0.0
 11
60.549723
 21
160.187123
 31
0.0
  0
LINE
  5
11d
100
AcDbEntity
  8
Capa_1
 62
1
100
AcDbLine
 10
60.549723
 20
160.187123
 30
0.0
 11
60.549723
 21
160.187123
 31
0.0
  0
LINE
  5
11e
100
AcDbEntity
  8
Capa_1
 62
1
100
AcDbLine
 10
40.549980
 20
56.228473
 30
0.0
 11
40.549980
 21
54.328435
 31
0.0
  0
LINE
  5
11f
100
AcDbEntity
  8
Capa_1
 62
1
100
AcDbLine
 10
40.549980
 20
54.328435
 30
0.0
 11
169.450018
 21
54.328435
 31
0.0
  0
LINE
  5
120
100
AcDbEntity
  8
Capa_1
 62
1
100
AcDbLine
 10
169.450018
 20
54.328435
 30
0.0
 11
169.450018
 21
56.228473
 31
0.0
  0
LINE
  5
121
100
AcDbEntity
  8
Capa_1
 62
1
100
AcDbLine
 10
169.450018
 20
56.228473
 30
0.0
 11
40.549980
 21
56.228473
 31
0.0
  0
LINE
  5
122
100
AcDbEntity
  8
Capa_1
 62
1
100
AcDbLine
 10
40.549980
 20
56.228473
 30
0.0
 11
40.549980
 21
56.228473
 31
0.0
  0
SPLINE
  5
123
100
AcDbEntity
  8
Capa_1
 62
7
100
AcDbSpline
 70
0
 71
3
 72
25
 73
21
 74
19
 40
0.000000
 40
0.000000
 40
0.000000
 40
0.000000
 40
0.953491
 40
1.878702
 40
2.832193
 40
3.785684
 40
4.710894
 40
5.664385
 40
6.141761
 40
6.615186
 40
7.092562
 40
7.569937
 40
8.043363
 40
8.520738
 40
8.998114
 40
9.471539
 40
9.948915
 40
10.426290
 40
10.899716
 40
11.377091
 40
11.377091
 40
11.377091
 40
11.377091
 10
68.701411
 20
196.201365
 30
0.0
 10
68.651289
 20
195.879892
 30
0.0
 10
68.552531
 20
195.246479
 30
0.0
 10
67.826528
 20
194.549167
 30
0.0
 10
66.879456
 20
194.290707
 30
0.0
 10
65.922555
 20
194.549375
 30
0.0
 10
65.225454
 20
195.245666
 30
0.0
 10
65.011399
 20
196.043331
 30
0.0
 10
65.096285
 20
196.678578
 30
0.0
 10
65.280360
 20
197.123650
 30
0.0
 10
65.573426
 20
197.505736
 30
0.0
 10
65.955570
 20
197.798776
 30
0.0
 10
66.400381
 20
197.983016
 30
0.0
 10
66.877793
 20
198.046046
 30
0.0
 10
67.355253
 20
197.983017
 30
0.0
 10
67.799922
 20
197.798772
 30
0.0
 10
68.182591
 20
197.505751
 30
0.0
 10
68.473700
 20
197.123594
 30
0.0
 10
68.665042
 20
196.678788
 30
0.0
 10
68.689255
 20
196.360946
 30
0.0
 10
68.701411
 20
196.201365
 30
0.0
 11
68.701411
 21
196.201365
 31
0.0
 11
68.452435
 21
195.280955
 31
0.0
 11
67.798212
 21
194.626732
 31
0.0
 11
66.877801
 21
194.377755
 31
0.0
 11
65.957391
 21
194.626732
 31
0.0
 11
65.303168
 21
195.280955
 31
0.0
 11
65.054191
 21
196.201365
 31
0.0
 11
65.116669
 21
196.674635
 31
0.0
 11
65.297840
 21
197.112023
 31
0.0
 11
65.588314
 21
197.490854
 31
0.0
 11
65.967144
 21
197.781328
 31
0.0
 11
66.404532
 21
197.962500
 31
0.0
 11
66.877801
 21
198.024978
 31
0.0
 11
67.351071
 21
197.962500
 31
0.0
 11
67.788458
 21
197.781328
 31
0.0
 11
68.167289
 21
197.490854
 31
0.0
 11
68.457762
 21
197.112023
 31
0.0
 11
68.638934
 21
196.674635
 31
0.0
 11
68.701411
 21
196.201365
 31
0.0
  0
LINE
  5
124
100
AcDbEntity
  8
Capa_1
 62
7
100
AcDbLine
 10
72.323611
 20
150.034723
 30
0.0
 11
72.323611
 21
150.034723
 31
0.0
  0
SPLINE
  5
125
100
AcDbEntity
  8
Capa_1
 62
7
100
AcDbSpline
 70
0
 71
3
 72
19
 73
15
 74
13
 40
0.000000
 40
0.000000
 40
0.000000
 40
0.000000
 40
0.692062
 40
1.363598
 40
2.055660
 40
2.747722
 40
3.419258
 40
4.111320
 40
4.803382
 40
5.474918
 40
6.166980
 40
6.859042
 40
7.530577
 40
8.222640
 40
8.222640
 40
8.222640
 40
8.222640
 10
72.323611
 20
150.034723
 30
0.0
 10
72.287232
 20
149.801392
 30
0.0
 10
72.215553
 20
149.341651
 30
0.0
 10
71.688601
 20
148.835514
 30
0.0
 10
71.001215
 20
148.647975
 30
0.0
 10
70.306613
 20
148.835514
 30
0.0
 10
69.800883
 20
149.341651
 30
0.0
 10
69.613205
 20
150.034723
 30
0.0
 10
69.800883
 20
150.727795
 30
0.0
 10
70.306613
 20
151.233932
 30
0.0
 10
71.001215
 20
151.421471
 30
0.0
 10
71.688601
 20
151.233932
 30
0.0
 10
72.215553
 20
150.727795
 30
0.0
 10
72.287232
 20
150.268054
 30
0.0
 10
72.323611
 20
150.034723
 30
0.0
 11
72.323611
 21
150.034723
 31
0.0
 11
72.142900
 21
149.366671
 31
0.0
 11
71.668052
 21
148.891824
 31
0.0
 11
71.000000
 21
148.711112
 31
0.0
 11
70.331949
 21
148.891824
 31
0.0
 11
69.857101
 21
149.366671
 31
0.0
 11
69.676389
 21
150.034723
 31
0.0
 11
69.857101
 21
150.702775
 31
0.0
 11
70.331949
 21
151.177623
 31
0.0
 11
71.000000
 21
151.358334
 31
0.0
 11
71.668052
 21
151.177623
 31
0.0
 11
72.142900
 21
150.702775
 31
0.0
 11
72.323611
 21
150.034723
 31
0.0
  0
LINE
  5
126
100
AcDbEntity
  8
Capa_1
 62
7
100
AcDbLine
 10
140.323613
 20
150.034723
 30
0.0
 11
140.323613
 21
150.034723
 31
0.0
  0
SPLINE
  5
127
100
AcDbEntity
  8
Capa_1
 62
7
100
AcDbSpline
 70
0
 71
3
 72
25
 73
21
 74
19
 40
0.000000
 40
0.000000
 40
0.000000
 40
0.000000
 40
0.346489
 40
0.690110
 40
1.036598
 40
1.383087
 40
1.726708
 40
2.073197
 40
2.765259
 40
3.436794
 40
4.128856
 40
4.820918
 40
5.492454
 40
6.184516
 40
6.531005
 40
6.874626
 40
7.221114
 40
7.567603
 40
7.911224
 40
8.257713
 40
8.257713
 40
8.257713
 40
8.257713
 10
140.323613
 20
150.034723
 30
0.0
 10
140.314789
 20
149.918896
 30
0.0
 10
140.297214
 20
149.688201
 30
0.0
 10
140.158337
 20
149.365350
 30
0.0
 10
139.947031
 20
149.087982
 30
0.0
 10
139.669334
 20
148.875270
 30
0.0
 10
139.346390
 20
148.741662
 30
0.0
 10
138.885283
 20
148.680064
 30
0.0
 10
138.306335
 20
148.835331
 30
0.0
 10
137.800963
 20
149.341698
 30
0.0
 10
137.613163
 20
150.034723
 30
0.0
 10
137.800963
 20
150.727748
 30
0.0
 10
138.306335
 20
151.234116
 30
0.0
 10
138.885283
 20
151.389383
 30
0.0
 10
139.346390
 20
151.327784
 30
0.0
 10
139.669334
 20
151.194177
 30
0.0
 10
139.947031
 20
150.981464
 30
0.0
 10
140.158337
 20
150.704096
 30
0.0
 10
140.297214
 20
150.381246
 30
0.0
 10
140.314789
 20
150.150550
 30
0.0
 10
140.323613
 20
150.034723
 30
0.0
 11
140.323613
 21
150.034723
 31
0.0
 11
140.278265
 21
149.691215
 31
0.0
 11
140.146767
 21
149.373750
 31
0.0
 11
139.935935
 21
149.098788
 31
0.0
 11
139.660972
 21
148.887957
 31
0.0
 11
139.343507
 21
148.756459
 31
0.0
 11
138.999999
 21
148.711112
 31
0.0
 11
138.331947
 21
148.891824
 31
0.0
 11
137.857100
 21
149.366672
 31
0.0
 11
137.676388
 21
150.034723
 31
0.0
 11
137.857100
 21
150.702775
 31
0.0
 11
138.331947
 21
151.177622
 31
0.0
 11
138.999999
 21
151.358334
 31
0.0
 11
139.343507
 21
151.312987
 31
0.0
 11
139.660972
 21
151.181490
 31
0.0
 11
139.935935
 21
150.970658
 31
0.0
 11
140.146767
 21
150.695696
 31
0.0
 11
140.278265
 21
150.378231
 31
0.0
 11
140.323613
 21
150.034723
 31
0.0
  0
LINE
  5
128
100
AcDbEntity
  8
Capa_1
 62
7
100
AcDbLine
 10
82.323610
 20
62.034722
 30
0.0
 11
82.323610
 21
62.034722
 31
0.0
  0
SPLINE
  5
129
100
AcDbEntity
  8
Capa_1
 62
7
100
AcDbSpline
 70
0
 71
3
 72
19
 73
15
 74
13
 40
0.000000
 40
0.000000
 40
0.000000
 40
0.000000
 40
0.692062
 40
1.363598
 40
2.055660
 40
2.747722
 40
3.419258
 40
4.111320
 40
4.803382
 40
5.474918
 40
6.166980
 40
6.859042
 40
7.530577
 40
8.222640
 40
8.222640
 40
8.222640
 40
8.222640
 10
82.323610
 20
62.034722
 30
0.0
 10
82.287231
 20
61.801391
 30
0.0
 10
82.215552
 20
61.341650
 30
0.0
 10
81.688600
 20
60.835513
 30
0.0
 10
81.001214
 20
60.647974
 30
0.0
 10
80.306612
 20
60.835513
 30
0.0
 10
79.800882
 20
61.341650
 30
0.0
 10
79.613204
 20
62.034722
 30
0.0
 10
79.800882
 20
62.727794
 30
0.0
 10
80.306612
 20
63.233931
 30
0.0
 10
81.001214
 20
63.421470
 30
0.0
 10
81.688600
 20
63.233931
 30
0.0
 10
82.215552
 20
62.727794
 30
0.0
 10
82.287231
 20
62.268053
 30
0.0
 10
82.323610
 20
62.034722
 30
0.0
 11
82.323610
 21
62.034722
 31
0.0
 11
82.142899
 21
61.366670
 31
0.0
 11
81.668051
 21
60.891823
 31
0.0
 11
80.999999
 21
60.711111
 31
0.0
 11
80.331948
 21
60.891823
 31
0.0
 11
79.857100
 21
61.366670
 31
0.0
 11
79.676388
 21
62.034722
 31
0.0
 11
79.857100
 21
62.702774
 31
0.0
 11
80.331948
 21
63.177622
 31
0.0
 11
80.999999
 21
63.358333
 31
0.0
 11
81.668051
 21
63.177621
 31
0.0
 11
82.142899
 21
62.702774
 31
0.0
 11
82.323610
 21
62.034722
 31
0.0
  0
LINE
  5
12a
100
AcDbEntity
  8
Capa_1
 62
7
100
AcDbLine
 10
130.323612
 20
62.034722
 30
0.0
 11
130.323612
 21
62.034722
 31
0.0
  0
LINE
  5
12b
100
AcDbEntity
  8
Capa_1
 62
7
100
AcDbLine
 10
85.916298
 20
179.241128
 30
0.0
 11
124.083704
 21
179.241128
 31
0.0
  0
SPLINE
  5
12c
100
AcDbEntity
  8
Capa_1
 62
7
100
AcDbSpline
 70
0
 71
3
 72
19
 73
15
 74
13
 40
0.000000
 40
0.000000
 40
0.000000
 40
0.000000
 40
0.692062
 40
1.363598
 40
2.055660
 40
2.747722
 40
3.419257
 40
4.111320
 40
4.803382
 40
5.474917
 40
6.166979
 40
6.859041
 40
7.530577
 40
8.222639
 40
8.222639
 40
8.222639
 40
8.222639
 10
130.323612
 20
62.034722
 30
0.0
 10
130.287233
 20
61.801391
 30
0.0
 10
130.215553
 20
61.341651
 30
0.0
 10
129.688602
 20
60.835513
 30
0.0
 10
129.001216
 20
60.647974
 30
0.0
 10
128.306613
 20
60.835513
 30
0.0
 10
127.800884
 20
61.341651
 30
0.0
 10
127.613206
 20
62.034722
 30
0.0
 10
127.800884
 20
62.727794
 30
0.0
 10
128.306613
 20
63.233931
 30
0.0
 10
129.001216
 20
63.421470
 30
0.0
 10
129.688602
 20
63.233931
 30
0.0
 10
130.215553
 20
62.727794
 30
0.0
 10
130.287233
 20
62.268053
 30
0.0
 10
130.323612
 20
62.034722
 30
0.0
 11
130.323612
 21
62.034722
 31
0.0
 11
130.142900
 21
61.366670
 31
0.0
 11
129.668053
 21
60.891823
 31
0.0
 11
129.000001
 21
60.711111
 31
0.0
 11
128.331949
 21
60.891823
 31
0.0
 11
127.857102
 21
61.366670
 31
0.0
 11
127.676390
 21
62.034722
 31
0.0
 11
127.857102
 21
62.702774
 31
0.0
 11
128.331949
 21
63.177621
 31
0.0
 11
129.000001
 21
63.358333
 31
0.0
 11
129.668053
 21
63.177621
 31
0.0
 11
130.142900
 21
62.702774
 31
0.0
 11
130.323612
 21
62.034722
 31
0.0
  0
LINE
  5
12d
100
AcDbEntity
  8
Capa_1
 62
7
100
AcDbLine
 10
127.882751
 20
175.543057
 30
0.0
 11
127.882751
 21
163.724070
 31
0.0
  0
SPLINE
  5
12e
100
AcDbEntity
  8
Capa_1
 62
7
100
AcDbSpline
 70
0
 71
3
 72
10
 73
6
 74
4
 40
0.000000
 40
0.000000
 40
0.000000
 40
0.000000
 40
1.985254
 40
3.885242
 40
5.824788
 40
5.824788
 40
5.824788
 40
5.824788
 10
124.083704
 20
179.241128
 30
0.0
 10
124.748911
 20
179.141327
 30
0.0
 10
126.050753
 20
178.946013
 30
0.0
 10
127.570272
 20
177.481339
 30
0.0
 10
127.777878
 20
176.193573
 30
0.0
 10
127.882751
 20
175.543057
 30
0.0
 11
124.083704
 21
179.241128
 31
0.0
 11
126.004052
 21
178.737643
 31
0.0
 11
127.365518
 21
177.412364
 31
0.0
 11
127.882751
 21
175.543057
 31
0.0
  0
LINE
  5
12f
100
AcDbEntity
  8
Capa_1
 62
7
100
AcDbLine
 10
124.083704
 20
160.026000
 30
0.0
 11
85.916298
 21
160.026000
 31
0.0
  0
SPLINE
  5
130
100
AcDbEntity
  8
Capa_1
 62
7
100
AcDbSpline
 70
0
 71
3
 72
10
 73
6
 74
4
 40
0.000000
 40
0.000000
 40
0.000000
 40
0.000000
 40
1.939546
 40
3.839534
 40
5.824788
 40
5.824788
 40
5.824788
 40
5.824788
 10
127.882751
 20
163.724070
 30
0.0
 10
127.777878
 20
163.073554
 30
0.0
 10
127.570272
 20
161.785789
 30
0.0
 10
126.050753
 20
160.321114
 30
0.0
 10
124.748911
 20
160.125800
 30
0.0
 10
124.083704
 20
160.026000
 30
0.0
 11
127.882751
 21
163.724070
 31
0.0
 11
127.365518
 21
161.854763
 31
0.0
 11
126.004052
 21
160.529485
 31
0.0
 11
124.083704
 21
160.026000
 31
0.0
  0
LINE
  5
131
100
AcDbEntity
  8
Capa_1
 62
7
100
AcDbLine
 10
82.117248
 20
163.724070
 30
0.0
 11
82.117248
 21
175.543057
 31
0.0
  0
SPLINE
  5
132
100
AcDbEntity
  8
Capa_1
 62
7
100
AcDbSpline
 70
0
 71
3
 72
10
 73
6
 74
4
 40
0.000000
 40
0.000000
 40
0.000000
 40
0.000000
 40
1.985255
 40
3.885243
 40
5.824789
 40
5.824789
 40
5.824789
 40
5.824789
 10
85.916298
 20
160.026000
 30
0.0
 10
85.251091
 20
160.125800
 30
0.0
 10
83.949248
 20
160.321114
 30
0.0
 10
82.429727
 20
161.785788
 30
0.0
 10
82.222121
 20
163.073554
 30
0.0
 10
82.117248
 20
163.724070
 30
0.0
 11
85.916298
 21
160.026000
 31
0.0
 11
83.995949
 21
160.529485
 31
0.0
 11
82.634482
 21
161.854763
 31
0.0
 11
82.117248
 21
163.724070
 31
0.0
  0
LINE
  5
133
100
AcDbEntity
  8
Capa_1
 62
7
100
AcDbLine
 10
85.916298
 20
179.241128
 30
0.0
 11
85.916298
 21
179.241128
 31
0.0
  0
LINE
  5
134
100
AcDbEntity
  8
Capa_1
 62
3
100
AcDbLine
 10
69.805340
 20
203.663555
 30
0.0
 11
69.805340
 21
203.663555
 31
0.0
  0
LINE
  5
135
100
AcDbEntity
  8
Capa_1
 62
3
100
AcDbLine
 10
60.071236
 20
149.798901
 30
0.0
 11
60.071236
 21
149.798901
 31
0.0
  0
LINE
  5
136
100
AcDbEntity
  8
Capa_1
 62
3
100
AcDbLine
 10
149.955156
 20
149.978903
 30
0.0
 11
149.955156
 21
149.978903
 31
0.0
  0
LINE
  5
137
100
AcDbEntity
  8
Capa_1
 62
3
100
AcDbLine
 10
149.884169
 20
60.093970
 30
0.0
 11
149.884169
 21
60.093970
 31
0.0
  0
LINE
  5
138
100
AcDbEntity
  8
Capa_1
 62
3
100
AcDbLine
 10
60.071236
 20
59.987978
 30
0.0
 11
60.071236
 21
59.987978
 31
0.0
  0
LINE
  5
139
100
AcDbEntity
  8
Capa_1
 62
3
100
AcDbLine
 10
100.073496
 20
149.286134
 30
0.0
 11
100.073496
 21
149.286134
 31
0.0
  0
LINE
  5
13a
100
AcDbEntity
  8
Capa_1
 62
3
100
AcDbLine
 10
112.573496
 20
163.786117
 30
0.0
 11
112.573496
 21
163.786117
 31
0.0
  0
LINE
  5
13b
100
AcDbEntity
  8
Capa_1
 62
3
100
AcDbLine
 10
197.299695
 20
66.674415
 30
0.0
 11
197.299695
 21
66.674415
 31
0.0
  0
LINE
  5
13c
100
AcDbEntity
  8
Capa_1
 62
3
100
AcDbLine
 10
15.956901
 20
145.036108
 30
0.0
 11
15.956901
 21
145.036108
 31
0.0
  0
LINE
  5
13d
100
AcDbEntity
  8
Capa_1
 62
3
100
AcDbLine
 10
15.956901
 20
63.672048
 30
0.0
 11
15.956901
 21
63.672048
 31
0.0
  0
LINE
  5
13e
100
AcDbEntity
  8
Capa_1
 62
3
100
AcDbLine
 10
197.299695
 20
145.036108
 30
0.0
 11
197.299695
 21
145.036108
 31
0.0
  0
LINE
  5
13f
100
AcDbEntity
  8
Capa_1
 62
3
100
AcDbLine
 10
97.963778
 20
174.847408
 30
0.0
 11
97.963778
 21
174.847408
 31
0.0
  0
SPLINE
  5
140
100
AcDbEntity
  8
Capa_1
 62
7
100
AcDbSpline
 70
0
 71
3
 72
10
 73
6
 74
4
 40
0.000000
 40
0.000000
 40
0.000000
 40
0.000000
 40
1.939546
 40
3.839535
 40
5.824789
 40
5.824789
 40
5.824789
 40
5.824789
 10
82.117248
 20
175.543057
 30
0.0
 10
82.222121
 20
176.193574
 30
0.0
 10
82.429727
 20
177.481339
 30
0.0
 10
83.949248
 20
178.946013
 30
0.0
 10
85.251091
 20
179.141327
 30
0.0
 10
85.916298
 20
179.241128
 30
0.0
 11
82.117248
 21
175.543057
 31
0.0
 11
82.634482
 21
177.412364
 31
0.0
 11
83.995949
 21
178.737643
 31
0.0
 11
85.916298
 21
179.241128
 31
0.0
  0
LINE
  5
141
100
AcDbEntity
  8
Capa_1
 62
7
100
AcDbLine
 10
186.250492
 20
58.496880
 30
0.0
 11
186.250492
 21
58.496880
 31
0.0
  0
SPLINE
  5
142
100
AcDbEntity
  8
Capa_1
 62
7
100
AcDbSpline
 70
0
 71
3
 72
31
 73
27
 74
25
 40
0.000000
 40
0.000000
 40
0.000000
 40
0.000000
 40
0.346488
 40
0.690109
 40
1.036597
 40
1.383086
 40
1.726706
 40
2.073195
 40
2.419683
 40
2.763304
 40
3.109792
 40
3.456280
 40
3.799901
 40
4.146389
 40
4.492877
 40
4.836498
 40
5.182986
 40
5.529474
 40
5.873095
 40
6.219583
 40
6.566071
 40
6.909692
 40
7.256180
 40
7.602669
 40
7.946290
 40
8.292778
 40
8.292778
 40
8.292778
 40
8.292778
 10
186.250492
 20
58.496880
 30
0.0
 10
186.259315
 20
58.612707
 30
0.0
 10
186.276889
 20
58.843402
 30
0.0
 10
186.415770
 20
59.166250
 30
0.0
 10
186.627062
 20
59.443627
 30
0.0
 10
186.904811
 20
59.656307
 30
0.0
 10
187.227560
 20
59.790035
 30
0.0
 10
187.574109
 20
59.835782
 30
0.0
 10
187.920624
 20
59.790035
 30
0.0
 10
188.243474
 20
59.656307
 30
0.0
 10
188.520850
 20
59.443627
 30
0.0
 10
188.733531
 20
59.166250
 30
0.0
 10
188.867259
 20
58.843402
 30
0.0
 10
188.913006
 20
58.496880
 30
0.0
 10
188.867259
 20
58.150357
 30
0.0
 10
188.733531
 20
57.827509
 30
0.0
 10
188.520850
 20
57.550133
 30
0.0
 10
188.243474
 20
57.337453
 30
0.0
 10
187.920624
 20
57.203725
 30
0.0
 10
187.574109
 20
57.157978
 30
0.0
 10
187.227560
 20
57.203724
 30
0.0
 10
186.904811
 20
57.337452
 30
0.0
 10
186.627062
 20
57.550133
 30
0.0
 10
186.415770
 20
57.827509
 30
0.0
 10
186.276889
 20
58.150357
 30
0.0
 10
186.259315
 20
58.381053
 30
0.0
 10
186.250492
 20
58.496880
 30
0.0
 11
186.250492
 21
58.496880
 31
0.0
 11
186.295839
 21
58.840388
 31
0.0
 11
186.427337
 21
59.157852
 31
0.0
 11
186.638169
 21
59.432814
 31
0.0
 11
186.913131
 21
59.643645
 31
0.0
 11
187.230596
 21
59.775143
 31
0.0
 11
187.574104
 21
59.820491
 31
0.0
 11
187.917611
 21
59.775143
 31
0.0
 11
188.235076
 21
59.643645
 31
0.0
 11
188.510038
 21
59.432814
 31
0.0
 11
188.720869
 21
59.157852
 31
0.0
 11
188.852367
 21
58.840387
 31
0.0
 11
188.897715
 21
58.496880
 31
0.0
 11
188.852367
 21
58.153372
 31
0.0
 11
188.720869
 21
57.835908
 31
0.0
 11
188.510038
 21
57.560945
 31
0.0
 11
188.235076
 21
57.350114
 31
0.0
 11
187.917611
 21
57.218616
 31
0.0
 11
187.574104
 21
57.173269
 31
0.0
 11
187.230596
 21
57.218616
 31
0.0
 11
186.913131
 21
57.350114
 31
0.0
 11
186.638169
 21
57.560945
 31
0.0
 11
186.427337
 21
57.835907
 31
0.0
 11
186.295839
 21
58.153372
 31
0.0
 11
186.250492
 21
58.496880
 31
0.0
  0
LINE
  5
143
100
AcDbEntity
  8
Capa_1
 62
7
100
AcDbLine
 10
186.250492
 20
151.630205
 30
0.0
 11
186.250492
 21
151.630205
 31
0.0
  0
SPLINE
  5
144
100
AcDbEntity
  8
Capa_1
 62
7
100
AcDbSpline
 70
0
 71
3
 72
31
 73
27
 74
25
 40
0.000000
 40
0.000000
 40
0.000000
 40
0.000000
 40
0.346488
 40
0.690109
 40
1.036597
 40
1.383086
 40
1.726706
 40
2.073195
 40
2.419683
 40
2.763304
 40
3.109792
 40
3.456280
 40
3.799901
 40
4.146389
 40
4.492877
 40
4.836498
 40
5.182986
 40
5.529474
 40
5.873095
 40
6.219583
 40
6.566071
 40
6.909692
 40
7.256180
 40
7.602669
 40
7.946290
 40
8.292778
 40
8.292778
 40
8.292778
 40
8.292778
 10
186.250492
 20
151.630205
 30
0.0
 10
186.259315
 20
151.746032
 30
0.0
 10
186.276889
 20
151.976727
 30
0.0
 10
186.415770
 20
152.299575
 30
0.0
 10
186.627062
 20
152.576952
 30
0.0
 10
186.904811
 20
152.789632
 30
0.0
 10
187.227560
 20
152.923360
 30
0.0
 10
187.574109
 20
152.969107
 30
0.0
 10
187.920624
 20
152.923360
 30
0.0
 10
188.243474
 20
152.789632
 30
0.0
 10
188.520850
 20
152.576951
 30
0.0
 10
188.733531
 20
152.299575
 30
0.0
 10
188.867259
 20
151.976727
 30
0.0
 10
188.913006
 20
151.630205
 30
0.0
 10
188.867259
 20
151.283682
 30
0.0
 10
188.733531
 20
150.960834
 30
0.0
 10
188.520850
 20
150.683458
 30
0.0
 10
188.243474
 20
150.470777
 30
0.0
 10
187.920624
 20
150.337049
 30
0.0
 10
187.574109
 20
150.291302
 30
0.0
 10
187.227560
 20
150.337049
 30
0.0
 10
186.904811
 20
150.470777
 30
0.0
 10
186.627062
 20
150.683457
 30
0.0
 10
186.415770
 20
150.960834
 30
0.0
 10
186.276889
 20
151.283682
 30
0.0
 10
186.259315
 20
151.514378
 30
0.0
 10
186.250492
 20
151.630205
 30
0.0
 11
186.250492
 21
151.630205
 31
0.0
 11
186.295839
 21
151.973712
 31
0.0
 11
186.427337
 21
152.291177
 31
0.0
 11
186.638169
 21
152.566139
 31
0.0
 11
186.913131
 21
152.776970
 31
0.0
 11
187.230596
 21
152.908468
 31
0.0
 11
187.574104
 21
152.953815
 31
0.0
 11
187.917611
 21
152.908468
 31
0.0
 11
188.235076
 21
152.776970
 31
0.0
 11
188.510038
 21
152.566139
 31
0.0
 11
188.720869
 21
152.291177
 31
0.0
 11
188.852367
 21
151.973712
 31
0.0
 11
188.897715
 21
151.630205
 31
0.0
 11
188.852367
 21
151.286697
 31
0.0
 11
188.720869
 21
150.969232
 31
0.0
 11
188.510038
 21
150.694270
 31
0.0
 11
188.235076
 21
150.483439
 31
0.0
 11
187.917611
 21
150.351941
 31
0.0
 11
187.574104
 21
150.306594
 31
0.0
 11
187.230596
 21
150.351941
 31
0.0
 11
186.913131
 21
150.483439
 31
0.0
 11
186.638169
 21
150.694270
 31
0.0
 11
186.427337
 21
150.969232
 31
0.0
 11
186.295839
 21
151.286697
 31
0.0
 11
186.250492
 21
151.630205
 31
0.0
  0
LINE
  5
145
100
AcDbEntity
  8
Capa_1
 62
7
100
AcDbLine
 10
21.024130
 20
58.496880
 30
0.0
 11
21.024130
 21
58.496880
 31
0.0
  0
SPLINE
  5
146
100
AcDbEntity
  8
Capa_1
 62
7
100
AcDbSpline
 70
0
 71
3
 72
31
 73
27
 74
25
 40
0.000000
 40
0.000000
 40
0.000000
 40
0.000000
 40
0.346488
 40
0.690109
 40
1.036597
 40
1.383086
 40
1.726706
 40
2.073195
 40
2.419683
 40
2.763304
 40
3.109792
 40
3.456280
 40
3.799901
 40
4.146389
 40
4.492877
 40
4.836498
 40
5.182986
 40
5.529474
 40
5.873095
 40
6.219583
 40
6.566071
 40
6.909692
 40
7.256180
 40
7.602669
 40
7.946290
 40
8.292778
 40
8.292778
 40
8.292778
 40
8.292778
 10
21.024130
 20
58.496880
 30
0.0
 10
21.032953
 20
58.612707
 30
0.0
 10
21.050527
 20
58.843402
 30
0.0
 10
21.189407
 20
59.166250
 30
0.0
 10
21.400700
 20
59.443627
 30
0.0
 10
21.678449
 20
59.656307
 30
0.0
 10
22.001198
 20
59.790035
 30
0.0
 10
22.347747
 20
59.835782
 30
0.0
 10
22.694262
 20
59.790035
 30
0.0
 10
23.017112
 20
59.656307
 30
0.0
 10
23.294488
 20
59.443627
 30
0.0
 10
23.507169
 20
59.166250
 30
0.0
 10
23.640897
 20
58.843402
 30
0.0
 10
23.686644
 20
58.496880
 30
0.0
 10
23.640897
 20
58.150357
 30
0.0
 10
23.507169
 20
57.827509
 30
0.0
 10
23.294488
 20
57.550133
 30
0.0
 10
23.017112
 20
57.337453
 30
0.0
 10
22.694262
 20
57.203725
 30
0.0
 10
22.347747
 20
57.157978
 30
0.0
 10
22.001198
 20
57.203724
 30
0.0
 10
21.678449
 20
57.337452
 30
0.0
 10
21.400700
 20
57.550133
 30
0.0
 10
21.189407
 20
57.827509
 30
0.0
 10
21.050527
 20
58.150357
 30
0.0
 10
21.032953
 20
58.381053
 30
0.0
 10
21.024130
 20
58.496880
 30
0.0
 11
21.024130
 21
58.496880
 31
0.0
 11
21.069477
 21
58.840388
 31
0.0
 11
21.200975
 21
59.157852
 31
0.0
 11
21.411807
 21
59.432814
 31
0.0
 11
21.686769
 21
59.643645
 31
0.0
 11
22.004233
 21
59.775143
 31
0.0
 11
22.347741
 21
59.820491
 31
0.0
 11
22.691249
 21
59.775143
 31
0.0
 11
23.008713
 21
59.643645
 31
0.0
 11
23.283676
 21
59.432814
 31
0.0
 11
23.494507
 21
59.157852
 31
0.0
 11
23.626005
 21
58.840387
 31
0.0
 11
23.671353
 21
58.496880
 31
0.0
 11
23.626005
 21
58.153372
 31
0.0
 11
23.494507
 21
57.835908
 31
0.0
 11
23.283676
 21
57.560945
 31
0.0
 11
23.008713
 21
57.350114
 31
0.0
 11
22.691249
 21
57.218616
 31
0.0
 11
22.347741
 21
57.173269
 31
0.0
 11
22.004233
 21
57.218616
 31
0.0
 11
21.686769
 21
57.350114
 31
0.0
 11
21.411807
 21
57.560945
 31
0.0
 11
21.200975
 21
57.835907
 31
0.0
 11
21.069477
 21
58.153372
 31
0.0
 11
21.024130
 21
58.496880
 31
0.0
  0
LINE
  5
147
100
AcDbEntity
  8
Capa_1
 62
7
100
AcDbLine
 10
21.024130
 20
151.630205
 30
0.0
 11
21.024130
 21
151.630205
 31
0.0
  0
LINE
  5
148
100
AcDbEntity
  8
Capa_1
 62
5
100
AcDbLine
 10
86.396051
 20
195.196392
 30
0.0
 11
85.062474
 21
191.616564
 31
0.0
  0
LINE
  5
149
100
AcDbEntity
  8
Capa_1
 62
5
100
AcDbLine
 10
85.062474
 20
191.616564
 30
0.0
 11
87.734496
 21
191.616564
 31
0.0
  0
LINE
  5
14a
100
AcDbEntity
  8
Capa_1
 62
5
100
AcDbLine
 10
87.734496
 20
191.616564
 30
0.0
 11
86.396051
 21
195.196392
 31
0.0
  0
LINE
  5
14b
100
AcDbEntity
  8
Capa_1
 62
5
100
AcDbLine
 10
86.396051
 20
195.196392
 30
0.0
 11
86.396051
 21
195.196392
 31
0.0
  0
LINE
  5
14c
100
AcDbEntity
  8
Capa_1
 62
5
100
AcDbLine
 10
85.841206
 20
196.155188
 30
0.0
 11
86.955765
 21
196.155188
 31
0.0
  0
LINE
  5
14d
100
AcDbEntity
  8
Capa_1
 62
5
100
AcDbLine
 10
86.955765
 20
196.155188
 30
0.0
 11
89.725128
 21
188.961806
 31
0.0
  0
LINE
  5
14e
100
AcDbEntity
  8
Capa_1
 62
5
100
AcDbLine
 10
89.725128
 20
188.961806
 30
0.0
 11
88.703041
 21
188.961806
 31
0.0
  0
LINE
  5
14f
100
AcDbEntity
  8
Capa_1
 62
5
100
AcDbLine
 10
88.703041
 20
188.961806
 30
0.0
 11
88.041120
 21
190.807128
 31
0.0
  0
LINE
  5
150
100
AcDbEntity
  8
Capa_1
 62
5
100
AcDbLine
 10
88.041120
 20
190.807128
 30
0.0
 11
84.765583
 21
190.807128
 31
0.0
  0
LINE
  5
151
100
AcDbEntity
  8
Capa_1
 62
5
100
AcDbLine
 10
84.765583
 20
190.807128
 30
0.0
 11
84.103661
 21
188.961806
 31
0.0
  0
LINE
  5
152
100
AcDbEntity
  8
Capa_1
 62
5
100
AcDbLine
 10
84.103661
 20
188.961806
 30
0.0
 11
83.066974
 21
188.961806
 31
0.0
  0
LINE
  5
153
100
AcDbEntity
  8
Capa_1
 62
5
100
AcDbLine
 10
83.066974
 20
188.961806
 30
0.0
 11
85.841206
 21
196.155188
 31
0.0
  0
LINE
  5
154
100
AcDbEntity
  8
Capa_1
 62
5
100
AcDbLine
 10
85.841206
 20
196.155188
 30
0.0
 11
85.841206
 21
196.155188
 31
0.0
  0
LINE
  5
155
100
AcDbEntity
  8
Capa_1
 62
5
100
AcDbLine
 10
90.781282
 20
196.155188
 30
0.0
 11
91.764430
 21
196.155188
 31
0.0
  0
LINE
  5
156
100
AcDbEntity
  8
Capa_1
 62
5
100
AcDbLine
 10
91.764430
 20
196.155188
 30
0.0
 11
91.764430
 21
189.780878
 31
0.0
  0
LINE
  5
157
100
AcDbEntity
  8
Capa_1
 62
5
100
AcDbLine
 10
91.764430
 20
189.780878
 30
0.0
 11
95.302790
 21
189.780878
 31
0.0
  0
LINE
  5
158
100
AcDbEntity
  8
Capa_1
 62
5
100
AcDbLine
 10
95.302790
 20
189.780878
 30
0.0
 11
95.302790
 21
188.961806
 31
0.0
  0
LINE
  5
159
100
AcDbEntity
  8
Capa_1
 62
5
100
AcDbLine
 10
95.302790
 20
188.961806
 30
0.0
 11
90.781282
 21
188.961806
 31
0.0
  0
LINE
  5
15a
100
AcDbEntity
  8
Capa_1
 62
5
100
AcDbLine
 10
90.781282
 20
188.961806
 30
0.0
 11
90.781282
 21
196.155188
 31
0.0
  0
LINE
  5
15b
100
AcDbEntity
  8
Capa_1
 62
5
100
AcDbLine
 10
90.781282
 20
196.155188
 30
0.0
 11
90.781282
 21
196.155188
 31
0.0
  0
LINE
  5
15c
100
AcDbEntity
  8
Capa_1
 62
5
100
AcDbLine
 10
96.329742
 20
196.155188
 30
0.0
 11
97.312890
 21
196.155188
 31
0.0
  0
LINE
  5
15d
100
AcDbEntity
  8
Capa_1
 62
5
100
AcDbLine
 10
97.312890
 20
196.155188
 30
0.0
 11
97.312890
 21
188.961806
 31
0.0
  0
LINE
  5
15e
100
AcDbEntity
  8
Capa_1
 62
5
100
AcDbLine
 10
97.312890
 20
188.961806
 30
0.0
 11
96.329742
 21
188.961806
 31
0.0
  0
LINE
  5
15f
100
AcDbEntity
  8
Capa_1
 62
5
100
AcDbLine
 10
96.329742
 20
188.961806
 30
0.0
 11
96.329742
 21
196.155188
 31
0.0
  0
LINE
  5
160
100
AcDbEntity
  8
Capa_1
 62
5
100
AcDbLine
 10
96.329742
 20
196.155188
 30
0.0
 11
96.329742
 21
196.155188
 31
0.0
  0
LINE
  5
161
100
AcDbEntity
  8
Capa_1
 62
5
100
AcDbLine
 10
99.269452
 20
196.155188
 30
0.0
 11
103.863968
 21
196.155188
 31
0.0
  0
LINE
  5
162
100
AcDbEntity
  8
Capa_1
 62
5
100
AcDbLine
 10
103.863968
 20
196.155188
 30
0.0
 11
103.863968
 21
195.336116
 31
0.0
  0
LINE
  5
163
100
AcDbEntity
  8
Capa_1
 62
5
100
AcDbLine
 10
103.863968
 20
195.336116
 30
0.0
 11
100.252600
 21
195.336116
 31
0.0
  0
LINE
  5
164
100
AcDbEntity
  8
Capa_1
 62
5
100
AcDbLine
 10
100.252600
 20
195.336116
 30
0.0
 11
100.252600
 21
193.206527
 31
0.0
  0
LINE
  5
165
100
AcDbEntity
  8
Capa_1
 62
5
100
AcDbLine
 10
100.252600
 20
193.206527
 30
0.0
 11
103.713088
 21
193.206527
 31
0.0
  0
LINE
  5
166
100
AcDbEntity
  8
Capa_1
 62
5
100
AcDbLine
 10
103.713088
 20
193.206527
 30
0.0
 11
103.713088
 21
192.387455
 31
0.0
  0
LINE
  5
167
100
AcDbEntity
  8
Capa_1
 62
5
100
AcDbLine
 10
103.713088
 20
192.387455
 30
0.0
 11
100.252600
 21
192.387455
 31
0.0
  0
LINE
  5
168
100
AcDbEntity
  8
Capa_1
 62
5
100
AcDbLine
 10
100.252600
 20
192.387455
 30
0.0
 11
100.252600
 21
189.780878
 31
0.0
  0
LINE
  5
169
100
AcDbEntity
  8
Capa_1
 62
5
100
AcDbLine
 10
100.252600
 20
189.780878
 30
0.0
 11
103.951575
 21
189.780878
 31
0.0
  0
LINE
  5
16a
100
AcDbEntity
  8
Capa_1
 62
5
100
AcDbLine
 10
103.951575
 20
189.780878
 30
0.0
 11
103.951575
 21
188.961806
 31
0.0
  0
LINE
  5
16b
100
AcDbEntity
  8
Capa_1
 62
5
100
AcDbLine
 10
103.951575
 20
188.961806
 30
0.0
 11
99.269452
 21
188.961806
 31
0.0
  0
LINE
  5
16c
100
AcDbEntity
  8
Capa_1
 62
5
100
AcDbLine
 10
99.269452
 20
188.961806
 30
0.0
 11
99.269452
 21
196.155188
 31
0.0
  0
LINE
  5
16d
100
AcDbEntity
  8
Capa_1
 62
5
100
AcDbLine
 10
99.269452
 20
196.155188
 30
0.0
 11
99.269452
 21
196.155188
 31
0.0
  0
LINE
  5
16e
100
AcDbEntity
  8
Capa_1
 62
5
100
AcDbLine
 10
105.577177
 20
196.155188
 30
0.0
 11
106.901019
 21
196.155188
 31
0.0
  0
LINE
  5
16f
100
AcDbEntity
  8
Capa_1
 62
5
100
AcDbLine
 10
106.901019
 20
196.155188
 30
0.0
 11
110.123020
 21
190.137415
 31
0.0
  0
LINE
  5
170
100
AcDbEntity
  8
Capa_1
 62
5
100
AcDbLine
 10
110.123020
 20
190.137415
 30
0.0
 11
110.123020
 21
196.155188
 31
0.0
  0
LINE
  5
171
100
AcDbEntity
  8
Capa_1
 62
5
100
AcDbLine
 10
110.123020
 20
196.155188
 30
0.0
 11
111.076967
 21
196.155188
 31
0.0
  0
LINE
  5
172
100
AcDbEntity
  8
Capa_1
 62
5
100
AcDbLine
 10
111.076967
 20
196.155188
 30
0.0
 11
111.076967
 21
188.961806
 31
0.0
  0
LINE
  5
173
100
AcDbEntity
  8
Capa_1
 62
5
100
AcDbLine
 10
111.076967
 20
188.961806
 30
0.0
 11
109.753123
 21
188.961806
 31
0.0
  0
LINE
  5
174
100
AcDbEntity
  8
Capa_1
 62
5
100
AcDbLine
 10
109.753123
 20
188.961806
 30
0.0
 11
106.531124
 21
194.979579
 31
0.0
  0
LINE
  5
175
100
AcDbEntity
  8
Capa_1
 62
5
100
AcDbLine
 10
106.531124
 20
194.979579
 30
0.0
 11
106.531124
 21
188.961806
 31
0.0
  0
LINE
  5
176
100
AcDbEntity
  8
Capa_1
 62
5
100
AcDbLine
 10
106.531124
 20
188.961806
 30
0.0
 11
105.577177
 21
188.961806
 31
0.0
  0
LINE
  5
177
100
AcDbEntity
  8
Capa_1
 62
5
100
AcDbLine
 10
105.577177
 20
188.961806
 30
0.0
 11
105.577177
 21
196.155188
 31
0.0
  0
LINE
  5
178
100
AcDbEntity
  8
Capa_1
 62
5
100
AcDbLine
 10
105.577177
 20
196.155188
 30
0.0
 11
105.577177
 21
196.155188
 31
0.0
  0
SPLINE
  5
179
100
AcDbEntity
  8
Capa_1
 62
7
100
AcDbSpline
 70
0
 71
3
 72
31
 73
27
 74
25
 40
0.000000
 40
0.000000
 40
0.000000
 40
0.000000
 40
0.346488
 40
0.690109
 40
1.036597
 40
1.383086
 40
1.726706
 40
2.073195
 40
2.419683
 40
2.763304
 40
3.109792
 40
3.456280
 40
3.799901
 40
4.146389
 40
4.492877
 40
4.836498
 40
5.182986
 40
5.529474
 40
5.873095
 40
6.219583
 40
6.566071
 40
6.909692
 40
7.256180
 40
7.602669
 40
7.946290
 40
8.292778
 40
8.292778
 40
8.292778
 40
8.292778
 10
21.024130
 20
151.630205
 30
0.0
 10
21.032953
 20
151.746032
 30
0.0
 10
21.050527
 20
151.976727
 30
0.0
 10
21.189407
 20
152.299575
 30
0.0
 10
21.400700
 20
152.576952
 30
0.0
 10
21.678449
 20
152.789632
 30
0.0
 10
22.001198
 20
152.923360
 30
0.0
 10
22.347747
 20
152.969107
 30
0.0
 10
22.694262
 20
152.923360
 30
0.0
 10
23.017112
 20
152.789632
 30
0.0
 10
23.294488
 20
152.576951
 30
0.0
 10
23.507169
 20
152.299575
 30
0.0
 10
23.640897
 20
151.976727
 30
0.0
 10
23.686644
 20
151.630205
 30
0.0
 10
23.640897
 20
151.283682
 30
0.0
 10
23.507169
 20
150.960834
 30
0.0
 10
23.294488
 20
150.683458
 30
0.0
 10
23.017112
 20
150.470777
 30
0.0
 10
22.694262
 20
150.337049
 30
0.0
 10
22.347747
 20
150.291302
 30
0.0
 10
22.001198
 20
150.337049
 30
0.0
 10
21.678449
 20
150.470777
 30
0.0
 10
21.400700
 20
150.683457
 30
0.0
 10
21.189407
 20
150.960834
 30
0.0
 10
21.050527
 20
151.283682
 30
0.0
 10
21.032953
 20
151.514378
 30
0.0
 10
21.024130
 20
151.630205
 30
0.0
 11
21.024130
 21
151.630205
 31
0.0
 11
21.069477
 21
151.973712
 31
0.0
 11
21.200975
 21
152.291177
 31
0.0
 11
21.411807
 21
152.566139
 31
0.0
 11
21.686769
 21
152.776970
 31
0.0
 11
22.004233
 21
152.908468
 31
0.0
 11
22.347741
 21
152.953815
 31
0.0
 11
22.691249
 21
152.908468
 31
0.0
 11
23.008713
 21
152.776970
 31
0.0
 11
23.283676
 21
152.566139
 31
0.0
 11
23.494507
 21
152.291177
 31
0.0
 11
23.626005
 21
151.973712
 31
0.0
 11
23.671353
 21
151.630205
 31
0.0
 11
23.626005
 21
151.286697
 31
0.0
 11
23.494507
 21
150.969232
 31
0.0
 11
23.283676
 21
150.694270
 31
0.0
 11
23.008713
 21
150.483439
 31
0.0
 11
22.691249
 21
150.351941
 31
0.0
 11
22.347741
 21
150.306594
 31
0.0
 11
22.004233
 21
150.351941
 31
0.0
 11
21.686769
 21
150.483439
 31
0.0
 11
21.411807
 21
150.694270
 31
0.0
 11
21.200975
 21
150.969232
 31
0.0
 11
21.069477
 21
151.286697
 31
0.0
 11
21.024130
 21
151.630205
 31
0.0
  0
SPLINE
  5
17a
100
AcDbEntity
  8
Capa_1
 62
5
100
AcDbSpline
 70
0
 71
3
 72
16
 73
12
 74
10
 40
0.000000
 40
0.000000
 40
0.000000
 40
0.000000
 40
0.471794
 40
0.926245
 40
1.434879
 40
2.046794
 40
2.797907
 40
3.705221
 40
4.610396
 40
5.361509
 40
5.975435
 40
5.975435
 40
5.975435
 40
5.975435
 10
118.397041
 20
195.514385
 30
0.0
 10
118.238165
 20
195.500121
 30
0.0
 10
117.926254
 20
195.472118
 30
0.0
 10
117.515264
 20
195.191982
 30
0.0
 10
117.214478
 20
194.752683
 30
0.0
 10
117.011684
 20
194.156953
 30
0.0
 10
116.894676
 20
193.407235
 30
0.0
 10
116.861299
 20
192.551533
 30
0.0
 10
116.897782
 20
191.698376
 30
0.0
 10
117.002851
 20
190.942736
 30
0.0
 10
117.175589
 20
190.520183
 30
0.0
 10
117.253279
 20
190.330139
 30
0.0
 11
118.397041
 21
195.514385
 31
0.0
 11
117.932507
 21
195.431942
 31
0.0
 11
117.551252
 21
195.184614
 31
0.0
 11
117.253279
 21
194.772401
 31
0.0
 11
117.042373
 21
194.197980
 31
0.0
 11
116.915829
 21
193.457603
 31
0.0
 11
116.873648
 21
192.551270
 31
0.0
 11
116.915829
 21
191.647078
 31
0.0
 11
117.042373
 21
190.906702
 31
0.0
 11
117.253279
 21
190.330139
 31
0.0
  0
SPLINE
  5
17b
100
AcDbEntity
  8
Capa_1
 62
5
100
AcDbSpline
 70
0
 71
3
 72
19
 73
15
 74
13
 40
0.000000
 40
0.000000
 40
0.000000
 40
0.000000
 40
0.506467
 40
0.960046
 40
1.431747
 40
1.905578
 40
2.359157
 40
2.864353
 40
3.479214
 40
4.230602
 40
5.135803
 40
6.043142
 40
6.794530
 40
7.407384
 40
7.407384
 40
7.407384
 40
7.407384
 10
117.253279
 20
190.330139
 30
0.0
 10
117.342345
 20
190.184675
 30
0.0
 10
117.511178
 20
189.908936
 30
0.0
 10
117.927867
 20
189.641632
 30
0.0
 10
118.397436
 20
189.568344
 30
0.0
 10
118.868908
 20
189.640824
 30
0.0
 10
119.280695
 20
189.910363
 30
0.0
 10
119.580005
 20
190.352748
 30
0.0
 10
119.785296
 20
190.946371
 30
0.0
 10
119.903895
 20
191.696733
 30
0.0
 10
119.937829
 20
192.552412
 30
0.0
 10
119.900876
 20
193.405661
 30
0.0
 10
119.794686
 20
194.161817
 30
0.0
 10
119.619500
 20
194.583134
 30
0.0
 10
119.540802
 20
194.772401
 30
0.0
 11
117.253279
 21
190.330139
 31
0.0
 11
117.551252
 21
189.920602
 31
0.0
 11
117.932507
 21
189.674880
 31
0.0
 11
118.397041
 21
189.592973
 31
0.0
 11
118.863739
 21
189.674880
 31
0.0
 11
119.244993
 21
189.920602
 31
0.0
 11
119.540802
 21
190.330139
 31
0.0
 11
119.754413
 21
190.906702
 31
0.0
 11
119.882580
 21
191.647078
 31
0.0
 11
119.925302
 21
192.551270
 31
0.0
 11
119.882580
 21
193.457603
 31
0.0
 11
119.754413
 21
194.197980
 31
0.0
 11
119.540802
 21
194.772401
 31
0.0
  0
LINE
  5
17c
100
AcDbEntity
  8
Capa_1
 62
5
100
AcDbLine
 10
118.397041
 20
195.514385
 30
0.0
 11
118.397041
 21
195.514385
 31
0.0
  0
SPLINE
  5
17d
100
AcDbEntity
  8
Capa_1
 62
5
100
AcDbSpline
 70
0
 71
3
 72
10
 73
6
 74
4
 40
0.000000
 40
0.000000
 40
0.000000
 40
0.000000
 40
0.507368
 40
0.961819
 40
1.435743
 40
1.435743
 40
1.435743
 40
1.435743
 10
119.540802
 20
194.772401
 30
0.0
 10
119.452625
 20
194.918213
 30
0.0
 10
119.285468
 20
195.194630
 30
0.0
 10
118.868157
 20
195.471936
 30
0.0
 10
118.556261
 20
195.500039
 30
0.0
 10
118.397041
 20
195.514385
 30
0.0
 11
119.540802
 21
194.772401
 31
0.0
 11
119.244993
 21
195.184614
 31
0.0
 11
118.863739
 21
195.431942
 31
0.0
 11
118.397041
 21
195.514385
 31
0.0
  0
SPLINE
  5
17e
100
AcDbEntity
  8
Capa_1
 62
5
100
AcDbSpline
 70
0
 71
3
 72
10
 73
6
 74
4
 40
0.000000
 40
0.000000
 40
0.000000
 40
0.000000
 40
0.757598
 40
1.456336
 40
2.181899
 40
2.181899
 40
2.181899
 40
2.181899
 10
118.397041
 20
196.285276
 30
0.0
 10
118.650500
 20
196.267136
 30
0.0
 10
119.137725
 20
196.232264
 30
0.0
 10
119.810635
 20
195.891514
 30
0.0
 10
120.109091
 20
195.517175
 30
0.0
 10
120.261130
 20
195.326480
 30
0.0
 11
118.397041
 21
196.285276
 31
0.0
 11
119.147111
 21
196.178743
 31
0.0
 11
119.768474
 21
195.859144
 31
0.0
 11
120.261130
 21
195.326480
 31
0.0
  0
SPLINE
  5
17f
100
AcDbEntity
  8
Capa_1
 62
5
100
AcDbSpline
 70
0
 71
3
 72
19
 73
15
 74
13
 40
0.000000
 40
0.000000
 40
0.000000
 40
0.000000
 40
0.815881
 40
1.765782
 40
2.885886
 40
4.003853
 40
4.953754
 40
5.771557
 40
6.495158
 40
7.193163
 40
7.950685
 40
8.708743
 40
9.408193
 40
10.133637
 40
10.133637
 40
10.133637
 40
10.133637
 10
120.261130
 20
195.326480
 30
0.0
 10
120.393094
 20
195.087109
 30
0.0
 10
120.678699
 20
194.569048
 30
0.0
 10
120.867820
 20
193.613380
 30
0.0
 10
120.929441
 20
192.552698
 30
0.0
 10
120.871459
 20
191.487940
 30
0.0
 10
120.666789
 20
190.542347
 30
0.0
 10
120.311129
 20
189.782056
 30
0.0
 10
119.802785
 20
189.216070
 30
0.0
 10
119.139498
 20
188.881098
 30
0.0
 10
118.396268
 20
188.791014
 30
0.0
 10
117.656025
 20
188.882493
 30
0.0
 10
116.981824
 20
189.211640
 30
0.0
 10
116.681160
 20
189.585646
 30
0.0
 10
116.528086
 20
189.776061
 30
0.0
 11
120.261130
 21
195.326480
 31
0.0
 11
120.620753
 21
194.594132
 31
0.0
 11
120.836526
 21
193.669062
 31
0.0
 11
120.908450
 21
192.551270
 31
0.0
 11
120.836526
 21
191.435619
 31
0.0
 11
120.620753
 21
190.510549
 31
0.0
 11
120.261130
 21
189.776061
 31
0.0
 11
119.768474
 21
189.246072
 31
0.0
 11
119.147111
 21
188.928079
 31
0.0
 11
118.397041
 21
188.822081
 31
0.0
 11
117.646431
 21
188.928079
 31
0.0
 11
117.023446
 21
189.246072
 31
0.0
 11
116.528086
 21
189.776061
 31
0.0
  0
LINE
  5
180
100
AcDbEntity
  8
Capa_1
 62
5
100
AcDbLine
 10
118.397041
 20
196.285276
 30
0.0
 11
118.397041
 21
196.285276
 31
0.0
  0
LINE
  5
181
100
AcDbEntity
  8
Capa_1
 62
5
100
AcDbLine
 10
122.811473
 20
189.780878
 30
0.0
 11
124.417607
 21
189.780878
 31
0.0
  0
LINE
  5
182
100
AcDbEntity
  8
Capa_1
 62
5
100
AcDbLine
 10
124.417607
 20
189.780878
 30
0.0
 11
124.417607
 21
195.268663
 31
0.0
  0
LINE
  5
183
100
AcDbEntity
  8
Capa_1
 62
5
100
AcDbLine
 10
124.417607
 20
195.268663
 30
0.0
 11
122.670330
 21
194.921762
 31
0.0
  0
LINE
  5
184
100
AcDbEntity
  8
Capa_1
 62
5
100
AcDbLine
 10
122.670330
 20
194.921762
 30
0.0
 11
122.670330
 21
195.808288
 31
0.0
  0
LINE
  5
185
100
AcDbEntity
  8
Capa_1
 62
5
100
AcDbLine
 10
122.670330
 20
195.808288
 30
0.0
 11
124.407874
 21
196.155188
 31
0.0
  0
LINE
  5
186
100
AcDbEntity
  8
Capa_1
 62
5
100
AcDbLine
 10
124.407874
 20
196.155188
 30
0.0
 11
125.391022
 21
196.155188
 31
0.0
  0
LINE
  5
187
100
AcDbEntity
  8
Capa_1
 62
5
100
AcDbLine
 10
125.391022
 20
196.155188
 30
0.0
 11
125.391022
 21
189.780878
 31
0.0
  0
LINE
  5
188
100
AcDbEntity
  8
Capa_1
 62
5
100
AcDbLine
 10
125.391022
 20
189.780878
 30
0.0
 11
126.997156
 21
189.780878
 31
0.0
  0
LINE
  5
189
100
AcDbEntity
  8
Capa_1
 62
5
100
AcDbLine
 10
126.997156
 20
189.780878
 30
0.0
 11
126.997156
 21
188.961806
 31
0.0
  0
LINE
  5
18a
100
AcDbEntity
  8
Capa_1
 62
5
100
AcDbLine
 10
126.997156
 20
188.961806
 30
0.0
 11
122.811473
 21
188.961806
 31
0.0
  0
LINE
  5
18b
100
AcDbEntity
  8
Capa_1
 62
5
100
AcDbLine
 10
122.811473
 20
188.961806
 30
0.0
 11
122.811473
 21
189.780878
 31
0.0
  0
LINE
  5
18c
100
AcDbEntity
  8
Capa_1
 62
5
100
AcDbLine
 10
122.811473
 20
189.780878
 30
0.0
 11
122.811473
 21
189.780878
 31
0.0
  0
LINE
  5
18d
100
AcDbEntity
  8
Capa_1
 62
5
100
AcDbLine
 10
100.747208
 20
185.496063
 30
0.0
 11
101.369392
 21
185.496063
 31
0.0
  0
LINE
  5
18e
100
AcDbEntity
  8
Capa_1
 62
5
100
AcDbLine
 10
101.369392
 20
185.496063
 30
0.0
 11
102.156939
 21
183.395931
 31
0.0
  0
LINE
  5
18f
100
AcDbEntity
  8
Capa_1
 62
5
100
AcDbLine
 10
102.156939
 20
183.395931
 30
0.0
 11
102.948623
 21
185.496063
 31
0.0
  0
LINE
  5
190
100
AcDbEntity
  8
Capa_1
 62
5
100
AcDbLine
 10
102.948623
 20
185.496063
 30
0.0
 11
103.570807
 21
185.496063
 31
0.0
  0
LINE
  5
191
100
AcDbEntity
  8
Capa_1
 62
5
100
AcDbLine
 10
103.570807
 20
185.496063
 30
0.0
 11
103.570807
 21
182.409946
 31
0.0
  0
LINE
  5
192
100
AcDbEntity
  8
Capa_1
 62
5
100
AcDbLine
 10
103.570807
 20
182.409946
 30
0.0
 11
103.163597
 21
182.409946
 31
0.0
  0
LINE
  5
193
100
AcDbEntity
  8
Capa_1
 62
5
100
AcDbLine
 10
103.163597
 20
182.409946
 30
0.0
 11
103.163597
 21
185.119858
 31
0.0
  0
LINE
  5
194
100
AcDbEntity
  8
Capa_1
 62
5
100
AcDbLine
 10
103.163597
 20
185.119858
 30
0.0
 11
102.367779
 21
183.003191
 31
0.0
  0
LINE
  5
195
100
AcDbEntity
  8
Capa_1
 62
5
100
AcDbLine
 10
102.367779
 20
183.003191
 30
0.0
 11
101.948168
 21
183.003191
 31
0.0
  0
LINE
  5
196
100
AcDbEntity
  8
Capa_1
 62
5
100
AcDbLine
 10
101.948168
 20
183.003191
 30
0.0
 11
101.152349
 21
185.119858
 31
0.0
  0
LINE
  5
197
100
AcDbEntity
  8
Capa_1
 62
5
100
AcDbLine
 10
101.152349
 20
185.119858
 30
0.0
 11
101.152349
 21
182.409946
 31
0.0
  0
LINE
  5
198
100
AcDbEntity
  8
Capa_1
 62
5
100
AcDbLine
 10
101.152349
 20
182.409946
 30
0.0
 11
100.747208
 21
182.409946
 31
0.0
  0
LINE
  5
199
100
AcDbEntity
  8
Capa_1
 62
5
100
AcDbLine
 10
100.747208
 20
182.409946
 30
0.0
 11
100.747208
 21
185.496063
 31
0.0
  0
LINE
  5
19a
100
AcDbEntity
  8
Capa_1
 62
5
100
AcDbLine
 10
100.747208
 20
185.496063
 30
0.0
 11
100.747208
 21
185.496063
 31
0.0
  0
LINE
  5
19b
100
AcDbEntity
  8
Capa_1
 62
5
100
AcDbLine
 10
106.365468
 20
183.662581
 30
0.0
 11
106.365468
 21
183.476545
 31
0.0
  0
LINE
  5
19c
100
AcDbEntity
  8
Capa_1
 62
5
100
AcDbLine
 10
106.365468
 20
183.476545
 30
0.0
 11
104.616737
 21
183.476545
 31
0.0
  0
SPLINE
  5
19d
100
AcDbEntity
  8
Capa_1
 62
5
100
AcDbSpline
 70
0
 71
3
 72
16
 73
12
 74
10
 40
0.000000
 40
0.000000
 40
0.000000
 40
0.000000
 40
0.816618
 40
1.766152
 40
2.884084
 40
4.004154
 40
4.953688
 40
5.768380
 40
6.495782
 40
7.195963
 40
7.954096
 40
7.954096
 40
7.954096
 40
7.954096
 10
116.528086
 20
189.776061
 30
0.0
 10
116.397129
 20
190.016228
 30
0.0
 10
116.113900
 20
190.535654
 30
0.0
 10
115.926008
 20
191.490692
 30
0.0
 10
115.864804
 20
192.551260
 30
0.0
 10
115.922253
 20
193.615942
 30
0.0
 10
116.125019
 20
194.561061
 30
0.0
 10
116.478958
 20
195.323328
 30
0.0
 10
116.988820
 20
195.886603
 30
0.0
 10
117.653515
 20
196.233414
 30
0.0
 10
118.142719
 20
196.267537
 30
0.0
 10
118.397041
 20
196.285276
 30
0.0
 11
116.528086
 21
189.776061
 31
0.0
 11
116.171167
 21
190.510549
 31
0.0
 11
115.957016
 21
191.435619
 31
0.0
 11
115.885632
 21
192.551270
 31
0.0
 11
115.957016
 21
193.669062
 31
0.0
 11
116.171167
 21
194.594132
 31
0.0
 11
116.528086
 21
195.326480
 31
0.0
 11
117.023446
 21
195.859144
 31
0.0
 11
117.646431
 21
196.178743
 31
0.0
 11
118.397041
 21
196.285276
 31
0.0
  0
LINE
  5
19e
100
AcDbEntity
  8
Capa_1
 62
5
100
AcDbLine
 10
106.276585
 20
182.887435
 30
0.0
 11
106.276585
 21
182.527768
 31
0.0
  0
SPLINE
  5
19f
100
AcDbEntity
  8
Capa_1
 62
5
100
AcDbSpline
 70
0
 71
3
 72
19
 73
15
 74
13
 40
0.000000
 40
0.000000
 40
0.000000
 40
0.000000
 40
0.244010
 40
0.458710
 40
0.657423
 40
0.853956
 40
1.062488
 40
1.297398
 40
1.441986
 40
1.584367
 40
1.725594
 40
1.869158
 40
2.015787
 40
2.166375
 40
2.166375
 40
2.166375
 40
2.166375
 10
104.616737
 20
183.476545
 30
0.0
 10
104.625414
 20
183.395394
 30
0.0
 10
104.641726
 20
183.242840
 30
0.0
 10
104.721713
 20
183.035831
 30
0.0
 10
104.844255
 20
182.869901
 30
0.0
 10
105.012020
 20
182.752740
 30
0.0
 10
105.216740
 20
182.684549
 30
0.0
 10
105.413549
 20
182.668894
 30
0.0
 10
105.587435
 20
182.676430
 30
0.0
 10
105.729255
 20
182.694191
 30
0.0
 10
105.868568
 20
182.724505
 30
0.0
 10
106.006205
 20
182.766609
 30
0.0
 10
106.143267
 20
182.820145
 30
0.0
 10
106.231752
 20
182.864806
 30
0.0
 10
106.276585
 20
182.887435
 30
0.0
 11
104.616737
 21
183.476545
 31
0.0
 11
104.653945
 21
183.235389
 31
0.0
 11
104.732493
 21
183.035574
 31
0.0
 11
104.852381
 21
182.877100
 31
0.0
 11
105.012694
 21
182.763411
 31
0.0
 11
105.209754
 21
182.695198
 31
0.0
 11
105.443561
 21
182.672460
 31
0.0
 11
105.588025
 21
182.678432
 31
0.0
 11
105.729275
 21
182.696346
 31
0.0
 11
105.867309
 21
182.726204
 31
0.0
 11
106.004653
 21
182.768004
 31
0.0
 11
106.141078
 21
182.821748
 31
0.0
 11
106.276585
 21
182.887435
 31
0.0
  0
LINE
  5
1a0
100
AcDbEntity
  8
Capa_1
 62
5
100
AcDbLine
 10
106.365468
 20
183.662581
 30
0.0
 11
106.365468
 21
183.662581
 31
0.0
  0
SPLINE
  5
1a1
100
AcDbEntity
  8
Capa_1
 62
5
100
AcDbSpline
 70
0
 71
3
 72
31
 73
27
 74
25
 40
0.000000
 40
0.000000
 40
0.000000
 40
0.000000
 40
0.147533
 40
0.294191
 40
0.440582
 40
0.586786
 40
0.732957
 40
0.879806
 40
1.225488
 40
1.537425
 40
1.838394
 40
2.138072
 40
2.448070
 40
2.791239
 40
3.145651
 40
3.462899
 40
3.763587
 40
4.058618
 40
4.356610
 40
4.682351
 40
4.973903
 40
5.239659
 40
5.502438
 40
5.772850
 40
6.059808
 40
6.381633
 40
6.381633
 40
6.381633
 40
6.381633
 10
106.276585
 20
182.527768
 30
0.0
 10
106.230956
 20
182.509379
 30
0.0
 10
106.139970
 20
182.472710
 30
0.0
 10
105.999605
 20
182.429002
 30
0.0
 10
105.857382
 20
182.393866
 30
0.0
 10
105.713219
 20
182.368505
 30
0.0
 10
105.567456
 20
182.353378
 30
0.0
 10
105.354647
 20
182.345840
 30
0.0
 10
105.085251
 20
182.369645
 30
0.0
 10
104.780339
 20
182.478113
 30
0.0
 10
104.532128
 20
182.661624
 30
0.0
 10
104.348128
 20
182.908611
 30
0.0
 10
104.239469
 20
183.211587
 30
0.0
 10
104.209756
 20
183.548577
 30
0.0
 10
104.238587
 20
183.887641
 30
0.0
 10
104.340101
 20
184.199402
 30
0.0
 10
104.513887
 20
184.454214
 30
0.0
 10
104.747747
 20
184.645960
 30
0.0
 10
105.036989
 20
184.759874
 30
0.0
 10
105.343238
 20
184.791194
 30
0.0
 10
105.638701
 20
184.762317
 30
0.0
 10
105.896765
 20
184.659445
 30
0.0
 10
106.103774
 20
184.485442
 30
0.0
 10
106.258152
 20
184.255939
 30
0.0
 10
106.351022
 20
183.973519
 30
0.0
 10
106.360472
 20
183.770110
 30
0.0
 10
106.365468
 20
183.662581
 30
0.0
 11
106.276585
 21
182.527768
 31
0.0
 11
106.139010
 21
182.474483
 31
0.0
 11
105.999139
 21
182.430386
 31
0.0
 11
105.856971
 21
182.395476
 31
0.0
 11
105.712967
 21
182.370211
 31
0.0
 11
105.567584
 21
182.355052
 31
0.0
 11
105.420822
 21
182.349999
 31
0.0
 11
105.077002
 21
182.385828
 31
0.0
 11
104.784169
 21
182.493315
 31
0.0
 11
104.542323
 21
182.672460
 31
0.0
 11
104.363178
 21
182.912699
 31
0.0
 11
104.255691
 21
183.203465
 31
0.0
 11
104.219862
 21
183.544758
 31
0.0
 11
104.253854
 21
183.897536
 31
0.0
 11
104.355829
 21
184.197949
 31
0.0
 11
104.525788
 21
184.445996
 31
0.0
 11
104.754772
 21
184.632032
 31
0.0
 11
105.031069
 21
184.743653
 31
0.0
 11
105.354678
 21
184.780861
 31
0.0
 11
105.644295
 21
184.747328
 31
0.0
 11
105.890275
 21
184.646731
 31
0.0
 11
106.092618
 21
184.479069
 31
0.0
 11
106.244201
 21
184.255138
 31
0.0
 11
106.335151
 21
183.982975
 31
0.0
 11
106.365468
 21
183.662581
 31
0.0
  0
LINE
  5
1a2
100
AcDbEntity
  8
Capa_1
 62
5
100
AcDbLine
 10
104.629141
 20
183.772136
 30
0.0
 11
105.985131
 21
183.774112
 31
0.0
  0
LINE
  5
1a3
100
AcDbEntity
  8
Capa_1
 62
5
100
AcDbLine
 10
105.985131
 20
183.774112
 30
0.0
 11
105.985131
 21
183.774202
 31
0.0
  0
LINE
  5
1a4
100
AcDbEntity
  8
Capa_1
 62
5
100
AcDbLine
 10
108.513142
 20
184.373648
 30
0.0
 11
108.513142
 21
185.626286
 31
0.0
  0
LINE
  5
1a5
100
AcDbEntity
  8
Capa_1
 62
5
100
AcDbLine
 10
108.513142
 20
185.626286
 30
0.0
 11
108.893479
 21
185.626286
 31
0.0
  0
LINE
  5
1a6
100
AcDbEntity
  8
Capa_1
 62
5
100
AcDbLine
 10
108.893479
 20
185.626286
 30
0.0
 11
108.893479
 21
182.409946
 31
0.0
  0
LINE
  5
1a7
100
AcDbEntity
  8
Capa_1
 62
5
100
AcDbLine
 10
108.893479
 20
182.409946
 30
0.0
 11
108.513142
 21
182.409946
 31
0.0
  0
LINE
  5
1a8
100
AcDbEntity
  8
Capa_1
 62
5
100
AcDbLine
 10
108.513142
 20
182.409946
 30
0.0
 11
108.513142
 21
182.757212
 31
0.0
  0
SPLINE
  5
1a9
100
AcDbEntity
  8
Capa_1
 62
5
100
AcDbSpline
 70
0
 71
3
 72
19
 73
15
 74
13
 40
0.000000
 40
0.000000
 40
0.000000
 40
0.000000
 40
0.195247
 40
0.371326
 40
0.539328
 40
0.701832
 40
0.864335
 40
1.040562
 40
1.239775
 40
1.420211
 40
1.593973
 40
1.768332
 40
1.952264
 40
2.157094
 40
2.157094
 40
2.157094
 40
2.157094
 10
105.985131
 20
183.774202
 30
0.0
 10
105.981128
 20
183.839398
 30
0.0
 10
105.973515
 20
183.963389
 30
0.0
 10
105.913300
 20
184.135531
 30
0.0
 10
105.816261
 20
184.275976
 30
0.0
 10
105.688473
 20
184.383004
 30
0.0
 10
105.531139
 20
184.446863
 30
0.0
 10
105.351073
 20
184.464434
 30
0.0
 10
105.165305
 20
184.447083
 30
0.0
 10
104.988694
 20
184.387034
 30
0.0
 10
104.842168
 20
184.284614
 30
0.0
 10
104.730962
 20
184.143696
 30
0.0
 10
104.655878
 20
183.968908
 30
0.0
 10
104.638367
 20
183.840036
 30
0.0
 10
104.629141
 20
183.772136
 30
0.0
 11
105.985131
 21
183.774202
 31
0.0
 11
105.963765
 21
183.968276
 31
0.0
 11
105.905198
 21
184.134330
 31
0.0
 11
105.809431
 21
184.272364
 31
0.0
 11
105.684029
 21
184.375717
 31
0.0
 11
105.533822
 21
184.437729
 31
0.0
 11
105.358812
 21
184.458399
 31
0.0
 11
105.160604
 21
184.438418
 31
0.0
 11
104.990417
 21
184.378473
 31
0.0
 11
104.848249
 21
184.278564
 31
0.0
 11
104.739384
 21
184.142368
 31
0.0
 11
104.666348
 21
183.973559
 31
0.0
 11
104.629141
 21
183.772136
 31
0.0
  0
LINE
  5
1aa
100
AcDbEntity
  8
Capa_1
 62
5
100
AcDbLine
 10
108.513142
 20
184.373648
 30
0.0
 11
108.513142
 21
184.373648
 31
0.0
  0
SPLINE
  5
1ab
100
AcDbEntity
  8
Capa_1
 62
5
100
AcDbSpline
 70
0
 71
3
 72
31
 73
27
 74
25
 40
0.000000
 40
0.000000
 40
0.000000
 40
0.000000
 40
0.153220
 40
0.297437
 40
0.437524
 40
0.578302
 40
0.728072
 40
0.891053
 40
1.156194
 40
1.410110
 40
1.678617
 40
1.965174
 40
2.271461
 40
2.613083
 40
2.954707
 40
3.260996
 40
3.547553
 40
3.816060
 40
4.069976
 40
4.335116
 40
4.498114
 40
4.648037
 40
4.789268
 40
4.928709
 40
5.072437
 40
5.225468
 40
5.225468
 40
5.225468
 40
5.225468
 10
108.513142
 20
182.757212
 30
0.0
 10
108.485633
 20
182.714035
 30
0.0
 10
108.432230
 20
182.630220
 30
0.0
 10
108.328629
 20
182.525981
 30
0.0
 10
108.211464
 20
182.444805
 30
0.0
 10
108.078165
 20
182.388966
 30
0.0
 10
107.929796
 20
182.356523
 30
0.0
 10
107.737176
 20
182.343830
 30
0.0
 10
107.508086
 20
182.371992
 30
0.0
 10
107.268174
 20
182.490286
 30
0.0
 10
107.073298
 20
182.682157
 30
0.0
 10
106.926974
 20
182.932792
 30
0.0
 10
106.840437
 20
183.234936
 30
0.0
 10
106.815876
 20
183.565429
 30
0.0
 10
106.840437
 20
183.895922
 30
0.0
 10
106.926974
 20
184.198068
 30
0.0
 10
107.073298
 20
184.448701
 30
0.0
 10
107.268175
 20
184.640581
 30
0.0
 10
107.508083
 20
184.758843
 30
0.0
 10
107.737192
 20
184.787112
 30
0.0
 10
107.929835
 20
184.774160
 30
0.0
 10
108.078421
 20
184.741197
 30
0.0
 10
108.210838
 20
184.683610
 30
0.0
 10
108.328787
 20
184.604180
 30
0.0
 10
108.432316
 20
184.500327
 30
0.0
 10
108.485643
 20
184.416748
 30
0.0
 10
108.513142
 20
184.373648
 30
0.0
 11
108.513142
 21
182.757212
 31
0.0
 11
108.426095
 21
182.631120
 31
0.0
 11
108.324810
 21
182.528456
 31
0.0
 11
108.209285
 21
182.449220
 31
0.0
 11
108.079748
 21
182.394097
 31
0.0
 11
107.933675
 21
182.361023
 31
0.0
 11
107.771067
 21
182.349999
 31
0.0
 11
107.508550
 21
182.387206
 31
0.0
 11
107.280484
 21
182.498828
 31
0.0
 11
107.086870
 21
182.684864
 31
0.0
 11
106.941029
 21
182.931532
 31
0.0
 11
106.853524
 21
183.225054
 31
0.0
 11
106.824355
 21
183.565428
 31
0.0
 11
106.853524
 21
183.905805
 31
0.0
 11
106.941029
 21
184.199327
 31
0.0
 11
107.086870
 21
184.445996
 31
0.0
 11
107.280484
 21
184.632032
 31
0.0
 11
107.508550
 21
184.743653
 31
0.0
 11
107.771067
 21
184.780861
 31
0.0
 11
107.933675
 21
184.769607
 31
0.0
 11
108.079748
 21
184.735844
 31
0.0
 11
108.209285
 21
184.679574
 31
0.0
 11
108.324810
 21
184.601485
 31
0.0
 11
108.426095
 21
184.499510
 31
0.0
 11
108.513142
 21
184.373648
 31
0.0
  0
LINE
  5
1ac
100
AcDbEntity
  8
Capa_1
 62
5
100
AcDbLine
 10
107.217096
 20
183.565428
 30
0.0
 11
107.217096
 21
183.565428
 31
0.0
  0
SPLINE
  5
1ad
100
AcDbEntity
  8
Capa_1
 62
5
100
AcDbSpline
 70
0
 71
3
 72
31
 73
27
 74
25
 40
0.000000
 40
0.000000
 40
0.000000
 40
0.000000
 40
0.260458
 40
0.487572
 40
0.691104
 40
0.876413
 40
1.053593
 40
1.242402
 40
1.431213
 40
1.608393
 40
1.793701
 40
1.997774
 40
2.225063
 40
2.485537
 40
2.745785
 40
2.972409
 40
3.175471
 40
3.361599
 40
3.539088
 40
3.727931
 40
3.916773
 40
4.094262
 40
4.280390
 40
4.482909
 40
4.709358
 40
4.969588
 40
4.969588
 40
4.969588
 40
4.969588
 10
107.217096
 20
183.565428
 30
0.0
 10
107.220167
 20
183.478471
 30
0.0
 10
107.225916
 20
183.315688
 30
0.0
 10
107.282988
 20
183.090483
 30
0.0
 10
107.377112
 20
182.905578
 30
0.0
 10
107.510175
 20
182.767175
 30
0.0
 10
107.678019
 20
182.683519
 30
0.0
 10
107.864091
 20
182.660485
 30
0.0
 10
108.050127
 20
182.683528
 30
0.0
 10
108.218075
 20
182.767138
 30
0.0
 10
108.350860
 20
182.905861
 30
0.0
 10
108.446758
 20
183.090222
 30
0.0
 10
108.502920
 20
183.315628
 30
0.0
 10
108.518607
 20
183.565363
 30
0.0
 10
108.502909
 20
183.814815
 30
0.0
 10
108.446989
 20
184.039756
 30
0.0
 10
108.350152
 20
184.223172
 30
0.0
 10
108.218353
 20
184.362748
 30
0.0
 10
108.050254
 20
184.447155
 30
0.0
 10
107.864091
 20
184.470459
 30
0.0
 10
107.677892
 20
184.447165
 30
0.0
 10
107.509897
 20
184.362710
 30
0.0
 10
107.377818
 20
184.223458
 30
0.0
 10
107.282755
 20
184.039492
 30
0.0
 10
107.225933
 20
183.814760
 30
0.0
 10
107.220175
 20
183.652298
 30
0.0
 10
107.217096
 20
183.565428
 30
0.0
 11
107.217096
 21
183.565428
 31
0.0
 11
107.236159
 21
183.305669
 31
0.0
 11
107.293347
 21
183.085873
 31
0.0
 11
107.388662
 21
182.906039
 31
0.0
 11
107.518657
 21
182.773976
 31
0.0
 11
107.677132
 21
182.694738
 31
0.0
 11
107.864085
 21
182.668326
 31
0.0
 11
108.051039
 21
182.694738
 31
0.0
 11
108.209513
 21
182.773976
 31
0.0
 11
108.339508
 21
182.906039
 31
0.0
 11
108.435971
 21
183.085873
 31
0.0
 11
108.493849
 21
183.305669
 31
0.0
 11
108.513142
 21
183.565428
 31
0.0
 11
108.493849
 21
183.824960
 31
0.0
 11
108.435971
 21
184.044068
 31
0.0
 11
108.339508
 21
184.222755
 31
0.0
 11
108.209513
 21
184.355965
 31
0.0
 11
108.051039
 21
184.435892
 31
0.0
 11
107.864085
 21
184.462534
 31
0.0
 11
107.677132
 21
184.435892
 31
0.0
 11
107.518657
 21
184.355965
 31
0.0
 11
107.388662
 21
184.222755
 31
0.0
 11
107.293347
 21
184.044068
 31
0.0
 11
107.236159
 21
183.824960
 31
0.0
 11
107.217096
 21
183.565428
 31
0.0
  0
ENDSEC
  0
SECTION
  2
OBJECTS
  0
DICTIONARY
  5
C
330
0
100
AcDbDictionary
  3
ACAD_GROUP
350
D
  3
ACAD_MLINESTYLE
350
17
  0
DICTIONARY
  5
D
330
C
100
AcDbDictionary
  0
DICTIONARY
  5
1A
330
C
100
AcDbDictionary
  0
DICTIONARY
  5
17
330
C
100
AcDbDictionary
  3
STANDARD
350
18
  0
DICTIONARY
  5
19
330
C
100
AcDbDictionary
  0
ENDSEC
  0
EOF
