<?xml version="1.0" encoding="UTF-8" standalone="no"?>
<!-- Created with Inkscape (http://www.inkscape.org/) -->

<svg
   xmlns:dc="http://purl.org/dc/elements/1.1/"
   xmlns:cc="http://creativecommons.org/ns#"
   xmlns:rdf="http://www.w3.org/1999/02/22-rdf-syntax-ns#"
   xmlns:svg="http://www.w3.org/2000/svg"
   xmlns="http://www.w3.org/2000/svg"
   xmlns:sodipodi="http://sodipodi.sourceforge.net/DTD/sodipodi-0.dtd"
   xmlns:inkscape="http://www.inkscape.org/namespaces/inkscape"
   width="209.99979mm"
   height="203.80467mm"
   viewBox="0 0 744.09372 722.14254"
   id="svg2"
   version="1.1"
   inkscape:version="0.91 r13725"
   sodipodi:docname="Alien_motor_base_01.svg">
  <defs
     id="defs4" />
  <sodipodi:namedview
     id="base"
     pagecolor="#ffffff"
     bordercolor="#666666"
     borderopacity="1"
     inkscape:pageopacity="0.0"
     inkscape:pageshadow="2"
     inkscape:zoom="1.0382658"
     inkscape:cx="256.56353"
     inkscape:cy="373.41331"
     inkscape:document-units="px"
     inkscape:current-layer="layer1"
     showgrid="false"
     showborder="true"
     inkscape:window-width="1920"
     inkscape:window-height="1017"
     inkscape:window-x="-8"
     inkscape:window-y="-8"
     inkscape:window-maximized="1"
     showguides="true"
     fit-margin-top="0"
     fit-margin-left="0"
     fit-margin-right="0"
     fit-margin-bottom="0"
     inkscape:guide-bbox="true">
    <sodipodi:guide
       position="371.98398,686.5066"
       orientation="1,0"
       id="guide3440" />
    <sodipodi:guide
       position="228.85864,372.18267"
       orientation="0,1"
       id="guide3442" />
  </sodipodi:namedview>
  <metadata
     id="metadata7">
    <rdf:RDF>
      <cc:Work
         rdf:about="">
        <dc:format>image/svg+xml</dc:format>
        <dc:type
           rdf:resource="http://purl.org/dc/dcmitype/StillImage" />
        <dc:title></dc:title>
      </cc:Work>
    </rdf:RDF>
  </metadata>
  <g
     inkscape:label="Capa 1"
     inkscape:groupmode="layer"
     id="layer1"
     transform="translate(0,-330.21876)">
    <path
       sodipodi:nodetypes="csccccssscsssccccsssscsssssccccsssscsssssccccscssscsssc"
       inkscape:connector-curvature="0"
       style="opacity:1;fill:none;fill-opacity:1;stroke:#000000;stroke-width:1;stroke-linecap:round;stroke-linejoin:round;stroke-miterlimit:10;stroke-dasharray:none;stroke-dashoffset:0;stroke-opacity:1"
       d="m 247.3418,330.71875 c -9.43102,3.44583 -18.71493,7.27125 -27.82925,11.46601 -8.32252,3.83033 -16.50363,7.96861 -24.52622,12.40704 L 265.22461,424.83008 115.7793,574.27539 45.617188,504.11328 c -7.345977,13.51249 -13.824362,27.42811 -19.413428,41.66199 -5.319529,13.54745 -9.833446,27.3832 -13.523017,41.4341 C 8.5761474,602.84079 5.4917823,618.73848 3.4534412,634.80171 1.5433526,649.85425 0.55179735,665.05214 0.5,680.3125 c 0.009614,16.89684 1.1715466,33.72041 3.4573269,50.35811 2.3201317,16.88773 5.798144,33.58395 10.4042621,49.97091 3.857805,13.72472 8.506945,27.2325 13.929928,40.45415 4.94691,12.06095 10.537757,23.88381 16.759264,35.41605 l 71.027339,-70.65234 149.29883,149.59374 -71.07617,70.70118 c 10.97142,6.0116 22.21112,11.4499 33.67346,16.3032 10.62504,4.4987 21.44138,8.4947 32.41267,11.9786 14.27058,4.5316 28.80331,8.1969 43.51818,10.9753 15.34319,2.897 30.88441,4.8298 46.53297,5.7749 7.18324,0.4339 14.38911,0.6596 21.60882,0.675 12.1214,0 24.20505,-0.6025 36.20938,-1.7827 8.61508,-0.8471 17.18931,-1.9941 25.70733,-3.4373 10.81166,-1.8317 21.53276,-4.1405 32.13189,-6.9184 9.98723,-2.6175 19.86616,-5.6515 29.61052,-9.0953 8.41114,-2.9726 16.72202,-6.2506 24.91574,-9.8296 9.58313,-4.1859 19.00599,-8.7836 28.24154,-13.7863 l -71.07031,-70.916 149.75391,-149.13867 70.67382,70.51953 c 5.74186,-10.52586 10.9567,-21.29728 15.63422,-32.27407 4.16277,-9.76883 7.89998,-19.70032 11.20438,-29.76612 3.74843,-11.41845 6.9399,-23.00974 9.56382,-34.73251 2.68017,-11.97409 4.76819,-24.08535 6.25277,-36.28973 1.77509,-14.59254 2.68748,-29.3182 2.71786,-44.10163 -0.006,-4.33193 -0.0886,-8.65894 -0.24601,-12.97912 -0.54751,-15.02596 -2.00532,-29.9694 -4.35301,-44.75056 -2.75139,-17.32284 -6.72501,-34.42279 -11.88802,-51.17148 -2.28229,-7.40372 -4.79699,-14.73879 -7.54127,-21.99414 -2.44801,-6.47208 -5.0787,-12.88071 -7.89006,-19.21804 -4.11602,-9.27826 -8.61929,-18.40366 -13.5035,-27.3515 l -70.46876,70.46875 -149.44531,-149.44532 69.86133,-69.86132 c -7.67558,-4.19607 -15.49419,-8.11826 -23.44095,-11.75983 -9.15222,-4.19398 -18.47441,-8.01574 -27.94381,-11.45502 -6.29709,11.87495 -14.14841,22.60594 -23.22708,31.99622 -8.70073,8.99935 -18.52877,16.76729 -29.19639,23.13059 -13.1595,7.84972 -27.59664,13.56193 -42.77132,16.81149 -9.58215,2.05194 -19.45838,3.12194 -29.49271,3.12811 -12.29559,-0.01 -24.35343,-1.61636 -35.92339,-4.66973 -13.39976,-3.53625 -26.14512,-9.01279 -37.84754,-16.19548 -10.91814,-6.70133 -20.92845,-14.88778 -29.71535,-24.36923 -8.23367,-8.88447 -15.39314,-18.906 -21.2188,-29.90814 z"
       id="path4136" />
    <g
       id="g4619"
       transform="translate(-7.0877591,-7.0850191)">
      <path
         style="opacity:1;fill:none;fill-opacity:1;stroke:#ff0000;stroke-width:1;stroke-linecap:round;stroke-linejoin:round;stroke-miterlimit:10;stroke-dasharray:none;stroke-dashoffset:0;stroke-opacity:1"
         d="M 223.46094,467.74927 353.03965,597.32799 288.60385,661.76378 159.02514,532.18507 Z"
         id="rect4141"
         inkscape:connector-curvature="0" />
      <g
         transform="matrix(0.70710678,0.70710679,-0.70710679,0.70710678,448.59929,285.49948)"
         id="g4147"
         style="stroke:#000000;stroke-opacity:1">
        <path
           style="opacity:1;fill:none;fill-opacity:1;stroke:#000000;stroke-width:1.25;stroke-linecap:round;stroke-linejoin:round;stroke-miterlimit:10;stroke-dasharray:none;stroke-dashoffset:0;stroke-opacity:1"
           d="M 10.254921,333.62991 A 4.8149605,4.8149605 0 0 1 5.4399605,338.44487 4.8149605,4.8149605 0 0 1 0.625,333.62991 a 4.8149605,4.8149605 0 0 1 4.8149605,-4.81496 4.8149605,4.8149605 0 0 1 4.8149605,4.81496 z"
           id="path4143"
           inkscape:connector-curvature="0" />
        <path
           style="opacity:1;fill:none;fill-opacity:1;stroke:#000000;stroke-width:1.25;stroke-linecap:round;stroke-linejoin:round;stroke-miterlimit:10;stroke-dasharray:none;stroke-dashoffset:0;stroke-opacity:1"
           d="m 142.06594,333.62991 a 4.8149605,4.8149605 0 0 1 -4.81496,4.81496 4.8149605,4.8149605 0 0 1 -4.81496,-4.81496 4.8149605,4.8149605 0 0 1 4.81496,-4.81496 4.8149605,4.8149605 0 0 1 4.81496,4.81496 z"
           id="circle4145"
           inkscape:connector-curvature="0" />
      </g>
    </g>
    <g
       id="g4613"
       transform="translate(7.0851498,-7.0851544)">
      <path
         style="opacity:1;fill:none;fill-opacity:1;stroke:#ff0000;stroke-width:1;stroke-linecap:round;stroke-linejoin:round;stroke-miterlimit:10;stroke-dasharray:none;stroke-dashoffset:0;stroke-opacity:1"
         d="m 585.16555,531.54742 -129.5787,129.5787 -64.4358,-64.4358 129.57871,-129.5787 z"
         id="rect4218"
         inkscape:connector-curvature="0" />
      <g
         id="g4220"
         transform="matrix(-0.70710679,0.70710678,-0.70710678,-0.70710679,767.41536,756.68576)"
         style="stroke:#000000;stroke-opacity:1">
        <path
           style="opacity:1;fill:none;fill-opacity:1;stroke:#000000;stroke-width:1.25;stroke-linecap:round;stroke-linejoin:round;stroke-miterlimit:10;stroke-dasharray:none;stroke-dashoffset:0;stroke-opacity:1"
           d="M 10.254921,333.62991 A 4.8149605,4.8149605 0 0 1 5.4399605,338.44487 4.8149605,4.8149605 0 0 1 0.625,333.62991 a 4.8149605,4.8149605 0 0 1 4.8149605,-4.81496 4.8149605,4.8149605 0 0 1 4.8149605,4.81496 z"
           id="circle4222"
           inkscape:connector-curvature="0" />
        <path
           style="opacity:1;fill:none;fill-opacity:1;stroke:#000000;stroke-width:1.25;stroke-linecap:round;stroke-linejoin:round;stroke-miterlimit:10;stroke-dasharray:none;stroke-dashoffset:0;stroke-opacity:1"
           d="m 142.06594,333.62991 a 4.8149605,4.8149605 0 0 1 -4.81496,4.81496 4.8149605,4.8149605 0 0 1 -4.81496,-4.81496 4.8149605,4.8149605 0 0 1 4.81496,-4.81496 4.8149605,4.8149605 0 0 1 4.81496,4.81496 z"
           id="circle4224"
           inkscape:connector-curvature="0" />
      </g>
    </g>
    <g
       id="g4625"
       transform="translate(7.085015,7.0881778)">
      <path
         style="opacity:1;fill:none;fill-opacity:1;stroke:#ff0000;stroke-width:1;stroke-linecap:round;stroke-linejoin:round;stroke-miterlimit:10;stroke-dasharray:none;stroke-dashoffset:0;stroke-opacity:1"
         d="m 520.47832,893.25515 -129.57871,-129.57871 64.4358,-64.4358 129.57871,129.57871 z"
         id="rect4234"
         inkscape:connector-curvature="0" />
      <g
         id="g4236"
         transform="matrix(-0.70710678,-0.70710679,0.70710679,-0.70710678,295.34001,1075.505)">
        <path
           style="opacity:1;fill:none;fill-opacity:1;stroke:#000000;stroke-width:1.25;stroke-linecap:round;stroke-linejoin:round;stroke-miterlimit:10;stroke-dasharray:none;stroke-dashoffset:0;stroke-opacity:1"
           d="M 10.254921,333.62991 A 4.8149605,4.8149605 0 0 1 5.4399605,338.44487 4.8149605,4.8149605 0 0 1 0.625,333.62991 a 4.8149605,4.8149605 0 0 1 4.8149605,-4.81496 4.8149605,4.8149605 0 0 1 4.8149605,4.81496 z"
           id="circle4238"
           inkscape:connector-curvature="0" />
        <path
           style="opacity:1;fill:none;fill-opacity:1;stroke:#000000;stroke-width:1.25;stroke-linecap:round;stroke-linejoin:round;stroke-miterlimit:10;stroke-dasharray:none;stroke-dashoffset:0;stroke-opacity:1"
           d="m 142.06594,333.62991 a 4.8149605,4.8149605 0 0 1 -4.81496,4.81496 4.8149605,4.8149605 0 0 1 -4.81496,-4.81496 4.8149605,4.8149605 0 0 1 4.81496,-4.81496 4.8149605,4.8149605 0 0 1 4.81496,4.81496 z"
           id="circle4240"
           inkscape:connector-curvature="0" />
      </g>
    </g>
    <g
       id="g4631"
       transform="translate(-7.0877291,7.0867083)">
      <path
         style="opacity:1;fill:none;fill-opacity:1;stroke:#ff0000;stroke-width:1;stroke-linecap:round;stroke-linejoin:round;stroke-miterlimit:10;stroke-dasharray:none;stroke-dashoffset:0;stroke-opacity:1"
         d="M 159.02511,829.19641 288.60383,699.6177 353.03962,764.0535 223.46091,893.63221 Z"
         id="rect4248"
         inkscape:connector-curvature="0" />
      <g
         transform="matrix(0.70710679,-0.70710678,0.70710678,0.70710679,-23.224686,604.05808)"
         id="g4250">
        <path
           style="opacity:1;fill:none;fill-opacity:1;stroke:#000000;stroke-width:1.25;stroke-linecap:round;stroke-linejoin:round;stroke-miterlimit:10;stroke-dasharray:none;stroke-dashoffset:0;stroke-opacity:1"
           d="M 10.254921,333.62991 A 4.8149605,4.8149605 0 0 1 5.4399605,338.44487 4.8149605,4.8149605 0 0 1 0.625,333.62991 a 4.8149605,4.8149605 0 0 1 4.8149605,-4.81496 4.8149605,4.8149605 0 0 1 4.8149605,4.81496 z"
           id="circle4252"
           inkscape:connector-curvature="0" />
        <path
           style="opacity:1;fill:none;fill-opacity:1;stroke:#000000;stroke-width:1.25;stroke-linecap:round;stroke-linejoin:round;stroke-miterlimit:10;stroke-dasharray:none;stroke-dashoffset:0;stroke-opacity:1"
           d="m 142.06594,333.62991 a 4.8149605,4.8149605 0 0 1 -4.81496,4.81496 4.8149605,4.8149605 0 0 1 -4.81496,-4.81496 4.8149605,4.8149605 0 0 1 4.81496,-4.81496 4.8149605,4.8149605 0 0 1 4.81496,4.81496 z"
           id="circle4254"
           inkscape:connector-curvature="0" />
      </g>
    </g>
    <path
       style="opacity:1;fill:none;fill-opacity:1;stroke:#000000;stroke-width:1.25;stroke-linecap:round;stroke-linejoin:round;stroke-miterlimit:10;stroke-dasharray:none;stroke-dashoffset:0;stroke-opacity:1"
       d="m 46.004921,738.81494 a 4.6899605,4.6899605 0 0 1 -4.689961,4.68996 4.6899605,4.6899605 0 0 1 -4.68996,-4.68996 4.6899605,4.6899605 0 0 1 4.68996,-4.68996 4.6899605,4.6899605 0 0 1 4.689961,4.68996 z"
       id="path4313"
       inkscape:connector-curvature="0" />
    <path
       style="opacity:1;fill:none;fill-opacity:1;stroke:#000000;stroke-width:1.25;stroke-linecap:round;stroke-linejoin:round;stroke-miterlimit:10;stroke-dasharray:none;stroke-dashoffset:0;stroke-opacity:1"
       d="m 46.004921,621.81494 a 4.6899605,4.6899605 0 0 1 -4.689961,4.68996 4.6899605,4.6899605 0 0 1 -4.68996,-4.68996 4.6899605,4.6899605 0 0 1 4.68996,-4.68996 4.6899605,4.6899605 0 0 1 4.689961,4.68996 z"
       id="circle4315"
       inkscape:connector-curvature="0" />
    <path
       style="opacity:1;fill:none;fill-opacity:1;stroke:#000000;stroke-width:1.25;stroke-linecap:round;stroke-linejoin:round;stroke-miterlimit:10;stroke-dasharray:none;stroke-dashoffset:0;stroke-opacity:1"
       d="m 208.00492,738.81494 a 4.6899605,4.6899605 0 0 1 -4.68996,4.68996 4.6899605,4.6899605 0 0 1 -4.68996,-4.68996 4.6899605,4.6899605 0 0 1 4.68996,-4.68996 4.6899605,4.6899605 0 0 1 4.68996,4.68996 z"
       id="circle4317"
       inkscape:connector-curvature="0" />
    <path
       style="opacity:1;fill:none;fill-opacity:1;stroke:#000000;stroke-width:1.25;stroke-linecap:round;stroke-linejoin:round;stroke-miterlimit:10;stroke-dasharray:none;stroke-dashoffset:0;stroke-opacity:1"
       d="m 208.00492,621.81494 a 4.6899605,4.6899605 0 0 1 -4.68996,4.68996 4.6899605,4.6899605 0 0 1 -4.68996,-4.68996 4.6899605,4.6899605 0 0 1 4.68996,-4.68996 4.6899605,4.6899605 0 0 1 4.68996,4.68996 z"
       id="circle4319"
       inkscape:connector-curvature="0" />
    <path
       style="opacity:1;fill:none;fill-opacity:1;stroke:#ff0000;stroke-width:1.25;stroke-linecap:round;stroke-linejoin:round;stroke-miterlimit:10;stroke-dasharray:none;stroke-dashoffset:0;stroke-opacity:1"
       d="m 32.585632,608.30219 179.458668,0 0,144.02558 -179.458668,0 z"
       id="rect4337"
       inkscape:connector-curvature="0" />
    <g
       id="g4451">
      <g
         id="g4356"
         transform="translate(534.66667,-308.23229)">
        <path
           inkscape:connector-curvature="0"
           id="circle4358"
           d="m 10.004921,1047.0472 a 4.6899605,4.6899605 0 0 1 -4.6899605,4.69 4.6899605,4.6899605 0 0 1 -4.6899605,-4.69 4.6899605,4.6899605 0 0 1 4.6899605,-4.6899 4.6899605,4.6899605 0 0 1 4.6899605,4.6899 z"
           style="opacity:1;fill:none;fill-opacity:1;stroke:#000000;stroke-width:1.25;stroke-linecap:round;stroke-linejoin:round;stroke-miterlimit:10;stroke-dasharray:none;stroke-dashoffset:0;stroke-opacity:1" />
        <path
           inkscape:connector-curvature="0"
           id="circle4360"
           d="M 10.004921,930.04724 A 4.6899605,4.6899605 0 0 1 5.3149605,934.7372 4.6899605,4.6899605 0 0 1 0.625,930.04724 a 4.6899605,4.6899605 0 0 1 4.6899605,-4.68996 4.6899605,4.6899605 0 0 1 4.6899605,4.68996 z"
           style="opacity:1;fill:none;fill-opacity:1;stroke:#000000;stroke-width:1.25;stroke-linecap:round;stroke-linejoin:round;stroke-miterlimit:10;stroke-dasharray:none;stroke-dashoffset:0;stroke-opacity:1" />
      </g>
      <g
         id="g4362"
         transform="translate(844,-274.89897)">
        <path
           inkscape:connector-curvature="0"
           id="circle4364"
           d="m -137.32841,1013.7139 a 4.6899605,4.6899605 0 0 1 -4.68996,4.69 4.6899605,4.6899605 0 0 1 -4.68996,-4.69 4.6899605,4.6899605 0 0 1 4.68996,-4.6899 4.6899605,4.6899605 0 0 1 4.68996,4.6899 z"
           style="opacity:1;fill:none;fill-opacity:1;stroke:#000000;stroke-width:1.25;stroke-linecap:round;stroke-linejoin:round;stroke-miterlimit:10;stroke-dasharray:none;stroke-dashoffset:0;stroke-opacity:1" />
        <path
           inkscape:connector-curvature="0"
           id="circle4366"
           d="m -137.32841,896.71393 a 4.6899605,4.6899605 0 0 1 -4.68996,4.68996 4.6899605,4.6899605 0 0 1 -4.68996,-4.68996 4.6899605,4.6899605 0 0 1 4.68996,-4.68996 4.6899605,4.6899605 0 0 1 4.68996,4.68996 z"
           style="opacity:1;fill:none;fill-opacity:1;stroke:#000000;stroke-width:1.25;stroke-linecap:round;stroke-linejoin:round;stroke-miterlimit:10;stroke-dasharray:none;stroke-dashoffset:0;stroke-opacity:1" />
      </g>
      <path
         inkscape:connector-curvature="0"
         id="rect4368"
         d="m 531.25232,608.30219 179.45866,0 0,144.02558 -179.45866,0 z"
         style="opacity:1;fill:none;fill-opacity:1;stroke:#ff0000;stroke-width:1.25;stroke-linecap:round;stroke-linejoin:round;stroke-miterlimit:10;stroke-dasharray:none;stroke-dashoffset:0;stroke-opacity:1" />
    </g>
    <g
       id="g4471">
      <g
         transform="matrix(0,1,-1,0,1360.5945,840.2323)"
         id="g4372">
        <path
           inkscape:connector-curvature="0"
           id="circle4374"
           d="m 10.004921,1047.0472 a 4.6899605,4.6899605 0 0 1 -4.6899605,4.69 4.6899605,4.6899605 0 0 1 -4.6899605,-4.69 4.6899605,4.6899605 0 0 1 4.6899605,-4.6899 4.6899605,4.6899605 0 0 1 4.6899605,4.6899 z"
           style="opacity:1;fill:none;fill-opacity:1;stroke:#000000;stroke-width:1.25;stroke-linecap:round;stroke-linejoin:round;stroke-miterlimit:10;stroke-dasharray:none;stroke-dashoffset:0;stroke-opacity:1" />
        <path
           inkscape:connector-curvature="0"
           id="circle4376"
           d="M 10.004921,930.04724 A 4.6899605,4.6899605 0 0 1 5.3149605,934.7372 4.6899605,4.6899605 0 0 1 0.625,930.04724 a 4.6899605,4.6899605 0 0 1 4.6899605,-4.68996 4.6899605,4.6899605 0 0 1 4.6899605,4.68996 z"
           style="opacity:1;fill:none;fill-opacity:1;stroke:#000000;stroke-width:1.25;stroke-linecap:round;stroke-linejoin:round;stroke-miterlimit:10;stroke-dasharray:none;stroke-dashoffset:0;stroke-opacity:1" />
      </g>
      <g
         transform="matrix(0,1,-1,0,1327.2611,1149.5656)"
         id="g4378">
        <path
           inkscape:connector-curvature="0"
           id="circle4380"
           d="m -137.32841,1013.7139 a 4.6899605,4.6899605 0 0 1 -4.68996,4.69 4.6899605,4.6899605 0 0 1 -4.68996,-4.69 4.6899605,4.6899605 0 0 1 4.68996,-4.6899 4.6899605,4.6899605 0 0 1 4.68996,4.6899 z"
           style="opacity:1;fill:none;fill-opacity:1;stroke:#000000;stroke-width:1.25;stroke-linecap:round;stroke-linejoin:round;stroke-miterlimit:10;stroke-dasharray:none;stroke-dashoffset:0;stroke-opacity:1" />
        <path
           inkscape:connector-curvature="0"
           id="circle4382"
           d="m -137.32841,896.71393 a 4.6899605,4.6899605 0 0 1 -4.68996,4.68996 4.6899605,4.6899605 0 0 1 -4.68996,-4.68996 4.6899605,4.6899605 0 0 1 4.68996,-4.68996 4.6899605,4.6899605 0 0 1 4.68996,4.68996 z"
           style="opacity:1;fill:none;fill-opacity:1;stroke:#000000;stroke-width:1.25;stroke-linecap:round;stroke-linejoin:round;stroke-miterlimit:10;stroke-dasharray:none;stroke-dashoffset:0;stroke-opacity:1" />
      </g>
      <path
         inkscape:connector-curvature="0"
         id="rect4384"
         d="m 836.81793,-444.06 179.45867,0 0,144.02559 -179.45867,0 z"
         style="opacity:1;fill:none;fill-opacity:1;stroke:#ff0000;stroke-width:1.25;stroke-linecap:round;stroke-linejoin:round;stroke-miterlimit:10;stroke-dasharray:none;stroke-dashoffset:0;stroke-opacity:1"
         transform="matrix(0,1,-1,0,0,0)" />
    </g>
    <path
       sodipodi:nodetypes="sssssssssssssssss"
       inkscape:connector-curvature="0"
       id="path4496"
       d="m 424.57148,680.1922 c 0,8.8902 -2.2087,17.26452 -6.10729,24.60419 -1.76951,3.33135 -3.88715,6.44955 -6.30442,9.30609 -4.73415,5.59445 -10.61755,10.18526 -17.28579,13.40804 -6.90276,3.33611 -14.64653,5.20628 -22.82711,5.20628 -5.93817,0 -11.64619,-0.98542 -16.96945,-2.80164 -5.4516,-1.86001 -10.49966,-4.59138 -14.97813,-8.02804 -6.76898,-5.19434 -12.23672,-11.99991 -15.82986,-19.84334 -3.04809,-6.65367 -4.74716,-14.0542 -4.74716,-21.85158 0,-7.87208 1.73177,-15.33968 4.83513,-22.04261 3.12325,-6.74588 7.63572,-12.71727 13.17025,-17.547 3.76075,-3.28183 7.99341,-6.03652 12.5828,-8.14888 6.67557,-3.07257 14.10589,-4.78612 21.93642,-4.78612 7.68318,0 14.98106,1.64966 21.55876,4.61411 5.86724,2.64425 11.16147,6.3346 15.64503,10.83338 5.12405,5.14145 9.18928,11.33881 11.84092,18.23731 2.24789,5.8481 3.4799,12.20008 3.4799,18.83981 z"
       style="opacity:1;fill:none;fill-opacity:1;stroke:#000000;stroke-width:1.25000012;stroke-linecap:round;stroke-linejoin:round;stroke-miterlimit:10;stroke-dasharray:none;stroke-dashoffset:0;stroke-opacity:1" />
    <g
       style="font-style:normal;font-weight:normal;font-size:27.5px;line-height:125%;font-family:sans-serif;letter-spacing:0px;word-spacing:0px;fill:none;fill-opacity:1;stroke:#0000ff;stroke-width:1px;stroke-linecap:butt;stroke-linejoin:miter;stroke-opacity:1"
       id="text4644">
      <path
         d="m 155.74342,563.67822 0,22.67578 4.76563,0 q 6.03515,0 8.82812,-2.73437 2.8125,-2.73438 2.8125,-8.63281 0,-5.85938 -2.8125,-8.57422 -2.79297,-2.73438 -8.82812,-2.73438 l -4.76563,0 z m -3.94531,-3.24218 8.10547,0 q 8.47656,0 12.44141,3.53515 3.96484,3.51563 3.96484,11.01563 0,7.53906 -3.98438,11.07422 -3.98437,3.53515 -12.42187,3.53515 l -8.10547,0 0,-29.16015 z"
         style="font-size:40px;fill:none;stroke:#0000ff"
         id="path4705"
         inkscape:connector-curvature="0" />
    </g>
    <g
       style="font-style:normal;font-weight:normal;font-size:27.5px;line-height:125%;font-family:sans-serif;letter-spacing:0px;word-spacing:0px;fill:none;fill-opacity:1;stroke:#0000ff;stroke-width:1px;stroke-linecap:butt;stroke-linejoin:miter;stroke-opacity:1"
       id="text4648">
      <path
         d="m 580.69312,564.32275 -5.35157,14.51172 10.72266,0 -5.37109,-14.51172 z m -2.22657,-3.88671 4.47266,0 11.11328,29.16015 -4.10156,0 -2.65625,-7.48047 -13.14453,0 -2.65625,7.48047 -4.16016,0 11.13281,-29.16015 z"
         style="font-size:40px;fill:none;stroke:#0000ff"
         id="path4702"
         inkscape:connector-curvature="0" />
    </g>
    <g
       style="font-style:normal;font-weight:normal;font-size:27.5px;line-height:125%;font-family:sans-serif;letter-spacing:0px;word-spacing:0px;fill:none;fill-opacity:1;stroke:#0000ff;stroke-width:1px;stroke-linecap:butt;stroke-linejoin:miter;stroke-opacity:1"
       id="text4652">
      <path
         d="m 574.29663,791.62787 0,10.68359 6.32813,0 q 3.18359,0 4.70703,-1.30859 1.54297,-1.32813 1.54297,-4.04297 0,-2.73438 -1.54297,-4.02344 -1.52344,-1.30859 -4.70703,-1.30859 l -6.32813,0 z m 0,-11.99219 0,8.78906 5.83984,0 q 2.89063,0 4.29688,-1.07422 1.42578,-1.09375 1.42578,-3.32031 0,-2.20703 -1.42578,-3.30078 -1.40625,-1.09375 -4.29688,-1.09375 l -5.83984,0 z m -3.94531,-3.24219 10.07812,0 q 4.51172,0 6.95313,1.875 2.4414,1.875 2.4414,5.33203 0,2.67579 -1.25,4.25782 -1.25,1.58203 -3.67187,1.97265 2.91016,0.625 4.51172,2.61719 1.62109,1.97266 1.62109,4.94141 0,3.90625 -2.65625,6.03515 -2.65625,2.12891 -7.55859,2.12891 l -10.46875,0 0,-29.16016 z"
         style="font-size:40px;fill:none;stroke:#0000ff"
         id="path4699"
         inkscape:connector-curvature="0" />
    </g>
    <g
       style="font-style:normal;font-weight:normal;font-size:27.5px;line-height:125%;font-family:sans-serif;letter-spacing:0px;word-spacing:0px;fill:none;fill-opacity:1;stroke:#0000ff;stroke-width:1px;stroke-linecap:butt;stroke-linejoin:miter;stroke-opacity:1"
       id="text4656">
      <path
         d="m 175.54811,778.63959 0,4.16015 q -1.99219,-1.85547 -4.25781,-2.77343 -2.2461,-0.91797 -4.78516,-0.91797 -5,0 -7.65625,3.0664 -2.65625,3.04688 -2.65625,8.82813 0,5.76172 2.65625,8.82812 2.65625,3.04688 7.65625,3.04688 2.53906,0 4.78516,-0.91797 2.26562,-0.91797 4.25781,-2.77344 l 0,4.1211 q -2.07031,1.40625 -4.39453,2.10937 -2.30469,0.70313 -4.88281,0.70313 -6.6211,0 -10.42969,-4.04297 -3.80859,-4.0625 -3.80859,-11.07422 0,-7.03125 3.80859,-11.07422 3.80859,-4.0625 10.42969,-4.0625 2.61718,0 4.92187,0.70312 2.32422,0.6836 4.35547,2.07032 z"
         style="font-size:40px;fill:none;stroke:#0000ff"
         id="path4696"
         inkscape:connector-curvature="0" />
    </g>
    <path
       style="opacity:1;fill:none;fill-opacity:1;stroke:#ff0000;stroke-width:1.25;stroke-linecap:round;stroke-linejoin:round;stroke-miterlimit:10;stroke-dasharray:none;stroke-dashoffset:0;stroke-opacity:1"
       d="m 331.92386,450.49609 80.24606,0 0,94.41929 -80.24606,0 z"
       id="rect4660"
       inkscape:connector-curvature="0" />
    <g
       id="g4666"
       transform="translate(344.58625,-523.65255)">
      <path
         style="opacity:1;fill:none;fill-opacity:1;stroke:#000000;stroke-width:1.25;stroke-linecap:round;stroke-linejoin:round;stroke-miterlimit:10;stroke-dasharray:none;stroke-dashoffset:0;stroke-opacity:1"
         d="m 10.004921,1047.0472 a 4.6899605,4.6899605 0 0 1 -4.6899605,4.69 4.6899605,4.6899605 0 0 1 -4.6899605,-4.69 4.6899605,4.6899605 0 0 1 4.6899605,-4.6899 4.6899605,4.6899605 0 0 1 4.6899605,4.6899 z"
         id="path4662"
         inkscape:connector-curvature="0" />
      <path
         style="opacity:1;fill:none;fill-opacity:1;stroke:#000000;stroke-width:1.25;stroke-linecap:round;stroke-linejoin:round;stroke-miterlimit:10;stroke-dasharray:none;stroke-dashoffset:0;stroke-opacity:1"
         d="m 54.296261,995.66931 a 4.6899605,4.6899605 0 0 1 -4.689961,4.68999 4.6899605,4.6899605 0 0 1 -4.68996,-4.68999 4.6899605,4.6899605 0 0 1 4.68996,-4.68996 4.6899605,4.6899605 0 0 1 4.689961,4.68996 z"
         id="circle4664"
         inkscape:connector-curvature="0" />
    </g>
    <path
       style="opacity:1;fill:none;fill-opacity:1;stroke:#000000;stroke-width:1.25;stroke-linecap:round;stroke-linejoin:round;stroke-miterlimit:10;stroke-dasharray:none;stroke-dashoffset:0;stroke-opacity:1"
       d="m 699.09345,816.11334 a 6.4616141,6.4616141 0 0 1 -6.46161,6.46162 6.4616141,6.4616141 0 0 1 -6.46162,-6.46162 6.4616141,6.4616141 0 0 1 6.46162,-6.46161 6.4616141,6.4616141 0 0 1 6.46161,6.46161 z"
       id="path4680"
       inkscape:connector-curvature="0" />
    <path
       style="opacity:1;fill:none;fill-opacity:1;stroke:#000000;stroke-width:1.25;stroke-linecap:round;stroke-linejoin:round;stroke-miterlimit:10;stroke-dasharray:none;stroke-dashoffset:0;stroke-opacity:1"
       d="m 56.540246,538.4538 a 6.4616141,6.4616141 0 0 1 -6.461614,6.46161 6.4616141,6.4616141 0 0 1 -6.461614,-6.46161 6.4616141,6.4616141 0 0 1 6.461614,-6.46162 6.4616141,6.4616141 0 0 1 6.461614,6.46162 z"
       id="circle4682"
       inkscape:connector-curvature="0" />
    <path
       style="opacity:1;fill:none;fill-opacity:1;stroke:#000000;stroke-width:1.25;stroke-linecap:round;stroke-linejoin:round;stroke-miterlimit:10;stroke-dasharray:none;stroke-dashoffset:0;stroke-opacity:1"
       d="m 56.540246,826.75165 a 6.4616141,6.4616141 0 0 1 -6.461614,6.46161 6.4616141,6.4616141 0 0 1 -6.461614,-6.46161 6.4616141,6.4616141 0 0 1 6.461614,-6.46162 6.4616141,6.4616141 0 0 1 6.461614,6.46162 z"
       id="circle4684"
       inkscape:connector-curvature="0" />
    <path
       style="opacity:1;fill:none;fill-opacity:1;stroke:#000000;stroke-width:1.25;stroke-linecap:round;stroke-linejoin:round;stroke-miterlimit:10;stroke-dasharray:none;stroke-dashoffset:0;stroke-opacity:1"
       d="m 699.09345,538.4538 a 6.4616141,6.4616141 0 0 1 -6.46161,6.46161 6.4616141,6.4616141 0 0 1 -6.46162,-6.46161 6.4616141,6.4616141 0 0 1 6.46162,-6.46162 6.4616141,6.4616141 0 0 1 6.46161,6.46162 z"
       id="circle4686"
       inkscape:connector-curvature="0" />
    <g
       id="g3404"
       transform="translate(326.81354,-66.767907)">
      <rect
         y="748.78027"
         x="-303.98285"
         height="34.433071"
         width="197.70866"
         id="rect3392"
         style="opacity:1;fill:none;fill-opacity:1;fill-rule:nonzero;stroke:#ff0000;stroke-width:0.9999997;stroke-linecap:butt;stroke-linejoin:round;stroke-miterlimit:4;stroke-dasharray:none;stroke-dashoffset:0;stroke-opacity:1" />
      <g
         transform="translate(-299.08813,-272.94849)"
         id="g3398">
        <ellipse
           style="opacity:1;fill:none;fill-opacity:1;fill-rule:nonzero;stroke:#000000;stroke-width:1.25;stroke-linecap:butt;stroke-linejoin:round;stroke-miterlimit:4;stroke-dasharray:none;stroke-dashoffset:0;stroke-opacity:1"
           id="path3394"
           cx="4.4291334"
           cy="1047.9321"
           rx="3.8041337"
           ry="3.8041341" />
        <ellipse
           ry="3.8041341"
           rx="3.8041337"
           cy="1047.9321"
           cx="184.42914"
           id="ellipse3396"
           style="opacity:1;fill:none;fill-opacity:1;fill-rule:nonzero;stroke:#000000;stroke-width:1.25;stroke-linecap:butt;stroke-linejoin:round;stroke-miterlimit:4;stroke-dasharray:none;stroke-dashoffset:0;stroke-opacity:1" />
      </g>
    </g>
    <g
       transform="translate(826.01212,-67.811915)"
       id="g3410">
      <rect
         style="opacity:1;fill:none;fill-opacity:1;fill-rule:nonzero;stroke:#ff0000;stroke-width:0.9999997;stroke-linecap:butt;stroke-linejoin:round;stroke-miterlimit:4;stroke-dasharray:none;stroke-dashoffset:0;stroke-opacity:1"
         id="rect3412"
         width="197.70866"
         height="34.433071"
         x="-303.98285"
         y="748.78027" />
      <g
         id="g3414"
         transform="translate(-299.08813,-272.94849)">
        <ellipse
           ry="3.8041341"
           rx="3.8041337"
           cy="1047.9321"
           cx="4.4291334"
           id="ellipse3416"
           style="opacity:1;fill:none;fill-opacity:1;fill-rule:nonzero;stroke:#000000;stroke-width:1.25;stroke-linecap:butt;stroke-linejoin:round;stroke-miterlimit:4;stroke-dasharray:none;stroke-dashoffset:0;stroke-opacity:1" />
        <ellipse
           style="opacity:1;fill:none;fill-opacity:1;fill-rule:nonzero;stroke:#000000;stroke-width:1.25;stroke-linecap:butt;stroke-linejoin:round;stroke-miterlimit:4;stroke-dasharray:none;stroke-dashoffset:0;stroke-opacity:1"
           id="ellipse3418"
           cx="184.42914"
           cy="1047.9321"
           rx="3.8041337"
           ry="3.8041341" />
      </g>
    </g>
    <g
       transform="matrix(0,1,-1,0,1122.0994,723.67807)"
       id="g3420">
      <rect
         style="opacity:1;fill:none;fill-opacity:1;fill-rule:nonzero;stroke:#ff0000;stroke-width:0.9999997;stroke-linecap:butt;stroke-linejoin:round;stroke-miterlimit:4;stroke-dasharray:none;stroke-dashoffset:0;stroke-opacity:1"
         id="rect3422"
         width="197.70866"
         height="34.433071"
         x="-303.98285"
         y="748.78027" />
      <g
         id="g3424"
         transform="translate(-299.08813,-272.94849)">
        <ellipse
           ry="3.8041341"
           rx="3.8041337"
           cy="1047.9321"
           cx="4.4291334"
           id="ellipse3426"
           style="opacity:1;fill:none;fill-opacity:1;fill-rule:nonzero;stroke:#000000;stroke-width:1.25;stroke-linecap:butt;stroke-linejoin:round;stroke-miterlimit:4;stroke-dasharray:none;stroke-dashoffset:0;stroke-opacity:1" />
        <ellipse
           style="opacity:1;fill:none;fill-opacity:1;fill-rule:nonzero;stroke:#000000;stroke-width:1.25;stroke-linecap:butt;stroke-linejoin:round;stroke-miterlimit:4;stroke-dasharray:none;stroke-dashoffset:0;stroke-opacity:1"
           id="ellipse3428"
           cx="184.42914"
           cy="1047.9321"
           rx="3.8041337"
           ry="3.8041341" />
      </g>
    </g>
    <g
       id="g3430"
       transform="matrix(0,1,-1,0,1120.1192,1131.0245)">
      <rect
         y="748.78027"
         x="-303.98285"
         height="34.433071"
         width="197.70866"
         id="rect3432"
         style="opacity:1;fill:none;fill-opacity:1;fill-rule:nonzero;stroke:#ff0000;stroke-width:0.9999997;stroke-linecap:butt;stroke-linejoin:round;stroke-miterlimit:4;stroke-dasharray:none;stroke-dashoffset:0;stroke-opacity:1" />
      <g
         transform="translate(-299.08813,-272.94849)"
         id="g3434">
        <ellipse
           style="opacity:1;fill:none;fill-opacity:1;fill-rule:nonzero;stroke:#000000;stroke-width:1.25;stroke-linecap:butt;stroke-linejoin:round;stroke-miterlimit:4;stroke-dasharray:none;stroke-dashoffset:0;stroke-opacity:1"
           id="ellipse3436"
           cx="4.4291334"
           cy="1047.9321"
           rx="3.8041337"
           ry="3.8041341" />
        <ellipse
           ry="3.8041341"
           rx="3.8041337"
           cy="1047.9321"
           cx="184.42914"
           id="ellipse3438"
           style="opacity:1;fill:none;fill-opacity:1;fill-rule:nonzero;stroke:#000000;stroke-width:1.25;stroke-linecap:butt;stroke-linejoin:round;stroke-miterlimit:4;stroke-dasharray:none;stroke-dashoffset:0;stroke-opacity:1" />
      </g>
    </g>
  </g>
</svg>
