  0
SECTION
  2
HEADER
  9
$ACADVER
  1
AC1014
  9
$HANDSEED
  5
FFFF
  9
$MEASUREMENT
 70
     1
  0
ENDSEC
  0
SECTION
  2
TABLES
  0
TABLE
  2
VPORT
  5
8
330
0
100
AcDbSymbolTable
 70
     4
  0
VPORT
  5
2E
330
8
100
AcDbSymbolTableRecord
100
AcDbViewportTableRecord
  2
*ACTIVE
 70
     0
 10
0.0
 20
0.0
 11
1.0
 21
1.0
 12
210.0
 22
148.5
 13
0.0
 23
0.0
 14
10.0
 24
10.0
 15
10.0
 25
10.0
 16
0.0
 26
0.0
 36
1.0
 17
0.0
 27
0.0
 37
0.0
 40
341.0
 41
1.24
 42
50.0
 43
0.0
 44
0.0
 50
0.0
 51
0.0
 71
     0
 72
   100
 73
     1
 74
     3
 75
     0
 76
     0
 77
     0
 78
     0
  0
ENDTAB
  0
TABLE
  2
LTYPE
  5
5
330
0
100
AcDbSymbolTable
 70
     1
  0
LTYPE
  5
14
330
5
100
AcDbSymbolTableRecord
100
AcDbLinetypeTableRecord
  2
BYBLOCK
 70
     0
  3

 72
    65
 73
     0
 40
0.0
  0
LTYPE
  5
15
330
5
100
AcDbSymbolTableRecord
100
AcDbLinetypeTableRecord
  2
BYLAYER
 70
     0
  3

 72
    65
 73
     0
 40
0.0
  0
LTYPE
  5
16
330
5
100
AcDbSymbolTableRecord
100
AcDbLinetypeTableRecord
  2
CONTINUOUS
 70
     0
  3
Solid line
 72
    65
 73
     0
 40
0.0
  0
ENDTAB
  0
TABLE
  2
LAYER
  5
2
100
AcDbSymbolTable
 70
2
  0
LAYER
  5
50
100
AcDbSymbolTableRecord
100
AcDbLayerTableRecord
  2
0
 70
0
  6
CONTINUOUS
  0
LAYER
  5
51
100
AcDbSymbolTableRecord
100
AcDbLayerTableRecord
  2
Capa_1
 70
0
  6
CONTINUOUS
  0
ENDTAB
  0
TABLE
  2
STYLE
  5
3
330
0
100
AcDbSymbolTable
 70
     1
  0
STYLE
  5
11
330
3
100
AcDbSymbolTableRecord
100
AcDbTextStyleTableRecord
  2
STANDARD
 70
     0
 40
0.0
 41
1.0
 50
0.0
 71
     0
 42
2.5
  3
txt
  4

  0
ENDTAB
  0
TABLE
  2
VIEW
  5
6
330
0
100
AcDbSymbolTable
 70
     0
  0
ENDTAB
  0
TABLE
  2
UCS
  5
7
330
0
100
AcDbSymbolTable
 70
     0
  0
ENDTAB
  0
TABLE
  2
APPID
  5
9
330
0
100
AcDbSymbolTable
 70
     2
  0
APPID
  5
12
330
9
100
AcDbSymbolTableRecord
100
AcDbRegAppTableRecord
  2
ACAD
 70
     0
  0
ENDTAB
  0
TABLE
  2
DIMSTYLE
  5
A
330
0
100
AcDbSymbolTable
 70
     1
  0
DIMSTYLE
105
27
330
A
100
AcDbSymbolTableRecord
100
AcDbDimStyleTableRecord
  2
ISO-25
 70
     0
  3

  4

  5

  6

  7

 40
1.0
 41
2.5
 42
0.625
 43
3.75
 44
1.25
 45
0.0
 46
0.0
 47
0.0
 48
0.0
140
2.5
141
2.5
142
0.0
143
0.03937007874016
144
1.0
145
0.0
146
1.0
147
0.625
 71
     0
 72
     0
 73
     0
 74
     0
 75
     0
 76
     0
 77
     1
 78
     8
170
     0
171
     3
172
     1
173
     0
174
     0
175
     0
176
     0
177
     0
178
     0
270
     2
271
     2
272
     2
273
     2
274
     3
340
11
275
     0
280
     0
281
     0
282
     0
283
     0
284
     8
285
     0
286
     0
287
     3
288
     0
  0
ENDTAB
  0
TABLE
  2
BLOCK_RECORD
  5
1
330
0
100
AcDbSymbolTable
 70
     1
  0
BLOCK_RECORD
  5
1F
330
1
100
AcDbSymbolTableRecord
100
AcDbBlockTableRecord
  2
*MODEL_SPACE
  0
BLOCK_RECORD
  5
1B
330
1
100
AcDbSymbolTableRecord
100
AcDbBlockTableRecord
  2
*PAPER_SPACE
  0
ENDTAB
  0
ENDSEC
  0
SECTION
  2
BLOCKS
  0
BLOCK
  5
20
330
1F
100
AcDbEntity
  8
0
100
AcDbBlockBegin
  2
*MODEL_SPACE
 70
     0
 10
0.0
 20
0.0
 30
0.0
  3
*MODEL_SPACE
  1

  0
ENDBLK
  5
21
330
1F
100
AcDbEntity
  8
0
100
AcDbBlockEnd
  0
BLOCK
  5
1C
330
1B
100
AcDbEntity
 67
     1
  8
0
100
AcDbBlockBegin
  2
*PAPER_SPACE
  1

  0
ENDBLK
  5
1D
330
1B
100
AcDbEntity
 67
     1
  8
0
100
AcDbBlockEnd
  0
ENDSEC
  0
SECTION
  2
ENTITIES
  0
LINE
  5
100
100
AcDbEntity
  8
Capa_1
 62
7
100
AcDbLine
 10
0.141109
 20
27.858895
 30
0.0
 11
59.858888
 21
27.858895
 31
0.0
  0
LINE
  5
101
100
AcDbEntity
  8
Capa_1
 62
7
100
AcDbLine
 10
59.858888
 20
27.858895
 30
0.0
 11
59.858888
 21
0.141111
 31
0.0
  0
LINE
  5
102
100
AcDbEntity
  8
Capa_1
 62
7
100
AcDbLine
 10
59.858888
 20
0.141111
 30
0.0
 11
0.141109
 21
0.141111
 31
0.0
  0
LINE
  5
103
100
AcDbEntity
  8
Capa_1
 62
7
100
AcDbLine
 10
0.141109
 20
0.141111
 30
0.0
 11
0.141109
 21
27.858895
 31
0.0
  0
LINE
  5
104
100
AcDbEntity
  8
Capa_1
 62
7
100
AcDbLine
 10
25.268564
 20
24.171058
 30
0.0
 11
33.285439
 21
24.171058
 31
0.0
  0
LINE
  5
105
100
AcDbEntity
  8
Capa_1
 62
7
100
AcDbLine
 10
34.635890
 20
22.820605
 30
0.0
 11
34.635890
 21
21.803730
 31
0.0
  0
SPLINE
  5
106
100
AcDbEntity
  8
Capa_1
 62
7
100
AcDbSpline
 70
0
 71
3
 72
10
 73
6
 74
4
 40
0.000000
 40
0.000000
 40
0.000000
 40
0.000000
 40
0.706955
 40
1.391380
 40
2.098337
 40
2.098337
 40
2.098337
 40
2.098337
 10
33.285439
 20
24.171058
 30
0.0
 10
33.522447
 20
24.134205
 30
0.0
 10
33.988908
 20
24.061674
 30
0.0
 10
34.526506
 20
23.524074
 30
0.0
 10
34.599037
 20
23.057612
 30
0.0
 10
34.635890
 20
22.820605
 30
0.0
 11
33.285439
 21
24.171058
 31
0.0
 11
33.968067
 21
23.987196
 31
0.0
 11
34.452028
 21
23.503234
 31
0.0
 11
34.635890
 21
22.820605
 31
0.0
  0
LINE
  5
107
100
AcDbEntity
  8
Capa_1
 62
7
100
AcDbLine
 10
33.285439
 20
20.453279
 30
0.0
 11
25.268564
 21
20.453279
 31
0.0
  0
SPLINE
  5
108
100
AcDbEntity
  8
Capa_1
 62
7
100
AcDbSpline
 70
0
 71
3
 72
10
 73
6
 74
4
 40
0.000000
 40
0.000000
 40
0.000000
 40
0.000000
 40
0.706955
 40
1.391380
 40
2.098334
 40
2.098334
 40
2.098334
 40
2.098334
 10
34.635890
 20
21.803730
 30
0.0
 10
34.599037
 20
21.566722
 30
0.0
 10
34.526506
 20
21.100261
 30
0.0
 10
33.988908
 20
20.562663
 30
0.0
 10
33.522446
 20
20.490132
 30
0.0
 10
33.285439
 20
20.453279
 30
0.0
 11
34.635890
 21
21.803730
 31
0.0
 11
34.452028
 21
21.121102
 31
0.0
 11
33.968067
 21
20.637141
 31
0.0
 11
33.285439
 21
20.453279
 31
0.0
  0
LINE
  5
109
100
AcDbEntity
  8
Capa_1
 62
7
100
AcDbLine
 10
23.918113
 20
21.803730
 30
0.0
 11
23.918113
 21
22.820605
 31
0.0
  0
SPLINE
  5
10a
100
AcDbEntity
  8
Capa_1
 62
7
100
AcDbSpline
 70
0
 71
3
 72
10
 73
6
 74
4
 40
0.000000
 40
0.000000
 40
0.000000
 40
0.000000
 40
0.706956
 40
1.391381
 40
2.098335
 40
2.098335
 40
2.098335
 40
2.098335
 10
25.268564
 20
20.453279
 30
0.0
 10
25.031556
 20
20.490132
 30
0.0
 10
24.565095
 20
20.562663
 30
0.0
 10
24.027496
 20
21.100261
 30
0.0
 10
23.954965
 20
21.566722
 30
0.0
 10
23.918113
 20
21.803730
 30
0.0
 11
25.268564
 21
20.453279
 31
0.0
 11
24.585936
 21
20.637141
 31
0.0
 11
24.101974
 21
21.121102
 31
0.0
 11
23.918113
 21
21.803730
 31
0.0
  0
LINE
  5
10b
100
AcDbEntity
  8
Capa_1
 62
7
100
AcDbLine
 10
25.268564
 20
24.171058
 30
0.0
 11
25.268564
 21
24.171058
 31
0.0
  0
SPLINE
  5
10c
100
AcDbEntity
  8
Capa_1
 62
7
100
AcDbSpline
 70
0
 71
3
 72
10
 73
6
 74
4
 40
0.000000
 40
0.000000
 40
0.000000
 40
0.000000
 40
0.706957
 40
1.391382
 40
2.098338
 40
2.098338
 40
2.098338
 40
2.098338
 10
23.918113
 20
22.820605
 30
0.0
 10
23.954965
 20
23.057612
 30
0.0
 10
24.027496
 20
23.524074
 30
0.0
 10
24.565094
 20
24.061674
 30
0.0
 10
25.031556
 20
24.134205
 30
0.0
 10
25.268564
 20
24.171058
 30
0.0
 11
23.918113
 21
22.820605
 31
0.0
 11
24.101974
 21
23.503234
 31
0.0
 11
24.585936
 21
23.987196
 31
0.0
 11
25.268564
 21
24.171058
 31
0.0
  0
LINE
  5
10d
100
AcDbEntity
  8
Capa_1
 62
7
100
AcDbLine
 10
24.733884
 20
15.000007
 30
0.0
 11
24.733884
 21
15.000007
 31
0.0
  0
SPLINE
  5
10e
100
AcDbEntity
  8
Capa_1
 62
7
100
AcDbSpline
 70
0
 71
3
 72
31
 73
27
 74
25
 40
0.000000
 40
0.000000
 40
0.000000
 40
0.000000
 40
2.279775
 40
4.483107
 40
6.657159
 40
8.758788
 40
10.890009
 40
13.094383
 40
15.076731
 40
16.995816
 40
18.885408
 40
21.272584
 40
23.687028
 40
26.187297
 40
28.575026
 40
30.881660
 40
33.159786
 40
35.157665
 40
37.185273
 40
39.281233
 40
41.645294
 40
43.929270
 40
46.184532
 40
48.205167
 40
50.255532
 40
52.375309
 40
52.375309
 40
52.375309
 40
52.375309
 10
24.733884
 20
15.000007
 30
0.0
 10
24.674378
 20
14.237567
 30
0.0
 10
24.557361
 20
12.738254
 30
0.0
 10
23.635718
 20
10.675789
 30
0.0
 10
22.289477
 20
8.962829
 30
0.0
 10
20.565547
 20
7.661813
 30
0.0
 10
18.561952
 20
6.830822
 30
0.0
 10
16.448805
 20
6.554512
 30
0.0
 10
14.408983
 20
6.794144
 30
0.0
 10
12.581010
 20
7.467681
 30
0.0
 10
10.841819
 20
8.612351
 30
0.0
 10
9.326864
 20
10.291698
 30
0.0
 10
8.261391
 20
12.518389
 30
0.0
 10
7.897053
 20
14.962605
 30
0.0
 10
8.239426
 20
17.369235
 30
0.0
 10
9.212319
 20
19.513302
 30
0.0
 10
10.645244
 20
21.211326
 30
0.0
 10
12.376897
 20
22.435533
 30
0.0
 10
14.296186
 20
23.187555
 30
0.0
 10
16.464103
 20
23.457323
 30
0.0
 10
18.720988
 20
23.140164
 30
0.0
 10
20.846436
 20
22.186085
 30
0.0
 10
22.550352
 20
20.770353
 30
0.0
 10
23.783579
 20
19.040620
 30
0.0
 10
24.581634
 20
17.102609
 30
0.0
 10
24.682574
 20
15.708608
 30
0.0
 10
24.733884
 20
15.000007
 30
0.0
 11
24.733884
 21
15.000007
 31
0.0
 11
24.425125
 21
12.741236
 31
0.0
 11
23.554763
 21
10.717096
 31
0.0
 11
22.206678
 21
9.011468
 31
0.0
 11
20.529498
 21
7.745011
 31
0.0
 11
18.560399
 21
6.929689
 31
0.0
 11
16.374995
 21
6.641112
 31
0.0
 11
14.406404
 21
6.874245
 31
0.0
 11
12.605500
 21
7.537291
 31
0.0
 11
11.026820
 21
8.575717
 31
0.0
 11
9.428567
 21
10.348905
 31
0.0
 11
8.387813
 21
12.527523
 31
0.0
 11
8.016107
 21
15.000007
 31
0.0
 11
8.354952
 21
17.363571
 31
0.0
 11
9.306988
 21
19.464567
 31
0.0
 11
10.775462
 21
21.206245
 31
0.0
 11
12.407230
 21
22.359005
 31
0.0
 11
14.295320
 21
23.098133
 31
0.0
 11
16.374995
 21
23.358895
 31
0.0
 11
18.715610
 21
23.026766
 31
0.0
 11
20.799953
 21
22.092926
 31
0.0
 11
22.534204
 21
20.651196
 31
0.0
 11
23.711562
 21
19.009005
 31
0.0
 11
24.467131
 21
17.102933
 31
0.0
 11
24.733884
 21
15.000007
 31
0.0
  0
LINE
  5
10f
100
AcDbEntity
  8
Capa_1
 62
7
100
AcDbLine
 10
50.733882
 20
15.000007
 30
0.0
 11
50.733882
 21
15.000007
 31
0.0
  0
SPLINE
  5
110
100
AcDbEntity
  8
Capa_1
 62
7
100
AcDbSpline
 70
0
 71
3
 72
49
 73
45
 74
43
 40
0.000000
 40
0.000000
 40
0.000000
 40
0.000000
 40
0.672591
 40
1.334710
 40
1.988252
 40
3.429944
 40
4.851358
 40
6.263076
 40
6.918963
 40
7.575258
 40
8.232736
 40
9.826664
 40
11.447694
 40
13.117938
 40
14.464324
 40
15.775664
 40
17.064664
 40
18.101375
 40
19.133387
 40
20.163846
 40
22.143231
 40
24.152325
 40
26.228909
 40
27.150135
 40
28.052946
 40
28.941911
 40
30.316266
 40
31.676814
 40
33.031751
 40
33.808313
 40
34.586534
 40
35.367827
 40
36.668306
 40
37.991339
 40
39.349936
 40
40.606902
 40
41.832555
 40
43.037496
 40
44.250628
 40
45.456945
 40
46.661502
 40
48.554308
 40
50.476624
 40
52.462353
 40
52.462353
 40
52.462353
 40
52.462353
 10
50.733882
 20
15.000007
 30
0.0
 10
50.728784
 20
14.775752
 30
0.0
 10
50.718668
 20
14.330733
 30
0.0
 10
50.637126
 20
13.671924
 30
0.0
 10
50.457499
 20
12.769977
 30
0.0
 10
50.081631
 20
11.652542
 30
0.0
 10
49.399606
 20
10.394027
 30
0.0
 10
48.677127
 20
9.474886
 30
0.0
 10
48.032223
 20
8.834744
 30
0.0
 10
47.531055
 20
8.409444
 30
0.0
 10
46.744765
 20
7.841504
 30
0.0
 10
45.598726
 20
7.228787
 30
0.0
 10
44.031857
 20
6.749452
 30
0.0
 10
42.482819
 20
6.596868
 30
0.0
 10
41.038843
 20
6.711402
 30
0.0
 10
39.755212
 20
7.023908
 30
0.0
 10
38.632028
 20
7.493475
 30
0.0
 10
37.667205
 20
8.066128
 30
0.0
 10
36.848431
 20
8.700561
 30
0.0
 10
35.890294
 20
9.651708
 30
0.0
 10
34.922266
 20
11.037044
 30
0.0
 10
34.184211
 20
12.939760
 30
0.0
 10
33.978446
 20
14.615259
 30
0.0
 10
34.049023
 20
15.915460
 30
0.0
 10
34.196002
 20
16.809731
 30
0.0
 10
34.478883
 20
17.828348
 30
0.0
 10
34.959980
 20
18.942839
 30
0.0
 10
35.700856
 20
20.094135
 30
0.0
 10
36.483978
 20
20.962704
 30
0.0
 10
37.220208
 20
21.595932
 30
0.0
 10
37.855956
 20
22.047648
 30
0.0
 10
38.682147
 20
22.525729
 30
0.0
 10
39.732275
 20
22.969175
 30
0.0
 10
41.026676
 20
23.287340
 30
0.0
 10
42.341149
 20
23.392419
 30
0.0
 10
43.622716
 20
23.297667
 30
0.0
 10
44.825922
 20
23.025003
 30
0.0
 10
45.962415
 20
22.584625
 30
0.0
 10
47.017535
 20
21.987352
 30
0.0
 10
47.975167
 20
21.244323
 30
0.0
 10
48.975621
 20
20.209044
 30
0.0
 10
49.899478
 20
18.799818
 30
0.0
 10
50.600471
 20
16.969536
 30
0.0
 10
50.688933
 20
15.663580
 30
0.0
 10
50.733882
 20
15.000007
 30
0.0
 11
50.733882
 21
15.000007
 31
0.0
 11
50.707257
 21
14.327943
 31
0.0
 11
50.628733
 21
13.670497
 31
0.0
 11
50.500334
 21
13.029692
 31
0.0
 11
50.041233
 21
11.663053
 31
0.0
 11
49.364165
 21
10.413254
 31
0.0
 11
48.492002
 21
9.303173
 31
0.0
 11
48.026521
 21
8.841096
 31
0.0
 11
47.526120
 21
8.416454
 31
0.0
 11
46.993094
 21
8.031536
 31
0.0
 11
45.587157
 21
7.280573
 31
0.0
 11
44.037043
 21
6.806351
 31
0.0
 11
42.374993
 21
6.641112
 31
0.0
 11
41.032879
 21
6.748287
 31
0.0
 11
39.758807
 21
7.058692
 31
0.0
 11
38.569458
 21
7.555653
 31
0.0
 11
37.677884
 21
8.084678
 31
0.0
 11
36.862034
 21
8.716688
 31
0.0
 11
36.130826
 21
9.442760
 31
0.0
 11
34.997923
 21
11.065873
 31
0.0
 11
34.272046
 21
12.939256
 31
0.0
 11
34.016107
 21
15.000007
 31
0.0
 11
34.066144
 21
15.919873
 31
0.0
 11
34.212751
 21
16.810701
 31
0.0
 11
34.450673
 21
17.667235
 31
0.0
 11
34.995235
 21
18.929100
 31
0.0
 11
35.731259
 21
20.073374
 31
0.0
 11
36.638459
 21
21.079773
 31
0.0
 11
37.227204
 21
21.586161
 31
0.0
 11
37.861619
 21
22.036878
 31
0.0
 11
38.537897
 21
22.428115
 31
0.0
 11
39.736039
 21
22.933784
 31
0.0
 11
41.020786
 21
23.249760
 31
0.0
 11
42.374993
 21
23.358895
 31
0.0
 11
43.628487
 21
23.265536
 31
0.0
 11
44.823790
 21
22.994474
 31
0.0
 11
45.947379
 21
22.559236
 31
0.0
 11
47.003175
 21
21.961754
 31
0.0
 11
47.956448
 21
21.222518
 31
0.0
 11
48.792946
 21
20.355783
 31
0.0
 11
49.834693
 21
18.775442
 31
0.0
 11
50.499947
 21
16.971908
 31
0.0
 11
50.733882
 21
15.000007
 31
0.0
  0
ENDSEC
  0
SECTION
  2
OBJECTS
  0
DICTIONARY
  5
C
330
0
100
AcDbDictionary
  3
ACAD_GROUP
350
D
  3
ACAD_MLINESTYLE
350
17
  0
DICTIONARY
  5
D
330
C
100
AcDbDictionary
  0
DICTIONARY
  5
1A
330
C
100
AcDbDictionary
  0
DICTIONARY
  5
17
330
C
100
AcDbDictionary
  3
STANDARD
350
18
  0
DICTIONARY
  5
19
330
C
100
AcDbDictionary
  0
ENDSEC
  0
EOF
