<?xml version="1.0" encoding="UTF-8" standalone="no"?>
<!-- Created with Inkscape (http://www.inkscape.org/) -->

<svg
   xmlns:dc="http://purl.org/dc/elements/1.1/"
   xmlns:cc="http://creativecommons.org/ns#"
   xmlns:rdf="http://www.w3.org/1999/02/22-rdf-syntax-ns#"
   xmlns:svg="http://www.w3.org/2000/svg"
   xmlns="http://www.w3.org/2000/svg"
   xmlns:sodipodi="http://sodipodi.sourceforge.net/DTD/sodipodi-0.dtd"
   xmlns:inkscape="http://www.inkscape.org/namespaces/inkscape"
   width="209.99998mm"
   height="210mm"
   viewBox="0 0 744.09443 744.09448"
   id="svg2"
   version="1.1"
   inkscape:version="0.91 r13725"
   sodipodi:docname="plataforma_sensores.svg">
  <defs
     id="defs4" />
  <sodipodi:namedview
     id="base"
     pagecolor="#ffffff"
     bordercolor="#666666"
     borderopacity="1.0"
     inkscape:pageopacity="0.0"
     inkscape:pageshadow="2"
     inkscape:zoom="0.5959954"
     inkscape:cx="553.7808"
     inkscape:cy="400.71218"
     inkscape:document-units="px"
     inkscape:current-layer="layer1"
     showgrid="false"
     fit-margin-top="0"
     fit-margin-left="0"
     fit-margin-right="0"
     fit-margin-bottom="0"
     inkscape:window-width="1366"
     inkscape:window-height="705"
     inkscape:window-x="-8"
     inkscape:window-y="-8"
     inkscape:window-maximized="1" />
  <metadata
     id="metadata7">
    <rdf:RDF>
      <cc:Work
         rdf:about="">
        <dc:format>image/svg+xml</dc:format>
        <dc:type
           rdf:resource="http://purl.org/dc/dcmitype/StillImage" />
        <dc:title />
      </cc:Work>
    </rdf:RDF>
  </metadata>
  <g
     inkscape:label="Capa 1"
     inkscape:groupmode="layer"
     id="layer1"
     transform="translate(0.69841,0.842898)">
    <path
       sodipodi:nodetypes="sssssssssssssssssssssssssssssssssssssssssssssssssssssssssssssssssssss"
       inkscape:connector-curvature="0"
       id="path3338"
       d="m 742.89604,371.20434 c 0,10.95947 -0.4745,21.80812 -1.4041,32.52651 -1.0662,12.29357 -2.7311,24.41579 -4.9653,36.33735 -1.4775,7.88413 -3.2041,15.6805 -5.1713,23.38063 -2.1208,8.30176 -4.5212,16.49166 -7.1906,24.55907 -5.1458,15.55164 -11.2911,30.64812 -18.3598,45.21334 -4.4937,9.25936 -9.3606,18.30403 -14.5812,27.11444 -5.6336,9.50751 -11.679,18.74223 -18.1117,27.6796 -6.4096,8.90539 -13.2037,17.51555 -20.358,25.80618 -7.5451,8.74347 -15.4907,17.13155 -23.8085,25.13572 -9.5308,9.17149 -19.5501,17.83893 -30.015,25.95942 -7.318,5.67859 -14.854,11.08972 -22.5932,16.21872 -13.0423,8.64353 -26.6618,16.48583 -40.7884,23.4567 -9.5419,4.70855 -19.3152,9.01951 -29.2981,12.91125 -11.8521,4.62038 -23.9997,8.64987 -36.4066,12.05226 -13.6739,3.74981 -27.6627,6.73792 -41.9182,8.91588 -10.3255,1.57754 -20.7909,2.73004 -31.3777,3.43909 -8.3277,0.55774 -16.7305,0.84109 -25.1995,0.84109 -23.4871,0 -46.4652,-2.17932 -68.7431,-6.34677 -19.315,-3.61318 -38.1036,-8.72083 -56.2413,-15.19835 -12.8231,-4.57948 -25.32075,-9.84366 -37.44907,-15.7485 C 195.34907,698.85303 182.24493,691.4465 169.66456,683.3 160.32014,677.24897 151.26471,670.78968 142.5235,663.94738 128.30013,652.81386 114.90873,640.66627 102.45809,627.61341 94.09151,618.84215 86.14973,609.6621 78.66578,600.10629 72.82312,592.64615 67.25949,584.95698 61.9906,577.0545 55.31376,567.04031 49.11021,556.68357 43.41194,546.01623 38.84617,537.46899 34.6048,528.72235 30.70424,519.79275 26.90477,511.09454 23.42869,502.22274 20.29119,493.19253 16.73038,482.94393 13.60568,472.4913 10.93932,461.85686 7.92902,449.85065 5.50293,437.6127 3.693,425.17497 2.14898,414.56451 1.05338,403.80865 0.42606,392.92726 c -0.41441,-7.1881 -0.62447,-14.43098 -0.62447,-21.72292 0,-11.58826 0.53052,-23.05262 1.56859,-34.3701 0.75241,-8.20316 1.77148,-16.32916 3.04845,-24.36925 1.08527,-6.83306 2.35682,-13.60407 3.80928,-20.30766 1.14149,-5.26832 2.39471,-10.495 3.75706,-15.67743 2.21202,-8.41458 4.71175,-16.71252 7.48804,-24.88267 3.12669,-9.20135 6.60416,-18.2406 10.41647,-27.10184 4.0038,-9.30634 8.37693,-18.41634 13.10093,-27.31153 3.98389,-7.50157 8.21732,-14.85038 12.68923,-22.03535 4.78779,-7.69251 9.84894,-15.19721 15.16987,-22.50054 6.62841,-9.09795 13.65995,-17.88338 21.06835,-26.33005 6.27306,-7.1522 12.81632,-14.06151 19.61385,-20.71199 6.12609,-5.993571 12.4587,-11.776914 18.98615,-17.338361 7.69289,-6.554413 15.65642,-12.800622 23.87148,-18.719526 6.57667,-4.738447 13.31454,-9.267125 20.20382,-13.576233 9.65906,-6.041553 19.61574,-11.651491 29.84304,-16.802804 7.63266,-3.844434 15.41603,-7.433429 23.3389,-10.755759 10.56604,-4.430684 21.38014,-8.387101 32.41564,-11.842621 9.4409,-2.956173 19.0438,-5.545756 28.7921,-7.752075 7.4067,-1.67633 14.8973,-3.131412 22.4645,-4.357933 8.7529,-1.41871 17.6084,-2.531619 26.5551,-3.32741 10.985,-0.977088 22.1074,-1.476106 33.3464,-1.476106 18.5242,0 36.7318,1.355629 54.5289,3.973091 15.7741,2.319922 31.2257,5.631104 46.2897,9.86824 5.8871,1.655925 11.7151,3.453275 17.4799,5.388152 10.1723,3.414185 20.1482,7.256577 29.906,11.505759 8.9569,3.900369 17.7301,8.143484 26.3031,12.712779 9.6457,5.141015 19.038,10.694942 28.1533,16.638189 14.8838,9.70437 29.029,20.446732 42.333,32.124381 10.9317,9.595367 21.2953,19.822207 31.0341,30.623547 6.7485,7.48489 13.1969,15.24565 19.3263,23.26333 5.4131,7.0808 10.5774,14.36197 15.4797,21.83047 6.2744,9.5587 12.1197,19.42424 17.5087,29.56924 6.7733,12.75134 12.8257,25.94417 18.1025,39.52412 5.5951,14.39889 10.3185,29.23299 14.1052,44.43752 4.328,17.37781 7.4326,35.2395 9.2169,53.4883 1.1773,12.04077 1.7799,24.25008 1.7799,36.60012 z"
       style="opacity:1;fill:#ffffff;stroke:#000000;stroke-width:1;stroke-miterlimit:4;stroke-dasharray:none;stroke-opacity:1" />
    <path
       sodipodi:nodetypes="csssssssssssssssssssssssssscssssssscccc"
       inkscape:connector-curvature="0"
       style="opacity:1;fill:none;fill-opacity:1;stroke:#0d0e10;stroke-width:0.91622925;stroke-opacity:1"
       d="m 265.55004,99.192411 c -12.4666,4.848829 -24.4604,10.492889 -35.93243,16.860749 -15.94874,8.85279 -30.88908,19.1045 -44.68973,30.5632 -8.25641,6.8553 -16.10489,14.14261 -23.51735,21.82081 -10.51043,10.88725 -20.1442,22.56043 -28.82114,34.90237 -9.63943,13.71097 -18.098,28.2473 -25.2658,43.44834 -7.57204,16.05831 -13.70362,32.85841 -18.26519,50.21092 -3.09287,11.76548 -5.46397,23.78492 -7.07293,35.99927 -1.65329,12.55089 -2.50185,25.30759 -2.50187,38.20606 -4e-5,20.23847 2.05985,39.99582 5.98142,59.07384 2.51729,12.24633 5.80168,24.21274 9.80075,35.84681 5.81196,16.90814 13.13344,33.1143 21.80349,48.45754 7.42521,13.14027 15.83953,25.64762 25.14187,37.42096 12.80864,16.21101 27.30091,31.0304 43.21287,44.19424 17.28085,14.29629 36.23617,26.63994 56.52794,36.69289 16.0404,7.94677 32.916,14.46214 50.4597,19.37911 12.1514,3.40566 24.6233,6.04451 37.3602,7.86105 13.5801,1.9368 27.4615,2.93882 41.577,2.93879 17.6577,-3e-5 34.9491,-1.56811 51.7427,-4.57257 9.0386,-1.61706 17.9329,-3.65021 26.6625,-6.07892 12.0689,-3.35776 23.8229,-7.47159 35.2077,-12.28726 11.2343,-4.75198 22.1092,-10.18737 32.5724,-16.25404 15.9745,-9.26205 30.9896,-19.99553 44.86,-32.01497 12.6066,-10.92436 24.2676,-22.91104 34.8437,-35.82079 9.6056,-11.72502 18.3162,-24.21148 26.0275,-37.35503 7.6907,-13.1083 14.3875,-26.87017 19.987,-41.18216 6.9739,-17.82517 12.2456,-36.50366 15.6151,-55.83554 2.8571,-16.39216 4.3466,-33.2541 4.3466,-50.46395 -0.012,-10.69695 -0.607,-21.29587 -1.7608,-31.76023 -1.4368,-13.03238 -3.7399,-25.85605 -6.861,-38.40047 -4.9172,-19.76382 -11.8646,-38.83447 -20.6533,-56.93601 -6.0197,-12.3983 -12.9032,-24.34196 -20.5897,-35.74234 -5.5969,-8.30103 -11.6196,-16.31401 -18.0445,-24.00473 -13.2355,-15.84284 -28.1783,-30.31811 -44.6236,-43.12662 -8.5319,-6.6451 -17.4682,-12.84157 -26.7803,-18.54765 -14.687,-8.99964 -30.3088,-16.77938 -46.7532,-23.17531 l 0,156.45703 -211.5976,0 z"
       id="path4144-8-5" />
    <g
       id="g4869"
       transform="matrix(0,0.93295535,-0.95355352,0,1285.2248,114.18603)">
      <path
         inkscape:connector-curvature="0"
         id="path4851"
         d="m 10.129921,1047.0472 a 4.8149605,4.814961 0 0 1 -4.8149605,4.815 4.8149605,4.814961 0 0 1 -4.8149605,-4.815 4.8149605,4.814961 0 0 1 4.8149605,-4.8149 4.8149605,4.814961 0 0 1 4.8149605,4.8149 z"
         style="opacity:1;fill:#ffffff;stroke:#000000;stroke-width:1.06022263;stroke-miterlimit:4;stroke-dasharray:none;stroke-opacity:1" />
      <g
         id="g4859">
        <path
           inkscape:connector-curvature="0"
           id="ellipse4855"
           d="m 10.129921,1046.8184 a 5.1667964,5.0437463 0 0 1 -5.1667966,5.0438 5.1667964,5.0437463 0 0 1 -5.16679643,-5.0438 5.1667964,5.0437463 0 0 1 5.16679643,-5.0437 5.1667964,5.0437463 0 0 1 5.1667966,5.0437 z"
           style="opacity:1;fill:#ffffff;stroke:#000000;stroke-width:1.06022263;stroke-miterlimit:4;stroke-dasharray:none;stroke-opacity:1" />
        <path
           inkscape:connector-curvature="0"
           id="ellipse4857"
           d="m 134.14566,1046.8184 a 5.1667969,5.0437463 0 0 1 -5.1668,5.0438 5.1667969,5.0437463 0 0 1 -5.1668,-5.0438 5.1667969,5.0437463 0 0 1 5.1668,-5.0437 5.1667969,5.0437463 0 0 1 5.1668,5.0437 z"
           style="opacity:1;fill:#ffffff;stroke:#000000;stroke-width:1.06022263;stroke-miterlimit:4;stroke-dasharray:none;stroke-opacity:1" />
      </g>
      <g
         transform="translate(0,-177.16535)"
         id="g4863">
        <path
           inkscape:connector-curvature="0"
           id="ellipse4865"
           d="m 10.129921,1046.8184 a 5.1667964,5.0437463 0 0 1 -5.1667966,5.0438 5.1667964,5.0437463 0 0 1 -5.16679643,-5.0438 5.1667964,5.0437463 0 0 1 5.16679643,-5.0437 5.1667964,5.0437463 0 0 1 5.1667966,5.0437 z"
           style="opacity:1;fill:#ffffff;stroke:#000000;stroke-width:1.06022263;stroke-miterlimit:4;stroke-dasharray:none;stroke-opacity:1" />
        <path
           inkscape:connector-curvature="0"
           id="ellipse4867"
           d="m 134.14566,1046.8184 a 5.1667969,5.0437463 0 0 1 -5.1668,5.0438 5.1667969,5.0437463 0 0 1 -5.1668,-5.0438 5.1667969,5.0437463 0 0 1 5.1668,-5.0437 5.1667969,5.0437463 0 0 1 5.1668,5.0437 z"
           style="opacity:1;fill:#ffffff;stroke:#000000;stroke-width:1.06022263;stroke-miterlimit:4;stroke-dasharray:none;stroke-opacity:1" />
      </g>
    </g>
    <g
       id="g5567">
      <g
         id="g5473">
        <g
           id="g5370">
          <g
             id="g5348">
            <g
               id="g5344">
              <path
                 inkscape:connector-curvature="0"
                 id="rect4454"
                 d="m 363.18897,54.029643 16.7165,0 0,2.543307 -16.7165,0 z"
                 style="opacity:1;fill:#ffffff;stroke:#000000;stroke-width:0.99999994;stroke-miterlimit:4;stroke-dasharray:none;stroke-opacity:1" />
              <path
                 inkscape:connector-curvature="0"
                 id="rect4456"
                 d="m 359.64567,61.315034 23.8031,0 0,9.1401 -23.8031,0 z"
                 style="opacity:1;fill:#ffffff;stroke:#000000;stroke-width:0.99999994;stroke-miterlimit:4;stroke-dasharray:none;stroke-opacity:1" />
            </g>
            <g
               id="g5340">
              <path
                 inkscape:connector-curvature="0"
                 id="rect4454-9"
                 d="m 379.9054,688.37905 -16.7165,0 0,-2.54331 16.7165,0 z"
                 style="opacity:1;fill:#ffffff;stroke:#000000;stroke-width:0.99999994;stroke-miterlimit:4;stroke-dasharray:none;stroke-opacity:1" />
              <path
                 inkscape:connector-curvature="0"
                 id="rect4456-6"
                 d="m 383.4487,681.09805 -23.8031,0 0,-9.62992 23.8031,0 z"
                 style="opacity:1;fill:#ffffff;stroke:#000000;stroke-width:0.99999994;stroke-miterlimit:4;stroke-dasharray:none;stroke-opacity:1" />
            </g>
          </g>
          <g
             transform="matrix(0,1,-1,0,742.75153,-0.3428385)"
             id="g5356">
            <g
               id="g5358">
              <path
                 style="opacity:1;fill:#ffffff;stroke:#000000;stroke-width:0.99999994;stroke-miterlimit:4;stroke-dasharray:none;stroke-opacity:1"
                 d="m 363.18897,54.029643 16.7165,0 0,2.543307 -16.7165,0 z"
                 id="path5360"
                 inkscape:connector-curvature="0" />
              <path
                 style="opacity:1;fill:#ffffff;stroke:#000000;stroke-width:0.99999994;stroke-miterlimit:4;stroke-dasharray:none;stroke-opacity:1"
                 d="m 359.64567,61.315034 23.8031,0 0,9.1401 -23.8031,0 z"
                 id="path5362"
                 inkscape:connector-curvature="0" />
            </g>
            <g
               id="g5364">
              <path
                 style="opacity:1;fill:#ffffff;stroke:#000000;stroke-width:0.99999994;stroke-miterlimit:4;stroke-dasharray:none;stroke-opacity:1"
                 d="m 379.9054,688.37905 -16.7165,0 0,-2.54331 16.7165,0 z"
                 id="path5366"
                 inkscape:connector-curvature="0" />
              <path
                 style="opacity:1;fill:#ffffff;stroke:#000000;stroke-width:0.99999994;stroke-miterlimit:4;stroke-dasharray:none;stroke-opacity:1"
                 d="m 383.4487,681.09805 -23.8031,0 0,-9.62992 23.8031,0 z"
                 id="path5368"
                 inkscape:connector-curvature="0" />
            </g>
          </g>
        </g>
        <g
           id="g5443"
           transform="matrix(0.70710678,0.70710678,-0.70710678,0.70710678,371.30476,-154.0003)">
          <g
             id="g5445">
            <g
               id="g5447">
              <path
                 style="opacity:1;fill:#ffffff;stroke:#000000;stroke-width:0.99999994;stroke-miterlimit:4;stroke-dasharray:none;stroke-opacity:1"
                 d="m 363.18897,54.029643 16.7165,0 0,2.543307 -16.7165,0 z"
                 id="path5449"
                 inkscape:connector-curvature="0" />
              <path
                 style="opacity:1;fill:#ffffff;stroke:#000000;stroke-width:0.99999994;stroke-miterlimit:4;stroke-dasharray:none;stroke-opacity:1"
                 d="m 359.64567,61.315034 23.8031,0 0,9.1401 -23.8031,0 z"
                 id="path5451"
                 inkscape:connector-curvature="0" />
            </g>
            <g
               id="g5453">
              <path
                 style="opacity:1;fill:#ffffff;stroke:#000000;stroke-width:0.99999994;stroke-miterlimit:4;stroke-dasharray:none;stroke-opacity:1"
                 d="m 379.9054,688.37905 -16.7165,0 0,-2.54331 16.7165,0 z"
                 id="path5455"
                 inkscape:connector-curvature="0" />
              <path
                 style="opacity:1;fill:#ffffff;stroke:#000000;stroke-width:0.99999994;stroke-miterlimit:4;stroke-dasharray:none;stroke-opacity:1"
                 d="m 383.4487,681.09805 -23.8031,0 0,-9.62992 23.8031,0 z"
                 id="path5457"
                 inkscape:connector-curvature="0" />
            </g>
          </g>
          <g
             id="g5459"
             transform="matrix(0,1,-1,0,742.75153,-0.3428385)">
            <g
               id="g5461">
              <path
                 inkscape:connector-curvature="0"
                 id="path5463"
                 d="m 363.18897,54.029643 16.7165,0 0,2.543307 -16.7165,0 z"
                 style="opacity:1;fill:#ffffff;stroke:#000000;stroke-width:0.99999994;stroke-miterlimit:4;stroke-dasharray:none;stroke-opacity:1" />
              <path
                 inkscape:connector-curvature="0"
                 id="path5465"
                 d="m 359.64567,61.315034 23.8031,0 0,9.1401 -23.8031,0 z"
                 style="opacity:1;fill:#ffffff;stroke:#000000;stroke-width:0.99999994;stroke-miterlimit:4;stroke-dasharray:none;stroke-opacity:1" />
            </g>
            <g
               id="g5467">
              <path
                 inkscape:connector-curvature="0"
                 id="path5469"
                 d="m 379.9054,688.37905 -16.7165,0 0,-2.54331 16.7165,0 z"
                 style="opacity:1;fill:#ffffff;stroke:#000000;stroke-width:0.99999994;stroke-miterlimit:4;stroke-dasharray:none;stroke-opacity:1" />
              <path
                 inkscape:connector-curvature="0"
                 id="path5471"
                 d="m 383.4487,681.09805 -23.8031,0 0,-9.62992 23.8031,0 z"
                 style="opacity:1;fill:#ffffff;stroke:#000000;stroke-width:0.99999994;stroke-miterlimit:4;stroke-dasharray:none;stroke-opacity:1" />
            </g>
          </g>
        </g>
      </g>
      <g
         transform="matrix(0.92718385,-0.37460659,0.37460659,0.92718385,-112.00096,166.21369)"
         id="g5505">
        <g
           id="g5507">
          <g
             id="g5509">
            <g
               id="g5511">
              <path
                 style="opacity:1;fill:#ffffff;stroke:#000000;stroke-width:0.99999994;stroke-miterlimit:4;stroke-dasharray:none;stroke-opacity:1"
                 d="m 363.18897,54.029643 16.7165,0 0,2.543307 -16.7165,0 z"
                 id="path5513"
                 inkscape:connector-curvature="0" />
              <path
                 style="opacity:1;fill:#ffffff;stroke:#000000;stroke-width:0.99999994;stroke-miterlimit:4;stroke-dasharray:none;stroke-opacity:1"
                 d="m 359.64567,61.315034 23.8031,0 0,9.1401 -23.8031,0 z"
                 id="path5515"
                 inkscape:connector-curvature="0" />
            </g>
            <g
               id="g5517">
              <path
                 style="opacity:1;fill:#ffffff;stroke:#000000;stroke-width:0.99999994;stroke-miterlimit:4;stroke-dasharray:none;stroke-opacity:1"
                 d="m 379.9054,688.37905 -16.7165,0 0,-2.54331 16.7165,0 z"
                 id="path5519"
                 inkscape:connector-curvature="0" />
              <path
                 style="opacity:1;fill:#ffffff;stroke:#000000;stroke-width:0.99999994;stroke-miterlimit:4;stroke-dasharray:none;stroke-opacity:1"
                 d="m 383.4487,681.09805 -23.8031,0 0,-9.62992 23.8031,0 z"
                 id="path5521"
                 inkscape:connector-curvature="0" />
            </g>
          </g>
          <g
             id="g5523"
             transform="matrix(0,1,-1,0,742.75153,-0.3428385)">
            <g
               id="g5525">
              <path
                 inkscape:connector-curvature="0"
                 id="path5527"
                 d="m 363.18897,54.029643 16.7165,0 0,2.543307 -16.7165,0 z"
                 style="opacity:1;fill:#ffffff;stroke:#000000;stroke-width:0.99999994;stroke-miterlimit:4;stroke-dasharray:none;stroke-opacity:1" />
              <path
                 inkscape:connector-curvature="0"
                 id="path5529"
                 d="m 359.64567,61.315034 23.8031,0 0,9.1401 -23.8031,0 z"
                 style="opacity:1;fill:#ffffff;stroke:#000000;stroke-width:0.99999994;stroke-miterlimit:4;stroke-dasharray:none;stroke-opacity:1" />
            </g>
            <g
               id="g5531">
              <path
                 inkscape:connector-curvature="0"
                 id="path5533"
                 d="m 379.9054,688.37905 -16.7165,0 0,-2.54331 16.7165,0 z"
                 style="opacity:1;fill:#ffffff;stroke:#000000;stroke-width:0.99999994;stroke-miterlimit:4;stroke-dasharray:none;stroke-opacity:1" />
              <path
                 inkscape:connector-curvature="0"
                 id="path5535"
                 d="m 383.4487,681.09805 -23.8031,0 0,-9.62992 23.8031,0 z"
                 style="opacity:1;fill:#ffffff;stroke:#000000;stroke-width:0.99999994;stroke-miterlimit:4;stroke-dasharray:none;stroke-opacity:1" />
            </g>
          </g>
        </g>
        <g
           transform="matrix(0.70710678,0.70710678,-0.70710678,0.70710678,371.30476,-154.0003)"
           id="g5537">
          <g
             id="g5539">
            <g
               id="g5541">
              <path
                 inkscape:connector-curvature="0"
                 id="path5543"
                 d="m 363.18897,54.029643 16.7165,0 0,2.543307 -16.7165,0 z"
                 style="opacity:1;fill:#ffffff;stroke:#000000;stroke-width:0.99999994;stroke-miterlimit:4;stroke-dasharray:none;stroke-opacity:1" />
              <path
                 inkscape:connector-curvature="0"
                 id="path5545"
                 d="m 359.64567,61.315034 23.8031,0 0,9.1401 -23.8031,0 z"
                 style="opacity:1;fill:#ffffff;stroke:#000000;stroke-width:0.99999994;stroke-miterlimit:4;stroke-dasharray:none;stroke-opacity:1" />
            </g>
            <g
               id="g5547">
              <path
                 inkscape:connector-curvature="0"
                 id="path5549"
                 d="m 379.9054,688.37905 -16.7165,0 0,-2.54331 16.7165,0 z"
                 style="opacity:1;fill:#ffffff;stroke:#000000;stroke-width:0.99999994;stroke-miterlimit:4;stroke-dasharray:none;stroke-opacity:1" />
              <path
                 inkscape:connector-curvature="0"
                 id="path5551"
                 d="m 383.4487,681.09805 -23.8031,0 0,-9.62992 23.8031,0 z"
                 style="opacity:1;fill:#ffffff;stroke:#000000;stroke-width:0.99999994;stroke-miterlimit:4;stroke-dasharray:none;stroke-opacity:1" />
            </g>
          </g>
          <g
             transform="matrix(0,1,-1,0,742.75153,-0.3428385)"
             id="g5553">
            <g
               id="g5555">
              <path
                 style="opacity:1;fill:#ffffff;stroke:#000000;stroke-width:0.99999994;stroke-miterlimit:4;stroke-dasharray:none;stroke-opacity:1"
                 d="m 363.18897,54.029643 16.7165,0 0,2.543307 -16.7165,0 z"
                 id="path5557"
                 inkscape:connector-curvature="0" />
              <path
                 style="opacity:1;fill:#ffffff;stroke:#000000;stroke-width:0.99999994;stroke-miterlimit:4;stroke-dasharray:none;stroke-opacity:1"
                 d="m 359.64567,61.315034 23.8031,0 0,9.1401 -23.8031,0 z"
                 id="path5559"
                 inkscape:connector-curvature="0" />
            </g>
            <g
               id="g5561">
              <path
                 style="opacity:1;fill:#ffffff;stroke:#000000;stroke-width:0.99999994;stroke-miterlimit:4;stroke-dasharray:none;stroke-opacity:1"
                 d="m 379.9054,688.37905 -16.7165,0 0,-2.54331 16.7165,0 z"
                 id="path5563"
                 inkscape:connector-curvature="0" />
              <path
                 style="opacity:1;fill:#ffffff;stroke:#000000;stroke-width:0.99999994;stroke-miterlimit:4;stroke-dasharray:none;stroke-opacity:1"
                 d="m 383.4487,681.09805 -23.8031,0 0,-9.62992 23.8031,0 z"
                 id="path5565"
                 inkscape:connector-curvature="0" />
            </g>
          </g>
        </g>
      </g>
    </g>
    <path
       style="opacity:1;fill:#ffffff;stroke:#000000;stroke-width:1;stroke-miterlimit:4;stroke-dasharray:none;stroke-opacity:1"
       d="m 220.36038,320.95659 0,27.34766 3.89844,0 0,9.63085 23.09374,0 0,-9.63085 3.89844,0 0,-27.34766 -30.89062,0 z"
       id="rect5633"
       inkscape:connector-curvature="0" />
    <path
       style="opacity:1;fill:#ffffff;stroke:#000000;stroke-width:1;stroke-miterlimit:4;stroke-dasharray:none;stroke-opacity:1"
       d="m 251.39623,320.95659 0,27.34766 3.89844,0 0,9.63085 23.09374,0 0,-9.63085 3.89844,0 0,-27.34766 -30.89062,0 z"
       id="rect5633-7"
       inkscape:connector-curvature="0" />
    <path
       style="opacity:1;fill:#ffffff;stroke:#000000;stroke-width:1;stroke-miterlimit:4;stroke-dasharray:none;stroke-opacity:1"
       d="m 282.10216,320.95659 0,27.34766 3.89844,0 0,9.63085 23.09374,0 0,-9.63085 3.89844,0 0,-27.34766 -30.89062,0 z"
       id="rect5633-6"
       inkscape:connector-curvature="0" />
    <path
       style="opacity:1;fill:#ffffff;stroke:#000000;stroke-width:1;stroke-miterlimit:4;stroke-dasharray:none;stroke-opacity:1"
       d="m 313.13801,320.95659 0,27.34766 3.89844,0 0,9.63085 23.09374,0 0,-9.63085 3.89844,0 0,-27.34766 -30.89062,0 z"
       id="rect5633-7-4"
       inkscape:connector-curvature="0" />
    <path
       style="opacity:1;fill:#ffffff;stroke:#000000;stroke-width:1;stroke-miterlimit:4;stroke-dasharray:none;stroke-opacity:1"
       d="m 409.07337,321.37616 0,27.34766 3.89844,0 0,9.63085 23.09374,0 0,-9.63085 3.89844,0 0,-27.34766 -30.89062,0 z"
       id="rect5633-8"
       inkscape:connector-curvature="0" />
    <path
       style="opacity:1;fill:#ffffff;stroke:#000000;stroke-width:1;stroke-miterlimit:4;stroke-dasharray:none;stroke-opacity:1"
       d="m 440.10922,321.37616 0,27.34766 3.89844,0 0,9.63085 23.09374,0 0,-9.63085 3.89844,0 0,-27.34766 -30.89062,0 z"
       id="rect5633-7-9"
       inkscape:connector-curvature="0" />
    <path
       style="opacity:1;fill:#ffffff;stroke:#000000;stroke-width:1;stroke-miterlimit:4;stroke-dasharray:none;stroke-opacity:1"
       d="m 470.81515,321.37616 0,27.34766 3.89844,0 0,9.63085 23.09374,0 0,-9.63085 3.89844,0 0,-27.34766 -30.89062,0 z"
       id="rect5633-6-5"
       inkscape:connector-curvature="0" />
    <path
       style="opacity:1;fill:#ffffff;stroke:#000000;stroke-width:1;stroke-miterlimit:4;stroke-dasharray:none;stroke-opacity:1"
       d="m 501.851,321.37616 0,27.34766 3.89844,0 0,9.63085 23.09374,0 0,-9.63085 3.89844,0 0,-27.34766 -30.89062,0 z"
       id="rect5633-7-4-4"
       inkscape:connector-curvature="0" />
    <path
       style="opacity:1;fill:#ffffff;stroke:#000000;stroke-width:1;stroke-miterlimit:4;stroke-dasharray:none;stroke-opacity:1"
       d="m 215.64997,391.16574 0,27.34766 3.89844,0 0,9.63085 23.09374,0 0,-9.63085 3.89844,0 0,-27.34766 -30.89062,0 z"
       id="rect5633-2"
       inkscape:connector-curvature="0" />
    <path
       style="opacity:1;fill:#ffffff;stroke:#000000;stroke-width:1;stroke-miterlimit:4;stroke-dasharray:none;stroke-opacity:1"
       d="m 246.68582,391.16574 0,27.34766 3.89844,0 0,9.63085 23.09374,0 0,-9.63085 3.89844,0 0,-27.34766 -30.89062,0 z"
       id="rect5633-7-0"
       inkscape:connector-curvature="0" />
    <path
       style="opacity:1;fill:#ffffff;stroke:#000000;stroke-width:1;stroke-miterlimit:4;stroke-dasharray:none;stroke-opacity:1"
       d="m 277.39175,391.16574 0,27.34766 3.89844,0 0,9.63085 23.09374,0 0,-9.63085 3.89844,0 0,-27.34766 -30.89062,0 z"
       id="rect5633-6-2"
       inkscape:connector-curvature="0" />
    <path
       style="opacity:1;fill:#ffffff;stroke:#000000;stroke-width:1;stroke-miterlimit:4;stroke-dasharray:none;stroke-opacity:1"
       d="m 308.4276,391.16574 0,27.34766 3.89844,0 0,9.63085 23.09374,0 0,-9.63085 3.89844,0 0,-27.34766 -30.89062,0 z"
       id="rect5633-7-4-7"
       inkscape:connector-curvature="0" />
    <path
       style="opacity:1;fill:#ffffff;stroke:#000000;stroke-width:1;stroke-miterlimit:4;stroke-dasharray:none;stroke-opacity:1"
       d="m 404.36296,391.58531 0,27.34766 3.89844,0 0,9.63085 23.09374,0 0,-9.63085 3.89844,0 0,-27.34766 -30.89062,0 z"
       id="rect5633-8-8"
       inkscape:connector-curvature="0" />
    <path
       style="opacity:1;fill:#ffffff;stroke:#000000;stroke-width:1;stroke-miterlimit:4;stroke-dasharray:none;stroke-opacity:1"
       d="m 435.39881,391.58531 0,27.34766 3.89844,0 0,9.63085 23.09374,0 0,-9.63085 3.89844,0 0,-27.34766 -30.89062,0 z"
       id="rect5633-7-9-8"
       inkscape:connector-curvature="0" />
    <path
       style="opacity:1;fill:#ffffff;stroke:#000000;stroke-width:1;stroke-miterlimit:4;stroke-dasharray:none;stroke-opacity:1"
       d="m 466.10474,391.58531 0,27.34766 3.89844,0 0,9.63085 23.09374,0 0,-9.63085 3.89844,0 0,-27.34766 -30.89062,0 z"
       id="rect5633-6-5-0"
       inkscape:connector-curvature="0" />
    <path
       style="opacity:1;fill:#ffffff;stroke:#000000;stroke-width:1;stroke-miterlimit:4;stroke-dasharray:none;stroke-opacity:1"
       d="m 497.14059,391.58531 0,27.34766 3.89844,0 0,9.63085 23.09374,0 0,-9.63085 3.89844,0 0,-27.34766 -30.89062,0 z"
       id="rect5633-7-4-4-0"
       inkscape:connector-curvature="0" />
  </g>
</svg>
